<svg xmlns="http://www.w3.org/2000/svg" xmlns:xlink="http://www.w3.org/1999/xlink" width="1080" zoomAndPan="magnify" viewBox="0 0 810 1012.49997" height="1350" preserveAspectRatio="xMidYMid meet" version="1.0"><defs><clipPath id="741b911413"><path d="M 235.890625 553 L 573.972656 553 L 573.972656 646 L 235.890625 646 Z M 235.890625 553 " clip-rule="nonzero"/></clipPath><clipPath id="4902faa28b"><path d="M 258 937 L 552 937 L 552 968.589844 L 258 968.589844 Z M 258 937 " clip-rule="nonzero"/></clipPath></defs><path fill="#f0d9b1" d="M 504.910156 538.140625 L 354.273438 517.15625 L 354.273438 569.742188 L 520.28125 553.515625 C 511.792969 553.515625 504.910156 546.632812 504.910156 538.140625 Z M 504.910156 538.140625 " fill-opacity="1" fill-rule="nonzero"/><path fill="#debf9b" d="M 289.710938 553.515625 L 366.570312 558.636719 L 366.570312 553.515625 C 366.570312 545.023438 373.449219 538.144531 381.941406 538.144531 L 504.910156 538.144531 C 504.910156 529.652344 511.792969 522.773438 520.28125 522.773438 L 404.996094 515.085938 L 289.710938 522.769531 C 298.199219 522.769531 305.082031 529.652344 305.082031 538.140625 C 305.082031 546.632812 298.199219 553.515625 289.710938 553.515625 Z M 289.710938 553.515625 " fill-opacity="1" fill-rule="nonzero"/><g clip-path="url(#741b911413)"><path fill="#fff2d6" d="M 527.96875 553.515625 L 282.027344 553.515625 C 256.558594 553.515625 235.910156 574.160156 235.910156 599.628906 C 235.910156 625.097656 256.558594 645.742188 282.027344 645.742188 C 291.386719 645.742188 299.6875 641.503906 305.300781 634.890625 L 504.695312 634.890625 C 510.304688 641.503906 518.609375 645.742188 527.96875 645.742188 C 553.4375 645.742188 574.082031 625.097656 574.082031 599.628906 C 574.082031 574.160156 553.4375 553.515625 527.96875 553.515625 Z M 527.96875 553.515625 " fill-opacity="1" fill-rule="nonzero"/></g><path fill="#f0d9b1" d="M 497.226562 876.3125 L 351.195312 876.3125 L 351.195312 668.859375 L 481.3125 668.859375 L 497.226562 676.484375 Z M 497.226562 876.3125 " fill-opacity="1" fill-rule="nonzero"/><path fill="#debf9b" d="M 381.941406 676.484375 L 497.226562 676.484375 L 497.226562 653.429688 L 312.769531 653.429688 L 312.769531 876.3125 L 366.566406 876.3125 L 366.566406 830.199219 L 371.492188 824.59375 L 371.492188 697.710938 L 366.566406 691.855469 C 366.570312 683.367188 373.449219 676.484375 381.941406 676.484375 Z M 381.941406 676.484375 " fill-opacity="1" fill-rule="nonzero"/><path fill="#fff2d6" d="M 535.652344 492.027344 L 328.140625 492.027344 C 319.652344 492.027344 312.769531 498.910156 312.769531 507.398438 L 323.5625 516.226562 L 535.652344 516.226562 L 551.023438 507.398438 C 551.023438 498.910156 544.144531 492.027344 535.652344 492.027344 Z M 535.652344 492.027344 " fill-opacity="1" fill-rule="nonzero"/><path fill="#f0d9b1" d="M 474.167969 591.941406 L 335.824219 591.941406 C 331.578125 591.941406 328.140625 588.503906 328.140625 584.257812 C 328.140625 580.007812 331.578125 576.570312 335.824219 576.570312 L 474.167969 576.570312 C 478.414062 576.570312 481.851562 580.007812 481.851562 584.257812 C 481.855469 588.503906 478.414062 591.941406 474.167969 591.941406 Z M 474.167969 591.941406 " fill-opacity="1" fill-rule="nonzero"/><path fill="#f0d9b1" d="M 513.558594 907.054688 L 337.15625 883.996094 L 314.097656 945.484375 L 527.96875 945.484375 Z M 513.558594 907.054688 " fill-opacity="1" fill-rule="nonzero"/><path fill="#debf9b" d="M 513.558594 907.054688 L 504.910156 883.996094 L 305.082031 883.996094 L 282.027344 945.484375 L 343.511719 945.484375 L 354.183594 917.027344 C 356.429688 911.03125 362.167969 907.054688 368.574219 907.054688 Z M 513.558594 907.054688 " fill-opacity="1" fill-rule="nonzero"/><path fill="#fff2d6" d="M 404.996094 837.882812 C 400.746094 837.882812 397.3125 834.445312 397.3125 830.199219 L 397.3125 691.855469 C 397.3125 687.609375 400.75 684.171875 404.996094 684.171875 C 409.246094 684.171875 412.683594 687.609375 412.683594 691.855469 L 412.683594 830.199219 C 412.683594 834.445312 409.246094 837.882812 404.996094 837.882812 Z M 404.996094 837.882812 " fill-opacity="1" fill-rule="nonzero"/><path fill="#fff2d6" d="M 435.738281 837.882812 C 431.492188 837.882812 428.054688 834.445312 428.054688 830.199219 L 428.054688 691.855469 C 428.054688 687.609375 431.492188 684.171875 435.738281 684.171875 C 439.988281 684.171875 443.425781 687.609375 443.425781 691.855469 L 443.425781 830.199219 C 443.425781 834.445312 439.988281 837.882812 435.738281 837.882812 Z M 435.738281 837.882812 " fill-opacity="1" fill-rule="nonzero"/><path fill="#fff2d6" d="M 466.484375 837.882812 C 462.234375 837.882812 458.796875 834.445312 458.796875 830.199219 L 458.796875 691.855469 C 458.796875 687.609375 462.234375 684.171875 466.484375 684.171875 C 470.730469 684.171875 474.167969 687.609375 474.167969 691.855469 L 474.167969 830.199219 C 474.167969 834.445312 470.730469 837.882812 466.484375 837.882812 Z M 466.484375 837.882812 " fill-opacity="1" fill-rule="nonzero"/><path fill="#fff2d6" d="M 374.253906 837.882812 C 370.003906 837.882812 366.570312 834.445312 366.570312 830.199219 L 366.570312 691.855469 C 366.570312 687.609375 370.007812 684.171875 374.253906 684.171875 C 378.5 684.171875 381.941406 687.609375 381.941406 691.855469 L 381.941406 830.199219 C 381.941406 834.445312 378.5 837.882812 374.253906 837.882812 Z M 374.253906 837.882812 " fill-opacity="1" fill-rule="nonzero"/><path fill="#f0d9b1" d="M 343.511719 837.882812 C 339.261719 837.882812 335.824219 834.445312 335.824219 830.199219 L 335.824219 691.855469 C 335.824219 687.609375 339.261719 684.171875 343.511719 684.171875 C 347.757812 684.171875 351.195312 687.609375 351.195312 691.855469 L 351.195312 830.199219 C 351.195312 834.445312 347.757812 837.882812 343.511719 837.882812 Z M 343.511719 837.882812 " fill-opacity="1" fill-rule="nonzero"/><path fill="#fff2d6" d="M 535.652344 937.796875 L 328.140625 937.796875 C 319.648438 937.796875 312.769531 944.679688 312.769531 953.167969 L 328.140625 962.957031 L 535.652344 962.957031 L 551.023438 953.167969 C 551.023438 944.679688 544.144531 937.796875 535.652344 937.796875 Z M 535.652344 937.796875 " fill-opacity="1" fill-rule="nonzero"/><path fill="#fff2d6" d="M 504.910156 860.941406 L 335.824219 860.941406 C 327.335938 860.941406 320.453125 867.824219 320.453125 876.3125 L 335.824219 886.019531 L 504.910156 886.019531 L 520.28125 876.3125 C 520.28125 867.824219 513.398438 860.941406 504.910156 860.941406 Z M 504.910156 860.941406 " fill-opacity="1" fill-rule="nonzero"/><path fill="#f0d9b1" d="M 520.28125 644.765625 C 511.355469 641.582031 504.910156 632.691406 504.910156 622.683594 C 504.910156 609.972656 515.253906 599.628906 527.96875 599.628906 C 532.207031 599.628906 535.652344 603.074219 535.652344 607.3125 C 535.652344 611.5625 539.089844 615 543.339844 615 C 547.585938 615 551.023438 611.5625 551.023438 607.3125 C 551.023438 594.597656 540.679688 584.257812 527.96875 584.257812 C 506.78125 584.257812 489.539062 601.496094 489.539062 622.683594 C 489.539062 625.316406 489.808594 627.886719 490.316406 630.371094 L 319.675781 630.371094 C 320.183594 627.886719 320.453125 625.316406 320.453125 622.683594 C 320.453125 601.496094 303.214844 584.257812 282.027344 584.257812 C 269.3125 584.257812 258.96875 594.597656 258.96875 607.3125 C 258.96875 611.5625 262.40625 615 266.65625 615 C 270.902344 615 274.339844 611.5625 274.339844 607.3125 C 274.339844 603.074219 277.785156 599.628906 282.027344 599.628906 C 294.742188 599.628906 305.082031 609.972656 305.082031 622.683594 C 305.082031 632.691406 298.640625 641.578125 289.710938 644.761719 L 289.710938 645.742188 C 289.710938 654.230469 296.59375 661.113281 305.082031 661.113281 L 504.910156 661.113281 C 513.398438 661.113281 520.28125 654.230469 520.28125 645.742188 Z M 520.28125 644.765625 " fill-opacity="1" fill-rule="nonzero"/><path fill="#f0d9b1" d="M 328.140625 492.027344 L 274.339844 492.027344 C 265.851562 492.027344 258.96875 498.910156 258.96875 507.398438 C 258.96875 515.886719 265.851562 522.769531 274.339844 522.769531 L 535.652344 522.769531 C 544.140625 522.769531 551.023438 515.886719 551.023438 507.398438 L 343.511719 507.398438 C 335.023438 507.398438 328.140625 500.515625 328.140625 492.027344 Z M 328.140625 492.027344 " fill-opacity="1" fill-rule="nonzero"/><g clip-path="url(#4902faa28b)"><path fill="#f0d9b1" d="M 328.140625 937.796875 L 274.339844 937.796875 C 265.851562 937.796875 258.96875 944.679688 258.96875 953.167969 C 258.96875 961.65625 265.851562 968.539062 274.339844 968.539062 L 535.652344 968.539062 C 544.140625 968.539062 551.023438 961.65625 551.023438 953.167969 L 343.511719 953.167969 C 335.023438 953.167969 328.140625 946.285156 328.140625 937.796875 Z M 328.140625 937.796875 " fill-opacity="1" fill-rule="nonzero"/></g><path fill="#f0d9b1" d="M 335.824219 860.941406 L 305.082031 860.941406 C 296.59375 860.941406 289.710938 867.824219 289.710938 876.3125 C 289.710938 884.800781 296.59375 891.683594 305.082031 891.683594 L 504.910156 891.683594 C 513.398438 891.683594 520.28125 884.800781 520.28125 876.3125 L 351.195312 876.3125 C 342.707031 876.3125 335.824219 869.429688 335.824219 860.941406 Z M 335.824219 860.941406 " fill-opacity="1" fill-rule="nonzero"/></svg>