<svg xmlns="http://www.w3.org/2000/svg" xmlns:xlink="http://www.w3.org/1999/xlink" width="1080" zoomAndPan="magnify" viewBox="0 0 810 1012.49997" height="1350" preserveAspectRatio="xMidYMid meet" version="1.0"><path fill="#faa38c" d="M 632.625 623.910156 C 630.089844 630.058594 627.007812 637.03125 623.492188 644.597656 C 615.257812 662.300781 604.59375 683.304688 592.722656 704.953125 C 582.667969 723.28125 571.746094 742.070312 560.691406 759.714844 C 547.0625 781.503906 533.222656 801.535156 520.582031 816.769531 C 520.582031 816.769531 378.078125 831.769531 336.078125 837.769531 C 336.078125 837.769531 299.515625 807.660156 260.019531 772.097656 C 251.726562 764.617188 243.308594 756.902344 235.058594 749.175781 C 217.660156 732.875 201.058594 716.503906 188.222656 702.238281 C 184.023438 697.566406 180.222656 693.132812 176.925781 688.988281 C 175.359375 687.011719 173.898438 685.101562 172.566406 683.273438 C 172.566406 683.273438 172.429688 683.085938 172.183594 682.734375 C 171.882812 682.285156 171.390625 681.558594 170.765625 680.589844 C 170.648438 680.414062 170.539062 680.226562 170.414062 680.042969 C 160.308594 663.484375 158.644531 638.789062 164.675781 611.421875 C 166.28125 604.144531 168.425781 596.675781 171.109375 589.128906 C 171.519531 587.941406 171.960938 586.75 172.410156 585.554688 C 179.578125 566.433594 190.125 546.847656 203.824219 528.460938 C 205.214844 526.582031 206.65625 524.710938 208.125 522.859375 C 212.1875 517.710938 216.503906 512.667969 221.066406 507.78125 C 228.949219 499.332031 237.554688 491.332031 246.882812 483.957031 C 249.074219 482.226562 251.308594 480.519531 253.578125 478.867188 C 268.03125 468.273438 284.0625 459.195312 301.578125 452.28125 C 311.753906 448.265625 321.789062 444.929688 331.683594 442.214844 C 350.882812 436.949219 369.511719 434.011719 387.398438 432.984375 C 391.921875 432.710938 396.40625 432.574219 400.832031 432.542969 C 400.980469 432.535156 401.125 432.535156 401.273438 432.542969 C 445.242188 432.335938 484.339844 443.34375 516.078125 458.511719 C 531.96875 466.109375 546.023438 474.753906 557.921875 483.550781 C 560.046875 485.125 562.101562 486.703125 564.089844 488.277344 C 576.25 497.933594 586.875 508.183594 596.023438 518.449219 C 625.265625 551.222656 639.453125 584.070312 640.597656 597.777344 C 640.921875 601.613281 637.964844 610.964844 632.625 623.910156 Z M 632.625 623.910156 " fill-opacity="1" fill-rule="nonzero"/><path fill="#faa38c" d="M 640.597656 597.777344 L 631.296875 599.46875 L 546.828125 614.898438 L 527.792969 618.375 L 436.148438 635.117188 L 430.457031 636.15625 L 382.710938 644.878906 L 380.714844 645.25 L 329.050781 654.691406 L 324.5 655.511719 L 265.816406 666.234375 L 250.714844 668.992188 L 175.421875 682.75 L 172.574219 683.269531 C 172.574219 683.269531 172.4375 683.082031 172.191406 682.730469 C 171.886719 682.28125 171.398438 681.554688 170.773438 680.585938 C 170.65625 680.410156 170.546875 680.222656 170.417969 680.039062 C 165.191406 671.8125 152.277344 649.125 153.078125 626.773438 C 153.324219 619.898438 154.65625 614.054688 156.523438 609.140625 C 160.746094 598.015625 167.738281 591.691406 171.113281 589.128906 C 172.320312 588.207031 173.074219 587.777344 173.074219 587.777344 C 173.074219 587.777344 172.796875 586.984375 172.417969 585.554688 C 170.476562 578.328125 165.71875 554.808594 179.074219 534.773438 C 195.074219 510.773438 221.074219 507.777344 221.074219 507.777344 C 221.074219 507.777344 224.078125 476.777344 248.082031 459.78125 C 272.082031 442.773438 301.585938 452.28125 301.585938 452.28125 C 301.585938 452.28125 317.085938 420.78125 346.082031 413.78125 C 373.460938 407.171875 398.15625 429.964844 400.839844 432.539062 C 401.003906 432.695312 401.085938 432.773438 401.085938 432.773438 C 401.085938 432.773438 401.152344 432.695312 401.28125 432.539062 C 403.542969 429.808594 425.9375 404.085938 459.09375 409.773438 C 494.089844 415.773438 498.09375 447.773438 498.09375 447.773438 C 498.09375 447.773438 523.097656 432.773438 552.097656 447.773438 C 581.09375 462.773438 577.097656 494.773438 577.097656 494.773438 C 577.097656 494.773438 589.125 491.769531 603.394531 496.007812 C 607.523438 497.242188 611.832031 499.082031 616.101562 501.773438 C 635.09375 513.773438 657.097656 554.78125 640.597656 597.777344 Z M 640.597656 597.777344 " fill-opacity="1" fill-rule="nonzero"/><path fill="#ed8268" d="M 640.597656 597.777344 C 640.921875 601.613281 637.964844 610.964844 632.636719 623.902344 C 632.625 623.910156 632.625 623.910156 632.625 623.910156 C 632.871094 615.988281 632.410156 607.714844 631.296875 599.46875 C 625.136719 553.9375 598.707031 509.015625 555.316406 525.628906 C 552.859375 486.433594 524.332031 456.824219 484.957031 477.632812 C 467.011719 440.023438 423.179688 423.652344 394.203125 459.550781 C 383.324219 450.269531 366.253906 445.832031 351.824219 447.910156 C 332.25 450.726562 326.128906 464.230469 312.035156 475.34375 C 303.066406 482.414062 306.777344 479.4375 295.578125 480.035156 C 289.203125 480.367188 282.527344 479.085938 275.996094 480.699219 C 262.226562 484.109375 250.289062 493.546875 243.03125 506.277344 C 239.832031 511.886719 240.007812 520.289062 237.089844 525.046875 C 232.585938 532.390625 232.585938 530.34375 225.113281 534.816406 C 213.5625 541.757812 205.667969 546.929688 199.574219 560.355469 C 193.828125 573.035156 190.5 587.285156 192.074219 601.527344 C 192.878906 608.851562 195.011719 613.386719 192.4375 619.222656 C 190.898438 622.714844 182.96875 627.828125 180.441406 632.351562 C 172.953125 645.8125 171.824219 665.242188 175.417969 682.757812 C 175.859375 684.871094 176.359375 686.945312 176.925781 688.992188 C 175.359375 687.015625 173.902344 685.105469 172.570312 683.273438 C 172.570312 683.273438 172.433594 683.089844 172.1875 682.738281 C 171.886719 682.285156 171.394531 681.5625 170.769531 680.59375 C 170.652344 680.417969 170.542969 680.230469 170.417969 680.042969 C 168.703125 677.34375 166.15625 673.09375 163.542969 667.796875 C 158.1875 656.96875 152.535156 641.796875 153.074219 626.777344 C 153.878906 604.335938 166.234375 592.820312 171.109375 589.128906 C 171.523438 587.945312 171.964844 586.75 172.414062 585.558594 C 170.476562 578.332031 165.714844 554.808594 179.070312 534.777344 C 195.070312 510.777344 221.070312 507.78125 221.070312 507.78125 C 221.070312 507.78125 224.078125 476.78125 248.078125 459.785156 C 272.078125 442.777344 301.582031 452.285156 301.582031 452.285156 C 301.582031 452.285156 317.082031 420.785156 346.078125 413.785156 C 373.460938 407.175781 398.152344 429.96875 400.835938 432.542969 C 400.984375 432.535156 401.128906 432.535156 401.277344 432.542969 C 403.539062 429.8125 425.933594 404.089844 459.089844 409.777344 C 494.085938 415.777344 498.089844 447.777344 498.089844 447.777344 C 498.089844 447.777344 523.09375 432.777344 552.09375 447.777344 C 581.089844 462.777344 577.097656 494.777344 577.097656 494.777344 C 577.097656 494.777344 597.089844 489.773438 616.097656 501.777344 C 635.09375 513.773438 657.097656 554.78125 640.597656 597.777344 Z M 640.597656 597.777344 " fill-opacity="1" fill-rule="nonzero"/><path fill="#f2876d" d="M 603.386719 496.011719 L 596.023438 518.449219 L 595.59375 519.777344 L 546.828125 614.902344 L 504.085938 698.277344 L 527.792969 618.378906 L 555.320312 525.632812 L 557.925781 483.550781 L 558.089844 480.777344 L 526.589844 455.28125 L 516.082031 458.511719 L 487.585938 467.285156 L 436.148438 635.121094 L 430.585938 653.273438 L 430.457031 636.160156 L 429.085938 455.78125 L 387.402344 432.988281 L 370.582031 423.785156 L 331.578125 441.78125 L 331.683594 442.21875 L 382.710938 644.886719 L 385.582031 656.28125 L 380.714844 645.257812 L 306.078125 476.285156 L 295.582031 459.789062 L 253.582031 478.871094 L 246.070312 482.277344 L 246.882812 483.960938 L 329.050781 654.695312 L 342.082031 681.78125 L 324.5 655.519531 L 237.09375 525.046875 L 208.125 522.863281 L 207.070312 522.785156 C 207.070312 522.785156 205.765625 524.976562 203.828125 528.464844 C 197.433594 539.9375 184.117188 565.378906 187.574219 572.28125 C 190.109375 577.351562 230.808594 625.351562 265.816406 666.238281 C 292.890625 697.875 316.578125 725.269531 316.578125 725.269531 L 250.710938 669 L 192.4375 619.222656 L 164.675781 611.425781 L 156.519531 609.144531 C 160.738281 598.023438 167.730469 591.699219 171.109375 589.132812 C 171.519531 587.949219 171.960938 586.753906 172.410156 585.558594 C 170.472656 578.335938 165.714844 554.8125 179.070312 534.78125 C 195.066406 510.78125 221.066406 507.785156 221.066406 507.785156 C 221.066406 507.785156 224.074219 476.785156 248.074219 459.789062 C 272.074219 442.78125 301.578125 452.289062 301.578125 452.289062 C 301.578125 452.289062 317.078125 420.789062 346.074219 413.789062 C 373.457031 407.179688 398.148438 429.972656 400.832031 432.546875 C 400.980469 432.535156 401.125 432.535156 401.273438 432.546875 C 403.535156 429.816406 425.933594 404.089844 459.085938 409.78125 C 494.082031 415.78125 498.089844 447.78125 498.089844 447.78125 C 498.089844 447.78125 523.089844 432.78125 552.09375 447.78125 C 581.085938 462.78125 577.09375 494.78125 577.09375 494.78125 C 577.09375 494.78125 589.121094 491.769531 603.386719 496.011719 Z M 603.386719 496.011719 " fill-opacity="0.41" fill-rule="nonzero"/><path fill="#db6c4f" d="M 640.597656 597.777344 C 640.921875 601.613281 637.964844 610.964844 632.636719 623.902344 C 639.15625 605.023438 643.085938 533.78125 613.089844 513.773438 C 583.085938 493.777344 566.085938 507.78125 566.085938 507.78125 C 566.085938 507.78125 570.09375 466.773438 541.085938 453.78125 C 512.082031 440.78125 489.082031 463.777344 489.082031 463.777344 C 489.082031 463.777344 486.085938 438.78125 458.085938 428.785156 C 430.082031 418.777344 406.082031 443.78125 406.082031 443.78125 C 406.082031 443.78125 381.082031 414.78125 352.078125 419.773438 C 323.070312 424.777344 305.074219 463.777344 305.074219 463.777344 C 305.074219 463.777344 283.070312 448.777344 257.074219 462.777344 C 231.074219 476.777344 228.070312 515.777344 228.070312 515.777344 C 228.070312 515.777344 204.066406 515.777344 186.070312 538.78125 C 168.0625 561.78125 180.066406 594.777344 180.066406 594.777344 C 180.066406 594.777344 169.070312 598.769531 162.070312 616.777344 C 157.371094 628.867188 160.789062 653.152344 163.539062 667.789062 C 158.183594 656.960938 152.535156 641.792969 153.070312 626.773438 C 153.875 604.328125 166.230469 592.816406 171.109375 589.125 C 171.519531 587.9375 171.960938 586.746094 172.410156 585.550781 C 170.472656 578.324219 165.714844 554.804688 179.070312 534.773438 C 195.066406 510.773438 221.066406 507.777344 221.066406 507.777344 C 221.066406 507.777344 224.074219 476.773438 248.074219 459.777344 C 272.074219 442.769531 301.578125 452.277344 301.578125 452.277344 C 301.578125 452.277344 317.078125 420.777344 346.074219 413.777344 C 373.457031 407.167969 398.148438 429.960938 400.832031 432.535156 C 400.980469 432.527344 401.125 432.527344 401.273438 432.535156 C 403.535156 429.804688 425.933594 404.082031 459.085938 409.769531 C 494.082031 415.773438 498.089844 447.769531 498.089844 447.769531 C 498.089844 447.769531 523.089844 432.773438 552.09375 447.769531 C 581.085938 462.769531 577.09375 494.769531 577.09375 494.769531 C 577.09375 494.769531 597.085938 489.765625 616.09375 501.769531 C 635.09375 513.773438 657.097656 554.78125 640.597656 597.777344 Z M 640.597656 597.777344 " fill-opacity="0.59" fill-rule="nonzero"/><path fill="#eb8369" d="M 592.722656 704.953125 C 591.46875 707.242188 590.195312 709.542969 588.914062 711.84375 C 588.757812 712.117188 588.609375 712.382812 588.464844 712.65625 C 587.328125 714.683594 586.183594 716.71875 585.027344 718.757812 C 584 720.589844 582.953125 722.417969 581.902344 724.25 C 581.628906 724.730469 581.355469 725.210938 581.082031 725.679688 C 579.875 727.785156 578.664062 729.878906 577.449219 731.976562 C 576.636719 733.355469 575.832031 734.734375 575.019531 736.117188 C 573.777344 738.222656 572.535156 740.316406 571.28125 742.410156 C 569.832031 744.839844 568.363281 747.269531 566.894531 749.675781 C 566.238281 750.753906 565.582031 751.832031 564.925781 752.898438 C 563.515625 755.1875 562.105469 757.460938 560.695312 759.710938 C 547.066406 781.5 533.226562 801.53125 520.585938 816.765625 C 520.585938 816.765625 378.082031 831.765625 336.082031 837.765625 C 336.082031 837.765625 299.527344 807.667969 260.035156 772.09375 L 260.023438 772.09375 C 251.730469 764.613281 243.3125 756.898438 235.0625 749.175781 C 252.941406 721.679688 301.601562 664.886719 405.085938 650.269531 C 485.402344 638.929688 551.496094 673.816406 592.722656 704.953125 Z M 592.722656 704.953125 " fill-opacity="0.41" fill-rule="nonzero"/><path fill="#eda82f" d="M 464.113281 250.128906 C 460.703125 256.492188 453.242188 262.671875 448.90625 265.921875 C 446.917969 267.410156 445.585938 268.28125 445.585938 268.28125 L 413.328125 254.777344 L 411.519531 247.023438 L 408.894531 235.746094 L 402.832031 209.785156 C 402.832031 209.785156 435.835938 189.535156 441.835938 196.285156 C 441.835938 196.285156 428.332031 209.03125 439.585938 219.53125 C 450.835938 230.039062 464.339844 231.535156 465.839844 242.789062 C 466.148438 245.152344 465.433594 247.660156 464.113281 250.128906 Z M 464.113281 250.128906 " fill-opacity="1" fill-rule="nonzero"/><path fill="#f7977f" d="M 216.070312 838.273438 L 237.652344 887.746094 C 244.894531 904.34375 264.113281 912.492188 280.828125 905.511719 C 281.242188 905.339844 281.65625 905.15625 282.074219 904.96875 C 302.074219 895.796875 304.078125 921.640625 326.078125 924.140625 C 348.078125 926.640625 364.078125 912.472656 376.078125 911.636719 C 388.082031 910.804688 397.082031 927.472656 420.082031 929.140625 C 443.082031 930.808594 450.085938 915.804688 466.085938 914.96875 C 482.089844 914.136719 488.089844 927.472656 505.089844 928.304688 C 522.089844 929.136719 536.09375 914.132812 545.089844 912.46875 C 554.09375 910.800781 567.09375 923.304688 585.09375 918.304688 C 603.09375 913.300781 610.09375 899.128906 624.09375 897.460938 C 627.011719 897.117188 629.925781 896.984375 632.71875 896.996094 C 645.414062 897.046875 657.015625 889.761719 662.773438 878.449219 C 670.605469 863.050781 680.0625 843.902344 681.167969 839.105469 Z M 216.070312 838.273438 " fill-opacity="1" fill-rule="nonzero"/><path fill="#eda82f" d="M 415.082031 258.78125 L 400.121094 345.046875 L 398.085938 356.777344 C 398.085938 356.777344 389.714844 353.847656 382.722656 354.21875 C 378.902344 354.425781 375.496094 355.601562 374.085938 358.78125 C 370.082031 367.78125 383.085938 377.777344 360.082031 385.777344 C 337.082031 393.777344 328.082031 385.777344 328.082031 385.777344 C 328.082031 385.777344 340.078125 380.777344 344.082031 373.785156 C 348.078125 366.785156 347.078125 345.78125 325.085938 325.777344 C 317.136719 318.542969 312.054688 310.398438 309.378906 302.226562 C 306.414062 293.179688 306.402344 284.105469 308.703125 276.230469 C 309.410156 273.800781 310.339844 271.492188 311.476562 269.335938 C 312.503906 267.351562 313.71875 265.488281 315.078125 263.785156 C 327.082031 248.785156 348.078125 240.785156 357.085938 234.78125 C 366.085938 228.78125 364.089844 215.777344 364.089844 215.777344 L 408.085938 227.78125 Z M 415.082031 258.78125 " fill-opacity="1" fill-rule="nonzero"/><path fill="#fcb29f" d="M 303.078125 776.273438 C 293.386719 772.191406 264.550781 773.097656 256.171875 781.867188 C 249.617188 788.726562 255.0625 794.488281 248.335938 800.285156 C 242.773438 805.082031 233.089844 803.117188 226.875 808.148438 C 217.296875 815.898438 210.804688 839.15625 220.878906 848.222656 C 227.714844 854.375 237.828125 848.378906 245.324219 852.773438 C 252.824219 857.167969 251.644531 864.511719 256.167969 871.105469 C 268.933594 889.722656 281.578125 876.921875 298.582031 876.691406 C 318.011719 876.429688 317.097656 897.414062 334.582031 901.929688 C 354.429688 907.058594 362.273438 888.164062 379.585938 885.695312 C 396.804688 883.242188 405.015625 902.363281 420.839844 903.765625 C 440.59375 905.515625 453.785156 885.003906 471.839844 884.214844 C 493.101562 883.28125 501.96875 907.742188 527.34375 894.824219 C 549.617188 883.488281 554.199219 869.410156 579.886719 876.023438 C 607.660156 883.171875 612.105469 872.207031 633.097656 858.699219 C 647.410156 849.488281 675.394531 859.371094 681.171875 839.273438 C 687.507812 817.234375 666.535156 799.191406 647.765625 802.144531 C 637.316406 803.789062 631.042969 808.425781 620.34375 804.074219 C 609.625 799.71875 604.882812 787.882812 595.59375 781.902344 C 573.675781 767.789062 561.464844 797.199219 540.460938 786.433594 C 516.53125 774.175781 512.128906 746.992188 481.175781 768.769531 C 471.117188 775.84375 463.742188 786.765625 450.085938 785.320312 C 438.402344 784.085938 432.421875 772.910156 423.160156 767.265625 C 396.058594 750.761719 392.195312 781.039062 370.582031 789.390625 C 346.332031 798.761719 344.679688 768.523438 324.078125 767.234375 C 316.207031 766.75 308.925781 771.515625 303.078125 776.273438 Z M 303.078125 776.273438 " fill-opacity="1" fill-rule="nonzero"/><path fill="#de6f53" d="M 660.152344 830.246094 C 657.304688 847.761719 635.171875 841.574219 623.855469 849.269531 C 620.339844 851.65625 616.988281 854.035156 613.660156 856.230469 C 603.054688 863.238281 592.6875 868.390625 578.09375 866.050781 C 561.617188 863.398438 553.859375 861.136719 539.140625 872.492188 C 521.691406 885.964844 510.714844 886.6875 492.863281 875.242188 C 474.730469 863.613281 460.527344 872.519531 444.03125 882.320312 C 423.917969 894.277344 417.316406 887.835938 399.582031 879.167969 C 383.769531 871.445312 374.5625 875.476562 360.082031 884.269531 C 347.027344 892.191406 334.257812 896.890625 323.800781 883.488281 C 316.632812 874.292969 313.332031 866.871094 303.0625 865.433594 C 301.289062 865.1875 299.320312 865.121094 297.078125 865.246094 C 284.886719 865.953125 269.894531 876.183594 263.851562 860.488281 C 261.101562 853.332031 264.421875 850.402344 257.078125 845.488281 C 252.160156 842.210938 244.4375 842.875 239.101562 841.269531 C 221.984375 836.140625 229.113281 824.546875 240.6875 816.378906 C 245.179688 813.214844 251.671875 811.933594 255.695312 808.378906 C 262.394531 802.484375 258.035156 799.988281 261.570312 793.3125 C 267.425781 782.21875 285.503906 783.273438 296.082031 783.273438 C 302.667969 783.15625 306.8125 778.332031 313.078125 779.222656 C 321.085938 780.367188 328.058594 790.890625 334.277344 795.269531 C 344.566406 802.515625 354.34375 803.71875 366.054688 799.273438 C 378.359375 794.59375 385.410156 780.972656 398.105469 777.480469 C 408.785156 774.53125 411.910156 781.289062 420.3125 786.25 C 446.78125 801.90625 459.960938 760.429688 486.859375 765.230469 C 499.082031 767.402344 505.386719 780.210938 513.3125 788.074219 C 524.089844 798.785156 535.953125 803.046875 551.121094 801.046875 C 563.78125 799.382812 577.570312 789.203125 590.082031 794.222656 C 599.363281 797.964844 605.992188 808.3125 614.585938 813.777344 C 627.84375 822.195312 633.011719 814.550781 647.144531 815.265625 C 656.492188 815.746094 661.699219 820.667969 660.152344 830.246094 Z M 660.152344 830.246094 " fill-opacity="1" fill-rule="nonzero"/><path fill="#de9821" d="M 415.082031 258.78125 L 400.121094 345.046875 L 382.722656 354.21875 L 374.085938 358.78125 C 374.085938 358.78125 363.082031 330.777344 355.578125 307.535156 C 348.078125 284.277344 362.335938 252.039062 339.082031 252.78125 C 325.550781 253.222656 316.585938 262.042969 311.476562 269.335938 C 312.503906 267.351562 313.71875 265.488281 315.078125 263.785156 C 327.082031 248.785156 348.078125 240.785156 357.085938 234.78125 C 366.085938 228.78125 364.089844 215.777344 364.089844 215.777344 L 408.085938 227.78125 Z M 415.082031 258.78125 " fill-opacity="1" fill-rule="nonzero"/><path fill="#eda82f" d="M 613.660156 856.234375 C 603.054688 863.242188 592.6875 868.394531 578.09375 866.054688 C 561.617188 863.398438 553.859375 861.136719 539.140625 872.496094 C 521.691406 885.96875 510.714844 886.691406 492.863281 875.246094 C 474.730469 863.613281 460.527344 872.523438 444.03125 882.324219 C 423.917969 894.28125 417.316406 887.835938 399.582031 879.171875 C 383.769531 871.449219 374.5625 875.480469 360.082031 884.273438 C 347.027344 892.195312 334.257812 896.894531 323.800781 883.492188 C 316.632812 874.296875 313.332031 866.875 303.0625 865.4375 C 304.050781 856.652344 309.359375 844.628906 326.085938 830.773438 C 336.082031 822.492188 351.886719 816 370.972656 811.367188 C 417.582031 800.078125 483.75 799.921875 532.722656 811.9375 C 533.855469 812.199219 534.972656 812.484375 536.089844 812.777344 C 583.382812 825.113281 604.839844 844.964844 613.660156 856.234375 Z M 613.660156 856.234375 " fill-opacity="1" fill-rule="nonzero"/><path fill="#de981d" d="M 613.660156 856.234375 C 603.054688 863.242188 592.6875 868.394531 578.09375 866.054688 C 561.617188 863.398438 553.859375 861.136719 539.140625 872.496094 C 521.691406 885.96875 510.714844 886.691406 492.863281 875.246094 C 474.730469 863.613281 460.527344 872.523438 444.03125 882.324219 C 423.917969 894.28125 417.316406 887.835938 399.582031 879.171875 C 383.769531 871.449219 374.5625 875.480469 360.082031 884.273438 C 347.027344 892.195312 334.257812 896.894531 323.800781 883.492188 C 316.632812 874.296875 313.332031 866.875 303.0625 865.4375 C 304.050781 856.652344 309.359375 844.628906 326.085938 830.773438 C 336.082031 822.492188 351.886719 816 370.972656 811.367188 C 388.96875 812.347656 421.332031 814.589844 438.085938 818.769531 C 462.089844 824.773438 369.078125 808.773438 348.078125 837.773438 C 327.082031 866.777344 451.089844 867.777344 472.085938 864.769531 C 493.089844 861.773438 503.089844 878.769531 513.09375 872.769531 C 523.09375 866.777344 500.09375 852.777344 482.09375 847.769531 C 470.332031 844.5 506.320312 825.042969 532.71875 811.933594 C 533.855469 812.195312 534.96875 812.480469 536.085938 812.773438 C 583.382812 825.113281 604.839844 844.964844 613.660156 856.234375 Z M 613.660156 856.234375 " fill-opacity="1" fill-rule="nonzero"/><path fill="#f7eacf" d="M 427.085938 713.777344 C 425.078125 717.773438 382.082031 802.773438 382.082031 802.773438 C 382.082031 802.773438 362.078125 805.777344 359.078125 797.777344 C 358.648438 796.632812 358.589844 795.46875 358.792969 794.285156 C 359.546875 790.140625 363.71875 785.851562 367.195312 781.800781 C 369.625 778.96875 371.730469 776.25 372.082031 773.78125 C 372.082031 773.78125 372.089844 773.722656 372.101562 773.59375 C 372.109375 773.527344 372.121094 773.457031 372.128906 773.390625 C 372.785156 766.527344 364.855469 760.054688 353.078125 774.78125 C 341.082031 789.78125 329.074219 782.777344 329.074219 776.777344 C 329.074219 770.777344 338.074219 743.777344 341.078125 690.777344 C 344.074219 637.777344 352.074219 539.785156 352.074219 539.785156 L 383.078125 504.78125 C 383.078125 504.78125 436.082031 650.78125 437.082031 654.773438 C 438.085938 658.777344 429.085938 709.769531 427.085938 713.777344 Z M 427.085938 713.777344 " fill-opacity="1" fill-rule="nonzero"/><path fill="#ffc29b" d="M 432.085938 699.773438 C 431.417969 707.058594 428.019531 717.523438 423.839844 728.40625 C 415.390625 750.398438 403.746094 774.101562 405.089844 776.773438 C 407.085938 780.777344 414.085938 788.777344 413.089844 794.769531 C 412.089844 800.769531 397.089844 808.769531 393.085938 813.773438 C 389.089844 818.765625 384.085938 834.765625 381.089844 837.773438 C 378.082031 840.769531 342.085938 841.769531 342.085938 838.773438 C 342.085938 835.777344 342.085938 831.773438 345.082031 828.777344 C 348.078125 825.769531 353.082031 825.769531 357.085938 823.773438 C 361.082031 821.777344 379.078125 788.777344 380.089844 779.769531 C 381.089844 770.773438 395.082031 668.773438 395.082031 660.773438 C 395.082031 657.269531 394.886719 645.46875 394.671875 633.335938 C 394.398438 617.835938 394.082031 601.777344 394.082031 601.777344 C 417.082031 615.769531 434.082031 677.773438 432.085938 699.773438 Z M 432.085938 699.773438 " fill-opacity="1" fill-rule="nonzero"/><path fill="#f79a5e" d="M 432.085938 699.773438 C 431.417969 707.058594 428.019531 717.523438 423.839844 728.40625 C 419.226562 712.328125 403.003906 656.160156 394.667969 633.339844 C 394.394531 617.839844 394.078125 601.78125 394.078125 601.78125 C 417.082031 615.769531 434.082031 677.773438 432.085938 699.773438 Z M 432.085938 699.773438 " fill-opacity="1" fill-rule="nonzero"/><path fill="#de9821" d="M 464.113281 250.128906 C 460.703125 256.492188 453.242188 262.671875 448.90625 265.921875 L 411.519531 247.023438 L 407.082031 244.78125 L 408.894531 235.746094 L 413.328125 213.535156 L 431.082031 199.28125 C 431.082031 199.28125 435.085938 204.285156 432.082031 212.78125 C 429.085938 221.28125 423.582031 233.285156 434.585938 239.777344 C 442.425781 244.410156 456.613281 248.289062 464.113281 250.128906 Z M 464.113281 250.128906 " fill-opacity="1" fill-rule="nonzero"/><path fill="#ffc29b" d="M 477.089844 806.777344 C 477.089844 806.777344 478.929688 829.542969 477.324219 840.800781 C 476.875 843.894531 476.167969 846.128906 475.089844 846.773438 C 473.125 847.949219 467.277344 848.203125 460.492188 848.125 C 450.035156 848.027344 437.332031 847.167969 433.082031 847.773438 C 426.082031 848.773438 399.082031 850.769531 399.082031 847.773438 C 399.082031 845.855469 399.90625 844.347656 401.277344 842.976562 C 402.050781 842.210938 403 841.488281 404.085938 840.773438 C 407.082031 838.777344 417.082031 836.777344 420.085938 833.773438 C 423.082031 830.777344 449.082031 799.777344 447.085938 791.777344 C 445.085938 783.777344 413.085938 664.78125 411.085938 655.78125 C 409.082031 646.773438 399.082031 633.78125 395.078125 621.777344 C 392.582031 614.285156 386.570312 585.714844 382.417969 565.328125 C 381.183594 559.308594 380.117188 554.011719 379.351562 550.171875 C 378.550781 546.1875 378.082031 543.78125 378.082031 543.78125 L 376.179688 483.757812 L 376.082031 480.78125 L 387.324219 465.449219 L 398.085938 450.785156 L 399.40625 454.269531 L 409.082031 479.789062 C 409.082031 479.789062 474.089844 628.785156 475.089844 631.789062 C 476.085938 634.785156 492.085938 725.785156 492.085938 725.785156 Z M 477.089844 806.777344 " fill-opacity="1" fill-rule="nonzero"/><path fill="#f2af3c" d="M 449.335938 191.78125 C 448.757812 193.699219 447.242188 195.628906 445.3125 197.421875 C 441.582031 200.898438 436.273438 203.894531 433.160156 205.507812 C 431.605469 206.320312 430.585938 206.78125 430.585938 206.78125 L 420.882812 207.476562 L 388.585938 209.785156 L 369.082031 194.035156 C 369.082031 194.035156 362.640625 184.664062 357.519531 186.121094 C 357.519531 186.121094 357.519531 186.113281 357.507812 186.121094 C 356.832031 186.308594 356.1875 186.679688 355.578125 187.289062 C 350.332031 192.535156 353.335938 203.785156 353.335938 203.785156 C 353.335938 203.785156 353.328125 203.773438 353.296875 203.773438 C 352.425781 203.441406 336.945312 197.488281 340.589844 187.289062 C 344.328125 176.78125 362.335938 179.035156 362.335938 179.035156 C 362.335938 179.035156 353.335938 176.78125 356.332031 170.035156 C 359.328125 163.289062 372.089844 161.792969 372.089844 161.792969 C 372.089844 161.792969 375.859375 157.191406 382.054688 152.960938 C 382.054688 152.960938 382.054688 152.953125 382.066406 152.953125 C 387.609375 149.171875 395.097656 145.6875 403.585938 146.039062 C 421.585938 146.792969 437.585938 152.785156 436.089844 157.289062 C 434.589844 161.792969 428.332031 170.035156 438.839844 173.03125 C 439.367188 173.179688 439.867188 173.34375 440.347656 173.523438 C 449.550781 176.855469 451.480469 184.652344 449.335938 191.78125 Z M 449.335938 191.78125 " fill-opacity="1" fill-rule="nonzero"/><path fill="#e3a232" d="M 391.582031 172.785156 C 391.582031 172.785156 396.085938 166.785156 403.585938 162.285156 C 411.085938 157.785156 389.082031 165.285156 387.082031 172.285156 C 385.082031 179.285156 391.582031 172.785156 391.582031 172.785156 Z M 391.582031 172.785156 " fill-opacity="1" fill-rule="nonzero"/><path fill="#ffc29b" d="M 525.84375 347.035156 C 525.089844 351.527344 501.089844 389.03125 487.585938 402.53125 C 484.894531 405.222656 482.355469 406.722656 480.015625 407.398438 C 470.597656 410.097656 464.339844 399.527344 464.339844 399.527344 C 464.339844 399.527344 466.160156 396.5 468.921875 391.910156 C 468.921875 391.898438 468.921875 391.898438 468.921875 391.898438 C 476.003906 380.070312 489.199219 357.890625 493.21875 350.167969 C 493.804688 349.03125 494.199219 348.207031 494.34375 347.777344 C 495.460938 344.398438 480.441406 329.105469 471.992188 320.78125 C 470.992188 319.792969 470.082031 318.910156 469.296875 318.148438 C 468.859375 317.726562 468.464844 317.34375 468.125 317.011719 C 467.371094 316.289062 466.839844 315.777344 466.597656 315.535156 C 464.34375 313.28125 384.085938 260.78125 384.085938 260.78125 C 384.085938 260.78125 398.332031 252.535156 399.839844 249.53125 C 400.203125 248.804688 400.074219 247.054688 399.683594 244.832031 C 399.390625 243.195312 398.960938 241.316406 398.460938 239.378906 C 396.84375 233.082031 394.582031 226.289062 394.582031 226.289062 L 395.171875 225.523438 L 412.589844 203.03125 L 417.835938 212.027344 C 417.835938 212.027344 424.582031 237.535156 427.589844 241.285156 C 430.585938 245.035156 451.59375 248.03125 459.835938 251.027344 C 459.835938 251.027344 459.835938 251.027344 459.847656 251.039062 C 468.101562 254.042969 481.597656 263.785156 486.84375 275.027344 C 492.09375 286.277344 514.597656 325.277344 519.84375 332.035156 C 525.089844 338.78125 526.589844 342.53125 525.84375 347.035156 Z M 525.84375 347.035156 " fill-opacity="1" fill-rule="nonzero"/><path fill="#f79352" d="M 412.585938 215.777344 C 409.921875 228.703125 402.070312 236.421875 398.457031 239.378906 C 396.839844 233.082031 394.578125 226.289062 394.578125 226.289062 L 395.167969 225.523438 Z M 412.585938 215.777344 " fill-opacity="1" fill-rule="nonzero"/><path fill="#ffc29b" d="M 459.835938 251.03125 C 459.835938 251.03125 468.839844 268.28125 471.085938 289.28125 C 473.335938 310.28125 456.085938 359.03125 454.585938 363.53125 C 453.082031 368.03125 470.335938 395.78125 478.585938 404.78125 C 486.839844 413.78125 469.585938 462.527344 469.585938 462.527344 L 429.085938 455.78125 L 400.582031 418.28125 L 381.832031 294.53125 L 384.078125 260.785156 Z M 459.835938 251.03125 " fill-opacity="1" fill-rule="nonzero"/><path fill="#f79a5e" d="M 411.085938 309.78125 C 411.085938 309.78125 414.835938 319.53125 416.335938 327.03125 C 417.835938 334.53125 425.335938 385.53125 425.335938 397.53125 C 425.335938 409.53125 408.089844 427.53125 408.089844 427.53125 C 408.089844 427.53125 401.339844 420.28125 400.589844 418.28125 C 399.835938 416.28125 397.582031 325.53125 411.085938 309.78125 Z M 411.085938 309.78125 " fill-opacity="1" fill-rule="nonzero"/><path fill="#ffc29b" d="M 413.332031 213.535156 C 413.332031 213.535156 432.835938 218.035156 432.835938 203.785156 C 432.835938 189.535156 412.582031 202.785156 412.582031 202.785156 C 412.582031 202.785156 406.582031 191.789062 414.085938 180.535156 C 414.085938 180.535156 400.082031 167.785156 391.582031 172.785156 C 389.460938 174.03125 384.609375 168.519531 382.082031 168.78125 C 372.582031 169.78125 372.082031 188.78125 369.082031 194.035156 C 366.082031 199.285156 363.75 204.117188 362.414062 211.449219 C 361.332031 217.402344 368.082031 234.117188 372.832031 236.285156 C 377.429688 238.378906 402.75 240.449219 413.332031 213.535156 Z M 413.332031 213.535156 " fill-opacity="1" fill-rule="nonzero"/><path fill="#f79a5e" d="M 468.917969 391.898438 C 468.917969 391.898438 477.835938 420.03125 459.835938 435.03125 C 441.835938 450.03125 420.832031 433.527344 420.832031 433.527344 L 444.085938 471.027344 C 444.085938 471.027344 477.835938 443.277344 479.335938 440.277344 C 480.835938 437.277344 481.757812 408.769531 468.917969 391.898438 Z M 468.917969 391.898438 " fill-opacity="1" fill-rule="nonzero"/><path fill="#f79a5e" d="M 477.089844 806.777344 C 477.089844 806.777344 480.085938 843.777344 475.089844 846.773438 C 473.125 847.949219 467.277344 848.203125 460.492188 848.125 C 462.558594 819.25 471.527344 688.992188 467.09375 674.777344 C 462.089844 658.777344 422.085938 604.777344 413.089844 580.777344 C 404.089844 556.777344 404.089844 522.785156 403.082031 528.777344 C 402.082031 534.777344 401.085938 554.785156 394.082031 561.785156 C 390.390625 565.464844 385.867188 565.828125 382.421875 565.328125 C 381.1875 559.308594 380.121094 554.011719 379.355469 550.171875 L 383.085938 527.777344 L 376.183594 483.753906 L 375.085938 476.785156 L 387.328125 465.445312 L 399.410156 454.265625 L 409.082031 479.785156 C 409.082031 479.785156 474.09375 628.78125 475.089844 631.785156 C 476.089844 634.78125 492.089844 725.785156 492.089844 725.785156 Z M 477.089844 806.777344 " fill-opacity="0.5" fill-rule="nonzero"/><path fill="#fcf1dc" d="M 639.097656 829.773438 C 639.097656 832.769531 621.09375 830.773438 618.097656 836.773438 C 615.382812 842.199219 587.238281 847.632812 570.808594 847.132812 C 569.097656 847.074219 567.511719 846.957031 566.089844 846.773438 C 551.089844 844.773438 537.09375 830.773438 528.085938 834.769531 C 525.421875 835.953125 523.632812 837.566406 522.261719 839.351562 C 518.980469 843.570312 518.019531 848.660156 513.09375 850.765625 C 506.09375 853.773438 473.085938 846.773438 467.09375 840.769531 C 461.089844 834.769531 485.089844 695.777344 470.089844 666.773438 C 455.085938 637.769531 423.085938 590.773438 415.085938 563.777344 C 407.949219 539.699219 409.5625 497.34375 400.074219 473.558594 C 400.074219 473.558594 400.074219 473.550781 400.066406 473.539062 C 399.636719 472.464844 399.183594 471.425781 398.703125 470.425781 C 398.695312 470.417969 398.695312 470.40625 398.683594 470.386719 C 397.921875 468.78125 397.089844 467.292969 396.179688 465.921875 C 396.160156 465.882812 396.140625 465.863281 396.128906 465.84375 C 396.109375 465.816406 396.101562 465.796875 396.089844 465.777344 C 396.089844 465.777344 404.089844 539.78125 389.089844 551.773438 C 374.089844 563.777344 352.085938 539.78125 352.085938 539.78125 L 352.320312 535.011719 L 352.886719 523.441406 L 355.082031 478.78125 L 380.085938 426.78125 L 408.085938 411.78125 C 408.085938 411.78125 410.738281 416.617188 415.09375 422.875 C 424.859375 436.933594 443.171875 458.164062 459.09375 447.785156 C 482.085938 432.785156 472.25 394.804688 461.765625 380.789062 C 462.253906 381.015625 477.960938 388.4375 485.332031 398.03125 C 486.460938 399.5 487.664062 401.359375 488.878906 403.492188 C 495.761719 415.496094 503.339844 436.023438 503.339844 443.03125 C 503.339844 448.035156 500.304688 464.335938 497.914062 476.402344 C 496.367188 484.234375 495.085938 490.277344 495.085938 490.277344 C 495.085938 490.277344 495.085938 490.363281 495.074219 490.53125 C 495.027344 491.929688 494.773438 499.007812 494.488281 509.9375 C 493.863281 534.035156 493.089844 576.84375 493.980469 618.585938 C 494.339844 635.984375 495.007812 653.1875 496.085938 668.773438 C 501.085938 740.773438 547.089844 796.78125 565.089844 809.773438 C 583.089844 822.773438 639.097656 826.769531 639.097656 829.773438 Z M 639.097656 829.773438 " fill-opacity="1" fill-rule="nonzero"/><path fill="#ebd9b7" d="M 396.085938 465.777344 C 396.085938 465.777344 395.078125 524.777344 381.085938 537.785156 C 368.09375 549.835938 354.246094 536.941406 352.316406 535.011719 L 352.882812 523.441406 C 360.972656 528.582031 372.6875 534.914062 377.082031 531.78125 C 384.078125 526.777344 396.085938 465.777344 396.085938 465.777344 Z M 396.085938 465.777344 " fill-opacity="0.61" fill-rule="nonzero"/><path fill="#ffcdad" d="M 420.085938 400.28125 L 420.078125 400.300781 C 417.179688 408.867188 369.726562 467.785156 364.546875 476.320312 C 364.515625 476.371094 364.496094 476.417969 364.46875 476.46875 C 364.210938 476.878906 364.085938 477.152344 364.085938 477.28125 C 364.085938 479.777344 368.082031 496.773438 368.082031 500.28125 C 368.082031 503.777344 367.582031 512.777344 367.582031 514.78125 C 367.582031 516.78125 369.578125 528.773438 368.082031 531.78125 C 366.582031 534.773438 362.578125 537.273438 362.078125 535.773438 C 361.578125 534.277344 361.078125 521.773438 360.082031 524.777344 C 359.082031 527.773438 354.078125 542.273438 352.082031 544.773438 C 350.082031 547.277344 345.578125 547.777344 346.078125 545.269531 C 346.578125 542.773438 351.582031 524.28125 350.582031 525.777344 C 349.585938 527.277344 343.082031 538.78125 341.085938 540.277344 C 339.078125 541.777344 335.582031 541.777344 336.082031 539.277344 C 336.582031 536.773438 343.582031 521.773438 344.582031 517.773438 C 345.578125 513.769531 346.578125 479.03125 347.332031 473.027344 C 348.078125 467.027344 385.582031 391.277344 385.582031 386.03125 C 385.582031 380.773438 372.832031 338.03125 367.585938 324.53125 C 362.335938 311.03125 354.835938 292.277344 359.328125 281.027344 C 363.835938 269.777344 384.085938 260.78125 384.085938 260.78125 C 384.085938 260.78125 396.835938 281.78125 403.589844 295.285156 C 410.332031 308.777344 423.082031 391.28125 420.085938 400.28125 Z M 420.085938 400.28125 " fill-opacity="1" fill-rule="nonzero"/><path fill="#f7e9cd" d="M 411.085938 320.785156 C 411.085938 320.785156 405.085938 290.027344 372.085938 267.539062 C 372.085938 267.539062 372.085938 259.53125 378.832031 254.28125 C 385.578125 249.035156 390.824219 257.035156 390.824219 257.035156 C 390.824219 257.035156 393.617188 259.734375 397.160156 264.777344 C 404.332031 274.957031 414.601562 294.679688 411.085938 320.785156 Z M 411.085938 320.785156 " fill-opacity="1" fill-rule="nonzero"/><path fill="#ebd9b7" d="M 466.894531 557.679688 C 467.050781 557.394531 468.066406 555.671875 469.652344 552.988281 C 469.097656 554.058594 468.578125 554.988281 468.085938 555.78125 C 467.382812 556.925781 467 557.53125 466.894531 557.679688 Z M 466.894531 557.679688 " fill-opacity="1" fill-rule="nonzero"/><path fill="#e86e3e" d="M 425.785156 201.871094 C 421.464844 203.78125 418.449219 206.082031 415.671875 209.898438 C 415.242188 210.484375 414.226562 209.832031 414.589844 209.195312 C 416.800781 205.324219 421.273438 202.136719 425.734375 201.632812 C 425.882812 201.617188 425.910156 201.820312 425.785156 201.871094 Z M 425.785156 201.871094 " fill-opacity="1" fill-rule="nonzero"/><path fill="#e86e3e" d="M 425.105469 210.15625 C 422.796875 208.84375 420.027344 207.925781 417.359375 207.921875 C 416.546875 207.921875 416.597656 206.730469 417.417969 206.800781 C 420.4375 207.046875 422.945312 208 425.132812 210.109375 C 425.15625 210.132812 425.136719 210.171875 425.105469 210.15625 Z M 425.105469 210.15625 " fill-opacity="1" fill-rule="nonzero"/><path fill="#e86e3e" d="M 376.78125 200.820312 C 377.40625 202.742188 376.558594 204.824219 375.203125 206.226562 C 374.472656 206.980469 373.5 207.214844 372.738281 207.824219 C 372.03125 208.394531 372.5625 209.332031 373.21875 209.886719 C 374.175781 210.695312 375.496094 210.65625 376.632812 210.378906 C 377.507812 210.160156 377.980469 211.480469 377.09375 211.710938 C 374.277344 212.445312 370.039062 210.953125 371.101562 207.296875 C 371.195312 206.980469 371.390625 206.8125 371.707031 206.753906 C 374.742188 206.179688 376.121094 203.617188 376.671875 200.832031 C 376.679688 200.777344 376.761719 200.765625 376.78125 200.820312 Z M 376.78125 200.820312 " fill-opacity="1" fill-rule="nonzero"/><path fill="#4f1e20" d="M 393.964844 205.605469 C 393.328125 208.089844 391.71875 209.820312 390.371094 209.472656 C 389.023438 209.128906 388.445312 206.835938 389.082031 204.351562 C 389.71875 201.871094 391.328125 200.140625 392.675781 200.484375 C 394.023438 200.835938 394.601562 203.125 393.964844 205.605469 Z M 393.964844 205.605469 " fill-opacity="1" fill-rule="nonzero"/><path fill="#4f1e20" d="M 393.398438 205.597656 C 393.582031 204.214844 393.515625 202.691406 393.167969 201.34375 C 392.8125 199.988281 392.101562 198.996094 391.34375 197.855469 C 391 197.328125 391.699219 196.671875 392.183594 197.109375 C 394.496094 199.1875 394.886719 202.988281 393.445312 205.613281 C 393.429688 205.636719 393.394531 205.625 393.398438 205.597656 Z M 393.398438 205.597656 " fill-opacity="1" fill-rule="nonzero"/><path fill="#4f1e20" d="M 372.976562 198.480469 C 372.402344 200.726562 370.945312 202.292969 369.726562 201.980469 C 368.503906 201.667969 367.980469 199.59375 368.558594 197.347656 C 369.132812 195.105469 370.585938 193.539062 371.808594 193.851562 C 373.027344 194.160156 373.550781 196.234375 372.976562 198.480469 Z M 372.976562 198.480469 " fill-opacity="1" fill-rule="nonzero"/><path fill="#4f1e20" d="M 372.355469 198.566406 C 372.828125 196.34375 372.089844 194.261719 370.785156 192.507812 C 370.210938 191.734375 371.425781 190.945312 372.019531 191.679688 C 373.621094 193.65625 373.597656 196.457031 372.40625 198.582031 C 372.390625 198.609375 372.347656 198.597656 372.355469 198.566406 Z M 372.355469 198.566406 " fill-opacity="1" fill-rule="nonzero"/><path fill="#4f1e20" d="M 399.777344 195.929688 C 398.402344 195.234375 397.265625 194.050781 396.023438 193.144531 C 394.675781 192.167969 393.238281 191.539062 391.746094 190.832031 C 390.152344 190.074219 391.226562 187.496094 392.902344 187.972656 C 396.125 188.886719 400.316406 191.773438 400.707031 195.382812 C 400.757812 195.878906 400.164062 196.121094 399.777344 195.929688 Z M 399.777344 195.929688 " fill-opacity="1" fill-rule="nonzero"/><path fill="#4f1e20" d="M 369.25 186.503906 C 369.660156 183.722656 374.335938 182.058594 376.554688 183.5 C 377.480469 184.105469 376.960938 185.503906 376.105469 185.835938 C 375.082031 186.230469 373.882812 185.941406 372.796875 186.257812 C 371.792969 186.546875 370.917969 187.042969 369.878906 187.203125 C 369.484375 187.261719 369.199219 186.855469 369.25 186.503906 Z M 369.25 186.503906 " fill-opacity="1" fill-rule="nonzero"/><path fill="#fcf1dc" d="M 374.363281 215.1875 C 374.363281 215.1875 377.289062 216.671875 382.332031 217.03125 C 385.832031 217.28125 389.832031 216.28125 389.832031 216.28125 C 389.832031 216.28125 387.265625 221.636719 383.898438 222.757812 C 380.53125 223.882812 374.082031 221.074219 374.082031 221.074219 C 374.082031 221.074219 374.332031 217.78125 374.363281 215.1875 Z M 374.363281 215.1875 " fill-opacity="1" fill-rule="nonzero"/><path fill="#f7e8cb" d="M 497.914062 476.398438 C 496.367188 484.230469 495.085938 490.273438 495.085938 490.273438 C 495.085938 490.273438 495.085938 490.359375 495.074219 490.527344 C 495.027344 491.925781 494.773438 499.007812 494.488281 509.933594 C 493.863281 534.03125 493.089844 576.839844 493.980469 618.582031 C 489.023438 623.9375 482.335938 626.167969 473.335938 621.773438 C 442.585938 606.773438 413.328125 502.53125 413.328125 502.53125 C 410.636719 494.445312 404.449219 482.097656 400.074219 473.558594 C 400.074219 473.558594 400.074219 473.546875 400.0625 473.539062 C 398.378906 470.257812 396.96875 467.535156 396.125 465.839844 C 396.105469 465.8125 396.097656 465.792969 396.085938 465.773438 C 393.089844 459.769531 392.335938 449.277344 392.335938 449.277344 C 398.328125 453.027344 411.832031 464.273438 414.085938 466.773438 C 416.339844 469.269531 447.839844 504.773438 466.59375 502.53125 C 482.464844 500.625 494.578125 482.046875 497.914062 476.398438 Z M 497.914062 476.398438 " fill-opacity="1" fill-rule="nonzero"/><path fill="#e39f29" d="M 355.578125 187.285156 C 350.328125 192.53125 353.335938 203.78125 353.335938 203.78125 C 353.335938 203.78125 353.324219 203.773438 353.296875 203.773438 C 352.492188 203.339844 339.78125 196.566406 346.078125 189.78125 C 349.90625 185.660156 354.441406 185.523438 357.503906 186.117188 C 356.828125 186.304688 356.183594 186.675781 355.578125 187.285156 Z M 355.578125 187.285156 " fill-opacity="1" fill-rule="nonzero"/><path fill="#fcc465" d="M 400.582031 156.785156 C 398.585938 159.78125 391.082031 165.285156 390.585938 163.785156 C 390.085938 162.289062 395.585938 156.285156 391.582031 157.785156 C 387.589844 159.28125 378.578125 163.785156 378.578125 158.785156 C 378.578125 157.117188 380.070312 155.023438 382.054688 152.957031 C 382.054688 152.957031 382.054688 152.949219 382.066406 152.949219 C 387.609375 149.167969 395.097656 145.683594 403.585938 146.035156 C 396.585938 147.789062 395.585938 150.785156 397.585938 153.78125 C 399.582031 156.785156 402.578125 153.78125 400.582031 156.785156 Z M 400.582031 156.785156 " fill-opacity="1" fill-rule="nonzero"/><path fill="#fcc465" d="M 449.335938 191.78125 C 448.757812 193.699219 447.242188 195.628906 445.3125 197.421875 C 445.597656 192.507812 440.25 188.453125 436.589844 190.285156 C 432.582031 192.28125 433.082031 195.785156 431.585938 194.289062 C 430.085938 192.78125 428.589844 187.785156 431.085938 185.289062 C 433.582031 182.785156 438.585938 184.78125 440.582031 180.285156 C 441.710938 177.769531 441.101562 175.246094 440.347656 173.523438 C 449.550781 176.855469 451.480469 184.652344 449.335938 191.78125 Z M 449.335938 191.78125 " fill-opacity="1" fill-rule="nonzero"/><path fill="#fcc465" d="M 336.832031 305.28125 C 329.332031 313.527344 324.828125 304.527344 320.324219 300.035156 C 317.601562 297.304688 312.949219 298.988281 309.378906 302.226562 C 306.410156 293.179688 306.402344 284.105469 308.703125 276.230469 C 310.589844 273.949219 312.929688 271.765625 315.828125 270.03125 C 327.078125 263.277344 325.582031 286.53125 327.824219 291.035156 C 330.078125 295.527344 338.332031 289.527344 342.082031 286.53125 C 345.835938 283.539062 344.324219 297.027344 336.832031 305.28125 Z M 336.832031 305.28125 " fill-opacity="1" fill-rule="nonzero"/><path fill="#fa813f" d="M 413.328125 242.285156 C 408.082031 244.539062 399.835938 249.53125 399.835938 249.53125 C 400.199219 248.804688 400.074219 247.054688 399.679688 244.832031 C 406.378906 242.109375 417.617188 240.445312 413.328125 242.285156 Z M 413.328125 242.285156 " fill-opacity="0.26" fill-rule="nonzero"/><path fill="#f79a5e" d="M 471.988281 320.785156 C 470.988281 319.796875 470.078125 318.914062 469.296875 318.152344 C 468.855469 317.730469 468.460938 317.347656 468.121094 317.015625 C 468.121094 317.015625 470.34375 294.777344 468.835938 285.78125 C 467.351562 276.890625 476.121094 292.898438 471.988281 320.785156 Z M 471.988281 320.785156 " fill-opacity="1" fill-rule="nonzero"/><path fill="#fa813f" d="M 438.085938 273.78125 C 438.589844 281.84375 447.085938 295.53125 446.335938 317.28125 C 445.585938 339.03125 442.585938 366.03125 441.835938 370.53125 C 441.085938 375.03125 451.585938 360.03125 453.085938 356.28125 C 454.589844 352.53125 449.335938 319.535156 449.335938 313.53125 C 449.335938 307.53125 437.335938 261.78125 438.085938 273.78125 Z M 438.085938 273.78125 " fill-opacity="0.26" fill-rule="nonzero"/><path fill="#f79a5e" d="M 477.324219 840.800781 C 476.875 843.894531 476.167969 846.128906 475.089844 846.773438 C 473.125 847.949219 467.277344 848.203125 460.492188 848.125 C 450.035156 848.027344 437.332031 847.167969 433.082031 847.773438 C 426.082031 848.773438 399.082031 850.769531 399.082031 847.773438 C 399.082031 845.855469 399.90625 844.347656 401.277344 842.976562 C 400.816406 844.335938 400.316406 846.453125 401.414062 847.109375 C 403.078125 848.105469 404.753906 843.777344 407.082031 842.769531 C 409.414062 841.773438 412.085938 842.105469 412.085938 842.105469 C 412.085938 842.105469 408.414062 843.101562 407.414062 845.109375 C 406.417969 847.109375 411.085938 847.773438 418.078125 847.441406 C 425.078125 847.109375 441.75 843.777344 446.417969 844.113281 C 451.089844 844.445312 468.421875 848.105469 474.425781 842.4375 C 475.609375 841.3125 476.558594 840.828125 477.324219 840.800781 Z M 477.324219 840.800781 " fill-opacity="1" fill-rule="nonzero"/><path fill="#f79352" d="M 360.082031 524.777344 C 360.082031 524.777344 361.078125 513.113281 359.414062 511.445312 C 357.746094 509.78125 360.082031 524.777344 360.082031 524.777344 Z M 360.082031 524.777344 " fill-opacity="1" fill-rule="nonzero"/><path fill="#f79352" d="M 350.578125 525.777344 C 350.578125 525.777344 353.414062 515.777344 352.082031 513.777344 C 350.746094 511.78125 350.578125 525.777344 350.578125 525.777344 Z M 350.578125 525.777344 " fill-opacity="1" fill-rule="nonzero"/><path fill="#fa813f" d="M 494.339844 347.777344 C 495.59375 344 476.636719 325.296875 469.292969 318.148438 L 471.082031 297.027344 C 471.082031 297.027344 498.089844 330.777344 499.589844 335.28125 C 500.492188 337.972656 496.535156 344.984375 493.214844 350.164062 C 493.804688 349.03125 494.195312 348.207031 494.339844 347.777344 Z M 494.339844 347.777344 " fill-opacity="0.26" fill-rule="nonzero"/><path fill="#fff7e8" d="M 398.328125 285.035156 C 387.078125 271.535156 372.085938 267.539062 372.085938 267.539062 C 372.085938 267.539062 372.085938 259.53125 378.832031 254.28125 C 385.578125 249.035156 390.824219 257.035156 390.824219 257.035156 C 390.824219 257.035156 393.617188 259.734375 397.160156 264.777344 C 400.886719 275.980469 406.457031 294.777344 398.328125 285.035156 Z M 398.328125 285.035156 " fill-opacity="1" fill-rule="nonzero"/><path fill="#fa813f" d="M 420.078125 400.300781 C 417.179688 408.867188 369.726562 467.785156 364.546875 476.320312 C 368.597656 467.773438 398.484375 404.980469 400.582031 404.273438 C 402.832031 403.53125 408.082031 410.277344 412.585938 408.023438 C 416.941406 405.855469 419.898438 400.621094 420.078125 400.300781 Z M 420.078125 400.300781 " fill-opacity="0.26" fill-rule="nonzero"/><path fill="#ebd9b7" d="M 503.339844 443.027344 C 503.339844 451.273438 495.085938 490.273438 495.085938 490.273438 C 495.085938 490.273438 495.085938 490.359375 495.074219 490.527344 C 487.527344 504.46875 474.132812 521.625 456.082031 514.78125 C 427.085938 503.777344 414.085938 466.773438 414.085938 466.773438 C 414.085938 466.773438 457.085938 510.777344 482.09375 483.78125 C 495.683594 469.109375 503.339844 443.027344 503.339844 443.027344 Z M 503.339844 443.027344 " fill-opacity="0.61" fill-rule="nonzero"/><path fill="#fff7e8" d="M 513.09375 850.769531 C 506.089844 853.773438 473.082031 846.773438 467.089844 840.773438 C 461.085938 834.769531 485.085938 695.78125 470.085938 666.777344 C 455.085938 637.773438 423.082031 590.773438 415.082031 563.78125 C 407.621094 538.605469 409.726562 493.449219 398.703125 470.429688 C 402.765625 477.683594 410.492188 491.589844 414.085938 498.789062 C 419.085938 508.785156 426.078125 563.78125 428.085938 572.78125 C 430.082031 581.78125 475.089844 643.78125 482.089844 663.785156 C 489.082031 683.777344 471.082031 816.777344 474.089844 827.785156 C 477.089844 838.773438 513.09375 850.769531 513.09375 850.769531 Z M 513.09375 850.769531 " fill-opacity="1" fill-rule="nonzero"/><path fill="#e0cfaf" d="M 372.132812 773.386719 C 372.789062 766.523438 364.859375 760.050781 353.078125 774.777344 C 373.082031 708.769531 371.078125 577.78125 378.082031 626.78125 C 384.824219 673.964844 373.015625 766.609375 372.132812 773.386719 Z M 372.132812 773.386719 " fill-opacity="1" fill-rule="nonzero"/><path fill="#ebd9b7" d="M 570.808594 847.136719 C 569.097656 847.078125 567.511719 846.960938 566.089844 846.773438 C 551.089844 844.777344 537.09375 830.777344 528.085938 834.769531 C 525.421875 835.957031 523.632812 837.570312 522.261719 839.351562 C 521.507812 838.980469 521.09375 838.777344 521.09375 838.777344 C 521.09375 838.777344 495.085938 778.773438 490.09375 734.78125 C 485.089844 690.777344 508.089844 797.777344 569.097656 845.78125 C 569.683594 846.238281 570.25 846.6875 570.808594 847.136719 Z M 570.808594 847.136719 " fill-opacity="0.61" fill-rule="nonzero"/><path fill="#fff7e8" d="M 465.082031 472.53125 C 439.964844 477.308594 421.527344 438.710938 415.09375 422.871094 C 424.855469 436.929688 443.167969 458.160156 459.089844 447.78125 C 482.082031 432.78125 472.25 394.800781 461.761719 380.785156 C 462.25 381.011719 477.957031 388.433594 485.332031 398.027344 C 486.457031 399.496094 487.660156 401.355469 488.875 403.492188 C 497.257812 428.625 492.6875 467.273438 465.082031 472.53125 Z M 465.082031 472.53125 " fill-opacity="1" fill-rule="nonzero"/><path fill="#f79a5e" d="M 413.085938 794.769531 C 412.085938 800.769531 397.085938 808.769531 393.082031 813.773438 C 389.085938 818.765625 384.082031 834.765625 381.085938 837.773438 C 378.082031 840.769531 342.082031 841.769531 342.082031 838.773438 C 344.757812 840.105469 346.746094 836.441406 347.742188 834.433594 C 348.75 832.4375 352.414062 831.105469 351.414062 832.105469 C 350.417969 833.105469 350.082031 838.105469 351.75 839.105469 C 353.414062 840.105469 376.75 839.105469 379.753906 836.109375 C 382.75 833.105469 387.078125 815.109375 389.753906 811.101562 C 392.414062 807.105469 409.746094 797.777344 410.078125 794.105469 C 410.414062 790.441406 405.085938 776.773438 405.085938 776.773438 C 407.082031 780.777344 414.085938 788.777344 413.085938 794.769531 Z M 413.085938 794.769531 " fill-opacity="1" fill-rule="nonzero"/></svg>