<svg xmlns="http://www.w3.org/2000/svg" xmlns:xlink="http://www.w3.org/1999/xlink" width="1080" zoomAndPan="magnify" viewBox="0 0 810 1012.49997" height="1350" preserveAspectRatio="xMidYMid meet" version="1.0"><path fill="#cc7b1e" d="M 454.714844 895.839844 C 454.714844 895.839844 493.058594 895.839844 495.492188 894.015625 C 497.925781 892.1875 493.667969 883.664062 490.015625 884.273438 C 486.363281 884.882812 454.710938 888.535156 454.710938 888.535156 L 454.710938 895.839844 Z M 454.714844 895.839844 " fill-opacity="1" fill-rule="nonzero"/><path fill="#eda069" d="M 496.414062 779.550781 C 496.148438 780.328125 495.445312 785.394531 494.53125 792.378906 L 494.53125 792.394531 C 492.226562 809.992188 488.59375 839.820312 487.28125 844.402344 C 485.445312 850.792969 494.578125 876.367188 491.847656 883.664062 C 489.835938 889.03125 475.519531 890.460938 466.613281 890.117188 C 465.089844 890.054688 463.71875 889.949219 462.597656 889.796875 C 461.347656 889.628906 460.40625 889.402344 459.894531 889.152344 C 456.234375 887.328125 444.375 874.535156 444.375 874.535156 C 444.375 874.535156 447.523438 776.660156 449.441406 727.515625 C 449.667969 721.828125 449.871094 716.785156 450.0625 712.625 C 450.371094 705.390625 450.621094 700.820312 450.765625 700.117188 C 450.96875 699.082031 453.148438 697.578125 456.402344 695.863281 C 456.652344 695.730469 456.917969 695.597656 457.175781 695.46875 C 460.839844 693.597656 465.664062 691.511719 470.515625 689.542969 C 473.769531 688.230469 477.023438 686.964844 479.957031 685.855469 C 486.191406 683.507812 490.9375 681.851562 490.9375 681.851562 L 492.820312 715.378906 Z M 496.414062 779.550781 " fill-opacity="1" fill-rule="nonzero"/><path fill="#ed873b" d="M 463.242188 856.882812 C 463.742188 861.84375 465.851562 882.648438 466.613281 890.113281 C 465.089844 890.050781 463.71875 889.949219 462.597656 889.792969 C 461.347656 889.625 460.40625 889.398438 459.894531 889.148438 C 456.234375 887.324219 444.375 874.53125 444.375 874.53125 C 444.375 874.53125 447.523438 776.65625 449.441406 727.511719 C 449.667969 721.824219 449.871094 716.78125 450.0625 712.621094 C 452.21875 706.601562 454.664062 700.4375 457.175781 695.464844 C 461.996094 685.890625 467.011719 680.742188 470.515625 689.539062 C 471.460938 691.898438 472.289062 695.261719 472.984375 699.804688 C 480.273438 747.894531 462.632812 850.789062 463.242188 856.882812 Z M 463.242188 856.882812 " fill-opacity="1" fill-rule="nonzero"/><path fill="#cc7b1e" d="M 491.175781 862.414062 C 486.703125 857.632812 479.128906 855.1875 473.09375 852.972656 C 467.613281 850.960938 458.953125 846.765625 453.15625 848.53125 C 452.363281 848.773438 451.890625 849.9375 452.625 850.539062 C 456.988281 854.105469 464.886719 854.433594 470.246094 856.21875 C 476.886719 858.429688 483.542969 862.589844 490.417969 863.722656 C 491.164062 863.847656 491.746094 863.023438 491.175781 862.414062 Z M 491.175781 862.414062 " fill-opacity="1" fill-rule="nonzero"/><path fill="#cc7b1e" d="M 475.453125 890.023438 C 473.511719 882.808594 469.757812 875.765625 466.359375 869.15625 C 463.089844 862.808594 459.761719 854.660156 454.578125 849.675781 C 453.445312 848.585938 451.230469 849.65625 451.800781 851.289062 C 454.113281 857.945312 459.152344 864.054688 462.511719 870.277344 C 466.183594 877.085938 469.054688 884.414062 472.953125 891.074219 C 473.734375 892.414062 475.859375 891.53125 475.453125 890.023438 Z M 475.453125 890.023438 " fill-opacity="1" fill-rule="nonzero"/><path fill="#cc7b1e" d="M 453.816406 853.289062 C 459.78125 849.351562 465.171875 844.597656 471.132812 840.617188 C 477.136719 836.605469 483.511719 833.398438 489.777344 829.839844 C 490.523438 829.414062 490.902344 828.273438 490.382812 827.527344 C 481.609375 814.925781 472.078125 803 461.613281 791.757812 C 461.480469 792.789062 461.34375 793.824219 461.214844 794.855469 C 471.652344 787.472656 482.757812 781.449219 494.703125 776.878906 C 496.835938 776.0625 495.949219 772.613281 493.746094 773.402344 C 481.449219 777.800781 469.832031 783.816406 459.226562 791.449219 C 458.1875 792.199219 457.890625 793.558594 458.828125 794.546875 C 469.140625 805.441406 478.757812 817.015625 487.464844 829.234375 C 487.667969 828.464844 487.871094 827.691406 488.070312 826.921875 C 475.636719 832.1875 461.316406 841.230469 452.550781 851.640625 C 451.832031 852.496094 452.753906 853.988281 453.816406 853.289062 Z M 453.816406 853.289062 " fill-opacity="1" fill-rule="nonzero"/><path fill="#f7a76d" d="M 462.597656 889.789062 C 463 896.523438 462.488281 901.867188 459.890625 902.84375 C 452.582031 905.585938 426.113281 901.921875 413.320312 903.75 C 400.542969 905.585938 375.894531 907.410156 375.894531 903.75 C 375.894531 901.648438 375.894531 899.257812 376.761719 896.90625 C 376.761719 896.890625 376.761719 896.890625 376.761719 896.890625 C 377.40625 895.152344 378.527344 893.433594 380.457031 891.886719 C 385.023438 888.222656 401.457031 886.402344 405.105469 883.660156 C 408.753906 880.929688 429.757812 859.003906 430.675781 852.613281 C 431.582031 846.222656 417.882812 753.988281 413.320312 737.542969 C 408.753906 721.101562 404.191406 710.148438 400.542969 697.367188 C 398.324219 689.59375 394.09375 657.246094 391.101562 633.042969 C 389.171875 617.386719 387.765625 605.128906 387.765625 605.128906 L 427.636719 599.21875 L 437.0625 597.820312 C 437.0625 597.820312 437.375 599.65625 437.957031 602.914062 C 440.566406 617.757812 448.554688 662.074219 456.394531 695.851562 C 458.519531 705.007812 460.640625 713.390625 462.628906 720.199219 C 463.976562 724.800781 464.933594 730.273438 465.535156 736.320312 C 469.996094 779.449219 458.0625 852.378906 458.0625 857.183594 C 458.0625 859.605469 459.835938 868.214844 461.1875 877.320312 C 461.820312 881.550781 462.371094 885.902344 462.597656 889.789062 Z M 462.597656 889.789062 " fill-opacity="1" fill-rule="nonzero"/><path fill="#ed873b" d="M 496.414062 779.550781 C 496.148438 780.328125 495.445312 785.394531 494.53125 792.378906 C 490.546875 782.710938 475.46875 746.65625 468.101562 738.761719 C 467.21875 737.808594 466.363281 736.996094 465.539062 736.316406 C 458.839844 730.605469 454.085938 732.359375 449.4375 727.503906 C 449.171875 727.230469 448.898438 726.921875 448.625 726.585938 C 443.152344 719.882812 420.625 651.089844 409.0625 639.523438 C 402.101562 632.5625 395.363281 632.214844 391.097656 633.039062 C 389.167969 617.382812 387.761719 605.128906 387.761719 605.128906 L 427.632812 599.214844 C 431.507812 600.558594 435.070312 601.835938 437.957031 602.910156 C 442.117188 604.472656 444.835938 605.628906 444.976562 606.035156 C 445.289062 606.953125 462.761719 646.558594 479.949219 685.847656 C 484.347656 695.933594 488.734375 705.996094 492.8125 715.367188 Z M 496.414062 779.550781 " fill-opacity="1" fill-rule="nonzero"/><path fill="#fcf1dc" d="M 558.492188 746.679688 C 556.667969 749.421875 545.714844 746.679688 542.054688 753.070312 C 538.40625 759.460938 546.621094 785.035156 542.054688 803.300781 C 537.488281 821.566406 514.671875 832.523438 509.191406 825.214844 C 503.707031 817.90625 482.714844 743.03125 471.761719 733.894531 C 460.796875 724.765625 456.230469 729.328125 448.019531 711.96875 C 441.332031 697.839844 425.5625 648.597656 409.078125 625.859375 L 409.078125 625.851562 C 407.039062 623.046875 404.988281 620.640625 402.953125 618.757812 C 402.929688 618.734375 402.914062 618.71875 402.890625 618.710938 C 401.199219 617.136719 399.496094 615.945312 397.824219 615.179688 C 397.8125 615.167969 397.800781 615.167969 397.800781 615.167969 C 377.714844 606.035156 377.714844 620.652344 377.714844 620.652344 C 377.714844 620.652344 368.585938 582.292969 373.148438 542.117188 C 375.652344 520.109375 376.773438 497.558594 377.4375 481.058594 C 377.734375 473.703125 377.9375 467.539062 378.132812 463.175781 C 378.285156 459.457031 378.441406 457.035156 378.632812 456.269531 C 378.773438 455.710938 379.011719 454.519531 379.335938 452.898438 C 381.085938 443.871094 385.019531 421.5625 385.019531 421.5625 C 385.019531 421.5625 365.839844 418.820312 371.324219 399.648438 C 376.796875 380.511719 377.710938 360.472656 376.820312 357.660156 C 376.804688 357.636719 376.804688 357.636719 376.804688 357.636719 C 375.886719 354.894531 364.933594 343.933594 364.933594 337.542969 C 364.933594 331.15625 385.019531 272.707031 394.152344 258.089844 C 403.28125 243.484375 416.976562 244.390625 416.976562 244.390625 C 416.976562 244.390625 458.972656 216.992188 467.195312 221.558594 C 475.410156 226.125 489.105469 240.742188 492.753906 248.046875 C 496.414062 255.34375 498.234375 274.53125 494.578125 301.925781 C 492.953125 314.136719 487.507812 335.980469 482.074219 356.832031 C 475.292969 382.75 468.507812 407.15625 469.023438 409.683594 C 469.929688 414.253906 460.796875 410.605469 482.71875 433.433594 C 492.300781 443.425781 501.195312 457.605469 508.382812 473.757812 C 517.632812 494.554688 524.09375 518.589844 525.632812 541.195312 C 527.289062 565.648438 534.285156 599.621094 541.84375 631.703125 C 541.832031 631.71875 541.832031 631.71875 541.84375 631.726562 C 542.585938 634.898438 543.335938 638.046875 544.085938 641.171875 C 548.210938 658.363281 552.359375 674.652344 555.753906 688.230469 C 563.058594 717.457031 560.316406 743.9375 558.492188 746.679688 Z M 558.492188 746.679688 " fill-opacity="1" fill-rule="nonzero"/><path fill="#f0debb" d="M 508.382812 473.765625 C 497.035156 461.078125 480.859375 456.035156 476.628906 466.625 C 471.761719 478.796875 477.84375 506.804688 470.535156 501.925781 C 463.242188 497.0625 426.71875 449.574219 418.195312 461.746094 C 409.671875 473.917969 415.765625 488.539062 415.765625 488.539062 L 377.441406 481.0625 C 377.738281 473.703125 377.941406 467.539062 378.132812 463.179688 C 378.289062 459.460938 378.445312 457.039062 378.636719 456.273438 C 378.777344 455.714844 379.015625 454.523438 379.339844 452.898438 C 397.371094 432.167969 444.230469 378.242188 446.199219 375.296875 C 448.628906 371.648438 481.503906 355.8125 481.503906 355.8125 L 482.078125 356.835938 C 475.296875 382.757812 468.511719 407.164062 469.023438 409.691406 C 469.929688 414.261719 460.800781 410.613281 482.722656 433.441406 C 492.300781 443.433594 501.191406 457.605469 508.382812 473.765625 Z M 508.382812 473.765625 " fill-opacity="1" fill-rule="nonzero"/><path fill="#9c3119" d="M 529.824219 578.039062 C 502.933594 574.023438 479.761719 559.582031 463.871094 534.023438 C 455.289062 522.226562 447.585938 511.820312 435.058594 505.382812 C 389.65625 489.347656 339.519531 485.734375 291.601562 483.410156 C 243.8125 482.011719 241.144531 547.996094 195.621094 536.132812 C 192.738281 535.378906 193.511719 531.109375 196.480469 531.351562 C 205.074219 532.042969 213.492188 530.898438 219.699219 525.066406 C 227.105469 516.136719 233.671875 505.21875 241.074219 495.210938 C 251.8125 480.675781 264.292969 468.074219 283.511719 466.261719 C 324.101562 463.066406 364.875 468.144531 404.675781 476.015625 C 462.011719 487.496094 461.691406 505.082031 492.171875 547.277344 C 502.519531 559.09375 516.390625 566.640625 531.316406 571.359375 C 535.34375 572.640625 534.007812 578.664062 529.824219 578.039062 Z M 529.824219 578.039062 " fill-opacity="1" fill-rule="nonzero"/><path fill="#f7a76d" d="M 462.632812 242.566406 C 459.234375 245.535156 449.152344 246.144531 439.304688 245.941406 C 439.292969 245.941406 439.292969 245.941406 439.292969 245.941406 C 427.957031 245.703125 416.976562 244.394531 416.976562 244.394531 C 416.976562 244.394531 420.625 233.433594 420.625 227.042969 C 420.625 223.8125 417.121094 216.375 413.652344 209.804688 C 410.269531 203.398438 406.929688 197.820312 406.929688 197.820312 L 427.898438 179.734375 L 433.402344 174.992188 C 433.402344 174.992188 443.453125 203.296875 448.9375 209.699219 C 452.058594 213.347656 457.550781 216.683594 461.703125 218.894531 C 464.835938 220.550781 467.199219 221.5625 467.199219 221.5625 C 467.199219 221.5625 469.929688 236.175781 462.632812 242.566406 Z M 462.632812 242.566406 " fill-opacity="1" fill-rule="nonzero"/><path fill="#f0debb" d="M 447.101562 355.808594 C 447.101562 358.550781 427.933594 401.476562 427.933594 401.476562 L 378.132812 463.175781 C 378.285156 459.457031 378.441406 457.035156 378.632812 456.269531 C 379.539062 452.609375 385.019531 421.5625 385.019531 421.5625 C 401.457031 412.429688 400.539062 403.296875 395.054688 393.246094 C 389.667969 383.363281 377.203125 358.429688 376.820312 357.65625 C 377.4375 358.25 396.976562 377.601562 402.363281 370.425781 C 407.847656 363.117188 399.625 280.921875 399.625 280.921875 C 399.625 280.921875 447.101562 353.066406 447.101562 355.808594 Z M 447.101562 355.808594 " fill-opacity="1" fill-rule="nonzero"/><path fill="#f0debb" d="M 435.234375 267.226562 C 435.234375 267.226562 442.539062 301.019531 452.582031 307.410156 C 462.625 313.800781 469.019531 277.273438 469.019531 277.273438 L 490.929688 301.019531 L 456.234375 383.210938 C 456.234375 383.207031 428.847656 293.710938 435.234375 267.226562 Z M 435.234375 267.226562 " fill-opacity="1" fill-rule="nonzero"/><path fill="#9c580a" d="M 533.019531 250.351562 C 526.667969 246.40625 514.851562 241.398438 500.371094 246.210938 C 478.769531 253.414062 487.914062 272.429688 488.179688 272.992188 C 487.890625 272.75 483.742188 269.414062 479.132812 265.539062 L 477.234375 250.777344 C 477.234375 250.777344 479.976562 236.171875 502.804688 234.347656 C 518.144531 233.125 528.121094 243.449219 533.019531 250.351562 Z M 533.019531 250.351562 " fill-opacity="1" fill-rule="nonzero"/><path fill="#b36710" d="M 536.585938 256.265625 L 517.40625 288.230469 L 481.800781 286.40625 L 479.128906 265.539062 L 477.234375 250.777344 C 477.234375 250.777344 479.972656 236.171875 502.800781 234.347656 C 518.140625 233.121094 528.121094 243.445312 533.019531 250.347656 C 535.40625 253.714844 536.585938 256.265625 536.585938 256.265625 Z M 536.585938 256.265625 " fill-opacity="1" fill-rule="nonzero"/><path fill="#f4af14" d="M 516.035156 190.386719 L 498.085938 288.402344 L 495.632812 286.726562 L 513.464844 190.746094 Z M 516.035156 190.386719 " fill-opacity="1" fill-rule="nonzero"/><path fill="#f4af14" d="M 504.535156 199.660156 C 504.992188 198.667969 519.304688 168.121094 520.324219 164.140625 L 514.496094 195.0625 C 511.910156 194.367188 508.625 195.347656 504.535156 199.660156 Z M 504.535156 199.660156 " fill-opacity="1" fill-rule="nonzero"/><path fill="#db9d12" d="M 522.527344 206.085938 C 522.527344 206.085938 520.191406 196.558594 514.5 195.058594 L 520.328125 164.136719 C 520.367188 164.007812 520.382812 163.902344 520.386719 163.832031 L 520.429688 163.910156 C 520.757812 166.835938 522.527344 206.085938 522.527344 206.085938 Z M 522.527344 206.085938 " fill-opacity="1" fill-rule="nonzero"/><path fill="#f4af14" d="M 496.921875 214.035156 L 483.835938 312.816406 L 481.300781 311.261719 L 494.367188 214.519531 Z M 496.921875 214.035156 " fill-opacity="1" fill-rule="nonzero"/><path fill="#f4af14" d="M 485.894531 223.863281 C 486.300781 222.847656 499.085938 191.632812 499.910156 187.605469 L 495.617188 218.777344 C 493 218.214844 489.765625 219.355469 485.894531 223.863281 Z M 485.894531 223.863281 " fill-opacity="1" fill-rule="nonzero"/><path fill="#db9d12" d="M 504.175781 229.390625 C 504.175781 229.390625 501.375 219.992188 495.613281 218.773438 L 499.90625 187.601562 C 499.9375 187.476562 499.949219 187.363281 499.953125 187.296875 L 500.003906 187.375 C 500.476562 190.277344 504.175781 229.390625 504.175781 229.390625 Z M 504.175781 229.390625 " fill-opacity="1" fill-rule="nonzero"/><path fill="#f4af14" d="M 529.894531 207.246094 L 511.945312 305.261719 L 509.488281 303.585938 L 527.320312 207.609375 Z M 529.894531 207.246094 " fill-opacity="1" fill-rule="nonzero"/><path fill="#f4af14" d="M 534.105469 174.300781 L 527.484375 210.824219 C 525.199219 210.390625 522.320312 211.085938 518.785156 214.011719 Z M 534.105469 174.300781 " fill-opacity="1" fill-rule="nonzero"/><path fill="#db9d12" d="M 534.628906 217.988281 C 534.628906 217.988281 532.472656 211.746094 527.484375 210.824219 L 534.105469 174.300781 Z M 534.628906 217.988281 " fill-opacity="1" fill-rule="nonzero"/><path fill="#c93f20" d="M 531.316406 571.367188 C 526.964844 573.226562 505.542969 563.117188 489.109375 548.511719 C 472.667969 533.894531 459.890625 506.492188 447.101562 495.535156 C 434.324219 484.578125 372.242188 472.703125 372.242188 472.703125 C 372.242188 472.703125 293.714844 469.054688 275.453125 474.53125 C 257.203125 480.015625 247.15625 503.753906 243.507812 501.019531 C 242.195312 500.03125 241.46875 497.742188 241.078125 495.214844 C 251.816406 480.679688 264.296875 468.078125 283.515625 466.265625 C 324.101562 463.070312 364.878906 468.148438 404.679688 476.015625 C 462.015625 487.5 461.695312 505.085938 492.175781 547.277344 C 502.519531 559.097656 516.390625 566.644531 531.316406 571.367188 Z M 531.316406 571.367188 " fill-opacity="1" fill-rule="nonzero"/><path fill="#f4af14" d="M 532.328125 241.039062 L 514.378906 339.054688 L 511.921875 337.378906 L 529.757812 241.398438 Z M 532.328125 241.039062 " fill-opacity="1" fill-rule="nonzero"/><path fill="#f4af14" d="M 536.542969 208.09375 L 529.917969 244.617188 C 527.632812 244.183594 524.753906 244.878906 521.21875 247.800781 Z M 536.542969 208.09375 " fill-opacity="1" fill-rule="nonzero"/><path fill="#db9d12" d="M 537.0625 251.78125 C 537.0625 251.78125 534.90625 245.535156 529.917969 244.617188 L 536.539062 208.09375 Z M 537.0625 251.78125 " fill-opacity="1" fill-rule="nonzero"/><path fill="#f4af14" d="M 510.753906 244.636719 L 493.613281 342.796875 L 491.144531 341.140625 L 508.1875 245.019531 Z M 510.753906 244.636719 " fill-opacity="1" fill-rule="nonzero"/><path fill="#f4af14" d="M 514.699219 211.660156 L 508.378906 248.238281 C 506.089844 247.824219 503.21875 248.539062 499.703125 251.492188 Z M 514.699219 211.660156 " fill-opacity="1" fill-rule="nonzero"/><path fill="#db9d12" d="M 515.578125 255.339844 C 515.578125 255.339844 513.371094 249.113281 508.378906 248.234375 L 514.699219 211.65625 Z M 515.578125 255.339844 " fill-opacity="1" fill-rule="nonzero"/><path fill="#f7a76d" d="M 459.890625 379.550781 C 458.066406 389.601562 423.371094 434.347656 411.496094 446.222656 C 399.625 458.097656 395.976562 459.921875 393.234375 464.488281 C 392.648438 465.464844 392.066406 466.644531 391.460938 467.957031 C 389.207031 472.785156 386.59375 479.355469 382.28125 483.660156 C 376.808594 489.144531 357.632812 485.496094 357.632812 485.496094 C 357.632812 485.496094 354.28125 497.058594 352.460938 500.710938 C 350.636719 504.371094 346.976562 505.585938 346.371094 503.140625 C 345.761719 500.710938 347.585938 484.886719 347.585938 484.886719 C 347.585938 484.886719 343.128906 503.140625 341.507812 505.179688 C 339.886719 507.207031 335.417969 508.015625 335.417969 505.585938 C 335.417969 505.585938 332.582031 505.179688 331.769531 501.925781 C 330.957031 498.679688 331.363281 486.910156 331.363281 486.910156 C 331.363281 486.910156 329.339844 485.289062 328.515625 483.25 C 327.703125 481.222656 328.929688 468.644531 329.742188 466.617188 C 330.550781 464.578125 371.128906 461.335938 372.34375 460.929688 C 373.5625 460.523438 420.632812 380.460938 422.453125 373.15625 C 424.289062 365.859375 408.757812 316.535156 404.195312 299.183594 C 400.820312 286.332031 393.238281 269.960938 400.546875 256.261719 C 400.546875 256.261719 400.546875 256.261719 400.558594 256.25 C 407.867188 242.5625 424.292969 249.871094 431.589844 257.179688 C 435.460938 261.042969 438.296875 271.070312 440.789062 282.359375 C 443.015625 292.367188 444.949219 303.382812 447.105469 311.964844 C 450.613281 325.988281 457.335938 352.375 459.457031 368.421875 C 460.09375 373.289062 460.320312 377.210938 459.890625 379.550781 Z M 459.890625 379.550781 " fill-opacity="1" fill-rule="nonzero"/><path fill="#cc7b1e" d="M 536.570312 256.292969 C 536.453125 256.875 534.507812 266.007812 531.589844 279.78125 C 521.921875 325.292969 501.457031 421.484375 500.058594 427.042969 C 498.234375 434.351562 490.011719 452.617188 474.492188 459.007812 C 458.972656 465.398438 446.195312 444.398438 445.273438 439.835938 C 445.023438 438.546875 447.253906 423.894531 450.648438 403.253906 C 457.085938 364.15625 467.695312 303.542969 473.441406 271.492188 C 475.359375 260.773438 476.730469 253.238281 477.230469 250.785156 C 477.230469 250.785156 479.972656 264.484375 501.878906 268.144531 C 510.460938 269.574219 517.648438 268.058594 523.203125 265.6875 C 531.554688 262.132812 536.25 256.671875 536.570312 256.292969 Z M 536.570312 256.292969 " fill-opacity="1" fill-rule="nonzero"/><path fill="#f4af14" d="M 503.769531 150.425781 L 503.707031 150.332031 C 503.707031 150.164062 503.730469 150.199219 503.769531 150.425781 Z M 503.769531 150.425781 " fill-opacity="1" fill-rule="nonzero"/><path fill="#e88033" d="M 427.898438 179.730469 C 427.144531 195.753906 418.0625 205.816406 413.652344 209.800781 C 410.269531 203.398438 406.929688 197.816406 406.929688 197.816406 Z M 427.898438 179.730469 " fill-opacity="1" fill-rule="nonzero"/><path fill="#e88033" d="M 440.78125 282.363281 C 440.757812 282.292969 440.734375 282.207031 440.710938 282.136719 C 434.632812 263.265625 424.285156 253.523438 415.15625 251.695312 C 406.277344 249.921875 400.839844 255.917969 400.554688 256.25 C 407.863281 242.5625 424.285156 249.871094 431.582031 257.179688 C 435.457031 261.046875 438.292969 271.074219 440.78125 282.363281 Z M 440.78125 282.363281 " fill-opacity="1" fill-rule="nonzero"/><path fill="#e88033" d="M 462.632812 242.566406 C 459.234375 245.535156 449.152344 246.144531 439.304688 245.941406 C 445.398438 245.378906 456.542969 243.699219 459.582031 238.917969 C 462.796875 233.863281 462.203125 223.621094 461.703125 218.890625 C 464.835938 220.546875 467.199219 221.558594 467.199219 221.558594 C 467.199219 221.558594 469.929688 236.175781 462.632812 242.566406 Z M 462.632812 242.566406 " fill-opacity="1" fill-rule="nonzero"/><path fill="#f5833b" d="M 459.890625 379.550781 C 458.066406 389.601562 423.371094 434.347656 411.496094 446.222656 C 399.625 458.097656 395.976562 459.921875 393.234375 464.488281 C 392.648438 465.464844 392.066406 466.644531 391.460938 467.957031 C 391.421875 467.917969 391.414062 467.886719 391.414062 467.839844 C 390.804688 462.960938 435.851562 383.210938 437.671875 381.992188 C 439.496094 380.777344 448.019531 384.425781 452.277344 381.386719 C 454.683594 379.65625 457.484375 373.480469 459.453125 368.425781 C 460.09375 373.289062 460.320312 377.210938 459.890625 379.550781 Z M 459.890625 379.550781 " fill-opacity="0.35" fill-rule="nonzero"/><path fill="#e88033" d="M 459.890625 902.847656 C 452.582031 905.589844 426.113281 901.925781 413.320312 903.753906 C 400.542969 905.589844 375.894531 907.414062 375.894531 903.753906 C 375.894531 901.652344 375.894531 899.257812 376.761719 896.910156 C 377.800781 899.054688 379.660156 901.570312 382.886719 902.535156 C 388.980469 904.363281 399.324219 898.886719 411.496094 900.105469 C 423.664062 901.320312 448.015625 903.144531 454.714844 898.277344 C 458.472656 895.546875 460.308594 885.734375 461.191406 877.320312 C 461.820312 881.550781 462.371094 885.902344 462.597656 889.789062 C 463 896.527344 462.488281 901.871094 459.890625 902.847656 Z M 459.890625 902.847656 " fill-opacity="1" fill-rule="nonzero"/><path fill="#e88033" d="M 331.355469 486.910156 C 331.355469 486.910156 333.28125 473.925781 332.671875 471.789062 C 332.0625 469.660156 330.035156 480.113281 331.355469 486.910156 Z M 331.355469 486.910156 " fill-opacity="1" fill-rule="nonzero"/><path fill="#e88033" d="M 335.414062 505.582031 C 335.414062 505.582031 336.023438 476.054688 338.152344 473.621094 C 340.28125 471.183594 335.414062 505.582031 335.414062 505.582031 Z M 335.414062 505.582031 " fill-opacity="1" fill-rule="nonzero"/><path fill="#e88033" d="M 347.585938 484.882812 C 347.585938 484.882812 348.195312 477.578125 349.109375 475.140625 C 350.019531 472.707031 351.542969 477.273438 347.585938 484.882812 Z M 347.585938 484.882812 " fill-opacity="1" fill-rule="nonzero"/><path fill="#ffbb21" d="M 536.570312 256.292969 C 536.453125 256.875 534.507812 266.007812 531.589844 279.78125 C 528.121094 283.117188 523.316406 286.253906 517.914062 288.269531 C 512.613281 290.238281 506.734375 291.132812 500.976562 290.058594 C 487.054688 287.484375 479.054688 280.925781 473.441406 271.496094 C 475.359375 260.777344 476.730469 253.242188 477.230469 250.789062 C 477.230469 250.789062 479.972656 264.488281 501.878906 268.144531 C 510.460938 269.578125 517.648438 268.0625 523.203125 265.691406 C 531.554688 262.132812 536.25 256.671875 536.570312 256.292969 Z M 536.570312 256.292969 " fill-opacity="1" fill-rule="nonzero"/><path fill="#9c580a" d="M 473.582031 279.707031 C 473.582031 279.707031 452.886719 243.378906 418.191406 242.160156 C 418.191406 242.160156 409.0625 241.351562 401.757812 249.875 C 401.757812 249.875 412.710938 243.785156 435.84375 260.222656 C 458.972656 276.664062 469.929688 298.582031 469.929688 298.582031 Z M 473.582031 279.707031 " fill-opacity="1" fill-rule="nonzero"/><path fill="#3d1212" d="M 441.628906 118.367188 C 441.628906 118.367188 445.277344 102.839844 461.714844 101.015625 C 478.148438 99.1875 478.148438 114.710938 478.148438 114.710938 C 478.148438 114.710938 493.671875 136.628906 469.019531 144.847656 C 444.367188 153.070312 441.628906 118.367188 441.628906 118.367188 Z M 441.628906 118.367188 " fill-opacity="1" fill-rule="nonzero"/><path fill="#4f1717" d="M 469.023438 162.207031 C 464.453125 172.246094 447.003906 178.433594 433.621094 179.660156 C 428.722656 180.101562 385.941406 154.898438 385.941406 154.898438 C 385.941406 154.898438 376.808594 146.679688 378.632812 139.375 C 378.632812 139.375 374.96875 133.890625 374.96875 128.414062 C 374.96875 126.972656 376.304688 124.695312 378.59375 122.109375 C 383.109375 117.007812 391.363281 110.710938 400.324219 107.242188 C 403.996094 105.8125 407.785156 104.871094 411.492188 104.667969 C 428.847656 103.761719 430.671875 110.152344 430.671875 110.152344 C 430.671875 110.152344 438.539062 109.734375 446.753906 113.097656 L 446.765625 113.097656 C 450.734375 114.71875 454.789062 117.234375 458.066406 121.109375 C 462.871094 126.785156 466.625 134.128906 468.734375 141.34375 L 468.734375 141.355469 C 471.046875 149.234375 471.40625 156.960938 469.023438 162.207031 Z M 469.023438 162.207031 " fill-opacity="1" fill-rule="nonzero"/><path fill="#f7a76d" d="M 433.410156 174.988281 C 433.410156 174.988281 457.148438 170.421875 452.582031 157.636719 C 448.019531 144.851562 430.671875 159.460938 430.671875 159.460938 C 430.671875 159.460938 421.542969 156.722656 422.453125 146.675781 C 423.367188 136.632812 409.671875 128.414062 397.800781 132.0625 C 385.933594 135.714844 381.367188 146.675781 380.453125 149.417969 C 379.539062 152.15625 382.277344 159.460938 378.628906 167.679688 C 374.976562 175.902344 373.148438 194.167969 382.277344 203.296875 C 391.414062 212.429688 427.019531 204.210938 433.410156 174.988281 Z M 433.410156 174.988281 " fill-opacity="1" fill-rule="nonzero"/><path fill="#e86e3e" d="M 445.195312 160.15625 C 440.4375 162.351562 437.132812 164.964844 434.121094 169.246094 C 433.65625 169.90625 432.515625 169.199219 432.910156 168.488281 C 435.289062 164.15625 440.195312 160.535156 445.132812 159.886719 C 445.296875 159.867188 445.324219 160.09375 445.195312 160.15625 Z M 445.195312 160.15625 " fill-opacity="1" fill-rule="nonzero"/><path fill="#e86e3e" d="M 444.59375 169.359375 C 442.007812 167.945312 438.917969 166.976562 435.957031 167.027344 C 435.054688 167.039062 435.089844 165.71875 436.007812 165.777344 C 439.363281 165.996094 442.160156 167.003906 444.625 169.3125 C 444.644531 169.332031 444.621094 169.375 444.59375 169.359375 Z M 444.59375 169.359375 " fill-opacity="1" fill-rule="nonzero"/><path fill="#e86e3e" d="M 389.585938 167.191406 C 390.3125 169.308594 389.410156 171.640625 387.929688 173.214844 C 387.132812 174.066406 386.058594 174.34375 385.226562 175.035156 C 384.453125 175.679688 385.058594 176.710938 385.796875 177.3125 C 386.875 178.195312 388.339844 178.125 389.597656 177.792969 C 390.5625 177.539062 391.109375 178.996094 390.132812 179.269531 C 387.019531 180.132812 382.289062 178.554688 383.40625 174.476562 C 383.503906 174.125 383.710938 173.9375 384.0625 173.867188 C 387.421875 173.171875 388.902344 170.300781 389.464844 167.203125 C 389.476562 167.140625 389.566406 167.128906 389.585938 167.191406 Z M 389.585938 167.191406 " fill-opacity="1" fill-rule="nonzero"/><path fill="#4f1e20" d="M 408.738281 172.1875 C 408.082031 174.953125 406.328125 176.90625 404.824219 176.546875 C 403.316406 176.1875 402.636719 173.65625 403.296875 170.890625 C 403.957031 168.125 405.710938 166.171875 407.214844 166.53125 C 408.714844 166.890625 409.402344 169.421875 408.738281 172.1875 Z M 408.738281 172.1875 " fill-opacity="1" fill-rule="nonzero"/><path fill="#4f1e20" d="M 408.113281 172.1875 C 408.289062 170.652344 408.1875 168.960938 407.777344 167.472656 C 407.359375 165.972656 406.554688 164.886719 405.695312 163.632812 C 405.300781 163.054688 406.070312 162.320312 406.613281 162.792969 C 409.214844 165.054688 409.71875 169.265625 408.167969 172.207031 C 408.148438 172.234375 408.109375 172.21875 408.113281 172.1875 Z M 408.113281 172.1875 " fill-opacity="1" fill-rule="nonzero"/><path fill="#4f1e20" d="M 385.320312 164.664062 C 384.722656 167.167969 383.136719 168.933594 381.777344 168.609375 C 380.417969 168.285156 379.800781 165.992188 380.398438 163.488281 C 380.996094 160.988281 382.582031 159.222656 383.941406 159.546875 C 385.300781 159.867188 385.917969 162.160156 385.320312 164.664062 Z M 385.320312 164.664062 " fill-opacity="1" fill-rule="nonzero"/><path fill="#4f1e20" d="M 384.636719 164.769531 C 385.121094 162.296875 384.261719 159.996094 382.785156 158.070312 C 382.132812 157.222656 383.464844 156.332031 384.136719 157.132812 C 385.953125 159.296875 385.972656 162.40625 384.691406 164.789062 C 384.679688 164.8125 384.632812 164.804688 384.636719 164.769531 Z M 384.636719 164.769531 " fill-opacity="1" fill-rule="nonzero"/><path fill="#4f1e20" d="M 415.984375 157.488281 C 414.273438 157.457031 412.566406 156.820312 410.890625 156.519531 C 409.070312 156.191406 407.332031 156.261719 405.5 156.273438 C 403.542969 156.285156 403.367188 153.191406 405.269531 152.859375 C 408.925781 152.210938 414.515625 153.074219 416.644531 156.488281 C 416.933594 156.964844 416.460938 157.496094 415.984375 157.488281 Z M 415.984375 157.488281 " fill-opacity="1" fill-rule="nonzero"/><path fill="#4f1e20" d="M 378.648438 152.75 C 379.886719 149.886719 385.378906 149.445312 387.335938 151.625 C 388.15625 152.539062 387.199219 153.890625 386.1875 153.996094 C 384.972656 154.128906 383.773438 153.472656 382.515625 153.5 C 381.355469 153.523438 380.273438 153.804688 379.117188 153.675781 C 378.683594 153.628906 378.492188 153.113281 378.648438 152.75 Z M 378.648438 152.75 " fill-opacity="1" fill-rule="nonzero"/><path fill="#e8612c" d="M 402.683594 186.105469 C 399.457031 189.535156 391.507812 190.449219 387.722656 187.441406 C 387.222656 187.046875 387.617188 186.207031 388.234375 186.320312 C 390.730469 186.761719 392.773438 187.726562 395.402344 187.589844 C 397.902344 187.457031 400.152344 186.589844 402.519531 185.882812 C 402.652344 185.839844 402.789062 185.996094 402.683594 186.105469 Z M 402.683594 186.105469 " fill-opacity="1" fill-rule="nonzero"/><path fill="#bd7019" d="M 536.570312 256.292969 C 536.453125 256.875 534.507812 266.007812 531.589844 279.78125 C 521.921875 325.292969 501.457031 421.484375 500.058594 427.042969 C 498.234375 434.351562 490.011719 452.617188 474.492188 459.007812 C 458.972656 465.398438 446.195312 444.398438 445.273438 439.835938 C 445.023438 438.546875 447.253906 423.894531 450.648438 403.253906 C 451.640625 412.503906 455.644531 421.082031 467.191406 420.652344 C 483.3125 420.054688 504.898438 342.125 517.910156 288.269531 C 519.890625 280.066406 521.667969 272.414062 523.207031 265.6875 C 531.554688 262.132812 536.25 256.671875 536.570312 256.292969 Z M 536.570312 256.292969 " fill-opacity="0.45" fill-rule="nonzero"/><path fill="#db9d12" d="M 503.707031 150.332031 C 503.707031 150.417969 503.695312 150.546875 503.660156 150.699219 Z M 503.707031 150.332031 " fill-opacity="1" fill-rule="nonzero"/><path fill="#f0debb" d="M 558.492188 746.679688 C 556.667969 749.421875 545.714844 746.679688 542.054688 753.070312 C 538.40625 759.460938 546.621094 785.035156 542.054688 803.300781 C 537.488281 821.566406 514.671875 832.523438 509.191406 825.214844 C 503.707031 817.90625 482.714844 743.03125 471.761719 733.894531 C 460.796875 724.765625 456.230469 729.328125 448.019531 711.96875 C 441.332031 697.839844 425.5625 648.597656 409.078125 625.859375 L 409.078125 625.851562 C 407.039062 623.046875 404.988281 620.640625 402.953125 618.757812 C 410.855469 624.625 425.8125 637.203125 432.800781 652.917969 C 442.539062 674.832031 430.371094 546.980469 429.152344 536.027344 C 427.9375 525.066406 502.199219 790.519531 515.585938 797.816406 C 528.984375 805.128906 516.804688 707.714844 516.804688 694.316406 C 516.804688 680.925781 535.0625 740.585938 547.238281 738.15625 C 556.664062 736.273438 546.402344 666.535156 541.847656 631.734375 C 542.589844 634.90625 543.339844 638.054688 544.089844 641.175781 C 548.214844 658.371094 552.359375 674.65625 555.757812 688.238281 C 563.058594 717.457031 560.316406 743.9375 558.492188 746.679688 Z M 558.492188 746.679688 " fill-opacity="0.63" fill-rule="nonzero"/><path fill="#cc7b1e" d="M 399.589844 883.5625 C 403.769531 890.125 408.347656 896.15625 411.679688 903.242188 C 413.070312 906.210938 417.636719 903.609375 416.117188 900.644531 C 412.589844 893.78125 408.128906 886.550781 402.011719 881.691406 C 400.746094 880.6875 398.570312 881.960938 399.589844 883.5625 Z M 399.589844 883.5625 " fill-opacity="1" fill-rule="nonzero"/><path fill="#cc7b1e" d="M 449.054688 904.980469 C 448.3125 897.816406 443.894531 890.265625 440.683594 883.9375 C 436.785156 876.257812 432.441406 868.84375 427.722656 861.644531 C 426.121094 859.199219 422.167969 861.496094 423.792969 863.941406 C 428.371094 870.84375 432.652344 877.941406 436.539062 885.253906 C 440.050781 891.855469 442.609375 899.878906 447.265625 905.722656 C 447.8125 906.40625 449.144531 905.851562 449.054688 904.980469 Z M 449.054688 904.980469 " fill-opacity="1" fill-rule="nonzero"/><path fill="#cc7b1e" d="M 464.265625 887.167969 C 460.851562 881.320312 453.796875 877.085938 448.40625 873.160156 C 441.8125 868.359375 435.074219 863.632812 427.996094 859.5625 C 425.4375 858.09375 423.25 861.910156 425.699219 863.496094 C 432.289062 867.761719 438.980469 871.832031 445.429688 876.3125 C 451.0625 880.222656 456.953125 885.972656 463.527344 888.132812 C 464.078125 888.3125 464.542969 887.644531 464.265625 887.167969 Z M 464.265625 887.167969 " fill-opacity="1" fill-rule="nonzero"/><path fill="#cc7b1e" d="M 424.734375 862.011719 C 428.039062 860.488281 430.503906 857.503906 433.132812 855.046875 C 435.941406 852.421875 438.796875 849.851562 441.722656 847.355469 C 448.082031 841.929688 454.914062 837.183594 462.421875 833.5 C 464.90625 832.277344 462.726562 828.566406 460.25 829.78125 C 452.933594 833.375 446.355469 838.023438 440.175781 843.316406 C 434.753906 847.96875 426.484375 854.15625 423.476562 860.753906 C 423.082031 861.609375 423.875 862.410156 424.734375 862.011719 Z M 424.734375 862.011719 " fill-opacity="1" fill-rule="nonzero"/><path fill="#cc7b1e" d="M 463.144531 832.851562 C 459.496094 825.953125 452.320312 820.359375 446.328125 815.585938 C 439.953125 810.507812 433.082031 806.019531 425.835938 802.300781 C 423.574219 801.140625 421.570312 804.511719 423.832031 805.726562 C 430.894531 809.527344 437.667969 813.671875 444.078125 818.503906 C 450.355469 823.234375 455.667969 829.492188 462.207031 833.792969 C 462.808594 834.183594 463.449219 833.425781 463.144531 832.851562 Z M 463.144531 832.851562 " fill-opacity="1" fill-rule="nonzero"/><path fill="#cc7b1e" d="M 423.414062 805.046875 C 430.835938 799.773438 436.550781 791.535156 443.414062 785.453125 C 451.164062 778.585938 459.597656 772.550781 468.53125 767.324219 C 470.6875 766.066406 468.722656 762.691406 466.570312 763.972656 C 457.652344 769.285156 449.257812 775.386719 441.601562 782.40625 C 434.972656 788.480469 426.273438 796.132812 423.066406 804.777344 C 422.996094 804.964844 423.25 805.164062 423.414062 805.046875 Z M 423.414062 805.046875 " fill-opacity="1" fill-rule="nonzero"/><path fill="#cc7b1e" d="M 469.125 767.171875 C 468.601562 763.332031 463.40625 760.710938 460.433594 758.726562 C 455.703125 755.566406 450.679688 752.792969 445.566406 750.308594 C 435.628906 745.476562 425.246094 741.605469 414.914062 737.730469 C 412.402344 736.789062 411.316406 740.8125 413.808594 741.742188 C 424.101562 745.601562 434.375 749.507812 444.277344 754.296875 C 448.875 756.515625 453.371094 758.910156 457.730469 761.570312 C 461.015625 763.578125 464.972656 767.773438 468.949219 767.398438 C 469.074219 767.386719 469.140625 767.292969 469.125 767.171875 Z M 469.125 767.171875 " fill-opacity="1" fill-rule="nonzero"/><path fill="#cc7b1e" d="M 412.914062 741.082031 C 419.785156 737.519531 426.058594 733.621094 433.671875 731.6875 C 437.597656 730.691406 442.164062 729.644531 446.207031 730.375 C 448.136719 730.429688 449.832031 731.171875 451.292969 732.601562 C 450.121094 739.265625 448.558594 741.0625 446.589844 737.996094 C 445.648438 737.21875 445.234375 736.375 444.226562 735.65625 C 443.757812 735.324219 442.925781 735.546875 442.679688 736.0625 C 440.507812 740.609375 446.796875 744.140625 450.796875 743.179688 C 456.234375 741.875 457.90625 735.535156 454.855469 731.238281 C 450.152344 724.613281 440.304688 726.566406 433.625 728.277344 C 425.871094 730.265625 417.488281 733.894531 412.039062 739.941406 C 411.480469 740.558594 412.171875 741.464844 412.914062 741.082031 Z M 412.914062 741.082031 " fill-opacity="1" fill-rule="nonzero"/><path fill="#cc7b1e" d="M 375.890625 903.753906 C 375.890625 903.753906 371.929688 904.367188 370.105469 906.195312 C 368.28125 908.019531 367.671875 911.675781 371.324219 912.285156 C 374.972656 912.890625 463.84375 909.242188 466.277344 906.804688 C 468.710938 904.367188 459.582031 898.886719 459.582031 898.886719 Z M 375.890625 903.753906 " fill-opacity="1" fill-rule="nonzero"/><path fill="#c2a27e" d="M 210.652344 526.746094 C 210.714844 526.65625 210.785156 526.574219 210.847656 526.484375 C 210.273438 526.484375 209.695312 526.484375 209.121094 526.484375 C 210.390625 528.046875 210.476562 530.851562 211.367188 532.785156 C 212.46875 535.167969 214.042969 537.390625 216.136719 538.980469 C 217.71875 540.183594 219.3125 537.707031 218.152344 536.371094 C 216.269531 534.203125 214.542969 532.210938 213.585938 529.441406 C 212.96875 527.640625 213.058594 525.140625 211.050781 524.277344 C 210.121094 523.878906 209.203125 524.179688 208.851562 525.171875 C 208.722656 525.535156 208.625 525.785156 208.585938 526.191406 C 208.496094 527.261719 210.191406 527.71875 210.652344 526.746094 Z M 210.652344 526.746094 " fill-opacity="1" fill-rule="nonzero"/><path fill="#c2a27e" d="M 209.890625 524.964844 C 211.136719 529.382812 215.78125 534.433594 220.679688 534.550781 C 222.175781 534.589844 222.917969 532.289062 221.476562 531.609375 C 219.589844 530.722656 217.632812 530.394531 215.863281 529.183594 C 214.03125 527.929688 212.511719 526.21875 211.269531 524.386719 C 210.808594 523.703125 209.648438 524.109375 209.890625 524.964844 Z M 209.890625 524.964844 " fill-opacity="1" fill-rule="nonzero"/><path fill="#c2a27e" d="M 211.816406 528.273438 C 209.390625 522.339844 211.085938 515.136719 216.007812 511.082031 C 215.382812 510.824219 214.753906 510.5625 214.128906 510.304688 C 213.59375 516.246094 212.375 522.273438 209.914062 527.738281 C 210.679688 527.738281 211.441406 527.738281 212.207031 527.738281 C 210.152344 524.636719 209.253906 520.304688 205.589844 518.628906 C 203.457031 517.648438 200.695312 517.664062 199.113281 519.601562 C 193.753906 526.167969 206.878906 529.523438 210.71875 530.039062 C 211.296875 530.117188 211.707031 529.316406 211.394531 528.863281 C 209.269531 525.792969 204.820312 527.246094 202.632812 524.664062 C 201.648438 523.496094 201.066406 520.511719 203.65625 521.03125 C 204.925781 521.289062 205.71875 522.171875 206.46875 523.148438 C 207.847656 524.960938 208.605469 527.203125 209.910156 529.082031 C 210.566406 530.023438 211.96875 529.894531 212.335938 528.765625 C 214.320312 522.671875 215.832031 516.714844 216.328125 510.304688 C 216.410156 509.269531 215.109375 508.96875 214.449219 509.527344 C 208.742188 514.359375 207.472656 522.1875 211.585938 528.375 C 211.664062 528.480469 211.875 528.414062 211.816406 528.273438 Z M 211.816406 528.273438 " fill-opacity="1" fill-rule="nonzero"/><path fill="#c2a27e" d="M 212.238281 536.589844 C 261.230469 543.027344 310.484375 547.875 359.59375 553.390625 C 408.714844 558.914062 457.828125 564.433594 506.949219 569.957031 C 508.554688 570.136719 508.542969 567.621094 506.949219 567.441406 C 457.828125 561.917969 408.714844 556.398438 359.59375 550.875 C 310.503906 545.359375 261.425781 539.144531 212.238281 534.550781 C 210.914062 534.425781 210.964844 536.421875 212.238281 536.589844 Z M 212.238281 536.589844 " fill-opacity="1" fill-rule="nonzero"/><path fill="#c2a27e" d="M 505.730469 567.886719 C 508.140625 564.328125 506.992188 558.292969 507.386719 554.164062 C 507.414062 553.402344 507.523438 552.652344 507.714844 551.90625 C 508.730469 551.855469 509.75 551.804688 510.765625 551.753906 C 511.179688 552.078125 510.179688 555.890625 510.0625 556.398438 C 509.421875 559.175781 508.320312 561.785156 506.953125 564.28125 C 507.742188 564.609375 508.527344 564.941406 509.316406 565.277344 C 510.148438 563.042969 511.574219 561.085938 513.597656 559.785156 C 515.476562 558.574219 522.078125 556.441406 519.507812 561.601562 C 517.347656 565.9375 511.199219 566.46875 507.066406 566.496094 C 505.859375 566.5 505.601562 568.28125 506.78125 568.609375 C 510.90625 569.746094 515.578125 568.289062 518.894531 565.714844 C 521.117188 563.984375 524.085938 560.6875 522.683594 557.59375 C 521.28125 554.496094 516.847656 555.5 514.394531 556.507812 C 510.746094 558.007812 508.191406 560.953125 506.820312 564.59375 C 506.300781 565.976562 508.484375 566.851562 509.183594 565.589844 C 510.925781 562.441406 517.820312 546.648438 509.453125 547.261719 C 506.355469 547.488281 505.101562 550.398438 504.828125 553.109375 C 504.5625 555.789062 504.636719 558.546875 504.5625 561.238281 C 504.5 563.617188 504.171875 565.800781 505.363281 567.886719 C 505.453125 568.03125 505.644531 568.011719 505.730469 567.886719 Z M 505.730469 567.886719 " fill-opacity="1" fill-rule="nonzero"/><path fill="#c2a27e" d="M 510.402344 558.84375 C 506.910156 563.035156 504.335938 568.03125 502.855469 573.289062 C 502.292969 575.289062 505.496094 576.15625 505.953125 574.144531 C 507.132812 568.960938 508.832031 564.210938 511.148438 559.417969 C 511.367188 558.96875 510.773438 558.398438 510.402344 558.84375 Z M 510.402344 558.84375 " fill-opacity="1" fill-rule="nonzero"/><path fill="#872727" d="M 468.734375 141.34375 L 468.734375 141.355469 C 467.28125 143.207031 465.3125 144.707031 462.835938 145.566406 C 453.503906 148.808594 447.816406 138.253906 445.386719 141.511719 C 442.941406 144.753906 445.386719 150.429688 442.132812 147.183594 C 438.890625 143.941406 436.054688 132.984375 440.105469 130.132812 C 444.167969 127.296875 453.910156 135.414062 453.910156 126.078125 C 453.910156 120.464844 449.925781 115.863281 446.769531 113.097656 C 450.738281 114.71875 454.789062 117.234375 458.070312 121.109375 C 462.871094 126.78125 466.625 134.125 468.734375 141.34375 Z M 468.734375 141.34375 " fill-opacity="1" fill-rule="nonzero"/><path fill="#872727" d="M 392.21875 129.320312 C 389.382812 130.132812 392.625 126.484375 390.195312 124.457031 C 388 122.628906 378.894531 127.378906 378.597656 122.105469 C 383.113281 117.003906 391.363281 110.707031 400.328125 107.238281 C 397.492188 109.445312 394.4375 112.339844 393.4375 115.121094 C 391.414062 120.796875 393.84375 119.988281 397.90625 120.390625 C 401.960938 120.796875 395.054688 128.515625 392.21875 129.320312 Z M 392.21875 129.320312 " fill-opacity="1" fill-rule="nonzero"/><path fill="#ffd147" d="M 445.753906 135.113281 C 445.753906 135.113281 446.394531 130.730469 450.140625 129.074219 C 453.882812 127.425781 458.882812 129.671875 458.882812 129.671875 C 458.882812 129.671875 457.660156 133.128906 454.992188 134.601562 C 452.332031 136.070312 445.753906 135.113281 445.753906 135.113281 Z M 445.753906 135.113281 " fill-opacity="1" fill-rule="nonzero"/><path fill="#ffd147" d="M 437.210938 140.117188 C 437.210938 140.117188 435.164062 136.414062 435.839844 133.390625 C 436.515625 130.363281 440.558594 126.800781 440.558594 126.800781 C 440.558594 126.800781 442.894531 131.117188 442.511719 134.457031 C 442.132812 137.796875 437.210938 140.117188 437.210938 140.117188 Z M 437.210938 140.117188 " fill-opacity="1" fill-rule="nonzero"/><path fill="#ffd147" d="M 433.421875 146.464844 C 433.421875 146.464844 435.648438 141.378906 438.59375 142.117188 C 441.542969 142.851562 446.339844 144.996094 446.339844 144.996094 C 446.339844 144.996094 443.238281 148.613281 440.0625 148.761719 C 436.890625 148.902344 433.421875 146.464844 433.421875 146.464844 Z M 433.421875 146.464844 " fill-opacity="1" fill-rule="nonzero"/><path fill="#ffd147" d="M 430.835938 147.914062 C 430.835938 147.914062 427.167969 144.25 427.269531 141.796875 C 427.371094 139.347656 429.445312 134.898438 429.445312 134.898438 C 429.445312 134.898438 432.453125 138.007812 432.957031 140.410156 C 433.464844 142.808594 430.835938 147.914062 430.835938 147.914062 Z M 430.835938 147.914062 " fill-opacity="1" fill-rule="nonzero"/><path fill="#ffd147" d="M 453.316406 131.789062 C 447.027344 133.175781 440.359375 136.027344 435.554688 140.378906 C 431.9375 143.65625 427.558594 149.574219 429.023438 154.738281 C 429.316406 155.78125 430.667969 155.65625 431.015625 154.738281 C 431.992188 152.152344 432.082031 149.445312 433.410156 146.933594 C 434.722656 144.453125 436.597656 142.289062 438.726562 140.476562 C 443.121094 136.738281 448.460938 134.78125 453.359375 131.886719 C 453.414062 131.859375 453.378906 131.777344 453.316406 131.789062 Z M 453.316406 131.789062 " fill-opacity="1" fill-rule="nonzero"/></svg>