<svg xmlns="http://www.w3.org/2000/svg" xmlns:xlink="http://www.w3.org/1999/xlink" width="1080" zoomAndPan="magnify" viewBox="0 0 810 1012.49997" height="1350" preserveAspectRatio="xMidYMid meet" version="1.0"><path fill="#fcf1dc" d="M 602.136719 331.699219 C 616 382.140625 624.53125 450.230469 621.308594 456.910156 C 616.414062 467.058594 608.84375 461.714844 608.84375 461.714844 C 608.84375 461.714844 611.074219 493.886719 611.988281 503.023438 C 612.902344 512.167969 599.324219 510.523438 596.609375 506.34375 C 593.886719 502.160156 590.816406 492.058594 590.816406 492.058594 C 590.816406 492.058594 581.269531 498.359375 575.304688 490.75 C 569.332031 483.140625 567.796875 478.09375 567.796875 478.09375 C 567.796875 478.09375 561.117188 477.921875 555.484375 472.246094 C 549.851562 466.574219 546.78125 456.476562 546.78125 456.476562 C 546.78125 456.476562 541.835938 458.65625 537.71875 454.050781 C 536.484375 452.671875 535.402344 450.792969 534.5 448.835938 C 532.394531 444.328125 531.207031 439.398438 531.167969 439.246094 C 531.070312 439.457031 529.445312 442.972656 526.664062 444.105469 C 525.152344 444.734375 523.300781 444.652344 521.175781 442.953125 C 520.257812 442.226562 519.402344 441.320312 518.605469 440.316406 C 514.042969 434.550781 511.488281 425.363281 511.488281 425.363281 C 511.488281 425.363281 506.460938 430.878906 501.300781 431.765625 C 496.132812 432.660156 489.097656 429.046875 489.097656 429.046875 L 480.480469 401.832031 L 465.96875 356 L 459.328125 335.039062 C 459.328125 335.039062 464.640625 338.324219 471.035156 340.34375 C 475.875 341.875 481.328125 342.6875 485.585938 340.8125 C 495.46875 336.445312 508.683594 274.386719 515.71875 261.214844 C 520.199219 252.832031 533.046875 255.394531 548.707031 262.664062 C 557.636719 266.800781 567.480469 272.472656 577.207031 278.511719 C 578.964844 279.605469 580.703125 281.277344 582.417969 283.457031 C 583.597656 284.953125 584.757812 286.6875 585.90625 288.632812 C 591.789062 298.570312 597.289062 314.050781 602.136719 331.699219 Z M 602.136719 331.699219 " fill-opacity="1" fill-rule="nonzero"/><path fill="#e6d9c3" d="M 585.910156 288.632812 C 584.359375 290.964844 581.980469 292.875 579.117188 293.25 C 573.59375 293.980469 568.296875 290.234375 563.289062 288.832031 C 563.917969 292.585938 564.40625 297.777344 561.949219 301.097656 C 558.800781 305.339844 554.585938 303.855469 550.480469 303.101562 C 554.308594 310.90625 547.015625 315.546875 540.152344 312.5 C 543.59375 317.527344 551.566406 326.546875 548.816406 333.433594 C 546.078125 340.277344 538.378906 337.847656 533.140625 337.453125 C 534.097656 344.710938 540.429688 351.542969 533.832031 357.820312 C 528.660156 362.738281 524.003906 361.128906 518.332031 359.0625 C 515.589844 368.507812 519.996094 379.566406 521.601562 388.957031 C 523.285156 398.777344 517.582031 413.8125 505.984375 415.082031 C 494.410156 416.355469 489.835938 397.027344 489.09375 388.578125 C 487.25 367.730469 496.0625 344.082031 503.714844 325.277344 C 511.234375 306.804688 521.398438 285.84375 535.992188 271.824219 C 540.015625 267.96875 544.140625 265 548.714844 262.660156 C 557.644531 266.796875 567.488281 272.46875 577.214844 278.507812 C 578.972656 279.601562 580.710938 281.273438 582.425781 283.453125 C 583.601562 284.953125 584.761719 286.6875 585.910156 288.632812 Z M 585.910156 288.632812 " fill-opacity="0.57" fill-rule="nonzero"/><path fill="#fcf1dc" d="M 574.816406 288.371094 C 567.117188 290.769531 559.671875 282.503906 553.882812 277.871094 C 557.828125 282.75 563.316406 290.90625 559.539062 297.167969 C 554.652344 305.265625 546.496094 297.910156 542.515625 292.726562 C 544.410156 296.617188 549.050781 302.855469 546.492188 307.148438 C 542.882812 313.195312 535.699219 307.332031 531.140625 308.214844 C 536.398438 314.476562 548.542969 321.261719 542.714844 329.945312 C 535.222656 341.117188 530.140625 330.871094 522.308594 327.601562 C 526.066406 334.085938 539.273438 347.84375 529.914062 352.953125 C 518.585938 359.144531 512.828125 347.578125 508.765625 339.066406 C 509.335938 343.882812 511.445312 348.367188 511.34375 353.058594 C 511.050781 367.007812 502.640625 386.910156 492.636719 396.476562 C 488.183594 400.730469 484.101562 402.242188 480.484375 401.839844 C 473.742188 401.097656 468.621094 393.691406 465.742188 384.957031 C 462.480469 375.0625 463.476562 365.453125 465.972656 356.003906 C 467.359375 350.746094 469.207031 345.535156 471.042969 340.347656 C 475.882812 341.878906 481.335938 342.6875 485.59375 340.816406 C 495.476562 336.449219 508.6875 274.386719 515.726562 261.21875 C 522.753906 248.050781 557.046875 258.515625 583.855469 275.148438 C 585.613281 276.242188 583.441406 285.679688 574.816406 288.371094 Z M 574.816406 288.371094 " fill-opacity="1" fill-rule="nonzero"/><path fill="#f0e2cb" d="M 608.84375 461.714844 C 608.84375 461.714844 590.03125 349.632812 580.917969 335.121094 C 571.808594 320.601562 608.84375 461.714844 608.84375 461.714844 Z M 608.84375 461.714844 " fill-opacity="1" fill-rule="nonzero"/><path fill="#f0e2cb" d="M 590.820312 492.058594 C 590.820312 492.058594 551.707031 362.105469 555.136719 351.042969 C 558.558594 339.980469 590.820312 492.058594 590.820312 492.058594 Z M 590.820312 492.058594 " fill-opacity="1" fill-rule="nonzero"/><path fill="#f0e2cb" d="M 567.796875 478.09375 C 567.796875 478.09375 531.363281 384.863281 536.820312 375.007812 C 542.273438 365.152344 567.796875 478.09375 567.796875 478.09375 Z M 567.796875 478.09375 " fill-opacity="1" fill-rule="nonzero"/><path fill="#e6d9c3" d="M 602.136719 331.699219 C 616 382.140625 624.53125 450.230469 621.308594 456.910156 C 616.414062 467.058594 608.84375 461.714844 608.84375 461.714844 C 608.84375 461.714844 611.074219 493.886719 611.988281 503.023438 C 612.902344 512.167969 599.324219 510.523438 596.609375 506.34375 C 593.886719 502.160156 590.816406 492.058594 590.816406 492.058594 C 590.816406 492.058594 581.269531 498.359375 575.304688 490.75 C 569.332031 483.140625 567.796875 478.09375 567.796875 478.09375 C 567.796875 478.09375 561.117188 477.921875 555.484375 472.246094 C 549.851562 466.574219 546.78125 456.476562 546.78125 456.476562 C 546.78125 456.476562 541.835938 458.65625 537.71875 454.050781 C 536.484375 452.671875 535.402344 450.792969 534.5 448.835938 C 541.160156 452.457031 548.179688 455.070312 551.214844 452.277344 C 557.570312 446.441406 553.632812 431.890625 553.378906 430.988281 C 553.730469 431.867188 559.476562 446.117188 566.953125 441.144531 C 574.667969 436.015625 566.011719 396.625 566.011719 396.625 C 566.011719 396.625 576.167969 417.890625 585.574219 416.3125 C 594.980469 414.722656 592.558594 386.863281 592.558594 386.863281 C 592.558594 386.863281 603.949219 404.640625 608.109375 385.976562 C 610.484375 375.316406 606.226562 350.777344 602.136719 331.699219 Z M 602.136719 331.699219 " fill-opacity="0.57" fill-rule="nonzero"/><path fill="#fcf1dc" d="M 248.9375 340.421875 C 238.25 391.628906 233.984375 460.117188 237.617188 466.582031 C 243.140625 476.402344 250.359375 470.601562 250.359375 470.601562 C 250.359375 470.601562 250.144531 502.847656 249.800781 512.023438 C 249.457031 521.207031 262.90625 518.722656 265.355469 514.378906 C 267.8125 510.03125 270.242188 499.761719 270.242188 499.761719 C 270.242188 499.761719 280.167969 505.457031 285.644531 497.488281 C 291.132812 489.523438 292.347656 484.390625 292.347656 484.390625 C 292.347656 484.390625 299.003906 483.800781 304.269531 477.785156 C 309.539062 471.773438 311.972656 461.503906 311.972656 461.503906 C 311.972656 461.503906 317.042969 463.371094 320.863281 458.515625 C 322.011719 457.0625 322.972656 455.121094 323.753906 453.113281 C 325.570312 448.484375 326.453125 443.488281 326.480469 443.335938 C 326.59375 443.539062 328.433594 446.945312 331.277344 447.90625 C 332.828125 448.4375 334.667969 448.242188 336.6875 446.410156 C 337.554688 445.628906 338.355469 444.671875 339.085938 443.621094 C 343.28125 437.582031 345.253906 428.253906 345.253906 428.253906 C 345.253906 428.253906 350.617188 433.445312 355.824219 434.007812 C 361.039062 434.574219 367.832031 430.53125 367.832031 430.53125 L 374.734375 402.835938 L 386.355469 356.183594 L 391.675781 334.851562 C 391.675781 334.851562 386.574219 338.457031 380.320312 340.875 C 375.585938 342.707031 370.191406 343.855469 365.824219 342.25 C 355.6875 338.507812 338.628906 277.390625 330.78125 264.683594 C 325.789062 256.59375 313.125 259.957031 297.953125 268.1875 C 289.300781 272.875 279.832031 279.144531 270.5 285.78125 C 268.8125 286.984375 267.183594 288.757812 265.609375 291.042969 C 264.527344 292.609375 263.472656 294.414062 262.449219 296.425781 C 257.199219 306.710938 252.675781 322.507812 248.9375 340.421875 Z M 248.9375 340.421875 " fill-opacity="1" fill-rule="nonzero"/><path fill="#e6d9c3" d="M 262.441406 296.425781 C 264.136719 298.65625 266.628906 300.410156 269.511719 300.609375 C 275.066406 300.992188 280.121094 296.929688 285.03125 295.210938 C 284.640625 299 284.472656 304.210938 287.136719 307.371094 C 290.542969 311.410156 294.652344 309.660156 298.707031 308.652344 C 295.371094 316.683594 302.941406 320.863281 309.601562 317.390625 C 306.480469 322.625 299.089844 332.121094 302.265625 338.824219 C 305.425781 345.484375 312.957031 342.578125 318.160156 341.859375 C 317.660156 349.164062 311.765625 356.375 318.742188 362.230469 C 324.210938 366.8125 328.753906 364.917969 334.285156 362.5 C 337.617188 371.757812 333.90625 383.070312 332.890625 392.542969 C 331.820312 402.453125 338.457031 417.101562 350.109375 417.644531 C 361.738281 418.191406 365.097656 398.617188 365.3125 390.140625 C 365.847656 369.21875 355.578125 346.164062 346.765625 327.871094 C 338.109375 309.902344 326.652344 289.617188 311.214844 276.535156 C 306.960938 272.933594 302.660156 270.230469 297.945312 268.179688 C 289.292969 272.867188 279.824219 279.136719 270.492188 285.773438 C 268.804688 286.976562 267.175781 288.75 265.601562 291.035156 C 264.519531 292.609375 263.46875 294.414062 262.441406 296.425781 Z M 262.441406 296.425781 " fill-opacity="0.57" fill-rule="nonzero"/><path fill="#fcf1dc" d="M 273.5 295.472656 C 281.335938 297.390625 288.25 288.671875 293.738281 283.6875 C 290.105469 288.804688 285.136719 297.289062 289.300781 303.300781 C 294.683594 311.082031 302.363281 303.230469 306.015625 297.804688 C 304.371094 301.804688 300.125 308.320312 302.945312 312.445312 C 306.925781 318.253906 313.726562 311.957031 318.335938 312.554688 C 313.476562 319.132812 301.777344 326.664062 308.136719 334.964844 C 316.3125 345.644531 320.746094 335.105469 328.359375 331.351562 C 325.015625 338.054688 312.691406 352.613281 322.347656 357.128906 C 334.042969 362.601562 339.066406 350.699219 342.589844 341.953125 C 342.320312 346.792969 340.5 351.402344 340.886719 356.078125 C 342.054688 369.980469 351.6875 389.320312 362.273438 398.246094 C 366.980469 402.210938 371.148438 403.46875 374.734375 402.839844 C 381.417969 401.683594 386.066406 393.96875 388.394531 385.070312 C 391.03125 374.992188 389.4375 365.464844 386.355469 356.1875 C 384.648438 351.027344 382.476562 345.941406 380.320312 340.878906 C 375.585938 342.710938 370.191406 343.855469 365.824219 342.253906 C 355.6875 338.511719 338.628906 277.394531 330.78125 264.6875 C 322.945312 251.984375 289.375 264.566406 263.65625 282.839844 C 261.964844 284.042969 264.722656 293.328125 273.5 295.472656 Z M 273.5 295.472656 " fill-opacity="1" fill-rule="nonzero"/><path fill="#f0e2cb" d="M 250.359375 470.601562 C 250.359375 470.601562 262.140625 357.566406 270.328125 342.511719 C 278.511719 327.457031 250.359375 470.601562 250.359375 470.601562 Z M 250.359375 470.601562 " fill-opacity="1" fill-rule="nonzero"/><path fill="#f0e2cb" d="M 270.242188 499.765625 C 270.242188 499.765625 301.167969 367.625 297.054688 356.796875 C 292.945312 345.964844 270.242188 499.765625 270.242188 499.765625 Z M 270.242188 499.765625 " fill-opacity="1" fill-rule="nonzero"/><path fill="#f0e2cb" d="M 292.347656 484.390625 C 292.347656 484.390625 322.890625 389.070312 316.832031 379.574219 C 310.769531 370.078125 292.347656 484.390625 292.347656 484.390625 Z M 292.347656 484.390625 " fill-opacity="1" fill-rule="nonzero"/><path fill="#e6d9c3" d="M 248.9375 340.421875 C 238.25 391.628906 233.984375 460.117188 237.617188 466.582031 C 243.140625 476.402344 250.359375 470.601562 250.359375 470.601562 C 250.359375 470.601562 250.144531 502.847656 249.800781 512.023438 C 249.457031 521.207031 262.90625 518.722656 265.355469 514.378906 C 267.8125 510.03125 270.242188 499.761719 270.242188 499.761719 C 270.242188 499.761719 280.167969 505.457031 285.644531 497.488281 C 291.132812 489.523438 292.347656 484.390625 292.347656 484.390625 C 292.347656 484.390625 299.003906 483.800781 304.269531 477.785156 C 309.539062 471.773438 311.972656 461.503906 311.972656 461.503906 C 311.972656 461.503906 317.042969 463.371094 320.863281 458.515625 C 322.011719 457.0625 322.972656 455.121094 323.753906 453.113281 C 317.332031 457.144531 310.492188 460.1875 307.285156 457.589844 C 300.578125 452.160156 303.597656 437.394531 303.792969 436.480469 C 303.5 437.375 298.65625 451.960938 290.882812 447.460938 C 282.863281 442.824219 289.042969 402.972656 289.042969 402.972656 C 289.042969 402.972656 280.234375 424.828125 270.746094 423.835938 C 261.261719 422.839844 261.933594 394.882812 261.933594 394.882812 C 261.933594 394.882812 251.675781 413.335938 246.363281 394.96875 C 243.328125 384.472656 246.046875 359.714844 248.9375 340.421875 Z M 248.9375 340.421875 " fill-opacity="0.57" fill-rule="nonzero"/><path fill="#ffb98c" d="M 485.21875 548.71875 C 485.21875 548.71875 485.21875 584.347656 483.304688 602.804688 C 483.230469 603.519531 483.15625 604.25 483.074219 604.992188 C 481.335938 621.089844 478.355469 641.921875 476.828125 651.242188 C 476.628906 652.496094 476.445312 653.542969 476.304688 654.34375 C 475.023438 661.335938 472.480469 700.15625 470.570312 719.246094 C 468.65625 738.335938 452.746094 800.691406 450.835938 807.691406 C 448.921875 814.683594 450.195312 847.773438 451.464844 851.59375 C 452.570312 854.898438 456.546875 858.207031 458.832031 861.105469 C 459.179688 861.542969 459.488281 861.984375 459.746094 862.410156 C 461.660156 865.589844 462.296875 871.3125 460.386719 872.585938 C 458.472656 873.855469 433.644531 876.40625 430.460938 873.855469 C 427.277344 871.3125 423.449219 860.496094 423.449219 856.046875 C 423.449219 851.59375 425.363281 838.230469 424.722656 833.773438 C 424.089844 829.320312 416.449219 814.683594 417.085938 809.589844 C 417.722656 804.507812 429.1875 796.234375 430.460938 793.683594 C 431.730469 791.140625 430.460938 719.242188 432.371094 706.515625 C 432.804688 703.632812 433.59375 700.070312 434.566406 696.214844 C 435.273438 693.433594 436.074219 690.492188 436.894531 687.5625 C 436.953125 687.363281 437.011719 687.160156 437.0625 686.960938 C 440.097656 676.226562 443.445312 665.652344 443.828125 662.613281 C 444.050781 660.863281 441.550781 648.015625 438.367188 630.972656 C 436.265625 619.753906 433.871094 606.734375 431.75 593.839844 C 430.378906 585.476562 429.121094 577.167969 428.132812 569.460938 C 426.257812 554.632812 425.382812 542.003906 426.636719 535.359375 C 426.695312 535.070312 426.753906 534.78125 426.828125 534.503906 C 432.441406 512.730469 485.21875 548.71875 485.21875 548.71875 Z M 485.21875 548.71875 " fill-opacity="1" fill-rule="nonzero"/><path fill="#fa9452" d="M 460.597656 665.796875 C 455.578125 674.332031 440.648438 689.988281 434.570312 696.21875 C 437.894531 683.050781 443.339844 666.546875 443.832031 662.617188 C 444.054688 660.863281 441.554688 648.019531 438.371094 630.972656 L 439.59375 583.714844 L 456.785156 594.53125 C 456.78125 594.53125 466.964844 654.980469 460.597656 665.796875 Z M 460.597656 665.796875 " fill-opacity="1" fill-rule="nonzero"/><path fill="#ffc29b" d="M 459.117188 650.523438 C 459.117188 659.933594 453.132812 669.886719 448.210938 675.359375 C 447.804688 675.808594 447.402344 676.234375 447.015625 676.613281 C 445.976562 677.652344 442.226562 681.714844 436.894531 687.5625 C 416.128906 710.347656 371.367188 760.234375 369.335938 763.78125 C 369.039062 764.304688 368.796875 765.191406 368.589844 766.375 C 367.082031 775.269531 368.203125 800.273438 369.335938 801.960938 C 370.609375 803.875 375.0625 802.601562 378.246094 806.414062 C 381.429688 810.234375 382.0625 817.230469 379.519531 817.871094 C 376.972656 818.511719 346.40625 819.140625 343.867188 817.871094 C 341.3125 816.601562 337.5 808.964844 337.5 803.875 C 337.5 798.78125 340.042969 777.152344 340.042969 773.96875 C 340.042969 770.789062 336.226562 762.515625 338.128906 757.421875 C 340.042969 752.335938 357.234375 741.519531 359.785156 738.339844 C 362.332031 735.15625 388.433594 689.976562 393.527344 682.980469 C 398.625 675.980469 413.902344 668.34375 416.457031 665.164062 C 418.992188 662.007812 422.78125 651.9375 421.566406 648.691406 C 421.558594 648.675781 421.558594 648.660156 421.550781 648.640625 C 421.542969 648.632812 421.542969 648.625 421.542969 648.625 C 420.542969 646.132812 405.464844 616.261719 397.15625 599.792969 C 394.859375 595.25 393.082031 591.726562 392.257812 590.082031 C 390.652344 586.886719 387.027344 581.550781 383.183594 575.453125 C 377.863281 567.023438 372.089844 557.121094 370.613281 549.363281 C 368.0625 535.996094 369.34375 510.542969 369.34375 510.542969 C 369.34375 510.542969 405.402344 521.101562 426.835938 534.507812 C 433.734375 538.816406 439.121094 543.429688 441.289062 548.082031 C 443.226562 552.226562 445.15625 558.914062 447 566.945312 C 449.703125 578.742188 452.214844 593.445312 454.242188 607.277344 C 457.195312 627.460938 459.117188 645.785156 459.117188 650.523438 Z M 459.117188 650.523438 " fill-opacity="1" fill-rule="nonzero"/><path fill="#e06522" d="M 482.675781 558.453125 C 482.519531 560.929688 482.367188 562.648438 482.25 563.355469 C 481.910156 565.390625 470.738281 564.851562 457.4375 563.472656 C 447.71875 562.464844 436.863281 561.003906 428.277344 559.765625 C 419.183594 558.46875 412.632812 557.414062 412.632812 557.414062 C 412.632812 557.414062 408.632812 552.855469 403.28125 546.648438 C 396.34375 538.601562 387.121094 527.792969 381.410156 520.640625 C 378.375 516.84375 376.328125 514.078125 376.132812 513.296875 C 375.277344 509.910156 389.714844 439.492188 389.714844 439.492188 L 456.785156 443.738281 C 456.785156 443.738281 475.457031 468.335938 480.550781 484.457031 C 482.222656 489.75 483.078125 499.523438 483.429688 510.449219 C 484.007812 528.175781 483.28125 548.933594 482.675781 558.453125 Z M 482.675781 558.453125 " fill-opacity="1" fill-rule="nonzero"/><path fill="#d45611" d="M 482.675781 558.453125 C 475.054688 559.808594 464.949219 561.703125 457.4375 563.472656 C 451.875 564.785156 447.71875 566.03125 446.996094 566.945312 C 446.148438 568.015625 438.324219 564.726562 428.277344 559.765625 C 420.542969 555.960938 411.492188 551.179688 403.277344 546.648438 C 390.320312 539.503906 379.445312 533 379.097656 531.964844 C 378.890625 531.339844 379.847656 526.945312 381.410156 520.640625 C 386.246094 501.09375 396.929688 463.246094 396.929688 463.246094 C 396.929688 463.246094 405.417969 455.613281 408.808594 464.09375 C 408.808594 464.09375 402.875 492.9375 416.457031 503.96875 C 428.03125 513.355469 467.308594 511.675781 483.425781 510.449219 C 484.007812 528.175781 483.28125 548.933594 482.675781 558.453125 Z M 482.675781 558.453125 " fill-opacity="1" fill-rule="nonzero"/><path fill="#f2af3c" d="M 476.730469 273.207031 C 475.226562 276.214844 473.722656 277.292969 472.742188 277.675781 C 472.058594 277.941406 471.578125 278.566406 471.46875 279.285156 C 470.824219 283.433594 467.789062 295.226562 454.371094 294.671875 C 448.882812 294.441406 441.078125 294.140625 433.15625 293.847656 C 420.84375 293.390625 408.25 292.953125 403.53125 292.785156 C 402.5 292.753906 401.609375 293.425781 401.300781 294.414062 C 400.851562 295.84375 399.730469 297.730469 396.929688 298.234375 C 394.089844 298.75 392.972656 296.125 392.539062 294 C 392.289062 292.785156 391.144531 291.972656 389.929688 292.207031 C 387.800781 292.613281 384.816406 292.40625 383.769531 288.476562 C 382.589844 284.058594 384.277344 280.046875 385.417969 278.007812 C 385.800781 277.335938 385.789062 276.519531 385.433594 275.867188 C 385.34375 275.699219 385.234375 275.550781 385.109375 275.40625 C 382.414062 272.476562 376.621094 264.464844 383.34375 255.386719 C 389.746094 246.757812 400.253906 248.011719 405.03125 249.152344 C 406.285156 249.449219 407.507812 248.617188 407.742188 247.347656 C 408.171875 244.929688 409.496094 241.449219 413.476562 240.121094 C 414.605469 239.75 415.6875 239.707031 416.71875 239.890625 C 419.4375 240.371094 421.734375 242.449219 423.195312 244.144531 C 424.101562 245.199219 425.738281 245.191406 426.621094 244.121094 C 429.65625 240.414062 436.820312 233.976562 448.542969 236.675781 C 449.558594 236.898438 450.605469 237.207031 451.683594 237.582031 C 463.511719 241.703125 466.074219 248.140625 466.40625 252.160156 C 466.523438 253.546875 467.867188 254.535156 469.199219 254.117188 C 470.894531 253.585938 472.90625 253.695312 474.175781 256.246094 C 475.707031 259.292969 474.941406 262.042969 474.085938 263.753906 C 473.578125 264.777344 473.921875 266.007812 474.84375 266.6875 C 476.476562 267.890625 478.304688 270.058594 476.730469 273.207031 Z M 476.730469 273.207031 " fill-opacity="1" fill-rule="nonzero"/><path fill="#ffbd4d" d="M 414.753906 278.300781 C 414.6875 272.1875 421.183594 259.757812 429.113281 261.40625 C 431.710938 267.855469 428.390625 271.183594 437.1875 270.726562 C 437.171875 273.792969 434.511719 275.210938 432.066406 274.597656 C 428.472656 273.695312 429.234375 270.558594 425.914062 273.75 C 424.449219 275.152344 424.453125 278.082031 422.578125 279.113281 C 420.90625 280.039062 416.539062 279.292969 414.753906 278.300781 Z M 414.753906 278.300781 " fill-opacity="1" fill-rule="nonzero"/><path fill="#fa9452" d="M 483.074219 604.992188 C 481.335938 621.089844 478.355469 641.921875 476.828125 651.242188 L 476.511719 651.800781 C 476.511719 651.800781 470.3125 624.519531 454.234375 607.277344 C 450.367188 603.113281 445.921875 599.542969 440.859375 597.074219 C 437.785156 595.570312 434.730469 594.523438 431.746094 593.84375 C 417.425781 590.558594 404.554688 595.679688 397.148438 599.789062 C 394.855469 595.246094 393.074219 591.722656 392.253906 590.078125 C 390.648438 586.878906 387.023438 581.546875 383.175781 575.449219 L 428.132812 569.460938 L 446.992188 566.945312 L 454.863281 565.898438 Z M 483.074219 604.992188 " fill-opacity="1" fill-rule="nonzero"/><path fill="#e3a02d" d="M 476.730469 273.207031 C 475.226562 276.214844 473.722656 277.292969 472.742188 277.675781 C 472.058594 277.941406 471.578125 278.566406 471.46875 279.285156 C 470.824219 283.433594 467.789062 295.226562 454.371094 294.671875 C 448.882812 294.441406 441.078125 294.140625 433.15625 293.847656 C 430.269531 289.660156 427.679688 284.976562 427.976562 280.882812 C 433.03125 284.164062 438.972656 286.929688 444.484375 282.644531 C 449.457031 278.78125 450.828125 272.992188 450.046875 267.332031 C 453.664062 266.984375 456.433594 264.183594 456.355469 260.273438 C 456.273438 256.152344 453.390625 255.589844 450.792969 253.269531 C 456.621094 247.003906 454.003906 240.09375 448.539062 236.671875 C 449.554688 236.894531 450.601562 237.203125 451.683594 237.574219 C 463.511719 241.695312 466.070312 248.132812 466.402344 252.152344 C 466.519531 253.539062 467.867188 254.527344 469.195312 254.113281 C 470.890625 253.582031 472.902344 253.691406 474.175781 256.242188 C 475.703125 259.289062 474.9375 262.039062 474.082031 263.75 C 473.578125 264.773438 473.917969 266.003906 474.839844 266.679688 C 476.476562 267.890625 478.304688 270.058594 476.730469 273.207031 Z M 476.730469 273.207031 " fill-opacity="1" fill-rule="nonzero"/><path fill="#f06c24" d="M 509.417969 590.503906 C 508.5625 599.832031 493.28125 646.496094 488.1875 655.832031 C 483.097656 665.160156 473.753906 671.949219 473.753906 671.949219 L 476.308594 649.042969 C 476.308594 649.042969 462.722656 595.597656 435.550781 586.261719 C 415.734375 579.457031 391.410156 589.796875 375.742188 592.597656 C 369.921875 593.644531 365.300781 593.644531 362.546875 591.351562 C 356.753906 586.535156 348.226562 570.214844 342.40625 555.617188 C 337.984375 544.519531 335.125 534.417969 336.230469 531.121094 C 337.710938 526.667969 343.820312 515.578125 350.496094 504.585938 C 355.277344 496.726562 360.347656 488.917969 364.246094 483.609375 C 373.582031 470.886719 378.675781 449.675781 378.675781 449.675781 L 409.242188 453.066406 C 409.242188 453.066406 393.109375 481.058594 405.84375 506.511719 C 415.164062 525.128906 446.277344 527.40625 465.972656 531.941406 C 473.203125 533.59375 478.890625 535.566406 481.402344 538.753906 C 490.738281 550.628906 510.265625 581.164062 509.417969 590.503906 Z M 509.417969 590.503906 " fill-opacity="1" fill-rule="nonzero"/><path fill="#ffbc91" d="M 471.210938 388.375 L 450.695312 457.09375 L 378.25 429.097656 L 350.445312 403.011719 C 350.445312 403.011719 367.632812 345.746094 373.371094 338.109375 C 375.78125 334.894531 388.308594 332.757812 397.734375 330.941406 C 403.546875 329.820312 408.933594 328.292969 411.359375 325.382812 C 412.835938 323.605469 414.90625 320.621094 417.417969 317.199219 C 425.722656 305.898438 438.914062 289.769531 452.109375 296.113281 C 452.109375 296.113281 453.378906 317.746094 455.929688 322.835938 C 458.441406 327.855469 472.765625 334.128906 478.632812 335.507812 C 478.707031 335.523438 478.773438 335.539062 478.847656 335.558594 C 484.578125 336.839844 471.210938 388.375 471.210938 388.375 Z M 471.210938 388.375 " fill-opacity="1" fill-rule="nonzero"/><path fill="#fa9452" d="M 424.519531 338.109375 C 407.792969 341.074219 399.53125 332.992188 397.734375 330.941406 C 403.546875 329.820312 408.933594 328.292969 411.359375 325.382812 C 412.835938 323.605469 414.90625 320.621094 417.417969 317.199219 C 430.179688 311.183594 447.070312 303.824219 447.863281 306.714844 C 449.144531 311.386719 443.621094 334.710938 424.519531 338.109375 Z M 424.519531 338.109375 " fill-opacity="1" fill-rule="nonzero"/><path fill="#ffbc91" d="M 466.757812 458.363281 C 466.324219 458.792969 465.410156 459.507812 464.195312 460.378906 C 460.007812 463.386719 452.234375 468.195312 448.285156 469.1875 C 443.195312 470.457031 419.421875 466.855469 416.875 466.214844 C 414.324219 465.582031 403.71875 466.003906 390.984375 464.09375 C 389.847656 463.929688 388.507812 463.65625 387 463.304688 C 381.839844 462.101562 374.78125 459.882812 367.707031 457.070312 C 353.71875 451.519531 339.664062 443.660156 340.042969 436.730469 C 340.683594 425.277344 347.683594 402.375 356.601562 389.015625 C 364.816406 376.695312 373.578125 351.941406 374.898438 348.144531 C 370.683594 361.9375 377.699219 411.570312 381.648438 424.214844 C 382.132812 425.734375 382.5625 426.722656 382.921875 427.046875 C 385.117188 429.015625 399.28125 436.210938 410.054688 440.878906 C 415.949219 443.433594 420.828125 445.230469 422.1875 445.007812 C 424.398438 444.632812 430.023438 441.921875 434.375 439.699219 C 437.53125 438.085938 440.019531 436.730469 440.019531 436.730469 C 440.019531 436.730469 450.203125 439.914062 450.203125 441.824219 C 450.203125 442.820312 447.777344 445.722656 445.90625 448.179688 C 444.191406 450.433594 442.953125 452.308594 444.476562 452 C 445.398438 451.816406 446.851562 451.042969 448.53125 450.046875 C 450.984375 448.585938 453.925781 446.617188 456.382812 445.28125 C 458.042969 444.367188 459.480469 443.734375 460.394531 443.734375 C 463.578125 443.734375 464.851562 445.648438 462.941406 448.191406 C 462.738281 448.457031 462.414062 448.796875 462 449.195312 C 460.46875 450.640625 457.710938 452.816406 455.273438 454.746094 C 452.140625 457.234375 449.5625 459.328125 450.84375 459.007812 C 452.074219 458.691406 454.660156 457.335938 457.277344 456.097656 C 460.070312 454.777344 462.898438 453.589844 464.210938 453.914062 C 466.757812 454.550781 468.660156 456.460938 466.757812 458.363281 Z M 466.757812 458.363281 " fill-opacity="1" fill-rule="nonzero"/><path fill="#f5833b" d="M 381.007812 375.648438 C 381.007812 375.648438 378.460938 394.101562 380.371094 397.917969 C 382.28125 401.734375 402.019531 404.917969 405.839844 404.28125 C 409.660156 403.644531 414.753906 392.828125 416.027344 390.28125 C 417.300781 387.738281 410.933594 410.644531 434.28125 404.28125 C 438.710938 403.074219 431.308594 412.550781 431.308594 412.550781 L 400.109375 425.277344 L 381.648438 424.210938 L 374.003906 418.277344 Z M 381.007812 375.648438 " fill-opacity="0.35" fill-rule="nonzero"/><path fill="#fa9452" d="M 437.820312 436.382812 L 433.148438 438.785156 C 433.148438 438.785156 424.800781 443.308594 422.394531 444.015625 C 421.324219 444.332031 414.394531 435.445312 410.054688 440.878906 C 404.652344 447.648438 398.652344 455.355469 396.929688 456.460938 C 393.8125 458.441406 389.148438 456.886719 389 457.308594 C 388.898438 457.613281 387.660156 461.335938 387.003906 463.304688 C 381.839844 462.101562 374.785156 459.882812 367.710938 457.070312 C 368.800781 453.871094 370.894531 448.96875 370.894531 448.96875 C 370.894531 448.96875 368.765625 436.101562 369.765625 434.398438 C 370.753906 432.703125 378.585938 426.507812 381.644531 424.222656 C 381.644531 424.222656 381.652344 424.222656 381.652344 424.214844 C 385.859375 421.085938 409.949219 405.980469 413.625 405.699219 C 417.304688 405.417969 428.195312 409.804688 428.195312 409.804688 L 423.105469 419.695312 Z M 437.820312 436.382812 " fill-opacity="1" fill-rule="nonzero"/><path fill="#f06c24" d="M 478.4375 409.550781 C 475.792969 417.019531 472.335938 424.070312 467.8125 430.160156 C 466.9375 431.339844 466.050781 432.386719 465.144531 433.328125 C 444.535156 454.667969 416.878906 415.742188 416.878906 415.742188 C 416.878906 415.742188 417.992188 415.207031 419.898438 414.078125 C 426.324219 410.285156 441.792969 399.734375 454.226562 380.105469 C 469.757812 355.609375 475.847656 335.039062 476.285156 333.535156 C 476.300781 333.476562 476.308594 333.445312 476.308594 333.445312 C 476.308594 333.445312 482.25 330.058594 485.640625 335.140625 C 485.640625 335.136719 490.148438 376.390625 478.4375 409.550781 Z M 478.4375 409.550781 " fill-opacity="1" fill-rule="nonzero"/><path fill="#e06522" d="M 440.222656 434.820312 L 439.09375 436.242188 L 437.566406 438.167969 C 433.101562 440.710938 423.773438 445.746094 420.277344 445.429688 C 418.710938 445.289062 412.511719 442.855469 404.960938 439.546875 L 402.875 435.246094 L 406.875 432.015625 L 420.699219 420.824219 Z M 440.222656 434.820312 " fill-opacity="1" fill-rule="nonzero"/><path fill="#fa9452" d="M 406.871094 432.011719 L 402.871094 435.242188 L 404.957031 439.546875 C 390.007812 433.015625 369.761719 423.082031 369.761719 420.824219 C 369.761719 417.433594 380.585938 373.105469 381.007812 375.648438 C 381.429688 378.191406 374 409.800781 380.367188 414.035156 C 381.816406 415 395.242188 424.367188 406.871094 432.011719 Z M 406.871094 432.011719 " fill-opacity="1" fill-rule="nonzero"/><path fill="#fa9452" d="M 440.015625 436.730469 C 440.015625 436.730469 439.066406 437.304688 437.5625 438.167969 L 439.089844 436.242188 Z M 440.015625 436.730469 " fill-opacity="1" fill-rule="nonzero"/><path fill="#e0601b" d="M 478.4375 409.550781 C 475.792969 417.019531 472.335938 424.070312 467.8125 430.160156 C 466.9375 431.339844 466.050781 432.386719 465.144531 433.328125 L 420.695312 417.859375 C 420.695312 417.859375 420.308594 416.15625 419.894531 414.078125 C 426.320312 410.285156 441.789062 399.734375 454.226562 380.105469 C 469.753906 355.609375 475.847656 335.039062 476.28125 333.535156 C 475.808594 335.441406 468.167969 365.90625 466.117188 372.894531 C 463.996094 380.105469 455.074219 402.589844 454.652344 405.132812 C 454.226562 407.675781 460.171875 410.648438 463.570312 410.226562 C 466.960938 409.800781 477.578125 372.894531 478.003906 371.621094 C 478.425781 370.351562 473.328125 402.589844 473.753906 405.554688 C 474.074219 407.765625 476.507812 409.742188 478.4375 409.550781 Z M 478.4375 409.550781 " fill-opacity="1" fill-rule="nonzero"/><path fill="#ffc29b" d="M 448.289062 301.203125 C 448.289062 301.203125 464.207031 292.933594 458.476562 284.660156 C 452.746094 276.390625 444.46875 285.296875 444.46875 285.296875 C 444.46875 285.296875 435.128906 291.65625 430.886719 284.238281 C 422.394531 269.390625 414.4375 272.667969 413.925781 276.835938 C 413.917969 276.898438 413.910156 276.960938 413.90625 277.027344 C 413.902344 277.089844 413.890625 277.152344 413.882812 277.214844 C 413.59375 279.789062 409.769531 279.78125 409.511719 277.203125 C 409.21875 274.339844 408.207031 271.9375 405.625 271.9375 C 399.257812 271.9375 396.710938 281.480469 397.984375 285.296875 C 399.257812 289.117188 401.804688 299.296875 401.167969 305.65625 C 400.53125 312.019531 406.898438 326.65625 411.355469 330.472656 C 415.816406 334.292969 449.5625 329.199219 448.289062 301.203125 Z M 448.289062 301.203125 " fill-opacity="1" fill-rule="nonzero"/><path fill="#fa9452" d="M 450.199219 441.824219 C 450.199219 442.816406 447.769531 445.71875 445.902344 448.175781 C 440.898438 444.574219 436.433594 441.25 434.371094 439.695312 C 437.53125 438.085938 440.015625 436.730469 440.015625 436.730469 C 440.015625 436.730469 450.199219 439.914062 450.199219 441.824219 Z M 450.199219 441.824219 " fill-opacity="1" fill-rule="nonzero"/><path fill="#e0601b" d="M 402.015625 579.472656 L 375.738281 592.597656 C 369.921875 593.644531 365.296875 593.644531 362.546875 591.351562 C 356.75 586.53125 348.222656 570.210938 342.402344 555.613281 L 346.832031 537.902344 C 346.832031 537.902344 358.71875 566.746094 364.664062 568.449219 C 370.609375 570.144531 386.734375 537.054688 389.289062 534.503906 C 391.832031 531.964844 382.164062 569.738281 383.179688 575.453125 C 384.195312 581.164062 402.015625 579.472656 402.015625 579.472656 Z M 402.015625 579.472656 " fill-opacity="0.69" fill-rule="nonzero"/><path fill="#fa9452" d="M 461.992188 449.191406 C 460.464844 450.636719 457.703125 452.8125 455.269531 454.738281 C 453.082031 453.261719 448.144531 449.769531 445.894531 448.167969 C 447.308594 446.46875 447.25 442.664062 449.703125 441.328125 Z M 461.992188 449.191406 " fill-opacity="1" fill-rule="nonzero"/><path fill="#fa9452" d="M 466.757812 458.363281 C 466.324219 458.792969 465.410156 459.507812 464.195312 460.378906 C 462.378906 459.402344 459.957031 457.878906 457.273438 456.09375 C 460.066406 454.773438 462.890625 453.585938 464.207031 453.910156 C 466.757812 454.550781 468.660156 456.460938 466.757812 458.363281 Z M 466.757812 458.363281 " fill-opacity="1" fill-rule="nonzero"/><path fill="#fa9452" d="M 455.292969 447.546875 C 455.292969 447.546875 447.441406 455.183594 445.742188 454.335938 C 444.042969 453.488281 455.292969 447.546875 455.292969 447.546875 Z M 455.292969 447.546875 " fill-opacity="1" fill-rule="nonzero"/><path fill="#ded4c2" d="M 335.945312 325.15625 L 320.378906 328.359375 L 316.121094 324.21875 L 320.890625 321.757812 L 313.054688 319.457031 L 306.046875 311.453125 L 313.546875 311.054688 L 303.28125 306.390625 L 300.800781 300.421875 L 314.054688 303.847656 Z M 335.945312 325.15625 " fill-opacity="1" fill-rule="nonzero"/><path fill="#ded4c2" d="M 336.242188 324.851562 L 339.039062 309.21875 L 334.78125 305.074219 L 332.441406 309.902344 L 329.9375 302.140625 L 321.742188 295.347656 L 321.542969 302.847656 L 316.605469 292.714844 L 310.570312 290.394531 L 314.347656 303.542969 Z M 336.242188 324.851562 " fill-opacity="1" fill-rule="nonzero"/><path fill="#ffdc8c" d="M 484.945312 469.878906 C 484.457031 470.382812 483.648438 470.394531 483.144531 469.902344 L 311.640625 302.980469 C 311.136719 302.488281 311.125 301.683594 311.617188 301.179688 C 312.105469 300.675781 312.914062 300.667969 313.417969 301.15625 L 484.921875 468.078125 C 485.425781 468.570312 485.4375 469.375 484.945312 469.878906 Z M 484.945312 469.878906 " fill-opacity="1" fill-rule="nonzero"/><path fill="#f56e25" d="M 504.09375 488.203125 C 504.09375 488.214844 504.097656 488.222656 504.097656 488.222656 C 504.097656 488.222656 480.128906 476.347656 479.515625 475.75 C 478.90625 475.160156 475.574219 464.808594 475.574219 464.808594 C 475.574219 464.808594 467.355469 463.511719 465.488281 458.9375 C 463.628906 454.367188 471.050781 455.664062 471.050781 455.664062 L 471.03125 455.632812 C 470.808594 455.21875 468.796875 451.234375 472.578125 450.042969 C 476.558594 448.792969 479.125 461.160156 479.125 461.160156 C 479.125 461.160156 489.171875 464.222656 490.375 464.609375 C 491.574219 464.988281 503.726562 487.519531 504.09375 488.203125 Z M 504.09375 488.203125 " fill-opacity="1" fill-rule="nonzero"/><path fill="#f56e25" d="M 504.09375 488.203125 C 504.09375 488.214844 504.097656 488.222656 504.097656 488.222656 L 489.757812 470.71875 L 477.046875 462.484375 C 477.046875 462.484375 476.023438 453.199219 473.605469 452.628906 C 471.199219 452.0625 471.050781 455.660156 471.050781 455.660156 L 471.03125 455.632812 C 470.808594 455.214844 468.796875 451.230469 472.578125 450.039062 C 476.558594 448.789062 479.125 461.15625 479.125 461.15625 C 479.125 461.15625 489.171875 464.222656 490.375 464.605469 C 491.574219 464.988281 503.726562 487.519531 504.09375 488.203125 Z M 504.09375 488.203125 " fill-opacity="0.47" fill-rule="nonzero"/><path fill="#ded4c2" d="M 327.3125 341.726562 L 312.546875 347.601562 L 307.628906 344.265625 L 311.894531 341.007812 L 303.78125 340.117188 L 295.476562 333.460938 L 302.789062 331.753906 L 291.863281 328.960938 L 288.378906 323.519531 L 302.023438 324.574219 Z M 327.3125 341.726562 " fill-opacity="1" fill-rule="nonzero"/><path fill="#ded4c2" d="M 327.550781 341.375 L 327.566406 325.492188 L 322.648438 322.15625 L 321.191406 327.320312 L 317.367188 320.109375 L 308.109375 314.859375 L 309.226562 322.28125 L 302.589844 313.164062 L 296.242188 311.933594 L 302.265625 324.222656 Z M 327.550781 341.375 " fill-opacity="1" fill-rule="nonzero"/><path fill="#ffdc8c" d="M 499.359375 458.15625 C 498.964844 458.734375 498.171875 458.886719 497.589844 458.492188 L 299.496094 324.140625 C 298.914062 323.746094 298.765625 322.953125 299.160156 322.375 C 299.550781 321.792969 300.347656 321.640625 300.925781 322.035156 L 499.019531 456.386719 C 499.605469 456.78125 499.757812 457.574219 499.359375 458.15625 Z M 499.359375 458.15625 " fill-opacity="1" fill-rule="nonzero"/><path fill="#f56e25" d="M 521.421875 472.847656 C 521.421875 472.859375 521.429688 472.863281 521.429688 472.863281 C 521.429688 472.863281 495.746094 465.363281 495.039062 464.882812 C 494.339844 464.40625 489.242188 454.796875 489.242188 454.796875 C 489.242188 454.796875 480.925781 454.960938 478.289062 450.78125 C 475.65625 446.605469 483.1875 446.585938 483.1875 446.585938 L 483.164062 446.558594 C 482.871094 446.191406 480.191406 442.617188 483.707031 440.785156 C 487.410156 438.855469 492.101562 450.582031 492.101562 450.582031 C 492.101562 450.582031 502.53125 451.84375 503.78125 452.011719 C 505.027344 452.179688 520.9375 472.238281 521.421875 472.847656 Z M 521.421875 472.847656 " fill-opacity="1" fill-rule="nonzero"/><path fill="#f56e25" d="M 521.421875 472.847656 C 521.421875 472.859375 521.429688 472.863281 521.429688 472.863281 L 504.246094 458.136719 L 490.289062 452.253906 C 490.289062 452.253906 487.65625 443.289062 485.175781 443.152344 C 482.707031 443.015625 483.1875 446.585938 483.1875 446.585938 L 483.164062 446.558594 C 482.871094 446.191406 480.195312 442.617188 483.710938 440.785156 C 487.410156 438.855469 492.105469 450.582031 492.105469 450.582031 C 492.105469 450.582031 502.53125 451.84375 503.785156 452.011719 C 505.027344 452.179688 520.9375 472.238281 521.421875 472.847656 Z M 521.421875 472.847656 " fill-opacity="0.47" fill-rule="nonzero"/><path fill="#ded4c2" d="M 373.871094 326.402344 L 358.152344 328.75 L 354.128906 324.382812 L 359.023438 322.183594 L 351.328125 319.460938 L 344.765625 311.082031 L 352.277344 311.09375 L 342.277344 305.878906 L 340.128906 299.785156 L 353.175781 303.925781 Z M 373.871094 326.402344 " fill-opacity="1" fill-rule="nonzero"/><path fill="#ded4c2" d="M 374.183594 326.113281 L 377.828125 310.65625 L 373.804688 306.285156 L 371.207031 310.980469 L 369.132812 303.089844 L 361.316406 295.859375 L 360.707031 303.339844 L 356.332031 292.953125 L 350.433594 290.304688 L 353.484375 303.640625 Z M 374.183594 326.113281 " fill-opacity="1" fill-rule="nonzero"/><path fill="#ffdc8c" d="M 514.738281 479.039062 C 514.222656 479.515625 513.414062 479.480469 512.941406 478.964844 L 350.8125 302.929688 C 350.335938 302.414062 350.367188 301.605469 350.886719 301.132812 C 351.402344 300.65625 352.210938 300.691406 352.683594 301.207031 L 514.8125 477.242188 C 515.289062 477.757812 515.253906 478.5625 514.738281 479.039062 Z M 514.738281 479.039062 " fill-opacity="1" fill-rule="nonzero"/><path fill="#f56e25" d="M 532.855469 498.382812 C 532.855469 498.394531 532.859375 498.402344 532.859375 498.402344 C 532.859375 498.402344 509.574219 485.238281 508.992188 484.609375 C 508.417969 483.984375 505.65625 473.464844 505.65625 473.464844 C 505.65625 473.464844 497.519531 471.722656 495.90625 467.050781 C 494.300781 462.386719 501.636719 464.085938 501.636719 464.085938 L 501.621094 464.054688 C 501.421875 463.628906 499.632812 459.542969 503.472656 458.558594 C 507.515625 457.527344 509.402344 470.015625 509.402344 470.015625 C 509.402344 470.015625 519.265625 473.625 520.449219 474.070312 C 521.621094 474.515625 532.523438 497.679688 532.855469 498.382812 Z M 532.855469 498.382812 " fill-opacity="1" fill-rule="nonzero"/><path fill="#f56e25" d="M 532.855469 498.382812 C 532.855469 498.394531 532.859375 498.402344 532.859375 498.402344 L 519.496094 480.140625 L 507.253906 471.222656 C 507.253906 471.222656 506.738281 461.894531 504.355469 461.199219 C 501.988281 460.5 501.636719 464.082031 501.636719 464.082031 L 501.621094 464.054688 C 501.421875 463.628906 499.632812 459.539062 503.472656 458.554688 C 507.515625 457.523438 509.402344 470.015625 509.402344 470.015625 C 509.402344 470.015625 519.265625 473.621094 520.449219 474.070312 C 521.621094 474.515625 532.523438 497.679688 532.855469 498.382812 Z M 532.855469 498.382812 " fill-opacity="0.47" fill-rule="nonzero"/><path fill="#e0601b" d="M 509.417969 590.503906 C 508.5625 599.832031 493.28125 646.496094 488.1875 655.832031 C 483.097656 665.160156 473.753906 671.949219 473.753906 671.949219 L 476.308594 649.042969 C 476.308594 649.042969 462.722656 595.597656 435.550781 586.261719 C 408.382812 576.933594 372.730469 599.835938 362.546875 591.351562 C 352.355469 582.871094 333.675781 538.753906 336.226562 531.121094 C 337.707031 526.667969 343.816406 515.578125 350.492188 504.585938 C 349.863281 514.195312 349.097656 528.816406 350.234375 536.210938 C 351.929688 547.234375 363.820312 583.71875 367.210938 586.261719 C 370.609375 588.8125 374.851562 583.71875 388.433594 578.625 C 402.015625 573.53125 436.828125 571.839844 444.46875 575.238281 C 452.109375 578.625 462.300781 595.597656 465.691406 598.140625 C 469.089844 600.679688 473.332031 597.292969 472.480469 593.046875 C 471.636719 588.8125 458.050781 565.050781 452.953125 559.957031 C 447.859375 554.867188 411.355469 549.78125 418.996094 550.628906 C 426.636719 551.476562 451.257812 550.628906 458.898438 553.171875 C 466.539062 555.722656 484.371094 576.929688 486.914062 572.6875 C 489.464844 568.449219 480.96875 548.078125 477.578125 542.996094 C 475.597656 540.03125 470.15625 535.332031 465.964844 531.941406 C 473.199219 533.59375 478.882812 535.566406 481.394531 538.753906 C 490.738281 550.628906 510.265625 581.164062 509.417969 590.503906 Z M 509.417969 590.503906 " fill-opacity="0.74" fill-rule="nonzero"/><path fill="#fa9452" d="M 448.289062 442.457031 C 448.289062 442.457031 441.921875 449.671875 439.800781 449.035156 C 437.675781 448.398438 448.289062 442.457031 448.289062 442.457031 Z M 448.289062 442.457031 " fill-opacity="1" fill-rule="nonzero"/><path fill="#c2a27e" d="M 582 519.210938 C 581.769531 519.210938 581.539062 519.148438 581.332031 519.015625 L 276.550781 325.585938 C 275.972656 325.21875 275.796875 324.449219 276.167969 323.867188 C 276.535156 323.285156 277.304688 323.113281 277.890625 323.484375 L 582.667969 516.914062 C 583.25 517.285156 583.421875 518.054688 583.050781 518.632812 C 582.816406 519.007812 582.414062 519.210938 582 519.210938 Z M 582 519.210938 " fill-opacity="1" fill-rule="nonzero"/><path fill="#edad1a" d="M 596.800781 514.875 C 578.734375 524.726562 553.347656 517.382812 540.921875 500.851562 C 536.046875 493.011719 530.894531 485.027344 525.199219 477.492188 C 524.117188 476.070312 523.019531 474.660156 521.90625 473.273438 C 520.976562 472.109375 520.03125 470.972656 519.074219 469.839844 C 518.050781 468.644531 517.011719 467.46875 515.957031 466.304688 C 510.253906 460.039062 503.988281 454.359375 496.992188 449.695312 C 477.476562 434.941406 454.554688 448.933594 432.742188 448.757812 C 401.570312 449.722656 387.78125 424.867188 381.867188 398.117188 C 377.84375 381.347656 369.753906 382.933594 355.65625 379.441406 C 352.117188 378.480469 348.425781 377.550781 344.667969 376.585938 C 343.3125 376.238281 341.941406 375.886719 340.570312 375.53125 C 338.566406 375.007812 336.554688 374.476562 334.535156 373.914062 C 333.105469 373.523438 331.675781 373.125 330.246094 372.699219 C 310.132812 366.828125 290.414062 358.292969 281.085938 339.222656 C 277.21875 329.546875 274.460938 318.421875 275.855469 307.949219 C 275.996094 306.894531 277.535156 306.984375 277.542969 308.046875 C 277.632812 317.609375 280.984375 327.152344 285.480469 335.617188 C 286.207031 336.988281 286.960938 338.324219 287.734375 339.628906 C 294.800781 349.582031 306.679688 354.507812 317.925781 358.4375 C 323.230469 360.222656 328.625 361.695312 334.078125 362.992188 C 335.75 363.390625 337.4375 363.769531 339.125 364.136719 C 340.84375 364.511719 342.574219 364.878906 344.304688 365.226562 C 345.949219 365.558594 347.605469 365.882812 349.25 366.199219 C 357.40625 367.761719 365.609375 369.179688 373.75 370.839844 C 376.042969 371.324219 378.261719 372.054688 380.339844 373.207031 C 396.273438 382.902344 395.144531 404.574219 403.921875 418.878906 C 426.726562 456.054688 472.804688 411.726562 504.003906 439.472656 C 511.277344 444.789062 517.601562 450.941406 523.230469 457.65625 C 523.96875 458.546875 524.707031 459.441406 525.425781 460.347656 C 526.640625 461.875 527.828125 463.429688 528.972656 465.007812 C 529.9375 466.320312 530.867188 467.652344 531.792969 468.988281 C 537.703125 477.628906 542.808594 486.867188 547.550781 496.230469 C 549.140625 498.6875 551.019531 500.964844 553.113281 503.007812 C 564.203125 513.890625 581.527344 518.722656 596.082031 513.339844 C 597.074219 512.972656 597.730469 514.367188 596.800781 514.875 Z M 596.800781 514.875 " fill-opacity="1" fill-rule="nonzero"/><path fill="#d4980f" d="M 339.125 364.136719 C 337.128906 366.828125 335.515625 369.585938 334.667969 373.105469 C 334.609375 373.347656 334.570312 373.621094 334.535156 373.914062 C 333.105469 373.523438 331.675781 373.125 330.246094 372.699219 C 330.789062 369.292969 332.160156 365.894531 334.078125 362.988281 C 335.75 363.386719 337.4375 363.769531 339.125 364.136719 Z M 339.125 364.136719 " fill-opacity="1" fill-rule="nonzero"/><path fill="#d4980f" d="M 349.25 366.195312 C 348.144531 367.566406 347.230469 369.09375 346.464844 370.679688 C 345.527344 372.625 345.042969 374.59375 344.671875 376.589844 C 343.316406 376.238281 341.941406 375.890625 340.574219 375.535156 C 340.957031 373.265625 341.695312 371.046875 342.511719 369.105469 C 342.984375 367.957031 343.574219 366.578125 344.304688 365.226562 C 345.949219 365.558594 347.605469 365.878906 349.25 366.195312 Z M 349.25 366.195312 " fill-opacity="1" fill-rule="nonzero"/><path fill="#d4980f" d="M 525.425781 460.347656 C 525.074219 461.164062 524.710938 461.941406 524.351562 462.683594 C 523.054688 465.359375 521.332031 467.925781 519.074219 469.84375 C 518.050781 468.648438 517.011719 467.46875 515.957031 466.304688 C 518.472656 464.503906 520.503906 462.351562 522.207031 459.542969 C 522.574219 458.9375 522.914062 458.304688 523.230469 457.660156 C 523.96875 458.546875 524.707031 459.441406 525.425781 460.347656 Z M 525.425781 460.347656 " fill-opacity="1" fill-rule="nonzero"/><path fill="#d4980f" d="M 531.792969 468.988281 C 531.484375 469.632812 531.167969 470.242188 530.871094 470.789062 C 529.503906 473.296875 527.578125 475.734375 525.199219 477.492188 C 524.117188 476.070312 523.019531 474.660156 521.90625 473.273438 C 524.683594 471.746094 526.746094 469.492188 528.367188 466.355469 C 528.582031 465.929688 528.785156 465.472656 528.976562 465.007812 C 529.9375 466.320312 530.871094 467.652344 531.792969 468.988281 Z M 531.792969 468.988281 " fill-opacity="1" fill-rule="nonzero"/><path fill="#edad1a" d="M 596.800781 514.875 C 578.734375 524.726562 553.347656 517.382812 540.921875 500.851562 C 529.160156 481.894531 515.726562 462.183594 496.996094 449.695312 C 477.476562 434.941406 454.558594 448.933594 432.746094 448.757812 C 401.570312 449.722656 387.78125 424.867188 381.871094 398.117188 C 377.847656 381.347656 369.757812 382.933594 355.660156 379.441406 C 329.023438 372.214844 294.425781 366.5 281.085938 339.21875 C 277.21875 329.542969 274.460938 318.417969 275.855469 307.945312 C 275.996094 306.890625 277.535156 306.980469 277.542969 308.042969 C 277.632812 317.605469 280.984375 327.148438 285.480469 335.617188 C 284.792969 336.28125 284.226562 337.277344 284.226562 338.746094 C 284.226562 342.558594 305.875 366.101562 331.976562 368.648438 C 358.085938 371.191406 380.375 378.1875 384.832031 385.191406 C 389.289062 392.195312 390.558594 427.820312 409.660156 439.277344 C 428.765625 450.722656 472.699219 434.183594 487.34375 437.367188 C 501.992188 440.546875 533.191406 470.453125 538.285156 486.992188 C 540.722656 494.925781 547.113281 499.933594 553.117188 503 C 564.207031 513.882812 581.527344 518.714844 596.085938 513.332031 C 597.074219 512.972656 597.730469 514.367188 596.800781 514.875 Z M 596.800781 514.875 " fill-opacity="0.53" fill-rule="nonzero"/><path fill="#ffc29b" d="M 512.601562 438.003906 C 511.964844 452 504.953125 470.457031 500.5 474.910156 C 496.875 478.535156 455.675781 451.367188 438.085938 438.75 C 438.078125 438.75 438.070312 438.734375 438.070312 438.734375 C 434.074219 435.859375 431.296875 433.742188 430.464844 432.921875 C 429.824219 432.28125 429.175781 431.691406 428.519531 431.167969 C 424.613281 427.972656 420.640625 426.648438 419.003906 427.1875 C 417.089844 427.828125 404.148438 443.738281 403.015625 445.429688 C 401.875 447.125 398.769531 452.78125 397.636719 453.628906 C 396.507812 454.476562 393.953125 454.757812 393.105469 454.191406 C 392.257812 453.628906 396.785156 444.863281 396.785156 443.734375 C 396.785156 442.605469 388.292969 453.0625 387.445312 454.476562 C 386.597656 455.898438 385.183594 460.695312 384.617188 461.828125 C 384.050781 462.96875 380.9375 464.097656 379.804688 464.097656 C 378.675781 464.097656 381.214844 454.476562 381.5 453.347656 C 381.78125 452.21875 387.429688 443.769531 388 442.332031 C 388.007812 442.324219 388.007812 442.324219 388.007812 442.324219 C 388.574219 440.902344 379.519531 451.085938 378.390625 452.5 C 377.269531 453.902344 375.296875 457.832031 374.4375 458.707031 C 374.425781 458.714844 374.425781 458.722656 374.425781 458.722656 C 373.582031 459.566406 371.320312 459.851562 370.1875 459.566406 C 369.050781 459.285156 372.734375 451.085938 373.582031 449.109375 C 373.582031 449.109375 371.035156 438.640625 371.601562 435.816406 C 372.164062 432.984375 381.5 428.171875 382.921875 427.042969 C 384.335938 425.914062 409.242188 409.800781 414.328125 408.378906 C 415.5 408.054688 419.351562 409.175781 424.605469 411.070312 C 437.03125 415.546875 457.339844 424.359375 468.90625 428.648438 C 471.382812 429.558594 473.460938 430.265625 474.972656 430.679688 C 476.351562 431.054688 477.265625 431.1875 477.582031 431.007812 C 477.976562 430.78125 478.289062 429.894531 478.539062 428.523438 C 479.039062 425.839844 479.3125 421.292969 479.445312 416.210938 C 479.527344 413.007812 479.554688 409.574219 479.554688 406.269531 C 488.925781 376.769531 486.304688 342.277344 485.75 336.109375 C 485.742188 336.082031 485.742188 336.066406 485.742188 336.066406 C 492.351562 336.894531 501.777344 339.128906 504.960938 345.101562 C 510.054688 354.648438 508.144531 378.832031 509.425781 389.648438 C 510.691406 400.464844 513.234375 424.003906 512.601562 438.003906 Z M 512.601562 438.003906 " fill-opacity="1" fill-rule="nonzero"/><path fill="#e05e2b" d="M 452.4375 285.027344 C 450.683594 285.515625 449.285156 287.496094 448.351562 288.960938 C 447.109375 290.90625 446.277344 293.125 445.925781 295.402344 C 445.792969 296.285156 447.140625 296.527344 447.292969 295.644531 C 447.664062 293.5625 448.265625 291.609375 449.304688 289.765625 C 450.222656 288.136719 451.800781 286.816406 452.546875 285.144531 C 452.578125 285.074219 452.511719 285.007812 452.4375 285.027344 Z M 452.4375 285.027344 " fill-opacity="1" fill-rule="nonzero"/><path fill="#e05e2b" d="M 455.394531 289.015625 C 452.570312 287.84375 448.992188 289.839844 447.023438 291.78125 C 446.429688 292.359375 447.433594 293.21875 448.011719 292.617188 C 449.050781 291.53125 450.269531 290.695312 451.6875 290.175781 C 452.894531 289.734375 454.167969 289.652344 455.382812 289.277344 C 455.496094 289.242188 455.503906 289.0625 455.394531 289.015625 Z M 455.394531 289.015625 " fill-opacity="1" fill-rule="nonzero"/><path fill="#4f1e20" d="M 400.640625 300.050781 C 400.835938 302.121094 401.910156 303.71875 403.035156 303.609375 C 404.164062 303.503906 404.921875 301.738281 404.722656 299.664062 C 404.527344 297.589844 403.453125 295.996094 402.324219 296.101562 C 401.199219 296.207031 400.445312 297.976562 400.640625 300.050781 Z M 400.640625 300.050781 " fill-opacity="1" fill-rule="nonzero"/><path fill="#4f1e20" d="M 404.382812 300.113281 C 405.285156 298.03125 403.625 295.855469 402.128906 294.582031 C 401.957031 294.433594 401.691406 294.46875 401.503906 294.550781 C 401.460938 294.566406 401.414062 294.589844 401.371094 294.605469 C 401.257812 294.65625 401.167969 294.800781 401.167969 294.921875 C 401.179688 295.394531 401.34375 295.5 401.703125 295.769531 C 402.199219 296.136719 402.609375 296.574219 402.960938 297.082031 C 403.609375 298.019531 403.867188 299.082031 404.296875 300.121094 C 404.3125 300.160156 404.367188 300.148438 404.382812 300.113281 Z M 404.382812 300.113281 " fill-opacity="1" fill-rule="nonzero"/><path fill="#f5833b" d="M 478.636719 335.507812 C 478.269531 336.613281 477.671875 337.570312 476.730469 338.109375 C 473.753906 339.804688 442.347656 338.109375 445.316406 336.839844 C 448.285156 335.558594 456.355469 333.867188 456.355469 332.171875 C 456.355469 330.476562 455.933594 322.84375 455.933594 322.84375 C 458.441406 327.859375 472.765625 334.128906 478.636719 335.507812 Z M 478.636719 335.507812 " fill-opacity="0.35" fill-rule="nonzero"/><path fill="#cf9229" d="M 428.277344 288.765625 C 427.363281 285.085938 421.855469 284.382812 418.773438 284.921875 C 416.898438 285.25 417.09375 288.445312 419.054688 288.320312 C 420.785156 288.214844 422.371094 288.253906 424.09375 288.480469 C 425.476562 288.660156 426.832031 289.046875 428.226562 288.839844 C 428.257812 288.832031 428.285156 288.792969 428.277344 288.765625 Z M 428.277344 288.765625 " fill-opacity="1" fill-rule="nonzero"/><path fill="#cf9229" d="M 396.71875 289.160156 C 397.007812 288.949219 397.730469 289.121094 398.109375 289.042969 C 398.5 288.964844 398.890625 288.890625 399.28125 288.824219 C 400.011719 288.6875 400.71875 288.710938 401.457031 288.675781 C 403.53125 288.578125 403.71875 285.632812 401.601562 285.421875 C 400.371094 285.296875 399.121094 285.757812 398.128906 286.453125 C 397.710938 286.746094 397.277344 287.183594 397.003906 287.621094 C 396.671875 288.15625 396.972656 288.613281 396.6875 289.132812 C 396.675781 289.15625 396.699219 289.175781 396.71875 289.160156 Z M 396.71875 289.160156 " fill-opacity="1" fill-rule="nonzero"/><path fill="#e05e2b" d="M 408.410156 300.164062 C 408.816406 300.941406 408.507812 302.378906 408.328125 303.191406 C 408 304.664062 407.253906 305.648438 406.34375 306.796875 C 405.582031 307.753906 405.296875 308.652344 405.773438 309.820312 C 406.730469 312.167969 410.195312 313.296875 412.015625 311.257812 C 412.390625 310.835938 411.992188 310.234375 411.453125 310.449219 C 408.925781 311.472656 405.691406 310.734375 407.585938 307.097656 C 408.152344 306.015625 408.816406 305.285156 409.117188 304.0625 C 409.375 303.035156 409.828125 300.519531 408.464844 300.09375 C 408.429688 300.082031 408.390625 300.125 408.410156 300.164062 Z M 408.410156 300.164062 " fill-opacity="1" fill-rule="nonzero"/><path fill="#f5833b" d="M 479.445312 416.210938 C 479.527344 413.007812 479.550781 409.574219 479.550781 406.269531 C 488.921875 376.769531 486.304688 342.277344 485.746094 336.109375 C 486.035156 337.671875 494.496094 384.121094 479.445312 416.210938 Z M 479.445312 416.210938 " fill-opacity="0.35" fill-rule="nonzero"/><path fill="#e05e2b" d="M 426.984375 311.210938 C 425.277344 312.523438 423.808594 313.964844 421.773438 314.804688 C 420.710938 315.246094 419.609375 315.519531 418.464844 315.636719 C 417.980469 315.683594 417.296875 315.558594 416.839844 315.785156 C 417.101562 315.957031 417.363281 316.121094 417.628906 316.292969 C 417.628906 316.261719 417.636719 316.230469 417.636719 316.199219 C 417.480469 316.339844 417.324219 316.484375 417.164062 316.625 C 417.183594 316.628906 417.210938 316.632812 417.230469 316.632812 C 417.433594 316.65625 417.628906 316.46875 417.636719 316.269531 C 417.636719 316.246094 417.636719 316.222656 417.636719 316.199219 C 417.644531 315.964844 417.460938 315.730469 417.210938 315.726562 C 417.179688 315.726562 417.148438 315.726562 417.117188 315.722656 C 416.941406 315.722656 416.71875 315.796875 416.636719 315.964844 C 416.632812 315.976562 416.625 315.988281 416.621094 315.996094 C 416.441406 316.363281 416.5 316.925781 416.984375 317.042969 C 420.578125 317.910156 425.992188 314.734375 427.199219 311.351562 C 427.25 311.21875 427.085938 311.136719 426.984375 311.210938 Z M 426.984375 311.210938 " fill-opacity="1" fill-rule="nonzero"/><path fill="#4f1e20" d="M 421.007812 300.566406 C 421.222656 302.839844 422.398438 304.585938 423.636719 304.472656 C 424.871094 304.355469 425.695312 302.417969 425.484375 300.144531 C 425.269531 297.875 424.09375 296.125 422.855469 296.242188 C 421.621094 296.359375 420.792969 298.292969 421.007812 300.566406 Z M 421.007812 300.566406 " fill-opacity="1" fill-rule="nonzero"/><path fill="#4f1e20" d="M 422.496094 294.5 C 423.664062 294.984375 424.390625 296.144531 424.847656 297.28125 C 425.203125 298.167969 425.894531 299.78125 425.15625 300.601562 C 425.03125 300.742188 424.796875 300.746094 424.640625 300.660156 C 423.871094 300.214844 423.929688 298.964844 423.703125 298.191406 C 423.355469 296.988281 422.605469 296.199219 421.964844 295.167969 C 421.765625 294.84375 422.121094 294.339844 422.496094 294.5 Z M 422.496094 294.5 " fill-opacity="1" fill-rule="nonzero"/><path fill="#ffbd4d" d="M 415.175781 241.175781 C 411.933594 244.949219 415.316406 247.273438 414.804688 250.703125 C 414.335938 253.792969 413.023438 252.53125 411.363281 253.691406 C 410.671875 254.175781 409.722656 253.5 408.917969 254.207031 C 407.96875 255.027344 408.867188 256.324219 408.179688 257.089844 C 404.835938 260.769531 403.023438 257.453125 398.203125 257.074219 C 390.496094 256.464844 381.785156 265.488281 389.277344 272.042969 C 391.554688 274.027344 398.761719 274.027344 393.308594 276.585938 C 390.839844 277.75 388.003906 277.078125 385.433594 275.867188 C 385.34375 275.699219 385.234375 275.550781 385.109375 275.40625 C 382.417969 272.476562 376.621094 264.464844 383.347656 255.386719 C 389.75 246.757812 400.253906 248.011719 405.035156 249.152344 C 406.289062 249.449219 407.511719 248.617188 407.742188 247.347656 C 408.175781 244.929688 409.496094 241.449219 413.480469 240.121094 C 414.609375 239.75 415.691406 239.707031 416.722656 239.890625 C 416.15625 240.210938 415.625 240.652344 415.175781 241.175781 Z M 415.175781 241.175781 " fill-opacity="1" fill-rule="nonzero"/><path fill="#fa9a5d" d="M 373.582031 449.105469 C 373.582031 449.105469 376.796875 441.445312 377.402344 440.621094 C 378.460938 439.171875 384.476562 434.117188 384.476562 434.117188 C 384.476562 434.117188 377.71875 437.582031 376.765625 438.644531 C 376.164062 439.304688 374.003906 447.125 373.582031 449.105469 Z M 373.582031 449.105469 " fill-opacity="1" fill-rule="nonzero"/><path fill="#fa9a5d" d="M 388.007812 442.324219 C 388.574219 440.902344 379.519531 451.085938 378.390625 452.5 C 377.269531 453.902344 375.296875 457.832031 374.4375 458.707031 C 374.660156 458.296875 378.265625 451.859375 378.675781 449.675781 C 379.097656 447.40625 389.289062 438.925781 390.417969 438.363281 C 391.550781 437.792969 388.007812 442.324219 388.007812 442.324219 Z M 388.007812 442.324219 " fill-opacity="1" fill-rule="nonzero"/><path fill="#fa9a5d" d="M 387.445312 454.476562 C 387.445312 454.476562 395.511719 442.035156 397.492188 440.339844 C 399.476562 438.644531 396.785156 443.734375 396.785156 443.734375 C 396.785156 443.734375 387.871094 453.628906 387.445312 454.476562 Z M 387.445312 454.476562 " fill-opacity="1" fill-rule="nonzero"/><path fill="#f5833b" d="M 495.835938 450.523438 C 495.835938 456.691406 492.234375 445.304688 474.96875 430.683594 C 476.351562 431.054688 477.265625 431.191406 477.582031 431.007812 C 477.972656 430.785156 478.289062 429.894531 478.539062 428.523438 C 481.496094 431.257812 495.835938 444.816406 495.835938 450.523438 Z M 495.835938 450.523438 " fill-opacity="0.35" fill-rule="nonzero"/><path fill="#e8925a" d="M 380.835938 394.113281 C 380.515625 395.238281 381.898438 396.621094 383.925781 397.203125 C 385.957031 397.78125 387.863281 397.335938 388.183594 396.210938 C 388.507812 395.085938 387.125 393.703125 385.09375 393.125 C 383.0625 392.542969 381.160156 392.988281 380.835938 394.113281 Z M 380.835938 394.113281 " fill-opacity="1" fill-rule="nonzero"/><path fill="#fa9452" d="M 372.308594 422.523438 C 372.308594 422.523438 366.789062 420.398438 360.847656 422.945312 C 354.902344 425.488281 355.328125 423.367188 360.847656 419.976562 C 366.363281 416.585938 374.007812 418.28125 374.007812 418.28125 Z M 372.308594 422.523438 " fill-opacity="1" fill-rule="nonzero"/><path fill="#f5833b" d="M 448.210938 675.359375 C 447.804688 675.808594 447.402344 676.234375 447.015625 676.613281 C 445.976562 677.652344 442.226562 681.714844 436.894531 687.5625 C 416.128906 710.347656 371.367188 760.234375 369.335938 763.78125 C 369.039062 764.304688 368.796875 765.191406 368.589844 766.375 C 366.933594 765.367188 363.433594 763.277344 360.632812 761.878906 C 356.808594 759.96875 343.441406 775.238281 342.804688 782.871094 C 342.164062 790.507812 342.804688 808.964844 344.078125 810.867188 C 345.347656 812.777344 358.722656 814.046875 363.820312 813.417969 C 368.90625 812.777344 376.128906 813.410156 378.25 806.414062 C 381.433594 810.234375 382.066406 817.230469 379.519531 817.871094 C 376.976562 818.511719 346.410156 819.140625 343.867188 817.871094 C 341.316406 816.601562 337.5 808.964844 337.5 803.875 C 337.5 798.78125 340.046875 777.152344 340.046875 773.96875 C 340.046875 770.789062 336.230469 762.515625 338.132812 757.421875 C 340.046875 752.335938 357.238281 741.519531 359.789062 738.339844 C 362.332031 735.15625 388.433594 689.976562 393.53125 682.980469 C 398.628906 675.980469 413.90625 668.34375 416.457031 665.164062 C 418.992188 662.007812 422.785156 651.9375 421.570312 648.691406 C 422.152344 649.953125 431.394531 670.371094 433.855469 674.070312 C 435.808594 676.996094 443.757812 676.183594 448.210938 675.359375 Z M 448.210938 675.359375 " fill-opacity="0.25" fill-rule="nonzero"/><path fill="#f5833b" d="M 460.390625 872.585938 C 458.476562 873.855469 433.648438 876.40625 430.464844 873.855469 C 427.28125 871.3125 423.457031 860.496094 423.457031 856.046875 C 423.457031 851.59375 425.367188 838.230469 424.726562 833.773438 C 424.09375 829.320312 416.457031 814.683594 417.089844 809.59375 C 417.730469 804.507812 429.191406 796.234375 430.464844 793.683594 C 431.734375 791.140625 430.464844 719.242188 432.378906 706.515625 C 432.808594 703.632812 433.601562 700.070312 434.574219 696.214844 C 435.277344 693.433594 436.078125 690.492188 436.902344 687.5625 C 436.960938 687.363281 437.019531 687.160156 437.066406 686.960938 C 437.148438 721.890625 437.414062 783.140625 438.3125 793.050781 C 439.59375 807.050781 426.859375 814.042969 425.578125 817.867188 C 424.304688 821.6875 433.226562 833.132812 433.226562 840.136719 C 433.226562 847.132812 426.859375 863.679688 430.675781 866.859375 C 434.5 870.042969 451.691406 870.042969 455.507812 866.859375 C 456.96875 865.636719 458.050781 863.40625 458.839844 861.105469 C 459.1875 861.542969 459.496094 861.984375 459.753906 862.410156 C 461.660156 865.589844 462.300781 871.3125 460.390625 872.585938 Z M 460.390625 872.585938 " fill-opacity="0.35" fill-rule="nonzero"/></svg>