<svg xmlns="http://www.w3.org/2000/svg" xmlns:xlink="http://www.w3.org/1999/xlink" width="1080" zoomAndPan="magnify" viewBox="0 0 810 1012.49997" height="1350" preserveAspectRatio="xMidYMid meet" version="1.0"><defs><clipPath id="5ed95572c6"><path d="M 620 264 L 627.953125 264 L 627.953125 274 L 620 274 Z M 620 264 " clip-rule="nonzero"/></clipPath></defs><path fill="#9c3119" d="M 417.488281 90.136719 C 417.488281 90.136719 402.027344 98.683594 390.824219 104.785156 C 385.871094 107.492188 381.746094 109.714844 380.15625 110.515625 C 379.808594 110.6875 379.578125 110.800781 379.488281 110.828125 C 378.050781 111.316406 353.992188 119.972656 353.992188 119.972656 C 353.992188 119.972656 341.972656 120.933594 339.089844 116.601562 C 336.953125 113.402344 342.195312 98.082031 358.304688 89.164062 C 363.972656 86.023438 370.976562 83.671875 379.488281 82.925781 C 401.8125 80.949219 411.367188 85.035156 415.179688 87.816406 C 415.644531 88.160156 416.03125 88.484375 416.335938 88.765625 C 417.195312 89.582031 417.488281 90.136719 417.488281 90.136719 Z M 417.488281 90.136719 " fill-opacity="1" fill-rule="nonzero"/><path fill="#82240e" d="M 417.488281 90.136719 C 417.488281 90.136719 402.027344 98.683594 390.824219 104.785156 C 387.128906 106.570312 383.496094 108.492188 380.15625 110.515625 C 379.808594 110.6875 379.578125 110.800781 379.488281 110.828125 C 378.050781 111.316406 353.992188 119.972656 353.992188 119.972656 C 353.992188 119.972656 341.972656 120.933594 339.089844 116.601562 C 336.953125 113.402344 342.195312 98.082031 358.304688 89.164062 C 355.753906 93.414062 353.136719 99.238281 357.222656 100.097656 C 362.34375 101.179688 382.96875 90.023438 415.179688 87.816406 C 415.644531 88.160156 416.03125 88.484375 416.335938 88.765625 C 417.195312 89.582031 417.488281 90.136719 417.488281 90.136719 Z M 417.488281 90.136719 " fill-opacity="1" fill-rule="nonzero"/><path fill="#ffd8cc" d="M 423.257812 100.242188 C 424.359375 103.925781 389.515625 124.746094 373.019531 134.355469 C 367.917969 137.320312 364.582031 139.222656 364.582031 139.222656 C 364.582031 139.222656 353.996094 122.863281 353.996094 119.976562 C 353.996094 118.285156 361.394531 108.371094 375.90625 100.433594 C 386.21875 94.792969 400.113281 90.136719 417.492188 90.136719 C 417.488281 90.136719 421.808594 95.433594 423.257812 100.242188 Z M 423.257812 100.242188 " fill-opacity="1" fill-rule="nonzero"/><path fill="#f09a60" d="M 417 170.988281 L 416.953125 172.308594 L 416.058594 196.902344 L 415.5625 210.4375 L 400.167969 236.90625 C 400.167969 236.90625 395.980469 241.089844 390.503906 247.042969 C 386.800781 251.070312 382.5 255.902344 378.519531 260.800781 C 372.996094 267.59375 368.078125 274.511719 366.175781 279.523438 C 365.570312 281.113281 365.007812 283.167969 364.496094 285.558594 C 364.242188 282.1875 364.089844 279.765625 364.089844 279.019531 C 364.089844 276.113281 372.035156 264.324219 373.996094 252.316406 C 374.421875 249.773438 374.574219 247.222656 374.320312 244.742188 C 374.289062 244.378906 374.238281 244.015625 374.1875 243.648438 C 372.277344 230.8125 350.398438 233.949219 345.558594 234.800781 C 354.445312 226.214844 367.4375 215.898438 376.128906 208.839844 C 381.128906 204.769531 384.699219 201.773438 385.246094 200.824219 C 387.179688 197.453125 387.898438 155.59375 387.898438 155.59375 Z M 417 170.988281 " fill-opacity="1" fill-rule="nonzero"/><path fill="#f5b19c" d="M 395.457031 106.996094 L 373.019531 134.355469 C 367.917969 137.320312 364.582031 139.222656 364.582031 139.222656 C 364.582031 139.222656 353.996094 122.863281 353.996094 119.976562 C 353.996094 118.285156 361.394531 108.371094 375.90625 100.433594 C 374.652344 102.550781 373.957031 104.816406 374.449219 106.996094 C 376.167969 114.578125 395.457031 106.996094 395.457031 106.996094 Z M 395.457031 106.996094 " fill-opacity="1" fill-rule="nonzero"/><path fill="#bf5b17" d="M 416.953125 172.304688 L 416.058594 196.898438 C 399.988281 187.996094 395.109375 164.902344 395.109375 164.902344 C 396.042969 163.984375 408.683594 168.921875 416.953125 172.304688 Z M 416.953125 172.304688 " fill-opacity="1" fill-rule="nonzero"/><path fill="#9c3119" d="M 430.949219 129.121094 C 427.671875 130.761719 403.421875 150.230469 396.339844 155.941406 C 395.105469 156.933594 394.398438 157.511719 394.398438 157.511719 C 394.398438 157.511719 380.453125 174.351562 373.722656 177.238281 C 366.992188 180.121094 363.136719 168.578125 358.816406 173.390625 C 354.484375 178.203125 357.367188 183.019531 354.957031 185.417969 C 352.558594 187.828125 338.613281 194.5625 337.164062 189.265625 C 335.726562 183.980469 346.304688 179.648438 346.304688 176.273438 C 346.304688 173.628906 337.652344 163.210938 335.628906 155.144531 C 335.082031 152.96875 335.011719 150.960938 335.730469 149.332031 C 339.089844 141.636719 364.097656 140.664062 364.585938 139.226562 C 365.0625 137.777344 375.648438 115.167969 397.292969 103.617188 C 418.929688 92.078125 447.792969 101.695312 451.15625 105.066406 C 454.519531 108.425781 434.792969 127.199219 430.949219 129.121094 Z M 430.949219 129.121094 " fill-opacity="1" fill-rule="nonzero"/><path fill="#82240e" d="M 394.503906 125.453125 C 394.503906 125.453125 402.53125 106.730469 427.226562 103.597656 C 451.925781 100.46875 433.832031 117.195312 433.832031 117.195312 Z M 394.503906 125.453125 " fill-opacity="1" fill-rule="nonzero"/><path fill="#82240e" d="M 396.964844 152.671875 C 396.964844 152.671875 396.71875 153.96875 396.335938 155.941406 C 395.101562 156.933594 394.394531 157.511719 394.394531 157.511719 C 394.394531 157.511719 380.449219 174.351562 373.71875 177.238281 C 366.988281 180.121094 363.132812 168.578125 358.8125 173.390625 C 354.480469 178.203125 357.363281 183.019531 354.953125 185.417969 C 352.554688 187.828125 338.609375 194.5625 337.164062 189.265625 C 335.722656 183.980469 346.300781 179.648438 346.300781 176.273438 C 346.300781 173.628906 337.648438 163.210938 335.625 155.144531 C 340.238281 164.125 353.203125 165.664062 356.96875 165.898438 C 362.523438 166.246094 372.96875 167.984375 374.011719 163.800781 C 375.054688 159.628906 365.308594 154.0625 366.007812 150.234375 C 366.703125 146.410156 373.132812 140.027344 373.132812 140.027344 Z M 396.964844 152.671875 " fill-opacity="1" fill-rule="nonzero"/><path fill="#f09a60" d="M 387.90625 155.585938 C 387.90625 155.585938 366.503906 151.253906 373.238281 140.667969 C 379.972656 130.082031 388.148438 137.300781 388.148438 137.300781 C 388.148438 137.300781 393.917969 139.226562 396.324219 135.375 C 398.726562 131.523438 394.398438 126.230469 394.398438 126.230469 C 394.398438 126.230469 399.6875 115.644531 414.597656 112.753906 C 429.507812 109.867188 433.355469 118.046875 433.355469 118.046875 C 433.355469 118.046875 430.46875 129.113281 434.316406 136.332031 C 438.164062 143.550781 439.792969 149.8125 440.089844 154.617188 C 440.59375 162.832031 436.722656 177.234375 430.949219 181.082031 C 425.179688 184.9375 393.4375 185.898438 387.90625 155.585938 Z M 387.90625 155.585938 " fill-opacity="1" fill-rule="nonzero"/><path fill="#ffd8cc" d="M 450.046875 483.503906 C 448.03125 545.589844 439.417969 603.953125 437.203125 615.605469 C 437.203125 615.605469 437.171875 615.777344 437.109375 616.113281 C 433.234375 639.21875 425.664062 854.28125 425.664062 854.28125 C 425.664062 854.28125 408.613281 861.902344 390.992188 867.34375 C 379.917969 870.753906 368.636719 873.304688 361.207031 872.566406 C 355.085938 871.957031 350.625 870.5625 346.9375 868.820312 C 339.054688 865.09375 334.792969 859.789062 325.613281 857.167969 C 320.28125 855.648438 316.160156 856.085938 311.6875 856.875 C 304.867188 858.070312 297.246094 860.074219 283.292969 857.167969 C 275.125 855.464844 267.199219 850.988281 260.367188 845.917969 C 247.882812 836.667969 239.042969 825.40625 239.042969 825.40625 C 248.710938 770.496094 266.957031 715.039062 282.15625 673.820312 C 286.742188 661.398438 291.042969 650.269531 294.753906 640.832031 L 294.753906 640.824219 C 302.042969 622.304688 307.042969 610.316406 307.34375 607.90625 C 308.113281 601.738281 315.066406 487.285156 320.761719 436.210938 C 322.167969 423.585938 323.503906 414.839844 324.648438 412.550781 C 330.429688 401 369.378906 359.128906 369.378906 359.128906 C 369.378906 359.128906 413.152344 280.699219 438.644531 357.691406 C 442.785156 370.183594 445.636719 384.886719 447.511719 400.835938 C 450.507812 426.488281 450.957031 455.375 450.046875 483.503906 Z M 450.046875 483.503906 " fill-opacity="1" fill-rule="nonzero"/><path fill="#ffc9b7" d="M 450.046875 483.503906 C 439.964844 542.382812 414.5625 633.597656 352.488281 658.246094 C 328.917969 667.601562 309.949219 658.984375 294.761719 640.832031 L 294.761719 640.820312 C 302.046875 622.300781 307.046875 610.3125 307.351562 607.902344 C 308.121094 601.734375 315.070312 487.28125 320.769531 436.210938 L 324.574219 435.664062 C 324.574219 435.664062 316.050781 475.988281 347.828125 479.867188 C 379.617188 483.75 439.296875 372.0625 439.296875 372.0625 L 447.515625 400.832031 C 450.507812 426.488281 450.957031 455.375 450.046875 483.503906 Z M 450.046875 483.503906 " fill-opacity="1" fill-rule="nonzero"/><path fill="#f09a60" d="M 626.574219 271.765625 C 626.5625 271.835938 626.554688 271.90625 626.542969 271.988281 C 626.535156 272.039062 626.523438 272.089844 626.523438 272.140625 C 626.515625 272.179688 626.515625 272.222656 626.503906 272.261719 C 625.535156 278.628906 623.074219 287.207031 621.890625 288.390625 C 621.34375 288.945312 620.867188 289.3125 620.484375 289.554688 C 619.644531 290.074219 619.167969 290.03125 619.035156 290.011719 C 619.015625 290 619.007812 290 619.007812 290 C 619.007812 290 617.40625 291.921875 616.125 292.5625 C 614.835938 293.210938 613.5625 293.523438 613.5625 293.523438 L 613.554688 293.535156 C 613.441406 293.644531 612.53125 294.558594 611.398438 295.589844 C 610.082031 296.785156 608.472656 298.160156 607.472656 298.65625 C 606.8125 298.988281 606.199219 299.203125 605.660156 299.34375 C 604.636719 299.617188 603.941406 299.617188 603.941406 299.617188 C 603.941406 299.617188 602.980469 302.828125 600.730469 303.464844 C 598.492188 304.113281 571.160156 299.941406 566.828125 302.109375 C 562.496094 304.273438 511.996094 333.144531 488.195312 343.246094 C 464.382812 353.351562 452.84375 352.628906 450.675781 350.464844 C 449.828125 349.613281 440.191406 338.667969 428.765625 325.617188 C 410.894531 305.222656 388.628906 279.730469 388.628906 279.730469 L 378.53125 260.796875 L 374 252.3125 L 371.308594 247.253906 L 374.324219 244.738281 L 387.632812 233.671875 L 415.566406 210.433594 C 415.566406 210.433594 420.867188 212.480469 427.570312 214.859375 C 428.519531 215.207031 429.492188 215.546875 430.484375 215.894531 C 437.734375 218.425781 445.878906 221.078125 450.671875 221.988281 C 460.773438 223.914062 467.027344 245.085938 467.027344 254.714844 C 467.027344 264.332031 474.230469 310.535156 475.679688 312.933594 C 475.984375 313.441406 477.886719 313.289062 480.859375 312.699219 C 492.09375 310.460938 518.640625 301.917969 531.949219 298.496094 C 548.789062 294.171875 560.011719 290.960938 560.972656 290.640625 C 561.933594 290.324219 573.796875 275.238281 576.679688 272.675781 C 579.5625 270.105469 593.355469 269.144531 595.59375 268.503906 C 597.839844 267.867188 606.503906 264.980469 608.425781 265.292969 C 610.347656 265.617188 608.101562 271.710938 604.894531 273.960938 C 602.363281 275.722656 599.246094 276.097656 597.253906 277.128906 C 596.714844 277.390625 596.261719 277.714844 595.925781 278.121094 C 595.925781 278.128906 595.914062 278.128906 595.914062 278.128906 C 595.914062 278.128906 595.914062 278.128906 595.90625 278.140625 C 594.359375 280.050781 605.539062 280.691406 606.816406 280.363281 C 606.929688 280.335938 607.03125 280.28125 607.128906 280.214844 C 608.183594 279.484375 609.042969 276.558594 610.105469 275.445312 C 610.1875 275.363281 610.265625 275.292969 610.347656 275.230469 C 610.421875 275.183594 610.488281 275.128906 610.5625 275.089844 C 611.320312 274.65625 612.324219 274.664062 613.019531 274.757812 C 613.527344 274.816406 613.871094 274.917969 613.871094 274.917969 C 613.871094 274.917969 613.871094 274.878906 613.871094 274.808594 C 613.898438 274.261719 614.09375 271.839844 615.792969 270.425781 C 617.722656 268.824219 620.425781 270.546875 620.425781 270.546875 C 620.425781 270.546875 620.546875 270.3125 620.757812 269.925781 C 620.777344 269.886719 620.808594 269.84375 620.839844 269.796875 C 621.679688 268.328125 623.757812 265.207031 625.941406 265.207031 C 627.078125 265.214844 627.101562 268.058594 626.574219 271.765625 Z M 626.574219 271.765625 " fill-opacity="1" fill-rule="nonzero"/><path fill="#ffe2d9" d="M 457.402344 363.460938 C 456.441406 377.898438 443.929688 564.597656 375.640625 620.417969 C 321.832031 664.402344 296.683594 610.394531 287.96875 581.75 C 285.621094 574.035156 284.457031 568.152344 284.257812 566.519531 C 283.296875 558.824219 287.148438 554.980469 287.148438 554.980469 C 287.148438 554.980469 283.292969 547.273438 284.257812 541.5 C 285.21875 535.730469 286.421875 529.230469 286.421875 529.230469 C 286.421875 529.230469 283.296875 525.140625 285.21875 513.59375 C 287.148438 502.042969 307.351562 480.871094 307.351562 480.871094 C 307.351562 480.871094 332.464844 538.003906 359.285156 509.75 C 436.976562 427.90625 444.894531 321.113281 444.894531 321.113281 C 444.894531 321.113281 458.367188 349.019531 457.402344 363.460938 Z M 457.402344 363.460938 " fill-opacity="1" fill-rule="nonzero"/><path fill="#e69b85" d="M 438.648438 357.683594 C 438.648438 357.683594 444.730469 353.96875 447.3125 350.347656 C 449.898438 346.730469 444.214844 328.113281 444.214844 328.113281 C 444.214844 328.113281 439.800781 343.824219 438.648438 357.683594 Z M 438.648438 357.683594 " fill-opacity="1" fill-rule="nonzero"/><path fill="#f5b19c" d="M 449.230469 317.265625 C 449.230469 317.265625 442.015625 339.878906 438.648438 357.683594 C 438.648438 357.683594 405.460938 372.601562 369.390625 359.125 C 369.390625 359.125 371.796875 338.914062 367.707031 325.203125 C 363.617188 311.492188 449.230469 317.265625 449.230469 317.265625 Z M 449.230469 317.265625 " fill-opacity="1" fill-rule="nonzero"/><path fill="#ffcaba" d="M 449.226562 317.269531 C 449.226562 317.269531 442.871094 322.28125 428.765625 325.621094 C 415.566406 328.761719 395.601562 330.441406 367.707031 325.207031 C 367.707031 325.207031 361.949219 301.714844 361.007812 288.828125 C 360.753906 285.457031 364.09375 279.765625 364.09375 279.015625 C 364.09375 276.109375 372.039062 264.324219 374 252.3125 C 374.425781 249.769531 374.578125 247.21875 374.324219 244.738281 C 374.292969 244.375 374.242188 244.011719 374.191406 243.648438 C 372.28125 230.808594 350.398438 233.945312 345.5625 234.796875 L 345.550781 234.796875 C 344.957031 234.910156 344.621094 234.980469 344.621094 234.980469 C 344.621094 234.980469 344.335938 229.734375 350.117188 221.796875 C 352.6875 218.253906 356.472656 214.171875 362.019531 209.785156 C 364.132812 208.117188 366.492188 206.40625 369.144531 204.664062 C 369.144531 204.664062 372.363281 205.613281 376.136719 208.835938 C 380.804688 212.8125 386.328125 220.265625 387.632812 233.671875 C 387.707031 234.433594 387.773438 235.199219 387.816406 236 C 387.855469 236.621094 387.886719 237.253906 387.898438 237.902344 C 387.925781 239.058594 387.9375 240.242188 387.90625 241.476562 C 387.90625 241.476562 387.9375 241.558594 388 241.71875 C 388.039062 241.824219 388.089844 241.953125 388.160156 242.117188 C 388.535156 243.019531 389.316406 244.820312 390.507812 247.035156 C 394.859375 255.195312 404.664062 269.117188 419.644531 266.019531 C 429.453125 263.984375 431.34375 250.597656 430.574219 236.929688 C 430.128906 228.921875 428.773438 220.820312 427.570312 214.855469 C 428.519531 215.203125 429.492188 215.546875 430.484375 215.890625 C 438.683594 232.628906 454.398438 264.613281 458.609375 272.511719 C 464.375 283.339844 449.226562 317.269531 449.226562 317.269531 Z M 449.226562 317.269531 " fill-opacity="1" fill-rule="nonzero"/><path fill="#5c2e0f" d="M 408.328125 146.128906 C 408.902344 148.296875 410.453125 149.769531 411.789062 149.417969 C 413.128906 149.066406 413.746094 147.019531 413.171875 144.847656 C 412.601562 142.679688 411.050781 141.207031 409.714844 141.558594 C 408.378906 141.914062 407.757812 143.957031 408.328125 146.128906 Z M 408.328125 146.128906 " fill-opacity="1" fill-rule="nonzero"/><path fill="#5c2e0f" d="M 409.027344 145.382812 C 408.675781 143.453125 409.523438 140.9375 410.941406 139.617188 C 411.75 138.863281 410.542969 137.585938 409.757812 138.371094 C 408.820312 139.308594 408.179688 140.46875 407.871094 141.757812 C 407.53125 143.167969 407.988281 144.824219 408.339844 146.195312 C 408.492188 146.792969 409.136719 145.992188 409.027344 145.382812 Z M 409.027344 145.382812 " fill-opacity="1" fill-rule="nonzero"/><path fill="#5c2e0f" d="M 430.125 139.996094 C 430.667969 142.054688 432.136719 143.453125 433.40625 143.121094 C 434.675781 142.785156 435.265625 140.84375 434.722656 138.78125 C 434.179688 136.722656 432.707031 135.324219 431.441406 135.660156 C 430.167969 135.996094 429.582031 137.941406 430.125 139.996094 Z M 430.125 139.996094 " fill-opacity="1" fill-rule="nonzero"/><path fill="#5c2e0f" d="M 430.253906 139.867188 C 429.6875 138.671875 429.421875 137.519531 429.601562 136.195312 C 429.753906 135.085938 430.164062 133.597656 431.144531 132.957031 C 431.773438 132.550781 432.445312 133.117188 432.238281 133.808594 C 431.964844 134.726562 431.324219 135.429688 431.128906 136.410156 C 430.941406 137.382812 430.957031 138.5 431.257812 139.449219 C 431.472656 140.113281 430.558594 140.507812 430.253906 139.867188 Z M 430.253906 139.867188 " fill-opacity="1" fill-rule="nonzero"/><path fill="#bf5b17" d="M 424.644531 137.957031 C 425.152344 141.835938 427.351562 144.839844 430.265625 147.269531 C 431.234375 148.078125 432.417969 149.050781 432.207031 150.441406 C 431.652344 154.144531 426.9375 155.632812 423.914062 154.585938 C 422.886719 154.230469 423.550781 152.660156 424.578125 153.023438 C 426.722656 153.792969 430.253906 152.695312 430.292969 150.058594 C 430.308594 148.726562 428.222656 147.667969 427.320312 146.691406 C 425.023438 144.195312 424.226562 141.335938 424.042969 138.035156 C 424.019531 137.648438 424.589844 137.566406 424.644531 137.957031 Z M 424.644531 137.957031 " fill-opacity="1" fill-rule="nonzero"/><path fill="#5c2e0f" d="M 398.453125 138.769531 C 400.671875 134.152344 405.546875 130.085938 410.941406 129.96875 C 412.0625 129.945312 412.480469 131.34375 411.449219 131.878906 C 409.414062 132.929688 407.011719 133.175781 404.933594 134.238281 C 402.6875 135.386719 400.714844 137.179688 399.40625 139.335938 C 399.082031 139.878906 398.179688 139.339844 398.453125 138.769531 Z M 398.453125 138.769531 " fill-opacity="1" fill-rule="nonzero"/><path fill="#5c2e0f" d="M 432.570312 128.8125 C 431.476562 128.59375 430.402344 128.648438 429.292969 128.734375 C 428.300781 128.808594 427.429688 129.101562 426.464844 128.789062 C 425.722656 128.546875 425.65625 127.460938 426.238281 127.03125 C 428.023438 125.714844 431.066406 126.84375 432.964844 127.390625 C 433.777344 127.621094 433.390625 128.972656 432.570312 128.8125 Z M 432.570312 128.8125 " fill-opacity="1" fill-rule="nonzero"/><path fill="#bf5b17" d="M 379.492188 138.441406 C 383.695312 141.023438 387.136719 144.15625 389.601562 148.488281 C 390.242188 149.621094 388.53125 150.691406 387.890625 149.558594 C 385.648438 145.59375 382.695312 141.835938 379 139.113281 C 378.621094 138.835938 379.089844 138.191406 379.492188 138.441406 Z M 379.492188 138.441406 " fill-opacity="1" fill-rule="nonzero"/><path fill="#bf5b17" d="M 378.621094 146.1875 C 380.976562 145.261719 383.3125 144.683594 385.851562 144.695312 C 386.941406 144.703125 386.992188 146.425781 385.902344 146.394531 C 383.546875 146.328125 381.207031 146.535156 378.964844 147.292969 C 378.253906 147.535156 377.9375 146.457031 378.621094 146.1875 Z M 378.621094 146.1875 " fill-opacity="1" fill-rule="nonzero"/><path fill="#bf5b17" d="M 605.65625 299.34375 C 604.632812 299.617188 603.933594 299.617188 603.933594 299.617188 C 603.933594 299.617188 607 290.375 607.34375 288.996094 C 607.6875 287.621094 605.269531 286.574219 603.890625 287.960938 C 602.515625 289.339844 599.417969 295.375 599.417969 295.375 C 599.417969 295.375 594.933594 293.640625 593.386719 293.472656 C 591.839844 293.300781 589.074219 294.675781 588.386719 294.847656 C 587.699219 295.019531 587.699219 294.160156 588.902344 293.300781 C 590.117188 292.441406 592.179688 291.921875 594.246094 292.265625 C 596.3125 292.609375 598.386719 294.675781 598.730469 293.8125 C 599.074219 292.953125 602.859375 286.746094 603.890625 286.058594 C 604.125 285.90625 604.417969 285.824219 604.75 285.824219 C 605.144531 285.804688 605.589844 285.875 606.035156 286.027344 C 606.957031 286.3125 607.917969 286.886719 608.546875 287.621094 C 609.570312 288.792969 606.726562 296.703125 605.65625 299.34375 Z M 605.65625 299.34375 " fill-opacity="1" fill-rule="nonzero"/><path fill="#bf5b17" d="M 613.558594 293.523438 L 613.546875 293.535156 C 613.433594 293.644531 612.523438 294.558594 611.390625 295.589844 C 611.796875 292.527344 613.515625 279.488281 613.367188 277.960938 C 613.195312 276.238281 611.128906 276.414062 610.441406 277.273438 C 609.882812 277.960938 607.097656 283.78125 606.035156 286.03125 C 605.773438 286.589844 605.613281 286.925781 605.613281 286.925781 L 604.40625 286.753906 C 604.40625 286.753906 604.527344 286.40625 604.753906 285.832031 C 605.21875 284.617188 606.097656 282.367188 607.132812 280.222656 C 608.082031 278.238281 609.148438 276.355469 610.109375 275.457031 C 610.191406 275.375 610.269531 275.304688 610.351562 275.242188 C 610.421875 275.191406 610.492188 275.140625 610.566406 275.101562 C 611.527344 274.421875 612.398438 274.308594 613.117188 274.492188 C 613.390625 274.5625 613.652344 274.675781 613.875 274.816406 C 614.101562 274.949219 614.300781 275.109375 614.472656 275.28125 C 614.785156 275.605469 615.007812 275.960938 615.101562 276.242188 C 615.4375 277.273438 614.09375 292.371094 613.558594 293.523438 Z M 613.558594 293.523438 " fill-opacity="1" fill-rule="nonzero"/><path fill="#bf5b17" d="M 620.480469 289.554688 C 619.640625 290.074219 619.164062 290.03125 619.035156 290.011719 C 619.011719 290 619.003906 290 619.003906 290 C 619.003906 290 620.085938 272.453125 619.914062 271.421875 C 619.746094 270.378906 618.710938 269.691406 616.988281 270.90625 C 615.753906 271.773438 614.863281 274.0625 614.46875 275.277344 C 614.308594 275.753906 614.226562 276.066406 614.226562 276.066406 L 612.847656 275.378906 C 612.847656 275.378906 612.910156 275.136719 613.019531 274.761719 C 613.050781 274.667969 613.078125 274.578125 613.113281 274.488281 C 613.558594 273.082031 614.527344 270.4375 615.785156 269.6875 C 617.507812 268.652344 619.914062 269 620.773438 269.6875 C 620.792969 269.707031 620.824219 269.746094 620.847656 269.796875 C 620.976562 270.109375 621.046875 270.972656 621.089844 272.179688 C 621.230469 276.980469 620.691406 287.203125 620.480469 289.554688 Z M 620.480469 289.554688 " fill-opacity="1" fill-rule="nonzero"/><path fill="#bf5b17" d="M 595.917969 278.132812 C 595.917969 278.132812 590.804688 280.894531 587.011719 281.066406 C 583.226562 281.238281 583.566406 279.863281 584.945312 279.6875 C 586.324219 279.515625 596.660156 277.273438 597.175781 277.101562 C 597.691406 276.929688 595.917969 278.132812 595.917969 278.132812 Z M 595.917969 278.132812 " fill-opacity="1" fill-rule="nonzero"/><g clip-path="url(#5ed95572c6)"><path fill="#bf5b17" d="M 620.601562 273.3125 C 620.601562 273.3125 623.015625 267.28125 624.566406 266.417969 C 626.117188 265.554688 627.148438 268.65625 626.460938 272.449219 C 626.460938 272.449219 627.839844 265.898438 627.324219 264.519531 C 626.808594 263.140625 623.019531 265.207031 622.15625 266.589844 C 621.292969 267.96875 620.777344 269.691406 620.777344 269.691406 Z M 620.601562 273.3125 " fill-opacity="1" fill-rule="nonzero"/></g><path fill="#f09a60" d="M 374 252.3125 C 372.035156 264.324219 364.09375 276.109375 364.09375 279.015625 C 364.09375 279.765625 361.269531 286.488281 361.523438 289.859375 C 359.933594 297.085938 358.445312 309.386719 357.171875 322.007812 C 355.1875 341.699219 353.742188 362.164062 353.257812 365.34375 C 350.6875 382.335938 322.734375 468.378906 322.734375 470.503906 C 322.734375 470.515625 322.734375 470.515625 322.734375 470.523438 C 322.976562 471.972656 324.699219 484.230469 323.976562 487.363281 C 323.25 490.492188 319.605469 503.007812 318.886719 505.175781 C 318.167969 507.339844 317.449219 516.726562 314.078125 514.804688 C 310.707031 512.871094 309.027344 504.453125 309.269531 502.765625 C 309.503906 501.085938 311.191406 490.019531 309.027344 491.695312 C 306.859375 493.390625 291.46875 509.75 290.261719 512.148438 C 289.066406 514.558594 287.144531 526.589844 286.417969 529.230469 C 285.699219 531.882812 284.738281 533.320312 283.058594 533.320312 C 282.371094 533.320312 281.683594 532.519531 281.105469 531.566406 L 281.105469 531.558594 C 280.277344 530.191406 279.6875 528.507812 279.6875 528.507812 C 279.6875 528.507812 278.238281 527.789062 277.523438 525.378906 C 276.804688 522.96875 278.238281 514.554688 278.238281 514.554688 C 278.238281 514.554688 277.925781 513.847656 277.652344 512.832031 C 277.652344 512.832031 277.652344 512.832031 277.652344 512.824219 C 277.390625 511.871094 277.167969 510.667969 277.277344 509.5 C 277.523438 507.089844 279.929688 500.601562 279.929688 500.601562 C 279.929688 500.601562 279.660156 499.875 279.839844 498.535156 L 279.839844 498.527344 C 279.949219 497.6875 280.234375 496.601562 280.890625 495.304688 C 282.570312 491.933594 302.527344 474.609375 303.488281 471.25 C 304.449219 467.875 315.703125 378.175781 318.113281 369.996094 C 320.523438 361.8125 326.453125 349.949219 327.414062 344.664062 C 328.375 339.371094 332.355469 298.980469 331.867188 293.683594 C 331.390625 288.390625 329.945312 257.109375 336.683594 245.082031 C 338.210938 242.359375 341.441406 238.761719 345.550781 234.796875 L 345.5625 234.796875 C 350.398438 233.945312 372.28125 230.804688 374.191406 243.644531 C 374.242188 244.007812 374.292969 244.371094 374.324219 244.738281 C 374.578125 247.222656 374.425781 249.769531 374 252.3125 Z M 374 252.3125 " fill-opacity="1" fill-rule="nonzero"/><path fill="#bf5b17" d="M 288.3125 502.703125 C 288.144531 503.734375 282.980469 513.210938 282.636719 514.253906 C 282.304688 515.234375 281.351562 529.15625 281.109375 531.558594 C 280.28125 530.191406 279.691406 528.507812 279.691406 528.507812 C 279.691406 528.507812 280.734375 515.628906 281.078125 514.253906 C 281.421875 512.867188 287.796875 501.667969 287.796875 501.667969 C 287.796875 501.667969 288.484375 501.667969 288.3125 502.703125 Z M 288.3125 502.703125 " fill-opacity="1" fill-rule="nonzero"/><path fill="#bf5b17" d="M 285.046875 499.433594 C 284.699219 500.121094 280.046875 507.875 279.699219 508.566406 C 279.355469 509.253906 278.242188 514.558594 278.242188 514.558594 C 278.242188 514.558594 277.929688 513.851562 277.65625 512.835938 C 277.65625 512.835938 277.65625 512.835938 277.65625 512.828125 C 278.132812 510.800781 278.800781 508.058594 279.011719 507.53125 C 279.359375 506.671875 283.496094 499.949219 284.183594 499.085938 C 284.871094 498.226562 285.386719 498.742188 285.046875 499.433594 Z M 285.046875 499.433594 " fill-opacity="1" fill-rule="nonzero"/><path fill="#bf5b17" d="M 284.011719 494.773438 C 283.839844 495.632812 279.933594 500.605469 279.933594 500.605469 C 279.933594 500.605469 279.660156 499.875 279.84375 498.539062 C 279.84375 498.539062 279.851562 498.539062 279.84375 498.53125 C 280.824219 497.285156 284.171875 493.960938 284.011719 494.773438 Z M 284.011719 494.773438 " fill-opacity="1" fill-rule="nonzero"/><path fill="#ffe2d9" d="M 374.328125 244.738281 C 374.296875 244.375 374.246094 244.011719 374.195312 243.648438 C 372.285156 230.808594 350.402344 233.945312 345.566406 234.796875 L 345.554688 234.796875 C 344.960938 234.910156 344.625 234.980469 344.625 234.980469 C 344.625 234.980469 344.339844 229.734375 350.121094 221.796875 C 359.5 222.667969 376.097656 226.738281 374.328125 244.738281 Z M 374.328125 244.738281 " fill-opacity="1" fill-rule="nonzero"/><path fill="#bf5b17" d="M 480.859375 312.699219 C 476.632812 321.601562 466.289062 329.722656 470.050781 325.011719 C 474.183594 319.851562 475.679688 312.933594 475.679688 312.933594 C 475.984375 313.4375 477.886719 313.285156 480.859375 312.699219 Z M 480.859375 312.699219 " fill-opacity="0.63" fill-rule="nonzero"/><path fill="#f5b19c" d="M 428.710938 290.375 C 410.515625 290.800781 394.757812 257.742188 389.648438 245.753906 C 389.648438 245.742188 389.636719 245.742188 389.636719 245.734375 C 388.929688 244.074219 388.433594 242.816406 388.160156 242.117188 C 388.535156 243.019531 389.316406 244.820312 390.507812 247.039062 C 394.859375 255.199219 404.664062 269.121094 419.644531 266.023438 C 429.453125 263.988281 431.34375 250.601562 430.574219 236.933594 C 433.378906 237.648438 435.480469 238.855469 436.464844 240.738281 C 436.859375 241.5 437.273438 242.398438 437.691406 243.414062 C 437.691406 243.414062 437.699219 243.421875 437.699219 243.433594 C 443.226562 256.8125 449.355469 289.898438 428.710938 290.375 Z M 428.710938 290.375 " fill-opacity="1" fill-rule="nonzero"/><path fill="#ffe2d9" d="M 435.421875 277.960938 C 421.152344 288.90625 397.746094 263.015625 389.648438 245.753906 C 389.648438 245.742188 389.636719 245.742188 389.636719 245.734375 C 388.988281 244.339844 388.433594 242.980469 388 241.722656 C 388.039062 241.824219 388.089844 241.957031 388.160156 242.117188 C 388.535156 243.019531 389.316406 244.820312 390.507812 247.039062 C 394.859375 255.199219 404.664062 269.121094 419.644531 266.023438 C 429.453125 263.988281 431.34375 250.601562 430.574219 236.933594 C 430.128906 228.925781 428.773438 220.824219 427.570312 214.859375 C 427.570312 214.859375 433.804688 228.550781 437.691406 243.414062 C 437.691406 243.414062 437.699219 243.421875 437.699219 243.433594 C 441.332031 257.316406 442.910156 272.222656 435.421875 277.960938 Z M 435.421875 277.960938 " fill-opacity="1" fill-rule="nonzero"/><path fill="#ffe2d9" d="M 387.898438 237.90625 L 387.433594 239.03125 L 387.359375 239.191406 C 383.800781 217.421875 370.136719 211.417969 362.019531 209.785156 C 364.132812 208.117188 366.492188 206.40625 369.144531 204.664062 C 369.144531 204.664062 372.363281 205.613281 376.136719 208.835938 C 380.804688 212.8125 386.328125 220.265625 387.632812 233.671875 C 387.707031 234.433594 387.773438 235.199219 387.816406 236 C 387.855469 236.621094 387.886719 237.257812 387.898438 237.90625 Z M 387.898438 237.90625 " fill-opacity="1" fill-rule="nonzero"/><path fill="#f5b19c" d="M 379.613281 247.460938 C 379.613281 247.460938 372.894531 272.792969 372.894531 276.414062 C 372.894531 280.03125 383.746094 245.910156 379.613281 247.460938 Z M 379.613281 247.460938 " fill-opacity="1" fill-rule="nonzero"/><path fill="#f5b19c" d="M 385.296875 249.011719 C 382.84375 254.734375 390.464844 274.863281 391.496094 270.726562 C 392.535156 266.589844 386.847656 245.390625 385.296875 249.011719 Z M 385.296875 249.011719 " fill-opacity="1" fill-rule="nonzero"/><path fill="#eb8d4e" d="M 357.171875 322.007812 C 355.1875 341.699219 353.742188 362.164062 353.257812 365.34375 C 350.6875 382.335938 322.734375 468.378906 322.734375 470.503906 C 321.1875 465.339844 337.75 365.34375 338.785156 362.761719 C 339.828125 360.179688 345.503906 362.246094 347.050781 359.136719 C 348.613281 356.039062 356.878906 321.402344 356.878906 321.402344 Z M 357.171875 322.007812 " fill-opacity="1" fill-rule="nonzero"/><path fill="#bf5b17" d="M 413.222656 159.417969 C 416.539062 164.660156 424.589844 164.769531 429.675781 162.347656 C 430.578125 161.921875 429.875 160.757812 429.054688 160.875 C 426.007812 161.300781 423.203125 162.203125 420.070312 161.796875 C 417.605469 161.472656 415.492188 160.539062 413.367188 159.273438 C 413.277344 159.222656 413.164062 159.328125 413.222656 159.417969 Z M 413.222656 159.417969 " fill-opacity="1" fill-rule="nonzero"/><path fill="#ffd8cc" d="M 345.503906 583.792969 C 315.789062 593.335938 298.222656 588.976562 287.96875 581.75 C 285.621094 574.035156 284.457031 568.152344 284.257812 566.519531 C 283.296875 558.824219 287.148438 554.980469 287.148438 554.980469 C 287.148438 554.980469 296.675781 585.347656 340.859375 572.933594 C 385.042969 560.527344 425.351562 430.234375 426.902344 426.359375 C 428.449219 422.476562 408.300781 563.621094 345.503906 583.792969 Z M 345.503906 583.792969 " fill-opacity="1" fill-rule="nonzero"/><path fill="#ffd8cc" d="M 426.898438 468.230469 C 427.664062 464.351562 405.191406 547.339844 380.386719 577.585938 C 355.582031 607.828125 368.757812 611.707031 374.960938 605.503906 C 381.164062 599.300781 412.945312 538.808594 426.898438 468.230469 Z M 426.898438 468.230469 " fill-opacity="1" fill-rule="nonzero"/><path fill="#ffc9b7" d="M 346.941406 868.816406 C 339.058594 865.089844 334.796875 859.785156 325.617188 857.164062 C 320.285156 855.644531 316.164062 856.082031 311.691406 856.871094 C 315.417969 841.519531 351.082031 693.835938 361.007812 672.976562 C 370.734375 652.542969 350.273438 843.566406 346.941406 868.816406 Z M 346.941406 868.816406 " fill-opacity="1" fill-rule="nonzero"/><path fill="#ffc9b7" d="M 437.109375 616.113281 C 433.234375 639.21875 425.664062 854.28125 425.664062 854.28125 C 425.664062 854.28125 408.613281 861.902344 390.992188 867.34375 C 393.078125 854.824219 434.867188 628.253906 437.109375 616.113281 Z M 437.109375 616.113281 " fill-opacity="1" fill-rule="nonzero"/><path fill="#ffc9b7" d="M 260.371094 845.914062 C 247.882812 836.664062 239.046875 825.402344 239.046875 825.402344 C 248.714844 770.492188 266.960938 715.035156 282.160156 673.816406 C 275.125 712.847656 259.683594 803.765625 260.371094 845.914062 Z M 260.371094 845.914062 " fill-opacity="1" fill-rule="nonzero"/></svg>