<svg xmlns="http://www.w3.org/2000/svg" xmlns:xlink="http://www.w3.org/1999/xlink" width="1080" zoomAndPan="magnify" viewBox="0 0 810 1012.49997" height="1350" preserveAspectRatio="xMidYMid meet" version="1.0"><defs><clipPath id="18e754bedf"><path d="M 388 283 L 741.640625 283 L 741.640625 614 L 388 614 Z M 388 283 " clip-rule="nonzero"/></clipPath><clipPath id="1c14b7fe20"><path d="M 499 440 L 741.640625 440 L 741.640625 614 L 499 614 Z M 499 440 " clip-rule="nonzero"/></clipPath><clipPath id="854cd1eba9"><path d="M 688 440 L 741.640625 440 L 741.640625 483 L 688 483 Z M 688 440 " clip-rule="nonzero"/></clipPath><clipPath id="7569a1826b"><path d="M 312 42.625 L 741.640625 42.625 L 741.640625 567 L 312 567 Z M 312 42.625 " clip-rule="nonzero"/></clipPath></defs><path fill="#ebd6ae" d="M 690.421875 596.546875 C 690.28125 600.308594 689.992188 604.441406 689.496094 608.777344 C 687.550781 625.929688 682.25 646.132812 668.832031 657.765625 C 642.230469 680.804688 592.578125 675.492188 599.675781 730.449219 C 600.902344 739.960938 600.695312 750.167969 599.050781 760.539062 C 593.988281 792.722656 575.191406 826.511719 542.9375 846.230469 C 525.550781 856.863281 504.246094 863.402344 479.078125 863.402344 C 454.164062 863.402344 433.628906 858.449219 417.007812 851.382812 C 375.632812 833.804688 358.484375 803.136719 358.484375 803.136719 C 350.507812 794.027344 342.84375 786.054688 335.621094 779.113281 C 312.953125 712.515625 316.40625 629.148438 323.363281 570.605469 C 323.375 570.59375 323.375 570.59375 323.375 570.59375 C 328.457031 527.765625 335.425781 498.21875 335.425781 498.21875 L 592.578125 464.53125 C 592.578125 464.53125 602.164062 482.675781 617.292969 506.46875 C 635.851562 535.667969 662.730469 573.378906 690.421875 596.546875 Z M 690.421875 596.546875 " fill-opacity="1" fill-rule="nonzero"/><path fill="#e3cea6" d="M 690.421875 596.546875 C 690.28125 600.308594 689.992188 604.441406 689.496094 608.777344 C 643.964844 584.617188 576.007812 598.664062 559.476562 639.445312 C 548.003906 667.726562 577.085938 724.175781 599.046875 760.535156 C 611.066406 780.402344 620.953125 794.269531 620.953125 794.269531 L 547.648438 852.175781 C 547.648438 852.175781 545.957031 850.011719 542.933594 846.226562 C 518.21875 815.316406 404.097656 676.222656 390.398438 725.714844 C 380.292969 762.246094 401.386719 817.691406 417.003906 851.378906 C 375.628906 833.800781 358.480469 803.132812 358.480469 803.132812 C 350.507812 794.023438 342.839844 786.050781 335.617188 779.109375 C 312.949219 712.511719 316.402344 629.144531 323.359375 570.601562 C 323.371094 570.589844 323.371094 570.589844 323.371094 570.589844 C 332.445312 557.035156 339.589844 546.851562 340.746094 546.078125 C 343.511719 544.238281 532.539062 517.949219 617.289062 506.464844 C 635.851562 535.667969 662.730469 573.378906 690.421875 596.546875 Z M 690.421875 596.546875 " fill-opacity="1" fill-rule="nonzero"/><path fill="#e0c48e" d="M 403.179688 189.753906 C 403.179688 189.753906 402.1875 198.28125 408.941406 200.769531 C 415.699219 203.253906 411.789062 208.871094 412.359375 213.988281 C 412.929688 219.101562 422.957031 221.871094 426.800781 227.269531 C 430.640625 232.671875 429.363281 238.640625 433.488281 240.773438 C 437.609375 242.902344 444.085938 248.65625 445.367188 254.339844 C 446.652344 260.027344 441.820312 268.984375 441.820312 268.984375 L 409.671875 247.960938 L 393.375 218.046875 Z M 403.179688 189.753906 " fill-opacity="1" fill-rule="nonzero"/><path fill="#f4af14" d="M 716.726562 613.445312 C 716.726562 613.445312 711.398438 643.578125 693.664062 670.171875 C 683.304688 685.714844 665.675781 693.386719 651.746094 701.324219 C 641.835938 706.972656 633.804688 712.746094 631.59375 721.585938 C 628.410156 734.351562 638.621094 752.21875 635.421875 777.503906 L 635.421875 777.515625 C 633.28125 794.363281 625.191406 814.5 603.214844 838.59375 C 591.558594 851.371094 576.878906 862.476562 560.253906 871.285156 L 560.242188 871.285156 C 522.085938 891.476562 473.710938 899.53125 428.246094 887.84375 C 400.082031 880.597656 373.011719 865.773438 350.207031 841.542969 C 338.507812 829.113281 341.410156 796.121094 335.621094 779.113281 C 342.84375 786.054688 350.507812 794.027344 358.484375 803.136719 C 358.484375 803.136719 375.632812 833.804688 417.007812 851.382812 C 433.628906 858.453125 454.164062 863.402344 479.078125 863.402344 C 504.246094 863.402344 525.550781 856.863281 542.9375 846.230469 C 584.453125 820.851562 603.667969 772.191406 600.035156 733.613281 C 599.929688 732.546875 599.8125 731.496094 599.675781 730.453125 C 595.972656 701.78125 607.722656 689.511719 623.582031 681.0625 C 638.125 673.320312 656.113281 668.789062 668.832031 657.769531 C 685.644531 643.207031 689.703125 615.195312 690.425781 596.550781 C 699.183594 603.886719 708.03125 609.765625 716.726562 613.445312 Z M 716.726562 613.445312 " fill-opacity="1" fill-rule="nonzero"/><g clip-path="url(#18e754bedf)"><path fill="#fcf1dc" d="M 741.542969 452.128906 C 741.542969 452.128906 722.039062 460.992188 716.722656 476.941406 C 711.398438 492.898438 704.300781 514.164062 690.121094 523.035156 C 675.925781 531.898438 652.878906 517.71875 635.140625 530.128906 C 621.328125 539.800781 606.445312 586.035156 572.871094 605.148438 C 563.34375 610.589844 552.3125 613.839844 539.371094 613.449219 C 529.34375 613.148438 518.320312 608.367188 506.953125 600.648438 C 504.640625 599.074219 502.308594 597.386719 499.972656 595.578125 C 469.523438 572.164062 437.496094 530.355469 415.636719 498.855469 C 410.089844 490.835938 405.195312 483.488281 401.140625 477.28125 C 393.269531 465.203125 388.625 457.4375 388.625 457.4375 C 388.625 457.4375 417 317.390625 420.554688 312.082031 C 422.789062 308.726562 466.429688 298.367188 498.5 291.144531 C 501.066406 290.566406 503.570312 290 505.964844 289.46875 C 505.976562 289.46875 505.976562 289.46875 505.976562 289.46875 C 521.179688 286.078125 532.28125 283.714844 532.28125 283.714844 C 532.28125 283.714844 587.304688 360.902344 659.597656 412.050781 C 662.527344 414.132812 665.492188 416.171875 668.476562 418.148438 C 681.363281 426.710938 694.746094 434.351562 708.394531 440.496094 C 719.308594 445.417969 730.386719 449.382812 741.542969 452.128906 Z M 741.542969 452.128906 " fill-opacity="1" fill-rule="nonzero"/></g><path fill="#f0debb" d="M 581.9375 447.984375 C 586.660156 476.347656 545.285156 453.898438 525.1875 457.4375 C 505.089844 460.988281 529.910156 563.808594 565.382812 593.351562 C 570.339844 597.46875 572.617188 601.417969 572.871094 605.144531 C 563.34375 610.582031 552.3125 613.832031 539.371094 613.441406 C 532.226562 613.21875 524.574219 610.734375 516.65625 606.53125 C 513.460938 604.84375 510.21875 602.863281 506.953125 600.640625 C 504.640625 599.066406 502.308594 597.378906 499.972656 595.570312 C 488.085938 586.414062 475.949219 574.472656 464.269531 561.421875 L 464.257812 561.410156 C 446.050781 541.066406 428.953125 518.035156 415.636719 498.851562 C 420.824219 460.582031 437.089844 341.839844 440.0625 336.886719 C 441.996094 333.660156 471.84375 311.011719 498.503906 291.144531 C 501.070312 290.566406 503.574219 290 505.96875 289.46875 C 505.980469 289.46875 505.980469 289.46875 505.980469 289.46875 C 521.183594 286.078125 532.285156 283.714844 532.285156 283.714844 C 532.285156 283.714844 587.308594 360.902344 659.601562 412.050781 C 633.960938 397.976562 588.023438 372.851562 568.933594 362.890625 C 541.746094 348.71875 577.203125 419.621094 581.9375 447.984375 Z M 581.9375 447.984375 " fill-opacity="0.63" fill-rule="nonzero"/><path fill="#f7a76d" d="M 682.039062 139.132812 C 682.039062 139.132812 682.039062 143.066406 680.464844 145.441406 C 678.882812 147.800781 676.519531 148.980469 676.519531 148.980469 C 676.519531 148.980469 673.765625 156.46875 671.402344 158.828125 C 669.03125 161.1875 667.058594 163.167969 667.058594 163.167969 C 667.058594 163.167969 651.984375 203.046875 639.578125 229.640625 C 627.15625 256.234375 600.550781 285.488281 594.347656 290.796875 C 589.925781 294.59375 565.210938 301.988281 545.921875 308.167969 C 538.164062 310.65625 531.289062 312.949219 526.960938 314.730469 C 511.886719 320.945312 485.285156 326.253906 480.851562 330.6875 C 476.417969 335.121094 461.9375 371.46875 456.019531 378.550781 C 450.117188 385.644531 441.25 433.8125 449.527344 452.71875 C 450.984375 456.0625 450.417969 460.425781 448.484375 465.363281 C 439.523438 488.371094 401.042969 523.632812 401.042969 523.632812 L 397.5 512.984375 C 397.5 512.984375 340.75 517.71875 300.554688 469.265625 C 260.351562 420.800781 242.613281 348.722656 237.894531 343.988281 C 237.210938 343.304688 235.949219 342.839844 234.203125 342.515625 C 227.082031 341.164062 211.777344 341.960938 193.648438 338.585938 C 185.542969 337.082031 176.886719 334.734375 168.132812 330.992188 C 142.214844 319.898438 111.382812 300.257812 106.664062 290.800781 C 101.925781 281.347656 86.554688 178.53125 85.371094 173.808594 C 84.191406 169.074219 70.296875 156.957031 69.417969 150.753906 C 68.527344 144.550781 83.601562 101.121094 85.371094 97.570312 C 87.152344 94.03125 89.808594 97.570312 91.589844 102.894531 C 93.359375 108.21875 90.699219 119.734375 90.699219 119.734375 C 90.699219 119.734375 99.171875 119.050781 100.351562 124.167969 C 100.351562 124.167969 105.078125 124.167969 106.664062 127.71875 C 108.238281 131.257812 108.238281 133.226562 108.238281 133.226562 C 108.238281 133.226562 112.175781 131.261719 114.140625 134.40625 C 116.121094 137.566406 120.058594 145.839844 118.878906 148.988281 C 117.699219 152.136719 114.140625 151.347656 114.140625 151.347656 C 114.140625 151.347656 111.78125 161.980469 109.417969 164.75 C 109.175781 165.039062 108.953125 165.421875 108.792969 165.859375 C 107.3125 169.65625 108.398438 178.429688 109.808594 180.894531 C 111.382812 183.660156 157.207031 247.375 159.855469 250.925781 C 162.230469 254.074219 203.476562 246.695312 234.816406 252.558594 C 238.679688 253.265625 242.398438 254.1875 245.871094 255.359375 C 247.457031 255.890625 249.214844 256.339844 251.09375 256.734375 C 264.140625 259.441406 282.675781 258.898438 285.777344 258.898438 C 289.316406 258.898438 312.378906 254.464844 314.148438 251.800781 C 315.917969 249.140625 323.015625 226.980469 323.015625 226.980469 C 323.015625 226.980469 383.316406 221.667969 392.175781 239.394531 C 392.175781 239.394531 403.785156 244.316406 413.976562 245.75 C 416.996094 246.1875 419.902344 246.304688 422.332031 245.898438 C 422.898438 245.808594 423.5 245.691406 424.136719 245.550781 C 435.492188 243.03125 457.734375 237.636719 483.515625 237.625 C 501.539062 237.625 554.742188 240.285156 561.839844 237.625 C 568.9375 234.976562 612.082031 197.734375 620.070312 191.53125 C 628.046875 185.316406 640.457031 166.710938 642.230469 163.167969 C 644.011719 159.617188 644.210938 158.828125 643.421875 156.074219 C 642.636719 153.324219 632.773438 145.441406 633.570312 141.101562 C 634.359375 136.769531 639.871094 134.804688 639.871094 134.804688 C 639.871094 134.804688 638.691406 129.675781 641.050781 126.53125 C 643.421875 123.371094 647.753906 123.765625 647.753906 123.765625 C 647.753906 123.765625 647.753906 119.433594 650.507812 116.683594 C 653.273438 113.917969 656.03125 113.523438 656.03125 113.523438 C 656.03125 113.523438 656.425781 108.015625 660.757812 105.25 C 665.101562 102.496094 682.835938 122.980469 685.195312 129.285156 C 687.550781 135.59375 682.039062 139.132812 682.039062 139.132812 Z M 682.039062 139.132812 " fill-opacity="1" fill-rule="nonzero"/><path fill="#e3cea6" d="M 526.371094 589.8125 C 524.011719 598.074219 520.535156 603.332031 516.660156 606.535156 C 513.464844 604.84375 510.222656 602.867188 506.957031 600.644531 C 504.644531 599.070312 502.3125 597.382812 499.976562 595.574219 C 488.089844 586.417969 475.953125 574.476562 464.273438 561.421875 L 464.261719 561.414062 L 432.972656 504.707031 C 432.972656 504.707031 430.609375 445.621094 438.886719 443.261719 C 447.152344 440.902344 476.71875 444.441406 484.984375 451.535156 C 493.261719 458.617188 495.632812 481.082031 495.632812 481.082031 C 495.632812 481.082031 501.539062 481.082031 510.996094 488.175781 C 520.453125 495.257812 521.632812 515.355469 520.453125 538.988281 C 519.273438 562.628906 526.371094 589.8125 526.371094 589.8125 Z M 526.371094 589.8125 " fill-opacity="0.6" fill-rule="nonzero"/><path fill="#f5833b" d="M 341.800781 437.664062 C 341.800781 437.664062 344.207031 424.835938 345.8125 420.027344 C 347.417969 415.214844 349.824219 436.859375 349.824219 436.859375 C 349.824219 436.859375 369.070312 443.273438 372.277344 445.679688 C 375.488281 448.085938 354.636719 441.667969 352.230469 446.480469 C 349.824219 451.292969 350.625 456.902344 350.625 456.902344 C 350.625 456.902344 372.277344 464.117188 374.6875 466.523438 C 377.09375 468.925781 356.242188 465.71875 353.03125 466.523438 C 349.824219 467.324219 349.019531 475.339844 353.03125 483.355469 C 357.042969 491.371094 391.527344 501.800781 401.152344 498.589844 C 410.777344 495.382812 357.042969 517.828125 357.042969 517.828125 L 320.148438 462.511719 C 320.148438 462.511719 335.390625 483.355469 340.199219 482.554688 C 345.011719 481.75 343.410156 471.328125 342.605469 468.921875 C 341.804688 466.519531 323.359375 469.726562 318.546875 471.328125 C 313.730469 472.933594 341 461.710938 342.605469 459.304688 C 344.210938 456.898438 344.210938 448.882812 341.804688 446.476562 C 339.398438 444.070312 327.367188 444.871094 321.753906 447.277344 C 316.136719 449.6875 332.980469 438.464844 341.800781 437.664062 Z M 341.800781 437.664062 " fill-opacity="0.5" fill-rule="nonzero"/><path fill="#f5833b" d="M 442.742188 303.21875 C 442.300781 314.488281 438.5625 323.246094 436.511719 334.242188 C 434.265625 346.3125 426.636719 352.179688 420.328125 362.558594 C 413.125 374.417969 406.273438 373.402344 393.066406 374.140625 C 381.988281 374.765625 371.171875 381.5 358.914062 376.339844 C 353.621094 374.105469 349.15625 370.414062 344.671875 367.058594 C 337.867188 361.953125 336.976562 362.484375 329.21875 361.710938 C 317.886719 360.578125 311.738281 355.632812 305.058594 346.667969 C 297.230469 336.160156 291.394531 327.375 293.667969 313.28125 C 299.839844 275.148438 349.699219 279.722656 378.351562 268.601562 C 389.507812 264.261719 404.871094 259.136719 411.910156 249.136719 C 412.433594 248.398438 413.148438 247.136719 413.972656 245.75 C 416.992188 246.1875 419.898438 246.304688 422.328125 245.898438 C 422.894531 245.808594 423.496094 245.691406 424.132812 245.554688 C 427.535156 249.011719 427.640625 253.851562 430.410156 257.457031 C 433.582031 261.601562 438.492188 262.550781 440.746094 267.757812 C 444.730469 276.949219 443.144531 293.082031 442.742188 303.21875 Z M 442.742188 303.21875 " fill-opacity="0.61" fill-rule="nonzero"/><path fill="#f5833b" d="M 545.921875 308.171875 C 538.164062 310.660156 531.289062 312.953125 526.960938 314.734375 C 511.886719 320.949219 485.285156 326.257812 480.851562 330.691406 C 476.417969 335.125 461.9375 371.472656 456.019531 378.554688 C 450.117188 385.648438 441.25 433.816406 449.527344 452.722656 C 450.984375 456.066406 433.71875 485.597656 431.785156 490.539062 C 424.5625 480.980469 428.238281 460.992188 412.871094 437.355469 C 398.503906 415.257812 374.445312 401.898438 351.984375 400.71875 C 329.652344 399.542969 297.257812 405.980469 288.4375 428.199219 C 281.941406 415.46875 284.335938 396.230469 284.589844 381.808594 C 295.496094 385.234375 316.007812 397.507812 327.746094 395.402344 C 344.277344 392.441406 346.660156 381.21875 349.023438 374.128906 C 350.980469 384.011719 347.84375 382.359375 354.34375 391.269531 C 362.324219 402.207031 415.21875 405.449219 434.742188 394.816406 C 445.679688 388.867188 450.382812 379.195312 453.367188 367.925781 C 457.035156 354.027344 457.6875 311.199219 461.34375 311.199219 C 464.003906 311.199219 487.519531 312.574219 497.402344 312.089844 C 508.054688 311.558594 519.621094 310.804688 530.5 309.730469 C 535.46875 309.234375 540.65625 308.773438 545.921875 308.171875 Z M 545.921875 308.171875 " fill-opacity="0.61" fill-rule="nonzero"/><path fill="#e8762e" d="M 291.546875 380.941406 C 291.058594 383.132812 294.558594 385.765625 299.359375 386.828125 C 304.160156 387.886719 308.445312 386.972656 308.925781 384.785156 C 309.414062 382.597656 305.914062 379.964844 301.113281 378.902344 C 296.3125 377.839844 292.03125 378.753906 291.546875 380.941406 Z M 291.546875 380.941406 " fill-opacity="1" fill-rule="nonzero"/><path fill="#f7a76d" d="M 393.957031 877.59375 C 393.367188 884.085938 376.222656 901.8125 372.074219 908.90625 C 367.945312 916 357.300781 947.90625 352.570312 950.867188 C 347.84375 953.816406 291.097656 956.179688 288.132812 953.226562 C 286.117188 951.214844 286.859375 946.433594 288.851562 942.292969 C 289.777344 940.371094 290.96875 938.578125 292.273438 937.269531 C 296.410156 933.136719 307.636719 931.957031 310.601562 927.816406 C 313.550781 923.6875 337.203125 874.628906 334.832031 865.175781 C 332.46875 855.722656 293.453125 782.453125 283.992188 765.90625 C 274.535156 749.359375 250.894531 715.679688 255.617188 696.765625 C 257.90625 687.601562 263.113281 656.449219 270.300781 637.132812 C 277.953125 616.59375 285.179688 598.085938 285.179688 598.085938 C 285.179688 598.085938 388.566406 605.769531 392.714844 615.871094 C 392.808594 616.070312 392.851562 616.277344 392.851562 616.472656 C 392.851562 616.484375 392.851562 616.484375 392.851562 616.496094 C 392.851562 616.660156 392.828125 616.832031 392.773438 616.996094 C 391.648438 620.324219 385.523438 628.914062 377.640625 639.308594 C 373.042969 645.382812 367.835938 652.0625 362.683594 658.667969 C 348.570312 676.789062 334.832031 694.386719 334.832031 697.351562 C 334.832031 703.269531 351.386719 728.089844 353.746094 738.722656 C 355.875 748.269531 369.421875 831.152344 372.589844 849.285156 C 372.960938 851.355469 373.195312 852.582031 373.25 852.765625 C 373.847656 854.539062 394.546875 871.085938 393.957031 877.59375 Z M 393.957031 877.59375 " fill-opacity="1" fill-rule="nonzero"/><path fill="#f2dfba" d="M 376.21875 625.265625 C 376.21875 625.265625 414.050781 666.628906 441.246094 664.265625 C 468.4375 661.902344 437.695312 553.171875 437.695312 553.171875 L 379.761719 575.628906 Z M 376.21875 625.265625 " fill-opacity="1" fill-rule="nonzero"/><path fill="#f5833b" d="M 392.855469 616.472656 C 392.855469 616.484375 392.855469 616.484375 392.855469 616.496094 C 392.855469 616.660156 392.832031 616.832031 392.777344 616.996094 C 391.652344 620.324219 385.527344 628.914062 377.644531 639.308594 C 366.382812 639.410156 353.75 638.265625 353.75 638.265625 C 353.75 638.265625 337.207031 646.539062 304.097656 637.085938 C 287.460938 632.339844 276.800781 634.148438 270.304688 637.132812 C 277.957031 616.59375 285.183594 598.085938 285.183594 598.085938 C 285.183594 598.085938 388.570312 605.769531 392.71875 615.871094 C 392.765625 616.070312 392.8125 616.277344 392.855469 616.472656 Z M 392.855469 616.472656 " fill-opacity="0.61" fill-rule="nonzero"/><path fill="#e0c48e" d="M 321.832031 197.832031 C 321.832031 197.832031 323.804688 200.589844 321.046875 203.742188 C 318.289062 206.890625 312.375 204.136719 307.253906 209.257812 C 302.128906 214.375 303.703125 215.167969 304.496094 218.316406 C 305.28125 221.464844 299.371094 225.800781 296.21875 230.132812 C 293.066406 234.46875 298.582031 238.800781 300.550781 243.527344 C 302.523438 248.253906 294.246094 250.226562 295.824219 258.5 C 297.402344 266.773438 309.222656 263.621094 309.222656 263.621094 C 309.222656 263.621094 329.714844 227.378906 330.109375 226.195312 C 330.503906 225.011719 337.992188 203.738281 337.992188 203.738281 Z M 321.832031 197.832031 " fill-opacity="1" fill-rule="nonzero"/><path fill="#f5833b" d="M 251.089844 256.734375 C 251.078125 275.445312 242.371094 312.167969 234.199219 342.515625 C 227.078125 341.164062 211.773438 341.960938 193.644531 338.585938 C 196.027344 325.230469 205.578125 283.027344 234.8125 252.558594 C 238.675781 253.265625 242.394531 254.1875 245.867188 255.359375 C 247.457031 255.886719 249.214844 256.335938 251.089844 256.734375 Z M 251.089844 256.734375 " fill-opacity="0.61" fill-rule="nonzero"/><path fill="#f7efdf" d="M 510.601562 539.589844 C 509.285156 550.210938 507.457031 559.074219 507.457031 559.074219 C 507.457031 559.074219 507.457031 546.078125 489.71875 547.261719 C 471.984375 548.441406 412.875 581.539062 404.597656 593.351562 C 396.320312 605.164062 399.863281 619.355469 389.222656 626.449219 C 378.585938 633.53125 343.117188 624.078125 343.117188 624.078125 L 406.371094 498.21875 C 406.371094 498.21875 423.515625 453.898438 449.53125 452.71875 C 449.53125 452.71875 461.9375 455.585938 472.199219 459.800781 C 478.089844 462.21875 483.265625 465.078125 484.992188 468.085938 C 489.726562 476.351562 481.449219 488.175781 481.449219 488.175781 C 481.449219 488.175781 503.921875 495.257812 509.824219 507.082031 C 512.953125 513.355469 512.09375 527.601562 510.601562 539.589844 Z M 510.601562 539.589844 " fill-opacity="1" fill-rule="nonzero"/><path fill="#fcf1dc" d="M 406.367188 498.21875 C 406.367188 498.21875 386.863281 606.347656 360.257812 622.308594 C 333.652344 638.265625 314.148438 616.996094 285.773438 606.347656 C 257.398438 595.714844 250.300781 613.445312 244.988281 606.347656 C 242.289062 602.761719 233.203125 588.679688 224.671875 559.019531 L 224.671875 559.007812 C 216.382812 530.191406 208.625 486.65625 207.746094 423.761719 C 206.691406 348.496094 219.21875 300.34375 231.847656 272.609375 C 240.636719 253.292969 249.480469 243.875 253.859375 242.054688 C 264.496094 237.621094 268.933594 242.054688 268.933594 242.054688 C 268.933594 242.054688 272.472656 234.960938 286.667969 226.976562 C 300.847656 219.003906 323.015625 226.976562 323.015625 226.976562 C 319.636719 235.425781 290.507812 366.132812 312.273438 439.808594 C 312.285156 439.820312 312.285156 439.832031 312.285156 439.832031 C 313.375 443.488281 314.578125 446.996094 315.917969 450.351562 C 337.753906 504.902344 379.535156 503.847656 397.640625 500.449219 C 403.066406 499.445312 406.367188 498.21875 406.367188 498.21875 Z M 406.367188 498.21875 " fill-opacity="1" fill-rule="nonzero"/><path fill="#e0c48e" d="M 323.015625 226.980469 C 321.140625 231.679688 311.289062 274.21875 306.65625 323.738281 C 303.300781 321.226562 298 316.675781 297.59375 312.675781 C 297.003906 306.761719 300.554688 301.453125 300.554688 301.453125 C 300.554688 301.453125 292.867188 297.898438 293.460938 289.625 C 294.050781 281.351562 298.773438 277.21875 298.773438 277.21875 C 298.773438 277.21875 289.90625 267.765625 292.867188 255.953125 C 295.820312 244.125 300.554688 243.535156 300.554688 243.535156 C 300.554688 243.535156 295.945312 233.828125 301.96875 223.449219 C 312.894531 223.347656 323.015625 226.980469 323.015625 226.980469 Z M 323.015625 226.980469 " fill-opacity="1" fill-rule="nonzero"/><g clip-path="url(#1c14b7fe20)"><path fill="#f4af14" d="M 741.542969 452.128906 C 741.542969 452.128906 722.039062 460.992188 716.722656 476.941406 C 716.15625 478.640625 715.566406 480.398438 714.953125 482.195312 C 709.8125 497.285156 702.800781 515.105469 690.121094 523.035156 C 679.25 529.828125 663.195312 523.101562 648.304688 525.148438 C 643.742188 525.773438 639.300781 527.21875 635.140625 530.128906 C 630.496094 533.378906 625.742188 540.738281 620.195312 549.824219 C 604.53125 575.464844 582.597656 614.753906 539.367188 613.449219 C 527.304688 613.089844 513.792969 606.238281 499.96875 595.582031 C 501.414062 590.859375 503.820312 586.136719 507.449219 581.542969 C 507.449219 581.542969 550.015625 601.039062 569.519531 577.992188 C 580.886719 564.566406 588.03125 545.714844 595.53125 529.875 C 600.90625 518.523438 606.449219 508.707031 613.847656 503.535156 C 620.226562 499.066406 629.589844 498.511719 639.292969 498.953125 C 656.5625 499.75 674.921875 503.753906 679.464844 494.671875 C 682.519531 488.570312 684.917969 477.867188 688.769531 467.375 C 692.855469 456.3125 698.5625 445.464844 708.390625 440.503906 C 719.308594 445.417969 730.386719 449.382812 741.542969 452.128906 Z M 741.542969 452.128906 " fill-opacity="1" fill-rule="nonzero"/></g><path fill="#f5e5c9" d="M 510.601562 539.589844 C 509.285156 550.210938 507.457031 559.074219 507.457031 559.074219 C 507.457031 559.074219 507.457031 546.078125 489.71875 547.261719 C 471.984375 548.441406 412.875 581.539062 404.597656 593.351562 C 401.9375 542.238281 431.199219 524.8125 462.238281 518.59375 C 487.207031 513.609375 504.722656 532.160156 510.601562 539.589844 Z M 510.601562 539.589844 " fill-opacity="0.63" fill-rule="nonzero"/><path fill="#f0debb" d="M 312.269531 439.8125 C 290.273438 392.4375 295.042969 230.160156 273.359375 252.984375 C 250.886719 276.625 240.25 392.441406 240.25 392.441406 C 234.332031 319.164062 259.164062 252.984375 252.070312 256.539062 C 247.691406 258.722656 238.347656 266.765625 231.84375 272.613281 C 240.632812 253.296875 249.476562 243.878906 253.855469 242.058594 C 264.492188 237.625 268.929688 242.058594 268.929688 242.058594 C 268.929688 242.058594 272.46875 234.964844 286.664062 226.980469 C 291.261719 224.390625 296.710938 223.488281 301.96875 223.441406 C 312.894531 223.347656 323.011719 226.980469 323.011719 226.980469 C 321.136719 231.679688 311.285156 274.21875 306.65625 323.738281 C 302.976562 363.21875 302.617188 407.121094 312.269531 439.8125 Z M 312.269531 439.8125 " fill-opacity="0.63" fill-rule="nonzero"/><path fill="#ffebc5" d="M 434.554688 323.027344 C 433.640625 324.980469 432.972656 326.253906 432.972656 326.253906 C 432.972656 326.253906 432.972656 331.578125 430.308594 337.777344 C 427.648438 343.984375 417.902344 349.304688 417.902344 349.304688 C 417.902344 349.304688 414.648438 361.117188 407.550781 364.660156 C 400.457031 368.210938 386.867188 366.140625 386.867188 366.140625 C 386.867188 366.140625 373.261719 376.484375 360.855469 370.574219 C 352.691406 366.6875 340.757812 350.1875 340.757812 350.1875 C 340.757812 350.1875 327.15625 354.027344 320.070312 344.574219 C 313.402344 335.683594 310.613281 319.160156 310.613281 319.160156 C 310.613281 319.160156 304.695312 318.28125 302.925781 313.847656 C 301.152344 309.414062 304.394531 299.660156 304.394531 299.660156 C 304.394531 299.660156 298.777344 299.660156 298.1875 290.203125 C 297.816406 284.265625 302.625 276.617188 302.625 276.617188 C 302.625 276.617188 299.082031 272.476562 298.1875 263.609375 C 297.308594 254.746094 307.054688 244.699219 307.054688 244.699219 C 307.054688 244.699219 305.285156 238.496094 306.175781 230.523438 C 306.558594 227.066406 310.890625 221.84375 315.679688 217.0625 C 321.769531 210.988281 328.578125 205.585938 328.925781 205.308594 C 328.855469 205.308594 328.3125 204.984375 325.683594 196.835938 C 322.953125 188.367188 334.554688 183.539062 334.554688 183.539062 L 349.625 190.632812 C 349.625 190.632812 385.097656 182.660156 394.84375 186.199219 C 404.601562 189.738281 404.601562 207.472656 404.601562 207.472656 C 404.601562 207.472656 402.414062 214.507812 402.878906 219.621094 L 402.878906 219.632812 C 402.980469 220.949219 403.269531 222.128906 403.816406 223.03125 C 406.476562 227.464844 412.578125 233.179688 418.785156 241.152344 C 420.40625 243.222656 422.257812 247.449219 423.777344 251.347656 C 423.789062 251.359375 423.789062 251.371094 423.789062 251.382812 C 425.5 255.792969 426.773438 259.773438 426.773438 259.773438 C 426.773438 259.773438 430.3125 262.421875 434.75 266.855469 C 439.183594 271.289062 439.183594 294.335938 439.183594 294.335938 C 439.183594 294.335938 438.292969 298.773438 439.183594 305.851562 C 439.789062 310.773438 436.59375 318.644531 434.554688 323.027344 Z M 434.554688 323.027344 " fill-opacity="1" fill-rule="nonzero"/><path fill="#f7a76d" d="M 655.621094 956.628906 C 655.621094 956.640625 655.621094 956.640625 655.621094 956.640625 C 655.597656 958.605469 655.136719 960.46875 654.0625 962.089844 C 649.324219 969.1875 596.722656 968.597656 593.757812 966.816406 C 590.808594 965.042969 589.035156 949.085938 594.347656 943.773438 C 599.675781 938.449219 583.710938 906.546875 581.347656 898.273438 C 578.984375 890 576.609375 879.957031 576.609375 877.59375 C 576.609375 875.222656 500.355469 748.1875 494.449219 739.910156 C 489.109375 732.4375 428.808594 658.464844 409.339844 608.507812 C 407.242188 603.148438 405.625 598.058594 404.589844 593.359375 C 393.953125 544.90625 481.425781 502.367188 507.4375 559.070312 C 507.449219 559.082031 507.449219 559.082031 507.449219 559.082031 C 507.449219 559.082031 517.355469 596.898438 526.050781 630.019531 C 526.050781 630.019531 526.050781 630.019531 526.050781 630.03125 C 531.445312 650.570312 536.375 669.308594 538.179688 676.085938 C 542.917969 693.8125 552.375 705.632812 567.738281 720.996094 C 583.113281 736.351562 593.75 763.535156 598.488281 780.082031 C 602.003906 792.40625 608.140625 833.546875 612.035156 856.691406 C 612.046875 856.726562 612.054688 856.761719 612.054688 856.78125 C 613.363281 864.59375 614.417969 870.347656 615.03125 872.210938 C 615.042969 872.242188 615.042969 872.265625 615.042969 872.265625 C 617.402344 879.363281 644.597656 933.726562 648.140625 938.449219 C 650.878906 942.105469 655.726562 949.960938 655.621094 956.628906 Z M 655.621094 956.628906 " fill-opacity="1" fill-rule="nonzero"/><path fill="#f5833b" d="M 159.851562 250.921875 C 159.851562 250.921875 133.847656 258.898438 130.296875 255.359375 C 118.308594 243.402344 102.710938 169.875 109.410156 164.746094 C 107.046875 167.5 108.230469 178.136719 109.800781 180.890625 C 111.378906 183.65625 157.203125 247.367188 159.851562 250.921875 Z M 159.851562 250.921875 " fill-opacity="0.61" fill-rule="nonzero"/><path fill="#ffebc5" d="M 409.945312 184.914062 C 409.410156 190.75 402.246094 192.414062 403.574219 199.371094 C 378.628906 203.058594 351.007812 190.261719 326.570312 189.695312 C 326.695312 188.585938 327.296875 187.71875 325.675781 189.753906 C 320.292969 181.144531 325.804688 177.699219 329.21875 171.585938 C 330.109375 169.992188 328.652344 167.511719 329.636719 165.800781 C 329.832031 165.453125 330.039062 165.152344 330.269531 164.875 C 333.382812 161.089844 339.453125 162.941406 340.15625 161.980469 C 340.65625 161.3125 341.660156 160.050781 342.832031 158.699219 C 344.820312 156.382812 347.273438 153.753906 348.433594 153.117188 C 353.507812 150.34375 359.1875 155.511719 364.6875 156.078125 C 372.167969 156.855469 379.832031 157.675781 387.296875 158.738281 C 393.066406 159.550781 408.785156 162.765625 400.9375 172.039062 C 404.640625 174.777344 410.417969 179.800781 409.945312 184.914062 Z M 409.945312 184.914062 " fill-opacity="1" fill-rule="nonzero"/><path fill="#f2d9ac" d="M 374.441406 180.304688 C 376.9375 175.84375 377.609375 170.789062 379.792969 166.300781 C 379.722656 170.175781 379.46875 185.292969 387.0625 180.558594 C 387.382812 185.304688 390.667969 189.375 395.664062 189.878906 C 388.417969 198.851562 377.167969 189.871094 375.03125 181.488281 Z M 374.441406 180.304688 " fill-opacity="0.64" fill-rule="nonzero"/><path fill="#f7a76d" d="M 328.335938 205.710938 C 328.335938 205.710938 313.261719 196.847656 319.46875 187.984375 C 325.671875 179.121094 332.765625 187.984375 332.765625 187.984375 C 332.765625 187.984375 332.765625 196.847656 328.335938 205.710938 Z M 328.335938 205.710938 " fill-opacity="1" fill-rule="nonzero"/><path fill="#f7a76d" d="M 342.71875 208.46875 C 342.71875 208.46875 337.273438 181.648438 343.902344 183.652344 C 364.789062 189.953125 375.824219 176.558594 375.824219 176.558594 C 375.824219 176.558594 380.246094 187.328125 388.4375 188.769531 C 395.136719 189.953125 398.386719 187.097656 398.386719 187.097656 C 398.386719 187.097656 394.839844 191.527344 396.613281 198.621094 C 398.386719 205.714844 397.5 212.511719 395.726562 216.941406 C 395.726562 216.941406 386.5625 213.394531 385.085938 225.214844 C 385.085938 225.214844 366.167969 215.171875 354.9375 221.667969 C 354.9375 221.667969 353.753906 207.484375 342.71875 208.46875 Z M 342.71875 208.46875 " fill-opacity="1" fill-rule="nonzero"/><path fill="#e05e2b" d="M 324.53125 188.132812 C 326.449219 189.160156 327.550781 191.835938 328.261719 193.789062 C 329.199219 196.382812 329.585938 199.183594 329.390625 201.933594 C 329.320312 203 327.6875 202.925781 327.734375 201.851562 C 327.847656 199.332031 327.664062 196.898438 326.933594 194.472656 C 326.292969 192.335938 324.800781 190.378906 324.375 188.234375 C 324.359375 188.148438 324.453125 188.089844 324.53125 188.132812 Z M 324.53125 188.132812 " fill-opacity="1" fill-rule="nonzero"/><path fill="#e05e2b" d="M 320.039062 192.003906 C 323.636719 191.378906 327.277344 194.648438 329.066406 197.425781 C 329.605469 198.261719 328.210938 198.996094 327.699219 198.140625 C 326.773438 196.601562 325.570312 195.304688 324.058594 194.328125 C 322.769531 193.496094 321.304688 193.066406 319.984375 192.3125 C 319.859375 192.238281 319.898438 192.023438 320.039062 192.003906 Z M 320.039062 192.003906 " fill-opacity="1" fill-rule="nonzero"/><path fill="#4f1e20" d="M 389.078125 208.214844 C 388.691406 210.960938 387.167969 213.011719 385.675781 212.804688 C 384.183594 212.589844 383.289062 210.195312 383.671875 207.457031 C 384.058594 204.710938 385.582031 202.660156 387.074219 202.867188 C 388.566406 203.078125 389.464844 205.472656 389.078125 208.214844 Z M 389.078125 208.214844 " fill-opacity="1" fill-rule="nonzero"/><path fill="#4f1e20" d="M 384.101562 208.074219 C 383.023438 205.25 385.367188 202.457031 387.429688 200.855469 C 387.664062 200.671875 388.019531 200.730469 388.261719 200.851562 C 388.320312 200.878906 388.378906 200.910156 388.4375 200.9375 C 388.582031 201.007812 388.699219 201.203125 388.6875 201.367188 C 388.644531 201.996094 388.421875 202.125 387.925781 202.457031 C 387.25 202.921875 386.679688 203.476562 386.179688 204.128906 C 385.257812 205.335938 384.851562 206.734375 384.21875 208.085938 C 384.191406 208.140625 384.117188 208.117188 384.101562 208.074219 Z M 384.101562 208.074219 " fill-opacity="1" fill-rule="nonzero"/><path fill="#e05e2b" d="M 373.894531 205.121094 C 373.3125 206.128906 373.628906 208.0625 373.816406 209.152344 C 374.164062 211.128906 375.09375 212.488281 376.238281 214.0625 C 377.1875 215.382812 377.511719 216.59375 376.8125 218.121094 C 375.398438 221.175781 370.726562 222.46875 368.429688 219.648438 C 367.957031 219.066406 368.523438 218.289062 369.21875 218.609375 C 372.523438 220.121094 376.863281 219.339844 374.5625 214.390625 C 373.875 212.914062 373.042969 211.910156 372.710938 210.265625 C 372.433594 208.886719 371.984375 205.511719 373.820312 205.035156 C 373.875 205.019531 373.921875 205.078125 373.894531 205.121094 Z M 373.894531 205.121094 " fill-opacity="1" fill-rule="nonzero"/><path fill="#4f1e20" d="M 358.71875 206.472656 C 358.292969 209.480469 356.625 211.726562 354.992188 211.5 C 353.355469 211.269531 352.375 208.648438 352.800781 205.640625 C 353.226562 202.632812 354.894531 200.382812 356.527344 200.613281 C 358.164062 200.84375 359.140625 203.464844 358.71875 206.472656 Z M 358.71875 206.472656 " fill-opacity="1" fill-rule="nonzero"/><path fill="#4f1e20" d="M 357.109375 198.316406 C 355.523438 198.890625 354.488281 200.390625 353.816406 201.875 C 353.285156 203.03125 352.273438 205.132812 353.203125 206.265625 C 353.359375 206.457031 353.671875 206.480469 353.878906 206.371094 C 354.929688 205.828125 354.929688 204.167969 355.277344 203.148438 C 355.8125 201.570312 356.855469 200.570312 357.773438 199.234375 C 358.058594 198.820312 357.617188 198.132812 357.109375 198.316406 Z M 357.109375 198.316406 " fill-opacity="1" fill-rule="nonzero"/><path fill="#e0c48e" d="M 376.117188 227.703125 C 372.390625 225.363281 366.222656 225.980469 362.117188 226.839844 C 360.164062 227.25 360.570312 230.515625 362.589844 230.359375 C 364.941406 230.171875 367.261719 229.824219 369.628906 229.796875 C 371.730469 229.777344 373.871094 229.972656 375.90625 229.335938 C 376.644531 229.105469 376.78125 228.113281 376.117188 227.703125 Z M 376.117188 227.703125 " fill-opacity="1" fill-rule="nonzero"/><path fill="#ffeecc" d="M 346.742188 188.199219 C 343.484375 189.554688 343.25 194.546875 345.902344 195.636719 C 348.554688 196.730469 360.996094 198.925781 363.433594 198.40625 C 365.871094 197.890625 366.792969 193.234375 365.449219 191.101562 C 364.101562 188.96875 350.488281 186.640625 346.742188 188.199219 Z M 346.742188 188.199219 " fill-opacity="1" fill-rule="nonzero"/><path fill="#ffeecc" d="M 382.15625 191.851562 C 380.410156 194.023438 380.445312 198.6875 382.625 199.417969 C 384.804688 200.144531 395.257812 199.035156 397.320312 196.964844 C 399.382812 194.894531 397.589844 190.449219 395.109375 190.191406 C 392.628906 189.933594 383.738281 189.886719 382.15625 191.851562 Z M 382.15625 191.851562 " fill-opacity="1" fill-rule="nonzero"/><path fill="#f2d9ac" d="M 434.554688 323.027344 C 433.640625 324.980469 432.972656 326.253906 432.972656 326.253906 C 432.972656 326.253906 432.972656 331.578125 430.308594 337.777344 C 427.648438 343.984375 417.902344 349.304688 417.902344 349.304688 C 417.902344 349.304688 414.648438 361.117188 407.550781 364.660156 C 400.457031 368.210938 386.867188 366.140625 386.867188 366.140625 C 386.867188 366.140625 373.261719 376.484375 360.855469 370.574219 C 352.691406 366.6875 340.757812 350.1875 340.757812 350.1875 C 340.757812 350.1875 327.15625 354.027344 320.070312 344.574219 C 313.402344 335.683594 310.613281 319.160156 310.613281 319.160156 C 310.613281 319.160156 304.695312 318.28125 302.925781 313.847656 C 301.152344 309.414062 304.394531 299.660156 304.394531 299.660156 C 304.394531 299.660156 298.777344 299.660156 298.1875 290.203125 C 297.816406 284.265625 302.625 276.617188 302.625 276.617188 C 302.625 276.617188 299.082031 272.476562 298.1875 263.609375 C 297.308594 254.746094 307.054688 244.699219 307.054688 244.699219 C 307.054688 244.699219 305.285156 238.496094 306.175781 230.523438 C 306.558594 227.066406 310.890625 221.84375 315.679688 217.0625 C 310.746094 225.015625 308.304688 236.398438 318.816406 237.71875 C 313.363281 252.554688 328.457031 249.890625 337.003906 248.203125 C 329.605469 254.472656 342.304688 255.214844 346.460938 253.527344 C 342.929688 256.914062 334.929688 266.1875 330.554688 258.976562 C 328.425781 260.632812 324.9375 263.503906 322.867188 261.429688 C 318.613281 269.796875 312.136719 282.1875 324.554688 286.054688 C 315.929688 296.828125 315.6875 321.835938 330.484375 326.953125 C 324.671875 342.496094 338.820312 353.242188 352.019531 343.003906 C 355.605469 355.894531 367.601562 351.230469 374.304688 344.019531 C 381.007812 358.878906 397.792969 350.558594 403.277344 340.015625 C 407.144531 348.972656 416.929688 340.523438 418.929688 334.691406 C 421.246094 343.148438 430.113281 330.222656 431.933594 327.410156 C 432.671875 326.28125 433.550781 324.71875 434.554688 323.027344 Z M 434.554688 323.027344 " fill-opacity="0.64" fill-rule="nonzero"/><path fill="#f2d9ac" d="M 423.769531 251.363281 C 419.515625 244.175781 412.4375 236.320312 404.726562 243.460938 C 402.25 235.058594 391.0625 234.558594 385.171875 239.792969 C 384.421875 238.394531 383.589844 236.785156 382.789062 235.371094 C 387.804688 234.617188 391.484375 232.871094 394.074219 228.253906 C 398.730469 229.824219 401.683594 223.449219 402.875 219.644531 C 402.976562 220.960938 403.265625 222.140625 403.8125 223.042969 C 406.472656 227.476562 412.574219 233.191406 418.78125 241.164062 C 420.398438 243.238281 422.25 247.460938 423.769531 251.363281 Z M 423.769531 251.363281 " fill-opacity="0.64" fill-rule="nonzero"/><path fill="#ebd1a2" d="M 349.574219 169.535156 C 344.707031 169.894531 333.480469 170.03125 330.273438 164.871094 C 333.386719 161.085938 339.457031 162.9375 340.160156 161.976562 C 340.660156 161.308594 341.664062 160.046875 342.835938 158.695312 C 341.503906 163.160156 343.15625 167.648438 349.574219 169.535156 Z M 349.574219 169.535156 " fill-opacity="1" fill-rule="nonzero"/><path fill="#fcb515" d="M 408.140625 156.667969 L 400.9375 172.039062 C 398.34375 172.894531 395.691406 173.621094 393.019531 174.210938 C 392.996094 174.222656 392.972656 174.222656 392.960938 174.222656 C 362.6875 180.949219 329.21875 171.585938 329.21875 171.585938 L 326.558594 156.667969 C 326.558594 156.667969 332.472656 166.414062 336.015625 165.234375 C 337.460938 164.746094 339.011719 162.628906 340.332031 160.300781 C 342.25 156.933594 343.699219 153.113281 343.699219 153.113281 C 343.699219 153.113281 346.949219 168.785156 355.226562 166.414062 C 363.503906 164.054688 364.984375 151.933594 364.984375 151.933594 C 364.984375 151.933594 369.976562 171.558594 377.09375 166.414062 C 384.226562 161.273438 386.261719 153.714844 386.261719 153.714844 C 386.261719 153.714844 391.878906 166.714844 396.597656 165.53125 C 401.34375 164.351562 408.140625 156.667969 408.140625 156.667969 Z M 408.140625 156.667969 " fill-opacity="1" fill-rule="nonzero"/><path fill="#e8a307" d="M 392.960938 174.222656 C 362.6875 180.949219 329.21875 171.585938 329.21875 171.585938 L 326.558594 156.667969 C 326.558594 156.667969 332.472656 166.414062 336.015625 165.234375 C 337.460938 164.746094 339.011719 162.628906 340.332031 160.300781 C 347.058594 166.875 363.046875 177.796875 392.960938 174.222656 Z M 392.960938 174.222656 " fill-opacity="1" fill-rule="nonzero"/><path fill="#f5e5c9" d="M 481.4375 488.175781 C 481.4375 488.175781 462.234375 484.925781 447.148438 491.125 C 432.074219 497.328125 417.898438 527.460938 414.339844 531.015625 C 410.800781 534.554688 422.328125 491.125 440.0625 483.152344 C 457.554688 475.269531 476.773438 473.441406 472.191406 459.796875 C 478.082031 462.214844 483.257812 465.074219 484.984375 468.082031 C 489.714844 476.351562 481.4375 488.175781 481.4375 488.175781 Z M 481.4375 488.175781 " fill-opacity="0.63" fill-rule="nonzero"/><path fill="#f0debb" d="M 406.367188 498.21875 C 406.367188 498.21875 386.863281 606.347656 360.257812 622.308594 C 333.652344 638.265625 314.148438 616.996094 285.773438 606.347656 C 257.398438 595.714844 250.300781 613.445312 244.988281 606.347656 C 242.289062 602.761719 233.203125 588.679688 224.671875 559.019531 C 228.488281 568.875 237.523438 590.136719 244.988281 592.171875 C 254.734375 594.832031 271.578125 579.765625 289.3125 577.984375 C 307.046875 576.214844 329.21875 606.34375 351.386719 592.171875 C 367.859375 581.632812 388.242188 527.550781 397.632812 500.449219 C 403.066406 499.445312 406.367188 498.21875 406.367188 498.21875 Z M 406.367188 498.21875 " fill-opacity="0.63" fill-rule="nonzero"/><path fill="#f5833b" d="M 507.445312 559.066406 C 506.886719 558.410156 483.015625 530.359375 440.949219 549.625 C 410.523438 563.570312 408.195312 592.90625 409.34375 608.503906 C 407.246094 603.144531 405.628906 598.054688 404.59375 593.355469 C 393.957031 544.902344 481.433594 502.363281 507.445312 559.066406 Z M 507.445312 559.066406 " fill-opacity="0.61" fill-rule="nonzero"/><path fill="#f5833b" d="M 642.230469 163.167969 C 639.859375 173.816406 587.855469 239.984375 583.121094 239.984375 C 578.394531 239.984375 561.839844 237.625 561.839844 237.625 C 568.9375 234.976562 612.082031 197.734375 620.070312 191.53125 C 628.046875 185.320312 640.457031 166.714844 642.230469 163.167969 Z M 642.230469 163.167969 " fill-opacity="0.61" fill-rule="nonzero"/><path fill="#e8762e" d="M 407.242188 394.296875 C 407.414062 396.535156 411.523438 398.042969 416.429688 397.671875 C 421.332031 397.300781 425.164062 395.1875 424.996094 392.953125 C 424.824219 390.714844 420.714844 389.210938 415.8125 389.578125 C 410.910156 389.949219 407.074219 392.0625 407.242188 394.296875 Z M 407.242188 394.296875 " fill-opacity="1" fill-rule="nonzero"/><path fill="#ffbc26" d="M 648.304688 525.144531 C 643.742188 525.769531 639.300781 527.21875 635.140625 530.125 C 630.496094 533.375 625.742188 540.734375 620.195312 549.820312 C 610.585938 546.070312 602.078125 537.890625 595.535156 529.871094 C 600.910156 518.519531 606.453125 508.703125 613.851562 503.53125 C 620.230469 499.0625 629.59375 498.507812 639.296875 498.949219 C 643.191406 507.511719 646.6875 516.792969 648.304688 525.144531 Z M 648.304688 525.144531 " fill-opacity="1" fill-rule="nonzero"/><g clip-path="url(#854cd1eba9)"><path fill="#ffbc26" d="M 741.542969 452.128906 C 741.542969 452.128906 722.039062 460.992188 716.722656 476.941406 C 716.15625 478.640625 715.566406 480.398438 714.953125 482.195312 C 705.597656 478.515625 696.523438 472.949219 688.777344 467.371094 C 692.863281 456.308594 698.570312 445.460938 708.398438 440.5 C 719.308594 445.417969 730.386719 449.382812 741.542969 452.128906 Z M 741.542969 452.128906 " fill-opacity="1" fill-rule="nonzero"/></g><path fill="#ffba1f" d="M 631.589844 721.585938 C 628.40625 734.351562 638.617188 752.21875 635.417969 777.503906 C 627.039062 768.304688 612.425781 751.535156 600.03125 733.613281 C 599.925781 732.546875 599.808594 731.496094 599.671875 730.453125 C 595.96875 701.78125 607.71875 689.511719 623.578125 681.0625 C 633.175781 687.058594 643.015625 694.375 651.742188 701.324219 C 641.835938 706.96875 633.804688 712.746094 631.589844 721.585938 Z M 631.589844 721.585938 " fill-opacity="1" fill-rule="nonzero"/><path fill="#ffba1f" d="M 560.242188 871.285156 C 522.085938 891.476562 473.710938 899.53125 428.246094 887.84375 C 422.0625 871.433594 417.007812 851.382812 417.007812 851.382812 C 433.628906 858.453125 454.164062 863.402344 479.078125 863.402344 C 504.246094 863.402344 525.550781 856.863281 542.9375 846.230469 Z M 560.242188 871.285156 " fill-opacity="1" fill-rule="nonzero"/><path fill="#f5833b" d="M 293.460938 716.261719 C 297 713.902344 305.277344 711.539062 312.375 705.628906 C 318.199219 700.789062 351.066406 669.695312 362.6875 658.667969 C 348.574219 676.789062 334.835938 694.386719 334.835938 697.351562 C 334.835938 703.269531 351.390625 728.089844 353.75 738.722656 C 355.878906 748.269531 369.425781 831.152344 372.59375 849.285156 C 372.167969 848.671875 371.796875 848.058594 371.484375 847.445312 C 366.757812 837.992188 363.207031 804.90625 346.664062 771.808594 C 330.109375 738.722656 289.90625 718.636719 293.460938 716.261719 Z M 293.460938 716.261719 " fill-opacity="0.61" fill-rule="nonzero"/><path fill="#f5833b" d="M 393.957031 877.59375 C 393.367188 884.085938 376.222656 901.8125 372.074219 908.90625 C 367.945312 916 357.300781 947.90625 352.570312 950.867188 C 347.84375 953.816406 291.097656 956.179688 288.132812 953.226562 C 286.117188 951.214844 286.859375 946.433594 288.851562 942.292969 C 297.648438 951.144531 306.0625 939.042969 306.445312 938.476562 C 306.332031 938.902344 304.257812 946.796875 310.011719 949.085938 C 315.914062 951.457031 338.382812 947.90625 344.289062 944.363281 C 350.203125 940.824219 358.480469 902.992188 369.121094 898.273438 C 379.761719 893.535156 393.957031 877.59375 393.957031 877.59375 Z M 393.957031 877.59375 " fill-opacity="0.61" fill-rule="nonzero"/><path fill="#f5833b" d="M 612.039062 856.691406 C 607.328125 833.464844 597.589844 790.117188 586.660156 768.265625 C 571.296875 737.539062 538.1875 726.894531 538.1875 719.8125 C 538.1875 713.839844 528.960938 650.011719 526.058594 630.023438 C 531.453125 650.5625 536.382812 669.300781 538.1875 676.078125 C 542.925781 693.804688 552.382812 705.625 567.746094 720.988281 C 583.121094 736.34375 593.757812 763.527344 598.496094 780.074219 C 602.011719 792.40625 608.148438 833.546875 612.039062 856.691406 Z M 612.039062 856.691406 " fill-opacity="0.61" fill-rule="nonzero"/><path fill="#f5833b" d="M 655.621094 956.640625 C 655.597656 958.605469 655.136719 960.46875 654.0625 962.089844 C 649.324219 969.1875 596.722656 968.597656 593.757812 966.816406 C 590.808594 965.042969 589.035156 949.085938 594.347656 943.773438 C 599.675781 938.449219 583.710938 906.546875 581.347656 898.273438 C 578.984375 890 576.609375 879.957031 576.609375 877.59375 C 590.203125 936.105469 629.226562 939.632812 625.683594 940.828125 C 622.132812 942.007812 606.769531 939.636719 603.210938 942.007812 C 599.671875 944.367188 598.488281 960.914062 598.488281 960.914062 C 598.488281 960.914062 637.503906 962.09375 645.78125 962.09375 C 651.480469 962.089844 654.375 958.734375 655.621094 956.640625 Z M 655.621094 956.640625 " fill-opacity="0.61" fill-rule="nonzero"/><path fill="#f5833b" d="M 90.695312 119.730469 C 90.695312 119.730469 81.238281 140.710938 83.894531 141.890625 C 86.554688 143.074219 90.695312 119.730469 90.695312 119.730469 Z M 90.695312 119.730469 " fill-opacity="1" fill-rule="nonzero"/><path fill="#f5833b" d="M 100.347656 124.164062 C 100.347656 124.164062 90.988281 147.210938 94.238281 146.621094 C 97.492188 146.027344 100.347656 124.164062 100.347656 124.164062 Z M 100.347656 124.164062 " fill-opacity="1" fill-rule="nonzero"/><g clip-path="url(#7569a1826b)"><path fill="#ffea8c" d="M 560.660156 283.40625 L 506.273438 355.804688 L 529.914062 345.171875 L 463.703125 427.894531 L 469.621094 397.171875 L 436.40625 435.546875 L 378.582031 502.351562 L 383.316406 512.984375 L 312.378906 566.171875 L 380.945312 463.351562 L 386.863281 476.351562 C 386.863281 476.351562 411.429688 446.351562 441.28125 409.554688 C 488.945312 350.816406 550.105469 274.714844 546.46875 275.445312 C 540.554688 276.625 532.289062 277.804688 532.289062 277.804688 L 620.953125 184.441406 L 600.859375 190.355469 L 685.980469 92.257812 L 741.542969 42.625 Z M 560.660156 283.40625 " fill-opacity="1" fill-rule="nonzero"/></g><path fill="#fad257" d="M 560.660156 283.40625 L 506.273438 355.804688 L 529.914062 345.171875 L 463.703125 427.894531 L 469.621094 397.171875 L 436.40625 435.546875 L 441.28125 409.554688 C 488.945312 350.816406 550.105469 274.714844 546.46875 275.445312 C 540.554688 276.625 532.289062 277.804688 532.289062 277.804688 L 592.578125 230.53125 Z M 560.660156 283.40625 " fill-opacity="1" fill-rule="nonzero"/><path fill="#fad257" d="M 380.945312 463.351562 L 349.613281 527.46875 L 383.316406 512.984375 L 312.375 566.171875 Z M 380.945312 463.351562 " fill-opacity="1" fill-rule="nonzero"/><path fill="#f5833b" d="M 108.234375 133.222656 C 108.234375 133.222656 100.152344 148.984375 101.925781 149.871094 C 103.695312 150.757812 108.234375 133.222656 108.234375 133.222656 Z M 108.234375 133.222656 " fill-opacity="1" fill-rule="nonzero"/><path fill="#f5833b" d="M 114.136719 151.34375 C 114.136719 151.34375 111.777344 161.976562 109.414062 164.746094 C 109.171875 165.035156 108.949219 165.417969 108.789062 165.855469 L 108.429688 166.125 C 111.679688 157.847656 111.679688 145.734375 111.679688 145.734375 Z M 114.136719 151.34375 " fill-opacity="1" fill-rule="nonzero"/><path fill="#f7a76d" d="M 665.449219 167.386719 C 666.476562 164.71875 667.0625 163.167969 667.0625 163.167969 C 667.0625 163.167969 669.03125 161.191406 671.40625 158.828125 C 673.765625 156.46875 676.523438 148.980469 676.523438 148.980469 C 676.523438 148.980469 678.886719 147.800781 680.46875 145.441406 C 682.042969 143.070312 682.042969 139.132812 682.042969 139.132812 C 682.042969 139.132812 687.554688 135.59375 685.191406 129.285156 C 682.832031 122.980469 665.097656 102.496094 660.753906 105.25 C 656.425781 108.015625 656.027344 113.523438 656.027344 113.523438 C 656.027344 113.523438 653.273438 113.917969 650.503906 116.683594 C 647.75 119.4375 647.75 123.765625 647.75 123.765625 C 647.75 123.765625 643.417969 123.371094 641.046875 126.53125 C 638.6875 129.675781 639.867188 134.804688 639.867188 134.804688 C 639.867188 134.804688 634.355469 136.769531 633.566406 141.101562 C 632.769531 145.441406 643.0625 156.144531 646.238281 158.410156 C 652.136719 162.621094 658.078125 164.605469 665.449219 167.386719 Z M 665.449219 167.386719 " fill-opacity="1" fill-rule="nonzero"/><path fill="#f5833b" d="M 639.867188 134.808594 C 639.867188 134.808594 656.421875 150.5625 659.96875 150.957031 C 663.515625 151.347656 641.046875 135.601562 639.867188 134.808594 Z M 639.867188 134.808594 " fill-opacity="1" fill-rule="nonzero"/><path fill="#f5833b" d="M 647.75 123.769531 C 647.75 123.769531 669.035156 143.074219 670.609375 139.925781 C 672.183594 136.769531 647.75 123.769531 647.75 123.769531 Z M 647.75 123.769531 " fill-opacity="1" fill-rule="nonzero"/><path fill="#f5833b" d="M 656.027344 113.523438 C 656.027344 113.523438 676.128906 132.828125 677.308594 129.285156 C 678.492188 125.738281 656.027344 113.523438 656.027344 113.523438 Z M 656.027344 113.523438 " fill-opacity="1" fill-rule="nonzero"/></svg>