<svg xmlns="http://www.w3.org/2000/svg" xmlns:xlink="http://www.w3.org/1999/xlink" width="1080" zoomAndPan="magnify" viewBox="0 0 810 1012.49997" height="1350" preserveAspectRatio="xMidYMid meet" version="1.0"><defs><clipPath id="7503d2210a"><path d="M 152 72.078125 L 496 72.078125 L 496 715 L 152 715 Z M 152 72.078125 " clip-rule="nonzero"/></clipPath></defs><path fill="#a8decb" d="M 766.996094 856.089844 L 766.996094 856.097656 C 764.570312 860.941406 761.632812 865.613281 758.296875 870.113281 C 740.75 893.84375 712.464844 912.542969 692.457031 923.527344 C 678.898438 930.972656 669.136719 934.871094 669.117188 934.378906 L 247.96875 937.53125 L 211.085938 937.804688 L 195.6875 937.917969 L 165.261719 938.152344 L 113.011719 938.539062 C 96.984375 940.140625 78.953125 937.855469 63.984375 930.949219 C 48.179688 923.671875 35.78125 911.226562 32.761719 892.769531 C 29.191406 871.007812 45.9375 835.078125 71.355469 843.25 C 84.777344 847.574219 90.804688 874.304688 106.554688 865.671875 C 95.371094 836.28125 78.363281 816.914062 89.535156 781.84375 C 114.527344 703.441406 288.4375 661.578125 331.785156 740.992188 C 347.488281 769.773438 324.933594 777.5 310.75 795.324219 C 307.527344 799.382812 304.722656 803.972656 302.917969 809.449219 C 302.480469 810.773438 302.121094 812.105469 301.84375 813.4375 C 300.835938 818.183594 300.785156 823.015625 301.507812 827.796875 C 303.832031 843.300781 314.308594 858.21875 327.074219 867.746094 C 330.4375 870.265625 333.96875 872.394531 337.542969 874.070312 C 363.71875 886.292969 431.253906 889.367188 458.804688 880.21875 C 485.644531 871.308594 479.1875 833.613281 506.59375 828.085938 C 520.617188 825.261719 522.769531 833.09375 522.042969 844.515625 C 521.769531 848.777344 521.09375 853.539062 520.496094 858.445312 C 520.484375 858.535156 520.464844 858.628906 520.453125 858.730469 C 518.90625 871.355469 517.875 884.808594 525.347656 892.820312 C 547.199219 916.238281 596.28125 910.71875 624.269531 892.609375 C 629.082031 889.496094 633.273438 886.019531 636.597656 882.25 C 645.238281 872.425781 647.796875 859.183594 644.90625 849.328125 C 644.898438 849.316406 644.898438 849.316406 644.90625 849.316406 C 641.449219 837.578125 630.253906 830.652344 612.371094 840.117188 C 599.695312 846.820312 604.449219 860.535156 587.367188 853.195312 C 573.253906 847.125 570.71875 827.503906 573.773438 815.632812 C 587.949219 760.636719 648.457031 772.089844 683.367188 794.65625 C 681.414062 762.695312 708.726562 740.742188 733.160156 759.925781 C 777.867188 795.03125 780.9375 828.25 766.996094 856.089844 Z M 766.996094 856.089844 " fill-opacity="1" fill-rule="nonzero"/><path fill="#86cfb5" d="M 522.050781 844.515625 C 520.246094 840.609375 516.367188 837.90625 510.742188 838.480469 C 503.15625 839.257812 497.085938 851.800781 494.039062 857.386719 C 485.644531 872.714844 483.3125 890.734375 470.25 903.03125 C 443.097656 928.589844 392.570312 921.847656 360.949219 910.425781 C 341.257812 903.316406 320.632812 891.070312 307.84375 874 C 299.523438 862.890625 294.519531 849.75 295.261719 834.65625 C 295.457031 830.800781 296.066406 827.222656 297.054688 823.90625 C 298.195312 820.101562 299.820312 816.625 301.847656 813.441406 C 300.835938 818.1875 300.785156 823.019531 301.511719 827.800781 C 303.835938 843.300781 314.3125 858.222656 327.078125 867.746094 C 330.441406 870.265625 333.972656 872.398438 337.546875 874.070312 C 363.722656 886.296875 431.257812 889.371094 458.808594 880.222656 C 485.644531 871.308594 479.1875 833.617188 506.597656 828.089844 C 520.621094 825.261719 522.773438 833.09375 522.050781 844.515625 Z M 522.050781 844.515625 " fill-opacity="0.51" fill-rule="nonzero"/><path fill="#d8f5eb" d="M 766.996094 856.089844 C 778.277344 788.9375 715.757812 776.359375 707.640625 787.527344 C 699.3125 798.980469 705.5625 825.015625 694.109375 812.523438 C 682.652344 800.019531 654.539062 786.476562 662.867188 795.859375 C 663.4375 796.503906 663.929688 797.207031 664.316406 797.972656 C 669.730469 808.28125 659.574219 828.21875 643.074219 829.1875 C 625.375 830.226562 612.375 840.121094 612.375 840.121094 C 599.699219 846.820312 604.449219 860.539062 587.371094 853.195312 C 573.257812 847.128906 570.722656 827.507812 573.777344 815.636719 C 577.421875 801.511719 584.121094 791.761719 592.652344 785.472656 C 617.347656 767.257812 657.433594 777.882812 683.371094 794.65625 C 681.417969 762.695312 708.730469 740.742188 733.164062 759.925781 C 777.867188 795.03125 780.9375 828.25 766.996094 856.089844 Z M 766.996094 856.089844 " fill-opacity="1" fill-rule="nonzero"/><path fill="#d8f5eb" d="M 310.75 795.328125 C 293.769531 790.1875 290.570312 750.328125 290.570312 754.1875 C 290.570312 758.882812 279.640625 799.5 256.203125 810.433594 C 232.773438 821.375 212.46875 777.625 212.46875 783.875 C 212.46875 790.125 207.777344 840.117188 164.042969 844.808594 C 120.296875 849.488281 123.429688 821.375 121.859375 827.613281 C 120.296875 833.867188 137.480469 876.046875 123.429688 890.105469 C 109.367188 904.171875 82.816406 877.613281 82.816406 883.855469 C 82.816406 890.105469 89.054688 908.847656 78.125 918.234375 C 67.191406 927.605469 53.132812 904.171875 54.691406 913.539062 C 55.425781 917.988281 59.699219 924.910156 63.980469 930.949219 C 48.175781 923.671875 35.777344 911.226562 32.757812 892.769531 C 29.1875 871.007812 45.933594 835.078125 71.351562 843.25 C 84.773438 847.574219 90.800781 874.304688 106.550781 865.671875 C 95.367188 836.28125 78.359375 816.914062 89.53125 781.84375 C 92.09375 773.820312 96.203125 766.179688 101.59375 759.011719 C 104.09375 755.664062 106.875 752.421875 109.914062 749.292969 C 139.425781 718.792969 192.101562 698.976562 239.769531 698.363281 C 242.429688 698.324219 245.085938 698.351562 247.714844 698.4375 C 283.925781 699.636719 316.238281 712.527344 331.777344 740.992188 C 347.488281 769.777344 324.933594 777.503906 310.75 795.328125 Z M 310.75 795.328125 " fill-opacity="1" fill-rule="nonzero"/><path fill="#b5f0db" d="M 307.84375 873.996094 C 306 877.238281 305.285156 881.941406 306.109375 888.546875 C 308.433594 907.160156 317.296875 922.925781 291.355469 917.445312 C 279.609375 914.96875 254.230469 896.59375 245.410156 908.207031 C 241.242188 913.703125 245.378906 926.164062 247.96875 937.523438 L 211.085938 937.796875 C 205.128906 931.515625 199.898438 925.761719 196.726562 923.460938 C 194.882812 928.082031 194.972656 932.941406 195.6875 937.910156 L 165.261719 938.144531 C 159.488281 926.214844 156.175781 913.160156 156.238281 902.949219 C 156.449219 867.347656 186.675781 896.261719 204.652344 902.753906 C 216.171875 891.324219 197.757812 864.105469 209.691406 852.917969 C 229.898438 833.980469 261.683594 909.34375 274.605469 869.796875 C 277.992188 859.425781 274.308594 827.320312 285.464844 821.285156 C 288.839844 819.460938 292.941406 820.851562 297.058594 823.898438 C 298.554688 825.007812 300.046875 826.324219 301.515625 827.792969 C 303.839844 843.292969 314.316406 858.210938 327.082031 867.738281 C 318.507812 866.921875 311.261719 868.023438 307.84375 873.996094 Z M 307.84375 873.996094 " fill-opacity="0.51" fill-rule="nonzero"/><path fill="#b5f0db" d="M 758.296875 870.113281 C 740.75 893.84375 712.464844 912.542969 692.457031 923.527344 C 691.03125 913.636719 696.425781 897.636719 690.539062 890.691406 C 675.910156 896.546875 660.359375 912.839844 643.59375 910.425781 C 631.96875 908.742188 631.039062 898.796875 624.269531 892.609375 C 629.082031 889.496094 633.273438 886.019531 636.597656 882.25 C 645.238281 872.425781 647.796875 859.183594 644.90625 849.328125 C 644.898438 849.316406 644.898438 849.316406 644.90625 849.316406 C 646.265625 847.460938 647.761719 845.785156 649.457031 844.410156 C 667.066406 830.082031 661.019531 851.898438 662.34375 864.324219 C 664.84375 887.90625 676.691406 875.023438 687.378906 861.988281 C 696.332031 851.066406 703.214844 836.875 715.453125 829.03125 C 730.347656 840.398438 708.621094 861.84375 712.324219 875.265625 C 717.859375 895.398438 736.234375 865.035156 749.898438 865.148438 C 754.925781 865.195312 757.535156 867.050781 758.296875 870.113281 Z M 758.296875 870.113281 " fill-opacity="1" fill-rule="nonzero"/><path fill="#edfff9" d="M 232.777344 766.691406 C 212.472656 783.875 196.851562 765.132812 185.914062 765.132812 C 174.980469 765.132812 170.292969 829.1875 146.871094 827.617188 C 127.058594 826.304688 107.253906 779.207031 101.605469 759.015625 C 104.105469 755.667969 106.886719 752.425781 109.925781 749.296875 C 114.746094 764.300781 123.855469 788.988281 134.367188 799.503906 C 149.988281 815.125 160.921875 762.003906 168.734375 746.390625 C 176.542969 730.769531 189.046875 752.632812 210.90625 755.761719 C 228.742188 758.300781 240.335938 721.40625 239.785156 698.367188 C 242.445312 698.328125 245.097656 698.355469 247.730469 698.441406 C 247.96875 721.058594 246.011719 755.496094 232.777344 766.691406 Z M 232.777344 766.691406 " fill-opacity="1" fill-rule="nonzero"/><path fill="#edfff9" d="M 643.074219 829.1875 C 625.375 830.226562 612.375 840.121094 612.375 840.121094 C 599.699219 846.820312 604.449219 860.539062 587.371094 853.195312 C 573.257812 847.128906 570.722656 827.507812 573.777344 815.636719 C 577.421875 801.511719 584.121094 791.761719 592.652344 785.472656 C 586.675781 793.9375 582.28125 803.355469 582.628906 809.394531 C 583.890625 831.457031 611.484375 801.910156 621.050781 800.1875 C 615.757812 816.332031 618.652344 827.945312 639.34375 821.410156 C 652.34375 817.289062 655.066406 805.03125 664.316406 797.976562 C 669.730469 808.28125 659.574219 828.21875 643.074219 829.1875 Z M 643.074219 829.1875 " fill-opacity="1" fill-rule="nonzero"/><path fill="#ffc29b" d="M 520.714844 934.636719 C 520.714844 937.234375 472.820312 934.636719 470.730469 934.636719 C 468.648438 934.636719 466.566406 924.746094 466.566406 922.132812 C 466.566406 919.53125 464.476562 887.765625 464.476562 885.164062 C 464.476562 884.054688 461.03125 869.234375 456.890625 849.359375 C 452.140625 826.566406 446.480469 797.105469 444.042969 773.976562 C 443.65625 770.234375 443.335938 766.664062 443.136719 763.3125 C 440.535156 721.128906 494.679688 774.765625 496.238281 802.367188 C 496.238281 802.367188 496.566406 813.035156 496.625 827.457031 C 496.699219 844.742188 496.378906 867.421875 494.675781 883.605469 C 494.6875 883.617188 494.6875 883.617188 494.6875 883.628906 C 494.933594 884.1875 500.171875 895.964844 504.363281 905.246094 C 506.597656 910.210938 508.542969 914.453125 509.257812 915.890625 C 511.335938 920.054688 516.550781 921.613281 518.109375 924.222656 C 519.675781 926.824219 520.714844 932.039062 520.714844 934.636719 Z M 520.714844 934.636719 " fill-opacity="1" fill-rule="nonzero"/><path fill="#42496e" d="M 550.398438 436.535156 C 550.398438 436.535156 513.691406 445.132812 509.785156 418.578125 C 509.34375 415.585938 507.316406 412.171875 504.066406 408.367188 C 478.429688 378.335938 376.492188 324.417969 376.492188 271.726562 C 376.492188 271.726562 387.425781 275.367188 397.316406 261.566406 C 404.085938 252.132812 402.007812 240.480469 405.914062 234.226562 C 409.816406 227.976562 412.9375 227.976562 420.75 227.199219 C 428.5625 226.410156 424.65625 216.257812 436.371094 214.695312 C 448.085938 213.132812 455.898438 224.066406 455.898438 224.066406 C 455.898438 224.066406 451.992188 234.222656 467.613281 232.664062 C 483.234375 231.105469 489.488281 239.6875 487.140625 246.726562 C 484.792969 253.753906 473.867188 273.285156 484.011719 283.4375 C 494.167969 293.585938 498.074219 311.554688 530.875 323.273438 C 530.875 323.273438 530.875 323.273438 530.886719 323.28125 C 563.679688 335 560.558594 377.957031 548.058594 400.601562 C 535.558594 423.257812 550.398438 436.535156 550.398438 436.535156 Z M 550.398438 436.535156 " fill-opacity="1" fill-rule="nonzero"/><path fill="#ffc29b" d="M 382.210938 848.453125 C 378.304688 853.917969 349.410156 859.386719 342.382812 864.078125 C 335.355469 868.757812 331.449219 877.351562 327.542969 880.476562 C 323.636719 883.605469 316.601562 882.820312 310.363281 882.046875 C 304.109375 881.257812 291.613281 878.917969 286.929688 875.792969 C 282.238281 872.664062 279.894531 864.078125 283.800781 862.515625 C 285.085938 862.007812 286.871094 861.824219 288.828125 861.761719 C 292.835938 861.640625 297.589844 862.007812 300.210938 860.945312 C 304.113281 859.386719 333.789062 835.175781 333.789062 825.804688 C 333.789062 822.371094 326.027344 804.667969 316.199219 783.617188 C 312.773438 776.292969 309.101562 768.550781 305.410156 760.875 C 290.789062 730.410156 275.996094 700.820312 275.996094 700.820312 C 275.996094 700.820312 314.273438 666.449219 333.015625 685.195312 C 341.742188 693.933594 349.796875 722.296875 355.988281 750.523438 C 361.496094 775.664062 365.53125 800.691406 367.265625 811.609375 C 367.765625 814.761719 368.074219 816.738281 368.167969 817.207031 C 368.523438 819 372.328125 824.5625 375.964844 830.597656 C 380.253906 837.726562 384.320312 845.496094 382.210938 848.453125 Z M 382.210938 848.453125 " fill-opacity="1" fill-rule="nonzero"/><path fill="#c9f5e6" d="M 741.800781 592.015625 C 713.625 596.664062 719.703125 637.457031 708.496094 652.070312 C 697.28125 666.691406 670.980469 657.261719 662.292969 667.960938 C 653.605469 678.660156 678.484375 693.066406 647.164062 737.03125 C 617.695312 778.394531 553.730469 748.144531 553.8125 786.910156 C 548.039062 778.875 542.863281 770.339844 538.21875 761.449219 C 540.738281 752.136719 552.882812 741.714844 561.847656 739.59375 C 575.875 736.28125 590.539062 742.722656 604.550781 739.125 C 619.59375 735.257812 632.503906 726.132812 637.058594 711.234375 C 641.433594 696.933594 634.375 682.820312 637.902344 668.53125 C 645.847656 636.328125 686.316406 655.347656 693.089844 623.542969 C 696.351562 608.203125 693.988281 592.347656 708.453125 581.8125 C 708.851562 581.527344 709.246094 581.242188 709.65625 580.976562 C 728.921875 588.269531 741.800781 592.015625 741.800781 592.015625 Z M 741.800781 592.015625 " fill-opacity="1" fill-rule="nonzero"/><path fill="#8596ed" d="M 709.660156 580.972656 C 709.25 581.234375 708.855469 581.523438 708.457031 581.808594 C 701.898438 586.570312 698.800781 592.445312 697.066406 598.851562 C 697.066406 598.851562 697.066406 598.851562 697.066406 598.863281 C 694.976562 606.613281 694.875 615.160156 693.089844 623.542969 C 688.835938 643.511719 671.308594 643.449219 656.878906 648.605469 C 648.324219 651.65625 640.863281 656.550781 637.902344 668.53125 C 637.148438 671.601562 636.875 674.652344 636.875 677.710938 L 636.875 677.722656 C 636.882812 688.890625 640.492188 700.007812 637.058594 711.234375 C 632.5 726.132812 619.59375 735.257812 604.550781 739.125 C 594.199219 741.785156 583.484375 738.960938 572.941406 738.644531 C 569.210938 738.535156 565.507812 738.726562 561.847656 739.59375 C 552.882812 741.71875 540.738281 752.136719 538.21875 761.449219 C 489.445312 668.15625 499.351562 535.328125 503.550781 515.207031 C 508.148438 493.179688 479.722656 434.050781 479.722656 434.050781 C 480.121094 426.269531 481.265625 419.050781 482.996094 412.347656 C 487.003906 396.839844 494.140625 384.144531 502.277344 373.925781 C 503.96875 378.902344 506.03125 384.570312 508.507812 390.820312 C 516.777344 411.644531 529.699219 438.894531 549.214844 468.316406 C 552.566406 473.363281 556.109375 478.484375 559.859375 483.640625 C 588.03125 522.402344 640.332031 551.324219 681.648438 569.511719 C 691.835938 573.984375 701.339844 577.808594 709.660156 580.972656 Z M 709.660156 580.972656 " fill-opacity="1" fill-rule="nonzero"/><path fill="#7d8feb" d="M 572.941406 738.640625 C 569.210938 738.53125 565.507812 738.726562 561.847656 739.589844 C 552.882812 741.714844 540.738281 752.136719 538.21875 761.445312 C 489.445312 668.152344 499.351562 535.324219 503.550781 515.203125 C 508.148438 493.175781 479.722656 434.046875 479.722656 434.046875 C 480.121094 426.265625 481.265625 419.046875 482.996094 412.347656 L 508.507812 390.816406 C 516.777344 411.640625 529.699219 438.890625 549.214844 468.3125 C 542.011719 462.570312 534.398438 459.125 529.566406 464.394531 C 518.632812 476.328125 528.566406 695.941406 572.941406 738.640625 Z M 572.941406 738.640625 " fill-opacity="1" fill-rule="nonzero"/><path fill="#7d8feb" d="M 656.882812 648.605469 C 648.328125 651.652344 640.867188 656.546875 637.90625 668.53125 C 637.152344 671.597656 636.878906 674.648438 636.878906 677.710938 C 621.429688 653.171875 587.738281 610.402344 582.679688 593.542969 C 578.101562 578.296875 619.878906 629.5 656.882812 648.605469 Z M 656.882812 648.605469 " fill-opacity="1" fill-rule="nonzero"/><path fill="#7d8feb" d="M 709.660156 580.972656 C 709.25 581.234375 708.855469 581.523438 708.457031 581.808594 C 701.898438 586.570312 698.800781 592.445312 697.066406 598.851562 C 692.703125 588.40625 686.992188 578.136719 681.648438 569.511719 C 691.835938 573.984375 701.339844 577.808594 709.660156 580.972656 Z M 709.660156 580.972656 " fill-opacity="1" fill-rule="nonzero"/><path fill="#ffb180" d="M 355.984375 750.519531 C 361.492188 775.660156 365.527344 800.6875 367.265625 811.605469 C 356.628906 799.785156 343.332031 785.121094 335.355469 782.050781 C 329.609375 779.839844 321.847656 781.632812 316.199219 783.613281 C 312.773438 776.292969 309.101562 768.546875 305.410156 760.871094 L 330.667969 743.777344 Z M 355.984375 750.519531 " fill-opacity="0.49" fill-rule="nonzero"/><path fill="#ffb180" d="M 494.679688 883.605469 C 484.839844 872.023438 465.984375 856.578125 456.890625 849.359375 C 452.140625 826.566406 446.480469 797.105469 444.042969 773.976562 L 462.660156 778.933594 L 496.628906 827.457031 C 496.703125 844.742188 496.382812 867.421875 494.679688 883.605469 Z M 494.679688 883.605469 " fill-opacity="0.49" fill-rule="nonzero"/><path fill="#9eacf4" d="M 500.410156 849.761719 C 483.589844 832.933594 469.035156 797.320312 438.832031 796.601562 C 433.5 796.457031 427.675781 797.414062 421.261719 799.761719 C 382.25 814.039062 384.972656 779.621094 370.625 762.449219 C 369.277344 760.828125 367.769531 759.359375 366.066406 758.101562 C 360.34375 753.890625 354.796875 752.289062 349.371094 751.859375 C 336.046875 750.808594 323.460938 756.878906 310.878906 748.730469 C 293.167969 737.277344 320.25 688.328125 279.636719 687.289062 C 276.117188 687.199219 272.78125 686.769531 269.636719 686.066406 C 244.253906 680.394531 230.660156 656.726562 225.664062 645.886719 C 244.660156 629.160156 276.691406 595.703125 305.671875 540.4375 C 333.996094 486.417969 346.488281 436.558594 351.839844 407.214844 C 354.953125 390.171875 355.65625 380.046875 355.65625 380.046875 L 385.859375 352.96875 L 461.875 332.132812 L 503.53125 366.503906 C 503.53125 366.503906 505.539062 375.28125 510.585938 389.90625 C 503.234375 401.699219 497.054688 416.390625 494.445312 434.289062 C 493.589844 440.164062 493.121094 446.375 493.121094 452.953125 C 493.121094 452.953125 521.234375 512.3125 518.113281 535.230469 C 517.46875 539.972656 516.816406 550.667969 516.765625 565.484375 C 516.714844 576.683594 517.011719 590.214844 517.898438 605.296875 C 521.183594 661.273438 532.613281 738.503906 565.191406 795.949219 C 566.628906 851.738281 519.683594 869.03125 500.410156 849.761719 Z M 500.410156 849.761719 " fill-opacity="1" fill-rule="nonzero"/><path fill="#ffc29b" d="M 488.949219 139.980469 C 485.832031 138.929688 479.578125 130.078125 478.015625 127.996094 C 476.457031 125.917969 483.746094 142.578125 483.746094 145.179688 C 483.746094 147.789062 480.617188 147.257812 478.535156 145.699219 C 476.457031 144.136719 472.285156 132.683594 470.726562 131.113281 C 469.167969 129.554688 473.335938 145.179688 472.816406 147.257812 C 472.285156 149.347656 468.644531 150.386719 467.082031 147.257812 C 465.523438 144.136719 463.953125 136.324219 462.914062 134.246094 C 461.875 132.164062 462.914062 146.21875 462.914062 146.21875 C 462.914062 146.21875 459.273438 147.257812 457.714844 145.179688 C 456.144531 143.097656 455.105469 138.925781 455.105469 137.367188 C 455.105469 135.808594 435.320312 135.289062 430.113281 134.765625 C 424.910156 134.246094 423.34375 132.6875 423.34375 132.6875 C 423.34375 132.6875 423.34375 132.6875 423.332031 132.699219 L 423.332031 132.710938 C 423.308594 132.722656 423.269531 132.75 423.207031 132.8125 L 423.117188 132.902344 C 418.5 137.472656 344.113281 211.015625 341.074219 218.085938 C 337.953125 225.375 359.132812 251.230469 368.15625 255.582031 C 370.171875 256.550781 372.101562 257.550781 373.9375 258.550781 C 398.652344 272.042969 407.597656 287.929688 412.929688 295.679688 C 418.660156 304.011719 430.628906 293.070312 432.722656 289.425781 C 434.800781 285.777344 435.84375 259.21875 435.84375 259.21875 C 435.84375 259.21875 462.917969 259.21875 463.4375 279.535156 C 463.4375 279.535156 467.085938 296.71875 469.167969 306.09375 C 469.199219 306.214844 469.21875 306.328125 469.261719 306.449219 C 471.695312 315.570312 488.949219 319.636719 488.949219 319.636719 L 438.578125 392.910156 L 431.671875 402.957031 L 420.007812 403.152344 L 369.195312 404 C 369.195312 404 363.992188 397.226562 360.210938 390.324219 C 358.628906 387.457031 357.304688 384.574219 356.691406 382.125 C 355.582031 377.6875 354.480469 368.542969 353.53125 360.003906 C 353.03125 355.519531 352.570312 351.203125 352.171875 347.828125 C 351.917969 345.566406 351.683594 343.71875 351.492188 342.546875 C 351.378906 341.875 351.0625 341.078125 350.5625 340.140625 L 350.5625 340.128906 C 346.414062 332.339844 329.679688 315.226562 312.957031 287.355469 C 303.882812 272.230469 297.988281 256.875 294.441406 243.382812 C 294.429688 243.371094 294.429688 243.371094 294.429688 243.359375 C 290.636719 228.988281 289.507812 216.753906 290.046875 209.238281 C 291.085938 194.652344 391.054688 122.785156 412.929688 115.507812 C 434.800781 108.214844 473.335938 119.667969 478.535156 119.667969 C 483.746094 119.667969 491.039062 135.289062 491.039062 137.890625 C 491.042969 140.5 492.082031 141.019531 488.949219 139.980469 Z M 488.949219 139.980469 " fill-opacity="1" fill-rule="nonzero"/><path fill="#ffb687" d="M 364.253906 308.691406 L 350.570312 340.121094 C 346.417969 332.332031 329.6875 315.21875 312.964844 287.347656 C 303.890625 272.222656 297.996094 256.867188 294.449219 243.375 C 298.320312 251.808594 325.289062 307.253906 364.253906 308.691406 Z M 364.253906 308.691406 " fill-opacity="0.43" fill-rule="nonzero"/><path fill="#828ec9" d="M 491.5625 525.851562 C 491.5625 525.851562 504.578125 532.097656 508.742188 528.972656 C 512.90625 525.847656 497.285156 464.402344 492.082031 462.316406 C 486.875 460.234375 471.253906 494.601562 471.253906 494.601562 C 471.253906 494.601562 485.832031 523.769531 491.5625 525.851562 Z M 491.5625 525.851562 " fill-opacity="1" fill-rule="nonzero"/><g clip-path="url(#7503d2210a)"><path fill="#828ec9" d="M 154.796875 713.664062 C 152.773438 712.542969 152.007812 710.015625 153.074219 707.960938 L 482.101562 74.988281 C 483.207031 72.863281 485.84375 72.066406 487.941406 73.226562 L 493.449219 76.265625 C 495.488281 77.390625 496.246094 79.9375 495.15625 81.996094 L 160.617188 711.925781 C 159.503906 714.03125 156.878906 714.808594 154.796875 713.664062 Z M 154.796875 713.664062 " fill-opacity="1" fill-rule="nonzero"/></g><path fill="#d8f5eb" d="M 409.539062 213.351562 L 414.769531 228.214844 C 417.082031 229.242188 419.464844 230.164062 421.878906 230.953125 C 421.902344 230.96875 421.921875 230.96875 421.933594 230.96875 C 449.265625 239.972656 481.03125 234.417969 481.03125 234.417969 L 484.867188 220.886719 C 484.867188 220.886719 478.503906 229.339844 475.339844 227.921875 C 474.050781 227.339844 472.816406 225.238281 471.8125 222.96875 C 470.351562 219.679688 469.363281 216.019531 469.363281 216.019531 C 469.363281 216.019531 464.914062 230.195312 457.488281 227.238281 C 450.066406 224.292969 449.816406 212.964844 449.816406 212.964844 C 449.816406 212.964844 443.394531 230.636719 437.300781 225.21875 C 431.1875 219.816406 430.007812 212.648438 430.007812 212.648438 C 430.007812 212.648438 423.625 224.132812 419.371094 222.605469 C 415.105469 221.078125 409.539062 213.351562 409.539062 213.351562 Z M 409.539062 213.351562 " fill-opacity="1" fill-rule="nonzero"/><path fill="#bee8d9" d="M 421.929688 230.972656 C 449.261719 239.976562 481.027344 234.421875 481.027344 234.421875 L 484.863281 220.890625 C 484.863281 220.890625 478.5 229.34375 475.339844 227.925781 C 474.046875 227.34375 472.8125 225.242188 471.808594 222.972656 C 464.988281 228.421875 449.222656 237.039062 421.929688 230.972656 Z M 421.929688 230.972656 " fill-opacity="1" fill-rule="nonzero"/><path fill="#9eacf4" d="M 354.617188 397.746094 C 354.617188 397.746094 402.519531 430.554688 484.527344 319.632812 L 491.035156 344.628906 L 425.429688 463.363281 L 356.695312 458.152344 C 356.699219 458.148438 348.367188 414.40625 354.617188 397.746094 Z M 354.617188 397.746094 " fill-opacity="1" fill-rule="nonzero"/><path fill="#98a5ed" d="M 351.84375 407.207031 L 424.660156 447.222656 L 407.589844 475.09375 C 407.589844 475.09375 399.402344 468.046875 393.152344 472.730469 C 386.902344 477.421875 379.089844 530.53125 377.53125 519.597656 C 375.972656 508.664062 375.972656 480.542969 374.402344 469.605469 C 372.84375 458.671875 350.980469 453.984375 330.667969 535.222656 C 315.945312 594.125 285.34375 656.3125 269.640625 686.058594 C 244.261719 680.386719 230.667969 656.71875 225.671875 645.878906 C 244.667969 629.15625 276.699219 595.695312 305.675781 540.429688 C 334 486.414062 346.492188 436.554688 351.84375 407.207031 Z M 351.84375 407.207031 " fill-opacity="1" fill-rule="nonzero"/><path fill="#bfcaff" d="M 518.113281 535.222656 C 517.46875 539.964844 516.816406 550.660156 516.765625 565.480469 C 516.207031 566.957031 515.613281 568.34375 514.988281 569.589844 C 508.738281 582.09375 421.257812 543.03125 391.585938 460.238281 C 365.289062 386.894531 470.164062 424.695312 494.441406 434.28125 C 493.585938 440.15625 493.117188 446.367188 493.117188 452.945312 C 493.121094 452.945312 521.234375 512.308594 518.113281 535.222656 Z M 518.113281 535.222656 " fill-opacity="1" fill-rule="nonzero"/><path fill="#91a2f2" d="M 491.5625 525.851562 C 491.5625 525.851562 500.671875 531.316406 507.960938 525.066406 C 515.253906 518.820312 496.246094 464.398438 492.082031 462.316406 C 487.914062 460.234375 470.210938 495.648438 491.5625 525.851562 Z M 491.5625 525.851562 " fill-opacity="1" fill-rule="nonzero"/><path fill="#5a6496" d="M 550.398438 436.535156 C 550.398438 436.535156 513.691406 445.132812 509.785156 418.578125 C 509.34375 415.585938 507.316406 412.171875 504.066406 408.367188 C 502.78125 404.726562 501.976562 402.320312 501.976562 401.914062 C 501.976562 399.824219 519.675781 359.722656 519.675781 359.722656 C 519.675781 359.722656 538.945312 372.746094 545.1875 355.5625 C 551.355469 338.613281 531.417969 323.683594 530.878906 323.28125 C 563.671875 335 560.550781 377.957031 548.050781 400.601562 C 535.558594 423.257812 550.398438 436.535156 550.398438 436.535156 Z M 550.398438 436.535156 " fill-opacity="1" fill-rule="nonzero"/><path fill="#ffb687" d="M 507.183594 414.925781 C 507.183594 414.925781 507.082031 415.273438 506.898438 415.9375 C 506.898438 415.9375 506.898438 415.9375 506.898438 415.949219 C 505.917969 419.425781 502.5625 431.375 498.78125 445.359375 C 494.382812 461.648438 489.390625 480.695312 486.871094 492.363281 C 486.074219 496.023438 485.523438 498.960938 485.3125 500.855469 C 483.75 514.921875 491.5625 525.851562 491.5625 525.851562 C 491.5625 525.851562 469.476562 522.167969 446.53125 509.808594 C 432.144531 502.058594 417.417969 490.890625 407.589844 475.09375 C 406 472.546875 404.539062 469.875 403.226562 467.070312 C 401.757812 463.90625 400.460938 460.59375 399.40625 457.105469 L 424.664062 447.222656 L 506.398438 415.234375 Z M 507.183594 414.925781 " fill-opacity="1" fill-rule="nonzero"/><path fill="#ffc29b" d="M 506.898438 415.9375 C 506.898438 415.9375 506.898438 415.9375 506.898438 415.949219 C 505.917969 419.425781 502.5625 431.375 498.78125 445.359375 C 484.839844 463.421875 458.695312 487.582031 447.039062 487.582031 C 436.527344 487.582031 416.859375 479.277344 407.589844 475.097656 C 406 472.550781 404.539062 469.878906 403.226562 467.074219 C 405.820312 460.742188 414.015625 453.886719 424.660156 447.226562 C 454.160156 428.757812 502.492188 411.808594 502.492188 411.808594 C 502.492188 411.808594 504.570312 412.847656 506.394531 415.234375 C 506.558594 415.457031 506.734375 415.691406 506.898438 415.9375 Z M 506.898438 415.9375 " fill-opacity="0.43" fill-rule="nonzero"/><path fill="#ffc29b" d="M 526.441406 385.25 C 519.59375 405.800781 507.015625 425.851562 499.367188 436.28125 C 487.910156 451.90625 463.953125 473.515625 451.464844 478.980469 C 438.964844 484.445312 358.785156 461.800781 332.222656 414.15625 C 332.222656 414.15625 311.660156 433.941406 310.09375 437.058594 C 308.535156 440.1875 305.671875 445.136719 303.324219 448.253906 C 300.976562 451.386719 297.339844 453.988281 296.554688 450.867188 C 295.777344 447.734375 302.546875 438.363281 302.546875 436.019531 C 302.546875 433.683594 290.28125 449.980469 288.222656 451.910156 C 284.316406 455.550781 280.789062 452.058594 281.910156 450.113281 C 283.441406 447.460938 285.640625 443.515625 286.140625 442.019531 C 286.925781 439.671875 279.636719 448.257812 276.503906 449.828125 C 273.386719 451.390625 269.476562 452.429688 267.917969 450.085938 C 266.375 447.773438 282.773438 431.324219 283.265625 430.832031 C 283.050781 430.976562 275.921875 435.789062 272.078125 437.328125 C 268.171875 438.886719 265.316406 438.117188 264.011719 435.25 C 262.675781 432.3125 280.671875 421.1875 283.792969 418.839844 C 286.921875 416.492188 313.996094 399.832031 323.886719 396.976562 C 329.1875 395.433594 368.058594 405.664062 397.191406 412.167969 C 411.058594 415.269531 422.726562 417.535156 427.507812 417.277344 C 432.371094 417.019531 438.492188 410.8125 444.523438 402.457031 C 444.523438 402.449219 444.535156 402.4375 444.546875 402.429688 C 456.914062 385.308594 468.90625 359.230469 468.90625 357.132812 C 468.90625 354.011719 488.941406 319.644531 488.941406 319.644531 C 488.941406 319.644531 509.519531 327.457031 516.546875 336.828125 C 523.582031 346.195312 531.910156 368.839844 526.441406 385.25 Z M 526.441406 385.25 " fill-opacity="1" fill-rule="nonzero"/><path fill="#ffb687" d="M 452.503906 435.242188 C 452.503906 437.320312 395.75 418.058594 393.667969 414.925781 C 393.3125 414.394531 394.679688 413.417969 397.195312 412.160156 C 411.0625 415.261719 422.726562 417.527344 427.511719 417.269531 C 432.375 417.011719 438.492188 410.804688 444.527344 402.453125 C 441.808594 407.792969 438.960938 413.585938 438.960938 414.402344 C 438.964844 415.964844 452.503906 433.148438 452.503906 435.242188 Z M 452.503906 435.242188 " fill-opacity="0.43" fill-rule="nonzero"/><path fill="#ffc29b" d="M 414.496094 262.351562 C 414.496094 262.351562 415.796875 248.03125 417.097656 248.289062 C 426.015625 250.074219 439.488281 237.351562 439.488281 237.351562 C 439.488281 237.351562 451.882812 254.199219 461.09375 250.894531 C 471.25 247.246094 459.792969 267.554688 460.316406 281.355469 C 460.734375 292.453125 414.496094 272.503906 414.496094 262.351562 Z M 414.496094 262.351562 " fill-opacity="1" fill-rule="nonzero"/><path fill="#4f1e20" d="M 420.433594 255.886719 C 420.210938 258.144531 421.027344 260.074219 422.253906 260.195312 C 423.484375 260.316406 424.660156 258.582031 424.878906 256.320312 C 425.101562 254.0625 424.285156 252.136719 423.058594 252.011719 C 421.824219 251.890625 420.652344 253.625 420.433594 255.886719 Z M 420.433594 255.886719 " fill-opacity="1" fill-rule="nonzero"/><path fill="#4f1e20" d="M 424.421875 256.730469 C 425.820312 254.691406 424.496094 252.015625 423.160156 250.339844 C 423.011719 250.148438 422.71875 250.128906 422.5 250.179688 C 422.449219 250.1875 422.394531 250.199219 422.347656 250.214844 C 422.214844 250.242188 422.085938 250.375 422.0625 250.511719 C 421.976562 251.019531 422.132812 251.167969 422.457031 251.523438 C 422.910156 252.023438 423.257812 252.574219 423.53125 253.191406 C 424.03125 254.328125 424.085938 255.523438 424.328125 256.722656 C 424.335938 256.765625 424.398438 256.761719 424.421875 256.730469 Z M 424.421875 256.730469 " fill-opacity="1" fill-rule="nonzero"/><path fill="#4f1e20" d="M 446.351562 258.871094 C 446.109375 261.347656 447.003906 263.457031 448.351562 263.59375 C 449.699219 263.722656 450.980469 261.824219 451.222656 259.347656 C 451.464844 256.871094 450.570312 254.757812 449.222656 254.625 C 447.878906 254.492188 446.59375 256.394531 446.351562 258.871094 Z M 446.351562 258.871094 " fill-opacity="1" fill-rule="nonzero"/><path fill="#4f1e20" d="M 449.203125 252.683594 C 450.355469 253.449219 450.886719 254.839844 451.140625 256.152344 C 451.339844 257.175781 451.738281 259.042969 450.785156 259.765625 C 450.621094 259.886719 450.367188 259.847656 450.21875 259.722656 C 449.492188 259.085938 449.808594 257.761719 449.730469 256.886719 C 449.605469 255.523438 448.972656 254.527344 448.496094 253.289062 C 448.351562 252.902344 448.835938 252.4375 449.203125 252.683594 Z M 449.203125 252.683594 " fill-opacity="1" fill-rule="nonzero"/><path fill="#ffc29b" d="M 477.238281 260.007812 C 477.238281 260.007812 477.5 271.464844 473.855469 277.453125 C 473.855469 277.453125 490.515625 277.195312 490.515625 266.257812 C 490.519531 255.320312 477.238281 260.007812 477.238281 260.007812 Z M 477.238281 260.007812 " fill-opacity="1" fill-rule="nonzero"/><path fill="#30354f" d="M 445.910156 245.335938 C 444.476562 246.769531 444.523438 249.851562 444.867188 251.238281 C 445.214844 252.628906 459.101562 252.976562 460.488281 252.976562 C 461.878906 252.976562 462.226562 249.851562 461.183594 248.117188 C 460.144531 246.378906 448.339844 242.910156 445.910156 245.335938 Z M 445.910156 245.335938 " fill-opacity="1" fill-rule="nonzero"/><path fill="#30354f" d="M 428.804688 245.878906 C 429.257812 248.601562 428.398438 249.949219 426.609375 250.871094 C 424.816406 251.792969 417.726562 249.6875 415.839844 249.347656 C 413.949219 249.007812 415.082031 246.3125 416.003906 244.816406 C 416.921875 243.328125 428.027344 241.179688 428.804688 245.878906 Z M 428.804688 245.878906 " fill-opacity="1" fill-rule="nonzero"/><path fill="#ffb687" d="M 464.222656 382.90625 C 456.796875 384.832031 447.640625 388.492188 438.578125 392.90625 C 432.113281 396.058594 425.710938 399.585938 420.007812 403.144531 C 410.972656 408.78125 403.742188 414.488281 400.960938 418.828125 C 393.925781 429.769531 397.832031 443.824219 397.832031 443.824219 C 365.8125 429.769531 360.347656 400.871094 360.347656 400.871094 C 359.683594 397.167969 359.714844 393.640625 360.214844 390.316406 C 362.5625 374 375.683594 362.445312 370.492188 357.90625 C 364.253906 352.441406 359.5625 364.9375 359.5625 364.9375 L 353.535156 360 C 353.035156 355.515625 352.574219 351.199219 352.175781 347.824219 L 353.308594 338.382812 C 353.308594 338.382812 426.523438 307.726562 469.261719 306.453125 C 484.410156 306.007812 495.71875 309.25 498.585938 318.855469 C 509.527344 355.566406 485.3125 377.441406 464.222656 382.90625 Z M 464.222656 382.90625 " fill-opacity="0.43" fill-rule="nonzero"/><path fill="#e05e2b" d="M 486.304688 262.597656 C 484.328125 262.753906 482.421875 264.589844 481.117188 265.960938 C 479.378906 267.78125 478.035156 269.984375 477.1875 272.351562 C 476.859375 273.265625 478.246094 273.804688 478.597656 272.894531 C 479.421875 270.742188 480.46875 268.78125 481.96875 267.019531 C 483.285156 265.472656 485.25 264.382812 486.394531 262.746094 C 486.445312 262.675781 486.382812 262.59375 486.304688 262.597656 Z M 486.304688 262.597656 " fill-opacity="1" fill-rule="nonzero"/><path fill="#e05e2b" d="M 488.632812 267.476562 C 485.859375 265.636719 481.621094 267.03125 479.109375 268.699219 C 478.359375 269.199219 479.25 270.324219 479.992188 269.800781 C 481.324219 268.855469 482.804688 268.210938 484.425781 267.949219 C 485.808594 267.726562 487.1875 267.90625 488.566406 267.753906 C 488.699219 267.742188 488.746094 267.546875 488.632812 267.476562 Z M 488.632812 267.476562 " fill-opacity="1" fill-rule="nonzero"/><path fill="#4b537d" d="M 498.332031 330.046875 C 498.242188 331.699219 497.894531 333.402344 497.332031 335.148438 C 498.167969 327.367188 498.65625 323.839844 498.332031 330.046875 Z M 498.332031 330.046875 " fill-opacity="1" fill-rule="nonzero"/><path fill="#e05e2b" d="M 434.179688 253.566406 C 434.453125 254.480469 433.828125 255.957031 433.464844 256.792969 C 432.808594 258.300781 431.804688 259.199219 430.597656 260.238281 C 429.585938 261.105469 429.089844 262.007812 429.359375 263.359375 C 429.894531 266.066406 433.363281 267.992188 435.738281 266.1875 C 436.222656 265.816406 435.925781 265.089844 435.308594 265.210938 C 432.386719 265.78125 429.085938 264.316406 431.867188 260.820312 C 432.699219 259.777344 433.554688 259.132812 434.132812 257.890625 C 434.621094 256.84375 435.628906 254.242188 434.257812 253.507812 C 434.21875 253.484375 434.171875 253.523438 434.179688 253.566406 Z M 434.179688 253.566406 " fill-opacity="1" fill-rule="nonzero"/><path fill="#4b537d" d="M 484.789062 359.203125 C 484.410156 359.601562 484.046875 359.996094 483.679688 360.386719 C 463.878906 380.957031 441.078125 387.269531 419.335938 397.253906 C 419.335938 397.253906 419.3125 397.265625 419.3125 397.253906 C 417.867188 397.925781 416.449219 398.601562 415.011719 399.304688 C 403.847656 404.769531 397.882812 412.355469 395.210938 419.484375 L 395.210938 419.496094 C 392.273438 427.320312 393.292969 434.570312 395.753906 437.839844 C 395.753906 437.839844 369.71875 426.90625 366.589844 403.472656 C 363.46875 380.039062 383.261719 372.746094 381.691406 358.683594 C 380.132812 344.632812 365.550781 348.273438 361.386719 354 C 361.386719 354 352.019531 346.191406 359.828125 327.445312 C 367.332031 309.414062 383.503906 307.273438 394.914062 296.496094 C 395.375 296.066406 395.832031 295.617188 396.273438 295.160156 C 402.289062 288.867188 403.644531 279.476562 405.550781 270.449219 C 407.273438 262.269531 409.445312 254.398438 415.941406 249.414062 C 415.941406 249.414062 408.785156 268.066406 432.207031 265.730469 C 432.207031 265.730469 442.351562 266.515625 450.683594 268.074219 C 459.011719 269.636719 465.007812 251.933594 465.007812 251.933594 C 465.007812 251.933594 469.6875 258.703125 466.046875 269.636719 C 462.398438 280.574219 474.898438 300.359375 487.910156 304.011719 C 500.933594 307.652344 506.144531 336.300781 484.789062 359.203125 Z M 484.789062 359.203125 " fill-opacity="1" fill-rule="nonzero"/><path fill="#42496e" d="M 394.710938 358.683594 C 387.6875 374.304688 369.722656 371.707031 366.589844 403.472656 C 363.46875 380.039062 383.261719 372.746094 381.691406 358.683594 C 380.132812 344.628906 365.550781 348.273438 361.386719 354 C 361.386719 354 365.8125 337.59375 376.746094 333.6875 C 387.683594 329.785156 401.738281 343.0625 394.710938 358.683594 Z M 394.710938 358.683594 " fill-opacity="1" fill-rule="nonzero"/><path fill="#42496e" d="M 419.316406 397.253906 C 417.871094 397.925781 416.453125 398.601562 415.015625 399.304688 C 403.851562 404.769531 397.886719 412.355469 395.214844 419.484375 L 395.214844 419.496094 C 392.125 420.570312 394.785156 409.554688 395.5 402.4375 C 396.277344 394.625 382.996094 393.839844 379.089844 397.746094 C 375.1875 401.648438 382.996094 388.375 393.929688 383.679688 C 404.871094 379 406.433594 389.15625 408.773438 392.28125 C 410.300781 394.328125 413.523438 397.386719 419.316406 397.253906 Z M 419.316406 397.253906 " fill-opacity="1" fill-rule="nonzero"/><path fill="#5a6496" d="M 484.789062 359.203125 C 484.410156 359.601562 484.046875 359.996094 483.679688 360.386719 C 480.640625 360.945312 477.488281 360.945312 474.382812 360.253906 C 460.320312 357.125 465.011719 336.03125 457.199219 336.03125 C 449.390625 336.03125 444.699219 345.402344 446.261719 340.726562 C 447.820312 336.03125 454.070312 319.636719 460.324219 319.636719 C 466.574219 319.636719 472.039062 339.941406 482.972656 331.355469 C 493.910156 322.753906 487.917969 304.015625 487.917969 304.015625 C 500.933594 307.652344 506.144531 336.300781 484.789062 359.203125 Z M 484.789062 359.203125 " fill-opacity="1" fill-rule="nonzero"/><path fill="#5a6496" d="M 435.84375 291.511719 C 434.285156 293.070312 431.671875 284.21875 428.035156 284.21875 C 424.390625 284.21875 416.582031 296.722656 407.730469 299.839844 C 401.980469 301.871094 397.328125 299.953125 394.914062 296.496094 C 395.375 296.066406 395.832031 295.617188 396.273438 295.160156 C 402.289062 288.867188 403.644531 279.476562 405.550781 270.449219 C 404.960938 276.273438 405.164062 282.832031 408.773438 284.21875 C 415.535156 286.828125 422.304688 276.925781 430.117188 275.886719 C 437.925781 274.847656 437.402344 289.949219 435.84375 291.511719 Z M 435.84375 291.511719 " fill-opacity="1" fill-rule="nonzero"/><path fill="#ffb180" d="M 283.28125 430.8125 C 283.28125 430.8125 293.523438 424.824219 293.175781 422.742188 C 292.828125 420.65625 283.28125 430.8125 283.28125 430.8125 Z M 283.28125 430.8125 " fill-opacity="0.49" fill-rule="nonzero"/><path fill="#ffb180" d="M 286.148438 442.007812 C 286.148438 442.007812 296.992188 431.765625 295.953125 429.683594 C 294.910156 427.601562 286.148438 442.007812 286.148438 442.007812 Z M 286.148438 442.007812 " fill-opacity="0.49" fill-rule="nonzero"/><path fill="#ffb180" d="M 302.546875 436.019531 C 302.546875 436.019531 307.757812 430.375 306.714844 429.683594 C 305.675781 428.992188 302.546875 436.019531 302.546875 436.019531 Z M 302.546875 436.019531 " fill-opacity="0.49" fill-rule="nonzero"/><path fill="#ffb180" d="M 332.226562 414.148438 C 332.226562 414.148438 328.929688 407.117188 329.972656 405.382812 C 331.011719 403.648438 332.226562 414.148438 332.226562 414.148438 Z M 332.226562 414.148438 " fill-opacity="0.49" fill-rule="nonzero"/><path fill="#ffb687" d="M 329.878906 212.617188 C 333.691406 209.570312 419.363281 136.101562 423.207031 132.8125 C 419.671875 136.308594 344.132812 210.96875 341.074219 218.085938 C 337.953125 225.378906 359.132812 251.230469 368.15625 255.585938 C 370.171875 256.554688 372.101562 257.554688 373.9375 258.554688 C 373.558594 258.675781 373.195312 258.726562 372.835938 258.703125 C 357.214844 257.929688 331.449219 230.589844 325.984375 227.457031 C 320.507812 224.339844 307.234375 213.40625 310.363281 214.183594 C 313.484375 214.964844 325.984375 215.738281 329.878906 212.617188 Z M 329.878906 212.617188 " fill-opacity="0.43" fill-rule="nonzero"/><path fill="#ffc29b" d="M 491.042969 137.886719 C 491.042969 135.289062 482.855469 119.191406 477.761719 118.101562 C 470.472656 116.539062 434.808594 108.210938 412.9375 115.503906 C 412.03125 115.800781 410.980469 116.222656 409.820312 116.742188 C 410.933594 124.761719 413.085938 132.660156 415.507812 140.453125 C 420.351562 135.644531 423.34375 132.6875 423.34375 132.6875 C 423.34375 132.6875 424.914062 134.246094 430.117188 134.765625 C 435.328125 135.289062 455.109375 135.808594 455.109375 137.367188 C 455.109375 138.925781 456.148438 143.097656 457.71875 145.179688 C 459.277344 147.257812 462.917969 146.21875 462.917969 146.21875 C 462.917969 146.21875 461.878906 132.164062 462.917969 134.246094 C 463.957031 136.324219 465.527344 144.136719 467.085938 147.257812 C 468.644531 150.386719 472.289062 149.347656 472.820312 147.257812 C 473.339844 145.179688 469.167969 129.554688 470.730469 131.113281 C 472.289062 132.683594 476.460938 144.136719 478.539062 145.699219 C 480.617188 147.257812 483.75 147.789062 483.75 145.179688 C 483.75 142.578125 476.460938 125.914062 478.019531 127.996094 C 479.578125 130.074219 484.535156 139.445312 487.652344 140.496094 C 490.785156 141.535156 491.042969 140.5 491.042969 137.886719 Z M 491.042969 137.886719 " fill-opacity="1" fill-rule="nonzero"/><path fill="#f5833b" d="M 462.917969 134.246094 C 462.917969 134.246094 457.195312 130.078125 453.027344 129.558594 C 448.863281 129.039062 459.789062 127.21875 462.917969 134.246094 Z M 462.917969 134.246094 " fill-opacity="1" fill-rule="nonzero"/><path fill="#f5833b" d="M 470.730469 131.117188 C 470.730469 131.117188 465.003906 127.214844 461.359375 126.695312 C 457.714844 126.171875 468.644531 125.121094 470.730469 131.117188 Z M 470.730469 131.117188 " fill-opacity="1" fill-rule="nonzero"/><path fill="#f5833b" d="M 478.019531 127.996094 C 478.019531 127.996094 473.59375 124.351562 469.429688 123.828125 C 465.265625 123.308594 475.414062 121.746094 478.019531 127.996094 Z M 478.019531 127.996094 " fill-opacity="1" fill-rule="nonzero"/><path fill="#ffb687" d="M 423.335938 132.695312 C 423.335938 132.695312 423.34375 132.707031 423.335938 132.707031 C 423.3125 132.71875 423.273438 132.757812 423.210938 132.808594 C 423.273438 132.75 423.3125 132.71875 423.335938 132.695312 Z M 423.335938 132.695312 " fill-opacity="0.43" fill-rule="nonzero"/><path fill="#d8f5eb" d="M 487.910156 864.332031 C 471.25 835.175781 437.921875 818.515625 405.640625 824.753906 C 373.359375 831.007812 358.789062 788.308594 345.246094 775.804688 C 331.703125 763.3125 316.082031 781.015625 294.222656 767.472656 C 272.347656 753.941406 296.300781 710.191406 259.847656 703.949219 C 223.402344 697.695312 208.820312 659.160156 208.820312 659.160156 C 208.820312 659.160156 215.308594 655.007812 225.667969 645.882812 C 231.285156 658.070312 247.761719 686.46875 279.636719 687.285156 C 320.25 688.324219 293.167969 737.277344 310.878906 748.726562 C 328.578125 760.1875 346.28125 743.527344 366.066406 758.097656 C 385.859375 772.679688 378.566406 815.382812 421.257812 799.757812 C 463.953125 784.144531 480.613281 829.964844 500.410156 849.761719 C 519.683594 869.03125 566.625 851.738281 565.1875 795.945312 C 568.359375 801.574219 571.746094 807 575.355469 812.210938 C 575.457031 814.71875 575.816406 817.515625 576.429688 820.59375 C 586.839844 872.664062 504.574219 893.496094 487.910156 864.332031 Z M 487.910156 864.332031 " fill-opacity="1" fill-rule="nonzero"/><path fill="#98a5ed" d="M 396.273438 566.46875 C 396.273438 574.128906 377.488281 712.246094 370.628906 762.445312 C 369.28125 760.824219 367.773438 759.355469 366.070312 758.097656 C 360.347656 753.886719 354.800781 752.285156 349.375 751.855469 C 384.863281 690.785156 396.273438 558.464844 396.273438 566.46875 Z M 396.273438 566.46875 " fill-opacity="1" fill-rule="nonzero"/><path fill="#98a5ed" d="M 439.34375 631.082031 C 438.863281 628.675781 438.546875 626.890625 438.445312 625.828125 C 438.21875 623.539062 438.628906 625.65625 439.34375 631.082031 Z M 439.34375 631.082031 " fill-opacity="1" fill-rule="nonzero"/><path fill="#98a5ed" d="M 500.410156 849.761719 C 483.589844 832.933594 469.035156 797.320312 438.832031 796.601562 C 451.507812 741.03125 442.492188 654.726562 439.34375 631.085938 C 446.019531 664.085938 486.472656 813.273438 502.492188 791.425781 C 514.035156 775.691406 517.125 671.785156 517.898438 605.292969 C 521.183594 661.269531 532.613281 738.5 565.191406 795.945312 C 566.628906 851.738281 519.683594 869.03125 500.410156 849.761719 Z M 500.410156 849.761719 " fill-opacity="1" fill-rule="nonzero"/><path fill="#ffb180" d="M 491.5625 525.851562 C 491.5625 525.851562 469.476562 522.167969 446.53125 509.808594 C 472.964844 515.027344 483.109375 501.34375 486.871094 492.359375 C 486.074219 496.019531 485.523438 498.957031 485.3125 500.851562 C 483.75 514.917969 491.5625 525.851562 491.5625 525.851562 Z M 491.5625 525.851562 " fill-opacity="0.49" fill-rule="nonzero"/><path fill="#ffb180" d="M 382.210938 848.453125 C 378.304688 853.917969 349.410156 859.386719 342.382812 864.078125 C 335.355469 868.757812 331.449219 877.351562 327.542969 880.476562 C 323.636719 883.605469 316.601562 882.820312 310.363281 882.046875 C 304.109375 881.257812 291.613281 878.917969 286.929688 875.792969 C 282.238281 872.664062 279.894531 864.078125 283.800781 862.515625 C 285.085938 862.007812 286.871094 861.824219 288.828125 861.761719 C 287.929688 862.566406 287.1875 863.589844 286.933594 864.851562 C 286.148438 868.757812 304.113281 881.261719 314.273438 879.699219 C 324.417969 878.140625 329.882812 860.945312 333.015625 857.824219 C 336.136719 854.707031 370.496094 853.132812 375.191406 847.667969 C 378.054688 844.320312 377.128906 836.316406 375.964844 830.597656 C 380.253906 837.726562 384.320312 845.496094 382.210938 848.453125 Z M 382.210938 848.453125 " fill-opacity="1" fill-rule="nonzero"/><path fill="#ffb180" d="M 520.714844 934.636719 C 520.714844 937.234375 472.820312 934.636719 470.730469 934.636719 C 468.648438 934.636719 466.566406 924.746094 466.566406 922.132812 C 466.566406 922.132812 469.6875 931.25 474.378906 932.035156 C 479.058594 932.808594 509.527344 935.15625 511.859375 932.035156 C 514.207031 928.902344 510.300781 921.09375 507.957031 919.53125 C 505.621094 917.96875 503.273438 919.53125 500.929688 918.753906 C 498.675781 918 506.515625 915.808594 504.363281 905.242188 C 506.597656 910.210938 508.542969 914.449219 509.257812 915.886719 C 511.335938 920.050781 516.550781 921.609375 518.109375 924.21875 C 519.675781 926.824219 520.714844 932.039062 520.714844 934.636719 Z M 520.714844 934.636719 " fill-opacity="1" fill-rule="nonzero"/><path fill="#86cfb5" d="M 618.082031 880.476562 C 618.183594 880.332031 618.285156 880.203125 618.390625 880.058594 C 618.378906 880.148438 618.363281 880.242188 618.351562 880.34375 C 618.265625 880.382812 618.171875 880.4375 618.082031 880.476562 Z M 618.082031 880.476562 " fill-opacity="0.51" fill-rule="nonzero"/><path fill="#91a2f2" d="M 169.605469 665.035156 L 186.386719 674.496094 L 181.480469 682.265625 L 181.058594 682.929688 L 174.3125 693.632812 L 81.429688 841.066406 L 159.480469 685.261719 L 165.140625 673.953125 L 165.492188 673.25 Z M 169.605469 665.035156 " fill-opacity="1" fill-rule="nonzero"/><path fill="#91a2f2" d="M 195.816406 686.089844 L 200.398438 678.113281 L 216.703125 688.746094 L 211.191406 696.117188 C 210.367188 697.234375 209.414062 698.589844 208.53125 699.863281 L 205.867188 703.777344 C 204.109375 706.425781 202.386719 709.105469 200.679688 711.800781 C 197.285156 717.214844 194.042969 722.726562 190.910156 728.3125 C 184.6875 739.496094 179.019531 751.03125 174.121094 762.898438 C 169.25 774.761719 165.152344 786.992188 162.324219 799.5625 C 160.972656 805.847656 159.851562 812.214844 159.242188 818.652344 C 158.667969 825.070312 158.503906 831.53125 158.894531 838.027344 C 158.886719 838.082031 158.894531 838.113281 158.894531 838.113281 C 157.746094 831.695312 157.128906 825.152344 156.949219 818.574219 C 156.804688 812 157.175781 805.402344 157.804688 798.828125 C 159.160156 785.683594 161.871094 772.671875 165.445312 759.914062 C 169.03125 747.148438 173.460938 734.628906 178.515625 722.339844 C 181.046875 716.207031 183.738281 710.125 186.59375 704.101562 C 188.023438 701.09375 189.484375 698.085938 191.007812 695.109375 L 193.328125 690.644531 C 193.441406 690.4375 193.546875 690.226562 193.660156 690.03125 C 194.335938 688.734375 195.015625 687.488281 195.816406 686.089844 Z M 195.816406 686.089844 " fill-opacity="1" fill-rule="nonzero"/><path fill="#91a2f2" d="M 43.871094 773.257812 C 49.644531 770.214844 55.121094 766.714844 60.335938 762.882812 C 65.527344 759.03125 70.394531 754.777344 75.074219 750.367188 C 84.367188 741.4375 92.710938 731.601562 100.335938 721.292969 C 107.953125 710.953125 114.886719 700.136719 121.230469 689.023438 C 124.390625 683.453125 127.425781 677.824219 130.292969 672.109375 C 131.722656 669.261719 133.125 666.402344 134.476562 663.523438 L 136.445312 659.210938 C 137.078125 657.800781 137.746094 656.28125 138.273438 654.996094 L 141.722656 646.464844 L 159.261719 654.910156 L 154.808594 662.960938 C 154.023438 664.367188 153.308594 665.59375 152.554688 666.851562 C 152.445312 667.046875 152.320312 667.246094 152.207031 667.449219 L 149.585938 671.746094 C 147.816406 674.589844 146.003906 677.394531 144.175781 680.183594 C 140.5 685.746094 136.691406 691.195312 132.753906 696.539062 C 124.855469 707.222656 116.4375 717.492188 107.375 727.171875 C 98.300781 736.828125 88.578125 745.890625 78.039062 753.851562 C 72.738281 757.796875 67.289062 761.523438 61.589844 764.804688 C 55.871094 768.0625 49.953125 770.917969 43.871094 773.257812 Z M 43.871094 773.257812 " fill-opacity="1" fill-rule="nonzero"/><path fill="#91a2f2" d="M 150.082031 637.664062 L 219.257812 676.664062 C 221.953125 678.183594 222.597656 681.792969 220.589844 684.148438 L 216.699219 688.742188 L 201 694.171875 L 144.523438 662.332031 L 141.722656 646.46875 L 142.828125 640.980469 C 143.492188 637.707031 147.171875 636.019531 150.082031 637.664062 Z M 150.082031 637.664062 " fill-opacity="1" fill-rule="nonzero"/><path fill="#7286e3" d="M 201 694.171875 C 152.921875 765.453125 158.632812 835.222656 158.890625 838.027344 C 158.882812 838.082031 158.890625 838.113281 158.890625 838.113281 C 157.742188 831.695312 157.125 825.152344 156.945312 818.574219 C 156.800781 812 157.171875 805.402344 157.800781 798.828125 C 159.15625 785.683594 161.867188 772.671875 165.441406 759.914062 C 169.027344 747.148438 173.457031 734.628906 178.511719 722.339844 C 181.042969 716.207031 183.734375 710.125 186.589844 704.101562 C 188.019531 701.09375 189.480469 698.085938 191.003906 695.109375 L 193.324219 690.644531 Z M 201 694.171875 " fill-opacity="1" fill-rule="nonzero"/><path fill="#7286e3" d="M 144.183594 662.933594 L 152.203125 667.457031 L 149.582031 671.753906 C 147.8125 674.597656 146 677.402344 144.171875 680.1875 C 140.496094 685.75 136.6875 691.203125 132.75 696.542969 C 124.855469 707.230469 116.433594 717.5 107.371094 727.175781 C 98.296875 736.835938 88.578125 745.898438 78.039062 753.859375 C 72.734375 757.800781 67.285156 761.53125 61.585938 764.8125 C 55.867188 768.0625 49.949219 770.921875 43.867188 773.257812 C 108.542969 745.160156 144.183594 662.933594 144.183594 662.933594 Z M 144.183594 662.933594 " fill-opacity="1" fill-rule="nonzero"/><path fill="#7286e3" d="M 161.910156 662.265625 C 164.832031 657.085938 168.875 653.105469 173.226562 650.710938 L 196.773438 663.988281 C 196.976562 668.949219 195.660156 674.472656 192.742188 679.652344 C 191.253906 682.289062 189.480469 684.609375 187.527344 686.578125 L 181.058594 682.933594 L 174.3125 693.636719 C 171.183594 694.0625 168.117188 693.574219 165.4375 692.0625 C 162.746094 690.546875 160.746094 688.171875 159.480469 685.265625 L 165.136719 673.960938 L 158.679688 670.320312 C 159.355469 667.628906 160.421875 664.902344 161.910156 662.265625 Z M 161.910156 662.265625 " fill-opacity="1" fill-rule="nonzero"/><path fill="#7286e3" d="M 165.097656 673.929688 L 165.492188 673.25 L 174.167969 678.144531 L 173.78125 678.828125 L 81.429688 841.066406 L 165.140625 673.953125 Z M 165.097656 673.929688 " fill-opacity="1" fill-rule="nonzero"/><path fill="#91a2f2" d="M 187.292969 653.269531 C 187.71875 653.507812 188.125 653.773438 188.511719 654.070312 C 188.902344 654.363281 189.273438 654.683594 189.625 655.03125 C 189.976562 655.378906 190.304688 655.75 190.617188 656.148438 C 190.925781 656.542969 191.214844 656.964844 191.480469 657.40625 C 191.746094 657.847656 191.988281 658.308594 192.210938 658.792969 C 192.429688 659.277344 192.625 659.78125 192.792969 660.300781 C 192.964844 660.820312 193.109375 661.355469 193.230469 661.910156 C 193.351562 662.460938 193.445312 663.027344 193.511719 663.605469 C 193.582031 664.183594 193.625 664.773438 193.640625 665.371094 C 193.65625 665.96875 193.644531 666.578125 193.609375 667.191406 C 193.574219 667.804688 193.511719 668.425781 193.421875 669.046875 C 193.332031 669.671875 193.21875 670.296875 193.078125 670.921875 C 192.9375 671.550781 192.773438 672.175781 192.585938 672.800781 C 192.394531 673.421875 192.183594 674.042969 191.945312 674.65625 C 191.707031 675.273438 191.445312 675.878906 191.160156 676.480469 C 190.878906 677.078125 190.574219 677.667969 190.246094 678.25 C 189.921875 678.828125 189.574219 679.394531 189.207031 679.945312 C 188.839844 680.5 188.457031 681.039062 188.054688 681.558594 C 187.648438 682.082031 187.230469 682.585938 186.796875 683.070312 C 186.359375 683.554688 185.910156 684.019531 185.445312 684.464844 C 184.984375 684.90625 184.507812 685.328125 184.019531 685.726562 C 183.53125 686.125 183.035156 686.5 182.527344 686.847656 C 182.019531 687.199219 181.507812 687.519531 180.988281 687.816406 C 180.464844 688.113281 179.941406 688.382812 179.410156 688.621094 C 178.878906 688.863281 178.347656 689.074219 177.8125 689.257812 C 177.277344 689.441406 176.742188 689.59375 176.210938 689.71875 C 175.675781 689.84375 175.148438 689.933594 174.621094 689.996094 C 174.09375 690.058594 173.570312 690.09375 173.054688 690.09375 C 172.539062 690.09375 172.03125 690.066406 171.53125 690.003906 C 171.03125 689.945312 170.542969 689.855469 170.0625 689.734375 C 169.582031 689.613281 169.117188 689.460938 168.664062 689.28125 C 168.210938 689.097656 167.773438 688.890625 167.347656 688.652344 C 166.925781 688.414062 166.519531 688.144531 166.128906 687.851562 C 165.742188 687.558594 165.371094 687.238281 165.019531 686.890625 C 164.667969 686.542969 164.335938 686.171875 164.027344 685.773438 C 163.714844 685.378906 163.429688 684.957031 163.160156 684.515625 C 162.894531 684.074219 162.652344 683.609375 162.433594 683.125 C 162.214844 682.644531 162.019531 682.140625 161.847656 681.621094 C 161.679688 681.101562 161.53125 680.5625 161.414062 680.011719 C 161.292969 679.460938 161.199219 678.894531 161.128906 678.316406 C 161.0625 677.738281 161.019531 677.148438 161.003906 676.550781 C 160.988281 675.949219 160.996094 675.34375 161.035156 674.730469 C 161.070312 674.113281 161.132812 673.496094 161.222656 672.871094 C 161.308594 672.25 161.425781 671.625 161.5625 670.996094 C 161.703125 670.371094 161.867188 669.746094 162.058594 669.121094 C 162.246094 668.5 162.460938 667.878906 162.699219 667.265625 C 162.9375 666.648438 163.199219 666.042969 163.480469 665.441406 C 163.765625 664.839844 164.070312 664.253906 164.394531 663.671875 C 164.722656 663.09375 165.070312 662.527344 165.4375 661.972656 C 165.800781 661.421875 166.1875 660.882812 166.589844 660.363281 C 166.992188 659.839844 167.410156 659.335938 167.847656 658.851562 C 168.28125 658.367188 168.734375 657.902344 169.195312 657.457031 C 169.660156 657.011719 170.136719 656.59375 170.625 656.195312 C 171.109375 655.796875 171.609375 655.421875 172.113281 655.074219 C 172.621094 654.722656 173.136719 654.402344 173.65625 654.105469 C 174.175781 653.808594 174.703125 653.539062 175.234375 653.296875 C 175.761719 653.058594 176.296875 652.84375 176.832031 652.660156 C 177.363281 652.480469 177.898438 652.324219 178.433594 652.203125 C 178.964844 652.078125 179.496094 651.984375 180.023438 651.921875 C 180.550781 651.859375 181.074219 651.828125 181.589844 651.828125 C 182.105469 651.828125 182.613281 651.855469 183.113281 651.914062 C 183.613281 651.976562 184.101562 652.066406 184.582031 652.1875 C 185.058594 652.308594 185.527344 652.460938 185.980469 652.640625 C 186.433594 652.820312 186.871094 653.03125 187.292969 653.269531 Z M 187.292969 653.269531 " fill-opacity="1" fill-rule="nonzero"/><path fill="#aee8d4" d="M 168.207031 665.816406 C 172.085938 658.929688 179.320312 655.644531 184.355469 658.488281 C 188.371094 660.75 189.78125 666.242188 188.203125 671.871094 C 187.800781 673.289062 187.21875 674.714844 186.441406 676.097656 C 182.550781 682.992188 175.324219 686.269531 170.296875 683.433594 C 167.878906 682.074219 166.414062 679.5625 165.96875 676.558594 C 165.464844 673.273438 166.179688 669.414062 168.207031 665.816406 Z M 168.207031 665.816406 " fill-opacity="1" fill-rule="nonzero"/><path fill="#d8f5eb" d="M 167.734375 672.328125 C 171.621094 665.433594 178.839844 662.15625 183.878906 664.992188 C 186.292969 666.351562 187.757812 668.867188 188.203125 671.867188 C 187.804688 673.285156 187.222656 674.710938 186.445312 676.09375 C 182.554688 682.988281 175.328125 686.265625 170.300781 683.429688 C 167.882812 682.070312 166.417969 679.558594 165.972656 676.554688 C 166.367188 675.140625 166.953125 673.714844 167.734375 672.328125 Z M 167.734375 672.328125 " fill-opacity="1" fill-rule="nonzero"/></svg>