<svg xmlns="http://www.w3.org/2000/svg" xmlns:xlink="http://www.w3.org/1999/xlink" width="1080" zoomAndPan="magnify" viewBox="0 0 810 1012.49997" height="1350" preserveAspectRatio="xMidYMid meet" version="1.0"><defs><clipPath id="ca8f63f710"><path d="M 478 835 L 522 835 L 522 874.1875 L 478 874.1875 Z M 478 835 " clip-rule="nonzero"/></clipPath><clipPath id="dc116d8a2d"><path d="M 488 830 L 534 830 L 534 874.1875 L 488 874.1875 Z M 488 830 " clip-rule="nonzero"/></clipPath><clipPath id="23aa24f865"><path d="M 498 831 L 544 831 L 544 874.1875 L 498 874.1875 Z M 498 831 " clip-rule="nonzero"/></clipPath><clipPath id="f4ac9b9173"><path d="M 506 830 L 556 830 L 556 874.1875 L 506 874.1875 Z M 506 830 " clip-rule="nonzero"/></clipPath><clipPath id="52eab8cfad"><path d="M 249 738 L 389 738 L 389 874.1875 L 249 874.1875 Z M 249 738 " clip-rule="nonzero"/></clipPath><clipPath id="2c37b3e4f3"><path d="M 156.019531 139 L 214 139 L 214 198 L 156.019531 198 Z M 156.019531 139 " clip-rule="nonzero"/></clipPath><clipPath id="f690b4fbed"><path d="M 156.019531 162 L 348 162 L 348 249 L 156.019531 249 Z M 156.019531 162 " clip-rule="nonzero"/></clipPath></defs><path fill="#ddaca2" d="M 300.007812 221.566406 C 307.753906 197.496094 286.8125 169.210938 253.234375 158.398438 C 219.660156 147.582031 186.164062 158.328125 178.421875 182.402344 C 170.679688 206.476562 191.621094 234.757812 225.195312 245.574219 C 258.769531 256.386719 292.265625 245.640625 300.007812 221.566406 Z M 300.007812 221.566406 " fill-opacity="1" fill-rule="nonzero"/><path fill="#edc7be" d="M 296.476562 213.613281 C 304.21875 189.539062 283.277344 161.257812 249.703125 150.441406 C 216.128906 139.625 182.632812 150.375 174.890625 174.445312 C 167.144531 198.519531 188.085938 226.800781 221.664062 237.617188 C 255.238281 248.433594 288.734375 237.683594 296.476562 213.613281 Z M 296.476562 213.613281 " fill-opacity="1" fill-rule="nonzero"/><path fill="#ba9088" d="M 179.011719 205.589844 C 179.011719 205.589844 199.328125 185.257812 228.480469 192.332031 C 257.628906 199.402344 282.804688 231.667969 282.804688 231.667969 C 282.804688 231.667969 293.40625 225.480469 296.9375 213.105469 C 296.9375 213.105469 259.835938 159.183594 173.710938 188.796875 C 171.503906 191.890625 179.011719 205.589844 179.011719 205.589844 Z M 179.011719 205.589844 " fill-opacity="1" fill-rule="nonzero"/><path fill="#f9dfd7" d="M 534.996094 522.058594 C 534.996094 522.058594 509.378906 574.210938 490.828125 590.125 C 490.828125 590.125 477.578125 581.285156 470.511719 555.648438 C 463.445312 530.011719 437.828125 508.796875 437.828125 508.796875 C 437.828125 508.796875 449.3125 488.464844 444.011719 481.394531 C 444.011719 481.394531 458.148438 473.4375 459.03125 450.453125 C 459.03125 450.453125 469.1875 448.246094 478.90625 439.40625 C 488.621094 430.566406 535.878906 406.253906 535.878906 423.933594 C 535.878906 441.613281 517.328125 478.742188 534.996094 522.058594 Z M 619.355469 243.160156 C 584.90625 218.410156 562.820312 241.394531 551.339844 259.957031 C 539.855469 278.519531 530.578125 278.078125 530.578125 278.078125 C 515.121094 260.839844 486.414062 253.328125 486.414062 253.328125 C 469.628906 215.316406 426.347656 219.734375 426.347656 219.734375 C 426.347656 219.734375 420.074219 207.183594 392.78125 204.707031 C 363.628906 202.054688 352.144531 187.910156 352.144531 187.910156 C 309.746094 156.972656 247.472656 170.671875 221.855469 153.878906 C 198.269531 138.40625 194.914062 146.363281 194.914062 146.363281 C 181.664062 145.480469 184.3125 151.667969 184.3125 151.667969 C 175.480469 151.667969 174.59375 158.738281 174.59375 158.738281 C 163.113281 164.929688 184.3125 168.464844 192.261719 173.769531 C 200.210938 179.070312 156.046875 178.542969 168.414062 186.144531 C 179.894531 193.214844 195.796875 180.839844 229.363281 182.605469 C 262.929688 184.375 294.90625 222.296875 344.195312 232.996094 C 409.5625 247.136719 420.164062 274.542969 420.164062 274.542969 C 403.378906 286.035156 361.863281 348.796875 356.5625 372.664062 C 351.261719 396.53125 343.3125 386.808594 338.011719 416.863281 C 332.710938 446.917969 313.71875 434.101562 311.070312 494.210938 C 308.421875 554.324219 352.144531 556.53125 352.144531 556.53125 C 368.046875 602.5 451.964844 626.367188 443.128906 636.976562 C 434.296875 647.582031 440.480469 652.003906 440.480469 652.003906 C 426.347656 679.40625 415.746094 676.753906 415.746094 676.753906 C 376.878906 682.058594 368.929688 705.042969 367.164062 710.347656 C 365.394531 715.648438 339.777344 722.722656 322.996094 740.402344 C 307.183594 757.019531 292.960938 739.960938 281.746094 754.898438 C 281.039062 755.78125 280.417969 756.84375 279.710938 758.082031 C 268.230469 778.414062 300.027344 798.746094 281.480469 812.003906 C 262.929688 825.265625 275.296875 838.523438 275.296875 838.523438 C 275.296875 838.523438 253.210938 858.851562 277.945312 856.203125 C 278.828125 856.117188 279.800781 855.941406 280.683594 855.757812 C 286.601562 854.519531 291.550781 851.25 295.964844 846.660156 C 308.507812 833.574219 316.019531 809.707031 324.761719 790.789062 C 332.09375 775.054688 368.578125 757.816406 397.109375 746.324219 C 416.71875 738.457031 432.53125 733.328125 432.53125 733.328125 C 432.53125 733.328125 450.195312 784.601562 437.828125 819.078125 C 425.460938 853.550781 446.222656 846.390625 466.980469 857.085938 C 497.898438 873.003906 501.429688 866.8125 501.429688 866.8125 C 504.960938 871.230469 511.144531 867.691406 511.144531 867.691406 C 515.5625 873.882812 522.628906 869.464844 522.628906 869.464844 C 527.929688 873.003906 534.996094 870.34375 534.996094 870.34375 C 547.363281 872.117188 542.945312 861.503906 542.945312 861.503906 C 541.179688 840.292969 514.59375 837.375 490.828125 821.726562 C 462.5625 803.164062 493.480469 646.699219 493.480469 646.699219 L 505.847656 621.0625 C 543.832031 596.3125 570.332031 550.34375 572.980469 519.40625 C 575.628906 488.464844 566.089844 483.871094 582.695312 448.6875 C 599.039062 414.035156 582.875 391.050781 569.445312 373.546875 C 565.207031 368.066406 559.730469 342.609375 559.730469 342.609375 C 559.730469 342.609375 570.332031 338.367188 572.980469 342.609375 C 579.164062 352.332031 586.230469 336.421875 591.53125 332 C 596.652344 327.667969 605.664062 338.1875 610.082031 332 C 613.789062 326.785156 625.097656 323.160156 633.046875 316.089844 C 640.996094 309.015625 653.804688 267.910156 619.355469 243.160156 Z M 619.355469 243.160156 " fill-opacity="1" fill-rule="nonzero"/><path fill="#edc7be" d="M 574.304688 299.734375 C 574.304688 299.734375 597.714844 305.480469 592.414062 324.042969 C 592.414062 324.042969 583.582031 328.464844 575.628906 324.929688 C 575.628906 324.929688 568.121094 322.71875 576.511719 314.320312 C 583.84375 306.984375 557.964844 296.640625 574.304688 299.734375 Z M 574.304688 299.734375 " fill-opacity="1" fill-rule="nonzero"/><path fill="#ddaca2" d="M 401.910156 422.710938 C 401.910156 422.710938 461.238281 463.273438 417.070312 495.097656 C 417.070312 495.097656 463.445312 540.621094 479.347656 576.863281 C 479.347656 576.863281 464.773438 525.152344 441.804688 503.933594 C 441.804688 503.933594 450.195312 491.117188 444.011719 481.394531 C 444.011719 481.394531 459.734375 474.5 458.941406 452.753906 Z M 401.910156 422.710938 " fill-opacity="1" fill-rule="nonzero"/><path fill="#edc7be" d="M 550.894531 328.464844 C 550.894531 328.464844 566.355469 325.371094 566.796875 340.839844 L 563.085938 341.460938 C 563.085938 341.460938 563.261719 332.886719 550.894531 328.464844 Z M 550.894531 328.464844 " fill-opacity="1" fill-rule="nonzero"/><path fill="#ddaca2" d="M 579.605469 306.808594 C 579.605469 306.808594 592.855469 328.90625 561.054688 322.71875 C 561.054688 322.71875 569.445312 326.695312 568.5625 340.839844 L 572.097656 341.726562 C 572.097656 341.726562 568.917969 330.054688 572.097656 328.464844 C 575.628906 326.695312 587.996094 332 592.414062 324.042969 C 592.414062 324.042969 594.621094 312.996094 579.605469 306.808594 Z M 579.605469 306.808594 " fill-opacity="1" fill-rule="nonzero"/><path fill="#ddaca2" d="M 548.246094 286.917969 C 549.484375 286.121094 538.972656 275.601562 550.894531 263.050781 C 550.894531 263.050781 532.347656 275.425781 548.246094 286.917969 Z M 548.246094 286.917969 " fill-opacity="1" fill-rule="nonzero"/><path fill="#edc7be" d="M 550.011719 279.84375 C 550.011719 279.84375 550.011719 265.703125 557.964844 266.585938 C 565.914062 267.46875 551.78125 283.382812 550.011719 279.84375 Z M 550.011719 279.84375 " fill-opacity="1" fill-rule="nonzero"/><path fill="#edc7be" d="M 549.570312 288.242188 C 549.570312 288.242188 577.839844 293.546875 584.90625 284.707031 C 591.972656 275.867188 592.414062 293.988281 579.164062 294.875 C 565.914062 295.757812 592.414062 303.714844 598.597656 293.105469 C 604.78125 282.496094 614.496094 313.4375 603.898438 313.4375 C 603.898438 313.4375 620.679688 320.507812 614.496094 327.582031 C 614.496094 327.582031 644.089844 322.71875 641.4375 290.894531 C 641.4375 290.894531 618.914062 309.902344 609.195312 294.875 C 599.480469 279.84375 594.179688 287.800781 594.179688 287.800781 C 594.179688 287.800781 593.207031 261.371094 579.605469 274.984375 C 571.65625 282.941406 565.472656 288.242188 549.570312 288.242188 Z M 549.570312 288.242188 " fill-opacity="1" fill-rule="nonzero"/><path fill="#edc7be" d="M 583.582031 255.976562 C 583.582031 255.976562 594.179688 264.816406 601.246094 257.746094 C 601.246094 257.746094 597.714844 272.773438 583.582031 255.976562 Z M 583.582031 255.976562 " fill-opacity="1" fill-rule="nonzero"/><path fill="#edc7be" d="M 591.53125 265.703125 C 591.53125 265.703125 604.78125 274.542969 607.429688 263.050781 C 607.429688 263.050781 607.429688 280.730469 591.53125 265.703125 Z M 591.53125 265.703125 " fill-opacity="1" fill-rule="nonzero"/><path fill="#edc7be" d="M 576.511719 263.050781 C 576.511719 263.050781 587.820312 265.789062 589.234375 261.8125 C 589.234375 261.8125 586.230469 270.121094 576.511719 263.050781 Z M 576.511719 263.050781 " fill-opacity="1" fill-rule="nonzero"/><path fill="#edc7be" d="M 611.847656 267.46875 C 611.847656 267.46875 619.796875 272.773438 625.097656 263.050781 C 625.097656 263.050781 622.445312 280.730469 611.847656 267.46875 Z M 611.847656 267.46875 " fill-opacity="1" fill-rule="nonzero"/><path fill="#edc7be" d="M 519.097656 275.425781 C 519.097656 275.425781 489.0625 287.800781 497.011719 319.625 C 497.011719 319.625 481.113281 291.335938 519.097656 275.425781 Z M 519.097656 275.425781 " fill-opacity="1" fill-rule="nonzero"/><path fill="#edc7be" d="M 516.445312 300.175781 C 516.445312 300.175781 489.945312 316.972656 500.546875 327.582031 C 500.546875 327.582031 507.613281 331.117188 507.613281 321.394531 C 507.613281 305.394531 516.445312 300.175781 516.445312 300.175781 Z M 516.445312 300.175781 " fill-opacity="1" fill-rule="nonzero"/><path fill="#ddaca2" d="M 504.960938 331.117188 C 504.960938 331.117188 519.183594 346.761719 541.621094 337.660156 C 541.621094 337.660156 548.6875 348.355469 562.820312 341.28125 C 562.820312 341.28125 567.0625 373.8125 574.304688 379.292969 C 581.371094 384.597656 602.570312 421.460938 578.898438 456.730469 C 578.898438 456.730469 564.261719 448.730469 570.21875 412.867188 C 570.21875 412.867188 578.898438 387.546875 539.296875 380.867188 C 510.132812 373.484375 536.136719 355.832031 518.214844 348.796875 C 504.960938 343.59375 504.960938 331.117188 504.960938 331.117188 Z M 504.960938 331.117188 " fill-opacity="1" fill-rule="nonzero"/><path fill="#edc7be" d="M 467.863281 358.519531 C 467.863281 358.519531 437.828125 388.574219 411.328125 350.566406 C 411.328125 350.566406 420.164062 377.085938 445.78125 377.96875 C 454.4375 378.234375 465.210938 364.707031 467.863281 358.519531 Z M 467.863281 358.519531 " fill-opacity="1" fill-rule="nonzero"/><path fill="#edc7be" d="M 362.746094 383.273438 C 362.746094 383.273438 377.761719 400.066406 396.3125 398.300781 C 416.011719 396.445312 424.578125 389.460938 437.828125 396.53125 C 437.828125 396.53125 432.53125 387.691406 405.144531 392.996094 C 376.878906 398.476562 362.746094 383.273438 362.746094 383.273438 Z M 362.746094 383.273438 " fill-opacity="1" fill-rule="nonzero"/><path fill="#ddaca2" d="M 445.78125 392.996094 C 445.78125 392.996094 460.796875 413.328125 485.53125 408.023438 C 510.261719 402.71875 550.453125 408.640625 535.171875 430.917969 C 535.171875 430.917969 540.03125 415.183594 525.105469 417.835938 C 510.261719 420.398438 470.511719 446.917969 445.78125 392.996094 Z M 445.78125 392.996094 " fill-opacity="1" fill-rule="nonzero"/><path fill="#edc7be" d="M 387.480469 413.328125 C 387.480469 413.328125 456.378906 459.292969 483.585938 435.160156 C 483.585938 435.160156 452.582031 472.023438 424.578125 442.5 C 408.679688 425.703125 387.480469 413.328125 387.480469 413.328125 Z M 387.480469 413.328125 " fill-opacity="1" fill-rule="nonzero"/><path fill="#edc7be" d="M 411.328125 230.34375 C 411.328125 230.34375 417.511719 282.496094 467.863281 278.960938 C 467.863281 278.960938 496.128906 277.195312 486.414062 253.328125 C 486.414062 253.328125 482.351562 262.695312 474.046875 266.585938 C 456.910156 274.628906 426.789062 274.894531 411.328125 230.34375 Z M 411.328125 230.34375 " fill-opacity="1" fill-rule="nonzero"/><path fill="#ddaca2" d="M 354.796875 195.867188 C 354.796875 195.867188 323.878906 208.242188 341.546875 222.386719 C 359.210938 236.53125 394.546875 228.574219 419.28125 254.210938 L 420.164062 274.542969 C 417.070312 271.359375 402.144531 248.730469 331.828125 230.34375 C 282.804688 217.523438 269.289062 197.988281 241.289062 185.703125 C 219.203125 175.976562 201.539062 191.890625 175.832031 188.441406 C 175.832031 188.441406 209.046875 171.117188 232.894531 175.535156 C 256.746094 179.957031 282.007812 190.738281 302.679688 195.867188 C 323.878906 201.171875 332.714844 199.402344 354.796875 195.867188 Z M 354.796875 195.867188 " fill-opacity="1" fill-rule="nonzero"/><path stroke-linecap="round" transform="matrix(0.702745, 0, 0, 0.703261, 160.86948, 130.858328)" fill="none" stroke-linejoin="miter" d="M 438.105832 322.466918 C 438.105832 322.466918 414.226254 374.001398 375.255184 338.808202 C 336.289672 303.609452 346.345109 232.656505 367.717775 205.000741 L 367.717775 175.400908 " stroke="#725d58" stroke-width="2" stroke-opacity="1" stroke-miterlimit="10"/><path fill="#edc7be" d="M 346.316406 393.792969 C 346.316406 393.792969 330.945312 413.328125 367.164062 432.773438 C 367.164062 432.773438 395.429688 445.152344 401.613281 482.277344 C 401.613281 482.277344 388.363281 451.339844 368.929688 439.847656 C 353.914062 431.007812 328.121094 420.222656 346.316406 393.792969 Z M 346.316406 393.792969 " fill-opacity="1" fill-rule="nonzero"/><path fill="#ddaca2" d="M 335.363281 487.582031 C 335.363281 487.582031 353.03125 580.398438 456.378906 603.382812 C 456.378906 603.382812 345.078125 591.890625 335.363281 487.582031 Z M 335.363281 487.582031 " fill-opacity="1" fill-rule="nonzero"/><path stroke-linecap="round" transform="matrix(0.702745, 0, 0, 0.703261, 160.86948, 130.858328)" fill="none" stroke-linejoin="miter" d="M 469.528376 653.052999 C 405.427052 661.851298 402.909024 714.646646 402.909024 714.646646 " stroke="#725d58" stroke-width="2" stroke-opacity="1" stroke-miterlimit="10"/><path fill="#edc7be" d="M 529.34375 532.753906 C 529.34375 532.753906 552.664062 492.886719 572.097656 517.636719 C 572.097656 517.636719 559.90625 477.0625 529.34375 532.753906 Z M 529.34375 532.753906 " fill-opacity="1" fill-rule="nonzero"/><path fill="#ddaca2" d="M 375.113281 696.203125 C 375.113281 696.203125 352.144531 735.097656 412.214844 724.488281 C 412.214844 724.488281 341.546875 741.285156 375.113281 696.203125 Z M 375.113281 696.203125 " fill-opacity="1" fill-rule="nonzero"/><path fill="#edc7be" d="M 441.363281 667.914062 C 441.363281 667.914062 424.578125 676.753906 439.597656 757.199219 C 439.597656 757.199219 409.5625 682.058594 441.363281 667.914062 Z M 441.363281 667.914062 " fill-opacity="1" fill-rule="nonzero"/><path fill="#ddaca2" d="M 505.847656 621.0625 C 505.847656 621.0625 489.0625 662.609375 466.980469 659.074219 C 466.980469 659.074219 441.714844 818.722656 502.3125 829.683594 C 502.3125 829.683594 476.695312 819.078125 479.875 777.707031 C 482.613281 741.992188 489.945312 655.539062 505.847656 621.0625 Z M 505.847656 621.0625 " fill-opacity="1" fill-rule="nonzero"/><path stroke-linecap="round" transform="matrix(0.702745, 0, 0, 0.703261, 160.86948, 130.858328)" fill="none" stroke-linejoin="miter" d="M 555.002367 280.986049 C 555.002367 280.986049 571.344536 284.757542 572.600771 298.582647 " stroke="#725d58" stroke-width="2" stroke-opacity="1" stroke-miterlimit="10"/><path stroke-linecap="round" transform="matrix(0.702745, 0, 0, 0.703261, 160.86948, 130.858328)" fill="none" stroke-linejoin="miter" d="M 517.926766 408.566937 C 517.926766 408.566937 441.001842 442.999168 413.092308 387.326599 " stroke="#725d58" stroke-width="2" stroke-opacity="1" stroke-miterlimit="10"/><path stroke-linecap="round" transform="matrix(0.702745, 0, 0, 0.703261, 160.86948, 130.858328)" fill="none" stroke-linejoin="miter" d="M 384.682503 412.33843 C 384.682503 412.33843 392.22547 370.857561 409.823874 363.32013 " stroke="#725d58" stroke-width="2" stroke-opacity="1" stroke-miterlimit="10"/><g clip-path="url(#ca8f63f710)"><path stroke-linecap="round" transform="matrix(0.702745, 0, 0, 0.703261, 160.86948, 130.858328)" fill="none" stroke-linejoin="miter" d="M 480.217489 1030.768857 C 480.217489 1030.768857 488.010591 1034.551459 484.486464 1047.371203 " stroke="#725d58" stroke-width="2" stroke-opacity="1" stroke-miterlimit="10"/></g><g clip-path="url(#dc116d8a2d)"><path stroke-linecap="round" transform="matrix(0.702745, 0, 0, 0.703261, 160.86948, 130.858328)" fill="none" stroke-linejoin="miter" d="M 494.04163 1023.231425 C 494.04163 1023.231425 506.609536 1029.519099 499.072128 1048.371009 " stroke="#725d58" stroke-width="2" stroke-opacity="1" stroke-miterlimit="10"/></g><g clip-path="url(#23aa24f865)"><path stroke-linecap="round" transform="matrix(0.702745, 0, 0, 0.703261, 160.86948, 130.858328)" fill="none" stroke-linejoin="miter" d="M 509.127564 1024.492293 C 509.127564 1024.492293 520.439236 1033.290592 515.408738 1050.892744 " stroke="#725d58" stroke-width="2" stroke-opacity="1" stroke-miterlimit="10"/></g><g clip-path="url(#f4ac9b9173)"><path stroke-linecap="round" transform="matrix(0.702745, 0, 0, 0.703261, 160.86948, 130.858328)" fill="none" stroke-linejoin="miter" d="M 520.439236 1023.231425 C 520.439236 1023.231425 535.519611 1033.290592 533.007142 1052.142502 " stroke="#725d58" stroke-width="2" stroke-opacity="1" stroke-miterlimit="10"/></g><path stroke-linecap="round" transform="matrix(0.702745, 0, 0, 0.703261, 160.86948, 130.858328)" fill="none" stroke-linejoin="miter" d="M 429.934747 686.363225 C 429.934747 686.363225 421.135545 693.906211 418.623076 712.758122 C 416.110606 731.615587 385.944296 746.696004 401.024672 763.037289 C 401.024672 763.037289 363.693377 770.202571 384.682503 848.509652 C 398.512203 900.049687 408.567639 928.960764 393.481705 977.979064 " stroke="#725d58" stroke-width="2" stroke-opacity="1" stroke-miterlimit="10"/><path stroke-linecap="round" transform="matrix(0.702745, 0, 0, 0.703261, 160.86948, 130.858328)" fill="none" stroke-linejoin="miter" d="M 436.22148 720.301108 L 407.311404 760.526664 " stroke="#725d58" stroke-width="2" stroke-opacity="1" stroke-miterlimit="10"/><path stroke-linecap="round" transform="matrix(0.702745, 0, 0, 0.703261, 160.86948, 130.858328)" fill="none" stroke-linejoin="miter" d="M 414.854372 751.72281 C 414.854372 751.72281 423.653573 764.292602 446.276916 729.099407 " stroke="#725d58" stroke-width="2" stroke-opacity="1" stroke-miterlimit="10"/><path stroke-linecap="round" transform="matrix(0.702745, 0, 0, 0.703261, 160.86948, 130.858328)" fill="none" stroke-linejoin="miter" d="M 455.076118 734.126213 C 455.076118 734.126213 443.764447 755.494303 433.70901 749.212185 " stroke="#725d58" stroke-width="2" stroke-opacity="1" stroke-miterlimit="10"/><path fill="#edc7be" d="M 533.230469 299.292969 C 533.230469 299.292969 531.464844 351.449219 559.730469 342.609375 C 559.730469 342.609375 525.28125 355.867188 533.230469 299.292969 Z M 533.230469 299.292969 " fill-opacity="1" fill-rule="nonzero"/><path stroke-linecap="round" transform="matrix(0.702745, 0, 0, 0.703261, 160.86948, 130.858328)" fill="none" stroke-linejoin="miter" d="M 463.87532 296.699677 C 463.87532 296.699677 486.498663 267.788601 502.840832 282.874573 " stroke="#725d58" stroke-width="2" stroke-opacity="1" stroke-miterlimit="10"/><path stroke-linecap="round" transform="matrix(0.702745, 0, 0, 0.703261, 160.86948, 130.858328)" fill="none" stroke-linejoin="miter" d="M 462.619085 173.512384 C 462.619085 173.512384 485.242428 206.194954 428.678513 212.482627 " stroke="#725d58" stroke-width="2" stroke-opacity="1" stroke-miterlimit="10"/><path stroke-linecap="round" transform="matrix(0.702745, 0, 0, 0.703261, 160.86948, 130.858328)" fill="none" stroke-linejoin="miter" d="M 259.520388 381.000045 C 259.520388 381.000045 235.040485 411.749655 299.997828 441.999362 " stroke="#725d58" stroke-width="2" stroke-opacity="1" stroke-miterlimit="10"/><path fill="#edc7be" d="M 314.339844 747.121094 C 314.339844 747.121094 362.304688 752.335938 393.222656 735.539062 C 393.222656 735.539062 357.359375 759.496094 314.339844 747.121094 Z M 314.339844 747.121094 " fill-opacity="1" fill-rule="nonzero"/><path fill="#edc7be" d="M 277.503906 826.589844 C 272.203125 840.738281 291.285156 835.871094 291.636719 835.425781 C 291.371094 835.871094 288.988281 840.738281 280.152344 844.265625 C 266.816406 849.578125 270.171875 857.355469 280.683594 855.757812 C 279.800781 855.941406 278.917969 856.117188 277.945312 856.203125 C 253.210938 858.851562 275.296875 838.523438 275.296875 838.523438 C 275.296875 838.523438 262.929688 825.265625 281.480469 812.003906 C 300.027344 798.746094 268.230469 778.414062 279.710938 758.082031 C 280.417969 756.933594 281.039062 755.871094 281.746094 754.898438 C 279.976562 757.992188 272.910156 773.726562 294.289062 790.347656 C 318.136719 808.910156 280.773438 817.925781 277.503906 826.589844 Z M 277.503906 826.589844 " fill-opacity="1" fill-rule="nonzero"/><path fill="#edc7be" d="M 397.109375 746.324219 C 368.578125 757.816406 332.09375 775.054688 324.761719 790.789062 C 315.929688 809.707031 308.507812 833.574219 295.964844 846.660156 L 294.992188 847.539062 C 323.085938 809.265625 309.304688 781.507812 311.953125 769.132812 C 314.339844 758.082031 382.710938 748.269531 397.109375 746.324219 Z M 397.109375 746.324219 " fill-opacity="1" fill-rule="nonzero"/><path fill="#edc7be" d="M 447.105469 807.140625 C 447.105469 807.140625 446.222656 833.664062 458.589844 835.425781 C 458.589844 835.425781 440.039062 845.152344 447.105469 807.140625 Z M 447.105469 807.140625 " fill-opacity="1" fill-rule="nonzero"/><path stroke-linecap="round" transform="matrix(0.702745, 0, 0, 0.703261, 160.86948, 130.858328)" fill="none" stroke-linejoin="miter" d="M 341.948287 499.07166 C 341.948287 499.07166 406.05517 545.579335 451.307414 633.567878 " stroke="#725d58" stroke-width="2" stroke-opacity="1" stroke-miterlimit="10"/><path stroke-linecap="round" transform="matrix(0.702745, 0, 0, 0.703261, 160.86948, 130.858328)" fill="none" stroke-linejoin="miter" d="M 355.772428 504.098466 C 355.772428 504.098466 408.945621 517.673619 423.903709 470.666041 " stroke="#725d58" stroke-width="2" stroke-opacity="1" stroke-miterlimit="10"/><path stroke-linecap="round" transform="matrix(0.702745, 0, 0, 0.703261, 160.86948, 130.858328)" fill="none" stroke-linejoin="miter" d="M 376.138995 529.115851 C 376.138995 529.115851 397.255968 541.807842 404.793376 521.700618 " stroke="#725d58" stroke-width="2" stroke-opacity="1" stroke-miterlimit="10"/><path stroke-linecap="round" transform="matrix(0.702745, 0, 0, 0.703261, 160.86948, 130.858328)" fill="none" stroke-linejoin="miter" d="M 490.272926 284.129886 C 490.272926 284.129886 504.097067 306.125633 538.037639 295.694316 " stroke="#725d58" stroke-width="2" stroke-opacity="1" stroke-miterlimit="10"/><path stroke-linecap="round" transform="matrix(0.702745, 0, 0, 0.703261, 160.86948, 130.858328)" fill="none" stroke-linejoin="miter" d="M 529.238438 331.892873 C 529.238438 331.892873 575.241087 319.323081 601.260711 375.256711 " stroke="#725d58" stroke-width="2" stroke-opacity="1" stroke-miterlimit="10"/><path stroke-linecap="round" transform="matrix(0.702745, 0, 0, 0.703261, 160.86948, 130.858328)" fill="none" stroke-linejoin="miter" d="M 594.601555 463.878465 C 548.093076 448.792493 569.460184 401.029505 516.292549 395.24729 " stroke="#725d58" stroke-width="2" stroke-opacity="1" stroke-miterlimit="10"/><path stroke-linecap="round" transform="matrix(0.702745, 0, 0, 0.703261, 160.86948, 130.858328)" fill="none" stroke-linejoin="miter" d="M 593.34532 248.931136 C 593.34532 248.931136 623.51163 258.990302 610.943724 277.842212 " stroke="#725d58" stroke-width="2" stroke-opacity="1" stroke-miterlimit="10"/><path stroke-linecap="round" transform="matrix(0.702745, 0, 0, 0.703261, 160.86948, 130.858328)" fill="none" stroke-linejoin="miter" d="M 158.426841 981.750557 C 158.426841 981.750557 150.883874 1009.411875 174.76901 1010.661634 " stroke="#725d58" stroke-width="2" stroke-opacity="1" stroke-miterlimit="10"/><g clip-path="url(#52eab8cfad)"><path stroke-linecap="round" transform="matrix(0.702745, 0, 0, 0.703261, 160.86948, 130.858328)" fill="none" stroke-linejoin="miter" d="M 296.067925 893.006604 C 296.067925 893.006604 240.00428 908.847986 223.411976 960.510219 C 206.191554 1014.427572 177.281479 1039.57271 154.658136 1030.768857 " stroke="#725d58" stroke-width="2" stroke-opacity="1" stroke-miterlimit="10"/></g><g clip-path="url(#2c37b3e4f3)"><path stroke-linecap="round" transform="matrix(0.702745, 0, 0, 0.703261, 160.86948, 130.858328)" fill="none" stroke-linejoin="miter" d="M 30.218634 66.671931 C 30.218634 66.671931 65.287595 64.661208 32.102986 54.979747 C -1.081622 45.30384 20.163197 40.277034 20.163197 40.277034 " stroke="#725d58" stroke-width="2" stroke-opacity="1" stroke-miterlimit="10"/></g><g clip-path="url(#f690b4fbed)"><path stroke-linecap="round" transform="matrix(0.702745, 0, 0, 0.703261, 160.86948, 130.858328)" fill="none" stroke-linejoin="miter" d="M 8.845967 75.47023 C 8.845967 75.47023 12.870365 91.43381 76.727113 74.592622 C 125.748061 61.645125 169.738512 127.00471 237.241676 139.32455 " stroke="#725d58" stroke-width="2" stroke-opacity="1" stroke-miterlimit="10"/></g></svg>