<svg xmlns="http://www.w3.org/2000/svg" xmlns:xlink="http://www.w3.org/1999/xlink" width="1080" zoomAndPan="magnify" viewBox="0 0 810 1012.49997" height="1350" preserveAspectRatio="xMidYMid meet" version="1.0"><defs><clipPath id="af0b49a371"><path d="M 441 200 L 618.714844 200 L 618.714844 351 L 441 351 Z M 441 200 " clip-rule="nonzero"/></clipPath></defs><g clip-path="url(#af0b49a371)"><path fill="#ffa580" d="M 618.035156 207.929688 C 617.453125 210.125 602.554688 237.933594 598.523438 240.082031 C 594.496094 242.230469 567.167969 252.121094 564.265625 258.324219 C 562.566406 261.933594 544.652344 294.363281 526.71875 319.6875 C 520.339844 328.691406 513.972656 336.792969 508.332031 342.390625 C 502.582031 348.074219 497.59375 351.164062 494.125 349.964844 C 477.628906 344.269531 444.378906 322.679688 444.378906 322.679688 C 437.523438 314.175781 442.703125 277.808594 457.808594 289.160156 C 471.160156 299.191406 489.515625 302.695312 498.066406 298.691406 C 499.191406 298.171875 500.15625 297.511719 500.902344 296.710938 C 501.953125 295.613281 503.902344 293.664062 506.464844 291.15625 C 519.691406 278.175781 548.980469 250.3125 550.230469 248.992188 C 551.726562 247.425781 551.648438 244.355469 555.136719 241.207031 C 558.628906 238.050781 568.714844 233.195312 569.6875 231.136719 C 570.65625 229.070312 571.507812 222.40625 572.964844 219.820312 C 574.4375 217.230469 578.472656 215.589844 578.523438 217.632812 C 578.546875 218.230469 578.625 219.800781 578.785156 221.636719 C 579.183594 226.046875 580.011719 232.011719 581.40625 229.808594 C 582.496094 228.078125 583.496094 222.726562 584.492188 217.78125 C 585.292969 213.8125 586.113281 210.128906 586.984375 208.738281 C 588.941406 205.632812 592.003906 205.550781 592.582031 208.089844 C 592.910156 209.527344 591.871094 215.441406 591.371094 219.808594 C 591.363281 219.855469 591.351562 219.917969 591.351562 219.976562 C 590.980469 223.214844 590.933594 225.542969 591.980469 224.433594 C 593.640625 222.695312 596.058594 215.273438 598.070312 209.585938 C 598.082031 209.539062 598.101562 209.484375 598.121094 209.4375 C 599.101562 206.648438 599.988281 204.300781 600.628906 203.28125 C 602.589844 200.164062 607.679688 199.527344 607.261719 203.113281 C 607.03125 205.140625 604.613281 211.824219 602.933594 217.039062 L 602.933594 217.050781 C 601.652344 221.019531 600.804688 224.136719 601.671875 223.664062 C 603.234375 222.835938 607.074219 214.542969 610.121094 210.140625 C 611 208.871094 611.808594 207.933594 612.492188 207.574219 C 615.515625 205.960938 618.722656 205.367188 618.035156 207.929688 Z M 618.035156 207.929688 " fill-opacity="1" fill-rule="nonzero"/></g><path fill="#f77c4a" d="M 584.5 217.777344 C 583.820312 222.953125 582.269531 233.84375 581.109375 235.132812 C 579.582031 236.832031 578.730469 221.703125 578.730469 221.703125 L 578.792969 221.636719 C 579.1875 226.042969 580.019531 232.007812 581.410156 229.804688 C 582.5 228.078125 583.5 222.726562 584.5 217.777344 Z M 584.5 217.777344 " fill-opacity="1" fill-rule="nonzero"/><path fill="#f77c4a" d="M 598.078125 209.585938 C 595.839844 216.730469 591.628906 229.847656 590.636719 230.714844 C 589.589844 231.636719 590.757812 223.683594 591.359375 219.972656 C 590.988281 223.210938 590.941406 225.539062 591.988281 224.429688 C 593.648438 222.695312 596.066406 215.269531 598.078125 209.585938 Z M 598.078125 209.585938 " fill-opacity="1" fill-rule="nonzero"/><path fill="#f77c4a" d="M 610.125 210.136719 C 608.046875 214.839844 601.148438 230.238281 599.996094 230.378906 C 598.636719 230.546875 602.554688 217.449219 602.554688 217.449219 L 602.9375 217.046875 C 601.65625 221.015625 600.808594 224.132812 601.675781 223.664062 C 603.238281 222.835938 607.078125 214.539062 610.125 210.136719 Z M 610.125 210.136719 " fill-opacity="1" fill-rule="nonzero"/><path fill="#f77c4a" d="M 526.722656 319.6875 C 520.34375 328.6875 513.976562 336.789062 508.335938 342.386719 L 498.066406 298.6875 C 499.195312 298.167969 500.160156 297.507812 500.90625 296.707031 C 501.957031 295.609375 503.90625 293.660156 506.46875 291.152344 C 510.398438 293.839844 521.375 302.613281 526.722656 319.6875 Z M 526.722656 319.6875 " fill-opacity="1" fill-rule="nonzero"/><path fill="#9c3119" d="M 445.496094 700.894531 C 444.867188 738.0625 443.648438 765.6875 443.648438 765.6875 C 443.648438 765.6875 406.078125 774.832031 402.480469 793.292969 C 402.3125 794.160156 402.203125 795.003906 402.160156 795.792969 C 401.121094 811.914062 423.148438 813.785156 417.640625 826.574219 C 415.949219 830.511719 412.628906 832.90625 408.851562 834.636719 C 399.742188 838.8125 387.921875 839.113281 389.597656 847.722656 C 391.957031 859.90625 402.214844 861.683594 395.304688 871.054688 C 389.695312 878.667969 377.316406 885.78125 355.5 895.203125 C 350.480469 897.371094 344.960938 899.65625 338.902344 902.105469 C 306.558594 915.203125 295.589844 885.882812 289.648438 893.183594 C 283.699219 900.488281 295.144531 908.351562 286.148438 915.734375 C 277.148438 923.105469 259.570312 915.40625 259.570312 915.40625 C 259.570312 915.40625 268.230469 540.582031 276.429688 502.59375 C 281.417969 479.464844 287.847656 452.527344 292.097656 434.984375 C 294.832031 423.726562 296.667969 416.332031 296.667969 416.332031 L 390.097656 395.53125 C 390.097656 395.53125 435.3125 484.183594 442.371094 559.535156 C 446.183594 600.257812 446.253906 657.175781 445.496094 700.894531 Z M 445.496094 700.894531 " fill-opacity="1" fill-rule="nonzero"/><path fill="#872610" d="M 445.496094 700.894531 C 444.867188 738.0625 443.648438 765.6875 443.648438 765.6875 C 443.648438 765.6875 406.078125 774.832031 402.480469 793.292969 C 402.3125 794.160156 402.203125 795.003906 402.160156 795.792969 L 401.890625 795.824219 C 401.890625 795.824219 399.601562 713.175781 405.71875 687.917969 C 411.847656 662.671875 413.378906 750.671875 426.40625 752.96875 C 435.964844 754.660156 442.636719 719.628906 445.496094 700.894531 Z M 445.496094 700.894531 " fill-opacity="1" fill-rule="nonzero"/><path fill="#872610" d="M 389.59375 847.722656 C 391.953125 859.90625 402.210938 861.683594 395.300781 871.054688 C 389.691406 878.667969 377.3125 885.78125 355.496094 895.203125 L 356.707031 859.34375 C 356.707031 859.34375 368.191406 879.238281 375.855469 872.351562 C 383.511719 865.46875 381.984375 749.914062 385.042969 755.265625 C 388.113281 760.621094 388.113281 822.609375 389.644531 827.964844 C 390.855469 832.207031 403.605469 834.058594 408.851562 834.636719 C 399.738281 838.8125 387.921875 839.113281 389.59375 847.722656 Z M 389.59375 847.722656 " fill-opacity="1" fill-rule="nonzero"/><path fill="#ffa580" d="M 437.355469 681.125 C 429.976562 691.246094 395.789062 726.054688 376.566406 745.996094 C 370.082031 752.722656 365.304688 757.746094 363.804688 759.585938 C 357.867188 766.886719 365.304688 699.328125 365.304688 699.328125 C 365.304688 699.328125 375.445312 683.230469 383.933594 671.441406 C 385.332031 669.503906 386.679688 667.683594 387.929688 666.078125 C 392.371094 660.359375 397.609375 656.15625 401.847656 652.859375 C 406.128906 649.539062 409.394531 647.152344 409.855469 645.09375 C 409.96875 644.605469 409.71875 643.65625 409.179688 642.347656 C 407.589844 638.5 403.558594 631.476562 399.136719 623.277344 C 395.148438 615.863281 390.847656 607.5 387.777344 599.667969 C 385.789062 594.605469 384.320312 589.757812 383.789062 585.550781 C 381.222656 565.199219 400.308594 513.675781 427.035156 520.117188 C 427.035156 520.117188 438.746094 552.082031 449.375 582.625 C 451.804688 589.621094 454.171875 596.53125 456.332031 602.964844 C 460.851562 616.394531 464.449219 627.761719 465.742188 633.441406 C 470.351562 653.730469 447.210938 667.59375 437.355469 681.125 Z M 437.355469 681.125 " fill-opacity="1" fill-rule="nonzero"/><path fill="#f77c4a" d="M 383.933594 671.441406 C 382.703125 683.621094 378.503906 725.304688 376.566406 745.996094 C 370.082031 752.722656 365.304688 757.746094 363.804688 759.585938 C 357.867188 766.886719 365.304688 699.328125 365.304688 699.328125 C 365.304688 699.328125 375.441406 683.230469 383.933594 671.441406 Z M 383.933594 671.441406 " fill-opacity="1" fill-rule="nonzero"/><path fill="#ffa580" d="M 394.988281 927.960938 C 391.972656 929.570312 355.222656 930.519531 349.804688 928.363281 C 344.386719 926.214844 347.675781 905.457031 345.214844 899.402344 C 342.765625 893.335938 328.765625 885.285156 327.753906 876.121094 C 327.527344 874.042969 327.722656 871.527344 328.152344 868.808594 C 329.640625 859.539062 333.921875 847.960938 333.8125 843.8125 C 333.675781 838.457031 319.585938 738.535156 319.125 720.941406 C 318.921875 713.339844 320.914062 701.972656 323.253906 691.511719 C 326.304688 677.742188 329.945312 665.542969 329.945312 665.542969 L 331.792969 630.296875 C 331.792969 630.296875 331.792969 630.296875 331.792969 630.285156 L 331.992188 626.449219 L 335.414062 625.429688 L 383.4375 611.082031 C 383.4375 611.082031 382.457031 639.765625 380.804688 659.328125 C 380.804688 659.335938 380.804688 659.335938 380.804688 659.335938 C 380.253906 665.882812 379.636719 671.398438 378.945312 674.484375 C 376.207031 686.800781 360.660156 835.207031 361.886719 843.339844 C 363.117188 851.472656 372.695312 895.625 376.667969 900.878906 C 380.628906 906.132812 388.425781 911.289062 392.355469 915.015625 C 393.585938 916.1875 394.605469 917.742188 395.324219 919.371094 C 396.910156 922.929688 397.070312 926.867188 394.988281 927.960938 Z M 394.988281 927.960938 " fill-opacity="1" fill-rule="nonzero"/><path fill="#f77c4a" d="M 383.441406 611.078125 C 383.441406 611.078125 382.460938 639.761719 380.808594 659.324219 C 380.808594 659.332031 380.808594 659.332031 380.808594 659.332031 C 378.277344 664.308594 374.921875 668.265625 370.488281 670.324219 C 353.847656 678.039062 332.140625 687.597656 323.253906 691.507812 C 326.304688 677.738281 329.945312 665.539062 329.945312 665.539062 L 331.792969 630.292969 C 331.792969 630.292969 331.792969 630.292969 331.792969 630.28125 C 333.074219 628.550781 334.292969 626.925781 335.414062 625.425781 Z M 383.441406 611.078125 " fill-opacity="1" fill-rule="nonzero"/><path fill="#f77c4a" d="M 456.332031 602.964844 C 428.726562 603.125 407.65625 616.753906 399.136719 623.277344 C 395.148438 615.863281 390.847656 607.5 387.777344 599.667969 C 387.96875 598.847656 388.105469 598.390625 388.105469 598.390625 L 449.371094 582.625 C 451.804688 589.617188 454.175781 596.53125 456.332031 602.964844 Z M 456.332031 602.964844 " fill-opacity="1" fill-rule="nonzero"/><path fill="#e77234" d="M 465.460938 595.320312 C 457.894531 594.429688 449.953125 594.519531 442.015625 595.339844 C 431.609375 596.410156 421.21875 598.726562 411.71875 601.714844 C 391.121094 608.1875 374.742188 617.8125 371.535156 624.65625 C 365.734375 637.054688 382.273438 644.785156 379.503906 656.097656 C 377.722656 663.332031 354.085938 669.046875 335.019531 676.042969 C 324.339844 679.957031 315.101562 684.277344 311.933594 689.488281 C 309.894531 692.84375 309.363281 695.625 309.792969 698.015625 C 311.214844 705.957031 323.144531 709.703125 324.890625 716.707031 C 326.714844 724.011719 317.15625 720.503906 306.246094 731.015625 C 303.523438 733.644531 300.714844 737.140625 297.976562 741.90625 C 284.289062 765.734375 288.148438 796.269531 309.015625 813.074219 C 329.871094 829.878906 297.394531 837.871094 285.546875 853.488281 C 273.699219 869.105469 259.519531 913.363281 286.148438 915.742188 C 277.148438 923.117188 259.570312 915.414062 259.570312 915.414062 C 259.570312 915.414062 261.203125 844.820312 263.71875 761.792969 C 265.699219 696.441406 268.230469 623.398438 270.949219 571.019531 C 272.726562 536.613281 274.585938 511.136719 276.429688 502.605469 C 280.609375 483.230469 285.796875 461.191406 289.871094 444.234375 C 290.660156 440.941406 291.410156 437.84375 292.097656 434.996094 C 328.234375 431.578125 389.515625 429.652344 401.6875 448.324219 C 401.6875 448.324219 413.433594 468.65625 425.761719 492.6875 C 436.972656 514.488281 448.640625 539.332031 452.449219 554.777344 C 460.429688 587.21875 470 595.859375 465.460938 595.320312 Z M 465.460938 595.320312 " fill-opacity="1" fill-rule="nonzero"/><path fill="#de6424" d="M 465.460938 595.320312 C 457.894531 594.429688 449.953125 594.519531 442.015625 595.339844 C 403.5 561.273438 348.367188 483.300781 339.097656 491.242188 C 328.367188 500.425781 322.238281 538.6875 320.710938 531.035156 C 319.179688 523.382812 317.648438 477.472656 300.800781 497.367188 C 289.566406 510.644531 277.632812 547.769531 270.945312 571.011719 C 272.726562 536.601562 274.582031 511.125 276.425781 502.59375 C 280.605469 483.21875 285.792969 461.179688 289.867188 444.226562 L 346.757812 442.269531 C 346.757812 442.269531 389.09375 468.824219 425.757812 492.671875 C 436.96875 514.472656 448.636719 539.320312 452.445312 554.765625 C 460.429688 587.21875 470 595.859375 465.460938 595.320312 Z M 465.460938 595.320312 " fill-opacity="1" fill-rule="nonzero"/><path fill="#9c3119" d="M 537.425781 522.355469 C 531.042969 552.128906 512.167969 611.816406 502.007812 614.125 C 491.859375 616.433594 466.042969 605.871094 451.382812 591.964844 C 436.714844 578.046875 343.894531 465.117188 334.601562 461.28125 C 325.3125 457.433594 291.882812 468.515625 276.386719 461.773438 C 260.890625 455.03125 254.390625 440.902344 255.152344 430.679688 C 255.910156 420.449219 261.851562 413.152344 267.277344 386.46875 C 272.71875 359.792969 275.609375 313.78125 275.609375 313.78125 L 447.078125 300.550781 L 455.027344 299.941406 C 455.027344 299.941406 466.804688 281.257812 476.984375 279.980469 C 479.527344 279.660156 482.742188 280.402344 486.128906 281.703125 C 500.0625 287.054688 510.492188 298.820312 514.964844 313.054688 C 516.199219 316.980469 517.308594 321.082031 517.992188 324.855469 C 518.570312 328.050781 520.390625 339.558594 522.722656 355.597656 L 522.722656 355.609375 C 529.984375 405.671875 542.253906 499.804688 537.425781 522.355469 Z M 537.425781 522.355469 " fill-opacity="1" fill-rule="nonzero"/><path fill="#872610" d="M 522.714844 355.59375 C 517.296875 339.046875 503.246094 310.605469 500.4375 321.867188 C 497.363281 334.117188 491.246094 423.90625 489.199219 426.964844 C 487.160156 430.03125 472.859375 435.128906 474.910156 438.191406 C 476.949219 441.25 501.457031 466.757812 494.308594 464.71875 C 487.160156 462.683594 385.039062 436.144531 381.984375 441.25 C 378.921875 446.355469 393.210938 503.496094 390.152344 501.457031 C 387.09375 499.40625 345.21875 441.25 339.101562 440.230469 C 332.972656 439.210938 276.804688 453.496094 276.804688 438.191406 C 276.804688 422.882812 282.933594 355.535156 282.933594 355.535156 L 342.15625 355.535156 L 416.699219 406.558594 C 416.699219 406.558594 442.222656 421.863281 450.40625 417.777344 C 458.574219 413.703125 484.101562 316.757812 478.992188 317.785156 C 473.882812 318.808594 445.292969 385.128906 445.292969 382.070312 C 445.292969 379 465.710938 311.664062 457.542969 315.738281 C 449.503906 319.765625 418.699219 355.410156 417.738281 356.523438 L 447.074219 300.550781 L 455.023438 299.941406 C 455.023438 299.941406 466.800781 281.257812 476.980469 279.980469 C 479.523438 279.660156 482.738281 280.402344 486.125 281.703125 C 500.058594 287.054688 510.488281 298.820312 514.964844 313.054688 C 516.195312 316.980469 517.304688 321.082031 517.988281 324.855469 C 518.566406 328.050781 520.386719 339.558594 522.714844 355.59375 Z M 522.714844 355.59375 " fill-opacity="1" fill-rule="nonzero"/><path fill="#e77234" d="M 439.335938 324.84375 C 436.046875 332.058594 432.335938 339.402344 428.75 346.644531 C 419.359375 365.601562 410.792969 383.882812 412.621094 397.5 C 413.738281 405.851562 405.242188 407.722656 395.429688 407.210938 C 383.140625 406.582031 368.8125 402.214844 368.8125 402.214844 C 368.8125 402.214844 338.683594 303.984375 338.605469 300.925781 C 338.527344 297.867188 360.515625 240.128906 360.515625 240.128906 L 382.601562 225.269531 L 408.261719 229.707031 L 408.660156 245.003906 C 408.660156 245.003906 428.246094 291.453125 434.667969 302.511719 C 441.085938 313.574219 441.90625 319.199219 439.335938 324.84375 Z M 439.335938 324.84375 " fill-opacity="1" fill-rule="nonzero"/><path fill="#de5e1b" d="M 412.617188 397.5 C 413.738281 405.851562 405.242188 407.722656 395.429688 407.210938 C 384.542969 396.410156 372.453125 383.53125 372.023438 381.8125 C 371.261719 378.757812 353.644531 296.871094 353.644531 296.871094 L 375.09375 297.640625 C 375.09375 297.640625 395 355.027344 404.1875 358.855469 C 410.738281 361.578125 420.40625 357.695312 428.746094 346.644531 C 419.355469 365.597656 410.789062 383.878906 412.617188 397.5 Z M 412.617188 397.5 " fill-opacity="1" fill-rule="nonzero"/><path fill="#d65e1e" d="M 385.242188 287.464844 C 385.242188 287.464844 360.355469 234.011719 360.253906 229.925781 C 360.144531 225.851562 370.445312 189.863281 370.445312 189.863281 L 403.351562 194.890625 L 410.449219 195.96875 C 410.449219 195.96875 412.058594 211.527344 415.449219 231.699219 C 419.046875 253.128906 424.65625 279.765625 432.515625 298.488281 C 447.761719 334.835938 385.242188 287.464844 385.242188 287.464844 Z M 385.242188 287.464844 " fill-opacity="1" fill-rule="nonzero"/><path fill="#c25013" d="M 415.449219 231.695312 C 413.417969 225.480469 410.519531 217.070312 408.871094 214.390625 C 406.152344 209.964844 406.492188 231.054688 405.808594 234.453125 C 405.128906 237.859375 399 221.875 396.28125 219.148438 C 393.554688 216.429688 386.0625 225.613281 389.8125 238.203125 C 393.554688 250.78125 378.585938 246.367188 377.214844 244.65625 C 375.855469 242.960938 370.066406 219.152344 370.414062 217.453125 C 370.753906 215.753906 376.535156 198.75 376.535156 198.75 L 403.355469 194.894531 L 410.453125 195.972656 C 410.449219 195.96875 412.058594 211.523438 415.449219 231.695312 Z M 415.449219 231.695312 " fill-opacity="1" fill-rule="nonzero"/><path fill="#ffa580" d="M 402.859375 283.636719 C 401.109375 290.171875 397.21875 297.882812 388.699219 302.683594 C 375.089844 310.335938 354.445312 295.597656 346.554688 289.234375 C 344.527344 287.589844 343.335938 286.511719 343.335938 286.511719 L 330.917969 240.902344 L 346.753906 197.058594 L 346.824219 196.859375 L 354.730469 174.957031 L 365.148438 181.878906 L 382.558594 193.457031 L 382.796875 193.617188 C 382.796875 193.617188 382.785156 193.6875 382.777344 193.828125 C 382.5625 195.597656 381.164062 208.242188 380.945312 218.285156 C 380.84375 223.042969 381.003906 227.207031 381.683594 229.378906 C 383.902344 236.460938 398.460938 246.289062 398.460938 246.289062 L 404.230469 271.660156 C 404.242188 271.660156 404.640625 277.054688 402.859375 283.636719 Z M 402.859375 283.636719 " fill-opacity="1" fill-rule="nonzero"/><path fill="#9c3119" d="M 413.757812 166.28125 C 413.757812 166.28125 426.949219 162.875 428.726562 152.621094 C 430.5 142.367188 418.796875 124.300781 403.511719 125.71875 C 403.511719 125.71875 361.550781 122.726562 358.515625 123.824219 C 355.480469 124.921875 341.667969 143.652344 341.667969 143.652344 L 356.59375 167.761719 L 391.753906 184.199219 Z M 413.757812 166.28125 " fill-opacity="1" fill-rule="nonzero"/><path fill="#87230c" d="M 414.039062 137.691406 C 414.039062 137.691406 421.042969 137.945312 424.359375 145.085938 C 427.675781 152.226562 414.914062 163.195312 414.914062 163.195312 Z M 414.039062 137.691406 " fill-opacity="1" fill-rule="nonzero"/><path fill="#bd3b1e" d="M 387.597656 141.769531 C 387.597656 141.769531 382.492188 141.007812 378.152344 144.574219 C 373.8125 148.144531 373.304688 142.535156 372.792969 140.238281 C 372.285156 137.941406 368.199219 141.765625 367.433594 146.613281 C 366.667969 151.460938 369.476562 147.378906 371.265625 147.378906 C 373.050781 147.378906 370.5 154.523438 372.542969 158.09375 C 374.585938 161.664062 379.433594 160.390625 380.964844 158.09375 C 382.492188 155.800781 387.597656 141.769531 387.597656 141.769531 Z M 387.597656 141.769531 " fill-opacity="1" fill-rule="nonzero"/><path fill="#7d1f0a" d="M 408.277344 125.957031 C 408.277344 125.957031 375.347656 132.332031 366.667969 139.734375 C 357.988281 147.128906 359.773438 161.925781 359.773438 161.925781 L 352.878906 166.773438 C 352.878906 166.773438 350.582031 142.539062 351.09375 141.261719 C 351.601562 139.984375 367.175781 124.171875 367.945312 123.660156 C 368.707031 123.148438 402.40625 123.148438 408.277344 125.957031 Z M 408.277344 125.957031 " fill-opacity="1" fill-rule="nonzero"/><path fill="#f77c4a" d="M 382.78125 193.828125 C 382.570312 195.597656 381.171875 208.242188 380.949219 218.285156 C 376.261719 214.460938 365.132812 203.21875 365.132812 183.097656 C 365.132812 182.667969 365.144531 182.265625 365.152344 181.878906 L 382.5625 193.457031 C 382.640625 193.578125 382.714844 193.699219 382.78125 193.828125 Z M 382.78125 193.828125 " fill-opacity="1" fill-rule="nonzero"/><path fill="#ffa580" d="M 363.195312 185.964844 C 363.195312 185.964844 338.378906 174.363281 349.339844 163.871094 C 360.304688 153.375 365.777344 167.527344 365.777344 167.527344 C 365.777344 167.527344 373.082031 173.460938 376.871094 162.136719 C 380.664062 150.808594 378.515625 146.785156 385.554688 142.519531 C 392.59375 138.253906 414.03125 137.695312 414.03125 137.695312 C 414.03125 137.695312 421.542969 148.148438 417.460938 159.882812 C 413.257812 171.960938 416.035156 175.410156 417.242188 182.523438 C 418.445312 189.636719 407.933594 205.925781 402.910156 209.117188 C 397.890625 212.308594 372.105469 214.316406 363.195312 185.964844 Z M 363.195312 185.964844 " fill-opacity="1" fill-rule="nonzero"/><path fill="#f77c4a" d="M 402.859375 283.636719 C 401.109375 290.171875 397.21875 297.882812 388.699219 302.683594 C 375.089844 310.335938 354.445312 295.597656 346.554688 289.234375 C 346.035156 287.578125 345.722656 286.46875 345.722656 286.15625 C 345.722656 284.167969 346.691406 201.585938 346.753906 197.054688 C 346.753906 196.933594 346.753906 196.867188 346.753906 196.867188 L 346.824219 196.855469 L 358.492188 194.828125 C 358.492188 194.828125 368.703125 281.558594 373.8125 291.761719 C 378.921875 301.972656 394.226562 297.882812 400.359375 285.644531 C 401.777344 282.800781 402.546875 282.457031 402.859375 283.636719 Z M 402.859375 283.636719 " fill-opacity="0.64" fill-rule="nonzero"/><path fill="#9c3119" d="M 354.734375 174.957031 C 354.734375 174.957031 358.496094 177.996094 361.046875 180.035156 L 356.960938 215.746094 Z M 354.734375 174.957031 " fill-opacity="1" fill-rule="nonzero"/><path fill="#ffa580" d="M 477.230469 426.953125 C 475.199219 427.523438 465 428.292969 465 428.292969 C 465 428.292969 463.539062 430.890625 461.003906 431.460938 C 458.460938 432.039062 452.804688 430.652344 452.804688 430.652344 C 452.804688 430.652344 450.8125 432.75 447.753906 432.832031 C 444.691406 432.910156 437.992188 430.535156 437.992188 430.535156 C 437.992188 430.535156 434.964844 432.140625 430.84375 430.714844 C 426.722656 429.292969 416.226562 418.335938 410.125 419.511719 C 404.027344 420.691406 305.617188 446.726562 295.058594 433.730469 C 284.511719 420.734375 281.410156 379.988281 281.953125 361.59375 C 282.132812 355.476562 281.929688 347.796875 281.582031 340.253906 C 281.210938 332 280.648438 323.925781 280.21875 318.300781 C 279.871094 313.613281 279.601562 310.617188 279.601562 310.617188 C 284.730469 304.503906 301.167969 312.90625 310.910156 319.878906 C 315.289062 323.015625 318.308594 325.863281 318.339844 326.976562 C 318.359375 327.605469 318.597656 330.28125 319.015625 334.265625 C 320.976562 352.773438 326.746094 399.5 330.976562 400.636719 C 336.125 402.035156 409.046875 397.597656 412.617188 397.5 C 416.183594 397.410156 424.734375 392.085938 428.816406 391.972656 C 432.902344 391.875 454.742188 387.21875 455.304688 389.25 C 455.875 391.277344 455.933594 393.824219 453.941406 395.921875 C 451.960938 398.011719 437.222656 400.949219 438.867188 404.980469 C 440.496094 409.03125 453.984375 416.839844 457.625 419.300781 C 461.261719 421.757812 473.441406 418.890625 475.523438 420.371094 C 477.601562 421.847656 479.261719 426.390625 477.230469 426.953125 Z M 477.230469 426.953125 " fill-opacity="1" fill-rule="nonzero"/><path fill="#f77c4a" d="M 319.019531 334.265625 C 305.308594 340.730469 289.585938 340.769531 281.585938 340.25 C 281.214844 331.996094 280.652344 323.921875 280.222656 318.296875 C 286.683594 318.328125 299.902344 318.578125 310.910156 319.875 C 315.289062 323.015625 318.308594 325.859375 318.339844 326.972656 C 318.359375 327.601562 318.597656 330.277344 319.019531 334.265625 Z M 319.019531 334.265625 " fill-opacity="1" fill-rule="nonzero"/><path fill="#eb6d2d" d="M 325.078125 330.878906 C 325.078125 330.878906 324.765625 330.910156 324.1875 330.945312 C 321.96875 331.117188 315.8125 331.507812 308.152344 331.273438 C 306.621094 331.226562 305.023438 331.152344 303.390625 331.054688 C 302.210938 330.984375 301.019531 330.894531 299.800781 330.785156 C 287.003906 329.636719 272.6875 326.398438 265.507812 318.125 C 265.507812 318.125 269.296875 284.65625 275.527344 269.859375 C 275.527344 269.847656 275.527344 269.847656 275.527344 269.847656 C 276.4375 267.679688 277.40625 265.914062 278.417969 264.714844 C 281.476562 261.089844 287.855469 256.460938 294.542969 252.15625 C 298.042969 249.898438 301.613281 247.734375 304.84375 245.832031 C 311.429688 241.964844 316.574219 239.230469 316.574219 239.230469 L 324.558594 325.253906 Z M 325.078125 330.878906 " fill-opacity="1" fill-rule="nonzero"/><path fill="#ffa580" d="M 381.796875 233.457031 C 381.796875 233.457031 394.234375 240.238281 408.65625 245.007812 C 419.621094 248.636719 405.765625 291.015625 405.765625 291.015625 L 388.875 270.019531 Z M 381.796875 233.457031 " fill-opacity="1" fill-rule="nonzero"/><path fill="#d95a18" d="M 324.558594 325.253906 L 324.1875 330.945312 C 321.96875 331.117188 315.8125 331.507812 308.152344 331.273438 C 306.621094 331.226562 305.023438 331.152344 303.390625 331.054688 C 302.210938 330.984375 301.019531 330.894531 299.800781 330.785156 L 300.035156 328.238281 C 300.035156 328.238281 301.5625 263.953125 299.273438 255.542969 C 298.59375 253.042969 296.773438 252.164062 294.542969 252.152344 C 298.042969 249.894531 301.613281 247.730469 304.84375 245.832031 C 311.429688 241.960938 316.574219 239.226562 316.574219 239.226562 Z M 324.558594 325.253906 " fill-opacity="0.79" fill-rule="nonzero"/><path fill="#e77234" d="M 462.902344 288.515625 C 462.902344 288.515625 447.453125 311.308594 437.667969 328.152344 C 436.546875 330.0625 435.519531 331.898438 434.574219 333.605469 L 386.0625 304.519531 C 386.0625 304.519531 393.71875 301.972656 402.410156 277.472656 C 408.140625 261.308594 408.660156 245.003906 408.660156 245.003906 C 408.660156 245.003906 425.175781 251.730469 432.503906 258.683594 C 438.335938 264.207031 454.101562 279.792969 460.324219 285.96875 C 461.933594 287.554688 462.902344 288.515625 462.902344 288.515625 Z M 462.902344 288.515625 " fill-opacity="1" fill-rule="nonzero"/><path fill="#ffbd26" d="M 412.617188 397.5 C 412.617188 397.5 408.757812 397.929688 402.691406 398.519531 C 396.050781 399.171875 386.769531 399.996094 376.984375 400.6875 C 368.335938 401.296875 359.296875 401.777344 351.367188 401.90625 C 342.496094 402.042969 335.007812 401.738281 330.980469 400.636719 C 315.550781 396.449219 305.589844 367.109375 305.902344 339.542969 C 306.039062 326.425781 306.191406 286.480469 307.019531 246.667969 C 307.953125 202.824219 309.722656 159.125 313.269531 151.542969 C 320.039062 137.074219 327.785156 120.539062 338.90625 116.175781 C 350.035156 111.796875 397.902344 114.84375 402.058594 117.804688 C 406.226562 120.75 408.277344 125.96875 408.277344 125.96875 C 408.277344 125.96875 364.722656 126.730469 357.992188 143.242188 C 352.644531 156.378906 358.273438 240.84375 367.472656 293.105469 C 367.472656 293.117188 367.472656 293.117188 367.472656 293.117188 C 369.824219 306.496094 372.402344 317.765625 375.09375 325.191406 C 377.019531 330.515625 379.191406 335.820312 381.480469 341.007812 C 389.351562 358.800781 398.707031 375.164062 405.097656 385.65625 C 409.601562 393.03125 412.617188 397.5 412.617188 397.5 Z M 412.617188 397.5 " fill-opacity="1" fill-rule="nonzero"/><path fill="#ffa915" d="M 598.949219 167.855469 C 599.308594 181.625 576.71875 196.757812 557.210938 183.480469 C 547.953125 177.1875 544.8125 166.753906 545.171875 156.367188 C 545.574219 144.867188 550.273438 133.40625 555.761719 127.640625 C 566.199219 116.652344 554.261719 99.359375 554.261719 99.359375 C 554.261719 99.359375 568.160156 103.585938 570.921875 121.117188 C 573.671875 138.660156 568.589844 149.503906 573.199219 150.152344 C 577.816406 150.804688 576.789062 140.871094 578.167969 134.714844 C 579.539062 128.550781 586.398438 127.101562 586.398438 127.101562 C 584.027344 136.164062 590.484375 145.359375 594.996094 154.640625 C 597.136719 159.023438 598.835938 163.425781 598.949219 167.855469 Z M 598.949219 167.855469 " fill-opacity="1" fill-rule="nonzero"/><path fill="#e86e3e" d="M 357.292969 163.789062 C 361.164062 166.664062 363.652344 169.636719 365.550781 174.0625 C 365.847656 174.742188 367.003906 174.320312 366.785156 173.609375 C 365.457031 169.257812 361.726562 165.074219 357.398438 163.5625 C 357.253906 163.507812 357.183594 163.707031 357.292969 163.789062 Z M 357.292969 163.789062 " fill-opacity="1" fill-rule="nonzero"/><path fill="#e86e3e" d="M 356.097656 172.183594 C 358.691406 171.402344 361.65625 171.109375 364.316406 171.710938 C 365.125 171.894531 365.34375 170.703125 364.507812 170.582031 C 361.445312 170.144531 358.738281 170.523438 356.078125 172.132812 C 356.054688 172.148438 356.070312 172.191406 356.097656 172.183594 Z M 356.097656 172.183594 " fill-opacity="1" fill-rule="nonzero"/><path fill="#e86e3e" d="M 406.332031 173.804688 C 405.277344 175.574219 405.648438 177.839844 406.683594 179.539062 C 407.242188 180.457031 408.160156 180.90625 408.777344 181.6875 C 409.351562 182.414062 408.613281 183.230469 407.832031 183.632812 C 406.695312 184.222656 405.390625 183.886719 404.316406 183.347656 C 403.496094 182.933594 402.726562 184.140625 403.558594 184.570312 C 406.195312 185.9375 410.757812 185.410156 410.519531 181.53125 C 410.5 181.195312 410.34375 180.988281 410.042969 180.851562 C 407.152344 179.597656 406.355469 176.730469 406.4375 173.835938 C 406.4375 173.785156 406.359375 173.757812 406.332031 173.804688 Z M 406.332031 173.804688 " fill-opacity="1" fill-rule="nonzero"/><path fill="#4f1e20" d="M 387.371094 173.671875 C 387.441406 176.28125 388.652344 178.371094 390.074219 178.328125 C 391.496094 178.292969 392.585938 176.140625 392.515625 173.527344 C 392.441406 170.917969 391.230469 168.828125 389.8125 168.867188 C 388.390625 168.910156 387.296875 171.054688 387.371094 173.671875 Z M 387.371094 173.671875 " fill-opacity="1" fill-rule="nonzero"/><path fill="#4f1e20" d="M 387.9375 173.789062 C 388.066406 172.371094 388.476562 170.871094 389.128906 169.609375 C 389.78125 168.339844 390.71875 167.511719 391.730469 166.546875 C 392.191406 166.105469 391.636719 165.292969 391.058594 165.617188 C 388.289062 167.164062 387.039062 170.859375 387.886719 173.792969 C 387.894531 173.820312 387.933594 173.816406 387.9375 173.789062 Z M 387.9375 173.789062 " fill-opacity="1" fill-rule="nonzero"/><path fill="#4f1e20" d="M 410.648438 172.339844 C 410.714844 174.703125 411.808594 176.589844 413.097656 176.554688 C 414.382812 176.519531 415.371094 174.574219 415.304688 172.210938 C 415.238281 169.84375 414.144531 167.957031 412.859375 167.992188 C 411.574219 168.027344 410.582031 169.972656 410.648438 172.339844 Z M 410.648438 172.339844 " fill-opacity="1" fill-rule="nonzero"/><path fill="#4f1e20" d="M 411.246094 172.5625 C 411.277344 170.246094 412.484375 168.339844 414.175781 166.886719 C 414.925781 166.246094 413.894531 165.191406 413.136719 165.785156 C 411.097656 167.390625 410.488281 170.1875 411.191406 172.570312 C 411.199219 172.59375 411.246094 172.59375 411.246094 172.5625 Z M 411.246094 172.5625 " fill-opacity="1" fill-rule="nonzero"/><path fill="#4f1e20" d="M 384.019531 162.125 C 385.589844 162.039062 387.136719 161.394531 388.667969 161.058594 C 390.328125 160.695312 391.933594 160.695312 393.617188 160.640625 C 395.414062 160.585938 395.46875 157.734375 393.710938 157.496094 C 390.324219 157.035156 385.214844 158.019531 383.378906 161.234375 C 383.125 161.675781 383.578125 162.148438 384.019531 162.125 Z M 384.019531 162.125 " fill-opacity="1" fill-rule="nonzero"/><path fill="#4f1e20" d="M 417.519531 159.714844 C 416.972656 156.898438 412.121094 155.417969 409.929688 156.992188 C 409.011719 157.652344 409.605469 159.054688 410.492188 159.351562 C 411.558594 159.707031 412.769531 159.359375 413.890625 159.628906 C 414.925781 159.878906 415.847656 160.34375 416.910156 160.457031 C 417.3125 160.5 417.585938 160.070312 417.519531 159.714844 Z M 417.519531 159.714844 " fill-opacity="1" fill-rule="nonzero"/><path fill="#e8612c" d="M 390.964844 188.355469 C 393.222656 192.050781 400.210938 194.375 404.1875 192.378906 C 404.710938 192.117188 404.515625 191.289062 403.9375 191.273438 C 401.605469 191.199219 399.582031 191.683594 397.242188 191.0625 C 395.011719 190.472656 393.152344 189.269531 391.152344 188.183594 C 391.042969 188.125 390.890625 188.238281 390.964844 188.355469 Z M 390.964844 188.355469 " fill-opacity="1" fill-rule="nonzero"/><path fill="#d95a18" d="M 303.390625 331.058594 C 289.773438 330.210938 273.367188 327.179688 265.507812 318.128906 C 265.507812 318.128906 269.296875 284.660156 275.527344 269.863281 C 275.015625 281.472656 274.21875 309.21875 277.824219 315.234375 C 282.421875 322.886719 289.566406 301.976562 292.125 298.398438 C 294.410156 295.199219 296.691406 322.765625 303.390625 331.058594 Z M 303.390625 331.058594 " fill-opacity="1" fill-rule="nonzero"/><path fill="#ffd169" d="M 367.472656 293.101562 C 367.453125 293.078125 367.441406 293.058594 367.429688 293.042969 C 364.359375 286.917969 338.324219 149.171875 350.585938 134.632812 C 362.832031 120.085938 402.058594 117.800781 402.058594 117.800781 C 406.226562 120.746094 408.277344 125.964844 408.277344 125.964844 C 408.277344 125.964844 364.722656 126.726562 357.992188 143.238281 C 352.644531 156.371094 358.273438 240.839844 367.472656 293.101562 Z M 367.472656 293.101562 " fill-opacity="1" fill-rule="nonzero"/><path fill="#f77c4a" d="M 308.457031 364.976562 C 308.457031 364.976562 313.816406 391.761719 314.585938 395.589844 C 315.351562 399.414062 309.222656 409.363281 307.691406 413.957031 C 306.160156 418.546875 321.476562 404.007812 342.15625 401.710938 C 362.832031 399.414062 308.457031 364.976562 308.457031 364.976562 Z M 308.457031 364.976562 " fill-opacity="1" fill-rule="nonzero"/><path fill="#edad1a" d="M 351.367188 401.902344 C 342.496094 402.042969 335.007812 401.734375 330.980469 400.632812 C 315.550781 396.449219 305.589844 367.105469 305.902344 339.539062 C 306.039062 326.421875 306.191406 286.476562 307.019531 246.664062 C 307.460938 264.289062 309.664062 333.125 317.648438 350.441406 C 326.839844 370.332031 329.898438 330.539062 331.4375 322.886719 C 332.6875 316.621094 336.855469 375.386719 351.367188 401.902344 Z M 351.367188 401.902344 " fill-opacity="1" fill-rule="nonzero"/><path fill="#edad1a" d="M 412.617188 397.5 C 412.617188 397.5 408.757812 397.929688 402.691406 398.519531 C 396.050781 399.171875 386.769531 399.996094 376.984375 400.6875 C 381.773438 382.777344 380.703125 352.371094 381.484375 341.003906 C 389.355469 358.796875 398.710938 375.160156 405.101562 385.652344 C 409.601562 393.03125 412.617188 397.5 412.617188 397.5 Z M 412.617188 397.5 " fill-opacity="1" fill-rule="nonzero"/><path fill="#f77c4a" d="M 394.988281 927.960938 C 391.972656 929.570312 355.222656 930.519531 349.804688 928.363281 C 344.386719 926.214844 347.675781 905.457031 345.214844 899.402344 C 342.765625 893.335938 328.765625 885.285156 327.753906 876.121094 C 327.527344 874.042969 327.722656 871.527344 328.152344 868.808594 C 328.355469 871.835938 329.011719 874.863281 330.664062 876.183594 C 334.492188 879.238281 351.34375 890.71875 352.113281 894.542969 C 352.871094 898.371094 348.28125 915.976562 350.582031 921.332031 C 352.871094 926.6875 380.449219 925.925781 383.507812 925.15625 C 386.476562 924.40625 385.125 917.933594 385.046875 917.527344 C 385.359375 917.828125 392.003906 924.277344 394.996094 919.800781 C 395.109375 919.644531 395.214844 919.5 395.324219 919.371094 C 396.910156 922.929688 397.070312 926.867188 394.988281 927.960938 Z M 394.988281 927.960938 " fill-opacity="1" fill-rule="nonzero"/><path fill="#f77c4a" d="M 424.867188 645.066406 C 418.550781 645.597656 407.890625 650.105469 401.851562 652.859375 C 406.132812 649.542969 409.398438 647.15625 409.859375 645.097656 C 409.96875 644.609375 409.722656 643.660156 409.179688 642.351562 C 418.710938 642.332031 432.292969 644.449219 424.867188 645.066406 Z M 424.867188 645.066406 " fill-opacity="1" fill-rule="nonzero"/><path fill="#872610" d="M 407.507812 489.207031 C 412 496.679688 462.648438 569.8125 471.84375 579 C 481.035156 588.183594 467.757812 544.308594 462.648438 532.0625 C 457.542969 519.816406 496.347656 565.730469 500.433594 567.773438 C 504.519531 569.8125 486.136719 485.125 484.09375 480.019531 C 482.050781 474.917969 483.074219 512.671875 481.03125 521.855469 C 478.988281 531.039062 411.589844 472.875 407.507812 469.816406 C 403.425781 466.757812 398.320312 473.902344 407.507812 489.207031 Z M 407.507812 489.207031 " fill-opacity="1" fill-rule="nonzero"/><path fill="#fc8444" d="M 285.542969 853.480469 C 273.695312 869.097656 259.511719 913.355469 286.140625 915.738281 C 277.140625 923.109375 259.566406 915.410156 259.566406 915.410156 C 259.566406 915.410156 261.195312 844.8125 263.710938 761.785156 C 267.8125 764.574219 272.339844 764.882812 275.78125 757.566406 C 283.953125 740.210938 287.007812 636.136719 290.070312 646.347656 C 293.140625 656.546875 289.046875 732.050781 298.242188 732.050781 C 301.28125 732.050781 303.992188 731.601562 306.238281 731.011719 C 303.515625 733.640625 300.710938 737.136719 297.96875 741.902344 C 284.28125 765.730469 288.140625 796.265625 309.007812 813.070312 C 329.867188 829.871094 297.390625 837.863281 285.542969 853.480469 Z M 285.542969 853.480469 " fill-opacity="1" fill-rule="nonzero"/><path fill="#fc8444" d="M 335.015625 676.039062 C 324.339844 679.957031 315.097656 684.273438 311.929688 689.484375 C 309.890625 692.839844 309.359375 695.621094 309.789062 698.011719 C 309.269531 697.480469 308.832031 696.929688 308.460938 696.34375 C 303.351562 688.179688 305.390625 544.308594 308.460938 551.449219 C 311.519531 558.59375 314.589844 651.441406 315.609375 660.625 C 316.457031 668.308594 327.308594 673.839844 335.015625 676.039062 Z M 335.015625 676.039062 " fill-opacity="1" fill-rule="nonzero"/><path fill="#fc8444" d="M 411.71875 601.714844 C 391.121094 608.1875 374.742188 617.8125 371.535156 624.65625 C 372.3125 617.253906 368.707031 518.800781 372.792969 524.917969 C 376.871094 531.039062 381.984375 603.488281 388.113281 605.535156 C 394.234375 607.574219 411.601562 601.449219 411.601562 601.449219 Z M 411.71875 601.714844 " fill-opacity="1" fill-rule="nonzero"/><path fill="#f77c4a" d="M 465 428.292969 C 465 428.292969 456.777344 427.21875 455.25 426.710938 C 453.71875 426.203125 446.3125 422.628906 444.269531 422.121094 C 442.226562 421.613281 449.121094 426.457031 452.691406 427.222656 C 456.269531 427.984375 465 428.292969 465 428.292969 Z M 465 428.292969 " fill-opacity="1" fill-rule="nonzero"/><path fill="#f77c4a" d="M 452.804688 430.648438 C 452.804688 430.648438 443.761719 429.511719 441.464844 426.707031 C 439.167969 423.902344 452.804688 430.648438 452.804688 430.648438 Z M 452.804688 430.648438 " fill-opacity="1" fill-rule="nonzero"/><path fill="#f77c4a" d="M 437.996094 430.53125 C 437.996094 430.53125 430.742188 427.730469 429.722656 425.945312 C 428.699219 424.15625 437.996094 430.53125 437.996094 430.53125 Z M 437.996094 430.53125 " fill-opacity="1" fill-rule="nonzero"/><path fill="#de5e1b" d="M 463.503906 288.871094 C 463.503906 288.871094 447.453125 311.304688 437.667969 328.148438 C 435.089844 319.234375 428.347656 295.496094 427.9375 289.71875 C 427.429688 282.578125 438.148438 311.660156 442.226562 310.132812 C 445.46875 308.914062 456.054688 292.679688 460.324219 285.964844 C 461.933594 287.554688 463.503906 288.871094 463.503906 288.871094 Z M 463.503906 288.871094 " fill-opacity="1" fill-rule="nonzero"/><path fill="#ffbf52" d="M 553.027344 162.691406 C 550.078125 161.707031 553.535156 180.035156 569.875 183.609375 C 586.214844 187.179688 595.914062 170.855469 594.894531 165.242188 C 593.871094 159.632812 587.742188 156.570312 587.234375 153.507812 C 586.726562 150.445312 591.320312 165.75 583.148438 171.875 C 574.980469 177.996094 568.855469 170.855469 567.320312 168.304688 C 565.789062 165.753906 566.8125 171.367188 563.234375 171.367188 C 559.664062 171.363281 554.554688 163.199219 553.027344 162.691406 Z M 553.027344 162.691406 " fill-opacity="1" fill-rule="nonzero"/><path fill="#ff7e15" d="M 594.996094 154.636719 C 594.964844 154.605469 594.9375 154.566406 594.898438 154.527344 C 591.316406 150.449219 582.636719 140.238281 581.621094 143.304688 C 580.597656 146.363281 578.558594 160.140625 569.359375 155.039062 C 560.171875 149.941406 566.300781 129.023438 564.769531 124.425781 C 563.238281 119.835938 562.730469 130.039062 554.039062 140.242188 C 548.691406 146.527344 546.25 152.621094 545.171875 156.367188 C 545.570312 144.867188 550.269531 133.40625 555.757812 127.640625 C 566.195312 116.652344 554.257812 99.359375 554.257812 99.359375 C 554.257812 99.359375 568.15625 103.585938 570.917969 121.117188 C 573.667969 138.660156 568.589844 149.503906 573.195312 150.152344 C 577.816406 150.804688 576.785156 140.871094 578.164062 134.714844 C 579.535156 128.550781 586.394531 127.101562 586.394531 127.101562 C 584.027344 136.164062 590.484375 145.355469 594.996094 154.636719 Z M 594.996094 154.636719 " fill-opacity="1" fill-rule="nonzero"/></svg>