<svg xmlns="http://www.w3.org/2000/svg" xmlns:xlink="http://www.w3.org/1999/xlink" width="1080" zoomAndPan="magnify" viewBox="0 0 810 1012.49997" height="1350" preserveAspectRatio="xMidYMid meet" version="1.0"><path fill="#ffc897" d="M 518.542969 388.464844 C 518.542969 388.464844 498.375 385.046875 498.6875 364.867188 C 498.6875 364.867188 497.867188 342.042969 522.847656 340.820312 C 522.847656 340.820312 554.742188 336.425781 557.996094 380.320312 C 557.996094 380.320312 557.6875 400.5 542.546875 426.878906 C 542.546875 426.878906 528.667969 465.886719 525.523438 492.964844 C 523.273438 491.257812 521.242188 489.320312 519.429688 487.152344 C 517.617188 484.984375 516.074219 482.644531 514.792969 480.125 C 513.511719 477.605469 512.53125 474.976562 511.84375 472.234375 C 511.160156 469.492188 510.792969 466.710938 510.738281 463.886719 C 510.738281 463.886719 513.792969 437.351562 527.402344 416.832031 L 538.402344 383.464844 Z M 518.542969 388.464844 " fill-opacity="1" fill-rule="nonzero"/><path fill="#ffc897" d="M 501.710938 429.90625 C 501.710938 429.90625 506.203125 430.328125 507.722656 416.359375 C 507.722656 416.359375 508.960938 406.109375 519.101562 398.910156 L 514.304688 386.34375 L 290.148438 386.34375 L 285.351562 398.914062 C 295.492188 406.113281 296.730469 416.359375 296.730469 416.359375 C 298.25 430.328125 302.742188 429.90625 302.742188 429.90625 C 308.023438 446.292969 299.15625 465.554688 299.15625 465.554688 C 299.15625 465.554688 275.472656 513.261719 290.148438 564.703125 C 304.824219 616.144531 354.152344 623.730469 354.152344 623.730469 L 363.273438 672.398438 C 385.3125 681.859375 413.207031 681.285156 444.234375 675.34375 C 473.40625 669.824219 450.300781 623.730469 450.300781 623.730469 C 450.300781 623.730469 499.628906 616.144531 514.304688 564.703125 C 528.980469 513.261719 505.292969 465.550781 505.292969 465.550781 C 505.292969 465.550781 496.429688 446.289062 501.710938 429.90625 Z M 501.710938 429.90625 " fill-opacity="1" fill-rule="nonzero"/><path fill="#f78663" d="M 501.710938 429.90625 C 501.710938 429.90625 506.203125 430.328125 507.722656 416.359375 C 507.722656 416.359375 508.960938 406.109375 519.101562 398.910156 L 514.304688 386.34375 L 470.195312 386.34375 C 475.269531 398.277344 464.851562 406.277344 464.851562 406.277344 C 461.101562 422.441406 471.007812 440.449219 463.96875 455.476562 C 462.800781 457.964844 461.1875 460.300781 460.65625 463 C 459.664062 468.03125 462.609375 472.890625 465.179688 477.328125 C 467.777344 481.816406 470.082031 486.449219 472.101562 491.226562 C 488.660156 530.433594 471.234375 576.0625 432.34375 593.328125 C 405.890625 605.074219 365.765625 610.003906 305.347656 594.421875 C 325.476562 619.316406 354.148438 623.730469 354.148438 623.730469 L 354.472656 625.449219 L 390.824219 633.191406 C 402.445312 633.980469 413.808594 632.628906 424.914062 629.132812 C 423.773438 630.011719 422.640625 630.898438 421.558594 631.851562 C 420.996094 632.335938 420.578125 632.921875 420.3125 633.613281 C 419.148438 636.757812 422.347656 638.613281 424.628906 640.386719 C 430.28125 644.785156 431.921875 653.566406 428.238281 659.710938 C 428.238281 659.710938 388.84375 667.476562 359.828125 654.003906 C 359.828125 654.003906 358.660156 679.679688 396.207031 679.679688 C 409 679.769531 421.703125 678.75 434.316406 676.613281 C 434.292969 676.765625 434.277344 676.917969 434.246094 677.070312 C 437.535156 676.558594 440.863281 675.980469 444.230469 675.335938 C 447.144531 674.851562 449.804688 673.753906 452.210938 672.039062 L 452.230469 672.03125 L 452.226562 672.03125 C 468.464844 659.980469 450.300781 623.726562 450.300781 623.726562 C 450.300781 623.726562 499.628906 616.140625 514.304688 564.699219 C 528.980469 513.257812 505.292969 465.546875 505.292969 465.546875 C 505.292969 465.546875 496.429688 446.289062 501.710938 429.90625 Z M 501.710938 429.90625 " fill-opacity="1" fill-rule="nonzero"/><path fill="#ffc897" d="M 285.910156 388.554688 C 285.910156 388.554688 306.082031 385.132812 305.765625 364.914062 C 305.765625 364.914062 306.585938 342.046875 281.605469 340.824219 C 281.605469 340.824219 249.710938 336.417969 246.457031 380.390625 C 246.457031 380.390625 246.769531 400.609375 261.90625 427.039062 C 261.90625 427.039062 275.789062 466.121094 278.929688 493.25 C 281.183594 491.539062 283.214844 489.59375 285.027344 487.421875 C 286.839844 485.25 288.386719 482.902344 289.664062 480.378906 C 290.945312 477.855469 291.925781 475.222656 292.613281 472.476562 C 293.296875 469.730469 293.664062 466.945312 293.714844 464.113281 C 293.714844 464.113281 290.660156 437.53125 277.046875 416.976562 L 266.046875 383.550781 Z M 285.910156 388.554688 " fill-opacity="1" fill-rule="nonzero"/><path fill="#f78663" d="M 557.972656 380.929688 C 556.726562 384.65625 555.25 388.285156 553.542969 391.824219 C 551.351562 396.394531 548.832031 400.898438 545.242188 404.476562 C 543.027344 406.628906 540.527344 408.363281 537.734375 409.679688 C 534.945312 410.996094 532.015625 411.824219 528.945312 412.160156 L 527.40625 416.832031 C 513.792969 437.351562 510.742188 463.886719 510.742188 463.886719 C 510.792969 466.714844 511.164062 469.496094 511.847656 472.238281 C 512.53125 474.980469 513.515625 477.609375 514.792969 480.128906 C 516.074219 482.644531 517.621094 484.988281 519.433594 487.15625 C 521.242188 489.324219 523.273438 491.261719 525.527344 492.96875 C 528.667969 465.890625 542.550781 426.882812 542.550781 426.882812 C 556.160156 403.160156 557.785156 384.464844 557.972656 380.929688 Z M 557.972656 380.929688 " fill-opacity="1" fill-rule="nonzero"/><path fill="#f78663" d="M 281.457031 424.488281 C 281.25 427.894531 280.734375 431.25 279.914062 434.558594 C 278.980469 438.304688 277.609375 442.039062 275.121094 444.988281 C 273.433594 446.933594 271.441406 448.476562 269.132812 449.621094 C 273.023438 462.839844 277.34375 479.566406 278.929688 493.253906 C 281.179688 491.542969 283.214844 489.601562 285.023438 487.429688 C 286.835938 485.253906 288.382812 482.90625 289.664062 480.382812 C 290.945312 477.863281 291.925781 475.226562 292.609375 472.480469 C 293.292969 469.734375 293.660156 466.949219 293.714844 464.121094 C 293.714844 464.121094 291.339844 443.464844 281.457031 424.488281 Z M 281.457031 424.488281 " fill-opacity="1" fill-rule="nonzero"/><path fill="#ff808f" d="M 364.539062 540.59375 C 364.539062 540.59375 377.679688 540.792969 384.972656 514.214844 L 394.808594 517.449219 L 391.421875 534.097656 L 396.195312 536.835938 L 393.242188 543.570312 C 393.242188 543.570312 382.796875 541.71875 380.371094 549.347656 C 380.371094 549.347656 359.6875 547.464844 352.988281 566.554688 C 352.988281 566.554688 344.183594 596.273438 377.585938 604.363281 L 361.535156 614.796875 C 361.535156 614.796875 418.152344 628.859375 440.796875 611.640625 L 445.648438 602.746094 L 444.265625 575.25 L 435.484375 568.148438 L 425.867188 568.996094 C 425.867188 568.996094 430.863281 562.253906 421.15625 559.613281 C 419.660156 559.621094 418.242188 559.960938 416.90625 560.636719 C 415.570312 561.308594 414.457031 562.246094 413.5625 563.445312 C 413.5625 563.445312 412.375 553.738281 404.75 549.34375 C 404.75 549.34375 401.976562 540.722656 408.214844 536.828125 L 415.722656 523.957031 C 415.722656 523.957031 416.523438 507.894531 400.929688 509.433594 C 400.929688 509.433594 399.941406 494.558594 417.710938 499.644531 C 417.710938 499.644531 416.457031 472.285156 391.421875 482.03125 C 391.421875 482.03125 372.109375 483.386719 370.984375 509.429688 C 370.984375 509.429688 373.726562 521.601562 370.984375 529.464844 Z M 364.539062 540.59375 " fill-opacity="1" fill-rule="nonzero"/><path fill="#dd5061" d="M 444.824219 586.335938 C 440.878906 589.054688 436.71875 591.382812 432.34375 593.324219 C 418.171875 599.617188 400.074219 603.945312 377.039062 604.222656 C 377.222656 604.269531 377.402344 604.320312 377.585938 604.367188 L 361.535156 614.796875 C 361.535156 614.796875 418.152344 628.859375 440.796875 611.640625 L 445.648438 602.746094 Z M 444.824219 586.335938 " fill-opacity="1" fill-rule="nonzero"/><path fill="#fffffa" d="M 289.03125 498.703125 C 351.34375 491.074219 401.730469 445.585938 415.699219 386.339844 L 290.304688 386.339844 L 285.351562 399.113281 C 295.816406 406.429688 297.101562 416.84375 297.101562 416.84375 C 298.667969 431.035156 303.308594 430.609375 303.308594 430.609375 C 308.757812 447.257812 299.605469 466.828125 299.605469 466.828125 C 299.605469 466.828125 293.253906 479.429688 289.03125 498.703125 Z M 289.03125 498.703125 " fill-opacity="1" fill-rule="nonzero"/><path fill="#ff808f" d="M 289.113281 402.082031 L 514.636719 402.082031 L 507.726562 416.359375 C 507.726562 416.359375 509.007812 429.046875 500.742188 433.726562 C 500.742188 433.726562 457.929688 446.511719 401.875 446.511719 C 401.875 446.511719 329.4375 448.28125 302.742188 431.113281 C 302.742188 431.113281 297.335938 424.839844 296.730469 416.359375 C 296.730469 416.359375 295.332031 406.011719 289.113281 402.082031 Z M 289.113281 402.082031 " fill-opacity="1" fill-rule="nonzero"/><path fill="#ffabb9" d="M 411.023438 402.078125 L 289.113281 402.078125 C 292.652344 404.320312 294.628906 408.632812 295.675781 411.9375 C 296.347656 413.515625 296.820312 415.148438 297.097656 416.84375 C 297.300781 418.792969 297.625 420.71875 298.066406 422.628906 C 299.019531 425.335938 300.339844 427.851562 302.019531 430.175781 C 302.402344 430.453125 302.828125 430.597656 303.300781 430.609375 C 303.414062 430.953125 303.515625 431.300781 303.613281 431.648438 C 322.667969 443.207031 362.835938 445.875 385.476562 446.429688 C 391.003906 439.847656 395.914062 432.832031 400.207031 425.382812 C 404.496094 417.933594 408.101562 410.167969 411.023438 402.078125 Z M 411.023438 402.078125 " fill-opacity="1" fill-rule="nonzero"/><path fill="#dd5061" d="M 500.742188 433.726562 C 500.988281 432.433594 501.308594 431.160156 501.710938 429.90625 C 501.710938 429.90625 506.203125 430.328125 507.722656 416.359375 C 508.152344 414.007812 508.890625 411.753906 509.933594 409.605469 C 510.972656 407.453125 512.285156 405.480469 513.863281 403.683594 L 514.636719 402.082031 L 466.027344 402.082031 C 465.578125 403.496094 465.167969 404.902344 464.847656 406.277344 C 462.238281 417.539062 466.25 429.699219 466.542969 441.121094 C 487.679688 437.625 500.738281 433.730469 500.738281 433.730469 Z M 500.742188 433.726562 " fill-opacity="1" fill-rule="nonzero"/><path fill="#fffffa" d="M 268.472656 390.917969 L 266.050781 383.550781 L 272.625 385.207031 C 275.78125 380.285156 278.179688 375.015625 279.816406 369.402344 C 281.457031 363.792969 282.273438 358.0625 282.265625 352.214844 C 282.265625 348.367188 281.910156 344.558594 281.195312 340.78125 C 277.480469 340.449219 249.492188 339.34375 246.453125 380.394531 C 246.453125 380.394531 246.613281 390.226562 251.832031 405.132812 C 258.234375 401.398438 263.78125 396.660156 268.472656 390.917969 Z M 268.472656 390.917969 " fill-opacity="1" fill-rule="nonzero"/><path fill="#dd5061" d="M 383.1875 547.804688 C 383.1875 547.804688 401.738281 555.65625 405.601562 569.976562 C 405.601562 569.976562 414.984375 570.75 412.222656 558.890625 L 404.75 549.347656 L 403.59375 540.589844 L 395.742188 537.871094 L 393.246094 543.566406 C 393.246094 543.566406 385.660156 543.164062 383.1875 547.804688 Z M 383.1875 547.804688 " fill-opacity="1" fill-rule="nonzero"/><path fill="#3a3245" d="M 309.445312 370.707031 C 312.210938 337.597656 269.734375 327.839844 252.148438 353.101562 C 244.011719 364.4375 243.0625 379.28125 245.765625 392.59375 C 249.328125 408.28125 258.441406 421.871094 263.136719 437.207031 C 286.441406 507.117188 266.953125 596.164062 348.015625 632.960938 C 347.082031 633.953125 346.289062 635.050781 345.636719 636.25 C 344.984375 637.445312 344.492188 638.707031 344.160156 640.03125 C 343.832031 641.355469 343.675781 642.699219 343.691406 644.066406 C 343.707031 645.429688 343.890625 646.769531 344.25 648.085938 C 339.046875 651.207031 333.796875 656.515625 334.601562 662.90625 C 335.152344 674.085938 366.464844 678.757812 375.722656 680.429688 C 403 684.34375 432.78125 682.851562 458.765625 673.050781 C 474.683594 668.851562 474.027344 656.019531 460.902344 648.183594 C 461.257812 646.9375 461.453125 645.667969 461.488281 644.371094 C 461.523438 643.078125 461.398438 641.796875 461.113281 640.53125 C 460.828125 639.269531 460.390625 638.058594 459.800781 636.90625 C 459.210938 635.753906 458.488281 634.691406 457.632812 633.71875 C 533.792969 597.273438 521.222656 515.449219 539.15625 446.945312 C 543.183594 431.996094 550.167969 418.171875 556.261719 404.035156 C 566.886719 380.34375 560.359375 343.238281 530.464844 339.15625 C 519.3125 337.664062 507.089844 341.277344 500.855469 351.214844 C 494.441406 360.769531 493.308594 375.414062 502.417969 383.828125 L 302.996094 383.828125 C 306.65625 380.59375 308.972656 375.3125 309.445312 370.707031 Z M 284.558594 476.003906 C 281.640625 481.183594 279.664062 475.199219 278.902344 472.257812 C 273.226562 458.140625 270.714844 443.21875 265.09375 429.011719 C 260.136719 416.082031 252.585938 403.90625 250.074219 390.171875 C 244.277344 365.683594 260.863281 336.742188 288.710938 344.984375 C 311.753906 352.097656 304.355469 383.804688 281.457031 382.941406 C 268.914062 381.910156 268.039062 363.960938 279.167969 360.195312 C 282.8125 358.742188 290.824219 359.835938 289.6875 365.402344 C 288.902344 369.25 285.246094 369.992188 282.261719 367.96875 C 279.785156 366.289062 277.488281 370.292969 279.925781 371.96875 C 294.902344 380.472656 301.828125 355.597656 282.773438 354.746094 C 265.472656 355.707031 261.445312 377.21875 265.5 390.953125 C 272.148438 414.214844 297.355469 452.46875 284.558594 476.003906 Z M 295.070312 417.601562 C 296.382812 423.292969 295.089844 430.871094 300.582031 434.59375 C 303.519531 443.914062 300.882812 453.859375 295.988281 462.050781 C 291.335938 436.285156 278.273438 413.074219 270.015625 388.554688 C 272.523438 391.027344 276.53125 391.492188 278.515625 394.417969 C 279.1875 407.71875 291.800781 401.59375 295.070312 417.601562 Z M 357.964844 580.042969 C 370.046875 579.972656 371.628906 562.480469 359.914062 560.160156 C 372.617188 544.863281 390.722656 554.46875 392.121094 572.566406 C 393.15625 597.070312 358.308594 608.140625 354.25 579.320312 C 355.441406 579.800781 356.679688 580.042969 357.964844 580.042969 Z M 354.152344 573.601562 C 354.464844 570.53125 355.324219 567.628906 356.738281 564.886719 C 361.320312 563.597656 365.148438 569.277344 362.285156 573.050781 C 362.058594 573.367188 361.800781 573.65625 361.507812 573.914062 C 361.21875 574.171875 360.902344 574.398438 360.5625 574.585938 C 360.222656 574.773438 359.863281 574.925781 359.492188 575.035156 C 359.117188 575.144531 358.734375 575.214844 358.347656 575.238281 C 357.960938 575.265625 357.574219 575.25 357.1875 575.191406 C 356.804688 575.132812 356.429688 575.03125 356.066406 574.890625 C 355.703125 574.746094 355.359375 574.566406 355.039062 574.351562 C 354.714844 574.132812 354.417969 573.882812 354.152344 573.601562 Z M 374.183594 501.605469 C 377.105469 481.4375 411.445312 472.265625 414.386719 496.785156 C 374.886719 489.535156 386.175781 525 369.546875 536.832031 C 376.527344 525.605469 372.535156 513.449219 374.183594 501.605469 Z M 395.125 522.796875 C 396.226562 516.84375 399.566406 511.6875 406.1875 511.992188 C 411.652344 513.277344 413.390625 517.199219 413.8125 521.933594 C 408.703125 520.746094 406.039062 530.109375 406.539062 535.9375 C 402.035156 535.28125 397.605469 534.296875 393.246094 532.980469 C 394.691406 529.921875 394.4375 526.191406 395.125 522.796875 Z M 396.703125 540.59375 C 398.464844 541.777344 400.289062 542.855469 402.175781 543.828125 C 400.519531 550.070312 406.207031 553.539062 409.355469 557.867188 C 410.753906 559.945312 411.242188 568.425781 406.570312 566.179688 C 405.757812 565.261719 405.726562 564.066406 404.957031 563.34375 C 403.992188 561.359375 402.820312 559.503906 401.4375 557.78125 C 400.054688 556.058594 398.5 554.507812 396.769531 553.136719 C 395.042969 551.761719 393.179688 550.597656 391.191406 549.644531 C 389.199219 548.6875 387.128906 547.964844 384.972656 547.476562 C 389.539062 545.589844 394.550781 546.371094 396.703125 540.59375 Z M 422.765625 574.347656 C 422.96875 574.164062 423.113281 573.9375 423.203125 573.679688 C 428.398438 570.433594 435.191406 568.949219 438.171875 575.5 C 431.582031 580.292969 427.765625 587.847656 420.84375 592.171875 C 420.3125 592.242188 419.785156 592.246094 419.253906 592.191406 C 414.148438 590.367188 412.636719 586.242188 414.082031 582.105469 C 416.878906 579.410156 419.949219 577.023438 422.765625 574.347656 Z M 415.152344 566 C 416.015625 561.988281 420.542969 559.839844 423.191406 563.664062 C 426.394531 566.066406 422.941406 567.667969 420.9375 569.164062 C 416.851562 572.820312 413.546875 571.726562 415.148438 566 Z M 442.707031 585.75 C 442.449219 593.117188 444.488281 603.191406 437.140625 607.6875 C 434.488281 607 432.316406 600.578125 431.601562 598.925781 C 427.503906 591.460938 433.125 587.515625 437.785156 582.480469 C 438.367188 581.933594 442.304688 578.730469 442.242188 577.867188 L 442.273438 577.851562 C 442.863281 578.9375 442.671875 584.785156 442.707031 585.75 Z M 422.03125 603.984375 C 425.507812 606.242188 430.953125 609.277344 430.484375 614.074219 C 428.375 614.347656 426.277344 614.585938 424.164062 614.796875 C 423.769531 614.621094 423.386719 614.421875 423.011719 614.195312 C 421.542969 611.878906 419.773438 609.820312 417.703125 608.023438 C 415.632812 606.222656 413.347656 604.761719 410.847656 603.628906 C 409.203125 603.035156 407.503906 602.746094 405.753906 602.761719 C 400.925781 601.644531 399.339844 597.671875 402.761719 593.933594 C 409.476562 596.722656 415.902344 600.074219 422.03125 603.984375 Z M 396.882812 572.316406 C 396.792969 570.539062 396.53125 568.785156 396.101562 567.058594 C 395.675781 565.332031 395.085938 563.660156 394.335938 562.046875 C 393.585938 560.433594 392.6875 558.90625 391.644531 557.464844 C 390.601562 556.023438 389.429688 554.691406 388.132812 553.476562 C 389.183594 553.925781 390.199219 554.445312 391.179688 555.035156 C 392.160156 555.628906 393.097656 556.285156 393.984375 557.003906 C 394.875 557.726562 395.707031 558.507812 396.488281 559.34375 C 397.269531 560.183594 397.984375 561.070312 398.640625 562.007812 C 399.296875 562.949219 399.886719 563.925781 400.40625 564.949219 C 400.925781 565.96875 401.371094 567.019531 401.742188 568.101562 C 402.117188 569.183594 402.410156 570.289062 402.628906 571.410156 C 402.847656 572.535156 402.988281 573.667969 403.046875 574.8125 C 403.921875 589.515625 391.097656 601.886719 376.453125 600.519531 C 388.738281 597.402344 397.765625 585.03125 396.882812 572.316406 Z M 372.601562 611.269531 C 375.523438 609.449219 377.066406 609.078125 380.40625 610.632812 C 392.613281 616.558594 395.992188 609.296875 405.953125 607.386719 C 409.722656 607.1875 415.253906 612.558594 417.710938 615.351562 C 401.476562 616.59375 385.335938 615.835938 369.285156 613.089844 C 370.425781 612.546875 371.53125 611.941406 372.601562 611.269531 Z M 382.496094 657.542969 C 379.378906 656.796875 375.40625 656.183594 373.085938 653.785156 C 369.011719 649.660156 371.136719 642.9375 377.058594 642.714844 C 382.769531 643.964844 388.539062 644.820312 394.367188 645.273438 C 400.195312 645.730469 406.027344 645.78125 411.863281 645.429688 C 417.699219 645.082031 423.480469 644.332031 429.214844 643.183594 C 434.945312 642.035156 440.574219 640.5 446.09375 638.574219 C 449.421875 639.167969 452.078125 641.519531 452.226562 645.289062 C 452.28125 646.402344 452.074219 647.46875 451.613281 648.480469 C 451.148438 649.496094 450.476562 650.347656 449.597656 651.039062 C 441.375 654.457031 432.140625 656.246094 423.6875 657.472656 C 410.351562 659.179688 396.011719 660.246094 382.496094 657.542969 Z M 453.128906 670.074219 C 434.863281 676.042969 415.707031 677.960938 396.480469 677.429688 C 394.867188 677.136719 393.445312 676.445312 392.222656 675.355469 C 387.753906 671.6875 390.59375 664.539062 395.785156 663.449219 C 412.621094 664.203125 429.832031 662.316406 445.6875 657.027344 C 452.167969 655.945312 460.453125 665.71875 453.128906 670.074219 Z M 508.960938 571.949219 C 503.660156 582.511719 494.78125 590.621094 484.800781 596.699219 C 486.136719 588.8125 488.21875 580.191406 495.660156 575.84375 C 498.140625 574.308594 501.875 573.808594 503.347656 570.996094 C 504.367188 569.050781 504.078125 566.355469 502.136719 565.113281 C 495.523438 561.886719 489.015625 573.097656 486.539062 577.808594 C 486.535156 577.808594 486.539062 577.808594 486.539062 577.808594 C 486.917969 563.953125 493.164062 551.105469 500.574219 539.644531 C 503.273438 535.488281 505.90625 531.144531 506.515625 526.128906 C 506.972656 522.390625 506.484375 516.03125 502.089844 514.695312 C 498.1875 513.507812 495.894531 517.640625 494.738281 520.601562 C 488.8125 536.269531 484.871094 552.425781 482.910156 569.0625 C 481.476562 559.742188 480.003906 548.429688 473.089844 541.402344 C 472.878906 541.191406 472.632812 541.03125 472.359375 540.921875 C 472.085938 540.808594 471.796875 540.75 471.5 540.75 C 471.203125 540.75 470.917969 540.808594 470.644531 540.921875 C 470.367188 541.03125 470.125 541.191406 469.914062 541.402344 C 462.359375 550.21875 480.570312 559.746094 479.578125 580.957031 C 477.699219 576.429688 474.957031 571.832031 470.480469 570.335938 C 468.355469 569.621094 466.457031 570.734375 466.320312 573.050781 C 466.160156 575.773438 468.347656 577.945312 470.21875 579.597656 C 475.875 584.867188 479.648438 592.390625 479.160156 600.121094 C 469.09375 606.304688 457.257812 608.957031 445.839844 611.53125 C 447.027344 606.269531 451.328125 571.53125 442.65625 573.109375 C 442.355469 572.511719 442.007812 571.9375 441.617188 571.390625 C 441.222656 570.84375 440.792969 570.332031 440.320312 569.855469 C 439.847656 569.375 439.34375 568.9375 438.804688 568.535156 C 438.261719 568.136719 437.695312 567.78125 437.097656 567.472656 C 436.503906 567.160156 435.886719 566.898438 435.25 566.683594 C 434.613281 566.46875 433.964844 566.304688 433.300781 566.1875 C 432.640625 566.074219 431.972656 566.015625 431.300781 566.003906 C 430.628906 565.996094 429.960938 566.039062 429.296875 566.132812 C 429.40625 564.222656 428.273438 562.5625 426.972656 561.121094 C 431.695312 555.585938 436.492188 550.109375 441.21875 544.574219 C 446.339844 538.632812 451.441406 532.671875 456.527344 526.691406 C 457.90625 525.074219 459.519531 523.742188 461.367188 522.691406 C 464.25 521.054688 468.703125 518.285156 470.75 515.785156 C 472.992188 513.042969 476.371094 504.816406 478.328125 499.746094 C 478.460938 499.40625 478.484375 499.058594 478.402344 498.703125 C 478.316406 498.347656 478.140625 498.046875 477.871094 497.800781 C 477.601562 497.554688 477.285156 497.410156 476.921875 497.359375 C 476.5625 497.308594 476.21875 497.367188 475.890625 497.53125 C 464.546875 503.089844 459.996094 506.1875 456.648438 517.738281 C 455.710938 520.710938 454.148438 523.308594 451.964844 525.535156 C 442.511719 536.390625 433.113281 547.296875 423.769531 558.25 C 421.167969 556.355469 416.894531 557.171875 414.804688 559.613281 L 414.777344 559.605469 C 413.636719 551.421875 402.769531 550.335938 407.632812 540.746094 C 410.421875 540.609375 418.742188 542.613281 418.148438 537.929688 C 416.90625 531.035156 419.695312 523.957031 417.5625 517.136719 C 415.789062 511.238281 410.402344 507.953125 404.6875 507.398438 C 401.425781 503.480469 406.839844 499.941406 410.664062 500.429688 C 412.800781 500.625 414.839844 501.179688 416.78125 502.09375 C 416.960938 502.128906 417.140625 502.144531 417.324219 502.140625 C 417.507812 502.132812 417.6875 502.105469 417.863281 502.058594 C 418.042969 502.011719 418.210938 501.941406 418.371094 501.855469 C 418.53125 501.769531 418.683594 501.664062 418.820312 501.542969 C 418.957031 501.417969 419.078125 501.285156 419.183594 501.132812 C 419.289062 500.984375 419.375 500.824219 419.441406 500.652344 C 419.511719 500.484375 419.558594 500.308594 419.585938 500.125 C 419.613281 499.945312 419.621094 499.761719 419.605469 499.578125 C 419.542969 467.683594 377.101562 472.652344 370.214844 498.261719 C 366.503906 511.1875 373.890625 530.882812 360.769531 538.769531 C 358.355469 539.648438 358.632812 543.3125 361.394531 543.371094 C 374.902344 543.875 380.859375 532.207031 383.953125 520.765625 C 384.171875 520.53125 384.410156 520.320312 384.667969 520.128906 C 384.925781 519.941406 385.199219 519.777344 385.488281 519.640625 C 385.777344 519.503906 386.074219 519.398438 386.386719 519.316406 C 386.695312 519.238281 387.007812 519.1875 387.328125 519.167969 C 387.648438 519.148438 387.964844 519.15625 388.28125 519.199219 C 388.597656 519.238281 388.910156 519.308594 389.214844 519.40625 C 389.515625 519.507812 389.808594 519.632812 390.089844 519.789062 C 390.367188 519.945312 390.632812 520.125 390.875 520.328125 C 389.460938 524.363281 391.089844 529.464844 387.691406 532.617188 C 386.289062 533.78125 387.171875 536.046875 388.71875 536.503906 C 390.101562 536.914062 391.492188 537.320312 392.882812 537.71875 C 391.367188 544.484375 383.339844 540.414062 379.617188 546.789062 C 346.644531 545.875 337.542969 591.726562 368.261719 603.523438 C 368.3125 603.777344 368.324219 604.03125 368.296875 604.289062 C 361.882812 605.648438 355.605469 608.507812 348.960938 608.136719 C 339.65625 605.28125 330.792969 601.40625 322.378906 596.515625 C 320.980469 589.128906 324.523438 581.664062 329.84375 576.511719 C 331.675781 574.847656 333.914062 572.804688 333.609375 570.03125 C 333.59375 569.8125 333.550781 569.597656 333.484375 569.386719 C 333.417969 569.179688 333.328125 568.980469 333.214844 568.789062 C 333.101562 568.601562 332.972656 568.425781 332.820312 568.269531 C 332.667969 568.109375 332.5 567.96875 332.3125 567.851562 C 332.128906 567.730469 331.933594 567.632812 331.726562 567.554688 C 331.523438 567.480469 331.308594 567.429688 331.089844 567.402344 C 330.871094 567.375 330.65625 567.375 330.4375 567.398438 C 330.21875 567.421875 330.003906 567.46875 329.796875 567.542969 C 325.90625 568.605469 323.433594 572.558594 321.734375 576.394531 C 321.363281 558.289062 337.164062 549.5 330.34375 541.726562 C 324.03125 537.28125 318.691406 560.914062 318.539062 565 C 317.613281 558.664062 310.136719 510.140625 299.921875 518.382812 C 295.683594 521.484375 296.703125 528.773438 298.332031 532.9375 C 300.570312 538.664062 304.710938 543.519531 307.535156 548.964844 C 311.253906 556.734375 314.726562 564.71875 314.941406 573.421875 C 312.652344 569.398438 306.625 559.667969 300.949219 563.125 C 300.574219 563.445312 300.261719 563.816406 300.015625 564.238281 C 299.765625 564.664062 299.597656 565.117188 299.503906 565.601562 C 299.410156 566.085938 299.402344 566.570312 299.476562 567.054688 C 299.550781 567.542969 299.703125 568.003906 299.9375 568.433594 C 301.160156 570.90625 304.078125 571.371094 306.28125 572.578125 C 313.960938 576.5625 315.574219 585.363281 316.929688 593.097656 C 292.476562 577.160156 288.300781 552.695312 287.566406 525.582031 C 286.925781 500.945312 304.425781 465.632812 307.097656 456.65625 C 360.140625 473.960938 418.105469 475.007812 472.628906 463.804688 C 473.289062 481.945312 493.316406 491.65625 508.484375 482.664062 C 510.039062 486.167969 511.40625 489.742188 512.589844 493.382812 C 513.773438 497.027344 514.765625 500.722656 515.570312 504.46875 C 516.375 508.214844 516.980469 511.992188 517.394531 515.800781 C 517.808594 519.609375 518.027344 523.429688 518.046875 527.257812 C 518.066406 531.089844 517.890625 534.910156 517.519531 538.722656 C 517.144531 542.539062 516.574219 546.320312 515.8125 550.074219 C 515.050781 553.828125 514.09375 557.535156 512.949219 561.191406 C 511.804688 564.84375 510.472656 568.433594 508.960938 571.949219 Z M 495.988281 445.128906 C 488.421875 447.363281 480.789062 449.320312 473.082031 451.003906 C 465.375 452.6875 457.621094 454.09375 449.8125 455.21875 C 442.007812 456.347656 434.171875 457.191406 426.304688 457.757812 C 418.4375 458.320312 410.558594 458.601562 402.671875 458.601562 C 394.785156 458.601562 386.90625 458.316406 379.042969 457.75 C 371.175781 457.183594 363.335938 456.339844 355.53125 455.210938 C 347.726562 454.082031 339.96875 452.675781 332.265625 450.988281 C 324.558594 449.304688 316.921875 447.34375 309.359375 445.113281 C 309.574219 442.640625 309.375 440.199219 308.757812 437.796875 C 369.59375 454.839844 435.800781 452.410156 496.792969 437.390625 C 496.082031 439.925781 495.8125 442.503906 495.992188 445.132812 Z M 510.75 455.980469 C 510.285156 457.902344 509.8125 459.917969 509.382812 461.976562 C 504.503906 453.796875 501.898438 443.863281 504.835938 434.566406 C 513.132812 427.96875 505.109375 412.710938 518.835938 404.847656 C 523.386719 404.09375 526.894531 399.703125 526.894531 394.402344 C 528.859375 391.441406 532.832031 391.058594 535.335938 388.605469 C 527.890625 411.257812 515.859375 432.476562 510.753906 455.980469 Z M 510.378906 348.117188 C 533.886719 333.546875 557.707031 355.097656 556.277344 380.148438 C 556.507812 394.507812 549.835938 407.40625 543.945312 420.085938 C 539.125 431.441406 535.261719 443.113281 532.351562 455.101562 C 530.679688 460.675781 528.722656 466.179688 526.738281 471.640625 C 525.851562 474.089844 524.199219 481.089844 521.148438 476.476562 C 511.046875 458.871094 522.984375 434.546875 529.402344 417.164062 C 532.324219 410.058594 535.800781 403.105469 538.433594 395.886719 C 552.921875 353.640625 511.246094 344.664062 511.015625 365.632812 C 511.988281 372.808594 519.628906 375.984375 525.484375 371.957031 C 527.921875 370.285156 525.625 366.273438 523.148438 367.957031 C 520.476562 369.773438 517.679688 369.664062 516.132812 366.570312 C 513.328125 359.480469 524.582031 357.898438 528.550781 361.324219 C 537.007812 366.503906 535.652344 381 525.007812 382.816406 C 506.152344 385.652344 493.757812 359.347656 510.382812 348.117188 Z M 433.542969 392.332031 C 434.003906 390.496094 435.539062 389.710938 436.792969 388.597656 L 508.167969 388.597656 C 508.5625 395.152344 502.265625 399.296875 496.363281 400.203125 L 441.71875 400.203125 C 437.84375 399.289062 432.421875 397.226562 433.542969 392.332031 Z M 320.832031 388.597656 L 406.804688 388.597656 C 411.351562 391.558594 412.554688 397.46875 406.945312 400.203125 L 334.027344 400.203125 C 327.546875 400.421875 319.546875 395.902344 320.832031 388.597656 Z M 306.175781 404.972656 C 333.757812 405.324219 361.128906 409.296875 388.722656 409.136719 C 429.707031 410.308594 470.910156 405.191406 511.84375 404.972656 C 505.625 410.871094 505.453125 420.359375 503.917969 428.457031 C 502.515625 430.78125 499.480469 430.480469 497.074219 430.835938 C 492.945312 430.84375 489.011719 429.859375 486.496094 425.929688 C 483.921875 421.90625 485.273438 415.511719 490.300781 414.125 C 492.9375 413.0625 497.035156 415.804688 492.707031 417.089844 C 491.078125 417.6875 489.703125 418.722656 489.351562 420.511719 C 488.683594 429.296875 503.78125 426.183594 500.652344 414.699219 C 499.316406 410.527344 494.972656 407.933594 490.773438 407.640625 C 476.449219 406.726562 464.625 425.003906 472.117188 437.464844 C 462.558594 439.242188 443.148438 440.777344 444.703125 426.246094 C 444.863281 425.59375 445.105469 424.976562 445.421875 424.382812 C 445.738281 423.792969 446.125 423.253906 446.578125 422.757812 C 447.035156 422.265625 447.542969 421.839844 448.105469 421.472656 C 448.667969 421.109375 449.265625 420.820312 449.902344 420.609375 C 452.476562 419.871094 457.324219 422.675781 453.128906 423.710938 C 448.605469 424.054688 447 429.25 450.878906 431.804688 C 454.644531 434.085938 459.15625 430.78125 460.5 427.253906 C 462.078125 423.136719 460.328125 418.699219 456.859375 416.148438 C 441.980469 405.796875 419.621094 429.125 431.082031 443.261719 C 424.71875 443.652344 417.957031 444.039062 411.742188 442.433594 C 402.53125 440.425781 398.148438 427.699219 408.953125 424.515625 C 412.113281 423.726562 416.273438 427.554688 410.917969 428 C 406.511719 428.675781 405.167969 434.457031 409.648438 436.304688 C 413.800781 438.015625 418.132812 434.613281 419.257812 430.671875 C 420.503906 426.304688 418.136719 421.785156 414.371094 419.496094 C 400.167969 411.183594 379.542969 429.730469 387.21875 444.539062 C 380.011719 444.429688 372.300781 444.191406 365.734375 441.132812 C 357.515625 437.726562 355.464844 424.914062 365.929688 423.324219 C 368.695312 423.199219 372.703125 426.742188 368.140625 427.042969 C 363.441406 426.601562 361.019531 431.792969 364.800781 434.8125 C 368.5 437.617188 373.601562 434.71875 375.363281 431.082031 C 377.367188 426.945312 375.746094 422.160156 372.390625 419.261719 C 359.503906 408.589844 335.890625 424.652344 342.050781 440.480469 C 335.921875 439.089844 329.707031 437.464844 324.125 434.480469 C 316.097656 430.699219 313.496094 417.898438 324.230469 415.996094 C 326.015625 415.828125 328.238281 416.398438 329.117188 418.097656 C 329.75 419.730469 328.65625 420.066406 327.417969 420.085938 C 325.441406 420.113281 323.886719 419.429688 322.320312 421.199219 C 321.984375 421.613281 321.726562 422.066406 321.554688 422.570312 C 321.378906 423.070312 321.296875 423.585938 321.308594 424.117188 C 321.316406 424.648438 321.417969 425.160156 321.609375 425.65625 C 321.804688 426.152344 322.074219 426.597656 322.425781 426.996094 C 325.386719 430.535156 331.023438 428.578125 333.40625 425.472656 C 336.34375 421.648438 335.496094 416.277344 332.394531 412.804688 C 323.179688 403.019531 305.230469 408.78125 300.191406 420.226562 C 299.699219 414.90625 298.054688 408.9375 294.082031 404.976562 Z M 306.175781 404.972656 " fill-opacity="1" fill-rule="nonzero"/><path fill="#3a3245" d="M 366.238281 590.042969 C 369.6875 590.042969 369.695312 584.675781 366.238281 584.675781 C 362.777344 584.675781 362.777344 590.042969 366.238281 590.042969 Z M 366.238281 590.042969 " fill-opacity="1" fill-rule="nonzero"/><path fill="#3a3245" d="M 378.292969 579.589844 C 375.925781 577.171875 372.210938 580.910156 374.613281 583.269531 C 376.984375 585.6875 380.699219 581.949219 378.292969 579.589844 Z M 378.292969 579.589844 " fill-opacity="1" fill-rule="nonzero"/><path fill="#3a3245" d="M 380.023438 573.199219 C 383.269531 573.199219 383.277344 568.148438 380.023438 568.148438 C 376.769531 568.148438 376.769531 573.199219 380.023438 573.199219 Z M 380.023438 573.199219 " fill-opacity="1" fill-rule="nonzero"/><path fill="#3a3245" d="M 374.78125 562.089844 C 377.96875 562.089844 377.972656 557.140625 374.78125 557.140625 C 371.59375 557.140625 371.59375 562.089844 374.78125 562.089844 Z M 374.78125 562.089844 " fill-opacity="1" fill-rule="nonzero"/><path fill="#3a3245" d="M 466.59375 472.132812 C 465.390625 469.746094 462.117188 470.617188 461.816406 473.105469 C 461.355469 475.445312 464.609375 477.007812 466.175781 475.210938 L 466.152344 475.242188 C 466.355469 475.042969 466.519531 474.816406 466.648438 474.5625 C 466.777344 474.3125 466.863281 474.042969 466.902344 473.761719 C 466.941406 473.480469 466.9375 473.199219 466.882812 472.921875 C 466.832031 472.644531 466.734375 472.378906 466.59375 472.132812 Z M 466.59375 472.132812 " fill-opacity="1" fill-rule="nonzero"/><path fill="#3a3245" d="M 473.074219 486.378906 C 471.871094 483.992188 468.597656 484.863281 468.300781 487.351562 C 467.839844 489.691406 471.089844 491.253906 472.65625 489.457031 L 472.632812 489.488281 C 472.835938 489.289062 473.003906 489.0625 473.132812 488.808594 C 473.261719 488.558594 473.34375 488.289062 473.386719 488.007812 C 473.425781 487.726562 473.417969 487.445312 473.363281 487.167969 C 473.3125 486.886719 473.214844 486.625 473.074219 486.378906 Z M 473.074219 486.378906 " fill-opacity="1" fill-rule="nonzero"/><path fill="#3a3245" d="M 488.792969 494.65625 C 487.589844 492.273438 484.316406 493.144531 484.015625 495.628906 C 483.554688 497.96875 486.808594 499.535156 488.375 497.738281 L 488.351562 497.765625 C 488.554688 497.566406 488.71875 497.34375 488.847656 497.089844 C 488.976562 496.835938 489.0625 496.566406 489.101562 496.285156 C 489.140625 496.003906 489.136719 495.726562 489.082031 495.445312 C 489.027344 495.167969 488.933594 494.90625 488.792969 494.65625 Z M 488.792969 494.65625 " fill-opacity="1" fill-rule="nonzero"/><path fill="#3a3245" d="M 506.5625 494.371094 C 505.363281 491.984375 502.089844 492.855469 501.789062 495.34375 C 501.328125 497.683594 504.582031 499.246094 506.144531 497.449219 L 506.125 497.480469 C 506.328125 497.28125 506.492188 497.054688 506.621094 496.804688 C 506.75 496.550781 506.835938 496.28125 506.875 496 C 506.914062 495.71875 506.90625 495.441406 506.855469 495.160156 C 506.800781 494.882812 506.703125 494.617188 506.5625 494.371094 Z M 506.5625 494.371094 " fill-opacity="1" fill-rule="nonzero"/></svg>