<svg xmlns="http://www.w3.org/2000/svg" xmlns:xlink="http://www.w3.org/1999/xlink" width="1080" zoomAndPan="magnify" viewBox="0 0 810 1012.49997" height="1350" preserveAspectRatio="xMidYMid meet" version="1.0"><defs><clipPath id="3e1a4446cb"><path d="M 373 109.191406 L 700 109.191406 L 700 478 L 373 478 Z M 373 109.191406 " clip-rule="nonzero"/></clipPath><clipPath id="b888b658cf"><path d="M 209 548 L 445 548 L 445 930.785156 L 209 930.785156 Z M 209 548 " clip-rule="nonzero"/></clipPath></defs><path fill="#e09e09" d="M 507.503906 162.867188 L 494.433594 169.78125 L 478.039062 178.449219 L 469.851562 182.785156 L 461.75 176.933594 L 453.996094 171.34375 L 449.921875 168.394531 C 449.921875 168.394531 435.140625 139.855469 452.035156 125.480469 C 453.054688 124.605469 454.191406 123.789062 455.449219 123.03125 C 468.496094 115.210938 483.832031 113.921875 494.921875 115.304688 C 502.675781 116.273438 508.34375 118.546875 509.722656 120.820312 C 513.039062 126.347656 503.074219 131.882812 498.636719 141.839844 C 497.085938 145.339844 497.71875 148.972656 499.191406 152.21875 C 500.328125 154.722656 501.964844 157 503.484375 158.785156 C 505.605469 161.285156 507.503906 162.867188 507.503906 162.867188 Z M 507.503906 162.867188 " fill-opacity="1" fill-rule="nonzero"/><path fill="#ffb180" d="M 400.632812 330.773438 C 400.632812 332.140625 398.875 345.042969 397.292969 356.386719 C 396 365.683594 394.820312 373.925781 394.820312 373.925781 C 394.820312 373.925781 392.933594 376.300781 389.753906 380.199219 C 388.789062 381.390625 387.695312 382.710938 386.503906 384.164062 C 371.832031 401.984375 341.488281 437.71875 326.710938 446.960938 C 312.167969 456.050781 267.078125 474.859375 243.785156 484.347656 C 235.164062 487.871094 229.523438 490.113281 229.523438 490.113281 L 222.050781 467.707031 C 222.050781 467.707031 225.382812 464.78125 230.488281 460.320312 C 244.800781 447.859375 273.0625 423.417969 281.019531 417.914062 C 291.820312 410.445312 323.390625 394.671875 328.363281 389.699219 C 331.855469 386.210938 345.539062 359.914062 353.414062 344.472656 C 356.785156 337.875 359.09375 333.257812 359.09375 333.257812 C 359.996094 331.882812 360.972656 330.679688 362.023438 329.640625 C 366.210938 325.480469 371.492188 323.769531 376.785156 323.472656 C 378.488281 323.375 380.191406 323.417969 381.859375 323.585938 C 384.351562 323.824219 386.769531 324.300781 388.996094 324.914062 C 395.054688 326.5625 399.6875 329.183594 400.5 330.429688 C 400.59375 330.558594 400.632812 330.671875 400.632812 330.773438 Z M 400.632812 330.773438 " fill-opacity="1" fill-rule="nonzero"/><path fill="#9c3119" d="M 509.445312 219.578125 C 509.445312 219.578125 499.597656 229.414062 487.726562 234.765625 C 482.207031 237.269531 476.242188 238.785156 470.625 237.898438 C 469.421875 237.714844 468.25 237.421875 467.089844 237 C 448.816406 230.355469 447.980469 210.445312 447.980469 210.445312 L 482.03125 181.398438 L 507.785156 183.890625 Z M 509.445312 219.578125 " fill-opacity="1" fill-rule="nonzero"/><path fill="#f5833b" d="M 390.671875 354.847656 C 390.671875 356.167969 390.203125 368.542969 389.757812 380.199219 C 376.867188 396.019531 342.695312 436.972656 326.710938 446.964844 C 326.710938 446.964844 341.667969 417.917969 343.328125 413.769531 C 344.984375 409.617188 340.011719 399.660156 339.175781 396.347656 C 338.339844 393.019531 350.800781 402.152344 354.125 401.320312 C 357.441406 400.496094 373.222656 376.421875 374.054688 373.105469 C 374.71875 370.472656 373.296875 344.5 376.789062 323.480469 C 381.027344 323.230469 385.292969 323.890625 389 324.921875 C 390.289062 338.378906 390.671875 353.664062 390.671875 354.847656 Z M 390.671875 354.847656 " fill-opacity="0.35" fill-rule="nonzero"/><path fill="#822510" d="M 492.558594 227.039062 L 487.722656 234.765625 C 482.203125 237.269531 476.238281 238.785156 470.621094 237.898438 C 468.332031 232.765625 462.945312 218.308594 471.507812 211.550781 C 482.03125 203.246094 492.558594 227.039062 492.558594 227.039062 Z M 492.558594 227.039062 " fill-opacity="1" fill-rule="nonzero"/><g clip-path="url(#3e1a4446cb)"><path fill="#ffbc91" d="M 699.09375 264.660156 C 697.867188 267.429688 694.738281 271.464844 690.277344 276.125 C 678.699219 288.226562 658.210938 304.609375 639.019531 314.183594 C 616.605469 325.386719 581.613281 335.398438 569.855469 340.253906 C 567.667969 341.152344 566.28125 341.878906 565.929688 342.398438 C 565.167969 343.535156 564.171875 346.34375 562.933594 350.082031 C 562.925781 350.089844 562.925781 350.101562 562.925781 350.101562 C 560.550781 357.230469 557.265625 367.71875 552.917969 376.417969 C 546.269531 389.703125 526.324219 417.363281 523.007812 425.109375 C 521.132812 429.488281 511.132812 445.5 502.785156 458.621094 C 496.34375 468.730469 490.886719 477.117188 490.886719 477.117188 C 490.886719 477.117188 363.539062 479.328125 374.609375 456.085938 C 385.679688 432.855469 386.515625 383.894531 386.515625 383.894531 C 379.867188 372.269531 378.210938 329.953125 378.210938 329.953125 L 413.929688 267.707031 C 413.929688 267.707031 462.097656 269.363281 466.25 262.730469 C 467.660156 260.46875 469.851562 255.386719 472.117188 249.652344 C 476.507812 238.570312 481.203125 225.101562 481.203125 225.101562 C 488.433594 215.914062 507.628906 234.757812 515.894531 245.125 L 515.902344 245.136719 C 518.082031 247.867188 519.40625 250.066406 519.40625 251.105469 C 519.40625 254.703125 517.246094 262.589844 516.976562 267.035156 L 516.976562 267.042969 C 516.867188 268.765625 517.050781 269.972656 517.746094 270.199219 C 520.242188 271.03125 531.039062 266.871094 537.675781 265.214844 C 557.617188 260.238281 583.296875 268.570312 588.351562 266.046875 C 596.085938 262.179688 609.757812 257.800781 621.070312 253.78125 C 631.617188 250.035156 640.121094 246.601562 639.851562 244.195312 C 639.339844 239.554688 606.734375 187.082031 600.390625 178.414062 C 600.382812 178.394531 600.359375 178.371094 600.335938 178.351562 C 599.890625 177.746094 599.589844 177.375 599.433594 177.253906 C 599.425781 177.246094 599.425781 177.246094 599.425781 177.246094 C 597.210938 175.585938 585.578125 172.824219 582.257812 172.269531 C 578.941406 171.714844 563.4375 164.523438 560.105469 162.3125 C 556.789062 160.089844 550.695312 160.089844 550.695312 157.328125 C 550.695312 154.566406 554.023438 152.898438 557.894531 152.34375 C 561.355469 151.855469 572.6875 156.621094 575.917969 155.722656 C 576.320312 155.625 576.597656 155.417969 576.71875 155.117188 C 577.011719 154.390625 576.65625 152.765625 575.90625 150.695312 C 573.824219 144.847656 568.652344 135.441406 566.199219 132.980469 C 562.882812 129.667969 549.585938 124.128906 547.378906 121.921875 C 545.164062 119.707031 543.496094 116.9375 544.613281 115.277344 C 545.71875 113.621094 554.578125 114.171875 554.578125 114.171875 C 554.578125 114.171875 554.027344 109.1875 556.792969 109.1875 C 558.753906 109.1875 564.316406 111.691406 567.398438 113.144531 C 568.675781 113.75 569.519531 114.171875 569.519531 114.171875 C 569.519531 114.171875 571.191406 110.304688 573.953125 111.410156 C 575.90625 112.191406 581.425781 116.265625 584.515625 118.601562 C 585.820312 119.589844 586.6875 120.261719 586.6875 120.261719 C 586.6875 120.261719 589.460938 118.59375 591.675781 120.261719 C 593.886719 121.917969 601.085938 130.21875 602.746094 133.53125 C 604.402344 136.859375 611.605469 157.324219 616.039062 163.964844 C 620.460938 170.597656 663.652344 203.792969 673.621094 214.867188 C 683.597656 225.9375 703.53125 254.703125 699.09375 264.660156 Z M 699.09375 264.660156 " fill-opacity="1" fill-rule="nonzero"/></g><path fill="#f4af14" d="M 87.171875 377.6875 C 96.175781 380.613281 111.566406 371.71875 116.847656 368.40625 C 117.007812 368.304688 117.164062 368.21875 117.3125 368.117188 C 117.574219 367.945312 117.804688 367.785156 118.003906 367.671875 C 118.179688 367.546875 118.328125 367.449219 118.449219 367.375 C 118.539062 367.320312 118.617188 367.265625 118.699219 367.203125 C 118.699219 367.203125 141.597656 374.996094 152.398438 355.542969 C 152.398438 355.542969 151.347656 355.882812 149.582031 356.292969 C 144.25 357.570312 132.453125 359.566406 124.449219 355.039062 C 113.808594 349.011719 113.671875 339.492188 109.394531 337.875 C 105.128906 336.265625 48.039062 333.085938 40.894531 337.566406 C 33.75 342.042969 61.199219 352.972656 61.199219 352.972656 C 61.199219 352.972656 60.496094 357.863281 65.332031 362.558594 C 70.160156 367.257812 80.316406 366.214844 80.316406 366.214844 C 80.316406 366.214844 76.179688 374.117188 87.171875 377.6875 Z M 87.171875 377.6875 " fill-opacity="1" fill-rule="nonzero"/><path fill="#e6a10c" d="M 102.984375 344.210938 C 104.980469 344.246094 108.160156 355.203125 121.429688 360.355469 C 134.707031 365.507812 149.765625 356.410156 149.765625 356.410156 C 149.765625 356.410156 149.703125 356.367188 149.578125 356.296875 C 144.246094 357.574219 132.453125 359.570312 124.445312 355.039062 C 113.804688 349.015625 113.667969 339.496094 109.390625 337.878906 C 105.125 336.269531 48.035156 333.089844 40.890625 337.566406 C 40.890625 337.566406 42.671875 340.820312 48.171875 342.609375 C 53.675781 344.402344 100.992188 344.171875 102.984375 344.210938 Z M 102.984375 344.210938 " fill-opacity="1" fill-rule="nonzero"/><path fill="#ffd554" d="M 87.171875 377.6875 C 96.175781 380.613281 111.566406 371.71875 116.847656 368.40625 C 105.210938 375.136719 82.820312 375.003906 84.089844 369.5 C 85.394531 363.851562 98.355469 362.480469 99.089844 362.40625 C 98.007812 362.40625 65.367188 362.480469 67.707031 358.15625 C 70.097656 353.742188 91.738281 354.597656 85.292969 354.171875 C 78.851562 353.757812 61.199219 352.972656 61.199219 352.972656 C 61.199219 352.972656 60.496094 357.863281 65.332031 362.558594 C 70.160156 367.257812 80.316406 366.214844 80.316406 366.214844 C 80.316406 366.214844 76.179688 374.117188 87.171875 377.6875 Z M 87.171875 377.6875 " fill-opacity="1" fill-rule="nonzero"/><path fill="#fc914e" d="M 519.410156 251.105469 C 519.410156 254.703125 517.25 262.589844 516.980469 267.035156 C 512.261719 265.171875 490.523438 263.925781 486.832031 237.371094 C 484.851562 223.125 502.894531 235.410156 515.894531 245.128906 L 515.902344 245.140625 C 518.085938 247.867188 519.410156 250.066406 519.410156 251.105469 Z M 519.410156 251.105469 " fill-opacity="1" fill-rule="nonzero"/><path fill="#ffbd29" d="M 405.621094 676.011719 C 397.085938 673.574219 387.945312 667.363281 380.757812 660.09375 C 373.246094 652.511719 367.832031 643.789062 367.410156 637.003906 C 366.585938 623.734375 371.5625 622.898438 371.5625 622.898438 C 371.5625 622.898438 360.761719 606.296875 360.761719 593.851562 C 360.761719 581.398438 366.585938 584.726562 366.585938 584.726562 C 366.585938 584.726562 357.445312 570.621094 357.445312 560.652344 C 357.445312 550.691406 361.597656 543.230469 367.414062 549.871094 C 371.21875 554.214844 388.167969 572.40625 399.902344 586.320312 C 406.117188 593.6875 410.863281 599.851562 411.441406 602.148438 C 413.097656 608.789062 404.792969 622.074219 402.300781 639.496094 C 399.800781 656.929688 405.621094 676.011719 405.621094 676.011719 Z M 405.621094 676.011719 " fill-opacity="1" fill-rule="nonzero"/><path fill="#9c3119" d="M 554.394531 192.003906 C 553.984375 192.8125 553.320312 193.539062 552.550781 194.179688 C 550.1875 196.121094 546.824219 197.171875 546.824219 197.171875 C 546.824219 197.171875 549.320312 207.152344 542.207031 211.179688 C 535.386719 215.058594 520.433594 209.707031 520.433594 209.707031 L 514.4375 182.230469 C 514.4375 182.230469 539.347656 176.425781 544.335938 178.082031 C 544.355469 178.09375 544.367188 178.09375 544.390625 178.105469 C 549.359375 179.800781 556.042969 188.699219 554.394531 192.003906 Z M 554.394531 192.003906 " fill-opacity="1" fill-rule="nonzero"/><path fill="#f5833b" d="M 690.277344 276.125 C 678.699219 288.226562 658.210938 304.609375 639.019531 314.183594 C 616.605469 325.386719 581.613281 335.398438 569.855469 340.253906 C 567.667969 341.152344 566.28125 341.878906 565.929688 342.398438 C 565.886719 342.472656 565.835938 342.550781 565.789062 342.636719 C 565.734375 342.714844 565.679688 342.8125 565.640625 342.910156 C 565.378906 343.382812 565.097656 344.023438 564.804688 344.792969 C 564.738281 344.945312 564.671875 345.109375 564.617188 345.269531 C 564.117188 346.570312 563.554688 348.21875 562.9375 350.082031 C 560.5625 357.210938 557.277344 367.707031 552.917969 376.417969 C 546.269531 389.703125 526.324219 417.363281 523.007812 425.109375 C 521.132812 429.488281 511.132812 445.5 502.785156 458.621094 C 502.785156 458.609375 502.792969 458.589844 502.792969 458.574219 C 515.253906 410.445312 481.476562 393.015625 473.167969 391.355469 C 464.863281 389.699219 455.503906 389.003906 441.332031 394.671875 C 415.03125 405.1875 383.183594 464.382812 383.183594 464.382812 L 374.609375 456.082031 C 385.679688 432.851562 386.515625 383.890625 386.515625 383.890625 C 409.773438 388.042969 447.476562 387.660156 456.003906 380.847656 C 461.542969 376.417969 467.082031 358.992188 468.742188 361.484375 C 470.398438 363.976562 468.746094 381.402344 472.0625 383.0625 C 475.390625 384.71875 527.996094 396.34375 542.386719 383.0625 C 561.09375 365.8125 552.914062 317.5 554.570312 319.992188 C 556.230469 322.484375 569.242188 326.625 569.242188 326.625 C 570.902344 324.140625 603.292969 319.992188 634.027344 304.21875 C 650.675781 295.679688 682.253906 280.078125 690.277344 276.125 Z M 690.277344 276.125 " fill-opacity="0.35" fill-rule="nonzero"/><path fill="#f58a20" d="M 545.71875 377.523438 L 543.644531 392.128906 L 543.636719 392.195312 C 543.636719 392.183594 543.625 392.171875 543.625 392.160156 C 531.554688 364.230469 478.710938 340.457031 478.710938 340.457031 C 478.710938 340.457031 468.746094 356.503906 459.332031 355.398438 C 449.921875 354.292969 448.8125 343.773438 448.8125 343.773438 C 448.8125 343.773438 439.953125 349.308594 427.765625 352.628906 C 422.300781 354.125 409.691406 355.726562 397.292969 356.386719 C 391.308594 356.699219 385.367188 356.808594 380.3125 356.570312 C 372.539062 356.203125 366.855469 355.035156 366.304688 352.628906 C 364.644531 345.445312 367.410156 342.667969 367.410156 342.667969 L 353.421875 344.480469 C 356.792969 337.882812 359.101562 333.265625 359.101562 333.265625 C 360.003906 331.890625 360.980469 330.6875 362.03125 329.648438 L 378.210938 329.980469 L 400.503906 330.4375 L 403.949219 330.503906 L 471.507812 332.160156 L 499.75 338.800781 L 525.222656 352.625 Z M 545.71875 377.523438 " fill-opacity="0.22" fill-rule="nonzero"/><path fill="#822510" d="M 554.394531 192.003906 C 553.984375 192.8125 553.320312 193.539062 552.550781 194.179688 C 552.703125 191.871094 552.09375 187.613281 544.613281 190.527344 C 535.023438 194.246094 536.359375 207.507812 536.476562 208.535156 L 531.316406 182.78125 C 531.316406 182.78125 537.894531 180.332031 544.382812 178.101562 C 549.359375 179.800781 556.042969 188.699219 554.394531 192.003906 Z M 554.394531 192.003906 " fill-opacity="1" fill-rule="nonzero"/><path fill="#ffbc91" d="M 472.066406 208.785156 C 466.402344 214.847656 471.238281 226.210938 482.035156 228.699219 C 482.035156 228.699219 482.3125 239.765625 489.789062 248.066406 C 497.265625 256.363281 521.351562 263.003906 528.550781 256.917969 C 533.125 253.054688 543.6875 238.109375 539.992188 224.09375 C 536.507812 210.855469 541.007812 190.527344 536.027344 184.71875 C 531.039062 178.90625 501.140625 188.039062 501.140625 188.039062 C 501.140625 188.039062 495.511719 214.226562 493.847656 216.714844 C 492.1875 219.203125 479.820312 200.484375 472.066406 208.785156 Z M 472.066406 208.785156 " fill-opacity="1" fill-rule="nonzero"/><path fill="#f4af14" d="M 459.605469 329.949219 C 457.449219 332.925781 454.476562 335.539062 450.902344 337.835938 C 436.390625 347.164062 412.167969 351.152344 393.980469 351.898438 C 380.414062 352.464844 370.222656 351.21875 369.90625 349.035156 C 369.070312 343.214844 379.046875 335.753906 379.046875 335.753906 C 366.585938 341.558594 336.679688 344.050781 334.183594 338.246094 C 331.703125 332.441406 339.175781 329.113281 339.175781 329.113281 C 325.878906 331.605469 305.945312 321.648438 307.609375 315.839844 C 309.265625 310.035156 323.394531 309.199219 323.394531 309.199219 C 300.972656 305.886719 279.367188 272.6875 287.675781 271.03125 C 295.984375 269.363281 319.242188 285.957031 345.824219 285.136719 C 351.777344 284.953125 357.515625 284.066406 362.894531 282.71875 C 376.4375 279.371094 387.664062 273.25 394.003906 268.667969 C 396.398438 266.945312 398.101562 265.4375 398.984375 264.386719 C 401.433594 261.441406 406.496094 259.652344 410.402344 259.207031 C 413.113281 258.894531 415.261719 259.21875 415.597656 260.238281 C 415.726562 260.628906 415.757812 261.484375 415.757812 262.710938 C 415.769531 269.375 415.042969 287.144531 425.558594 302.5625 C 435.070312 316.496094 451.988281 326.039062 457.679688 328.984375 C 458.902344 329.621094 459.605469 329.949219 459.605469 329.949219 Z M 459.605469 329.949219 " fill-opacity="1" fill-rule="nonzero"/><path fill="#c78900" d="M 503.488281 158.78125 C 502.15625 162.152344 498.359375 166.226562 494.433594 169.777344 C 489.5 174.253906 484.359375 177.90625 483.699219 178.351562 C 483.253906 178.640625 481.054688 178.632812 478.039062 178.445312 C 473.355469 178.164062 466.71875 177.480469 461.75 176.929688 C 457.792969 176.496094 454.898438 176.140625 454.898438 176.140625 C 454.898438 176.140625 454.554688 174.277344 453.996094 171.339844 C 452.070312 161.035156 447.695312 137.597656 447.695312 136.3125 C 447.695312 135.671875 449.625 131.003906 452.035156 125.476562 C 453.054688 124.601562 454.191406 123.785156 455.449219 123.03125 C 468.496094 115.207031 483.832031 113.917969 494.921875 115.304688 C 486.136719 116.179688 471.929688 118.152344 469.296875 121.921875 C 465.414062 127.460938 490.886719 124.136719 493.109375 123.582031 C 495.320312 123.03125 460.988281 137.96875 461.542969 147.371094 C 462.09375 156.777344 480.367188 145.160156 482.027344 144.601562 C 483.695312 144.046875 473.722656 151.796875 472.617188 154.570312 C 471.519531 157.300781 484.480469 148.699219 499.195312 152.214844 C 500.335938 154.71875 501.972656 156.996094 503.488281 158.78125 Z M 503.488281 158.78125 " fill-opacity="1" fill-rule="nonzero"/><path fill="#ffb715" d="M 552.746094 384.695312 C 550.140625 389.691406 543.636719 392.195312 543.636719 392.195312 C 543.636719 392.195312 539.882812 382.421875 530.796875 370.730469 C 530.339844 370.132812 529.867188 369.539062 529.375 368.933594 C 520.949219 358.5625 508.394531 347.023438 490.640625 339.550781 C 485.207031 337.253906 479.296875 335.355469 472.871094 333.980469 C 469.941406 333.351562 466.90625 332.832031 463.757812 332.445312 L 467.089844 329.117188 C 467.089844 329.117188 469.292969 329.34375 473 329.941406 C 490.046875 332.695312 538.976562 343.355469 552.921875 376.421875 C 554.292969 379.691406 553.914062 382.445312 552.746094 384.695312 Z M 552.746094 384.695312 " fill-opacity="1" fill-rule="nonzero"/><path fill="#f5833b" d="M 409.183594 475.1875 C 409.183594 475.1875 431.5 471.730469 435.554688 468.925781 C 439.609375 466.117188 447.695312 436.5625 447.601562 433.90625 C 447.503906 431.25 430.964844 433.613281 430.875 430.957031 C 430.777344 428.300781 451.308594 421.355469 451.308594 421.355469 C 451.308594 421.355469 456.613281 406.980469 458.941406 402.460938 C 461.273438 397.941406 457.949219 421.121094 457.949219 421.121094 C 457.949219 421.121094 469.085938 430.480469 470.84375 433.074219 C 472.601562 435.671875 458.265625 429.976562 456.730469 433.578125 C 455.195312 437.179688 445.421875 465.910156 448.003906 468.480469 C 450.59375 471.046875 481.367188 471.722656 481.367188 471.722656 L 435.578125 492.867188 Z M 409.183594 475.1875 " fill-opacity="0.25" fill-rule="nonzero"/><path fill="#e8a40a" d="M 263.621094 576.394531 C 262.636719 576.882812 261.582031 577.109375 260.542969 577.109375 C 257.925781 577.109375 255.421875 575.648438 254.195312 573.148438 L 252.460938 569.582031 L 138.265625 335.164062 L 132.375 323.074219 C 130.671875 319.574219 132.136719 315.359375 135.628906 313.660156 C 139.128906 311.957031 143.347656 313.410156 145.050781 316.910156 L 266.871094 566.984375 C 268.574219 570.480469 267.125 574.695312 263.621094 576.394531 Z M 263.621094 576.394531 " fill-opacity="1" fill-rule="nonzero"/><path fill="#e8a40a" d="M 180.925781 390.539062 L 183.894531 396.636719 C 183.441406 396.65625 183.03125 396.691406 182.660156 396.703125 C 180.328125 396.796875 177.84375 396.960938 175.261719 397.113281 C 173.773438 398.816406 172.300781 400.503906 170.914062 402.183594 L 168.605469 397.4375 L 167.152344 394.46875 L 164.386719 388.792969 L 138.265625 335.160156 L 132.375 323.070312 C 130.671875 319.570312 132.136719 315.359375 135.628906 313.65625 C 139.128906 311.953125 143.347656 313.40625 145.050781 316.90625 L 176.660156 381.785156 L 179.964844 388.589844 Z M 180.925781 390.539062 " fill-opacity="1" fill-rule="nonzero"/><path fill="#e8a40a" d="M 196.683594 455.082031 C 197.160156 455.40625 197.648438 455.71875 198.136719 456.023438 C 198.058594 456.542969 197.984375 457.0625 197.894531 457.574219 Z M 196.683594 455.082031 " fill-opacity="1" fill-rule="nonzero"/><path fill="#e8a40a" d="M 208.414062 446.972656 L 211.234375 452.75 C 210.636719 452.445312 210.050781 452.132812 209.464844 451.816406 C 209.03125 451.578125 208.574219 451.34375 208.125 451.09375 C 208.265625 449.714844 208.371094 448.339844 208.414062 446.972656 Z M 208.414062 446.972656 " fill-opacity="1" fill-rule="nonzero"/><path fill="#e8a40a" d="M 244.007812 520.042969 C 240.925781 517.941406 237.339844 517.023438 233.554688 516.359375 C 232.144531 518.789062 230.863281 521.3125 230.265625 524 L 227.699219 518.734375 L 225.941406 515.144531 L 222.816406 508.71875 C 225.523438 509.628906 228.289062 510.226562 231.070312 510.832031 C 232.511719 507.636719 233.890625 504.507812 234.855469 501.242188 L 238.207031 508.113281 L 240.839844 513.519531 Z M 244.007812 520.042969 " fill-opacity="1" fill-rule="nonzero"/><path fill="#f4af14" d="M 552.507812 182.640625 C 538.214844 185.96875 518.097656 192.390625 498.75 199.035156 C 475.9375 206.867188 454.171875 215.027344 444.214844 218.796875 C 441.144531 219.957031 438 217.269531 438.695312 214.0625 C 440.007812 207.960938 444.375 206.023438 444.375 206.023438 C 444.375 206.023438 444.257812 201.59375 445.90625 195.1875 C 447.066406 190.691406 449.105469 185.222656 452.683594 179.628906 C 457.226562 172.535156 464.253906 165.253906 475.105469 159.542969 C 490.667969 151.359375 505.621094 154.472656 516.78125 159.738281 C 528.277344 165.144531 535.75 172.824219 535.75 172.824219 C 535.75 172.824219 544.054688 170.332031 549.867188 172.824219 C 551.386719 173.476562 552.785156 174.351562 554.03125 175.28125 C 556.855469 177.417969 555.941406 181.839844 552.507812 182.640625 Z M 552.507812 182.640625 " fill-opacity="1" fill-rule="nonzero"/><path fill="#ffbc91" d="M 581.707031 561.488281 C 576.71875 577.25 423.894531 691.785156 421.402344 695.933594 C 418.90625 700.082031 410.601562 725.804688 410.601562 731.613281 C 410.601562 737.417969 420.566406 757.34375 421.402344 762.320312 C 422.226562 767.304688 420.566406 773.945312 418.082031 776.425781 C 415.589844 778.917969 385.683594 757.34375 380.703125 748.210938 C 375.714844 739.089844 377.375 724.148438 374.054688 713.355469 C 372.464844 708.164062 369.511719 702.964844 366.890625 698.425781 C 364.058594 693.527344 361.597656 689.386719 361.597656 686.800781 C 361.597656 682.328125 381.054688 674.503906 389.207031 671.761719 C 390.128906 671.445312 390.910156 671.210938 391.496094 671.035156 C 391.496094 671.035156 459.605469 582.234375 469.574219 572.277344 C 469.574219 572.277344 464.945312 572.675781 459.835938 572.796875 C 454.585938 572.90625 448.839844 572.710938 447.148438 571.441406 C 444.09375 569.144531 472.859375 510.996094 477.304688 502.058594 C 477.675781 501.3125 477.882812 500.910156 477.882812 500.910156 L 481.875 499.394531 L 519.414062 485.136719 C 519.414062 485.136719 529.878906 489.035156 541.828125 494.269531 L 541.839844 494.269531 C 553.941406 499.578125 567.5625 506.277344 573.40625 511.691406 C 585.027344 522.480469 586.6875 545.722656 581.707031 561.488281 Z M 581.707031 561.488281 " fill-opacity="1" fill-rule="nonzero"/><path fill="#ffd659" d="M 399.898438 586.320312 C 391.984375 578.203125 374.761719 561.085938 369.066406 559.828125 C 361.714844 558.195312 384.945312 600.007812 385.65625 601.292969 C 385.117188 600.523438 373.96875 584.953125 370.738281 593.851562 C 367.503906 602.714844 390.105469 637.386719 391.425781 639.410156 C 390.507812 638.382812 381.277344 628.261719 376.550781 635.347656 C 373.144531 640.453125 377.101562 652.144531 380.757812 660.09375 C 373.246094 652.511719 367.832031 643.789062 367.410156 637.003906 C 366.582031 623.734375 371.5625 622.898438 371.5625 622.898438 C 371.5625 622.898438 360.761719 606.296875 360.761719 593.851562 C 360.761719 581.398438 366.585938 584.726562 366.585938 584.726562 C 366.585938 584.726562 357.445312 570.621094 357.445312 560.652344 C 357.445312 550.691406 361.597656 543.230469 367.414062 549.871094 C 371.214844 554.214844 388.164062 572.40625 399.898438 586.320312 Z M 399.898438 586.320312 " fill-opacity="1" fill-rule="nonzero"/><path fill="#f5833b" d="M 389.207031 671.761719 C 381.488281 684.773438 372.464844 693.65625 366.890625 698.425781 C 364.058594 693.527344 361.597656 689.386719 361.597656 686.800781 C 361.597656 682.328125 381.050781 674.503906 389.207031 671.761719 Z M 389.207031 671.761719 " fill-opacity="0.35" fill-rule="nonzero"/><path fill="#d49300" d="M 263.621094 576.394531 C 262.636719 576.882812 261.582031 577.109375 260.542969 577.109375 C 257.925781 577.109375 255.421875 575.648438 254.195312 573.148438 L 252.460938 569.582031 C 255.195312 568.988281 257.777344 567.492188 257.777344 563.984375 C 257.777344 556.515625 150.628906 339.074219 146.476562 335.761719 C 144.15625 333.910156 140.78125 334.382812 138.265625 335.164062 L 132.375 323.074219 C 130.671875 319.574219 132.136719 315.359375 135.628906 313.660156 C 139.128906 311.957031 143.347656 313.410156 145.050781 316.910156 L 266.871094 566.984375 C 268.574219 570.480469 267.125 574.695312 263.621094 576.394531 Z M 263.621094 576.394531 " fill-opacity="1" fill-rule="nonzero"/><path fill="#f4af14" d="M 213.46875 312.796875 C 210.746094 321.855469 194.664062 329.425781 188.929688 331.878906 C 188.753906 331.953125 188.59375 332.03125 188.429688 332.09375 C 188.136719 332.214844 187.878906 332.308594 187.667969 332.410156 C 187.464844 332.484375 187.296875 332.550781 187.167969 332.605469 C 187.074219 332.648438 186.984375 332.679688 186.886719 332.714844 C 186.886719 332.714844 180.25 355.953125 158.097656 353.742188 C 158.097656 353.742188 158.972656 353.074219 160.320312 351.855469 C 164.40625 348.203125 172.769531 339.65625 173.605469 330.503906 C 174.710938 318.335938 166.957031 312.796875 168.0625 308.367188 C 169.171875 303.949219 199.078125 255.253906 206.832031 251.941406 C 214.585938 248.625 207.9375 277.394531 207.9375 277.394531 C 207.9375 277.394531 212.363281 279.605469 213.46875 286.246094 C 214.585938 292.886719 207.9375 300.632812 207.9375 300.632812 C 207.9375 300.632812 216.796875 301.738281 213.46875 312.796875 Z M 213.46875 312.796875 " fill-opacity="1" fill-rule="nonzero"/><path fill="#e6a10c" d="M 176.925781 306.707031 C 175.816406 308.363281 183.019531 317.214844 179.699219 331.054688 C 176.367188 344.890625 160.308594 352.074219 160.308594 352.074219 C 160.308594 352.074219 160.308594 351.996094 160.320312 351.855469 C 164.40625 348.203125 172.769531 339.65625 173.605469 330.503906 C 174.710938 318.335938 166.957031 312.796875 168.0625 308.367188 C 169.171875 303.949219 199.078125 255.253906 206.832031 251.941406 C 206.832031 251.941406 208.488281 255.253906 206.832031 260.792969 C 205.171875 266.324219 178.03125 305.050781 176.925781 306.707031 Z M 176.925781 306.707031 " fill-opacity="1" fill-rule="nonzero"/><path fill="#ffd554" d="M 213.46875 312.796875 C 210.746094 321.855469 194.664062 329.425781 188.929688 331.878906 C 201.097656 326.160156 213.738281 307.695312 208.492188 305.605469 C 203.105469 303.457031 194.589844 313.316406 194.113281 313.882812 C 194.730469 312.992188 213.382812 286.230469 208.492188 285.691406 C 203.503906 285.140625 191.878906 303.398438 195.199219 297.859375 C 198.53125 292.332031 207.941406 277.390625 207.941406 277.390625 C 207.941406 277.390625 212.363281 279.601562 213.472656 286.242188 C 214.589844 292.882812 207.941406 300.628906 207.941406 300.628906 C 207.941406 300.628906 216.796875 301.738281 213.46875 312.796875 Z M 213.46875 312.796875 " fill-opacity="1" fill-rule="nonzero"/><path fill="#ffd554" d="M 165.429688 409.539062 C 162.644531 413.90625 161.125 418.53125 167.347656 420.125 C 171.21875 421.121094 175.296875 419.996094 179.199219 419.195312 L 182.039062 425.035156 L 183.882812 428.792969 C 182.960938 428.824219 182.039062 428.890625 181.136719 428.976562 C 174.351562 429.617188 167.929688 431.382812 161.273438 427.699219 C 154.070312 423.722656 152.578125 416.128906 156.066406 409 C 157.867188 405.316406 161.046875 401.480469 164.503906 397.515625 C 165.371094 396.507812 166.261719 395.488281 167.148438 394.46875 C 168.65625 392.75 170.152344 390.992188 171.570312 389.214844 C 173.5 386.789062 175.277344 384.308594 176.65625 381.785156 C 180.191406 375.335938 181.167969 368.609375 175.855469 361.652344 C 169.890625 353.839844 184.453125 344.78125 189.289062 353.808594 C 196.402344 367.089844 190.753906 378.144531 182.695312 388.339844 C 182.109375 389.074219 181.515625 389.8125 180.917969 390.539062 C 179.074219 392.757812 177.148438 394.945312 175.257812 397.113281 C 173.773438 398.816406 172.296875 400.507812 170.910156 402.183594 C 168.878906 404.644531 166.992188 407.09375 165.429688 409.539062 Z M 165.429688 409.539062 " fill-opacity="1" fill-rule="nonzero"/><path fill="#ffd554" d="M 196.28125 422.066406 L 195.425781 420.308594 C 196 420.582031 196.5625 420.886719 197.117188 421.21875 C 199.210938 422.488281 201.109375 424.210938 202.757812 426.453125 C 207.429688 432.824219 208.679688 439.792969 208.417969 446.972656 Z M 196.28125 422.066406 " fill-opacity="1" fill-rule="nonzero"/><path fill="#ffd554" d="M 258.957031 550.726562 L 256.613281 545.917969 C 255.097656 539.136719 252.796875 532.527344 249.597656 526.46875 C 248.046875 523.542969 246.152344 521.496094 244.003906 520.042969 C 240.921875 517.941406 237.335938 517.023438 233.550781 516.359375 C 232.042969 516.101562 230.488281 515.875 228.941406 515.636719 C 227.945312 515.484375 226.945312 515.320312 225.9375 515.148438 C 224.027344 514.804688 222.109375 514.367188 220.230469 513.753906 C 212.523438 511.214844 206.175781 506.546875 201.179688 500.1875 C 195.453125 492.90625 194.011719 484.050781 194.898438 474.992188 C 195.289062 470.984375 196.851562 464.464844 197.890625 457.574219 L 204.648438 471.429688 C 204.183594 474.203125 203.835938 476.945312 203.691406 479.621094 C 203.117188 490.476562 206.828125 499.675781 216.140625 505.625 C 218.289062 506.992188 220.523438 507.96875 222.808594 508.722656 C 225.519531 509.632812 228.285156 510.230469 231.0625 510.835938 C 232.765625 511.214844 234.457031 511.582031 236.136719 512.039062 C 237.71875 512.449219 239.28125 512.925781 240.832031 513.523438 C 241.332031 513.71875 241.828125 513.921875 242.328125 514.152344 C 250.453125 517.78125 253.617188 526.179688 255.90625 534.207031 C 257.460938 539.632812 258.457031 545.15625 258.957031 550.726562 Z M 258.957031 550.726562 " fill-opacity="1" fill-rule="nonzero"/><path fill="#ffd554" d="M 183.886719 428.792969 L 196.683594 455.078125 C 188.441406 449.617188 181.773438 442.640625 181.089844 432 C 181.023438 430.949219 181.046875 429.941406 181.144531 428.976562 C 181.285156 427.582031 181.589844 426.269531 182.046875 425.035156 Z M 183.886719 428.792969 " fill-opacity="1" fill-rule="nonzero"/><path fill="#ffd554" d="M 205.769531 411.882812 C 203.816406 415.261719 200.214844 418.121094 197.113281 421.21875 C 196.832031 421.492188 196.550781 421.769531 196.277344 422.066406 L 195.421875 420.308594 L 191.726562 412.703125 C 192.375 412.117188 193.039062 411.53125 193.6875 410.945312 C 196.421875 408.5 201.117188 403.914062 199.1875 399.808594 C 197.234375 395.636719 188.570312 396.351562 183.894531 396.632812 C 183.441406 396.65625 183.03125 396.6875 182.660156 396.699219 C 180.328125 396.796875 177.84375 396.960938 175.261719 397.109375 C 173.09375 397.238281 170.859375 397.359375 168.605469 397.433594 C 167.25 397.480469 165.871094 397.511719 164.507812 397.511719 C 151.746094 397.5 138.957031 395.0625 133.40625 382.339844 C 128.742188 371.648438 144.933594 365.851562 147.621094 376.359375 C 149.617188 384.140625 156.949219 387.652344 164.386719 388.789062 C 166.445312 389.101562 168.507812 389.242188 170.472656 389.234375 C 170.828125 389.234375 171.199219 389.222656 171.578125 389.210938 C 174.203125 389.136719 177.042969 388.855469 179.972656 388.582031 C 180.882812 388.496094 181.796875 388.40625 182.707031 388.332031 C 190.40625 387.714844 198.355469 387.671875 204.082031 392.246094 C 210.203125 397.132812 209.335938 405.683594 205.769531 411.882812 Z M 205.769531 411.882812 " fill-opacity="1" fill-rule="nonzero"/><path fill="#ffd554" d="M 247.453125 559.285156 C 242.585938 555.007812 238.171875 550.21875 234.289062 544.941406 C 228.324219 536.847656 224.085938 528.59375 227.699219 518.734375 C 227.761719 518.539062 227.839844 518.34375 227.914062 518.148438 C 228.25 517.300781 228.59375 516.46875 228.945312 515.636719 C 229.640625 514.007812 230.367188 512.417969 231.070312 510.835938 C 232.511719 507.636719 233.890625 504.507812 234.855469 501.246094 C 236.003906 497.390625 236.578125 493.324219 236.015625 488.746094 C 234.757812 478.496094 226.558594 471.777344 218.144531 466.945312 L 211.238281 452.753906 C 218.089844 456.359375 225.097656 459.675781 231.015625 464.769531 C 243.738281 475.6875 244.90625 493.675781 238.207031 508.117188 C 237.652344 509.320312 237.042969 510.488281 236.382812 511.640625 C 236.308594 511.769531 236.230469 511.910156 236.144531 512.039062 C 235.308594 513.460938 234.410156 514.890625 233.554688 516.363281 C 232.144531 518.792969 230.863281 521.316406 230.265625 524 C 230.265625 524 230.265625 524 230.265625 524.011719 C 230.039062 525.042969 229.910156 526.105469 229.910156 527.183594 C 229.921875 532.796875 233.359375 538.148438 236.1875 542.773438 C 238.964844 547.324219 242.128906 551.59375 245.644531 555.570312 Z M 247.453125 559.285156 " fill-opacity="1" fill-rule="nonzero"/><g clip-path="url(#b888b658cf)"><path fill="#ffbc91" d="M 442.992188 567.292969 C 441.734375 571.527344 440.128906 575.972656 438.234375 580.554688 C 434.871094 588.691406 430.621094 597.25 425.902344 605.820312 C 405.222656 643.386719 375.671875 681.035156 373.222656 683.488281 C 369.902344 686.800781 348.304688 707.550781 326.710938 734.105469 C 305.109375 760.660156 275.214844 831.207031 273.554688 835.359375 C 271.894531 839.507812 262.753906 871.871094 262.753906 881.828125 C 262.753906 891.789062 269.402344 909.21875 270.226562 915.851562 C 271.0625 922.492188 267.742188 930.792969 264.417969 930.792969 C 261.101562 930.792969 248.640625 921.671875 241.167969 911.703125 C 233.683594 901.742188 231.1875 888.472656 231.1875 877.679688 C 231.1875 866.890625 227.867188 864.410156 220.398438 853.617188 C 212.917969 842.828125 207.105469 836.1875 209.601562 827.886719 C 212.09375 819.585938 246.144531 817.105469 246.980469 812.957031 C 247.1875 811.925781 248.46875 805.75 250.441406 796.800781 C 251.046875 794.050781 251.707031 791.027344 252.433594 787.820312 C 254.667969 777.980469 257.414062 766.335938 260.351562 754.902344 C 265.878906 733.332031 272.105469 712.484375 276.875 705.898438 C 287.675781 690.960938 315.085938 676.015625 318.40625 664.402344 C 319.015625 662.269531 320.402344 657.855469 322.269531 652.0625 C 323.644531 647.78125 325.285156 642.742188 327.0625 637.328125 C 331.042969 625.160156 335.703125 611.054688 339.640625 599.167969 C 344.519531 584.433594 348.304688 573.109375 348.304688 573.109375 C 348.304688 573.109375 456.285156 522.480469 442.992188 567.292969 Z M 442.992188 567.292969 " fill-opacity="1" fill-rule="nonzero"/></g><path fill="#f5833b" d="M 530.761719 531.335938 C 507.503906 532.441406 469.570312 572.277344 469.570312 572.277344 C 469.570312 572.277344 464.941406 572.679688 459.832031 572.796875 C 454.582031 572.90625 448.839844 572.710938 447.144531 571.441406 C 444.089844 569.144531 472.855469 510.996094 477.304688 502.058594 C 478.832031 501.15625 480.363281 500.269531 481.867188 499.390625 L 519.410156 485.132812 C 519.410156 485.132812 529.871094 489.03125 541.824219 494.265625 C 499.476562 498.914062 481.03125 535.144531 473.765625 556.554688 C 503.382812 528.015625 530.761719 531.335938 530.761719 531.335938 Z M 530.761719 531.335938 " fill-opacity="0.35" fill-rule="nonzero"/><path fill="#f5833b" d="M 438.230469 580.554688 C 434.867188 588.691406 430.617188 597.25 425.898438 605.820312 C 415.074219 606.773438 385.789062 609.636719 376.816406 613.222656 C 365.746094 617.644531 366.851562 628.707031 356.886719 633.136719 C 350.671875 635.898438 336.695312 636.929688 327.054688 637.320312 C 331.035156 625.152344 335.695312 611.046875 339.632812 599.160156 L 411.148438 563.429688 Z M 438.230469 580.554688 " fill-opacity="0.35" fill-rule="nonzero"/><path fill="#f5833b" d="M 260.261719 823.730469 C 260.261719 823.730469 251.761719 815.917969 250.433594 796.796875 C 252.894531 785.589844 256.441406 770.054688 260.347656 754.898438 C 263.871094 757.410156 269.898438 762.578125 271.058594 768.960938 C 272.71875 778.09375 260.261719 823.730469 260.261719 823.730469 Z M 260.261719 823.730469 " fill-opacity="0.35" fill-rule="nonzero"/><path fill="#fcf1dc" d="M 541.835938 494.265625 C 541.835938 494.265625 518.585938 483.476562 484.527344 516.671875 C 450.476562 549.867188 454.628906 584.722656 438.839844 592.191406 C 423.0625 599.65625 379.046875 588.875 366.585938 611.28125 C 354.125 633.6875 314.253906 627.046875 314.253906 627.046875 C 314.253906 627.046875 327.546875 602.984375 330.03125 581.398438 C 331.074219 572.441406 328.664062 562.472656 325.910156 552.875 C 322.050781 539.363281 317.507812 526.578125 320.902344 518.332031 C 326.710938 504.226562 335.855469 494.269531 335.855469 494.269531 C 339.253906 486.609375 343.015625 480.28125 346.851562 475.074219 C 360.871094 456.035156 375.71875 451.941406 375.71875 451.941406 C 403.957031 478.507812 480.375 468.539062 480.375 468.539062 C 480.375 468.539062 531.046875 466.058594 536.027344 473.523438 C 541.011719 480.984375 541.835938 494.265625 541.835938 494.265625 Z M 541.835938 494.265625 " fill-opacity="1" fill-rule="nonzero"/><path fill="#ffcb2e" d="M 261.929688 777.257812 C 256.941406 790.539062 256.941406 816.261719 256.941406 816.261719 C 253.871094 817.074219 250.769531 817.488281 247.691406 817.53125 C 245.152344 817.574219 242.636719 817.378906 240.164062 816.980469 C 221.351562 813.902344 205.257812 798.980469 204.609375 788.050781 C 203.804688 774.269531 210.917969 777.910156 211.246094 778.082031 C 210.800781 777.628906 200.402344 767.054688 197.972656 755.675781 C 195.53125 744.324219 205.789062 747.25 206.257812 747.378906 C 206.125 747.183594 205.03125 745.734375 196.304688 734.105469 C 186.335938 720.824219 191.324219 678.503906 209.597656 712.535156 C 214.820312 722.265625 221.742188 730.632812 228.855469 737.945312 C 231.761719 740.9375 234.691406 743.742188 237.550781 746.386719 C 252.179688 759.914062 264.898438 769.328125 261.929688 777.257812 Z M 261.929688 777.257812 " fill-opacity="1" fill-rule="nonzero"/><path fill="#ffbc91" d="M 198.523438 457.199219 C 201 452.25 206.277344 440.601562 206.828125 437.28125 C 207.382812 433.960938 212.363281 436.726562 215.132812 444.476562 C 217.902344 452.222656 209.042969 463.839844 209.042969 463.839844 C 209.042969 463.839844 219.007812 459.414062 222.332031 458.859375 C 225.65625 458.304688 227.867188 463.285156 228.976562 466.050781 C 230.082031 468.816406 227.867188 471.582031 227.867188 471.582031 C 227.867188 471.582031 230.082031 471.03125 232.300781 472.136719 C 234.511719 473.246094 236.175781 477.121094 236.730469 479.332031 C 237.285156 481.542969 234.515625 483.203125 234.515625 483.203125 C 234.515625 483.203125 238.390625 483.757812 240.050781 484.308594 C 241.714844 484.863281 241.714844 489.289062 242.265625 491.5 C 242.820312 493.710938 240.605469 495.371094 240.605469 495.371094 C 240.605469 495.371094 243.925781 495.925781 245.035156 497.585938 C 246.140625 499.246094 247.246094 502.566406 245.589844 504.222656 C 243.929688 505.882812 224.550781 513.074219 220.671875 513.074219 C 216.796875 513.074219 214.578125 508.09375 214.578125 508.09375 C 214.578125 508.09375 212.363281 509.753906 209.59375 506.433594 C 206.824219 503.113281 206.824219 498.6875 206.824219 498.6875 C 206.824219 498.6875 204.054688 498.132812 202.394531 494.816406 C 200.734375 491.492188 201.289062 487.066406 201.289062 487.066406 C 201.289062 487.066406 199.625 484.855469 196.859375 479.875 C 194.09375 474.902344 196.859375 460.515625 198.523438 457.199219 Z M 198.523438 457.199219 " fill-opacity="1" fill-rule="nonzero"/><path fill="#de9900" d="M 473.171875 175.035156 C 468.257812 188.132812 453.328125 193.359375 445.910156 195.1875 C 447.070312 190.691406 449.109375 185.222656 452.6875 179.628906 Z M 473.171875 175.035156 " fill-opacity="1" fill-rule="nonzero"/><path fill="#e05e2b" d="M 475.648438 212.148438 C 477.78125 212.40625 479.765625 214.46875 481.121094 216.011719 C 482.917969 218.0625 484.28125 220.503906 485.097656 223.101562 C 485.414062 224.105469 483.886719 224.625 483.542969 223.625 C 482.742188 221.265625 481.691406 219.09375 480.152344 217.121094 C 478.789062 215.386719 476.710938 214.125 475.546875 212.304688 C 475.496094 212.222656 475.5625 212.136719 475.648438 212.148438 Z M 475.648438 212.148438 " fill-opacity="1" fill-rule="nonzero"/><path fill="#e05e2b" d="M 472.90625 217.324219 C 475.996094 215.457031 480.523438 217.148438 483.171875 219.066406 C 483.964844 219.640625 482.949219 220.820312 482.167969 220.21875 C 480.765625 219.136719 479.1875 218.375 477.445312 218.019531 C 475.957031 217.71875 474.457031 217.851562 472.96875 217.628906 C 472.824219 217.609375 472.789062 217.398438 472.90625 217.324219 Z M 472.90625 217.324219 " fill-opacity="1" fill-rule="nonzero"/><path fill="#4f1e20" d="M 539.207031 214.710938 C 539.347656 217.167969 538.375 219.21875 537.039062 219.296875 C 535.703125 219.371094 534.507812 217.445312 534.367188 214.988281 C 534.226562 212.535156 535.195312 210.480469 536.53125 210.40625 C 537.867188 210.332031 539.066406 212.257812 539.207031 214.710938 Z M 539.207031 214.710938 " fill-opacity="1" fill-rule="nonzero"/><path fill="#4f1e20" d="M 534.84375 215.453125 C 533.417969 213.183594 534.96875 210.347656 536.488281 208.59375 C 536.664062 208.398438 536.976562 208.386719 537.210938 208.449219 C 537.265625 208.460938 537.324219 208.480469 537.378906 208.492188 C 537.519531 208.53125 537.652344 208.679688 537.671875 208.824219 C 537.742188 209.378906 537.566406 209.53125 537.199219 209.90625 C 536.6875 210.425781 536.285156 211.007812 535.964844 211.664062 C 535.371094 212.871094 535.261719 214.160156 534.941406 215.449219 C 534.9375 215.496094 534.867188 215.488281 534.84375 215.453125 Z M 534.84375 215.453125 " fill-opacity="1" fill-rule="nonzero"/><path fill="#4f1e20" d="M 503.367188 207.261719 C 505.261719 203.65625 511.199219 204.324219 514.28125 205.675781 C 516.152344 206.496094 515.140625 209.785156 513.117188 209.15625 C 511.335938 208.601562 509.671875 208.238281 507.8125 208.035156 C 506.320312 207.871094 504.804688 207.925781 503.402344 207.351562 C 503.363281 207.34375 503.347656 207.292969 503.367188 207.261719 Z M 503.367188 207.261719 " fill-opacity="1" fill-rule="nonzero"/><path fill="#4f1e20" d="M 539.257812 203.671875 C 538.832031 203.792969 538.425781 203.949219 538.007812 204.09375 C 537.230469 204.363281 536.578125 204.769531 535.859375 205.136719 C 533.832031 206.175781 531.796875 203.382812 533.667969 202.019531 C 534.757812 201.226562 536.230469 201 537.609375 201.140625 C 538.1875 201.199219 538.875 201.390625 539.414062 201.671875 C 540.0625 202.019531 540.226562 203.40625 539.257812 203.671875 Z M 539.257812 203.671875 " fill-opacity="1" fill-rule="nonzero"/><path fill="#e05e2b" d="M 530.152344 216.226562 C 529.820312 217.203125 530.429688 218.828125 530.785156 219.746094 C 531.429688 221.410156 532.480469 222.425781 533.742188 223.601562 C 534.800781 224.585938 535.296875 225.582031 534.949219 227.03125 C 534.25 229.941406 530.40625 231.875 527.917969 229.816406 C 527.40625 229.390625 527.761719 228.617188 528.425781 228.777344 C 531.566406 229.519531 535.207031 228.082031 532.34375 224.175781 C 531.488281 223.011719 530.585938 222.277344 530.011719 220.90625 C 529.53125 219.75 528.554688 216.894531 530.070312 216.15625 C 530.117188 216.136719 530.171875 216.179688 530.152344 216.226562 Z M 530.152344 216.226562 " fill-opacity="1" fill-rule="nonzero"/><path fill="#e05e2b" d="M 510.433594 232.421875 C 512.664062 233.648438 514.632812 235.066406 517.15625 235.691406 C 518.476562 236.015625 519.8125 236.140625 521.167969 236.070312 C 521.738281 236.039062 522.515625 235.773438 523.089844 235.957031 C 522.8125 236.199219 522.535156 236.445312 522.261719 236.691406 C 522.253906 236.65625 522.246094 236.617188 522.234375 236.585938 C 522.445312 236.722656 522.652344 236.863281 522.863281 237 C 522.835938 237.003906 522.8125 237.011719 522.785156 237.019531 C 522.554688 237.082031 522.289062 236.894531 522.25 236.667969 C 522.246094 236.640625 522.238281 236.613281 522.234375 236.585938 C 522.1875 236.308594 522.359375 236.007812 522.648438 235.960938 C 522.6875 235.953125 522.726562 235.949219 522.757812 235.941406 C 522.960938 235.90625 523.234375 235.957031 523.363281 236.140625 C 523.367188 236.148438 523.378906 236.164062 523.386719 236.171875 C 523.660156 236.566406 523.691406 237.230469 523.144531 237.453125 C 519.101562 239.105469 512.214844 236.363281 510.207031 232.625 C 510.125 232.476562 510.304688 232.347656 510.433594 232.421875 Z M 510.433594 232.421875 " fill-opacity="1" fill-rule="nonzero"/><path fill="#4f1e20" d="M 515.519531 218.9375 C 515.671875 221.628906 514.613281 223.875 513.148438 223.957031 C 511.6875 224.042969 510.375 221.929688 510.222656 219.238281 C 510.070312 216.546875 511.128906 214.300781 512.59375 214.214844 C 514.054688 214.132812 515.367188 216.246094 515.519531 218.9375 Z M 515.519531 218.9375 " fill-opacity="1" fill-rule="nonzero"/><path fill="#4f1e20" d="M 512.703125 212.117188 C 511.425781 212.894531 510.785156 214.378906 510.453125 215.785156 C 510.195312 216.882812 509.675781 218.886719 510.683594 219.710938 C 510.851562 219.851562 511.128906 219.816406 511.292969 219.6875 C 512.109375 219.03125 511.824219 217.585938 511.945312 216.640625 C 512.140625 215.171875 512.871094 214.121094 513.441406 212.800781 C 513.617188 212.390625 513.113281 211.867188 512.703125 212.117188 Z M 512.703125 212.117188 " fill-opacity="1" fill-rule="nonzero"/><path fill="#ffbd29" d="M 472.566406 177.464844 C 468.378906 181.527344 458.78125 182.785156 458.78125 182.785156 C 451.667969 184.558594 445.300781 185.742188 439.632812 186.4375 C 415.492188 189.394531 403.597656 183.617188 397.773438 177.832031 C 393.035156 173.121094 392.328125 168.394531 392.328125 168.394531 C 383.316406 167.894531 377.929688 164.007812 374.726562 159.890625 C 370.847656 154.90625 370.175781 149.585938 370.175781 149.585938 C 348.03125 149.585938 335.855469 123.03125 342.492188 121.925781 C 345.386719 121.453125 354.039062 123.789062 365.632812 125.730469 C 380.683594 128.242188 400.6875 130.074219 419.460938 124.136719 C 428.898438 121.160156 437.167969 117.464844 443.820312 114.839844 C 443.828125 114.839844 443.828125 114.839844 443.828125 114.839844 C 451.832031 111.667969 457.457031 110.050781 459.886719 113.074219 C 464.3125 118.601562 456.558594 132.988281 457.675781 147.375 C 458.78125 161.753906 473.171875 169.5 473.171875 169.5 C 475.328125 172.910156 474.570312 175.511719 472.566406 177.464844 Z M 472.566406 177.464844 " fill-opacity="1" fill-rule="nonzero"/><path fill="#ffd24a" d="M 439.632812 186.433594 C 415.492188 189.390625 403.597656 183.613281 397.773438 177.828125 C 393.035156 173.117188 392.328125 168.390625 392.328125 168.390625 C 383.316406 167.890625 377.929688 164.003906 374.726562 159.886719 C 370.847656 154.902344 370.175781 149.585938 370.175781 149.585938 C 348.03125 149.585938 335.855469 123.03125 342.492188 121.921875 C 345.386719 121.449219 354.039062 123.785156 365.632812 125.726562 C 362.988281 126.539062 360.839844 127.796875 359.65625 129.671875 C 354.125 138.523438 385.683594 150.140625 385.683594 150.140625 C 385.683594 150.140625 382.917969 155.121094 388.457031 161.199219 C 393.988281 167.289062 405.621094 165.632812 405.621094 165.632812 C 405.621094 165.632812 402.292969 173.378906 418.355469 180.570312 C 427.007812 184.441406 434.535156 185.902344 439.632812 186.433594 Z M 439.632812 186.433594 " fill-opacity="1" fill-rule="nonzero"/><path fill="#eba815" d="M 374.726562 159.886719 C 370.847656 154.902344 370.175781 149.585938 370.175781 149.585938 C 370.175781 149.585938 402.296875 152.898438 425 137.417969 C 447.070312 122.355469 420.480469 162.714844 374.726562 159.886719 Z M 374.726562 159.886719 " fill-opacity="1" fill-rule="nonzero"/><path fill="#e6a10c" d="M 459.605469 329.949219 C 457.449219 332.925781 454.476562 335.539062 450.902344 337.835938 C 436.390625 347.164062 412.167969 351.152344 393.980469 351.898438 C 403.640625 348.660156 413.933594 342.949219 413.933594 333.261719 C 413.933594 316.035156 391.007812 296.597656 394.003906 268.664062 C 396.398438 266.941406 398.101562 265.4375 398.984375 264.386719 C 401.433594 261.4375 406.496094 259.648438 410.402344 259.207031 C 412.117188 260.171875 413.902344 261.351562 415.757812 262.703125 C 415.769531 269.367188 415.042969 287.136719 425.558594 302.554688 C 435.070312 316.488281 451.988281 326.03125 457.679688 328.980469 C 458.902344 329.621094 459.605469 329.949219 459.605469 329.949219 Z M 459.605469 329.949219 " fill-opacity="1" fill-rule="nonzero"/><path fill="#eba815" d="M 397.773438 177.828125 C 393.035156 173.117188 392.328125 168.390625 392.328125 168.390625 C 392.328125 168.390625 421.121094 163.417969 436.070312 147.371094 C 450.648438 131.726562 432.074219 170.257812 397.773438 177.828125 Z M 397.773438 177.828125 " fill-opacity="1" fill-rule="nonzero"/><path fill="#e6a30b" d="M 535.75 172.824219 C 535.75 172.824219 503.078125 182.785156 493.667969 187.203125 C 484.253906 191.636719 519.140625 173.378906 521.351562 168.394531 C 522.414062 166.023438 519.800781 162.628906 516.789062 159.738281 C 528.277344 165.144531 535.75 172.824219 535.75 172.824219 Z M 535.75 172.824219 " fill-opacity="1" fill-rule="nonzero"/><path fill="#ffc440" d="M 535.75 172.824219 C 535.75 172.824219 504.738281 184.992188 499.195312 191.632812 C 496.605469 194.742188 497.296875 197.242188 498.75 199.035156 C 475.9375 206.867188 454.171875 215.027344 444.214844 218.796875 C 441.144531 219.957031 438 217.269531 438.695312 214.0625 C 440.007812 207.960938 444.375 206.023438 444.375 206.023438 C 444.375 206.023438 521.363281 175.046875 535.75 172.824219 Z M 535.75 172.824219 " fill-opacity="1" fill-rule="nonzero"/><path fill="#f5833b" d="M 654.796875 251.105469 C 649.84375 250.488281 630.550781 252.644531 621.070312 253.78125 C 631.621094 250.035156 640.125 246.601562 639.855469 244.195312 C 639.34375 239.554688 606.738281 187.082031 600.394531 178.414062 C 608.246094 187.90625 660.957031 251.875 654.796875 251.105469 Z M 654.796875 251.105469 " fill-opacity="0.35" fill-rule="nonzero"/><path fill="#f5833b" d="M 413.929688 267.707031 C 413.929688 267.707031 462.101562 269.363281 466.253906 262.730469 C 467.660156 260.46875 469.855469 255.386719 472.121094 249.652344 C 471.199219 254.0625 469.839844 261.300781 470.40625 263.554688 C 471.242188 266.882812 480.375 280.15625 483.699219 281.8125 C 487.019531 283.480469 413.929688 267.707031 413.929688 267.707031 Z M 413.929688 267.707031 " fill-opacity="0.35" fill-rule="nonzero"/><path fill="#e8925a" d="M 517.191406 383.992188 C 517.75 386.015625 521.804688 386.660156 526.242188 385.433594 C 530.675781 384.207031 533.824219 381.570312 533.261719 379.550781 C 532.703125 377.527344 528.648438 376.886719 524.210938 378.109375 C 519.773438 379.332031 516.628906 381.96875 517.191406 383.992188 Z M 517.191406 383.992188 " fill-opacity="1" fill-rule="nonzero"/><path fill="#ffd966" d="M 552.746094 384.695312 C 552.160156 381.980469 549.914062 374.011719 542.941406 369.777344 C 538.171875 366.875 533.746094 368.640625 530.796875 370.734375 C 530.339844 370.136719 529.867188 369.542969 529.375 368.9375 C 531.347656 362.726562 532.183594 352.554688 519.691406 346.921875 C 508.902344 342.054688 497.984375 340.226562 490.640625 339.554688 C 485.207031 337.257812 479.296875 335.359375 472.871094 333.984375 L 473 329.941406 C 490.046875 332.695312 538.976562 343.355469 552.921875 376.421875 C 554.292969 379.691406 553.914062 382.445312 552.746094 384.695312 Z M 552.746094 384.695312 " fill-opacity="1" fill-rule="nonzero"/><path fill="#e8925a" d="M 394.082031 373.964844 C 393.371094 375.941406 396.308594 378.804688 400.636719 380.363281 C 404.96875 381.925781 409.058594 381.589844 409.773438 379.613281 C 410.484375 377.636719 407.546875 374.773438 403.21875 373.214844 C 398.886719 371.65625 394.796875 371.992188 394.082031 373.964844 Z M 394.082031 373.964844 " fill-opacity="1" fill-rule="nonzero"/><path fill="#ffd966" d="M 472.566406 177.464844 C 468.453125 176.433594 457.957031 172.488281 452.6875 158.4375 C 446.042969 140.730469 459.335938 122.476562 458.785156 116.9375 C 458.429688 113.332031 449.785156 113.960938 443.832031 114.835938 C 451.835938 111.664062 457.460938 110.046875 459.890625 113.070312 C 464.3125 118.597656 456.5625 132.984375 457.675781 147.371094 C 458.785156 161.75 473.175781 169.496094 473.175781 169.496094 C 475.328125 172.910156 474.570312 175.511719 472.566406 177.464844 Z M 472.566406 177.464844 " fill-opacity="1" fill-rule="nonzero"/><path fill="#ffc440" d="M 457.675781 328.984375 L 453.792969 330.773438 C 398.976562 313.351562 398.976562 264.386719 398.976562 264.386719 C 401.425781 261.441406 406.488281 259.652344 410.394531 259.207031 C 413.105469 258.894531 415.253906 259.21875 415.589844 260.238281 C 416.414062 262.730469 413.09375 284.300781 425.554688 302.558594 C 434.449219 315.589844 449.835938 324.792969 456.441406 328.332031 C 456.894531 328.570312 457.308594 328.789062 457.675781 328.984375 Z M 457.675781 328.984375 " fill-opacity="1" fill-rule="nonzero"/><path fill="#ffc440" d="M 451.296875 337.414062 L 450.898438 337.835938 C 425.585938 354.121094 370.628906 354.128906 369.902344 349.039062 C 369.066406 343.21875 379.046875 335.757812 379.046875 335.757812 C 366.582031 341.5625 336.675781 344.054688 334.183594 338.25 C 331.699219 332.445312 339.171875 329.117188 339.171875 329.117188 C 325.875 331.609375 305.941406 321.648438 307.605469 315.84375 C 309.261719 310.039062 323.394531 309.203125 323.394531 309.203125 C 300.96875 305.890625 279.367188 272.691406 287.675781 271.03125 C 295.980469 269.367188 319.238281 285.960938 345.820312 285.140625 C 351.777344 284.957031 357.511719 284.070312 362.890625 282.722656 C 355.289062 286.582031 342.058594 291.371094 325.878906 289.289062 C 300.136719 285.960938 316.199219 303.15625 333.632812 304.867188 C 355.703125 307.035156 381.3125 294.769531 382.335938 294.285156 C 381.28125 295.042969 352.046875 315.878906 330.03125 317.503906 C 307.609375 319.160156 345.820312 331.613281 383.191406 313.355469 C 383.191406 313.355469 373.269531 323.539062 362.035156 329.648438 C 350.800781 335.761719 378.203125 336.597656 398.96875 324.980469 C 398.492188 325.285156 383.171875 335.054688 381.53125 343.226562 C 379.871094 351.523438 431.367188 348.203125 451.296875 337.414062 Z M 451.296875 337.414062 " fill-opacity="1" fill-rule="nonzero"/><path fill="#ffdf7d" d="M 240.164062 816.980469 C 221.351562 813.902344 205.257812 798.984375 204.609375 788.050781 C 203.804688 774.269531 210.917969 777.910156 211.246094 778.082031 C 210.800781 777.628906 200.402344 767.054688 197.972656 755.675781 C 195.53125 744.324219 205.789062 747.25 206.257812 747.378906 C 206.125 747.183594 205.03125 745.734375 196.304688 734.105469 C 186.335938 720.824219 191.324219 678.503906 209.597656 712.535156 C 214.820312 722.265625 221.742188 730.632812 228.855469 737.945312 C 221.203125 731.507812 213.121094 724.085938 207.9375 717.511719 C 195.476562 701.746094 202.128906 739.070312 217.890625 752.355469 C 217.382812 752.03125 203.816406 743.472656 205.445312 755.683594 C 207.046875 767.699219 231.871094 790.550781 233.582031 792.132812 C 232.214844 791.148438 217.710938 780.941406 213.75 788.058594 C 209.78125 795.179688 227.03125 809.882812 240.164062 816.980469 Z M 240.164062 816.980469 " fill-opacity="1" fill-rule="nonzero"/><path fill="#fcf1dc" d="M 254.160156 814.847656 C 254.855469 819.25 258.347656 823.246094 261.226562 826.488281 C 264.5 830.175781 268.125 833.953125 272.28125 836.640625 C 275.289062 838.582031 278.8125 834.082031 276.132812 831.65625 C 272.609375 828.46875 268.714844 825.746094 265.257812 822.460938 C 262.207031 819.558594 259.226562 815.773438 255.394531 813.902344 C 254.699219 813.5625 254.046875 814.121094 254.160156 814.847656 Z M 254.160156 814.847656 " fill-opacity="1" fill-rule="nonzero"/><path fill="#f5833b" d="M 289.332031 731.613281 C 267.1875 752.640625 250.574219 811.277344 250.574219 811.277344 C 250.574219 811.277344 251.367188 801.398438 252.429688 787.8125 C 254.660156 777.972656 257.40625 766.328125 260.34375 754.898438 C 265.871094 733.328125 272.097656 712.480469 276.867188 705.890625 C 287.667969 690.953125 315.082031 676.011719 318.402344 664.394531 C 319.007812 662.261719 320.394531 657.851562 322.261719 652.054688 C 321.078125 660.375 319.65625 672.367188 320.34375 678.503906 C 321.449219 688.460938 339.167969 689.5625 342.488281 689.5625 C 345.816406 689.5625 311.488281 710.59375 289.332031 731.613281 Z M 289.332031 731.613281 " fill-opacity="0.35" fill-rule="nonzero"/><path fill="#fcf1dc" d="M 273.488281 833.957031 C 265.984375 838.816406 259.039062 844.898438 251.628906 850 C 243.832031 855.367188 235.25 859.84375 227.683594 865.480469 C 224.785156 867.640625 227.210938 872.054688 230.558594 870.394531 C 239.367188 866.019531 247.503906 859.148438 255.140625 852.996094 C 259.078125 849.820312 262.851562 846.46875 266.550781 843.023438 C 269.335938 840.429688 272.453125 837.839844 273.828125 834.214844 C 273.894531 834.03125 273.648438 833.855469 273.488281 833.957031 Z M 273.488281 833.957031 " fill-opacity="1" fill-rule="nonzero"/><path fill="#fcf1dc" d="M 272.617188 832.707031 C 266.554688 845.8125 263.800781 861.039062 259.796875 874.890625 C 255.542969 889.613281 251.105469 904.285156 247.019531 919.058594 C 246.050781 922.550781 251.265625 923.925781 252.410156 920.542969 C 257.324219 906.027344 261.367188 891.214844 265.035156 876.335938 C 268.46875 862.425781 273.179688 847.320312 273.421875 832.925781 C 273.425781 832.515625 272.800781 832.304688 272.617188 832.707031 Z M 272.617188 832.707031 " fill-opacity="1" fill-rule="nonzero"/><path fill="#fcf1dc" d="M 231.746094 891.839844 C 236.6875 891.78125 241.503906 890.175781 246.496094 890.097656 C 252.019531 890.011719 257.308594 890.957031 262.601562 892.449219 C 266.355469 893.507812 267.9375 887.722656 264.207031 886.621094 C 254.582031 883.785156 239.109375 883.472656 231.511719 891.273438 C 231.320312 891.480469 231.457031 891.84375 231.746094 891.839844 Z M 231.746094 891.839844 " fill-opacity="1" fill-rule="nonzero"/><path fill="#fcf1dc" d="M 394.691406 664.558594 C 395.355469 677.621094 407.515625 691.683594 418.203125 698.144531 C 421.265625 699.996094 424.960938 695.496094 422.117188 693.078125 C 417.210938 688.914062 412.417969 684.808594 408.410156 679.742188 C 404.414062 674.6875 401.9375 668.730469 398.101562 663.636719 C 397.117188 662.328125 394.585938 662.558594 394.691406 664.558594 Z M 394.691406 664.558594 " fill-opacity="1" fill-rule="nonzero"/><path fill="#fcf1dc" d="M 420.550781 697.046875 C 416.605469 696.921875 412.824219 698.820312 409.277344 700.394531 C 404.671875 702.4375 400.164062 704.75 395.78125 707.234375 C 391.402344 709.714844 387.125 712.386719 382.902344 715.125 C 379.671875 717.222656 376.035156 718.683594 374.816406 722.488281 C 374.445312 723.660156 375.441406 724.765625 376.582031 724.804688 C 380.765625 724.941406 384.0625 721.320312 387.414062 719.097656 C 391.347656 716.484375 395.363281 714.007812 399.402344 711.546875 C 403.429688 709.089844 407.480469 706.667969 411.523438 704.226562 C 414.792969 702.253906 418.398438 700.453125 420.75 697.390625 C 420.863281 697.246094 420.707031 697.050781 420.550781 697.046875 Z M 420.550781 697.046875 " fill-opacity="1" fill-rule="nonzero"/><path fill="#fcf1dc" d="M 378.539062 746.710938 C 383.964844 746.472656 389.273438 744.429688 394.636719 743.578125 C 401.0625 742.554688 407.429688 742.214844 413.925781 742.195312 C 417.71875 742.1875 417.722656 736.253906 413.925781 736.304688 C 407.359375 736.390625 400.695312 737.25 394.335938 738.890625 C 388.839844 740.308594 382.519531 741.960938 378.128906 745.710938 C 377.738281 746.042969 378.046875 746.734375 378.539062 746.710938 Z M 378.539062 746.710938 " fill-opacity="1" fill-rule="nonzero"/><path fill="#fcf1dc" d="M 395.816406 765.308594 C 399.417969 762.871094 401.285156 758.367188 403.722656 754.875 C 406.988281 750.191406 410.71875 745.886719 414.839844 741.9375 C 417.414062 739.464844 413.46875 735.519531 410.921875 738.023438 C 406.929688 741.945312 403.273438 746.179688 400.238281 750.886719 C 397.714844 754.808594 394.222656 759.859375 394.828125 764.738281 C 394.878906 765.1875 395.355469 765.617188 395.816406 765.308594 Z M 395.816406 765.308594 " fill-opacity="1" fill-rule="nonzero"/><path fill="#fcf1dc" d="M 419.183594 694.421875 C 415.296875 699.777344 414.550781 708.109375 413.3125 714.484375 C 411.875 721.867188 410.527344 729.277344 409.46875 736.722656 C 408.742188 741.808594 415.804688 742.828125 416.46875 737.671875 C 417.480469 729.839844 418.488281 722.015625 419.683594 714.210938 C 420.625 708.074219 422.800781 700.871094 421.457031 694.71875 C 421.210938 693.574219 419.761719 693.625 419.183594 694.421875 Z M 419.183594 694.421875 " fill-opacity="1" fill-rule="nonzero"/><path fill="#ffb715" d="M 261.929688 777.257812 C 256.941406 790.539062 256.941406 816.261719 256.941406 816.261719 C 253.871094 817.074219 250.769531 817.488281 247.691406 817.53125 C 238.503906 796.410156 248.609375 772.144531 247.800781 768.125 C 247.3125 765.675781 241.898438 754.84375 237.550781 746.378906 C 252.179688 759.914062 264.898438 769.328125 261.929688 777.257812 Z M 261.929688 777.257812 " fill-opacity="1" fill-rule="nonzero"/><path fill="#f0debb" d="M 541.835938 494.265625 C 541.835938 494.265625 518.585938 483.476562 484.527344 516.671875 C 450.476562 549.867188 454.628906 584.722656 438.839844 592.191406 C 423.0625 599.65625 379.046875 588.875 366.585938 611.28125 C 354.125 633.6875 314.253906 627.046875 314.253906 627.046875 C 314.253906 627.046875 327.546875 602.984375 330.03125 581.398438 C 331.074219 572.441406 328.664062 562.472656 325.910156 552.875 C 336.558594 569.09375 346.59375 615.964844 367.964844 599.941406 C 390.117188 583.339844 373.503906 471.585938 376.824219 479.332031 C 380.15625 487.078125 400.085938 543.515625 415.59375 522.484375 C 431.101562 501.464844 467.644531 479.332031 465.421875 483.761719 C 463.207031 488.179688 446.597656 503.675781 438.84375 526.914062 C 431.101562 550.144531 438.84375 573.386719 446.597656 566.742188 C 454.351562 560.101562 465.421875 501.460938 488.683594 488.179688 C 511.941406 474.90625 536.027344 473.523438 536.027344 473.523438 C 541.011719 480.984375 541.835938 494.265625 541.835938 494.265625 Z M 541.835938 494.265625 " fill-opacity="0.63" fill-rule="nonzero"/><path fill="#f0debb" d="M 360.207031 587.769531 C 354.679688 576.695312 335.851562 494.265625 335.851562 494.265625 C 339.246094 486.605469 343.007812 480.277344 346.84375 475.070312 C 351.207031 498.308594 365.21875 597.769531 360.207031 587.769531 Z M 360.207031 587.769531 " fill-opacity="0.63" fill-rule="nonzero"/><path fill="#fc914e" d="M 584.65625 123.03125 C 584.472656 121.753906 584.472656 120.027344 584.515625 118.609375 C 585.820312 119.597656 586.6875 120.265625 586.6875 120.265625 C 586.6875 120.265625 586.132812 122.292969 587.25 124.136719 C 588.359375 125.976562 594.257812 134.460938 594.625 136.683594 C 594.992188 138.890625 585.027344 125.605469 584.65625 123.03125 Z M 584.65625 123.03125 " fill-opacity="1" fill-rule="nonzero"/><path fill="#fc914e" d="M 578.011719 126.714844 C 576.9375 124.925781 568.511719 118.574219 567.394531 113.144531 C 568.671875 113.753906 569.515625 114.175781 569.515625 114.175781 C 569.515625 114.175781 570.265625 116.386719 572.476562 118.597656 C 574.691406 120.816406 578.378906 124.132812 579.859375 125.972656 C 581.335938 127.824219 585.761719 135.933594 586.128906 137.046875 C 586.5 138.152344 579.128906 128.566406 578.011719 126.714844 Z M 578.011719 126.714844 " fill-opacity="1" fill-rule="nonzero"/><path fill="#fc914e" d="M 554.574219 114.175781 C 554.574219 114.175781 555.496094 116.386719 558.082031 117.863281 C 560.664062 119.339844 565.09375 121.550781 567.3125 124.136719 C 569.523438 126.714844 576.585938 136.722656 576.585938 137.273438 C 576.585938 137.828125 567.171875 125.792969 566.203125 124.828125 C 565.234375 123.859375 556.65625 120.953125 554.574219 114.175781 Z M 554.574219 114.175781 " fill-opacity="1" fill-rule="nonzero"/><path fill="#fc914e" d="M 591.957031 160.375 C 591.957031 161.75 590.289062 161.199219 585.578125 158.71875 C 582.84375 157.277344 578.824219 156.289062 575.917969 155.726562 C 576.316406 155.628906 576.597656 155.421875 576.71875 155.121094 C 577.011719 154.394531 576.652344 152.769531 575.90625 150.699219 C 578.976562 151.804688 591.957031 158.988281 591.957031 160.375 Z M 591.957031 160.375 " fill-opacity="1" fill-rule="nonzero"/><path fill="#fc914e" d="M 227.867188 471.585938 C 227.867188 471.585938 214.027344 482.28125 210.703125 481.914062 C 207.382812 481.542969 227.867188 471.585938 227.867188 471.585938 Z M 227.867188 471.585938 " fill-opacity="1" fill-rule="nonzero"/><path fill="#fc914e" d="M 234.515625 483.203125 C 234.515625 483.203125 216.242188 497.03125 214.027344 495.558594 C 211.808594 494.082031 234.515625 483.203125 234.515625 483.203125 Z M 234.515625 483.203125 " fill-opacity="1" fill-rule="nonzero"/><path fill="#fc914e" d="M 240.609375 495.371094 C 240.609375 495.371094 223.628906 505.886719 221.042969 505.144531 C 218.457031 504.410156 240.609375 495.371094 240.609375 495.371094 Z M 240.609375 495.371094 " fill-opacity="1" fill-rule="nonzero"/><path fill="#f4af14" d="M 103.5625 315.859375 C 98.628906 303.925781 105.941406 288.992188 120.371094 282.027344 C 133.8125 275.53125 148.847656 278.183594 155.9375 287.703125 C 150.613281 295.425781 141.519531 303.011719 130.050781 308.550781 C 120.902344 312.96875 111.667969 315.386719 103.5625 315.859375 Z M 103.5625 315.859375 " fill-opacity="1" fill-rule="nonzero"/><path fill="#e6a10c" d="M 159.65625 296.53125 C 161.410156 307.511719 154.222656 319.742188 141.570312 325.863281 C 129.535156 331.671875 116.234375 330.164062 108.503906 322.960938 C 116.621094 322.484375 125.855469 320.066406 135.015625 315.648438 C 145.621094 310.519531 154.207031 303.648438 159.65625 296.53125 Z M 159.65625 296.53125 " fill-opacity="1" fill-rule="nonzero"/><path fill="#f4af14" d="M 155.9375 287.707031 C 150.613281 295.425781 141.519531 303.011719 130.050781 308.550781 C 120.90625 312.96875 111.667969 315.386719 103.5625 315.859375 C 98.628906 303.925781 105.941406 288.996094 120.371094 282.03125 C 133.8125 275.53125 148.847656 278.183594 155.9375 287.707031 Z M 155.9375 287.707031 " fill-opacity="1" fill-rule="nonzero"/><path fill="#ffcb2e" d="M 159.65625 296.53125 C 154.207031 303.648438 145.621094 310.519531 135.015625 315.648438 C 133.550781 316.359375 132.089844 317.011719 130.636719 317.609375 C 129.257812 314.515625 128.851562 311.628906 129.027344 309.042969 C 129.367188 308.882812 129.714844 308.710938 130.054688 308.550781 C 141.519531 303.011719 150.617188 295.425781 155.941406 287.707031 C 156.679688 288.714844 157.347656 289.800781 157.902344 290.957031 C 158.765625 292.742188 159.351562 294.628906 159.65625 296.53125 Z M 159.65625 296.53125 " fill-opacity="1" fill-rule="nonzero"/><path fill="#ffb817" d="M 155.9375 287.707031 C 150.613281 295.425781 141.519531 303.011719 130.050781 308.550781 C 125.578125 310.710938 121.082031 312.398438 116.699219 313.601562 C 116.699219 313.613281 116.699219 313.613281 116.691406 313.617188 C 112.128906 314.867188 107.703125 315.621094 103.5625 315.859375 C 98.628906 303.925781 105.941406 288.996094 120.371094 282.03125 C 124.472656 280.046875 128.722656 278.914062 132.847656 278.566406 C 142.246094 277.78125 151.011719 281.082031 155.9375 287.707031 Z M 155.9375 287.707031 " fill-opacity="1" fill-rule="nonzero"/><path fill="#e6a10c" d="M 155.9375 287.707031 C 150.613281 295.425781 141.519531 303.011719 130.050781 308.550781 C 125.578125 310.710938 121.082031 312.398438 116.699219 313.601562 C 123.859375 308.328125 143.136719 292.242188 132.847656 278.566406 C 142.246094 277.78125 151.011719 281.082031 155.9375 287.707031 Z M 155.9375 287.707031 " fill-opacity="1" fill-rule="nonzero"/><path fill="#ffd966" d="M 130.632812 317.609375 C 122.945312 320.785156 115.328125 322.554688 108.5 322.960938 C 106.671875 321.257812 105.15625 319.25 104.039062 316.9375 C 103.863281 316.582031 103.703125 316.222656 103.5625 315.859375 C 111.367188 315.410156 120.214844 313.148438 129.023438 309.046875 C 128.851562 311.628906 129.253906 314.515625 130.632812 317.609375 Z M 130.632812 317.609375 " fill-opacity="1" fill-rule="nonzero"/><path fill="#ffd966" d="M 456.613281 328.8125 C 456.613281 328.8125 409.355469 317.101562 410.394531 259.207031 C 413.105469 258.894531 415.253906 259.21875 415.589844 260.238281 C 416.414062 262.730469 413.09375 284.300781 425.554688 302.558594 C 434.449219 315.589844 449.835938 324.792969 456.441406 328.332031 C 456.558594 328.652344 456.613281 328.8125 456.613281 328.8125 Z M 456.613281 328.8125 " fill-opacity="1" fill-rule="nonzero"/><path fill="#ffb715" d="M 476.691406 333.753906 C 474.3125 343.398438 466.96875 349.882812 460.289062 348.234375 C 453.605469 346.59375 450.121094 337.441406 452.496094 327.796875 C 454.875 318.15625 462.21875 311.671875 468.898438 313.316406 C 475.578125 314.964844 479.066406 324.113281 476.691406 333.753906 Z M 476.691406 333.753906 " fill-opacity="1" fill-rule="nonzero"/><path fill="#eddcbb" d="M 472.574219 332.746094 C 471.003906 339.105469 466.152344 343.375 461.75 342.289062 C 458.671875 341.527344 456.621094 338.355469 456.210938 334.335938 C 456.027344 332.613281 456.144531 330.730469 456.613281 328.8125 C 458.183594 322.449219 463.023438 318.183594 467.4375 319.265625 C 468.617188 319.558594 469.660156 320.207031 470.480469 321.128906 C 472.789062 323.621094 473.710938 328.097656 472.574219 332.746094 Z M 472.574219 332.746094 " fill-opacity="1" fill-rule="nonzero"/><path fill="#fcf1dc" d="M 470.082031 326.65625 C 468.507812 333.015625 463.671875 337.292969 459.257812 336.199219 C 458.074219 335.90625 457.035156 335.257812 456.210938 334.335938 C 456.027344 332.613281 456.144531 330.730469 456.613281 328.8125 C 458.183594 322.449219 463.023438 318.183594 467.4375 319.265625 C 468.617188 319.558594 469.660156 320.207031 470.480469 321.128906 C 470.667969 322.851562 470.546875 324.738281 470.082031 326.65625 Z M 470.082031 326.65625 " fill-opacity="1" fill-rule="nonzero"/></svg>