<svg xmlns="http://www.w3.org/2000/svg" xmlns:xlink="http://www.w3.org/1999/xlink" width="1080" zoomAndPan="magnify" viewBox="0 0 810 1012.49997" height="1350" preserveAspectRatio="xMidYMid meet" version="1.0"><defs><filter x="0%" y="0%" width="100%" height="100%" id="41c85a951e"><feColorMatrix values="0 0 0 0 1 0 0 0 0 1 0 0 0 0 1 0 0 0 1 0" color-interpolation-filters="sRGB"/></filter><mask id="63f7056301"><g filter="url(#41c85a951e)"><rect x="-81" width="972" fill="#000000" y="-101.249997" height="1214.999964" fill-opacity="0.61"/></g></mask><clipPath id="376cfbc86b"><path d="M 1 0.0429688 L 27 0.0429688 L 27 37 L 1 37 Z M 1 0.0429688 " clip-rule="nonzero"/></clipPath><clipPath id="5d49684110"><rect x="0" width="28" y="0" height="38"/></clipPath></defs><path fill="#f06c24" d="M 620.175781 690.722656 L 187.519531 798.023438 C 187.519531 798.023438 140.566406 714.203125 145.589844 690.726562 C 150.625 667.257812 147.273438 653.847656 170.75 633.734375 C 181.621094 624.421875 207.195312 611.53125 235.199219 592.722656 C 267.730469 570.882812 303.535156 541.058594 323.355469 499.625 C 359.875 423.28125 317.511719 365.839844 316.660156 364.6875 C 316.648438 364.6875 316.648438 364.675781 316.648438 364.675781 L 316.667969 364.675781 L 334.757812 368.558594 L 539.6875 412.445312 L 546.832031 433.421875 L 566.515625 491.238281 C 555.273438 529.464844 557.597656 564.488281 565.675781 594.152344 C 581.65625 652.953125 620.175781 690.722656 620.175781 690.722656 Z M 620.175781 690.722656 " fill-opacity="1" fill-rule="nonzero"/><path fill="#e05e16" d="M 565.671875 594.148438 C 551.980469 581.195312 546.714844 523.226562 546.714844 514.765625 C 546.714844 506.285156 528.679688 510.53125 523.382812 537.03125 C 518.078125 563.53125 544.589844 615.46875 544.589844 615.46875 C 544.589844 615.46875 378.101562 557.167969 379.160156 551.875 C 380.226562 546.570312 373.863281 494.628906 360.074219 531.726562 C 346.285156 568.835938 304.925781 600.628906 304.925781 600.628906 C 304.925781 600.628906 302.808594 591.089844 327.199219 553.992188 C 351.589844 516.882812 357.953125 453.289062 330.386719 508.402344 C 307.40625 554.328125 252.789062 584.0625 235.199219 592.722656 C 267.730469 570.882812 303.535156 541.058594 323.355469 499.625 C 359.875 423.28125 317.511719 365.839844 316.660156 364.6875 L 316.667969 364.675781 L 320.832031 353.640625 C 320.832031 353.640625 326.875 360.074219 334.753906 368.554688 C 349.257812 384.167969 369.988281 406.703125 370.667969 408.757812 C 371.738281 411.941406 387.636719 462.824219 387.636719 462.824219 C 387.636719 462.824219 518.074219 441.617188 521.261719 439.5 C 523.164062 438.234375 536.453125 435.441406 546.828125 433.417969 L 566.511719 491.234375 C 555.269531 529.460938 557.597656 564.484375 565.671875 594.148438 Z M 565.671875 594.148438 " fill-opacity="1" fill-rule="nonzero"/><path fill="#d45006" d="M 640.144531 849.820312 C 640.144531 849.820312 640.144531 849.828125 640.132812 849.828125 C 613.777344 897.605469 571.550781 927.105469 571.550781 927.105469 C 576.574219 886.875 521.242188 846.644531 472.605469 863.40625 C 423.96875 880.167969 338.441406 962.304688 237.824219 938.835938 C 193.019531 928.394531 168.171875 904.964844 153.199219 879.242188 C 145.652344 866.277344 140.617188 852.722656 136.808594 839.957031 C 131.191406 821.15625 128.230469 804.0625 123.796875 792.988281 C 119.601562 782.492188 112.28125 775.445312 104.203125 770.710938 C 98.273438 767.246094 91.941406 765.03125 86.136719 763.613281 C 74.570312 760.789062 65.101562 761.140625 65.101562 761.140625 L 65.113281 761.113281 C 65.570312 759.691406 80.40625 713.976562 124.660156 685.441406 C 137.945312 676.878906 149.613281 670.382812 160.972656 665.007812 C 191.769531 650.421875 220.292969 644.03125 272.597656 626.609375 C 297.609375 618.273438 320.472656 604.730469 338.25 592.148438 C 360.9375 576.101562 375.347656 561.652344 375.347656 561.652344 C 375.347656 561.652344 467.574219 452.683594 480.988281 528.113281 C 494.40625 603.554688 610.117188 610.261719 652.046875 725.933594 C 669.339844 773.660156 658.667969 816.25 640.144531 849.820312 Z M 640.144531 849.820312 " fill-opacity="1" fill-rule="nonzero"/><path fill="#f7a76d" d="M 710.179688 445.976562 C 710.179688 445.976562 710.742188 457.148438 709.617188 462.742188 C 708.496094 468.324219 675.515625 515.265625 660.980469 531.464844 C 646.453125 547.675781 616.539062 561.84375 609.269531 563.527344 C 602.003906 565.199219 567.632812 518.050781 554.78125 496.828125 C 552.914062 493.746094 551.28125 490.777344 549.867188 487.953125 C 541.488281 471.300781 540.347656 459.636719 540.347656 459.636719 C 540.347656 459.636719 528.632812 488.75 524.441406 494.628906 C 520.246094 500.496094 503.976562 529.390625 503.230469 533.84375 C 501.808594 542.386719 501.339844 548.59375 501.183594 551.75 C 501.183594 551.820312 501.183594 551.898438 501.171875 551.96875 C 501.105469 553.371094 501.105469 554.105469 501.105469 554.105469 L 449.261719 571.753906 L 447.625 572.316406 L 422.300781 580.929688 L 388.761719 547.402344 C 388.761719 547.402344 390 545.160156 390.402344 539.007812 C 390.644531 535.300781 390.582031 530.164062 389.769531 523.246094 C 387.640625 505.230469 372.949219 485.246094 366.441406 463.882812 C 364.757812 458.363281 364.644531 432.265625 362.597656 420.910156 C 362.191406 418.6875 361.722656 417.027344 361.140625 416.199219 C 361.128906 416.1875 361.128906 416.179688 361.128906 416.179688 C 349.503906 399.65625 326.390625 379.671875 307.800781 362.828125 C 300.71875 356.421875 294.304688 350.464844 289.425781 345.324219 C 284.929688 340.589844 281.742188 336.554688 280.546875 333.492188 C 274.667969 318.40625 306.585938 243.125 306.585938 243.125 C 306.585938 243.125 311.558594 253.257812 317.914062 265.324219 C 320.761719 270.742188 323.894531 276.554688 326.976562 282.027344 C 331.929688 290.832031 336.769531 298.738281 340.125 302.640625 C 350.183594 314.371094 377.859375 329.460938 383.726562 334.488281 C 389.59375 339.523438 397.984375 347.066406 402.179688 348.738281 C 403.101562 349.113281 404.929688 349.269531 407.253906 349.28125 C 415.4375 349.308594 429.746094 347.339844 432.363281 345.390625 C 433.277344 344.703125 433.765625 343.011719 433.972656 340.917969 C 433.972656 340.90625 433.972656 340.90625 433.972656 340.894531 C 433.996094 340.664062 434.011719 340.4375 434.035156 340.207031 C 434.335938 335.765625 433.621094 329.921875 433.320312 327.78125 C 433.25 327.253906 433.195312 326.949219 433.195312 326.949219 L 439.59375 323.222656 L 482.113281 298.445312 C 482.113281 298.445312 482.011719 300.367188 481.832031 303.429688 C 481.335938 312.875 480.320312 333.210938 480.347656 342.050781 L 480.347656 342.082031 C 480.359375 343.378906 480.390625 344.429688 480.441406 345.15625 C 480.785156 349.527344 493.214844 354.789062 503.890625 359.574219 C 503.890625 359.574219 503.890625 359.574219 503.902344 359.574219 C 510.9375 362.730469 517.210938 365.675781 518.726562 368.023438 C 521.175781 371.8125 554.789062 368.855469 567.363281 378.078125 C 570.335938 380.261719 573.15625 383.921875 575.773438 388.335938 C 584.269531 402.585938 590.59375 424.519531 592.523438 428.371094 C 593.347656 430.011719 595.320312 433.511719 597.757812 437.789062 C 602.796875 446.628906 609.828125 458.761719 612.648438 464.414062 C 616.835938 472.796875 624.800781 492.335938 627.3125 495.6875 C 629.835938 499.035156 689.789062 459.386719 689.789062 459.386719 C 689.789062 459.386719 684.472656 458.265625 682.242188 456.582031 C 680.007812 454.910156 680.570312 450.996094 680.570312 450.996094 C 680.570312 450.996094 677.214844 452.117188 676.652344 447.644531 C 676.113281 443.304688 679.769531 439.507812 680 439.28125 C 679.8125 439.363281 677.714844 440.203125 676.652344 436.46875 C 675.53125 432.566406 677.761719 428.089844 677.761719 428.089844 C 677.761719 428.089844 672.738281 424.175781 673.859375 418.589844 C 674.96875 412.996094 700.128906 412.4375 705.15625 414.121094 C 710.191406 415.792969 709.070312 425.296875 709.070312 425.296875 C 709.070312 425.296875 712.421875 431.441406 710.191406 435.917969 C 710.179688 435.921875 712.414062 442.066406 710.179688 445.976562 Z M 710.179688 445.976562 " fill-opacity="1" fill-rule="nonzero"/><path fill="#f5833b" d="M 482.105469 298.449219 L 480.609375 304.167969 C 480.609375 304.167969 479.90625 317.941406 475.65625 323.246094 C 471.421875 328.550781 462.9375 326.773438 462.9375 326.773438 C 462.9375 326.773438 458.335938 338.085938 452.328125 340.914062 C 446.324219 343.734375 439.609375 337.03125 439.609375 337.03125 C 438.226562 338.214844 435.859375 339.386719 434.03125 340.203125 C 434.332031 335.761719 433.617188 329.917969 433.316406 327.777344 L 439.589844 323.21875 Z M 482.105469 298.449219 " fill-opacity="0.61" fill-rule="nonzero"/><path fill="#f7a76d" d="M 492.03125 292.679688 C 489 301.074219 477.628906 300.679688 477.628906 300.679688 L 474.277344 309.066406 L 463.667969 315.210938 L 431.800781 311.296875 L 423.414062 295.09375 C 423.414062 295.09375 427.890625 283.363281 429.570312 278.328125 C 430.273438 276.210938 430.378906 273.398438 430.285156 270.855469 C 430.128906 267.359375 429.570312 264.359375 429.570312 264.359375 L 456.128906 258.742188 L 458.628906 258.214844 C 458.628906 258.214844 459.011719 258.378906 459.699219 258.691406 C 465.355469 261.226562 491.734375 273.753906 492.730469 286.71875 C 492.917969 289.085938 492.636719 291.046875 492.03125 292.679688 Z M 492.03125 292.679688 " fill-opacity="1" fill-rule="nonzero"/><path fill="#f5833b" d="M 597.75 437.789062 C 597.683594 437.722656 597.613281 437.664062 597.542969 437.589844 C 567.785156 408.382812 526.300781 432.605469 508.007812 437.382812 C 489.710938 442.148438 473.800781 427.042969 473.800781 427.042969 C 473.800781 427.042969 467.851562 435.371094 462.128906 438.128906 C 463.425781 441.707031 465.140625 445.539062 467.175781 447.980469 C 472.480469 454.339844 524.441406 462.824219 530.804688 461.761719 C 537.160156 460.707031 541.40625 444.800781 543.523438 441.613281 C 545.238281 439.050781 544.179688 466.226562 549.867188 487.949219 C 541.488281 471.296875 540.347656 459.632812 540.347656 459.632812 C 540.347656 459.632812 528.632812 488.746094 524.441406 494.625 C 520.246094 500.492188 503.976562 529.386719 503.230469 533.839844 C 501.808594 542.382812 501.339844 548.589844 501.183594 551.746094 C 501.347656 542.777344 500.921875 510.332031 487.320312 490.382812 C 471.421875 467.058594 449.152344 464.941406 427.933594 476.597656 C 406.730469 488.269531 392.941406 538.089844 392.941406 538.089844 L 390.402344 539.003906 C 390.640625 535.296875 390.578125 530.160156 389.765625 523.246094 C 387.636719 505.226562 372.945312 485.242188 366.4375 463.878906 C 364.753906 458.359375 364.640625 432.261719 362.59375 420.910156 C 364.859375 428.214844 369.144531 441.742188 370.667969 444.804688 C 372.800781 449.039062 441.722656 452.226562 445.960938 449.039062 C 448.308594 447.273438 452.511719 442.667969 455.636719 438.257812 C 451.296875 436.109375 448.347656 430.222656 448.347656 430.222656 C 448.347656 430.222656 441.195312 434.199219 410.179688 427.847656 C 379.15625 421.484375 367.222656 389.679688 366.4375 370.601562 C 365.636719 351.515625 356.09375 318.917969 356.09375 318.917969 L 383.933594 342.773438 L 414.945312 405.582031 L 463.238281 415.027344 L 508.800781 401.605469 L 575.765625 388.339844 C 584.257812 402.589844 590.582031 424.523438 592.515625 428.375 C 593.335938 430.011719 595.308594 433.511719 597.75 437.789062 Z M 597.75 437.789062 " fill-opacity="0.61" fill-rule="nonzero"/><path fill="#f5833b" d="M 492.03125 292.679688 C 490.753906 284.300781 477.777344 286.851562 477.777344 286.851562 C 462.140625 286.851562 460.550781 272.800781 460.550781 272.800781 C 456.894531 273.410156 438.652344 271.699219 430.28125 270.859375 C 430.125 267.363281 429.566406 264.363281 429.566406 264.363281 L 456.125 258.746094 L 459.699219 258.695312 C 465.355469 261.230469 491.734375 273.757812 492.730469 286.722656 C 492.917969 289.085938 492.636719 291.046875 492.03125 292.679688 Z M 492.03125 292.679688 " fill-opacity="0.61" fill-rule="nonzero"/><path fill="#c74904" d="M 380.757812 604.34375 L 325.082031 696.570312 C 325.082031 696.570312 309.167969 702.921875 304.402344 679.082031 C 299.625 655.230469 215.328125 667.957031 172.382812 722.015625 C 142.125 760.101562 137.117188 812.382812 136.808594 839.964844 C 131.191406 821.164062 128.230469 804.070312 123.796875 792.996094 C 119.601562 782.5 112.28125 775.453125 104.203125 770.71875 C 98.273438 767.25 91.941406 765.039062 86.136719 763.621094 L 80.117188 742.691406 L 160.96875 665.011719 C 191.765625 650.425781 220.292969 644.035156 272.59375 626.613281 C 297.605469 618.277344 320.46875 604.734375 338.246094 592.152344 Z M 380.757812 604.34375 " fill-opacity="1" fill-rule="nonzero"/><path fill="#c74904" d="M 640.136719 849.828125 C 613.78125 897.605469 571.554688 927.105469 571.554688 927.105469 C 576.578125 886.875 521.246094 846.644531 472.609375 863.40625 C 423.972656 880.167969 338.445312 962.304688 237.828125 938.835938 C 193.023438 928.394531 168.175781 904.964844 153.203125 879.242188 C 157.523438 877.289062 163.671875 873.023438 172.382812 865.117188 C 207.378906 833.308594 325.085938 715.644531 325.085938 715.644531 L 371.207031 688.613281 C 371.207031 688.613281 274.183594 846.035156 320.308594 874.652344 C 366.441406 903.277344 474.605469 691.789062 479.371094 679.074219 C 484.148438 666.347656 535.046875 656.808594 535.046875 656.808594 L 555.730469 677.484375 C 555.730469 677.484375 590.722656 712.464844 581.179688 755.394531 C 571.636719 798.328125 544.589844 846.03125 565.273438 873.0625 C 580.957031 893.582031 616.8125 874.71875 640.136719 849.828125 Z M 640.136719 849.828125 " fill-opacity="1" fill-rule="nonzero"/><path fill="#9c3119" d="M 471.0625 277.664062 C 471.0625 277.664062 463.289062 288.972656 462.226562 303.8125 C 462.226562 303.8125 450.648438 305.707031 446.761719 300.101562 C 441.988281 293.210938 431.796875 291.183594 423.414062 295.097656 C 415.027344 299.007812 422.296875 304.035156 418.378906 307.949219 C 414.464844 311.863281 407.199219 314.65625 408.878906 321.363281 C 410.554688 328.066406 420.0625 328.066406 420.0625 328.066406 C 420.0625 328.066406 419.503906 333.097656 425.652344 337.007812 C 431.800781 340.921875 441.304688 333.09375 441.304688 333.09375 C 441.304688 333.09375 446.335938 338.125 452.484375 336.445312 C 458.632812 334.769531 462.542969 324.148438 462.542969 324.148438 C 462.542969 324.148438 470.929688 323.59375 474.84375 318.5625 C 478.757812 313.53125 477.636719 300.679688 477.636719 300.679688 C 477.636719 300.679688 476.015625 292.855469 478.488281 279.429688 C 481.136719 265.050781 471.0625 277.664062 471.0625 277.664062 Z M 471.0625 277.664062 " fill-opacity="1" fill-rule="nonzero"/><path fill="#f06c24" d="M 465.898438 412.441406 C 465.898438 412.441406 465.003906 413.496094 463.238281 415.027344 C 461.960938 416.136719 460.238281 417.484375 458.054688 418.871094 C 458.054688 418.871094 458.046875 418.871094 458.035156 418.878906 C 450.476562 423.621094 437.546875 428.625 419.542969 424.601562 C 417.988281 424.257812 416.386719 423.832031 414.746094 423.34375 C 381.210938 413.289062 368.625 363.839844 364.441406 341.199219 C 360.960938 322.464844 348.863281 310.617188 344.816406 307.097656 C 343.976562 306.371094 343.476562 306 343.476562 306 C 343.476562 306 344.527344 305.179688 346.433594 304.257812 C 348.753906 303.125 352.34375 301.816406 356.910156 301.558594 L 356.921875 301.558594 C 358.71875 301.453125 360.671875 301.507812 362.757812 301.804688 C 374.5 303.488281 377.855469 321.082031 377.855469 321.082031 C 377.855469 321.082031 382.050781 316.898438 391.269531 316.898438 C 393.230469 316.898438 395.226562 317.5 397.140625 318.582031 C 404.199219 322.535156 410.261719 332.964844 410.554688 343.722656 C 410.667969 347.832031 407.339844 354.570312 410.429688 368.878906 C 411.171875 372.324219 412.28125 376.207031 413.910156 380.597656 C 422.300781 403.226562 458.351562 411.613281 458.351562 411.613281 Z M 465.898438 412.441406 " fill-opacity="1" fill-rule="nonzero"/><path fill="#f06c24" d="M 597.542969 437.59375 C 597.542969 437.59375 597.542969 437.59375 597.53125 437.582031 C 597.054688 437.0625 581.738281 420.632812 567.65625 417.507812 C 563.367188 416.554688 557.90625 417.386719 551.78125 419.015625 C 537.441406 422.824219 519.511719 431.027344 504.828125 431.027344 C 503.4375 431.027344 502.023438 430.941406 500.601562 430.777344 C 486.3125 429.179688 470.894531 420.097656 463.242188 415.03125 C 460.167969 412.996094 458.351562 411.617188 458.351562 411.617188 C 458.351562 411.617188 477.605469 407.390625 492.566406 398.238281 C 492.605469 398.214844 492.636719 398.195312 492.671875 398.175781 C 497.652344 395.113281 502.160156 391.492188 505.308594 387.308594 C 517.890625 370.542969 504.464844 359.644531 504.464844 359.644531 C 504.464844 359.644531 506.636719 354.773438 512.355469 349.78125 C 515.367188 347.164062 519.375 344.519531 524.570312 342.535156 C 526.851562 341.664062 529.375 340.917969 532.140625 340.367188 C 553.105469 336.171875 566.519531 355.449219 566.519531 355.449219 C 566.519531 355.449219 571.234375 353.800781 577.078125 355.542969 C 579.65625 356.3125 582.449219 357.742188 585.15625 360.265625 C 597.089844 371.394531 595.03125 380.601562 595.03125 380.601562 C 595.03125 380.601562 596.824219 380.445312 601.269531 385.3125 C 602.742188 386.933594 604.519531 389.121094 606.628906 392.070312 C 615.003906 403.792969 597.542969 437.59375 597.542969 437.59375 Z M 597.542969 437.59375 " fill-opacity="1" fill-rule="nonzero"/><path fill="#f7a76d" d="M 421.460938 660.554688 C 420.265625 663.15625 418.4375 666.179688 416.070312 669.542969 C 407.496094 681.738281 391.960938 698.304688 375.296875 714.871094 C 375.285156 714.871094 375.273438 714.882812 375.265625 714.902344 C 344.863281 745.117188 310.734375 775.292969 308.261719 778.75 C 304.078125 784.613281 293.175781 814.785156 287.296875 824.003906 C 281.566406 833.003906 231.058594 891.566406 227.914062 898.21875 C 227.902344 898.230469 227.902344 898.230469 227.902344 898.242188 C 227.832031 898.386719 227.789062 898.511719 227.769531 898.605469 C 227.746094 898.667969 227.738281 898.726562 227.738281 898.78125 C 226.929688 902.984375 226.917969 909.605469 226.089844 917.050781 C 225.253906 924.597656 210.160156 963.148438 205.132812 967.339844 C 200.097656 971.535156 155.65625 968.179688 155.65625 968.179688 C 155.65625 968.179688 154.816406 965.367188 154.765625 961.867188 C 154.765625 961.867188 154.765625 961.867188 154.765625 961.855469 C 154.710938 959.300781 155.085938 956.394531 156.496094 953.921875 C 159.847656 948.058594 173.265625 943.023438 175.777344 939.671875 C 178.300781 936.320312 195.902344 901.390625 198.144531 894.6875 C 200.375 887.980469 223.851562 805.285156 236.160156 788.519531 C 248.457031 771.757812 269.695312 756.105469 274.164062 746.046875 C 278.640625 735.988281 291.496094 702.460938 304.90625 673.957031 C 311.269531 660.445312 320.285156 644.632812 327.996094 631.785156 C 336.53125 617.542969 343.480469 606.902344 343.480469 606.902344 L 363.011719 588.34375 L 402.230469 551.070312 C 402.230469 551.070312 408.769531 567.125 414.796875 587.503906 C 422.222656 612.648438 428.871094 644.347656 421.460938 660.554688 Z M 421.460938 660.554688 " fill-opacity="1" fill-rule="nonzero"/><path fill="#f7a76d" d="M 566.511719 748.5625 C 559.804688 760.300781 449.128906 855.015625 444.09375 860.882812 C 439.066406 866.757812 411.394531 912.855469 410.554688 917.050781 C 409.714844 921.246094 413.90625 931.300781 410.554688 935.484375 C 407.203125 939.679688 404.6875 938.835938 404.6875 938.835938 C 404.6875 938.835938 403.003906 941.359375 397.980469 943.03125 C 392.941406 944.714844 390.429688 939.679688 390.429688 939.679688 C 390.429688 939.679688 387.917969 943.875 383.722656 942.191406 C 379.527344 940.519531 373.660156 923.757812 377.015625 916.210938 C 377.488281 915.140625 378.199219 913.9375 379.078125 912.628906 C 379.089844 912.621094 379.089844 912.609375 379.101562 912.609375 C 384.367188 904.6875 395.464844 892.988281 395.464844 884.351562 C 395.464844 874.296875 391.269531 857.53125 396.296875 852.507812 C 400.578125 848.230469 412.726562 849.402344 418.332031 847.285156 C 419.328125 846.910156 420.117188 846.433594 420.617188 845.800781 C 423.96875 841.605469 434.871094 799.695312 443.261719 782.925781 C 444.328125 780.792969 445.554688 778.671875 446.882812 776.617188 L 446.894531 776.605469 C 455.949219 762.476562 469.996094 750.542969 475.117188 746.886719 C 480.796875 742.828125 511.605469 727.789062 505.988281 720.75 L 505.976562 720.738281 C 505.832031 720.539062 505.644531 720.355469 505.425781 720.1875 C 505.34375 720.105469 505.304688 720.0625 505.304688 720.0625 C 499.570312 715.476562 477.394531 686.214844 463.925781 668.164062 C 457.683594 659.796875 453.324219 653.839844 453.324219 653.839844 L 445.777344 631.210938 C 445.777344 631.210938 497.753906 569.179688 529.625 606.058594 C 535.175781 612.496094 540.128906 620.671875 544.460938 629.839844 C 565.019531 673.226562 572.046875 738.875 566.511719 748.5625 Z M 566.511719 748.5625 " fill-opacity="1" fill-rule="nonzero"/><path fill="#f5833b" d="M 414.792969 587.507812 C 422.226562 612.648438 428.871094 644.347656 421.460938 660.550781 C 420.265625 663.152344 418.4375 666.175781 416.070312 669.539062 C 413.382812 662.988281 412.03125 650.449219 412.03125 650.449219 C 412.03125 650.449219 395.59375 660.53125 390.300781 657.871094 C 384.992188 655.226562 382.875 638.265625 382.875 638.265625 C 382.875 638.265625 361.664062 647.804688 356.898438 643.039062 C 352.121094 638.265625 353.710938 622.363281 353.710938 622.363281 C 353.710938 622.363281 341.519531 630.84375 337.269531 631.902344 C 334.558594 632.578125 330.542969 632.171875 327.996094 631.792969 C 336.53125 617.550781 343.480469 606.910156 343.480469 606.910156 L 363.011719 588.351562 Z M 414.792969 587.507812 " fill-opacity="0.61" fill-rule="nonzero"/><path fill="#f5833b" d="M 544.460938 629.847656 C 538.410156 633.253906 513.3125 616.53125 513.3125 616.53125 C 513.3125 616.53125 508.535156 630.3125 504.289062 631.902344 C 500.054688 633.492188 488.394531 624.480469 488.394531 624.480469 C 488.394531 624.480469 490.515625 647.277344 486.796875 653.640625 C 483.089844 660 468.246094 653.640625 468.246094 653.640625 C 468.246094 657.367188 465.886719 663.617188 463.9375 668.171875 C 457.695312 659.808594 453.335938 653.851562 453.335938 653.851562 L 445.789062 631.222656 C 445.789062 631.222656 497.765625 569.191406 529.636719 606.070312 C 535.175781 612.5 540.128906 620.679688 544.460938 629.847656 Z M 544.460938 629.847656 " fill-opacity="0.61" fill-rule="nonzero"/><path fill="#e8631a" d="M 597.542969 437.59375 C 597.542969 437.59375 597.542969 437.59375 597.53125 437.582031 C 597.054688 437.0625 581.738281 420.632812 567.65625 417.507812 C 563.367188 416.554688 557.90625 417.386719 551.78125 419.015625 C 548.40625 417.40625 546.476562 416.253906 546.972656 415.921875 C 549.363281 414.328125 564.46875 401.609375 557.316406 400.023438 C 550.160156 398.433594 519.136719 405.585938 528.679688 400.023438 C 538.234375 394.460938 551.75 383.320312 553.339844 371.394531 C 554.929688 359.46875 543 353.117188 531.066406 355.496094 C 519.136719 357.882812 516.746094 372.199219 516.746094 372.199219 L 512.355469 349.785156 C 515.367188 347.167969 519.375 344.523438 524.570312 342.539062 C 526.851562 341.667969 529.375 340.921875 532.140625 340.371094 C 553.105469 336.175781 566.519531 355.453125 566.519531 355.453125 C 566.519531 355.453125 571.234375 353.804688 577.078125 355.546875 C 579.65625 356.316406 582.449219 357.746094 585.15625 360.269531 C 597.089844 371.398438 595.03125 380.605469 595.03125 380.605469 C 595.03125 380.605469 596.824219 380.449219 601.269531 385.316406 C 602.742188 386.9375 604.519531 389.125 606.628906 392.074219 C 615.003906 403.792969 597.542969 437.59375 597.542969 437.59375 Z M 597.542969 437.59375 " fill-opacity="1" fill-rule="nonzero"/><path fill="#f5833b" d="M 442.789062 569.890625 C 442.789062 569.890625 445.96875 534.90625 447.027344 529.605469 C 448.089844 524.304688 439.605469 522.183594 432.183594 522.183594 C 424.757812 522.183594 447.027344 513.703125 448.089844 510.523438 C 449.152344 507.34375 451.269531 491.441406 453.390625 485.082031 C 455.515625 478.71875 456.570312 510.523438 456.570312 510.523438 C 456.570312 510.523438 468.238281 521.121094 468.238281 526.421875 C 468.238281 531.722656 458.695312 524.300781 455.511719 528.542969 C 452.332031 532.785156 449.148438 573.070312 449.148438 573.070312 Z M 442.789062 569.890625 " fill-opacity="0.45" fill-rule="nonzero"/><path fill="#e85a0b" d="M 338.246094 592.148438 C 337.664062 592.980469 336.988281 593.871094 336.210938 594.804688 C 290.089844 650.449219 180.324219 667.953125 138.976562 709.285156 C 121.355469 726.898438 110.660156 750.003906 104.199219 770.714844 C 95.476562 798.613281 94.429688 822.1875 94.429688 822.1875 L 65.09375 761.144531 L 65.105469 761.117188 C 65.5625 759.695312 80.402344 713.980469 124.65625 685.445312 C 173.96875 653.640625 201.003906 650.453125 272.589844 626.613281 C 297.601562 618.273438 320.46875 604.726562 338.246094 592.148438 Z M 338.246094 592.148438 " fill-opacity="1" fill-rule="nonzero"/><path fill="#9c3119" d="M 397.242188 559.761719 L 397.191406 559.8125 C 394.605469 562.398438 389.46875 568.960938 383.691406 576.691406 C 376.371094 586.449219 368.015625 598.074219 362.386719 605.953125 C 362.023438 606.464844 361.679688 606.949219 361.335938 607.414062 C 358.960938 610.757812 357.183594 613.269531 356.363281 614.410156 C 355.835938 615.15625 355.042969 615.894531 354.058594 616.621094 C 347.277344 621.679688 331.308594 626.179688 328.378906 626.179688 C 325.027344 626.179688 322.511719 620.3125 325.027344 607.746094 C 325.578125 605.003906 328.238281 600.996094 332.058594 596.390625 C 334.1875 593.828125 336.691406 591.074219 339.378906 588.265625 C 341.371094 586.175781 343.480469 584.050781 345.628906 581.945312 C 359.222656 568.609375 374.503906 555.777344 374.503906 555.777344 C 374.503906 555.777344 404.585938 552.296875 397.242188 559.761719 Z M 397.242188 559.761719 " fill-opacity="1" fill-rule="nonzero"/><path fill="#9c3119" d="M 425.652344 575.0625 C 425.652344 575.0625 423.480469 578.636719 420.242188 583.945312 C 413.542969 594.894531 402.246094 613.257812 395.828125 623.070312 C 393.566406 626.511719 391.914062 628.902344 391.269531 629.546875 C 390.015625 630.800781 386.183594 632.410156 381.699219 633.792969 C 374.191406 636.117188 364.855469 637.828125 362.757812 636.25 C 360.835938 634.808594 359.746094 627.886719 359.777344 620.816406 C 359.804688 615.886719 360.386719 610.882812 361.625 607.601562 C 361.71875 607.363281 361.8125 607.125 361.917969 606.910156 C 362.042969 606.628906 362.199219 606.316406 362.386719 605.953125 C 365.085938 600.773438 374.171875 587.476562 381.742188 576.652344 C 387.835938 567.933594 392.945312 560.8125 392.945312 560.8125 C 394.296875 560.175781 395.75 559.84375 397.242188 559.761719 C 406.410156 559.222656 417.574219 567.871094 422.757812 572.394531 C 424.570312 573.984375 425.652344 575.0625 425.652344 575.0625 Z M 425.652344 575.0625 " fill-opacity="1" fill-rule="nonzero"/><path fill="#9c3119" d="M 539.683594 621.160156 C 537.054688 623.789062 520.558594 614.589844 513.519531 610.480469 C 511.566406 609.339844 510.34375 608.59375 510.34375 608.59375 C 510.34375 608.59375 509.597656 610.992188 508.339844 613.761719 C 506.648438 617.539062 504.019531 622.003906 501.113281 622.003906 C 499.617188 622.003906 497.617188 621.339844 495.527344 620.40625 C 490.574219 618.195312 485.1875 614.457031 485.1875 614.457031 C 485.1875 614.457031 485.320312 618.859375 485.15625 624.414062 C 484.925781 632.792969 484.023438 643.792969 480.992188 646.316406 C 475.96875 650.5 464.226562 646.316406 464.226562 646.316406 C 464.226562 646.316406 463.777344 649.800781 462.925781 654.207031 C 461.785156 660.144531 459.925781 667.730469 457.515625 670.617188 C 453.332031 675.652344 444.101562 684.03125 437.390625 684.03125 C 432.84375 684.03125 426.457031 676.148438 422.824219 671.074219 C 420.988281 668.511719 419.988281 665.4375 419.988281 662.285156 L 419.988281 643.578125 C 419.988281 643.578125 417.4375 644.742188 413.957031 646.167969 C 407.125 648.949219 396.730469 652.683594 395.070312 650.460938 C 393.800781 648.773438 392.84375 643.433594 392.210938 638.585938 C 391.589844 633.839844 391.277344 629.558594 391.277344 629.558594 L 391.660156 621.742188 L 392.945312 595.191406 L 410.601562 580.753906 L 420.621094 572.550781 L 422.757812 572.40625 L 508.660156 566.683594 C 508.660156 566.683594 524.429688 580.613281 535.351562 591.503906 L 535.488281 591.636719 C 541.023438 597.160156 545.269531 601.871094 545.546875 603.566406 C 546.390625 608.589844 543.035156 617.804688 539.683594 621.160156 Z M 539.683594 621.160156 " fill-opacity="1" fill-rule="nonzero"/><path fill="#872610" d="M 535.351562 591.496094 C 496.011719 576.289062 446.617188 598.53125 446.617188 598.53125 C 437.800781 592.023438 428.921875 587.300781 420.242188 583.945312 C 416.988281 582.691406 413.773438 581.621094 410.59375 580.738281 C 401.125 578.0625 392.027344 576.90625 383.6875 576.6875 C 383.035156 576.660156 382.378906 576.648438 381.734375 576.648438 C 365.792969 576.484375 352.835938 579.65625 345.621094 581.941406 C 359.214844 568.605469 374.496094 555.773438 374.496094 555.773438 C 374.496094 555.773438 404.578125 552.292969 397.234375 559.757812 C 406.402344 559.21875 417.566406 567.867188 422.75 572.390625 L 508.652344 566.667969 C 508.660156 566.675781 524.429688 580.605469 535.351562 591.496094 Z M 535.351562 591.496094 " fill-opacity="1" fill-rule="nonzero"/><path fill="#f5833b" d="M 326.976562 282.027344 C 324.929688 296.890625 318.679688 337.082031 307.796875 362.828125 C 300.714844 356.421875 294.300781 350.464844 289.421875 345.324219 C 298.617188 319.261719 312.046875 281.707031 317.910156 265.328125 C 320.757812 270.746094 323.894531 276.554688 326.976562 282.027344 Z M 326.976562 282.027344 " fill-opacity="0.61" fill-rule="nonzero"/><path fill="#f4af14" d="M 512.78125 570.949219 C 512.78125 570.949219 463.386719 585.121094 446.617188 598.53125 C 446.617188 598.53125 406.359375 565.832031 375.34375 561.652344 C 375.34375 561.652344 368.625 559.128906 369.46875 555.777344 C 370.308594 552.425781 382.054688 544.875 382.054688 544.875 C 382.054688 544.875 382.054688 535.660156 385.40625 531.464844 C 388.757812 527.28125 448.089844 569.621094 448.089844 569.621094 C 448.089844 569.621094 491.886719 545.714844 501.105469 545.714844 C 501.21875 545.714844 501.335938 545.714844 501.441406 545.726562 C 510.214844 545.984375 505.304688 556.617188 505.304688 556.617188 C 505.304688 556.617188 511.179688 556.617188 515.363281 562.484375 C 519.558594 568.355469 512.78125 570.949219 512.78125 570.949219 Z M 512.78125 570.949219 " fill-opacity="1" fill-rule="nonzero"/><path fill="#e05e2b" d="M 488.539062 284.941406 C 486.546875 285.023438 484.558594 286.792969 483.199219 288.125 C 481.386719 289.894531 479.949219 292.050781 479.007812 294.402344 C 478.640625 295.308594 480.019531 295.902344 480.40625 295 C 481.316406 292.871094 482.445312 290.933594 484.011719 289.222656 C 485.394531 287.714844 487.414062 286.695312 488.621094 285.09375 C 488.671875 285.023438 488.617188 284.9375 488.539062 284.941406 Z M 488.539062 284.941406 " fill-opacity="1" fill-rule="nonzero"/><path fill="#e05e2b" d="M 490.699219 289.933594 C 487.976562 287.980469 483.664062 289.226562 481.074219 290.808594 C 480.304688 291.28125 481.15625 292.445312 481.921875 291.949219 C 483.304688 291.046875 484.816406 290.457031 486.453125 290.253906 C 487.851562 290.082031 489.230469 290.3125 490.621094 290.210938 C 490.753906 290.199219 490.804688 290.007812 490.699219 289.933594 Z M 490.699219 289.933594 " fill-opacity="1" fill-rule="nonzero"/><path fill="#4f1e20" d="M 429.257812 279.761719 C 428.941406 282.125 429.71875 284.183594 431.007812 284.355469 C 432.292969 284.53125 433.59375 282.757812 433.914062 280.390625 C 434.230469 278.027344 433.449219 275.96875 432.164062 275.796875 C 430.882812 275.621094 429.582031 277.394531 429.257812 279.761719 Z M 429.257812 279.761719 " fill-opacity="1" fill-rule="nonzero"/><path fill="#4f1e20" d="M 433.417969 280.804688 C 434.964844 278.714844 433.679688 275.855469 432.34375 274.046875 C 432.191406 273.839844 431.886719 273.804688 431.65625 273.847656 C 431.597656 273.859375 431.546875 273.863281 431.488281 273.875 C 431.351562 273.902344 431.210938 274.039062 431.183594 274.171875 C 431.070312 274.703125 431.226562 274.863281 431.558594 275.253906 C 432.015625 275.796875 432.355469 276.390625 432.617188 277.046875 C 433.097656 278.261719 433.109375 279.519531 433.320312 280.785156 C 433.328125 280.839844 433.394531 280.835938 433.417969 280.804688 Z M 433.417969 280.804688 " fill-opacity="1" fill-rule="nonzero"/><path fill="#e05e2b" d="M 438.957031 282.050781 C 439.191406 282.980469 438.507812 284.441406 438.117188 285.265625 C 437.398438 286.757812 436.355469 287.621094 435.101562 288.621094 C 434.050781 289.453125 433.523438 290.34375 433.738281 291.710938 C 434.175781 294.453125 437.59375 296.519531 440.042969 294.796875 C 440.550781 294.441406 440.277344 293.699219 439.644531 293.796875 C 436.6875 294.257812 433.421875 292.664062 436.351562 289.257812 C 437.226562 288.242188 438.117188 287.625 438.746094 286.394531 C 439.273438 285.363281 440.382812 282.785156 439.035156 281.996094 C 438.992188 281.96875 438.945312 282.007812 438.957031 282.050781 Z M 438.957031 282.050781 " fill-opacity="1" fill-rule="nonzero"/><path fill="#4f1e20" d="M 451.324219 284.464844 C 450.988281 286.945312 451.808594 289.101562 453.160156 289.285156 C 454.503906 289.46875 455.871094 287.605469 456.207031 285.128906 C 456.546875 282.652344 455.722656 280.492188 454.375 280.308594 C 453.027344 280.125 451.664062 281.988281 451.324219 284.464844 Z M 451.324219 284.464844 " fill-opacity="1" fill-rule="nonzero"/><path fill="#4f1e20" d="M 454.425781 278.355469 C 455.554688 279.164062 456.039062 280.585938 456.246094 281.914062 C 456.40625 282.949219 456.742188 284.839844 455.75 285.53125 C 455.582031 285.648438 455.332031 285.597656 455.1875 285.460938 C 454.480469 284.796875 454.851562 283.476562 454.800781 282.589844 C 454.726562 281.21875 454.125 280.191406 453.695312 278.929688 C 453.5625 278.542969 454.066406 278.097656 454.425781 278.355469 Z M 454.425781 278.355469 " fill-opacity="1" fill-rule="nonzero"/><path fill="#9c3119" d="M 282.34375 72.289062 C 283.980469 72.8125 285.585938 73.425781 287.164062 74.121094 C 288.738281 74.816406 290.285156 75.597656 291.804688 76.460938 C 293.320312 77.328125 294.804688 78.273438 296.257812 79.304688 C 297.710938 80.335938 299.128906 81.449219 300.511719 82.644531 C 301.898438 83.839844 303.246094 85.113281 304.558594 86.46875 C 305.875 87.824219 307.148438 89.257812 308.386719 90.769531 C 309.628906 92.285156 310.828125 93.875 311.988281 95.539062 C 313.152344 97.207031 314.273438 98.949219 315.351562 100.765625 C 316.433594 102.582031 317.476562 104.472656 318.472656 106.433594 C 319.472656 108.394531 320.429688 110.429688 321.339844 112.53125 C 322.253906 114.636719 323.125 116.804688 323.949219 119.042969 C 324.777344 121.285156 325.558594 123.585938 326.292969 125.957031 C 327.03125 128.324219 327.722656 130.757812 328.367188 133.25 C 329.011719 135.746094 329.613281 138.296875 330.164062 140.910156 C 330.71875 143.523438 331.222656 146.191406 331.683594 148.917969 C 332.140625 151.640625 332.550781 154.417969 332.917969 157.25 C 333.28125 160.078125 333.59375 162.960938 333.863281 165.890625 C 334.128906 168.820312 334.351562 171.792969 334.519531 174.816406 C 334.691406 177.835938 334.8125 180.902344 334.886719 184.007812 C 334.960938 187.113281 334.988281 190.257812 334.964844 193.441406 C 334.941406 196.625 334.867188 199.839844 334.746094 203.09375 C 334.625 206.347656 334.457031 209.628906 334.242188 212.945312 C 334.023438 216.257812 333.757812 219.601562 333.441406 222.96875 C 333.128906 226.335938 332.765625 229.726562 332.359375 233.140625 C 331.949219 236.554688 331.492188 239.984375 330.988281 243.4375 C 330.484375 246.886719 329.933594 250.351562 329.335938 253.832031 C 328.738281 257.3125 328.09375 260.800781 327.402344 264.300781 C 326.714844 267.800781 325.980469 271.308594 325.199219 274.820312 C 324.421875 278.335938 323.597656 281.847656 322.726562 285.363281 C 321.859375 288.882812 320.949219 292.394531 319.992188 295.90625 C 319.039062 299.417969 318.042969 302.921875 317.003906 306.421875 C 315.964844 309.917969 314.882812 313.40625 313.765625 316.882812 C 312.644531 320.359375 311.484375 323.820312 310.285156 327.269531 C 309.085938 330.714844 307.847656 334.144531 306.574219 337.550781 C 305.296875 340.960938 303.988281 344.34375 302.640625 347.707031 C 301.292969 351.066406 299.90625 354.402344 298.492188 357.710938 C 297.074219 361.015625 295.621094 364.292969 294.136719 367.539062 C 292.65625 370.78125 291.140625 373.992188 289.59375 377.164062 C 288.046875 380.339844 286.46875 383.476562 284.863281 386.570312 C 283.257812 389.667969 281.625 392.71875 279.964844 395.730469 C 278.304688 398.742188 276.617188 401.707031 274.90625 404.625 C 273.195312 407.542969 271.460938 410.410156 269.703125 413.226562 C 267.945312 416.046875 266.164062 418.808594 264.363281 421.523438 C 262.5625 424.234375 260.742188 426.886719 258.902344 429.484375 C 257.0625 432.085938 255.207031 434.625 253.332031 437.101562 C 251.457031 439.582031 249.570312 441.996094 247.667969 444.351562 C 245.765625 446.703125 243.847656 448.992188 241.921875 451.214844 C 239.992188 453.4375 238.054688 455.59375 236.109375 457.679688 C 234.160156 459.765625 232.203125 461.78125 230.242188 463.726562 C 228.277344 465.667969 226.308594 467.542969 224.332031 469.339844 C 222.359375 471.140625 220.382812 472.863281 218.402344 474.511719 C 216.421875 476.160156 214.441406 477.730469 212.460938 479.222656 C 210.476562 480.71875 208.5 482.132812 206.519531 483.46875 C 204.542969 484.804688 202.570312 486.058594 200.597656 487.234375 C 198.628906 488.410156 196.667969 489.5 194.710938 490.511719 C 192.753906 491.523438 190.804688 492.449219 188.867188 493.292969 C 186.929688 494.140625 185 494.898438 183.085938 495.574219 C 181.167969 496.25 179.265625 496.839844 177.375 497.347656 C 175.484375 497.851562 173.613281 498.273438 171.753906 498.605469 C 169.898438 498.941406 168.058594 499.1875 166.234375 499.351562 C 164.414062 499.511719 162.613281 499.589844 160.832031 499.578125 C 159.050781 499.566406 157.292969 499.46875 155.554688 499.289062 C 153.820312 499.105469 152.105469 498.835938 150.417969 498.480469 C 148.730469 498.125 147.070312 497.683594 145.4375 497.15625 C 143.800781 496.632812 142.195312 496.019531 140.617188 495.324219 C 139.039062 494.628906 137.492188 493.847656 135.976562 492.984375 C 134.460938 492.117188 132.972656 491.171875 131.523438 490.140625 C 130.070312 489.109375 128.652344 487.996094 127.265625 486.800781 C 125.882812 485.609375 124.53125 484.332031 123.21875 482.976562 C 121.90625 481.621094 120.628906 480.1875 119.390625 478.675781 C 118.152344 477.160156 116.953125 475.570312 115.789062 473.90625 C 114.628906 472.238281 113.507812 470.496094 112.425781 468.679688 C 111.34375 466.863281 110.304688 464.972656 109.304688 463.011719 C 108.308594 461.050781 107.351562 459.015625 106.4375 456.914062 C 105.523438 454.808594 104.65625 452.640625 103.828125 450.402344 C 103.003906 448.160156 102.222656 445.859375 101.484375 443.488281 C 100.75 441.121094 100.058594 438.6875 99.410156 436.195312 C 98.765625 433.699219 98.167969 431.148438 97.613281 428.535156 C 97.0625 425.921875 96.554688 423.253906 96.097656 420.527344 C 95.636719 417.804688 95.226562 415.027344 94.863281 412.195312 C 94.5 409.367188 94.183594 406.484375 93.917969 403.554688 C 93.648438 400.625 93.429688 397.652344 93.257812 394.628906 C 93.089844 391.609375 92.964844 388.542969 92.890625 385.4375 C 92.816406 382.332031 92.792969 379.1875 92.816406 376.003906 C 92.839844 372.820312 92.910156 369.605469 93.03125 366.351562 C 93.152344 363.097656 93.320312 359.816406 93.539062 356.5 C 93.757812 353.1875 94.023438 349.84375 94.335938 346.476562 C 94.652344 343.109375 95.011719 339.71875 95.421875 336.304688 C 95.832031 332.890625 96.289062 329.460938 96.792969 326.007812 C 97.296875 322.558594 97.847656 319.09375 98.445312 315.613281 C 99.042969 312.132812 99.6875 308.644531 100.375 305.144531 C 101.066406 301.644531 101.800781 298.136719 102.578125 294.625 C 103.359375 291.109375 104.183594 287.597656 105.050781 284.082031 C 105.921875 280.5625 106.832031 277.050781 107.785156 273.539062 C 108.742188 270.027344 109.738281 266.523438 110.777344 263.023438 C 111.816406 259.527344 112.894531 256.039062 114.015625 252.5625 C 115.136719 249.085938 116.296875 245.625 117.496094 242.175781 C 118.695312 238.730469 119.929688 235.300781 121.207031 231.894531 C 122.480469 228.484375 123.792969 225.101562 125.140625 221.738281 C 126.488281 218.378906 127.871094 215.042969 129.289062 211.734375 C 130.707031 208.429688 132.15625 205.152344 133.640625 201.90625 C 135.125 198.664062 136.640625 195.453125 138.1875 192.28125 C 139.734375 189.105469 141.308594 185.96875 142.914062 182.875 C 144.519531 179.777344 146.152344 176.726562 147.8125 173.714844 C 149.476562 170.703125 151.160156 167.738281 152.871094 164.820312 C 154.585938 161.902344 156.320312 159.035156 158.078125 156.21875 C 159.835938 153.398438 161.617188 150.636719 163.417969 147.921875 C 165.21875 145.210938 167.039062 142.558594 168.878906 139.960938 C 170.71875 137.359375 172.574219 134.820312 174.449219 132.34375 C 176.320312 129.863281 178.210938 127.449219 180.113281 125.09375 C 182.015625 122.742188 183.929688 120.453125 185.859375 118.230469 C 187.785156 116.007812 189.722656 113.851562 191.671875 111.765625 C 193.621094 109.679688 195.574219 107.664062 197.539062 105.71875 C 199.503906 103.777344 201.472656 101.902344 203.445312 100.105469 C 205.421875 98.304688 207.398438 96.582031 209.378906 94.933594 C 211.359375 93.285156 213.339844 91.714844 215.320312 90.222656 C 217.300781 88.726562 219.28125 87.3125 221.257812 85.976562 C 223.238281 84.640625 225.210938 83.386719 227.179688 82.210938 C 229.148438 81.035156 231.113281 79.945312 233.070312 78.933594 C 235.027344 77.921875 236.972656 76.996094 238.914062 76.152344 C 240.851562 75.304688 242.78125 74.546875 244.695312 73.871094 C 246.613281 73.195312 248.515625 72.605469 250.40625 72.097656 C 252.292969 71.59375 254.167969 71.171875 256.023438 70.839844 C 257.882812 70.503906 259.722656 70.257812 261.542969 70.09375 C 263.367188 69.933594 265.167969 69.855469 266.949219 69.867188 C 268.730469 69.878906 270.488281 69.976562 272.226562 70.15625 C 273.960938 70.339844 275.671875 70.609375 277.359375 70.964844 C 279.046875 71.320312 280.710938 71.761719 282.34375 72.289062 Z M 282.34375 72.289062 " fill-opacity="1" fill-rule="nonzero"/><path fill="#ffcf40" d="M 111.464844 243.179688 C 79.160156 337.898438 91.902344 429.164062 136.4375 444.339844 C 180.976562 459.515625 243.257812 395.03125 275.5625 300.308594 C 282.042969 281.300781 286.832031 262.515625 289.964844 244.5 C 302.492188 172.8125 289.011719 113.457031 253.414062 101.320312 C 252.539062 101.023438 251.660156 100.757812 250.765625 100.527344 C 206.34375 88.59375 143.132812 150.320312 111.464844 243.179688 Z M 111.464844 243.179688 " fill-opacity="1" fill-rule="nonzero"/><path fill="#f4af14" d="M 101.300781 241.761719 C 99.472656 247.140625 97.820312 252.503906 96.351562 257.855469 C 73.527344 340.621094 92.347656 419.46875 124.597656 429.441406 C 166.542969 442.433594 224.261719 383.441406 254.414062 295.066406 C 274.496094 236.1875 277.199219 179.289062 264.417969 143.90625 C 258.011719 126.175781 247.707031 113.839844 233.75 109.382812 C 204.96875 100.203125 131.441406 153.375 101.300781 241.761719 Z M 101.300781 241.761719 " fill-opacity="1" fill-rule="nonzero"/><path fill="#e6a209" d="M 87.503906 305.867188 C 81.46875 369.039062 98.703125 421.4375 124.597656 429.441406 C 166.542969 442.433594 224.261719 383.441406 254.414062 295.066406 C 265.207031 263.4375 270.972656 232.359375 272.015625 204.894531 C 269.769531 228.410156 264.273438 254 255.433594 279.964844 C 225.285156 368.339844 167.5625 427.332031 125.617188 414.335938 C 101.832031 406.980469 85.339844 362.125 87.503906 305.867188 Z M 87.503906 305.867188 " fill-opacity="1" fill-rule="nonzero"/><path fill="#872610" d="M 301.054688 298.484375 C 263.238281 415.808594 187.871094 496.511719 132.71875 478.757812 C 123.980469 475.933594 116.273438 470.820312 109.644531 463.75 C 118.371094 480.589844 130.367188 492.285156 145.4375 497.140625 C 200.597656 514.914062 275.972656 434.199219 313.773438 316.871094 C 345.605469 218.117188 340.664062 124.898438 305.414062 87.265625 C 328.605469 132.042969 328.53125 213.199219 301.054688 298.484375 Z M 301.054688 298.484375 " fill-opacity="1" fill-rule="nonzero"/><path fill="#ffc136" d="M 101.300781 241.761719 C 99.472656 247.140625 97.820312 252.503906 96.351562 257.855469 C 98.132812 303.390625 111.695312 354.28125 166.5625 335.980469 C 246.257812 309.398438 261.59375 182.027344 264.417969 143.90625 C 258.011719 126.175781 247.707031 113.839844 233.75 109.382812 C 204.96875 100.203125 131.441406 153.375 101.300781 241.761719 Z M 101.300781 241.761719 " fill-opacity="1" fill-rule="nonzero"/><path fill="#ffe678" d="M 247.160156 110.160156 C 247.160156 110.160156 270.914062 126.300781 277.003906 172.507812 C 283.089844 218.695312 267.980469 260.054688 275.699219 261.285156 C 279.648438 261.898438 285.347656 253.183594 289.96875 244.5 C 302.496094 172.8125 289.015625 113.457031 253.414062 101.320312 C 252.542969 101.023438 251.664062 100.757812 250.769531 100.527344 C 246.621094 103.578125 247.160156 110.160156 247.160156 110.160156 Z M 247.160156 110.160156 " fill-opacity="1" fill-rule="nonzero"/><path fill="#f5833b" d="M 503.882812 359.578125 C 500.859375 359.265625 487.007812 357.832031 484.496094 357.523438 C 481.671875 357.171875 469.292969 359.640625 470.707031 357.875 C 472.128906 356.109375 478.132812 351.515625 479.191406 349.039062 C 479.660156 347.972656 480.042969 345.042969 480.339844 342.085938 C 480.351562 343.382812 480.382812 344.433594 480.433594 345.160156 C 480.78125 349.527344 493.207031 354.789062 503.882812 359.578125 Z M 503.882812 359.578125 " fill-opacity="0.61" fill-rule="nonzero"/><path fill="#f5833b" d="M 443.492188 358.578125 C 443.84375 359.992188 431.480469 355.757812 430.070312 354.695312 C 428.648438 353.640625 407.441406 350.804688 407.441406 350.804688 L 407.253906 349.28125 C 415.4375 349.308594 429.746094 347.339844 432.363281 345.390625 C 433.277344 344.703125 433.765625 343.011719 433.972656 340.917969 C 434.011719 343.410156 434.160156 347.800781 434.660156 349.042969 C 435.359375 350.804688 443.140625 357.167969 443.492188 358.578125 Z M 443.492188 358.578125 " fill-opacity="0.61" fill-rule="nonzero"/><path fill="#d9570f" d="M 458.039062 418.875 C 449.824219 424.035156 435.265625 429.496094 414.746094 423.339844 C 381.210938 413.285156 368.625 363.835938 364.441406 341.195312 C 360.246094 318.566406 343.476562 305.996094 343.476562 305.996094 C 343.476562 305.996094 348.574219 302.03125 356.910156 301.554688 L 356.921875 301.554688 C 360.433594 302.292969 364.722656 304.824219 365.632812 312.554688 C 367.222656 326.070312 374.386719 380.140625 394.269531 403.992188 C 413.359375 426.890625 445.628906 423.402344 458.039062 418.875 Z M 458.039062 418.875 " fill-opacity="0.85" fill-rule="nonzero"/><path fill="#d9570f" d="M 597.542969 437.59375 C 597.542969 437.59375 581.964844 420.683594 567.65625 417.507812 C 553.335938 414.324219 525.78125 431.023438 504.828125 431.023438 C 503.4375 431.023438 502.023438 430.9375 500.601562 430.773438 C 508.148438 429.777344 518.855469 427.027344 531.066406 420.683594 C 550.953125 410.34375 586.742188 398.429688 593.109375 409.554688 C 599.460938 420.683594 597.542969 437.59375 597.542969 437.59375 Z M 597.542969 437.59375 " fill-opacity="0.85" fill-rule="nonzero"/><path fill="#e86015" d="M 419.546875 424.597656 C 417.992188 424.253906 416.390625 423.828125 414.75 423.339844 C 381.214844 413.285156 368.628906 363.835938 364.445312 341.195312 C 360.964844 322.460938 348.867188 310.613281 344.820312 307.09375 C 345.316406 306.214844 345.859375 305.257812 346.4375 304.25 C 348.757812 303.117188 352.347656 301.808594 356.914062 301.550781 L 356.925781 301.550781 C 358.722656 301.445312 360.675781 301.5 362.761719 301.796875 C 374.503906 303.480469 377.859375 321.074219 377.859375 321.074219 C 377.859375 321.074219 382.054688 316.890625 391.273438 316.890625 C 393.234375 316.890625 395.230469 317.492188 397.140625 318.574219 C 404.203125 322.527344 410.265625 332.960938 410.558594 343.714844 C 410.671875 347.824219 407.339844 354.5625 410.433594 368.871094 C 407.125 370.738281 403.832031 374.539062 401.433594 381.722656 C 395.105469 400.699219 414.875 420.308594 419.546875 424.597656 Z M 419.546875 424.597656 " fill-opacity="1" fill-rule="nonzero"/><path fill="#d9570f" d="M 577.078125 355.539062 C 574.59375 399.332031 537.429688 401.605469 537.429688 401.605469 C 537.429688 401.605469 554.925781 392.855469 562.878906 380.136719 C 570.832031 367.410156 566.511719 355.441406 566.511719 355.441406 C 566.511719 355.441406 571.230469 353.792969 577.078125 355.539062 Z M 577.078125 355.539062 " fill-opacity="0.85" fill-rule="nonzero"/><path fill="#d9570f" d="M 601.269531 385.304688 C 590.761719 396.578125 562.851562 404.425781 572.421875 400.015625 C 582.765625 395.238281 595.027344 380.59375 595.027344 380.59375 C 595.027344 380.59375 596.824219 380.441406 601.269531 385.304688 Z M 601.269531 385.304688 " fill-opacity="0.85" fill-rule="nonzero"/><path fill="#d9570f" d="M 406.164062 395.179688 C 405.9375 394.867188 404.460938 392.886719 395.066406 380.140625 C 383.933594 365.039062 377.863281 321.082031 377.863281 321.082031 C 377.863281 321.082031 382.058594 316.898438 391.277344 316.898438 C 393.238281 316.898438 395.234375 317.5 397.144531 318.582031 C 393.335938 318.070312 389.722656 320.925781 388.714844 332.4375 C 386.378906 358.808594 405.25 393.507812 406.164062 395.179688 Z M 406.164062 395.179688 " fill-opacity="0.85" fill-rule="nonzero"/><g mask="url(#63f7056301)"><g transform="matrix(1, 0, 0, 1, 447, 396)"><g clip-path="url(#5d49684110)"><g clip-path="url(#376cfbc86b)"><path fill="#ffb715" d="M 15.03125 0.699219 C 15.855469 0.730469 16.667969 0.878906 17.46875 1.140625 C 18.269531 1.40625 19.039062 1.777344 19.785156 2.261719 C 20.527344 2.746094 21.230469 3.332031 21.890625 4.019531 C 22.554688 4.707031 23.160156 5.484375 23.710938 6.347656 C 24.261719 7.210938 24.746094 8.148438 25.167969 9.15625 C 25.589844 10.164062 25.9375 11.222656 26.210938 12.335938 C 26.484375 13.445312 26.679688 14.589844 26.796875 15.761719 C 26.910156 16.9375 26.949219 18.117188 26.902344 19.308594 C 26.855469 20.5 26.730469 21.675781 26.527344 22.839844 C 26.320312 24 26.039062 25.125 25.683594 26.210938 C 25.324219 27.300781 24.898438 28.332031 24.402344 29.304688 C 23.90625 30.277344 23.351562 31.171875 22.738281 31.992188 C 22.121094 32.8125 21.460938 33.539062 20.75 34.175781 C 20.039062 34.8125 19.292969 35.339844 18.511719 35.769531 C 17.734375 36.195312 16.9375 36.507812 16.117188 36.710938 C 15.300781 36.914062 14.480469 36.996094 13.65625 36.964844 C 12.828125 36.933594 12.015625 36.789062 11.21875 36.523438 C 10.417969 36.261719 9.644531 35.886719 8.898438 35.402344 C 8.15625 34.917969 7.453125 34.332031 6.792969 33.644531 C 6.132812 32.957031 5.527344 32.183594 4.976562 31.320312 C 4.421875 30.453125 3.9375 29.519531 3.515625 28.511719 C 3.097656 27.503906 2.75 26.445312 2.476562 25.332031 C 2.203125 24.222656 2.007812 23.078125 1.890625 21.902344 C 1.773438 20.730469 1.738281 19.546875 1.78125 18.355469 C 1.828125 17.167969 1.953125 15.992188 2.15625 14.828125 C 2.363281 13.667969 2.644531 12.542969 3 11.453125 C 3.359375 10.367188 3.785156 9.335938 4.28125 8.363281 C 4.777344 7.390625 5.332031 6.496094 5.949219 5.675781 C 6.5625 4.855469 7.226562 4.128906 7.9375 3.492188 C 8.648438 2.855469 9.390625 2.324219 10.171875 1.898438 C 10.949219 1.472656 11.75 1.15625 12.566406 0.957031 C 13.382812 0.753906 14.207031 0.667969 15.03125 0.699219 Z M 15.03125 0.699219 " fill-opacity="1" fill-rule="nonzero"/></g></g></g></g><path fill="#ffb715" d="M 472.839844 411.886719 C 472.464844 421.902344 466.53125 429.808594 459.59375 429.542969 C 452.65625 429.28125 447.34375 420.949219 447.722656 410.933594 C 448.101562 400.917969 454.03125 393.011719 460.96875 393.273438 C 467.90625 393.539062 473.222656 401.871094 472.839844 411.886719 Z M 472.839844 411.886719 " fill-opacity="1" fill-rule="nonzero"/><path fill="#eddcbb" d="M 468.570312 411.726562 C 468.316406 418.328125 464.398438 423.539062 459.828125 423.367188 C 456.628906 423.246094 453.957031 420.527344 452.726562 416.636719 C 452.195312 414.972656 451.925781 413.082031 451.996094 411.089844 C 452.253906 404.484375 456.160156 399.28125 460.738281 399.449219 C 461.964844 399.496094 463.125 399.929688 464.128906 400.671875 C 466.921875 402.664062 468.746094 406.902344 468.570312 411.726562 Z M 468.570312 411.726562 " fill-opacity="1" fill-rule="nonzero"/><path fill="#fcf1dc" d="M 464.863281 406.214844 C 464.605469 412.824219 460.703125 418.039062 456.121094 417.855469 C 454.894531 417.808594 453.734375 417.378906 452.730469 416.636719 C 452.199219 414.972656 451.929688 413.082031 452 411.089844 C 452.253906 404.484375 456.164062 399.28125 460.742188 399.449219 C 461.96875 399.496094 463.128906 399.929688 464.132812 400.671875 C 464.667969 402.339844 464.933594 404.222656 464.863281 406.214844 Z M 464.863281 406.214844 " fill-opacity="1" fill-rule="nonzero"/><path fill="#d9570f" d="M 492.667969 398.167969 C 497.648438 395.105469 502.15625 391.484375 505.304688 387.300781 C 517.886719 370.535156 504.464844 359.636719 504.464844 359.636719 C 504.464844 359.636719 509.519531 348.269531 524.566406 342.527344 C 526.558594 350.378906 530.453125 378.15625 492.667969 398.167969 Z M 492.667969 398.167969 " fill-opacity="0.85" fill-rule="nonzero"/><path fill="#f5833b" d="M 459.597656 429.542969 C 459.628906 429.648438 459.640625 429.75 459.640625 429.878906 C 459.515625 429.328125 459.441406 429.003906 459.441406 428.964844 C 459.46875 429.015625 459.511719 429.203125 459.597656 429.542969 Z M 459.597656 429.542969 " fill-opacity="0.35" fill-rule="nonzero"/><path fill="#e38e52" d="M 505.402344 451.828125 C 505.691406 454.449219 509.707031 456.15625 514.363281 455.636719 C 519.019531 455.125 522.558594 452.582031 522.269531 449.964844 C 521.980469 447.347656 517.96875 445.640625 513.3125 446.15625 C 508.65625 446.671875 505.117188 449.210938 505.402344 451.828125 Z M 505.402344 451.828125 " fill-opacity="1" fill-rule="nonzero"/><path fill="#e38e52" d="M 380.402344 435.1875 C 379.554688 437.683594 382.464844 440.925781 386.90625 442.429688 C 391.339844 443.929688 395.628906 443.128906 396.472656 440.636719 C 397.320312 438.140625 394.410156 434.898438 389.96875 433.394531 C 385.535156 431.886719 381.25 432.695312 380.402344 435.1875 Z M 380.402344 435.1875 " fill-opacity="1" fill-rule="nonzero"/><path fill="#f5833b" d="M 689.777344 459.390625 C 689.777344 459.390625 633.667969 513.707031 632.605469 510.535156 C 631.546875 507.347656 627.300781 495.691406 627.300781 495.691406 C 629.824219 499.039062 689.777344 459.390625 689.777344 459.390625 Z M 689.777344 459.390625 " fill-opacity="0.61" fill-rule="nonzero"/><path fill="#e09c02" d="M 445.226562 583.636719 C 443.804688 582.527344 398.105469 546.695312 382.054688 544.875 C 382.054688 544.875 382.054688 535.660156 385.40625 531.464844 C 385.40625 531.464844 384.460938 539.496094 385.875 541.261719 C 387.285156 543.027344 425.433594 559.273438 445.226562 583.636719 Z M 445.226562 583.636719 " fill-opacity="1" fill-rule="nonzero"/><path fill="#e09c02" d="M 505.304688 556.617188 C 505.304688 556.617188 467.9375 572.371094 452.507812 579.253906 C 464.699219 571.304688 497.421875 555.191406 498.285156 554.164062 C 499.738281 552.433594 502.835938 548.125 501.441406 545.726562 C 510.214844 545.988281 505.304688 556.617188 505.304688 556.617188 Z M 505.304688 556.617188 " fill-opacity="1" fill-rule="nonzero"/><path fill="#872610" d="M 361.917969 606.910156 C 361.917969 606.910156 381.28125 583.671875 378.628906 579.433594 C 375.980469 575.191406 361.917969 606.910156 361.917969 606.910156 Z M 361.917969 606.910156 " fill-opacity="1" fill-rule="nonzero"/><path fill="#872610" d="M 391.273438 629.546875 C 391.273438 629.546875 403.023438 594.269531 409.386719 592.679688 C 415.746094 591.089844 391.273438 629.546875 391.273438 629.546875 Z M 391.273438 629.546875 " fill-opacity="1" fill-rule="nonzero"/><path fill="#872610" d="M 510.339844 608.589844 C 510.339844 608.589844 496.335938 590.5625 497.925781 588.96875 C 499.519531 587.378906 510.339844 608.589844 510.339844 608.589844 Z M 510.339844 608.589844 " fill-opacity="1" fill-rule="nonzero"/><path fill="#872610" d="M 485.183594 614.453125 C 485.183594 614.453125 470.886719 597.984375 471.949219 593.742188 C 473.011719 589.5 485.183594 614.453125 485.183594 614.453125 Z M 485.183594 614.453125 " fill-opacity="1" fill-rule="nonzero"/><path fill="#872610" d="M 464.21875 646.308594 C 464.21875 646.308594 447.558594 609.113281 450.742188 604.871094 C 453.921875 600.632812 464.21875 646.308594 464.21875 646.308594 Z M 464.21875 646.308594 " fill-opacity="1" fill-rule="nonzero"/><path fill="#872610" d="M 419.984375 643.566406 C 419.984375 643.566406 428.46875 604.339844 433.769531 604.339844 C 439.074219 604.339844 419.984375 643.566406 419.984375 643.566406 Z M 419.984375 643.566406 " fill-opacity="1" fill-rule="nonzero"/><path fill="#b5391d" d="M 361.335938 607.414062 C 358.960938 610.757812 357.183594 613.269531 356.363281 614.410156 C 355.835938 615.15625 355.042969 615.894531 354.058594 616.621094 C 346.40625 610.789062 339.023438 604.082031 332.054688 596.390625 C 334.183594 593.828125 336.6875 591.074219 339.375 588.265625 C 342.617188 592.511719 349.699219 599.945312 361.335938 607.414062 Z M 361.335938 607.414062 " fill-opacity="0.75" fill-rule="nonzero"/><path fill="#b5391d" d="M 485.148438 624.40625 C 484.917969 632.785156 484.015625 643.785156 480.984375 646.308594 C 475.960938 650.492188 464.21875 646.308594 464.21875 646.308594 C 464.21875 646.308594 463.769531 649.796875 462.921875 654.199219 C 449.730469 653.441406 435.09375 651.5625 419.984375 647.761719 L 419.984375 643.570312 C 419.984375 643.570312 417.433594 644.730469 413.953125 646.15625 C 406.746094 644.113281 399.457031 641.609375 392.207031 638.578125 C 391.585938 633.835938 391.273438 629.550781 391.273438 629.550781 C 390.019531 630.804688 386.1875 632.414062 381.703125 633.796875 C 374.277344 630.113281 366.925781 625.824219 359.78125 620.824219 C 359.808594 615.894531 360.390625 610.890625 361.628906 607.609375 C 369.5 612.632812 379.4375 617.660156 391.65625 621.738281 C 393.019531 622.207031 394.410156 622.640625 395.832031 623.074219 C 407.53125 626.625 421.179688 629.285156 436.949219 630.320312 C 455.515625 631.539062 471.558594 628.945312 485.148438 624.40625 Z M 485.148438 624.40625 " fill-opacity="0.75" fill-rule="nonzero"/><path fill="#b5391d" d="M 495.523438 620.402344 C 500.132812 618.355469 504.402344 616.117188 508.335938 613.761719 C 506.644531 617.539062 504.015625 622.003906 501.109375 622.003906 C 499.613281 622 497.609375 621.335938 495.523438 620.402344 Z M 495.523438 620.402344 " fill-opacity="0.75" fill-rule="nonzero"/><path fill="#b5391d" d="M 539.683594 621.160156 C 537.054688 623.789062 520.558594 614.589844 513.519531 610.480469 C 523.226562 603.992188 530.527344 597.082031 535.488281 591.628906 C 541.023438 597.152344 545.269531 601.863281 545.546875 603.558594 C 546.390625 608.589844 543.035156 617.804688 539.683594 621.160156 Z M 539.683594 621.160156 " fill-opacity="0.75" fill-rule="nonzero"/><path fill="#f5833b" d="M 375.261719 714.902344 C 344.859375 745.117188 310.730469 775.292969 308.257812 778.75 C 304.074219 784.613281 293.171875 814.785156 287.292969 824.003906 C 281.5625 833.003906 231.054688 891.566406 227.910156 898.21875 C 231.410156 889.011719 277.398438 789.550781 279.742188 787.203125 C 282.132812 784.816406 298.039062 775.277344 301.21875 772.890625 C 303.574219 771.128906 350.902344 734 375.261719 714.902344 Z M 375.261719 714.902344 " fill-opacity="0.61" fill-rule="nonzero"/><path fill="#f5833b" d="M 517.546875 758.578125 C 512.832031 760.9375 473.144531 746.984375 446.898438 776.609375 C 455.953125 762.480469 470 750.546875 475.121094 746.890625 C 480.800781 742.832031 511.609375 727.792969 505.992188 720.753906 C 509.53125 724.3125 525.679688 740.558594 527.09375 742.683594 C 528.679688 745.066406 522.324219 756.203125 517.546875 758.578125 Z M 517.546875 758.578125 " fill-opacity="0.61" fill-rule="nonzero"/><path fill="#f5833b" d="M 390.433594 939.679688 C 390.433594 939.679688 391.886719 929.789062 391.355469 928.199219 C 390.828125 926.609375 389.234375 927.136719 387.644531 927.667969 C 386.054688 928.195312 390.433594 939.679688 390.433594 939.679688 Z M 390.433594 939.679688 " fill-opacity="1" fill-rule="nonzero"/><path fill="#f5833b" d="M 396.121094 859.292969 C 395.59375 864.058594 401.429688 890.027344 397.191406 895.332031 C 393.886719 899.453125 383.546875 908.691406 379.101562 912.605469 C 384.367188 904.683594 395.464844 892.984375 395.464844 884.347656 C 395.464844 874.292969 391.269531 857.527344 396.296875 852.503906 C 400.578125 848.226562 412.726562 849.398438 418.332031 847.28125 C 415.480469 856.089844 396.664062 854.550781 396.121094 859.292969 Z M 396.121094 859.292969 " fill-opacity="0.61" fill-rule="nonzero"/><path fill="#f06c24" d="M 534.484375 246.421875 C 533.414062 253.011719 531.242188 257.652344 528.785156 259.054688 C 522.914062 262.40625 516.210938 243.964844 516.210938 243.964844 L 475.964844 210.4375 L 446.621094 197.027344 C 446.621094 197.027344 441.585938 212.949219 436.546875 211.277344 C 431.523438 209.59375 430.679688 200.378906 430.679688 200.378906 C 430.679688 200.378906 418.945312 215.46875 413.910156 207.082031 C 410.828125 201.9375 411.84375 188.273438 421.230469 176.9375 C 427.140625 169.796875 436.359375 163.566406 449.972656 160.984375 C 485.183594 154.277344 522.074219 188.636719 530.464844 211.273438 C 535.335938 224.429688 535.957031 237.292969 534.484375 246.421875 Z M 534.484375 246.421875 " fill-opacity="1" fill-rule="nonzero"/><path fill="#d9570f" d="M 534.484375 246.421875 C 533.414062 253.011719 531.242188 257.652344 528.785156 259.054688 C 522.914062 262.40625 516.210938 243.964844 516.210938 243.964844 L 475.964844 210.4375 L 446.621094 197.027344 C 446.621094 197.027344 441.585938 212.949219 436.546875 211.277344 C 431.523438 209.59375 430.679688 200.378906 430.679688 200.378906 C 430.679688 200.378906 418.945312 215.46875 413.910156 207.082031 C 410.828125 201.9375 411.84375 188.273438 421.230469 176.9375 C 418.425781 183.175781 416.339844 189.910156 418.925781 192.5 C 424.136719 197.707031 435.476562 181.953125 435.878906 181.390625 C 435.714844 181.902344 431.738281 193.589844 435.363281 195.15625 C 439.078125 196.746094 446.503906 182.429688 446.503906 182.429688 C 446.503906 182.429688 477.78125 178.195312 500.582031 203.105469 C 523.382812 228.019531 521.792969 247.097656 526.558594 250.800781 C 528.875 252.613281 531.9375 249.796875 534.484375 246.421875 Z M 534.484375 246.421875 " fill-opacity="0.85" fill-rule="nonzero"/><path fill="#e6a410" d="M 516.664062 245.863281 C 516.664062 245.863281 508.660156 245.648438 500.277344 262.410156 C 499.210938 264.546875 497.648438 265.566406 495.742188 265.71875 C 482.6875 266.769531 453.324219 227.199219 453.324219 227.199219 C 453.324219 227.199219 453.449219 226.671875 453.59375 225.726562 C 453.835938 224.160156 454.152344 221.449219 454.105469 218.171875 C 454.023438 211.859375 452.566406 203.445312 446.617188 197.027344 C 446.617188 197.027344 489.367188 188.742188 509.59375 226.753906 C 512.46875 232.140625 514.886719 238.464844 516.664062 245.863281 Z M 516.664062 245.863281 " fill-opacity="1" fill-rule="nonzero"/><path fill="#d69400" d="M 516.664062 245.863281 C 516.664062 245.863281 508.660156 245.648438 500.277344 262.410156 C 499.210938 264.546875 497.648438 265.566406 495.742188 265.71875 L 453.59375 225.726562 C 453.835938 224.160156 454.152344 221.449219 454.105469 218.171875 C 457.5 217.609375 472.285156 215.699219 483.789062 222.542969 C 495.253906 229.351562 506.710938 233.449219 509.59375 226.753906 C 512.46875 232.140625 514.886719 238.464844 516.664062 245.863281 Z M 516.664062 245.863281 " fill-opacity="1" fill-rule="nonzero"/><path fill="#f5833b" d="M 226.085938 917.050781 C 225.25 924.597656 210.15625 963.148438 205.132812 967.339844 C 200.09375 971.535156 155.652344 968.179688 155.652344 968.179688 C 155.652344 968.179688 154.8125 965.367188 154.761719 961.867188 C 154.761719 961.867188 154.761719 961.867188 154.761719 961.855469 C 154.800781 961.773438 154.832031 961.679688 154.875 961.585938 C 154.875 961.585938 154.875 965.820312 158.0625 965.820312 C 161.238281 965.820312 166.542969 965.820312 168.132812 964.765625 C 169.722656 963.707031 171.839844 958.9375 172.382812 956.8125 C 172.910156 954.695312 173.4375 963.175781 175.558594 964.234375 C 177.675781 965.292969 197.832031 967.421875 201.007812 964.765625 C 204.183594 962.117188 210.019531 940.378906 213.195312 935.085938 C 216.382812 929.785156 223.074219 924.976562 226.085938 917.050781 Z M 226.085938 917.050781 " fill-opacity="0.61" fill-rule="nonzero"/><path fill="#f4af14" d="M 492.730469 286.71875 C 492.730469 286.71875 483.882812 277.84375 477.777344 286.851562 C 477.777344 286.851562 460.03125 279.171875 462.546875 270.785156 L 462.535156 270.785156 C 462.511719 270.773438 462.46875 270.773438 462.410156 270.761719 C 458.734375 270.355469 380.304688 261.523438 377.859375 259.882812 C 376.277344 258.832031 391.15625 255.484375 402.484375 253.125 C 409.246094 251.722656 414.746094 250.667969 414.746094 250.667969 C 414.746094 250.667969 421.902344 235.59375 437.738281 226.667969 C 445.523438 222.285156 455.410156 219.394531 467.570312 220.492188 C 483.644531 221.953125 493.519531 231.210938 498.210938 242.722656 C 498.210938 242.734375 498.210938 242.734375 498.210938 242.746094 C 504.296875 257.644531 501.710938 276.320312 492.730469 286.71875 Z M 492.730469 286.71875 " fill-opacity="1" fill-rule="nonzero"/><path fill="#9c3119" d="M 449.265625 272.917969 C 449.21875 273.988281 449.066406 276.121094 449.710938 277.4375 C 450.355469 278.753906 461.472656 276.910156 462.605469 276.214844 C 463.742188 275.523438 462.652344 273.046875 461.652344 271.605469 C 460.652344 270.164062 449.34375 271.214844 449.265625 272.917969 Z M 449.265625 272.917969 " fill-opacity="1" fill-rule="nonzero"/><path fill="#9c3119" d="M 429.226562 268.015625 C 428.414062 268.878906 427.96875 271.359375 428.933594 271.925781 C 429.894531 272.492188 435.242188 274.539062 436.699219 274.488281 C 438.152344 274.4375 439.398438 271.992188 438.890625 270.984375 C 438.386719 269.96875 429.929688 267.261719 429.226562 268.015625 Z M 429.226562 268.015625 " fill-opacity="1" fill-rule="nonzero"/><path fill="#db9a09" d="M 466.386719 258.550781 C 439.910156 250.101562 414.75 250.667969 414.75 250.667969 C 414.75 250.667969 421.90625 235.597656 437.742188 226.671875 C 436.328125 229.484375 435.507812 233.066406 436.421875 237.386719 C 438.828125 248.675781 464.769531 257.980469 466.386719 258.550781 Z M 466.386719 258.550781 " fill-opacity="1" fill-rule="nonzero"/><path fill="#ffc926" d="M 462.410156 270.765625 C 458.734375 270.359375 380.304688 261.523438 377.859375 259.886719 C 376.277344 258.835938 391.15625 255.488281 402.484375 253.128906 C 401.207031 254.097656 400.109375 255.214844 399.664062 256.460938 C 398.292969 260.238281 459.179688 270.238281 462.410156 270.765625 Z M 462.410156 270.765625 " fill-opacity="1" fill-rule="nonzero"/><path fill="#ffc824" d="M 449.414062 224.660156 C 445.789062 225.867188 440.222656 231.371094 440.929688 236.671875 C 441.640625 241.972656 457.546875 235.261719 460.726562 231.371094 C 463.90625 227.484375 456.839844 222.1875 449.414062 224.660156 Z M 449.414062 224.660156 " fill-opacity="1" fill-rule="nonzero"/><path fill="#ffc824" d="M 464.96875 233.136719 C 462.535156 234.964844 458.605469 238.792969 458.957031 240.914062 C 459.308594 243.035156 469.914062 238.792969 471.328125 235.613281 C 472.746094 232.433594 467.792969 231.019531 464.96875 233.136719 Z M 464.96875 233.136719 " fill-opacity="1" fill-rule="nonzero"/><path fill="#e6a30b" d="M 492.730469 286.71875 C 492.730469 286.71875 483.882812 277.84375 477.777344 286.851562 C 477.777344 286.851562 460.03125 279.171875 462.546875 270.785156 C 464.289062 271.136719 482.675781 274.699219 488.746094 272.007812 C 493.792969 269.757812 499.949219 254.832031 498.210938 242.75 C 504.296875 257.644531 501.710938 276.320312 492.730469 286.71875 Z M 492.730469 286.71875 " fill-opacity="1" fill-rule="nonzero"/><path fill="#e69f00" d="M 763.421875 211.519531 C 763.621094 215.984375 723.214844 262.117188 723.214844 262.117188 C 723.214844 262.117188 707.140625 205.9375 708.003906 200.304688 C 708.402344 197.753906 719.265625 176.769531 731.199219 154.183594 C 745.582031 126.988281 761.519531 97.445312 762.636719 94.953125 C 762.808594 94.570312 762.953125 95.042969 763.082031 96.253906 C 764.4375 109.277344 763.242188 207.433594 763.421875 211.519531 Z M 763.421875 211.519531 " fill-opacity="1" fill-rule="nonzero"/><path fill="#eda80c" d="M 763.421875 211.519531 L 739.125 190.320312 L 731.195312 154.183594 C 745.578125 126.988281 761.515625 97.445312 762.632812 94.953125 L 763.078125 96.253906 C 764.4375 109.277344 763.242188 207.433594 763.421875 211.519531 Z M 763.421875 211.519531 " fill-opacity="1" fill-rule="nonzero"/><path fill="#ffb715" d="M 708.007812 200.304688 L 739.132812 190.316406 L 762.632812 94.957031 C 762.632812 94.957031 730.679688 154.851562 708.007812 200.304688 Z M 708.007812 200.304688 " fill-opacity="1" fill-rule="nonzero"/><path fill="#ffd169" d="M 568.4375 961.199219 C 564.578125 960.34375 562.144531 956.519531 563 952.664062 L 720.183594 244.804688 C 721.039062 240.945312 724.863281 238.515625 728.722656 239.367188 C 732.582031 240.222656 735.015625 244.046875 734.160156 247.902344 L 576.976562 955.765625 C 576.121094 959.621094 572.296875 962.054688 568.4375 961.199219 Z M 568.4375 961.199219 " fill-opacity="1" fill-rule="nonzero"/><path fill="#ffb715" d="M 754.855469 235.394531 L 724.503906 293.808594 C 714.839844 298.179688 710.019531 290.589844 710.019531 290.589844 L 708.421875 265.3125 L 705.796875 223.960938 C 715.394531 220.011719 724.667969 220.601562 732.515625 222.894531 C 745.683594 226.746094 754.855469 235.394531 754.855469 235.394531 Z M 754.855469 235.394531 " fill-opacity="1" fill-rule="nonzero"/><path fill="#ffc33b" d="M 708.421875 265.316406 L 705.796875 223.964844 C 715.394531 220.015625 724.667969 220.605469 732.515625 222.898438 C 732.5625 254.320312 715.257812 263.082031 708.421875 265.316406 Z M 708.421875 265.316406 " fill-opacity="1" fill-rule="nonzero"/><path fill="#f7a76d" d="M 710.179688 435.921875 C 712.410156 431.445312 709.058594 425.300781 709.058594 425.300781 C 709.058594 425.300781 710.179688 415.792969 705.144531 414.125 C 700.121094 412.441406 674.957031 413.003906 673.847656 418.597656 C 672.726562 424.179688 677.753906 428.09375 677.753906 428.09375 C 677.753906 428.09375 674.78125 431.007812 675.902344 434.910156 C 676.960938 438.644531 679.796875 439.371094 679.984375 439.285156 C 679.753906 439.511719 675.894531 440.640625 676.4375 444.976562 C 677 449.449219 680.558594 451 680.558594 451 C 680.558594 451 679.996094 454.914062 682.230469 456.585938 C 684.460938 458.269531 689.777344 459.390625 689.777344 459.390625 C 689.777344 459.390625 691.15625 470.371094 685.625 473.957031 C 687.769531 478.242188 685.59375 473.671875 688.515625 477.308594 C 690.757812 480.097656 693.167969 482.804688 695.746094 485.34375 C 703.394531 474.1875 709.164062 465.019531 709.621094 462.742188 C 710.742188 457.144531 710.183594 445.976562 710.183594 445.976562 C 712.414062 442.066406 710.179688 435.921875 710.179688 435.921875 Z M 710.179688 435.921875 " fill-opacity="1" fill-rule="nonzero"/><path fill="#f5833b" d="M 677.753906 428.09375 C 677.753906 428.09375 697.117188 427.3125 699.765625 425.722656 C 702.417969 424.128906 677.753906 428.09375 677.753906 428.09375 Z M 677.753906 428.09375 " fill-opacity="1" fill-rule="nonzero"/><path fill="#f5833b" d="M 679.988281 439.285156 C 679.988281 439.285156 697.648438 435.085938 699.765625 436.320312 C 701.886719 437.558594 679.988281 439.285156 679.988281 439.285156 Z M 679.988281 439.285156 " fill-opacity="1" fill-rule="nonzero"/><path fill="#f5833b" d="M 680.558594 451 C 680.558594 451 698.175781 447.980469 699.589844 448.6875 C 701.003906 449.398438 687.503906 451.722656 680.558594 451 Z M 680.558594 451 " fill-opacity="1" fill-rule="nonzero"/></svg>