<svg xmlns="http://www.w3.org/2000/svg" xmlns:xlink="http://www.w3.org/1999/xlink" width="1080" zoomAndPan="magnify" viewBox="0 0 810 1012.49997" height="1350" preserveAspectRatio="xMidYMid meet" version="1.0"><defs><clipPath id="1d5dd38d39"><path d="M 171.65625 113 L 210 113 L 210 238 L 171.65625 238 Z M 171.65625 113 " clip-rule="nonzero"/></clipPath></defs><path fill="#c98c00" d="M 316.332031 874.097656 C 316.332031 874.097656 313.804688 878.582031 316.332031 881.105469 C 318.855469 883.628906 348.308594 881.949219 354.199219 879.425781 C 360.09375 876.902344 370.1875 859.246094 372.710938 851.675781 C 375.238281 844.109375 365.136719 839.902344 362.613281 842.425781 C 360.089844 844.949219 339.050781 870.175781 339.050781 870.175781 Z M 316.332031 874.097656 " fill-opacity="1" fill-rule="nonzero"/><path fill="#f77a36" d="M 471.171875 220.992188 C 471.171875 220.992188 486.320312 212.585938 494.734375 203.613281 C 503.148438 194.640625 526.710938 192.402344 535.128906 211.460938 C 535.128906 211.460938 520.539062 205.855469 508.199219 209.78125 C 495.855469 213.707031 476.21875 220.992188 471.171875 220.992188 Z M 471.171875 220.992188 " fill-opacity="1" fill-rule="nonzero"/><path fill="#9c3119" d="M 558.140625 339.929688 C 550.976562 358.230469 538.441406 373.84375 525.027344 381.605469 C 523.675781 382.386719 522.355469 383.339844 521.070312 384.460938 C 499.042969 403.585938 486.617188 469.507812 481.863281 500.566406 C 480.324219 510.601562 479.585938 516.992188 479.585938 516.992188 L 461.324219 510.691406 L 436.617188 502.164062 L 387.011719 485.035156 L 339.890625 384.132812 L 284.355469 406.835938 C 284.355469 406.835938 280.980469 432.066406 301.1875 437.949219 C 301.1875 437.949219 238.914062 441.320312 237.222656 391.699219 C 237.136719 388.941406 237.136719 386.382812 237.246094 384 C 238.644531 353.171875 256.394531 352.140625 277.742188 351.679688 C 284.484375 351.535156 291.59375 351.453125 298.660156 350.496094 C 329.796875 346.289062 328.953125 322.753906 328.953125 322.753906 L 355.046875 274.820312 L 344.949219 263.886719 L 344.105469 249.589844 L 371.875 193.894531 C 371.875 193.894531 397.683594 205.859375 405.527344 220.988281 C 405.527344 220.988281 409.054688 232.710938 417.65625 241.792969 C 423.613281 248.105469 432.027344 253.132812 443.398438 252.101562 C 456.472656 250.914062 471.226562 244.703125 487.226562 242.394531 C 505.203125 239.816406 524.742188 242.175781 545.222656 262.203125 C 545.464844 262.445312 545.707031 262.683594 545.9375 262.925781 C 567.699219 284.816406 567.941406 314.898438 558.140625 339.929688 Z M 558.140625 339.929688 " fill-opacity="1" fill-rule="nonzero"/><path fill="#ffbc91" d="M 339.050781 841.585938 C 339.050781 841.585938 335.40625 853.917969 334.285156 855.597656 C 333.160156 857.28125 323.0625 859.523438 320.257812 861.765625 C 317.457031 864.007812 315.769531 872.417969 316.332031 874.097656 C 316.890625 875.777344 348.871094 874.097656 353.355469 872.417969 C 357.847656 870.734375 366.257812 855.597656 365.699219 849.992188 C 365.136719 844.386719 339.050781 841.585938 339.050781 841.585938 Z M 339.050781 841.585938 " fill-opacity="1" fill-rule="nonzero"/><path fill="#9c3119" d="M 492.210938 242.855469 C 492.210938 242.855469 522.503906 226.039062 558.691406 239.492188 C 594.878906 252.945312 583.097656 293.308594 583.097656 293.308594 C 583.097656 293.308594 578.046875 262.195312 557.007812 257.148438 C 535.972656 252.101562 525.871094 265.558594 525.871094 265.558594 Z M 492.210938 242.855469 " fill-opacity="1" fill-rule="nonzero"/><path fill="#f77a36" d="M 486.871094 206.992188 C 486.300781 207.472656 469.570312 221.769531 455.339844 224.0625 C 453.847656 224.304688 452.386719 224.414062 450.980469 224.355469 C 435.828125 223.796875 408.902344 195.199219 408.902344 195.199219 L 339.894531 155.960938 C 339.894531 155.960938 339.300781 155.183594 337.992188 154.117188 C 335.792969 152.363281 331.589844 149.847656 324.742188 148.96875 C 323.6875 148.816406 322.566406 148.726562 321.378906 148.675781 C 308.121094 148.125 292.707031 157.347656 292.222656 157.632812 C 292.617188 156.941406 297.8125 133.535156 323.058594 115.039062 C 344.824219 99.097656 416.324219 81.355469 442 144.757812 C 451.535156 168.296875 439.1875 188.484375 453.777344 200.8125 C 468.140625 212.953125 486.300781 207.164062 486.871094 206.992188 Z M 486.871094 206.992188 " fill-opacity="1" fill-rule="nonzero"/><path fill="#e85f15" d="M 455.339844 224.0625 C 453.84375 224.304688 452.382812 224.414062 450.976562 224.355469 C 435.824219 223.796875 408.898438 195.199219 408.898438 195.199219 L 339.894531 155.960938 C 339.894531 155.960938 339.300781 155.183594 337.992188 154.117188 C 340.585938 151.792969 349.1875 146.027344 368.503906 149.046875 C 392.441406 152.789062 414.128906 179.324219 421.238281 193.890625 C 428.082031 207.933594 442.90625 222.65625 455.339844 224.0625 Z M 455.339844 224.0625 " fill-opacity="1" fill-rule="nonzero"/><path fill="#f4af14" d="M 414.632812 202.105469 C 414.015625 204.421875 412.820312 206.421875 412.820312 206.421875 L 402.726562 206.421875 L 346.066406 175.023438 C 346.066406 175.023438 345.695312 174.484375 345.109375 173.582031 C 343.671875 171.367188 341.023438 166.929688 339.816406 162.789062 C 339.042969 160.179688 338.847656 157.695312 339.890625 155.960938 C 340.648438 154.699219 343 153.582031 346.175781 152.605469 C 356.734375 149.367188 367.832031 150.464844 377.378906 155.074219 C 383.683594 158.105469 389.296875 162.671875 393.636719 168.535156 C 403.132812 181.359375 413.601562 195.640625 414.511719 197.453125 C 415.195312 198.800781 415.054688 200.523438 414.632812 202.105469 Z M 414.632812 202.105469 " fill-opacity="1" fill-rule="nonzero"/><path fill="#fcf1dc" d="M 520.820312 838.222656 C 520.820312 838.222656 492.210938 824.761719 469.492188 829.8125 C 446.769531 834.851562 450.976562 852.515625 399.640625 860.925781 C 398.738281 861.070312 397.835938 861.210938 396.945312 861.332031 C 347.3125 868.335938 319.703125 840.734375 319.703125 840.734375 C 319.703125 840.734375 321.03125 828.175781 322.734375 809.449219 C 326.109375 772.527344 330.917969 711.640625 329.796875 675.929688 C 328.117188 622.109375 313.8125 553.15625 319.703125 490.929688 C 325.589844 428.703125 339.894531 400.945312 339.894531 400.945312 L 362.765625 385.722656 L 380.289062 374.039062 L 389.375 389.136719 L 402.824219 411.476562 L 455.1875 498.492188 L 443.398438 644.816406 C 443.398438 644.816406 514.933594 793.652344 515.777344 796.175781 C 516.613281 798.703125 520.820312 838.222656 520.820312 838.222656 Z M 520.820312 838.222656 " fill-opacity="1" fill-rule="nonzero"/><path fill="#85210a" d="M 521.070312 384.460938 C 499.042969 403.585938 486.617188 469.507812 481.863281 500.566406 L 461.328125 510.6875 L 443.398438 519.515625 L 436.621094 502.160156 L 374.394531 342.925781 L 384.503906 242.011719 L 387.019531 225.191406 C 387.019531 225.191406 402.695312 247.976562 417.660156 241.792969 C 423.613281 248.105469 432.03125 253.132812 443.402344 252.101562 C 456.476562 250.914062 471.230469 244.703125 487.230469 242.394531 C 480.21875 248.191406 470.421875 259.457031 464.445312 279.851562 C 454.347656 314.335938 485.480469 374.871094 519.992188 384.125 C 520.359375 384.226562 520.71875 384.339844 521.070312 384.460938 Z M 521.070312 384.460938 " fill-opacity="1" fill-rule="nonzero"/><path fill="#c98c00" d="M 429.9375 815.515625 C 429.9375 815.515625 438.351562 821.40625 438.351562 827.289062 C 438.351562 833.175781 430.777344 843.265625 426.570312 850.835938 C 422.363281 858.402344 419.835938 880.269531 415.628906 884.472656 C 411.421875 888.675781 375.238281 884.472656 375.238281 884.472656 L 373.554688 878.582031 Z M 429.9375 815.515625 " fill-opacity="1" fill-rule="nonzero"/><path fill="#f0debb" d="M 396.945312 861.332031 C 347.3125 868.335938 319.703125 840.734375 319.703125 840.734375 C 319.703125 840.734375 321.03125 828.175781 322.734375 809.449219 C 325.589844 822.867188 330.460938 841.921875 334.839844 840.464844 C 341.574219 838.222656 341.574219 711.523438 347.1875 723.859375 C 352.792969 736.191406 368.503906 853.914062 375.238281 835.976562 C 381.972656 818.035156 356.164062 648.738281 356.164062 648.738281 C 356.164062 648.738281 396.550781 720.492188 397.683594 723.859375 C 398.804688 727.21875 408.898438 796.738281 412.261719 803.464844 C 414.625 808.210938 403.648438 841.847656 396.945312 861.332031 Z M 396.945312 861.332031 " fill-opacity="1" fill-rule="nonzero"/><path fill="#f0debb" d="M 401.605469 465.414062 C 401.046875 467.09375 389.269531 497.371094 389.269531 497.371094 L 379.734375 539.980469 L 356.726562 633.035156 C 356.726562 633.035156 378.324219 518.671875 383.097656 486.722656 C 384.457031 477.578125 385.898438 425.058594 383.65625 415.527344 C 381.414062 405.988281 378.042969 440.746094 374.683594 448.59375 C 371.320312 456.445312 373 426.175781 370.191406 417.207031 C 367.390625 408.242188 354.492188 465.976562 353.371094 492.882812 C 352.238281 519.792969 349.433594 525.960938 347.757812 520.921875 C 346.074219 515.871094 347.195312 448.035156 348.316406 428.976562 C 349.4375 409.914062 324.75 462.613281 319.707031 490.929688 C 325.597656 428.703125 339.898438 400.945312 339.898438 400.945312 L 362.773438 385.722656 C 372.78125 386.882812 383.550781 388.332031 389.382812 389.136719 C 392.109375 389.507812 393.757812 389.738281 393.757812 389.738281 C 393.757812 389.738281 402.171875 408.796875 402.730469 410.476562 C 402.773438 410.585938 402.796875 410.9375 402.828125 411.476562 C 403.132812 418.917969 402.132812 463.84375 401.605469 465.414062 Z M 401.605469 465.414062 " fill-opacity="1" fill-rule="nonzero"/><path fill="#f5ddae" d="M 627.695312 722.171875 C 627.695312 722.171875 618.773438 746.191406 604.085938 767.414062 C 597.152344 777.460938 588.914062 786.867188 579.726562 792.816406 C 558.472656 806.5625 550.21875 793.367188 542.539062 789.140625 C 539.890625 787.679688 537.308594 787.285156 534.289062 789.449219 C 522.5 797.859375 535.125 816.355469 534.289062 823.929688 C 534.257812 824.183594 534.222656 824.433594 534.167969 824.6875 C 532.605469 831.945312 520.820312 838.222656 520.820312 838.222656 C 520.820312 838.222656 445.078125 786.917969 435.828125 690.222656 C 433.972656 670.789062 433.226562 652.050781 433.226562 634.308594 C 433.226562 563.726562 444.914062 509.074219 444.246094 490.929688 C 443.441406 469.363281 400.640625 392.417969 396.355469 384.746094 C 400.609375 391.660156 439.972656 455.777344 453.5 473.265625 C 467.816406 491.761719 472.859375 522.878906 472.859375 528.757812 C 472.859375 534.238281 456.882812 599.914062 482.261719 644.273438 C 484.207031 647.679688 486.394531 650.949219 488.84375 654.054688 C 497.390625 664.878906 508.664062 674.574219 521.1875 683.027344 C 559.21875 708.679688 608.699219 722.804688 627.695312 722.171875 Z M 627.695312 722.171875 " fill-opacity="1" fill-rule="nonzero"/><path fill="#ffbc91" d="M 444.242188 539.695312 C 434.980469 577.539062 399.636719 649.855469 399.636719 655.738281 C 399.636719 661.632812 415.632812 686.851562 418.148438 696.105469 C 420.675781 705.363281 421.792969 800.652344 421.792969 800.652344 C 421.792969 800.652344 433.582031 814.675781 434.144531 820.285156 C 434.703125 825.882812 421.234375 846.632812 420.113281 850.550781 C 418.992188 854.484375 414.507812 877.460938 410.578125 878.582031 C 406.65625 879.699219 373.550781 878.582031 373.550781 878.582031 C 373.550781 878.582031 373.550781 877.613281 373.628906 876.230469 C 373.792969 873.410156 374.285156 868.875 375.792969 867.371094 C 378.035156 865.132812 385.328125 865.132812 386.449219 863.453125 C 387.570312 861.761719 400.480469 812.148438 399.632812 805.421875 C 398.796875 798.703125 370.179688 701.160156 365.972656 690.222656 C 363.816406 684.601562 360.53125 677.195312 357.984375 668.695312 C 355.566406 660.667969 353.785156 651.675781 354.191406 642.292969 C 354.535156 634.53125 358.9375 612.800781 364.574219 587.070312 C 364.582031 587.058594 364.582031 587.035156 364.582031 587.027344 C 373 548.675781 384.164062 501.457031 388.699219 478.316406 C 396.273438 439.625 393.742188 397.59375 393.742188 397.59375 L 397.949219 388.335938 L 438.523438 456.613281 L 445.917969 469.0625 C 445.917969 469.0625 446.742188 472.632812 447.511719 478.769531 C 447.511719 478.777344 447.511719 478.777344 447.511719 478.777344 C 449.089844 491.246094 450.441406 514.335938 444.242188 539.695312 Z M 444.242188 539.695312 " fill-opacity="1" fill-rule="nonzero"/><path fill="#f4af14" d="M 371.316406 273.257812 L 352.230469 301.164062 C 352.230469 301.164062 348.34375 300.722656 342.894531 299.074219 C 341.390625 298.625 339.761719 298.066406 338.070312 297.40625 C 331.015625 294.652344 322.753906 289.964844 316.886719 282.136719 C 309.890625 272.773438 308.84375 259.34375 309.867188 249.824219 C 309.867188 249.824219 309.867188 249.824219 309.867188 249.816406 C 310.601562 242.953125 312.417969 238.125 313.847656 238.3125 C 313.921875 238.320312 314 238.34375 314.089844 238.386719 C 315.296875 239.078125 316.660156 240.671875 318.460938 242.710938 C 321.210938 245.851562 324.953125 250.070312 330.753906 253.757812 C 331.691406 254.351562 332.675781 254.933594 333.722656 255.492188 C 338.164062 257.882812 344.445312 258.839844 350.542969 259.09375 C 360.605469 259.507812 370.1875 258.035156 370.1875 258.035156 Z M 371.316406 273.257812 " fill-opacity="1" fill-rule="nonzero"/><path fill="#edd5a3" d="M 604.085938 767.414062 C 597.15625 777.460938 588.914062 786.867188 579.730469 792.816406 C 558.472656 806.5625 550.222656 793.367188 542.542969 789.140625 L 542.421875 788.886719 C 542.421875 788.886719 477.347656 717.132812 485.203125 755.25 C 490.90625 782.984375 519.1875 811.304688 534.171875 824.691406 C 532.609375 831.949219 520.820312 838.226562 520.820312 838.226562 C 520.820312 838.226562 445.082031 786.921875 435.832031 690.222656 C 433.976562 670.792969 433.230469 652.050781 433.230469 634.308594 L 482.261719 644.277344 C 484.207031 647.679688 486.394531 650.953125 488.84375 654.058594 C 497.390625 664.882812 508.664062 674.574219 521.1875 683.027344 C 513.582031 690.527344 504.222656 706.390625 521.109375 731.707031 C 540.914062 761.417969 586.773438 766.546875 604.085938 767.414062 Z M 604.085938 767.414062 " fill-opacity="1" fill-rule="nonzero"/><path fill="#f5833b" d="M 447.519531 478.765625 C 439.300781 464.484375 415.933594 425.71875 407.21875 431.214844 C 396.554688 437.945312 391.511719 518.636719 364.59375 587.023438 C 373.011719 548.675781 384.171875 501.457031 388.710938 478.3125 C 396.28125 439.625 393.753906 397.589844 393.753906 397.589844 L 397.960938 388.332031 L 438.535156 456.609375 L 445.929688 469.058594 C 445.925781 469.058594 446.746094 472.628906 447.519531 478.765625 Z M 447.519531 478.765625 " fill-opacity="0.61" fill-rule="nonzero"/><path fill="#d19202" d="M 467.765625 250.292969 C 463.273438 269.183594 443.125 301.167969 443.125 301.167969 C 443.125 301.167969 422.359375 283.789062 422.359375 282.097656 C 422.359375 281.460938 425.90625 275.367188 430.917969 267.605469 C 438.960938 255.132812 450.78125 238.300781 457.703125 232.769531 C 457.703125 232.769531 465 226.597656 468.367188 241.179688 C 468.90625 243.515625 468.621094 246.667969 467.765625 250.292969 Z M 467.765625 250.292969 " fill-opacity="1" fill-rule="nonzero"/><path fill="#b37c00" d="M 467.765625 250.292969 C 466.8125 247.359375 462.867188 237.773438 454.523438 247.710938 C 444.804688 259.304688 444.054688 290.320312 444.054688 290.320312 C 439.496094 285.535156 434.246094 275.203125 430.917969 267.605469 C 438.960938 255.132812 450.78125 238.300781 457.703125 232.769531 C 457.703125 232.769531 465 226.597656 468.367188 241.179688 C 468.90625 243.515625 468.621094 246.667969 467.765625 250.292969 Z M 467.765625 250.292969 " fill-opacity="1" fill-rule="nonzero"/><path fill="#ffbc91" d="M 504.273438 448.59375 L 487.441406 456.445312 C 487.441406 456.445312 455.460938 394.777344 453.21875 388.050781 C 450.976562 381.332031 443.125 356.664062 442.003906 353.292969 C 440.882812 349.933594 425.171875 321.347656 425.171875 321.347656 C 425.171875 321.347656 415.636719 354.421875 412.824219 358.34375 C 410.023438 362.277344 335.972656 359.464844 335.972656 359.464844 L 330.917969 329.195312 L 349.992188 291.066406 C 349.992188 291.066406 369.628906 262.480469 369.628906 258.5625 C 369.628906 258.035156 369.527344 257.308594 369.339844 256.464844 C 368.210938 251.097656 364.023438 240.621094 364.023438 240.621094 C 364.023438 240.621094 369.628906 217.074219 385.335938 217.632812 C 385.335938 217.632812 392.632812 246.78125 395.433594 250.710938 C 398.246094 254.628906 424.613281 259.121094 430.777344 262.480469 C 431.027344 262.625 431.28125 262.789062 431.546875 262.976562 C 434.621094 265.226562 438.007812 270.957031 440.820312 277.167969 C 443.535156 283.175781 445.683594 289.640625 446.488281 293.878906 C 448.171875 302.847656 460.519531 338.726562 461.640625 342.085938 C 462.761719 345.457031 477.351562 365.636719 480.714844 374.046875 C 481.097656 375 481.703125 376.726562 482.472656 379.007812 C 488.417969 396.699219 504.273438 448.59375 504.273438 448.59375 Z M 504.273438 448.59375 " fill-opacity="1" fill-rule="nonzero"/><path fill="#f5833b" d="M 369.339844 256.460938 C 368.207031 251.09375 364.019531 240.617188 364.019531 240.617188 C 368.667969 232.417969 378.984375 215.753906 380.101562 227.53125 C 381.542969 242.757812 373.25 252.691406 369.339844 256.460938 Z M 369.339844 256.460938 " fill-opacity="1" fill-rule="nonzero"/><path fill="#ffbc91" d="M 381.410156 223.238281 C 381.410156 223.238281 379.355469 237.996094 374.117188 243.417969 C 367.589844 250.171875 348.308594 256.878906 343.816406 256.308594 C 340.839844 255.9375 335.125 242.855469 333.441406 235.847656 C 333.105469 234.457031 330.167969 231.652344 330.355469 231.085938 C 330.914062 229.398438 335.96875 223.796875 335.96875 220.984375 C 335.96875 218.1875 333.15625 211.457031 333.714844 209.214844 C 333.914062 208.425781 334.527344 206.097656 335.253906 203.421875 C 335.976562 200.675781 336.816406 197.558594 337.417969 195.351562 C 337.890625 193.59375 338.207031 192.398438 338.207031 192.398438 C 342.21875 189.457031 352.074219 192.496094 361.300781 196.492188 C 371.453125 200.875 380.847656 206.417969 380.847656 206.417969 C 380.847656 206.417969 386.777344 204.835938 390.03125 207.417969 C 391.097656 208.253906 391.878906 209.539062 392.066406 211.457031 C 393.191406 222.679688 381.410156 223.238281 381.410156 223.238281 Z M 381.410156 223.238281 " fill-opacity="1" fill-rule="nonzero"/><path fill="#e39d00" d="M 414.632812 202.105469 C 414.015625 204.421875 412.820312 206.421875 412.820312 206.421875 L 402.726562 206.421875 L 346.066406 175.023438 C 346.066406 175.023438 345.695312 174.484375 345.109375 173.582031 C 347.746094 173.242188 357.355469 173.378906 368.128906 175.585938 C 382.714844 178.578125 390.945312 166.242188 378.222656 155.777344 C 377.890625 155.503906 377.605469 155.273438 377.375 155.078125 C 383.679688 158.109375 389.292969 162.675781 393.636719 168.539062 C 403.128906 181.363281 413.597656 195.644531 414.507812 197.457031 C 415.195312 198.800781 415.054688 200.523438 414.632812 202.105469 Z M 414.632812 202.105469 " fill-opacity="1" fill-rule="nonzero"/><path fill="#ffa063" d="M 390.035156 207.417969 C 384.640625 205.582031 373.117188 208.757812 360.929688 209.503906 C 350.902344 210.109375 340.265625 205.796875 335.257812 203.421875 C 335.980469 200.675781 336.816406 197.5625 337.421875 195.351562 C 343.816406 195.648438 352.605469 196.054688 361.304688 196.492188 C 371.457031 200.875 380.851562 206.417969 380.851562 206.417969 C 380.851562 206.417969 386.785156 204.839844 390.035156 207.417969 Z M 390.035156 207.417969 " fill-opacity="1" fill-rule="nonzero"/><path fill="#ffb715" d="M 412.824219 206.417969 L 412.261719 219.867188 C 412.261719 219.867188 403.847656 223.796875 404.40625 232.207031 C 404.40625 232.207031 403.285156 201.367188 380.851562 206.417969 C 380.851562 206.417969 344.386719 212.019531 327.554688 191.277344 C 327.554688 191.277344 328.851562 189.324219 331.324219 186.613281 C 334.453125 183.164062 339.464844 178.476562 346.066406 175.019531 L 356.933594 176.53125 C 378.523438 179.542969 398.339844 190.136719 412.824219 206.417969 Z M 412.824219 206.417969 " fill-opacity="1" fill-rule="nonzero"/><path fill="#f59051" d="M 440.816406 277.164062 C 429.433594 309.027344 408.339844 309.574219 408.339844 309.574219 L 403.285156 301.722656 C 403.285156 301.722656 425.167969 269.765625 426.851562 267.527344 C 427.28125 266.957031 429.160156 265 431.542969 262.96875 C 434.617188 265.21875 438.003906 270.949219 440.816406 277.164062 Z M 440.816406 277.164062 " fill-opacity="1" fill-rule="nonzero"/><path fill="#e39d00" d="M 341.015625 293.875 L 338.070312 297.410156 C 331.015625 294.65625 322.753906 289.96875 316.886719 282.140625 C 309.890625 272.773438 308.84375 259.347656 309.867188 249.828125 C 309.867188 249.828125 309.867188 249.828125 309.867188 249.820312 C 311.339844 245.460938 312.824219 241.222656 313.847656 238.316406 C 313.921875 238.324219 314 238.347656 314.089844 238.390625 C 315.296875 239.082031 316.660156 240.675781 318.460938 242.714844 C 321.210938 245.855469 324.953125 250.070312 330.753906 253.761719 C 331.691406 254.355469 332.675781 254.9375 333.722656 255.496094 C 320.25 274.859375 341.015625 293.875 341.015625 293.875 Z M 341.015625 293.875 " fill-opacity="1" fill-rule="nonzero"/><path fill="#f4af14" d="M 438.101562 246.164062 C 445.242188 242.230469 451.117188 237.984375 454.515625 235.351562 C 444.132812 245.570312 437.726562 270.40625 428.53125 288.265625 C 420.523438 303.832031 410.382812 308.117188 406.539062 309.214844 C 405.539062 309.5 404.96875 309.578125 404.96875 309.578125 C 399.363281 295.558594 407.78125 255.75 407.78125 255.75 C 418.339844 255.496094 429.214844 251.066406 438.101562 246.164062 Z M 438.101562 246.164062 " fill-opacity="1" fill-rule="nonzero"/><path fill="#ffcf40" d="M 438.101562 246.164062 C 445.242188 242.230469 451.117188 237.984375 454.515625 235.351562 C 444.132812 245.570312 437.726562 270.40625 428.53125 288.265625 C 420.523438 303.832031 410.382812 308.117188 406.539062 309.214844 L 407.21875 305.644531 C 407.21875 305.644531 417.316406 297.792969 422.359375 284.90625 C 426.125 275.289062 431.136719 257.875 438.101562 246.164062 Z M 438.101562 246.164062 " fill-opacity="1" fill-rule="nonzero"/><path fill="#ffcf40" d="M 343.816406 296.09375 L 342.894531 299.074219 C 335.117188 296.714844 324.160156 291.847656 316.886719 282.136719 C 304.550781 265.644531 310.722656 236.488281 314.089844 238.386719 C 315.296875 239.082031 316.660156 240.671875 318.460938 242.722656 C 316.054688 246.933594 313.640625 255.089844 317.453125 268.828125 C 323.625 291.011719 343.816406 296.09375 343.816406 296.09375 Z M 343.816406 296.09375 " fill-opacity="1" fill-rule="nonzero"/><path fill="#ffbc91" d="M 352.230469 339.84375 C 352.230469 339.84375 351.109375 393.660156 336.53125 403.1875 C 321.941406 412.714844 259.671875 423.367188 257.429688 424.5 C 255.175781 425.621094 245.078125 437.949219 241.71875 440.1875 C 238.34375 442.4375 223.203125 445.238281 223.203125 445.238281 L 215.910156 427.296875 C 215.910156 427.296875 231.621094 415.527344 229.371094 414.398438 C 227.132812 413.277344 215.910156 417.769531 213.671875 416.648438 C 211.417969 415.527344 211.417969 412.160156 213.109375 411.039062 C 214.792969 409.917969 229.371094 398.710938 232.746094 398.710938 C 236.105469 398.710938 252.9375 407.121094 255.738281 406.558594 C 257.464844 406.210938 282.21875 395.734375 301.332031 386.523438 C 313.375 380.726562 323.195312 375.4375 323.625 373.480469 C 323.808594 372.632812 323.886719 371.007812 323.886719 368.878906 C 323.886719 358.285156 321.941406 335.351562 321.941406 335.351562 L 342.132812 325.261719 Z M 352.230469 339.84375 " fill-opacity="1" fill-rule="nonzero"/><path fill="#f5a471" d="M 363.457031 268.082031 C 363.457031 268.082031 351.675781 307.886719 350.554688 319.097656 C 349.433594 330.3125 349.992188 348.25 353.355469 352.175781 C 356.722656 356.101562 361.769531 352.734375 361.769531 352.734375 L 408.894531 313.492188 C 408.894531 313.492188 415.628906 326.945312 415.066406 334.796875 C 414.507812 342.644531 402.164062 362.828125 402.164062 362.828125 L 338.769531 375.160156 C 338.769531 375.160156 331.476562 340.402344 331.476562 338.722656 C 331.480469 337.039062 363.457031 268.082031 363.457031 268.082031 Z M 363.457031 268.082031 " fill-opacity="1" fill-rule="nonzero"/><path fill="#f4af14" d="M 457.667969 232.792969 C 457.472656 232.96875 456.351562 233.921875 454.515625 235.351562 C 455.527344 234.347656 456.570312 233.492188 457.667969 232.792969 Z M 457.667969 232.792969 " fill-opacity="1" fill-rule="nonzero"/><path fill="#fcf1dc" d="M 393.75 362.269531 C 392.066406 362.832031 361.207031 364.511719 361.207031 364.511719 C 361.207031 364.511719 357.285156 342.082031 358.40625 333.113281 C 359.023438 328.203125 369.195312 313.417969 379.953125 296.347656 L 379.953125 296.335938 C 388.136719 283.316406 396.652344 269 401.519531 256.703125 L 401.527344 256.703125 C 401.957031 255.617188 402.351562 254.550781 402.726562 253.507812 C 402.726562 253.507812 406.660156 251.269531 407.777344 255.75 C 407.777344 255.75 408.339844 315.738281 410.578125 328.078125 C 412.824219 340.402344 395.429688 361.699219 393.75 362.269531 Z M 393.75 362.269531 " fill-opacity="1" fill-rule="nonzero"/><path fill="#fcf1dc" d="M 347.1875 354.980469 L 335.410156 357.777344 L 326.421875 346.570312 C 326.421875 346.570312 308.472656 330.3125 319.699219 319.101562 C 319.917969 318.882812 320.148438 318.652344 320.378906 318.402344 C 327.125 311.265625 339.367188 293.117188 349.121094 278.648438 C 349.144531 278.625 349.164062 278.605469 349.175781 278.582031 C 356.273438 268.054688 362.0625 259.480469 363.460938 258.554688 C 366.820312 256.304688 369.625 258.554688 369.625 258.554688 C 338.210938 311.816406 347.1875 354.980469 347.1875 354.980469 Z M 347.1875 354.980469 " fill-opacity="1" fill-rule="nonzero"/><path fill="#e3a10b" d="M 561.003906 368.984375 C 562.277344 369.308594 563.527344 369.699219 564.765625 370.152344 C 566 370.609375 567.21875 371.132812 568.414062 371.71875 C 569.613281 372.304688 570.789062 372.957031 571.945312 373.675781 C 573.101562 374.390625 574.234375 375.171875 575.347656 376.015625 C 576.460938 376.859375 577.550781 377.769531 578.617188 378.738281 C 579.679688 379.710938 580.722656 380.742188 581.738281 381.835938 C 582.753906 382.929688 583.746094 384.085938 584.710938 385.300781 C 585.675781 386.515625 586.613281 387.789062 587.523438 389.125 C 588.433594 390.457031 589.316406 391.847656 590.171875 393.296875 C 591.027344 394.742188 591.851562 396.246094 592.648438 397.808594 C 593.445312 399.367188 594.210938 400.980469 594.945312 402.648438 C 595.683594 404.3125 596.386719 406.03125 597.0625 407.804688 C 597.734375 409.574219 598.378906 411.394531 598.988281 413.265625 C 599.597656 415.132812 600.175781 417.050781 600.722656 419.015625 C 601.265625 420.980469 601.78125 422.992188 602.257812 425.046875 C 602.738281 427.101562 603.183594 429.199219 603.59375 431.339844 C 604.007812 433.476562 604.382812 435.65625 604.726562 437.878906 C 605.070312 440.097656 605.378906 442.355469 605.652344 444.648438 C 605.925781 446.945312 606.164062 449.273438 606.367188 451.636719 C 606.570312 454 606.742188 456.394531 606.875 458.824219 C 607.007812 461.25 607.105469 463.707031 607.167969 466.191406 C 607.230469 468.675781 607.257812 471.1875 607.25 473.722656 C 607.238281 476.257812 607.195312 478.816406 607.117188 481.398438 C 607.039062 483.980469 606.921875 486.582031 606.773438 489.203125 C 606.621094 491.824219 606.4375 494.460938 606.214844 497.113281 C 605.996094 499.769531 605.742188 502.433594 605.449219 505.117188 C 605.160156 507.796875 604.835938 510.488281 604.476562 513.1875 C 604.117188 515.886719 603.722656 518.59375 603.292969 521.308594 C 602.867188 524.023438 602.40625 526.738281 601.910156 529.460938 C 601.414062 532.183594 600.886719 534.902344 600.324219 537.625 C 599.765625 540.347656 599.171875 543.066406 598.542969 545.78125 C 597.917969 548.496094 597.261719 551.203125 596.570312 553.90625 C 595.882812 556.609375 595.164062 559.304688 594.414062 561.988281 C 593.660156 564.671875 592.882812 567.339844 592.070312 570 C 591.261719 572.65625 590.421875 575.300781 589.554688 577.925781 C 588.683594 580.550781 587.789062 583.160156 586.867188 585.746094 C 585.941406 588.332031 584.992188 590.898438 584.011719 593.441406 C 583.035156 595.984375 582.035156 598.503906 581.003906 600.996094 C 579.976562 603.488281 578.925781 605.953125 577.847656 608.386719 C 576.769531 610.824219 575.667969 613.226562 574.546875 615.601562 C 573.421875 617.976562 572.277344 620.3125 571.113281 622.617188 C 569.945312 624.921875 568.757812 627.191406 567.550781 629.421875 C 566.34375 631.652344 565.121094 633.84375 563.875 635.996094 C 562.628906 638.148438 561.367188 640.257812 560.089844 642.324219 C 558.808594 644.394531 557.515625 646.417969 556.203125 648.394531 C 554.894531 650.371094 553.570312 652.304688 552.230469 654.1875 C 550.890625 656.070312 549.539062 657.90625 548.175781 659.691406 C 546.8125 661.476562 545.4375 663.210938 544.050781 664.894531 C 542.664062 666.574219 541.269531 668.203125 539.863281 669.777344 C 538.457031 671.355469 537.046875 672.875 535.625 674.339844 C 534.207031 675.804688 532.78125 677.210938 531.351562 678.5625 C 529.917969 679.910156 528.484375 681.203125 527.042969 682.433594 C 525.601562 683.667969 524.160156 684.839844 522.714844 685.953125 C 521.273438 687.0625 519.828125 688.113281 518.378906 689.101562 C 516.933594 690.089844 515.488281 691.015625 514.046875 691.878906 C 512.601562 692.742188 511.160156 693.542969 509.722656 694.277344 C 508.285156 695.011719 506.851562 695.683594 505.421875 696.289062 C 503.992188 696.894531 502.570312 697.433594 501.15625 697.910156 C 499.738281 698.386719 498.328125 698.792969 496.929688 699.136719 C 495.527344 699.480469 494.136719 699.753906 492.757812 699.964844 C 491.375 700.175781 490.003906 700.320312 488.648438 700.394531 C 487.289062 700.472656 485.941406 700.480469 484.609375 700.425781 C 483.277344 700.367188 481.960938 700.242188 480.65625 700.050781 C 479.351562 699.863281 478.066406 699.605469 476.792969 699.28125 C 475.523438 698.957031 474.269531 698.566406 473.035156 698.113281 C 471.796875 697.65625 470.582031 697.136719 469.382812 696.546875 C 468.1875 695.960938 467.007812 695.308594 465.851562 694.59375 C 464.695312 693.875 463.5625 693.09375 462.449219 692.25 C 461.339844 691.40625 460.25 690.496094 459.183594 689.527344 C 458.117188 688.558594 457.078125 687.523438 456.058594 686.429688 C 455.042969 685.335938 454.054688 684.179688 453.089844 682.964844 C 452.125 681.75 451.1875 680.476562 450.277344 679.144531 C 449.363281 677.808594 448.480469 676.417969 447.628906 674.972656 C 446.773438 673.523438 445.949219 672.019531 445.152344 670.460938 C 444.355469 668.898438 443.589844 667.285156 442.851562 665.621094 C 442.117188 663.953125 441.410156 662.234375 440.738281 660.464844 C 440.0625 658.691406 439.421875 656.871094 438.8125 655.003906 C 438.199219 653.132812 437.621094 651.214844 437.078125 649.25 C 436.53125 647.285156 436.019531 645.273438 435.539062 643.21875 C 435.0625 641.164062 434.617188 639.066406 434.203125 636.929688 C 433.792969 634.789062 433.414062 632.609375 433.070312 630.386719 C 432.730469 628.167969 432.421875 625.910156 432.148438 623.617188 C 431.871094 621.320312 431.632812 618.992188 431.429688 616.628906 C 431.226562 614.265625 431.058594 611.871094 430.925781 609.441406 C 430.792969 607.015625 430.695312 604.558594 430.632812 602.074219 C 430.570312 599.589844 430.542969 597.082031 430.550781 594.542969 C 430.558594 592.007812 430.601562 589.449219 430.683594 586.867188 C 430.761719 584.285156 430.875 581.683594 431.027344 579.0625 C 431.175781 576.441406 431.363281 573.804688 431.582031 571.152344 C 431.804688 568.496094 432.058594 565.832031 432.347656 563.152344 C 432.640625 560.46875 432.964844 557.78125 433.324219 555.078125 C 433.683594 552.378906 434.078125 549.671875 434.503906 546.957031 C 434.933594 544.242188 435.394531 541.527344 435.890625 538.804688 C 436.382812 536.085938 436.914062 533.363281 437.472656 530.640625 C 438.035156 527.921875 438.628906 525.203125 439.253906 522.488281 C 439.878906 519.769531 440.539062 517.0625 441.226562 514.359375 C 441.914062 511.65625 442.636719 508.964844 443.386719 506.28125 C 444.136719 503.597656 444.917969 500.925781 445.726562 498.265625 C 446.539062 495.609375 447.378906 492.96875 448.246094 490.339844 C 449.113281 487.714844 450.011719 485.109375 450.933594 482.519531 C 451.855469 479.933594 452.808594 477.367188 453.785156 474.824219 C 454.761719 472.28125 455.765625 469.761719 456.792969 467.269531 C 457.820312 464.777344 458.875 462.3125 459.953125 459.878906 C 461.027344 457.441406 462.128906 455.039062 463.253906 452.664062 C 464.375 450.292969 465.519531 447.953125 466.6875 445.648438 C 467.851562 443.34375 469.039062 441.074219 470.246094 438.84375 C 471.453125 436.613281 472.679688 434.421875 473.921875 432.269531 C 475.167969 430.117188 476.429688 428.007812 477.710938 425.941406 C 478.988281 423.871094 480.285156 421.851562 481.59375 419.871094 C 482.90625 417.894531 484.230469 415.960938 485.570312 414.078125 C 486.90625 412.195312 488.257812 410.359375 489.625 408.574219 C 490.988281 406.789062 492.363281 405.054688 493.75 403.375 C 495.136719 401.691406 496.53125 400.0625 497.933594 398.488281 C 499.339844 396.910156 500.753906 395.390625 502.171875 393.925781 C 503.589844 392.464844 505.015625 391.054688 506.449219 389.707031 C 507.878906 388.355469 509.316406 387.0625 510.753906 385.832031 C 512.195312 384.597656 513.636719 383.425781 515.082031 382.316406 C 516.527344 381.203125 517.972656 380.152344 519.417969 379.164062 C 520.863281 378.175781 522.308594 377.25 523.753906 376.386719 C 525.195312 375.523438 526.636719 374.722656 528.074219 373.988281 C 529.511719 373.253906 530.945312 372.582031 532.375 371.976562 C 533.804688 371.371094 535.226562 370.832031 536.644531 370.355469 C 538.0625 369.882812 539.46875 369.472656 540.871094 369.128906 C 542.269531 368.785156 543.660156 368.511719 545.042969 368.300781 C 546.421875 368.089844 547.792969 367.949219 549.152344 367.871094 C 550.511719 367.792969 551.855469 367.785156 553.1875 367.84375 C 554.519531 367.898438 555.839844 368.023438 557.140625 368.214844 C 558.445312 368.40625 559.734375 368.660156 561.003906 368.984375 Z M 561.003906 368.984375 " fill-opacity="1" fill-rule="nonzero"/><path fill="#ffcf40" d="M 602.023438 548.921875 C 584.402344 623.28125 539.054688 677.113281 504.078125 668.832031 C 469.101562 660.554688 455.035156 593.5625 472.65625 519.203125 C 476.195312 504.28125 480.738281 490.1875 486.035156 477.269531 C 507.082031 425.832031 539.933594 392.933594 567.894531 399.542969 C 568.578125 399.707031 569.253906 399.890625 569.929688 400.109375 C 603.515625 410.441406 619.296875 476.023438 602.023438 548.921875 Z M 602.023438 548.921875 " fill-opacity="1" fill-rule="nonzero"/><path fill="#f4af14" d="M 609.171875 552.128906 C 608.167969 556.351562 607.050781 560.488281 605.824219 564.546875 C 586.933594 627.332031 542.703125 670.664062 517.789062 664.007812 C 485.378906 655.371094 472.03125 593.789062 488.46875 524.40625 C 499.425781 478.179688 520.808594 440.296875 543.460938 422.613281 C 554.8125 413.753906 566.492188 409.964844 577.332031 412.753906 C 599.675781 418.507812 625.613281 482.746094 609.171875 552.128906 Z M 609.171875 552.128906 " fill-opacity="1" fill-rule="nonzero"/><path fill="#e6a209" d="M 592.027344 599.183594 C 570.242188 642.472656 537.789062 669.351562 517.789062 664.003906 C 485.378906 655.367188 472.03125 593.785156 488.46875 524.402344 C 494.347656 499.566406 503.257812 477.132812 513.75 458.953125 C 505.640625 475.070312 498.789062 493.84375 493.949219 514.222656 C 477.515625 583.605469 490.859375 645.1875 523.269531 653.824219 C 541.648438 658.734375 570.550781 636.433594 592.027344 599.183594 Z M 592.027344 599.183594 " fill-opacity="1" fill-rule="nonzero"/><path fill="#c98c00" d="M 456.914062 507.671875 C 433.664062 598.878906 449.59375 681.667969 492.484375 692.59375 C 499.285156 694.316406 506.347656 694.140625 513.511719 692.261719 C 501.019531 699.609375 488.507812 702.296875 476.785156 699.308594 C 433.882812 688.394531 417.953125 605.597656 441.210938 514.386719 C 460.777344 437.613281 501.878906 379.351562 539.980469 369.339844 C 506.769531 388.875 473.820312 441.371094 456.914062 507.671875 Z M 456.914062 507.671875 " fill-opacity="1" fill-rule="nonzero"/><path fill="#e86e3e" d="M 387.136719 208.507812 C 384.027344 211.871094 382.230469 215.074219 381.226562 219.539062 C 381.074219 220.226562 379.917969 220.035156 380 219.332031 C 380.472656 215.042969 383.226562 210.484375 387 208.316406 C 387.125 208.238281 387.226562 208.414062 387.136719 208.507812 Z M 387.136719 208.507812 " fill-opacity="1" fill-rule="nonzero"/><path fill="#e86e3e" d="M 389.722656 216.132812 C 387.167969 215.855469 384.347656 216.105469 381.972656 217.128906 C 381.246094 217.441406 380.835938 216.367188 381.59375 216.105469 C 384.371094 215.164062 386.96875 215.046875 389.730469 216.082031 C 389.757812 216.09375 389.753906 216.136719 389.722656 216.132812 Z M 389.722656 216.132812 " fill-opacity="1" fill-rule="nonzero"/><path fill="#4f1e20" d="M 349.515625 222.46875 C 349.324219 224.945312 348.078125 226.867188 346.734375 226.761719 C 345.390625 226.65625 344.453125 224.570312 344.640625 222.09375 C 344.832031 219.621094 346.078125 217.695312 347.421875 217.800781 C 348.765625 217.90625 349.703125 219.996094 349.515625 222.46875 Z M 349.515625 222.46875 " fill-opacity="1" fill-rule="nonzero"/><path fill="#4f1e20" d="M 348.96875 222.554688 C 348.914062 221.207031 348.597656 219.761719 348.035156 218.535156 C 347.472656 217.304688 346.625 216.472656 345.710938 215.511719 C 345.289062 215.066406 345.851562 214.324219 346.390625 214.660156 C 348.945312 216.25 349.957031 219.8125 349.019531 222.558594 C 349.007812 222.589844 348.96875 222.585938 348.96875 222.554688 Z M 348.96875 222.554688 " fill-opacity="1" fill-rule="nonzero"/><path fill="#4f1e20" d="M 355.699219 212.984375 C 354.210938 212.824219 352.777344 212.140625 351.339844 211.746094 C 349.78125 211.320312 348.265625 211.242188 346.667969 211.109375 C 344.964844 210.96875 345.058594 208.265625 346.738281 208.121094 C 349.96875 207.847656 354.761719 209.03125 356.347656 212.171875 C 356.566406 212.601562 356.113281 213.027344 355.699219 212.984375 Z M 355.699219 212.984375 " fill-opacity="1" fill-rule="nonzero"/><path fill="#e8612c" d="M 340.144531 240.546875 C 340.78125 241.285156 341.941406 241.367188 342.84375 241.550781 C 343.878906 241.765625 345.066406 242.242188 346.085938 241.878906 C 346.984375 241.566406 347.191406 240.382812 346.351562 239.859375 C 345.417969 239.273438 344.199219 239.464844 343.128906 239.449219 C 342.207031 239.4375 341.023438 239.257812 340.238281 239.839844 C 339.996094 240.023438 339.941406 240.3125 340.144531 240.546875 Z M 340.144531 240.546875 " fill-opacity="1" fill-rule="nonzero"/><path fill="#f5833b" d="M 335.964844 220.71875 C 334.972656 223.519531 333.386719 226 331.464844 228.25 C 330.5 229.378906 329.457031 230.25 329.578125 231.863281 C 329.796875 234.75 333.132812 236.394531 335.664062 235.390625 C 336.804688 234.9375 336.386719 233.144531 335.140625 233.503906 C 332.832031 234.167969 331.074219 232.65625 332.089844 230.160156 C 332.46875 229.230469 333.527344 228.257812 334.015625 227.367188 C 335.152344 225.292969 335.6875 223.066406 336.011719 220.734375 C 336.019531 220.699219 335.976562 220.6875 335.964844 220.71875 Z M 335.964844 220.71875 " fill-opacity="1" fill-rule="nonzero"/><path fill="#ffbb21" d="M 414.632812 202.105469 C 411.886719 198.089844 388.113281 163.824219 370.917969 158.238281 C 370.097656 157.972656 369.292969 157.773438 368.503906 157.644531 C 353.671875 155.230469 343.253906 160.640625 339.816406 162.789062 C 339.042969 160.179688 338.847656 157.695312 339.890625 155.960938 C 340.648438 154.699219 343 153.582031 346.175781 152.605469 C 354.578125 150.023438 363.324219 150.1875 371.359375 152.691406 C 380.082031 155.40625 387.96875 160.871094 393.640625 168.535156 C 403.132812 181.359375 413.601562 195.640625 414.511719 197.453125 C 415.195312 198.800781 415.054688 200.523438 414.632812 202.105469 Z M 414.632812 202.105469 " fill-opacity="1" fill-rule="nonzero"/><path fill="#ffcf40" d="M 404.40625 232.207031 C 404.40625 232.207031 403.285156 201.367188 380.851562 206.417969 C 380.851562 206.417969 344.386719 212.019531 327.554688 191.277344 C 327.554688 191.277344 328.851562 189.324219 331.324219 186.613281 C 334.058594 190.089844 342.59375 199.335938 356.539062 200.25 C 373.742188 201.367188 385.332031 199.5 394.679688 202.859375 C 404.03125 206.230469 412.261719 219.863281 412.261719 219.863281 C 412.261719 219.863281 414.226562 230.800781 404.40625 232.207031 Z M 404.40625 232.207031 " fill-opacity="1" fill-rule="nonzero"/><path fill="#ffcf40" d="M 370.917969 158.234375 C 370.097656 157.972656 369.292969 157.769531 368.503906 157.640625 C 353.671875 155.226562 343.253906 160.636719 339.816406 162.789062 C 339.042969 160.175781 338.847656 157.691406 339.890625 155.960938 C 340.648438 154.699219 343 153.578125 346.175781 152.601562 C 354.578125 150.023438 363.324219 150.1875 371.359375 152.6875 C 370.445312 154.765625 370.492188 156.652344 370.917969 158.234375 Z M 370.917969 158.234375 " fill-opacity="1" fill-rule="nonzero"/><path fill="#ffd559" d="M 342.886719 186.046875 C 342.886719 184.5 341.632812 183.246094 340.082031 183.246094 C 338.535156 183.246094 337.28125 184.5 337.28125 186.046875 C 337.28125 187.59375 338.535156 188.847656 340.082031 188.847656 C 341.632812 188.847656 342.886719 187.597656 342.886719 186.046875 Z M 342.886719 186.046875 " fill-opacity="1" fill-rule="nonzero"/><path fill="#ffd559" d="M 355.976562 193.148438 C 355.976562 191.601562 354.722656 190.347656 353.171875 190.347656 C 351.625 190.347656 350.371094 191.601562 350.371094 193.148438 C 350.371094 194.695312 351.625 195.949219 353.171875 195.949219 C 354.722656 195.953125 355.976562 194.699219 355.976562 193.148438 Z M 355.976562 193.148438 " fill-opacity="1" fill-rule="nonzero"/><path fill="#ffd559" d="M 374.246094 195.386719 C 374.554688 193.867188 373.570312 192.390625 372.054688 192.082031 C 370.535156 191.773438 369.054688 192.757812 368.75 194.273438 C 368.441406 195.792969 369.421875 197.269531 370.941406 197.578125 C 372.460938 197.886719 373.9375 196.902344 374.246094 195.386719 Z M 374.246094 195.386719 " fill-opacity="1" fill-rule="nonzero"/><path fill="#ffd559" d="M 393.132812 197.816406 C 393.441406 196.300781 392.457031 194.824219 390.941406 194.515625 C 389.421875 194.207031 387.941406 195.1875 387.636719 196.707031 C 387.328125 198.222656 388.308594 199.703125 389.828125 200.007812 C 391.347656 200.3125 392.824219 199.335938 393.132812 197.816406 Z M 393.132812 197.816406 " fill-opacity="1" fill-rule="nonzero"/><path fill="#ffd559" d="M 408.84375 205.664062 C 409.152344 204.148438 408.167969 202.667969 406.648438 202.363281 C 405.132812 202.054688 403.652344 203.035156 403.34375 204.554688 C 403.035156 206.070312 404.019531 207.546875 405.539062 207.855469 C 407.054688 208.164062 408.535156 207.179688 408.84375 205.664062 Z M 408.84375 205.664062 " fill-opacity="1" fill-rule="nonzero"/><path fill="#ffa061" d="M 453.78125 200.808594 C 438.628906 191.839844 443.125 169.417969 440.3125 157.078125 C 439.558594 153.78125 438.453125 150.921875 437.226562 148.507812 C 434.4375 143.015625 427.328125 141.554688 422.476562 145.351562 C 420.957031 146.539062 419.746094 147.183594 419.558594 146.429688 C 419.332031 145.527344 420.386719 143.53125 421.71875 141.46875 C 424.445312 137.257812 423.601562 131.691406 419.695312 128.546875 C 416.582031 126.039062 412.054688 122.832031 405.527344 118.964844 C 394.664062 112.519531 381.953125 112.023438 373.609375 112.640625 C 368.625 113.007812 364.726562 117.042969 364.5625 122.03125 C 364.402344 126.96875 363.882812 131.832031 362.339844 129.050781 C 361.515625 127.566406 360.6875 125.742188 359.929688 123.90625 C 357.75 118.597656 351.480469 116.300781 346.398438 118.96875 C 345.632812 119.371094 344.882812 119.78125 344.167969 120.1875 C 339.816406 122.675781 338.101562 128.09375 340.199219 132.648438 C 342.457031 137.546875 344.425781 142.546875 341.574219 139.699219 C 341.527344 139.652344 341.472656 139.597656 341.425781 139.550781 C 335.59375 133.765625 325.589844 137.464844 324.925781 145.644531 C 324.824219 146.910156 324.769531 148.042969 324.746094 148.96875 C 323.6875 148.8125 322.570312 148.722656 321.382812 148.671875 C 308.125 148.121094 292.710938 157.34375 292.222656 157.628906 C 292.621094 156.9375 297.816406 133.53125 323.0625 115.035156 C 344.828125 99.09375 416.328125 81.351562 442.003906 144.753906 C 451.539062 168.292969 439.191406 188.480469 453.78125 200.808594 Z M 453.78125 200.808594 " fill-opacity="1" fill-rule="nonzero"/><g clip-path="url(#1d5dd38d39)"><path fill="#f4af14" d="M 204.441406 230.847656 C 203.914062 235.085938 203.570312 237.808594 203.570312 237.808594 L 195.902344 237.664062 C 195.902344 237.664062 195.496094 236.882812 194.792969 235.535156 C 193.101562 232.273438 189.675781 225.632812 185.96875 218.308594 C 179.246094 205.035156 171.644531 189.476562 171.851562 187.601562 C 172.226562 184.261719 179.71875 115.867188 180.003906 113.355469 C 180.027344 113.132812 180.265625 113.453125 180.695312 114.210938 C 180.695312 114.210938 180.695312 114.21875 180.703125 114.230469 C 185.164062 122.222656 209.347656 178.542969 209.761719 181.671875 C 210.121094 184.332031 206.230469 216.410156 204.441406 230.847656 Z M 204.441406 230.847656 " fill-opacity="1" fill-rule="nonzero"/></g><path fill="#f4af14" d="M 305.351562 883.136719 L 303.222656 883.480469 L 297.902344 884.3125 L 204.375 288.855469 L 198.5625 251.847656 L 194.433594 225.523438 L 201.878906 224.355469 L 205.945312 250.222656 Z M 305.351562 883.136719 " fill-opacity="1" fill-rule="nonzero"/><path fill="#e39f07" d="M 204.441406 230.847656 L 194.792969 235.535156 C 193.101562 232.277344 189.675781 225.636719 185.96875 218.3125 L 195.992188 179.789062 L 180.007812 113.359375 C 180.007812 113.359375 180.25 113.652344 180.699219 114.210938 C 180.699219 114.210938 180.699219 114.222656 180.707031 114.234375 C 185.167969 122.226562 209.347656 178.546875 209.765625 181.675781 C 210.121094 184.332031 206.230469 216.410156 204.441406 230.847656 Z M 204.441406 230.847656 " fill-opacity="1" fill-rule="nonzero"/><path fill="#e39d00" d="M 305.351562 883.136719 L 303.222656 883.480469 C 288.402344 790.941406 211.308594 309.597656 210.296875 304.523438 C 209.78125 301.933594 207.109375 295.28125 204.375 288.859375 L 198.566406 251.851562 L 205.949219 250.226562 Z M 305.351562 883.136719 " fill-opacity="1" fill-rule="nonzero"/><path fill="#ffcf40" d="M 217.878906 261.355469 C 207.769531 272.289062 192.628906 265.558594 192.628906 265.558594 C 193.09375 262.40625 193.222656 259.390625 193.09375 256.523438 C 192.300781 238.726562 181.6875 226.878906 181.6875 226.878906 C 187.773438 220.800781 194.265625 218.921875 199.851562 218.867188 C 208.179688 218.753906 214.507812 222.675781 214.507812 222.675781 C 206.9375 242.011719 217.878906 261.355469 217.878906 261.355469 Z M 217.878906 261.355469 " fill-opacity="1" fill-rule="nonzero"/><path fill="#ffe15c" d="M 193.09375 256.527344 C 192.300781 238.730469 181.6875 226.882812 181.6875 226.882812 C 187.773438 220.800781 194.265625 218.925781 199.851562 218.867188 C 205.757812 234.546875 197.792969 249.585938 193.09375 256.527344 Z M 193.09375 256.527344 " fill-opacity="1" fill-rule="nonzero"/><path fill="#e39d00" d="M 457.667969 232.792969 C 457.472656 232.96875 456.351562 233.921875 454.515625 235.351562 C 455.527344 234.347656 456.570312 233.492188 457.667969 232.792969 Z M 457.667969 232.792969 " fill-opacity="1" fill-rule="nonzero"/><path fill="#f0debb" d="M 393.75 362.269531 C 392.066406 362.832031 361.207031 364.511719 361.207031 364.511719 C 361.207031 364.511719 357.285156 342.082031 358.40625 333.113281 C 359.023438 328.203125 369.195312 313.417969 379.953125 296.347656 C 376.46875 304.195312 369.613281 319.90625 368.503906 324.332031 C 367.011719 330.316406 369.253906 345.640625 370.375 347.878906 C 371.503906 350.121094 377.855469 329.941406 379.363281 328.074219 C 380.855469 326.195312 380.109375 344.890625 380.484375 348.996094 C 380.855469 353.101562 387.207031 350.117188 388.714844 348.625 C 390.207031 347.128906 392.074219 350.492188 393.195312 352.355469 C 394.316406 354.234375 404.785156 339.652344 406.292969 335.921875 C 407.789062 332.175781 406.292969 258.929688 406.292969 257.808594 C 406.292969 256.675781 401.050781 278.359375 399.183594 280.972656 C 397.3125 283.597656 404.785156 256.304688 403.292969 255.929688 C 402.894531 255.832031 402.25 256.160156 401.535156 256.699219 C 401.964844 255.613281 402.355469 254.546875 402.730469 253.503906 C 402.730469 253.503906 406.664062 251.265625 407.785156 255.746094 C 407.785156 255.746094 408.34375 315.734375 410.585938 328.074219 C 412.824219 340.402344 395.429688 361.699219 393.75 362.269531 Z M 393.75 362.269531 " fill-opacity="1" fill-rule="nonzero"/><path fill="#f0debb" d="M 347.1875 354.980469 L 335.410156 357.777344 L 326.421875 346.570312 C 326.421875 346.570312 308.472656 330.3125 319.699219 319.101562 C 319.917969 318.882812 320.148438 318.652344 320.378906 318.402344 C 319.664062 321.289062 318.632812 326.285156 319.136719 329.566406 C 319.886719 334.421875 329.234375 345.640625 328.484375 341.898438 C 327.738281 338.164062 328.859375 329.941406 329.980469 332.554688 C 331.101562 335.167969 337.464844 349.375 337.835938 343.019531 C 338.210938 336.671875 347.558594 300.035156 350.175781 293.691406 C 352.789062 287.335938 365.511719 261.917969 362.898438 263.039062 C 361.382812 263.6875 354.617188 271.835938 349.175781 278.585938 C 356.273438 268.058594 362.0625 259.484375 363.460938 258.5625 C 366.820312 256.308594 369.625 258.5625 369.625 258.5625 C 338.210938 311.816406 347.1875 354.980469 347.1875 354.980469 Z M 347.1875 354.980469 " fill-opacity="1" fill-rule="nonzero"/><path fill="#f4af14" d="M 409.460938 376.277344 C 409.460938 376.277344 408.394531 394.339844 404.96875 398.707031 C 394.871094 411.597656 347.75 405.984375 339.894531 400.945312 C 338.046875 399.761719 336.730469 397.488281 335.785156 394.710938 C 332.730469 385.664062 333.71875 371.238281 333.71875 371.238281 C 333.71875 371.238281 332.28125 369.472656 330.773438 367.320312 C 329.445312 365.441406 328.074219 363.257812 327.554688 361.699219 C 326.421875 358.34375 326.421875 346.574219 326.421875 346.574219 C 326.421875 346.574219 338.488281 355.507812 362.195312 357.714844 C 375.304688 358.945312 391.960938 358.121094 412.109375 352.613281 C 413.273438 352.292969 414.449219 351.960938 415.636719 351.613281 C 415.636719 351.613281 418.4375 350.492188 420.121094 351.050781 C 421.796875 351.613281 413.941406 369.550781 409.460938 376.277344 Z M 409.460938 376.277344 " fill-opacity="1" fill-rule="nonzero"/><path fill="#f5833b" d="M 332.039062 378.519531 C 332.039062 381.332031 326.996094 381.332031 323.621094 380.769531 C 321.664062 380.4375 310.414062 383.722656 301.328125 386.523438 C 313.371094 380.726562 323.195312 375.4375 323.621094 373.480469 C 323.808594 372.632812 323.882812 371.007812 323.882812 368.878906 C 327.347656 372.085938 332.039062 376.753906 332.039062 378.519531 Z M 332.039062 378.519531 " fill-opacity="0.61" fill-rule="nonzero"/><path fill="#f5833b" d="M 482.464844 379 C 481.90625 378.519531 481.324219 377.804688 480.707031 376.839844 C 472.851562 364.507812 452.097656 355.539062 453.78125 355.539062 C 455.464844 355.539062 457.703125 356.101562 458.832031 353.289062 C 459.957031 350.492188 461.632812 342.082031 461.632812 342.082031 C 462.753906 345.453125 477.34375 365.628906 480.707031 374.039062 C 481.089844 374.992188 481.699219 376.71875 482.464844 379 Z M 482.464844 379 " fill-opacity="0.61" fill-rule="nonzero"/><path fill="#e39d00" d="M 409.460938 376.277344 C 409.460938 376.277344 408.394531 394.339844 404.96875 398.707031 C 394.871094 411.597656 347.75 405.984375 339.894531 400.945312 C 338.046875 399.761719 336.730469 397.488281 335.785156 394.710938 C 340.992188 395.402344 352.191406 396.378906 366.261719 394.777344 C 385.898438 392.535156 404.96875 366.191406 389.828125 366.75 C 374.675781 367.308594 356.726562 360.019531 356.726562 360.019531 C 356.726562 360.019531 358.859375 359.117188 362.199219 357.714844 C 375.304688 358.941406 391.964844 358.121094 412.113281 352.609375 C 413.277344 352.289062 414.453125 351.960938 415.640625 351.609375 C 415.640625 351.609375 418.441406 350.488281 420.121094 351.046875 C 421.796875 351.613281 413.941406 369.550781 409.460938 376.277344 Z M 409.460938 376.277344 " fill-opacity="1" fill-rule="nonzero"/><path fill="#ffcf40" d="M 412.109375 352.613281 C 412.042969 352.652344 411.964844 352.6875 411.890625 352.734375 C 373.371094 372.550781 331.480469 355.355469 331.480469 358.34375 C 331.480469 360.902344 330.929688 365.941406 330.777344 367.324219 C 329.449219 365.445312 328.078125 363.261719 327.558594 361.703125 C 326.425781 358.34375 326.425781 346.574219 326.425781 346.574219 C 326.425781 346.574219 355.519531 368.101562 412.109375 352.613281 Z M 412.109375 352.613281 " fill-opacity="1" fill-rule="nonzero"/><path fill="#b83a1d" d="M 558.140625 339.929688 C 541.683594 343.894531 524.894531 320.984375 518.289062 326.109375 C 510.71875 331.996094 509.875 347.96875 507.359375 341.25 C 504.832031 334.523438 500.625 299.203125 512.402344 295 C 524.179688 290.796875 541.855469 308.449219 547.746094 294.15625 C 552.03125 283.75 548.296875 269.761719 545.933594 262.933594 C 567.699219 284.816406 567.941406 314.898438 558.140625 339.929688 Z M 558.140625 339.929688 " fill-opacity="1" fill-rule="nonzero"/><path fill="#ffd559" d="M 342.511719 377.773438 C 342.511719 378.148438 342.4375 378.503906 342.296875 378.847656 C 342.15625 379.191406 341.953125 379.492188 341.6875 379.757812 C 341.425781 380.019531 341.121094 380.222656 340.78125 380.363281 C 340.4375 380.503906 340.078125 380.578125 339.707031 380.578125 C 339.335938 380.578125 338.976562 380.503906 338.632812 380.363281 C 338.289062 380.222656 337.988281 380.019531 337.722656 379.757812 C 337.460938 379.492188 337.257812 379.191406 337.117188 378.847656 C 336.972656 378.503906 336.902344 378.148438 336.902344 377.773438 C 336.902344 377.402344 336.972656 377.046875 337.117188 376.703125 C 337.257812 376.359375 337.460938 376.058594 337.722656 375.792969 C 337.988281 375.53125 338.289062 375.328125 338.632812 375.1875 C 338.976562 375.046875 339.335938 374.972656 339.707031 374.972656 C 340.078125 374.972656 340.4375 375.046875 340.78125 375.1875 C 341.121094 375.328125 341.425781 375.53125 341.6875 375.792969 C 341.953125 376.058594 342.15625 376.359375 342.296875 376.703125 C 342.4375 377.046875 342.511719 377.402344 342.511719 377.773438 Z M 342.511719 377.773438 " fill-opacity="1" fill-rule="nonzero"/><path fill="#ffd559" d="M 355.371094 377.042969 C 355.710938 377.183594 356.015625 377.386719 356.277344 377.648438 C 356.542969 377.914062 356.742188 378.214844 356.886719 378.558594 C 357.027344 378.902344 357.101562 379.257812 357.101562 379.628906 C 357.101562 380.003906 357.027344 380.359375 356.886719 380.703125 C 356.746094 381.046875 356.542969 381.347656 356.277344 381.613281 C 356.015625 381.875 355.710938 382.078125 355.371094 382.21875 C 355.027344 382.359375 354.667969 382.433594 354.296875 382.433594 C 353.925781 382.433594 353.566406 382.359375 353.222656 382.21875 C 352.878906 382.078125 352.578125 381.875 352.3125 381.613281 C 352.050781 381.347656 351.847656 381.046875 351.707031 380.703125 C 351.5625 380.359375 351.492188 380.003906 351.492188 379.628906 C 351.492188 379.257812 351.5625 378.902344 351.707031 378.558594 C 351.847656 378.214844 352.050781 377.914062 352.3125 377.648438 C 352.578125 377.386719 352.878906 377.183594 353.222656 377.042969 C 353.566406 376.898438 353.925781 376.828125 354.296875 376.828125 C 354.667969 376.828125 355.027344 376.898438 355.371094 377.042969 Z M 355.371094 377.042969 " fill-opacity="1" fill-rule="nonzero"/><path fill="#fa813f" d="M 420.117188 850.550781 C 418.996094 854.484375 414.511719 877.460938 410.582031 878.582031 C 406.660156 879.699219 373.554688 878.582031 373.554688 878.582031 C 373.554688 878.582031 373.554688 877.613281 373.628906 876.230469 C 376.09375 874.847656 380 874.847656 383.464844 874.847656 C 387.945312 874.847656 403.285156 875.222656 407.777344 871.863281 C 412.261719 868.492188 417.875 842.707031 420.117188 832.613281 C 422.359375 822.523438 417.875 805.707031 412.261719 803.464844 C 406.65625 801.214844 399.636719 805.417969 399.636719 805.417969 C 398.800781 798.699219 370.179688 701.15625 365.972656 690.222656 C 363.820312 684.597656 360.535156 677.191406 357.988281 668.691406 C 365.152344 675.664062 378.421875 684.949219 384.210938 680.128906 C 390.945312 674.519531 399.636719 655.734375 399.636719 655.734375 C 399.636719 661.628906 415.632812 686.847656 418.148438 696.101562 C 420.675781 705.359375 421.796875 800.652344 421.796875 800.652344 C 421.796875 800.652344 433.582031 814.671875 434.144531 820.28125 C 434.707031 825.882812 421.238281 846.632812 420.117188 850.550781 Z M 420.117188 850.550781 " fill-opacity="0.26" fill-rule="nonzero"/><path fill="#ffd559" d="M 372.433594 380.394531 C 372.433594 378.847656 371.179688 377.59375 369.628906 377.59375 C 368.082031 377.59375 366.828125 378.847656 366.828125 380.394531 C 366.828125 381.941406 368.082031 383.195312 369.628906 383.195312 C 371.179688 383.195312 372.433594 381.941406 372.433594 380.394531 Z M 372.433594 380.394531 " fill-opacity="1" fill-rule="nonzero"/><path fill="#b83a1d" d="M 277.625 395.0625 C 268.359375 397.589844 276.777344 390.859375 274.261719 384.128906 C 272.019531 378.144531 244.523438 395.402344 237.25 383.996094 C 238.648438 353.167969 256.398438 352.136719 277.746094 351.675781 C 274.953125 354.082031 272.679688 357.035156 271.734375 360.578125 C 268.359375 373.195312 288.566406 369.835938 294.453125 374.039062 C 300.34375 378.242188 286.875 392.539062 277.625 395.0625 Z M 277.625 395.0625 " fill-opacity="1" fill-rule="nonzero"/><path fill="#ffc136" d="M 609.171875 552.128906 C 608.167969 556.351562 607.050781 560.488281 605.824219 564.546875 C 586.160156 593.269531 556.695312 620.65625 528.648438 586.542969 C 487.914062 536.988281 529.785156 448.40625 543.457031 422.613281 C 554.808594 413.753906 566.488281 409.964844 577.328125 412.753906 C 599.675781 418.507812 625.613281 482.746094 609.171875 552.128906 Z M 609.171875 552.128906 " fill-opacity="1" fill-rule="nonzero"/><path fill="#ffe678" d="M 568.339844 407.804688 C 568.339844 407.804688 546.414062 408.589844 523.6875 435.988281 C 500.972656 463.378906 493.925781 496.253906 488.433594 493.917969 C 485.628906 492.710938 485.488281 484.757812 486.03125 477.269531 C 507.078125 425.832031 539.929688 392.933594 567.886719 399.542969 C 568.574219 399.707031 569.25 399.890625 569.925781 400.109375 C 571.371094 403.769531 568.339844 407.804688 568.339844 407.804688 Z M 568.339844 407.804688 " fill-opacity="1" fill-rule="nonzero"/><path fill="#ffbc91" d="M 215.535156 427.859375 C 215.535156 427.859375 212.921875 425.617188 212.542969 423 C 212.167969 420.382812 227.40625 413.089844 228.53125 412.71875 C 229.660156 412.347656 231.804688 413.652344 231.054688 416.644531 C 230.308594 419.636719 225.257812 422.625 225.257812 422.625 C 225.257812 422.625 228.625 421.128906 230.867188 421.128906 C 233.113281 421.128906 233.859375 424.117188 232.738281 426.363281 C 231.617188 428.605469 226.007812 431.96875 226.007812 431.96875 C 226.007812 431.96875 230.121094 430.847656 231.992188 431.222656 C 233.859375 431.597656 233.859375 433.089844 233.113281 435.707031 C 232.363281 438.324219 227.5 439.820312 227.5 439.820312 C 227.5 439.820312 231.992188 439.445312 233.113281 440.941406 C 234.234375 442.433594 232.738281 443.554688 231.617188 444.679688 C 230.496094 445.800781 221.890625 446.921875 220.394531 445.800781 C 218.902344 444.679688 220.769531 441.6875 220.769531 441.6875 C 220.769531 441.6875 218.152344 442.0625 217.402344 439.820312 C 216.65625 437.578125 218.523438 434.585938 218.523438 434.585938 C 218.523438 434.585938 212.917969 431.59375 215.535156 427.859375 Z M 215.535156 427.859375 " fill-opacity="1" fill-rule="nonzero"/><path fill="#f5833b" d="M 225.257812 422.625 C 225.257812 422.625 220.394531 425.894531 218.433594 426.175781 C 216.472656 426.457031 225.257812 422.625 225.257812 422.625 Z M 225.257812 422.625 " fill-opacity="1" fill-rule="nonzero"/><path fill="#f5833b" d="M 226.007812 431.964844 C 226.007812 431.964844 221.515625 434.300781 220.394531 434.019531 C 219.273438 433.742188 223.203125 431.875 226.007812 431.964844 Z M 226.007812 431.964844 " fill-opacity="1" fill-rule="nonzero"/><path fill="#f5833b" d="M 227.503906 439.816406 C 227.503906 439.816406 224.324219 442.429688 222.640625 441.59375 C 220.960938 440.75 227.503906 439.816406 227.503906 439.816406 Z M 227.503906 439.816406 " fill-opacity="1" fill-rule="nonzero"/><path fill="#c98c00" d="M 411.503906 678.800781 C 403.785156 685.023438 397.667969 694.734375 392.222656 702.925781 C 386.480469 711.5625 381.511719 720.5 377.636719 730.101562 C 377.09375 731.449219 379.285156 732.332031 379.964844 731.085938 C 384.84375 722.183594 389.757812 713.242188 395.300781 704.726562 C 400.824219 696.242188 408.039062 688.761719 413.300781 680.1875 C 414.027344 679.003906 412.457031 678.027344 411.503906 678.800781 Z M 411.503906 678.800781 " fill-opacity="1" fill-rule="nonzero"/><path fill="#c98c00" d="M 367.335938 700.5 C 370.195312 704.644531 376.304688 706.722656 380.632812 709.105469 C 385.238281 711.648438 389.882812 714.140625 394.421875 716.804688 C 403.984375 722.417969 412.6875 728.917969 419.332031 737.886719 C 420.488281 739.453125 423.136719 737.996094 422 736.328125 C 416.078125 727.636719 407.601562 721.195312 398.699219 715.777344 C 393.855469 712.828125 388.855469 710.152344 383.839844 707.503906 C 379.039062 704.972656 373.066406 700.269531 367.535156 700.148438 C 367.367188 700.144531 367.234375 700.351562 367.335938 700.5 Z M 367.335938 700.5 " fill-opacity="1" fill-rule="nonzero"/><path fill="#c98c00" d="M 421.191406 735.601562 C 414.394531 740.988281 409.1875 749.148438 404.386719 756.28125 C 399.625 763.359375 393.753906 771.359375 391.222656 779.5625 C 390.640625 781.441406 393.160156 782.203125 394.1875 780.8125 C 399.300781 773.875 402.785156 765.386719 407.476562 758.085938 C 412.164062 750.789062 418.179688 744.046875 422.242188 736.410156 C 422.617188 735.707031 421.769531 735.144531 421.191406 735.601562 Z M 421.191406 735.601562 " fill-opacity="1" fill-rule="nonzero"/><path fill="#c98c00" d="M 385.714844 760.382812 C 390.582031 765.378906 397.0625 768.761719 402.914062 772.460938 C 406.042969 774.441406 409.175781 776.445312 412.140625 778.660156 C 415.035156 780.816406 417.511719 783.808594 420.792969 785.328125 C 421.5 785.652344 422.691406 785.089844 422.304688 784.167969 C 419.957031 778.492188 412.351562 774.351562 407.328125 771.226562 C 400.601562 767.042969 393.8125 762.691406 386.882812 758.867188 C 385.929688 758.335938 384.941406 759.585938 385.714844 760.382812 Z M 385.714844 760.382812 " fill-opacity="1" fill-rule="nonzero"/><path fill="#c98c00" d="M 422.476562 784.347656 C 417.546875 787.929688 413.929688 793.523438 410.210938 798.277344 C 406.3125 803.265625 402.261719 808.191406 398.652344 813.390625 C 397.621094 814.875 400.003906 816.742188 401.179688 815.339844 C 405.246094 810.480469 408.925781 805.28125 412.707031 800.203125 C 416.324219 795.347656 420.761719 790.386719 422.917969 784.675781 C 423 784.449219 422.683594 784.199219 422.476562 784.347656 Z M 422.476562 784.347656 " fill-opacity="1" fill-rule="nonzero"/><path fill="#c98c00" d="M 399.214844 808.707031 C 403.84375 813.222656 409.273438 816.886719 413.964844 821.371094 C 418.691406 825.894531 422.980469 830.734375 427.074219 835.835938 C 428.304688 837.367188 431.03125 835.296875 429.824219 833.714844 C 422.246094 823.777344 411.945312 812.460938 400.25 807.378906 C 399.417969 807.015625 398.46875 807.980469 399.214844 808.707031 Z M 399.214844 808.707031 " fill-opacity="1" fill-rule="nonzero"/><path fill="#c98c00" d="M 411.046875 879.296875 C 411.816406 875.398438 405.5 871.367188 402.855469 869.390625 C 398.078125 865.8125 392.632812 862.980469 386.820312 861.546875 C 384.714844 861.023438 384.011719 863.957031 385.945312 864.71875 C 391.203125 866.792969 396.246094 869.046875 400.890625 872.300781 C 403.632812 874.222656 407.421875 879.558594 410.984375 879.34375 C 411.011719 879.34375 411.039062 879.324219 411.046875 879.296875 Z M 411.046875 879.296875 " fill-opacity="1" fill-rule="nonzero"/><path fill="#c98c00" d="M 417.507812 867.769531 C 408.867188 862.316406 395.964844 861 385.925781 860.371094 C 383.851562 860.238281 383.917969 863.351562 385.925781 863.5625 C 391.71875 864.164062 397.484375 864.84375 403.195312 866.019531 C 407.839844 866.972656 412.449219 868.601562 417.1875 868.945312 C 417.84375 868.988281 418 868.078125 417.507812 867.769531 Z M 417.507812 867.769531 " fill-opacity="1" fill-rule="nonzero"/><path fill="#c98c00" d="M 350.273438 873.878906 C 348.710938 870.105469 345.902344 866.796875 343.136719 863.828125 C 340.253906 860.734375 336.773438 857.117188 332.949219 855.214844 C 331.527344 854.507812 329.886719 856.324219 331.171875 857.519531 C 334.199219 860.328125 337.722656 862.503906 340.675781 865.457031 C 343.59375 868.382812 345.917969 871.796875 348.773438 874.757812 C 349.351562 875.359375 350.628906 874.738281 350.273438 873.878906 Z M 350.273438 873.878906 " fill-opacity="1" fill-rule="nonzero"/><path fill="#c98c00" d="M 360.621094 866.828125 C 356.929688 863.6875 352.335938 861.539062 347.996094 859.441406 C 343.597656 857.316406 338.941406 855.078125 334.160156 854.046875 C 332.625 853.71875 331.445312 855.976562 333.027344 856.730469 C 337.425781 858.828125 342.164062 860.226562 346.664062 862.117188 C 351.117188 863.984375 355.355469 866.464844 359.921875 868.03125 C 360.585938 868.257812 361.167969 867.289062 360.621094 866.828125 Z M 360.621094 866.828125 " fill-opacity="1" fill-rule="nonzero"/></svg>