<svg xmlns="http://www.w3.org/2000/svg" xmlns:xlink="http://www.w3.org/1999/xlink" width="1080" zoomAndPan="magnify" viewBox="0 0 810 1012.49997" height="1350" preserveAspectRatio="xMidYMid meet" version="1.0"><defs><clipPath id="be340757c7"><path d="M 45.464844 628.894531 L 763.085938 628.894531 L 763.085938 1012 L 45.464844 1012 Z M 45.464844 628.894531 " clip-rule="nonzero"/></clipPath><clipPath id="ad602dc888"><path d="M 0.464844 0.894531 L 718.085938 0.894531 L 718.085938 384 L 0.464844 384 Z M 0.464844 0.894531 " clip-rule="nonzero"/></clipPath><clipPath id="5275845477"><rect x="0" width="719" y="0" height="384"/></clipPath><clipPath id="0efa8360ad"><path d="M 28 956 L 98 956 L 98 1012 L 28 1012 Z M 28 956 " clip-rule="nonzero"/></clipPath><clipPath id="ca1d927f2a"><path d="M 125 956 L 196 956 L 196 1012 L 125 1012 Z M 125 956 " clip-rule="nonzero"/></clipPath><clipPath id="46d83c2c8e"><path d="M 223 956 L 294 956 L 294 1012 L 223 1012 Z M 223 956 " clip-rule="nonzero"/></clipPath><clipPath id="ebf8199d16"><path d="M 321 956 L 392 956 L 392 1012 L 321 1012 Z M 321 956 " clip-rule="nonzero"/></clipPath><clipPath id="14b060a95d"><path d="M 418 956 L 489 956 L 489 1012 L 418 1012 Z M 418 956 " clip-rule="nonzero"/></clipPath><clipPath id="64fa8a680c"><path d="M 516 956 L 587 956 L 587 1012 L 516 1012 Z M 516 956 " clip-rule="nonzero"/></clipPath><clipPath id="486730be2b"><path d="M 614 956 L 685 956 L 685 1012 L 614 1012 Z M 614 956 " clip-rule="nonzero"/></clipPath><clipPath id="8ec96a848b"><path d="M 712 956 L 782 956 L 782 1012 L 712 1012 Z M 712 956 " clip-rule="nonzero"/></clipPath><clipPath id="c44a1c22ef"><path d="M 0.199219 313.71875 L 809.800781 313.71875 L 809.800781 538 L 0.199219 538 Z M 0.199219 313.71875 " clip-rule="nonzero"/></clipPath></defs><g clip-path="url(#be340757c7)"><g transform="matrix(1, 0, 0, 1, 45, 628)"><g clip-path="url(#5275845477)"><g clip-path="url(#ad602dc888)"><path fill="#7e6d6a" d="M 0.464844 0.894531 L 718.785156 0.894531 L 718.785156 384 L 0.464844 384 Z M 0.464844 0.894531 " fill-opacity="1" fill-rule="nonzero"/></g></g></g></g><path fill="#e2c7b0" d="M 28.117188 587.980469 L 781.882812 587.980469 L 781.882812 657.808594 L 28.117188 657.808594 Z M 28.117188 587.980469 " fill-opacity="1" fill-rule="nonzero"/><path fill="#e2c7b0" d="M 42.074219 649.082031 L 83.953125 649.082031 L 83.953125 984.269531 L 42.074219 984.269531 Z M 42.074219 649.082031 " fill-opacity="1" fill-rule="nonzero"/><path fill="#e2c7b0" d="M 139.785156 649.082031 L 181.660156 649.082031 L 181.660156 984.269531 L 139.785156 984.269531 Z M 139.785156 649.082031 " fill-opacity="1" fill-rule="nonzero"/><path fill="#e2c7b0" d="M 237.496094 649.082031 L 279.371094 649.082031 L 279.371094 984.269531 L 237.496094 984.269531 Z M 237.496094 649.082031 " fill-opacity="1" fill-rule="nonzero"/><path fill="#e2c7b0" d="M 335.207031 649.082031 L 377.082031 649.082031 L 377.082031 984.269531 L 335.207031 984.269531 Z M 335.207031 649.082031 " fill-opacity="1" fill-rule="nonzero"/><path fill="#e2c7b0" d="M 432.917969 649.082031 L 474.792969 649.082031 L 474.792969 984.269531 L 432.917969 984.269531 Z M 432.917969 649.082031 " fill-opacity="1" fill-rule="nonzero"/><path fill="#e2c7b0" d="M 530.628906 649.082031 L 572.503906 649.082031 L 572.503906 984.269531 L 530.628906 984.269531 Z M 530.628906 649.082031 " fill-opacity="1" fill-rule="nonzero"/><path fill="#e2c7b0" d="M 628.339844 649.082031 L 670.214844 649.082031 L 670.214844 984.269531 L 628.339844 984.269531 Z M 628.339844 649.082031 " fill-opacity="1" fill-rule="nonzero"/><path fill="#e2c7b0" d="M 726.046875 649.082031 L 767.925781 649.082031 L 767.925781 984.269531 L 726.046875 984.269531 Z M 726.046875 649.082031 " fill-opacity="1" fill-rule="nonzero"/><path fill="#d6bba7" d="M 69.992188 690.980469 L 83.953125 690.980469 L 83.953125 970.300781 L 69.992188 970.300781 Z M 69.992188 690.980469 " fill-opacity="1" fill-rule="nonzero"/><path fill="#d6bba7" d="M 167.703125 690.980469 L 181.660156 690.980469 L 181.660156 970.300781 L 167.703125 970.300781 Z M 167.703125 690.980469 " fill-opacity="1" fill-rule="nonzero"/><path fill="#d6bba7" d="M 265.414062 690.980469 L 279.371094 690.980469 L 279.371094 970.300781 L 265.414062 970.300781 Z M 265.414062 690.980469 " fill-opacity="1" fill-rule="nonzero"/><path fill="#d6bba7" d="M 363.125 690.980469 L 377.082031 690.980469 L 377.082031 970.300781 L 363.125 970.300781 Z M 363.125 690.980469 " fill-opacity="1" fill-rule="nonzero"/><path fill="#d6bba7" d="M 460.835938 690.980469 L 474.792969 690.980469 L 474.792969 970.300781 L 460.835938 970.300781 Z M 460.835938 690.980469 " fill-opacity="1" fill-rule="nonzero"/><path fill="#d6bba7" d="M 558.542969 690.980469 L 572.503906 690.980469 L 572.503906 970.300781 L 558.542969 970.300781 Z M 558.542969 690.980469 " fill-opacity="1" fill-rule="nonzero"/><path fill="#d6bba7" d="M 656.253906 690.980469 L 670.214844 690.980469 L 670.214844 970.300781 L 656.253906 970.300781 Z M 656.253906 690.980469 " fill-opacity="1" fill-rule="nonzero"/><path fill="#d6bba7" d="M 753.964844 690.980469 L 767.925781 690.980469 L 767.925781 970.300781 L 753.964844 970.300781 Z M 753.964844 690.980469 " fill-opacity="1" fill-rule="nonzero"/><path fill="#a38672" d="M 28.117188 659.554688 L 97.910156 659.554688 L 97.910156 704.945312 L 28.117188 704.945312 Z M 28.117188 659.554688 " fill-opacity="1" fill-rule="nonzero"/><path fill="#ba9a7f" d="M 87.441406 687.835938 L 87.441406 704.945312 L 28.117188 704.945312 L 28.117188 673.523438 L 73.132812 673.523438 C 80.984375 673.523438 87.441406 679.980469 87.441406 687.835938 Z M 87.441406 687.835938 " fill-opacity="1" fill-rule="nonzero"/><path fill="#a38672" d="M 125.828125 659.554688 L 195.621094 659.554688 L 195.621094 704.945312 L 125.828125 704.945312 Z M 125.828125 659.554688 " fill-opacity="1" fill-rule="nonzero"/><path fill="#a38672" d="M 223.539062 659.554688 L 293.332031 659.554688 L 293.332031 704.945312 L 223.539062 704.945312 Z M 223.539062 659.554688 " fill-opacity="1" fill-rule="nonzero"/><path fill="#a38672" d="M 321.25 659.554688 L 391.042969 659.554688 L 391.042969 704.945312 L 321.25 704.945312 Z M 321.25 659.554688 " fill-opacity="1" fill-rule="nonzero"/><path fill="#a38672" d="M 418.957031 659.554688 L 488.75 659.554688 L 488.75 704.945312 L 418.957031 704.945312 Z M 418.957031 659.554688 " fill-opacity="1" fill-rule="nonzero"/><path fill="#a38672" d="M 516.667969 659.554688 L 586.460938 659.554688 L 586.460938 704.945312 L 516.667969 704.945312 Z M 516.667969 659.554688 " fill-opacity="1" fill-rule="nonzero"/><path fill="#a38672" d="M 614.378906 659.554688 L 684.171875 659.554688 L 684.171875 704.945312 L 614.378906 704.945312 Z M 614.378906 659.554688 " fill-opacity="1" fill-rule="nonzero"/><path fill="#a38672" d="M 712.089844 659.554688 L 781.882812 659.554688 L 781.882812 704.945312 L 712.089844 704.945312 Z M 712.089844 659.554688 " fill-opacity="1" fill-rule="nonzero"/><g clip-path="url(#0efa8360ad)"><path fill="#a38672" d="M 28.117188 956.335938 L 97.910156 956.335938 L 97.910156 1012.199219 L 28.117188 1012.199219 Z M 28.117188 956.335938 " fill-opacity="1" fill-rule="nonzero"/></g><path fill="#ba9a7f" d="M 87.441406 956.335938 L 87.441406 987.757812 C 87.441406 995.441406 81.160156 1001.726562 73.484375 1001.726562 L 28.117188 1001.726562 L 28.117188 956.335938 Z M 87.441406 956.335938 " fill-opacity="1" fill-rule="nonzero"/><g clip-path="url(#ca1d927f2a)"><path fill="#a38672" d="M 125.828125 956.335938 L 195.621094 956.335938 L 195.621094 1012.199219 L 125.828125 1012.199219 Z M 125.828125 956.335938 " fill-opacity="1" fill-rule="nonzero"/></g><g clip-path="url(#46d83c2c8e)"><path fill="#a38672" d="M 223.539062 956.335938 L 293.332031 956.335938 L 293.332031 1012.199219 L 223.539062 1012.199219 Z M 223.539062 956.335938 " fill-opacity="1" fill-rule="nonzero"/></g><g clip-path="url(#ebf8199d16)"><path fill="#a38672" d="M 321.25 956.335938 L 391.042969 956.335938 L 391.042969 1012.199219 L 321.25 1012.199219 Z M 321.25 956.335938 " fill-opacity="1" fill-rule="nonzero"/></g><g clip-path="url(#14b060a95d)"><path fill="#a38672" d="M 418.957031 956.335938 L 488.75 956.335938 L 488.75 1012.199219 L 418.957031 1012.199219 Z M 418.957031 956.335938 " fill-opacity="1" fill-rule="nonzero"/></g><g clip-path="url(#64fa8a680c)"><path fill="#a38672" d="M 516.667969 956.335938 L 586.460938 956.335938 L 586.460938 1012.199219 L 516.667969 1012.199219 Z M 516.667969 956.335938 " fill-opacity="1" fill-rule="nonzero"/></g><g clip-path="url(#486730be2b)"><path fill="#a38672" d="M 614.378906 956.335938 L 684.171875 956.335938 L 684.171875 1012.199219 L 614.378906 1012.199219 Z M 614.378906 956.335938 " fill-opacity="1" fill-rule="nonzero"/></g><g clip-path="url(#8ec96a848b)"><path fill="#a38672" d="M 712.089844 956.335938 L 781.882812 956.335938 L 781.882812 1012.199219 L 712.089844 1012.199219 Z M 712.089844 956.335938 " fill-opacity="1" fill-rule="nonzero"/></g><path fill="#ccaf96" d="M 14.160156 635.117188 L 795.839844 635.117188 L 795.839844 663.046875 L 14.160156 663.046875 Z M 14.160156 635.117188 " fill-opacity="1" fill-rule="nonzero"/><path fill="#ba9a7f" d="M 14.160156 533.859375 L 795.839844 533.859375 L 795.839844 593.21875 L 14.160156 593.21875 Z M 14.160156 533.859375 " fill-opacity="1" fill-rule="nonzero"/><path fill="#a0826d" d="M 49.054688 537.351562 L 49.054688 565.285156 C 49.054688 569.125 45.914062 572.269531 42.074219 572.269531 C 38.238281 572.269531 35.097656 569.125 35.097656 565.285156 L 35.097656 537.351562 Z M 49.054688 537.351562 " fill-opacity="1" fill-rule="nonzero"/><path fill="#a0826d" d="M 76.972656 537.351562 L 76.972656 565.285156 C 76.972656 569.125 73.832031 572.269531 69.992188 572.269531 C 66.15625 572.269531 63.015625 569.125 63.015625 565.285156 L 63.015625 537.351562 Z M 76.972656 537.351562 " fill-opacity="1" fill-rule="nonzero"/><path fill="#a0826d" d="M 104.890625 537.351562 L 104.890625 565.285156 C 104.890625 569.125 101.75 572.269531 97.910156 572.269531 C 94.070312 572.269531 90.929688 569.125 90.929688 565.285156 L 90.929688 537.351562 Z M 104.890625 537.351562 " fill-opacity="1" fill-rule="nonzero"/><path fill="#a0826d" d="M 132.808594 537.351562 L 132.808594 565.285156 C 132.808594 569.125 129.667969 572.269531 125.828125 572.269531 C 121.988281 572.269531 118.847656 569.125 118.847656 565.285156 L 118.847656 537.351562 Z M 132.808594 537.351562 " fill-opacity="1" fill-rule="nonzero"/><path fill="#a0826d" d="M 160.722656 537.351562 L 160.722656 565.285156 C 160.722656 569.125 157.582031 572.269531 153.746094 572.269531 C 149.90625 572.269531 146.765625 569.125 146.765625 565.285156 L 146.765625 537.351562 Z M 160.722656 537.351562 " fill-opacity="1" fill-rule="nonzero"/><path fill="#a0826d" d="M 188.640625 537.351562 L 188.640625 565.285156 C 188.640625 569.125 185.5 572.269531 181.660156 572.269531 C 177.824219 572.269531 174.683594 569.125 174.683594 565.285156 L 174.683594 537.351562 Z M 188.640625 537.351562 " fill-opacity="1" fill-rule="nonzero"/><path fill="#a0826d" d="M 216.558594 537.351562 L 216.558594 565.285156 C 216.558594 569.125 213.417969 572.269531 209.578125 572.269531 C 205.742188 572.269531 202.601562 569.125 202.601562 565.285156 L 202.601562 537.351562 Z M 216.558594 537.351562 " fill-opacity="1" fill-rule="nonzero"/><path fill="#a0826d" d="M 244.476562 537.351562 L 244.476562 565.285156 C 244.476562 569.125 241.335938 572.269531 237.496094 572.269531 C 233.65625 572.269531 230.515625 569.125 230.515625 565.285156 L 230.515625 537.351562 Z M 244.476562 537.351562 " fill-opacity="1" fill-rule="nonzero"/><path fill="#a0826d" d="M 272.394531 537.351562 L 272.394531 565.285156 C 272.394531 569.125 269.253906 572.269531 265.414062 572.269531 C 261.574219 572.269531 258.433594 569.125 258.433594 565.285156 L 258.433594 537.351562 Z M 272.394531 537.351562 " fill-opacity="1" fill-rule="nonzero"/><path fill="#a0826d" d="M 300.308594 537.351562 L 300.308594 565.285156 C 300.308594 569.125 297.167969 572.269531 293.332031 572.269531 C 289.492188 572.269531 286.351562 569.125 286.351562 565.285156 L 286.351562 537.351562 Z M 300.308594 537.351562 " fill-opacity="1" fill-rule="nonzero"/><path fill="#a0826d" d="M 328.226562 537.351562 L 328.226562 565.285156 C 328.226562 569.125 325.085938 572.269531 321.25 572.269531 C 317.410156 572.269531 314.269531 569.125 314.269531 565.285156 L 314.269531 537.351562 Z M 328.226562 537.351562 " fill-opacity="1" fill-rule="nonzero"/><path fill="#a0826d" d="M 356.144531 537.351562 L 356.144531 565.285156 C 356.144531 569.125 353.003906 572.269531 349.164062 572.269531 C 345.328125 572.269531 342.1875 569.125 342.1875 565.285156 L 342.1875 537.351562 Z M 356.144531 537.351562 " fill-opacity="1" fill-rule="nonzero"/><path fill="#a0826d" d="M 384.0625 537.351562 L 384.0625 565.285156 C 384.0625 569.125 380.921875 572.269531 377.082031 572.269531 C 373.242188 572.269531 370.101562 569.125 370.101562 565.285156 L 370.101562 537.351562 Z M 384.0625 537.351562 " fill-opacity="1" fill-rule="nonzero"/><path fill="#a0826d" d="M 411.980469 537.351562 L 411.980469 565.285156 C 411.980469 569.125 408.839844 572.269531 405 572.269531 C 401.160156 572.269531 398.019531 569.125 398.019531 565.285156 L 398.019531 537.351562 Z M 411.980469 537.351562 " fill-opacity="1" fill-rule="nonzero"/><path fill="#a0826d" d="M 439.898438 537.351562 L 439.898438 565.285156 C 439.898438 569.125 436.757812 572.269531 432.917969 572.269531 C 429.078125 572.269531 425.9375 569.125 425.9375 565.285156 L 425.9375 537.351562 Z M 439.898438 537.351562 " fill-opacity="1" fill-rule="nonzero"/><path fill="#a0826d" d="M 467.8125 537.351562 L 467.8125 565.285156 C 467.8125 569.125 464.671875 572.269531 460.835938 572.269531 C 456.996094 572.269531 453.855469 569.125 453.855469 565.285156 L 453.855469 537.351562 Z M 467.8125 537.351562 " fill-opacity="1" fill-rule="nonzero"/><path fill="#a0826d" d="M 495.730469 537.351562 L 495.730469 565.285156 C 495.730469 569.125 492.589844 572.269531 488.75 572.269531 C 484.914062 572.269531 481.773438 569.125 481.773438 565.285156 L 481.773438 537.351562 Z M 495.730469 537.351562 " fill-opacity="1" fill-rule="nonzero"/><path fill="#a0826d" d="M 523.648438 537.351562 L 523.648438 565.285156 C 523.648438 569.125 520.507812 572.269531 516.667969 572.269531 C 512.832031 572.269531 509.691406 569.125 509.691406 565.285156 L 509.691406 537.351562 Z M 523.648438 537.351562 " fill-opacity="1" fill-rule="nonzero"/><path fill="#a0826d" d="M 551.566406 537.351562 L 551.566406 565.285156 C 551.566406 569.125 548.425781 572.269531 544.585938 572.269531 C 540.746094 572.269531 537.605469 569.125 537.605469 565.285156 L 537.605469 537.351562 Z M 551.566406 537.351562 " fill-opacity="1" fill-rule="nonzero"/><path fill="#a0826d" d="M 579.484375 537.351562 L 579.484375 565.285156 C 579.484375 569.125 576.34375 572.269531 572.503906 572.269531 C 568.664062 572.269531 565.523438 569.125 565.523438 565.285156 L 565.523438 537.351562 Z M 579.484375 537.351562 " fill-opacity="1" fill-rule="nonzero"/><path fill="#a0826d" d="M 607.398438 537.351562 L 607.398438 565.285156 C 607.398438 569.125 604.257812 572.269531 600.421875 572.269531 C 596.582031 572.269531 593.441406 569.125 593.441406 565.285156 L 593.441406 537.351562 Z M 607.398438 537.351562 " fill-opacity="1" fill-rule="nonzero"/><path fill="#a0826d" d="M 635.316406 537.351562 L 635.316406 565.285156 C 635.316406 569.125 632.175781 572.269531 628.339844 572.269531 C 624.5 572.269531 621.359375 569.125 621.359375 565.285156 L 621.359375 537.351562 Z M 635.316406 537.351562 " fill-opacity="1" fill-rule="nonzero"/><path fill="#a0826d" d="M 663.234375 537.351562 L 663.234375 565.285156 C 663.234375 569.125 660.09375 572.269531 656.253906 572.269531 C 652.417969 572.269531 649.277344 569.125 649.277344 565.285156 L 649.277344 537.351562 Z M 663.234375 537.351562 " fill-opacity="1" fill-rule="nonzero"/><path fill="#a0826d" d="M 691.152344 537.351562 L 691.152344 565.285156 C 691.152344 569.125 688.011719 572.269531 684.171875 572.269531 C 680.332031 572.269531 677.191406 569.125 677.191406 565.285156 L 677.191406 537.351562 Z M 691.152344 537.351562 " fill-opacity="1" fill-rule="nonzero"/><path fill="#a0826d" d="M 719.070312 537.351562 L 719.070312 565.285156 C 719.070312 569.125 715.929688 572.269531 712.089844 572.269531 C 708.25 572.269531 705.109375 569.125 705.109375 565.285156 L 705.109375 537.351562 Z M 719.070312 537.351562 " fill-opacity="1" fill-rule="nonzero"/><path fill="#a0826d" d="M 746.984375 537.351562 L 746.984375 565.285156 C 746.984375 569.125 743.84375 572.269531 740.007812 572.269531 C 736.167969 572.269531 733.027344 569.125 733.027344 565.285156 L 733.027344 537.351562 Z M 746.984375 537.351562 " fill-opacity="1" fill-rule="nonzero"/><path fill="#a0826d" d="M 774.902344 537.351562 L 774.902344 565.285156 C 774.902344 569.125 771.761719 572.269531 767.925781 572.269531 C 764.085938 572.269531 760.945312 569.125 760.945312 565.285156 L 760.945312 537.351562 Z M 774.902344 537.351562 " fill-opacity="1" fill-rule="nonzero"/><g clip-path="url(#c44a1c22ef)"><path fill="#e2c7b0" d="M 809.800781 537.351562 L 0.199219 537.351562 L 405 313.894531 Z M 809.800781 537.351562 " fill-opacity="1" fill-rule="nonzero"/></g><path fill="#ccaf96" d="M 740.007812 537.351562 L 69.992188 537.351562 L 146.765625 495.804688 L 160.722656 488.121094 L 174.683594 480.613281 L 188.640625 473.109375 L 202.601562 465.425781 L 216.558594 457.921875 L 230.515625 450.414062 L 244.476562 442.730469 L 258.433594 435.226562 L 272.394531 427.71875 L 286.351562 420.039062 L 300.308594 412.53125 L 314.269531 405.023438 L 328.226562 397.34375 L 342.1875 389.835938 L 355.96875 382.328125 L 370.101562 374.648438 L 383.714844 367.316406 L 398.019531 359.632812 L 405 355.792969 L 411.980469 359.632812 L 426.285156 367.316406 L 439.898438 374.648438 L 454.03125 382.328125 L 467.8125 389.835938 L 481.773438 397.34375 L 495.730469 405.023438 L 509.691406 412.53125 L 523.648438 420.039062 L 537.605469 427.71875 L 551.566406 435.226562 L 565.523438 442.730469 L 579.484375 450.414062 L 593.441406 457.921875 L 607.398438 465.425781 L 621.359375 473.109375 L 635.316406 480.613281 L 649.277344 488.121094 L 663.234375 495.804688 Z M 740.007812 537.351562 " fill-opacity="1" fill-rule="nonzero"/><path fill="#ba9a7f" d="M 411.980469 359.632812 L 411.980469 383.726562 C 411.980469 387.566406 408.839844 390.707031 405 390.707031 C 401.160156 390.707031 398.019531 387.566406 398.019531 383.726562 L 398.019531 359.632812 L 405 355.792969 Z M 411.980469 359.632812 " fill-opacity="1" fill-rule="nonzero"/><path fill="#ba9a7f" d="M 384.0625 369.757812 L 384.0625 397.691406 C 384.0625 401.53125 380.921875 404.675781 377.082031 404.675781 C 373.242188 404.675781 370.101562 401.53125 370.101562 397.691406 L 370.101562 374.648438 L 383.714844 367.316406 C 383.886719 368.1875 384.0625 368.886719 384.0625 369.757812 Z M 384.0625 369.757812 " fill-opacity="1" fill-rule="nonzero"/><path fill="#ba9a7f" d="M 356.144531 383.726562 L 356.144531 411.65625 C 356.144531 415.5 353.003906 418.640625 349.164062 418.640625 C 345.328125 418.640625 342.1875 415.5 342.1875 411.65625 L 342.1875 389.835938 L 355.96875 382.328125 C 356.144531 382.851562 356.144531 383.203125 356.144531 383.726562 Z M 356.144531 383.726562 " fill-opacity="1" fill-rule="nonzero"/><path fill="#ba9a7f" d="M 328.226562 397.691406 L 328.226562 425.625 C 328.226562 429.464844 325.085938 432.605469 321.25 432.605469 C 317.410156 432.605469 314.269531 429.464844 314.269531 425.625 L 314.269531 405.023438 L 328.226562 397.515625 C 328.226562 397.515625 328.226562 397.691406 328.226562 397.691406 Z M 328.226562 397.691406 " fill-opacity="1" fill-rule="nonzero"/><path fill="#ba9a7f" d="M 300.308594 412.53125 L 300.308594 439.589844 C 300.308594 443.429688 297.167969 446.574219 293.332031 446.574219 C 289.492188 446.574219 286.351562 443.429688 286.351562 439.589844 L 286.351562 420.039062 Z M 300.308594 412.53125 " fill-opacity="1" fill-rule="nonzero"/><path fill="#ba9a7f" d="M 272.394531 427.71875 L 272.394531 453.554688 C 272.394531 457.394531 269.253906 460.539062 265.414062 460.539062 C 261.574219 460.539062 258.433594 457.394531 258.433594 453.554688 L 258.433594 435.226562 Z M 272.394531 427.71875 " fill-opacity="1" fill-rule="nonzero"/><path fill="#ba9a7f" d="M 244.476562 442.730469 L 244.476562 467.523438 C 244.476562 471.363281 241.335938 474.503906 237.496094 474.503906 C 233.65625 474.503906 230.515625 471.363281 230.515625 467.523438 L 230.515625 450.414062 Z M 244.476562 442.730469 " fill-opacity="1" fill-rule="nonzero"/><path fill="#ba9a7f" d="M 216.558594 457.921875 L 216.558594 481.488281 C 216.558594 485.328125 213.417969 488.472656 209.578125 488.472656 C 205.742188 488.472656 202.601562 485.328125 202.601562 481.488281 L 202.601562 465.425781 Z M 216.558594 457.921875 " fill-opacity="1" fill-rule="nonzero"/><path fill="#ba9a7f" d="M 188.640625 473.109375 L 188.640625 495.453125 C 188.640625 499.292969 185.5 502.4375 181.660156 502.4375 C 177.824219 502.4375 174.683594 499.292969 174.683594 495.453125 L 174.683594 480.613281 Z M 188.640625 473.109375 " fill-opacity="1" fill-rule="nonzero"/><path fill="#ba9a7f" d="M 160.722656 488.121094 L 160.722656 509.421875 C 160.722656 513.261719 157.582031 516.402344 153.746094 516.402344 C 149.90625 516.402344 146.765625 513.261719 146.765625 509.421875 L 146.765625 495.804688 Z M 160.722656 488.121094 " fill-opacity="1" fill-rule="nonzero"/><path fill="#ba9a7f" d="M 439.898438 374.648438 L 439.898438 397.691406 C 439.898438 401.53125 436.757812 404.675781 432.917969 404.675781 C 429.078125 404.675781 425.9375 401.53125 425.9375 397.691406 L 425.9375 369.757812 C 425.9375 368.886719 426.113281 368.1875 426.285156 367.316406 Z M 439.898438 374.648438 " fill-opacity="1" fill-rule="nonzero"/><path fill="#ba9a7f" d="M 467.8125 389.835938 L 467.8125 411.65625 C 467.8125 415.5 464.671875 418.640625 460.835938 418.640625 C 456.996094 418.640625 453.855469 415.5 453.855469 411.65625 L 453.855469 383.726562 C 453.855469 383.203125 453.855469 382.851562 454.03125 382.328125 Z M 467.8125 389.835938 " fill-opacity="1" fill-rule="nonzero"/><path fill="#ba9a7f" d="M 495.730469 405.023438 L 495.730469 425.625 C 495.730469 429.464844 492.589844 432.605469 488.75 432.605469 C 484.914062 432.605469 481.773438 429.464844 481.773438 425.625 L 481.773438 397.691406 C 481.773438 397.691406 481.773438 397.515625 481.773438 397.34375 Z M 495.730469 405.023438 " fill-opacity="1" fill-rule="nonzero"/><path fill="#ba9a7f" d="M 523.648438 420.039062 L 523.648438 439.589844 C 523.648438 443.429688 520.507812 446.574219 516.667969 446.574219 C 512.832031 446.574219 509.691406 443.429688 509.691406 439.589844 L 509.691406 412.53125 Z M 523.648438 420.039062 " fill-opacity="1" fill-rule="nonzero"/><path fill="#ba9a7f" d="M 551.566406 435.226562 L 551.566406 453.554688 C 551.566406 457.394531 548.425781 460.539062 544.585938 460.539062 C 540.746094 460.539062 537.605469 457.394531 537.605469 453.554688 L 537.605469 427.71875 Z M 551.566406 435.226562 " fill-opacity="1" fill-rule="nonzero"/><path fill="#ba9a7f" d="M 579.484375 450.414062 L 579.484375 467.523438 C 579.484375 471.363281 576.34375 474.503906 572.503906 474.503906 C 568.664062 474.503906 565.523438 471.363281 565.523438 467.523438 L 565.523438 442.730469 Z M 579.484375 450.414062 " fill-opacity="1" fill-rule="nonzero"/><path fill="#ba9a7f" d="M 607.398438 465.425781 L 607.398438 481.488281 C 607.398438 485.328125 604.257812 488.472656 600.421875 488.472656 C 596.582031 488.472656 593.441406 485.328125 593.441406 481.488281 L 593.441406 457.921875 Z M 607.398438 465.425781 " fill-opacity="1" fill-rule="nonzero"/><path fill="#ba9a7f" d="M 635.316406 480.613281 L 635.316406 495.453125 C 635.316406 499.292969 632.175781 502.4375 628.339844 502.4375 C 624.5 502.4375 621.359375 499.292969 621.359375 495.453125 L 621.359375 473.109375 Z M 635.316406 480.613281 " fill-opacity="1" fill-rule="nonzero"/><path fill="#ba9a7f" d="M 663.234375 495.804688 L 663.234375 509.421875 C 663.234375 513.261719 660.09375 516.402344 656.253906 516.402344 C 652.417969 516.402344 649.277344 513.261719 649.277344 509.421875 L 649.277344 488.121094 Z M 663.234375 495.804688 " fill-opacity="1" fill-rule="nonzero"/><path fill="#ba9a7f" d="M 185.152344 687.835938 L 185.152344 704.945312 L 125.828125 704.945312 L 125.828125 673.523438 L 170.84375 673.523438 C 178.695312 673.523438 185.152344 679.980469 185.152344 687.835938 Z M 185.152344 687.835938 " fill-opacity="1" fill-rule="nonzero"/><path fill="#ba9a7f" d="M 282.863281 687.835938 L 282.863281 704.945312 L 223.539062 704.945312 L 223.539062 673.523438 L 268.554688 673.523438 C 276.40625 673.523438 282.863281 679.980469 282.863281 687.835938 Z M 282.863281 687.835938 " fill-opacity="1" fill-rule="nonzero"/><path fill="#ba9a7f" d="M 380.574219 687.835938 L 380.574219 704.945312 L 321.25 704.945312 L 321.25 673.523438 L 366.265625 673.523438 C 374.117188 673.523438 380.574219 679.980469 380.574219 687.835938 Z M 380.574219 687.835938 " fill-opacity="1" fill-rule="nonzero"/><path fill="#ba9a7f" d="M 478.28125 687.835938 L 478.28125 704.945312 L 418.957031 704.945312 L 418.957031 673.523438 L 463.976562 673.523438 C 471.828125 673.523438 478.28125 679.980469 478.28125 687.835938 Z M 478.28125 687.835938 " fill-opacity="1" fill-rule="nonzero"/><path fill="#ba9a7f" d="M 575.992188 687.835938 L 575.992188 704.945312 L 516.667969 704.945312 L 516.667969 673.523438 L 561.683594 673.523438 C 569.539062 673.523438 575.992188 679.980469 575.992188 687.835938 Z M 575.992188 687.835938 " fill-opacity="1" fill-rule="nonzero"/><path fill="#ba9a7f" d="M 673.703125 687.835938 L 673.703125 704.945312 L 614.378906 704.945312 L 614.378906 673.523438 L 659.394531 673.523438 C 667.246094 673.523438 673.703125 679.980469 673.703125 687.835938 Z M 673.703125 687.835938 " fill-opacity="1" fill-rule="nonzero"/><path fill="#ba9a7f" d="M 771.414062 687.835938 L 771.414062 704.945312 L 712.089844 704.945312 L 712.089844 673.523438 L 757.105469 673.523438 C 764.957031 673.523438 771.414062 679.980469 771.414062 687.835938 Z M 771.414062 687.835938 " fill-opacity="1" fill-rule="nonzero"/><path fill="#ba9a7f" d="M 185.152344 956.335938 L 185.152344 987.757812 C 185.152344 995.441406 178.871094 1001.726562 171.191406 1001.726562 L 125.828125 1001.726562 L 125.828125 956.335938 Z M 185.152344 956.335938 " fill-opacity="1" fill-rule="nonzero"/><path fill="#ba9a7f" d="M 282.863281 956.335938 L 282.863281 987.757812 C 282.863281 995.441406 276.582031 1001.726562 268.902344 1001.726562 L 223.539062 1001.726562 L 223.539062 956.335938 Z M 282.863281 956.335938 " fill-opacity="1" fill-rule="nonzero"/><path fill="#ba9a7f" d="M 380.574219 956.335938 L 380.574219 987.757812 C 380.574219 995.441406 374.289062 1001.726562 366.613281 1001.726562 L 321.25 1001.726562 L 321.25 956.335938 Z M 380.574219 956.335938 " fill-opacity="1" fill-rule="nonzero"/><path fill="#ba9a7f" d="M 478.28125 956.335938 L 478.28125 987.757812 C 478.28125 995.441406 472 1001.726562 464.324219 1001.726562 L 418.957031 1001.726562 L 418.957031 956.335938 Z M 478.28125 956.335938 " fill-opacity="1" fill-rule="nonzero"/><path fill="#ba9a7f" d="M 575.992188 956.335938 L 575.992188 987.757812 C 575.992188 995.441406 569.710938 1001.726562 562.035156 1001.726562 L 516.667969 1001.726562 L 516.667969 956.335938 Z M 575.992188 956.335938 " fill-opacity="1" fill-rule="nonzero"/><path fill="#ba9a7f" d="M 673.703125 956.335938 L 673.703125 987.757812 C 673.703125 995.441406 667.421875 1001.726562 659.746094 1001.726562 L 614.378906 1001.726562 L 614.378906 956.335938 Z M 673.703125 956.335938 " fill-opacity="1" fill-rule="nonzero"/><path fill="#ba9a7f" d="M 771.414062 956.335938 L 771.414062 987.757812 C 771.414062 995.441406 765.132812 1001.726562 757.457031 1001.726562 L 712.089844 1001.726562 L 712.089844 956.335938 Z M 771.414062 956.335938 " fill-opacity="1" fill-rule="nonzero"/></svg>