<svg xmlns="http://www.w3.org/2000/svg" xmlns:xlink="http://www.w3.org/1999/xlink" width="1080" zoomAndPan="magnify" viewBox="0 0 810 1012.49997" height="1350" preserveAspectRatio="xMidYMid meet" version="1.0"><defs><clipPath id="91bcbd2bd7"><path d="M 257 260 L 655.304688 260 L 655.304688 767 L 257 767 Z M 257 260 " clip-rule="nonzero"/></clipPath><clipPath id="b266a8794f"><path d="M 336 408 L 655.304688 408 L 655.304688 767 L 336 767 Z M 336 408 " clip-rule="nonzero"/></clipPath></defs><g clip-path="url(#91bcbd2bd7)"><path fill="#c45575" d="M 620.597656 513.421875 C 621.5625 554.894531 588.773438 591.554688 571.414062 580.945312 C 554.054688 570.328125 535.726562 561.652344 523.1875 590.585938 C 510.652344 619.527344 550.195312 624.34375 543.445312 637.851562 C 536.695312 651.355469 514.507812 665.828125 506.792969 683.1875 C 499.078125 700.546875 511.621094 712.125 447.96875 748.78125 C 402.328125 775.070312 371.058594 766.132812 357.027344 758.984375 C 351.484375 756.148438 348.621094 753.601562 348.621094 753.601562 C 348.621094 753.601562 343.96875 745.410156 336.75 731 C 329.6875 716.890625 320.167969 696.816406 310.167969 672.621094 C 305.34375 660.957031 300.40625 648.335938 295.578125 634.964844 C 270.503906 565.515625 251.214844 477.734375 258.929688 399.605469 C 259.890625 389.816406 261.015625 380.867188 262.234375 372.6875 C 270.734375 315.582031 284.011719 296.390625 284.011719 296.390625 C 292.691406 233.691406 451.824219 272.277344 451.824219 272.277344 C 473.914062 358.898438 543.289062 391.207031 594.933594 403.210938 C 606.832031 405.976562 617.789062 407.65625 627.015625 408.6875 C 644.183594 410.597656 655.328125 410.210938 655.328125 410.210938 C 633.136719 425.640625 619.636719 471.941406 620.597656 513.421875 Z M 620.597656 513.421875 " fill-opacity="1" fill-rule="nonzero"/></g><path fill="#b84364" d="M 588.292969 538.5 C 599.867188 557.304688 572.378906 564.539062 572.378906 564.539062 L 534.765625 558.761719 C 534.765625 558.761719 476.890625 497.992188 458.089844 470.496094 C 439.277344 443 475.449219 577.566406 501.492188 609.398438 C 527.527344 641.238281 511.613281 662.933594 511.613281 662.933594 L 492.804688 661.488281 C 492.804688 661.488281 475.445312 629.65625 462.421875 629.65625 C 449.40625 629.65625 479.789062 707.789062 476.886719 713.578125 C 474 719.367188 419.027344 756.988281 419.027344 756.988281 L 357.019531 758.988281 C 351.476562 756.152344 348.613281 753.605469 348.613281 753.605469 C 348.613281 753.605469 343.960938 745.414062 336.746094 731.003906 C 329.683594 716.894531 320.160156 696.820312 310.160156 672.625 L 287.371094 568.890625 L 314.863281 490.761719 L 298.953125 429.992188 C 298.953125 429.992188 303.230469 332.988281 262.226562 372.6875 C 270.726562 315.585938 284.003906 296.390625 284.003906 296.390625 C 292.683594 233.695312 451.820312 272.277344 451.820312 272.277344 C 473.90625 358.902344 543.28125 391.210938 594.925781 403.214844 C 570.222656 401.597656 532.484375 396.507812 513.0625 380.789062 C 482.679688 356.191406 576.722656 519.683594 588.292969 538.5 Z M 588.292969 538.5 " fill-opacity="1" fill-rule="nonzero"/><g clip-path="url(#b266a8794f)"><path fill="#ffbd26" d="M 620.597656 513.421875 C 621.5625 554.894531 588.773438 591.554688 571.414062 580.945312 C 554.054688 570.328125 535.726562 561.652344 523.1875 590.585938 C 510.652344 619.527344 550.195312 624.34375 543.445312 637.851562 C 536.695312 651.355469 514.507812 665.828125 506.792969 683.1875 C 499.078125 700.546875 511.621094 712.125 447.96875 748.78125 C 384.308594 785.4375 348.621094 753.597656 348.621094 753.597656 C 348.621094 753.597656 343.96875 745.40625 336.75 730.996094 C 359.480469 738.328125 396.625 745.464844 432.046875 730.933594 C 488.476562 707.78125 478.351562 678.851562 482.6875 667.273438 C 487.03125 655.695312 511.625 651.355469 514.511719 641.234375 C 517.410156 631.097656 488.476562 615.183594 502.941406 579.007812 C 517.410156 542.84375 550.679688 552.96875 566.59375 557.304688 C 582.507812 561.648438 604.207031 531.261719 601.316406 509.558594 C 598.476562 488.269531 597.03125 440.53125 627.011719 408.6875 C 644.179688 410.59375 655.324219 410.207031 655.324219 410.207031 C 633.136719 425.640625 619.636719 471.941406 620.597656 513.421875 Z M 620.597656 513.421875 " fill-opacity="1" fill-rule="nonzero"/></g><path fill="#ebd9b7" d="M 251.207031 549.105469 C 251.207031 549.105469 251.210938 564.542969 263.75 574.191406 C 276.285156 583.835938 273.957031 522.015625 273.957031 522.015625 C 273.957031 522.015625 253.128906 530.777344 251.207031 549.105469 Z M 251.207031 549.105469 " fill-opacity="1" fill-rule="nonzero"/><path fill="#f7914f" d="M 187.070312 178.703125 C 187.070312 178.703125 182.25 185.9375 183.699219 187.386719 C 185.144531 188.832031 187.070312 178.703125 187.070312 178.703125 Z M 187.070312 178.703125 " fill-opacity="1" fill-rule="nonzero"/><path fill="#9c3119" d="M 391.058594 154.589844 C 388.167969 161.339844 394.910156 163.269531 394.910156 170.988281 C 394.910156 171.234375 394.898438 171.46875 394.882812 171.703125 C 394.230469 178.75 381.867188 180.457031 377.554688 174.851562 C 373.9375 170.148438 368.128906 176 361.1875 181.6875 C 358.878906 183.578125 356.449219 185.449219 353.925781 186.898438 C 335.601562 197.515625 320.65625 161.339844 320.65625 161.339844 C 320.65625 161.339844 317.964844 166.585938 314.363281 170.503906 C 310.132812 175.128906 304.65625 177.917969 300.878906 168.09375 C 298.472656 161.824219 307.148438 157.488281 303.285156 148.796875 C 302.496094 147.011719 301.246094 145.339844 299.804688 143.695312 C 297.941406 141.574219 295.761719 139.492188 293.789062 137.226562 C 289.863281 132.722656 286.78125 127.507812 288.820312 119.867188 C 290.339844 114.179688 293.570312 110.660156 296.925781 108.464844 C 302.117188 105.09375 307.632812 104.914062 307.632812 104.914062 C 307.632812 104.914062 303.289062 99.125 305.226562 95.261719 C 307.152344 91.410156 313.902344 94.78125 313.902344 94.78125 C 313.902344 94.78125 314.394531 86.648438 319.199219 85.617188 C 325.953125 84.175781 327.40625 90.445312 327.40625 90.445312 C 327.40625 90.445312 344.765625 81.273438 364.046875 96.707031 C 367.984375 99.863281 370.761719 102.65625 372.746094 105.113281 C 372.746094 105.113281 372.746094 105.113281 372.757812 105.121094 C 380.433594 114.671875 376.042969 119.089844 381.417969 119.867188 C 388.167969 120.828125 397.8125 120.828125 400.703125 132.402344 C 401.195312 134.375 401.324219 136.132812 401.183594 137.710938 C 400.503906 145.386719 393.457031 148.988281 391.058594 154.589844 Z M 391.058594 154.589844 " fill-opacity="1" fill-rule="nonzero"/><path fill="#e09e07" d="M 410.347656 223.074219 L 410.988281 232.078125 L 390.734375 226.933594 L 396.84375 215.039062 C 396.847656 215.039062 406.8125 217.929688 410.347656 223.074219 Z M 410.347656 223.074219 " fill-opacity="1" fill-rule="nonzero"/><path fill="#9bbe37" d="M 200.277344 172.105469 C 199.453125 173.183594 198.492188 174.167969 197.398438 175.015625 C 197.226562 173.796875 196.539062 172.75 196.351562 171.550781 C 195.179688 172.984375 192.476562 174.835938 191.574219 175.71875 C 190.734375 171.5625 189.34375 165.328125 190.621094 161.4375 C 186.796875 165.175781 181.949219 169.632812 176.367188 170.65625 C 176.5 169.84375 176.527344 168.871094 176.710938 167.976562 C 174.191406 168.597656 171.023438 169.082031 168.578125 167.710938 C 169.445312 166.230469 169.082031 164.167969 169.636719 162.902344 C 167.058594 163.027344 164.492188 162.800781 162.0625 162.089844 C 165.765625 154.910156 171.308594 152.929688 177.050781 148.328125 C 175.136719 145.824219 173.460938 142.671875 172.734375 139.773438 C 174.226562 140.09375 175.660156 139.554688 177.210938 140.082031 C 176.992188 139.394531 177.421875 137.167969 177.089844 136.136719 C 178.917969 136.476562 180.886719 135.257812 182.5 135.3125 C 181.90625 134.203125 182.066406 132.929688 181.390625 131.796875 C 188.476562 132.894531 199.035156 136.511719 200.855469 144.707031 C 201.082031 145.085938 201.308594 145.460938 201.507812 145.859375 C 201.855469 146.5 202.175781 147.171875 202.46875 147.859375 C 205.671875 155.53125 205.292969 165.628906 200.277344 172.105469 Z M 200.277344 172.105469 " fill-opacity="1" fill-rule="nonzero"/><path fill="#8aad23" d="M 200.277344 172.105469 C 199.453125 173.183594 198.492188 174.167969 197.398438 175.015625 C 197.226562 173.796875 196.539062 172.75 196.351562 171.550781 C 195.179688 172.984375 192.476562 174.835938 191.574219 175.71875 C 190.734375 171.5625 189.34375 165.328125 190.621094 161.4375 C 186.796875 165.175781 181.949219 169.632812 176.367188 170.65625 C 176.5 169.84375 176.527344 168.871094 176.710938 167.976562 C 174.191406 168.597656 171.023438 169.082031 168.578125 167.710938 C 169.445312 166.230469 169.082031 164.167969 169.636719 162.902344 C 167.058594 163.027344 164.492188 162.800781 162.0625 162.089844 C 165.765625 154.910156 171.308594 152.929688 177.050781 148.328125 C 175.136719 145.824219 173.460938 142.671875 172.734375 139.773438 C 172.734375 139.773438 181.085938 144.945312 185.257812 145.269531 C 189.441406 145.589844 167.578125 155.242188 167.578125 158.453125 C 167.578125 161.664062 174.007812 160.378906 174.007812 160.378906 C 174.007812 160.378906 170.144531 162.957031 171.441406 164.882812 C 172.628906 166.660156 178.75 163.242188 179.683594 162.699219 C 179.261719 162.996094 177.804688 164.136719 179.476562 165.527344 C 181.402344 167.132812 194.265625 154.921875 194.265625 154.921875 C 194.265625 154.921875 190.722656 168.417969 192.648438 170.03125 C 194.507812 171.582031 197.558594 168.351562 197.785156 168.113281 C 197.671875 168.378906 195.980469 172.277344 199.078125 172.277344 C 199.457031 172.277344 199.863281 172.214844 200.277344 172.105469 Z M 200.277344 172.105469 " fill-opacity="1" fill-rule="nonzero"/><path fill="#afd444" d="M 202.46875 147.863281 C 201.929688 147.988281 201.394531 148.121094 200.855469 148.261719 C 200.15625 148.441406 199.449219 148.628906 198.746094 148.828125 C 189.824219 151.332031 181.125 155.167969 173.542969 160.464844 C 173.53125 160.453125 173.519531 160.464844 173.519531 160.464844 C 173.246094 160.652344 172.980469 160.84375 172.71875 161.03125 C 172.699219 161.042969 172.671875 161.011719 172.691406 160.992188 C 172.890625 160.824219 173.085938 160.652344 173.285156 160.492188 C 180.871094 154.085938 189.066406 149.375 198.453125 146.664062 C 199.207031 146.441406 199.972656 146.230469 200.75 146.050781 C 201.003906 145.976562 201.25 145.917969 201.503906 145.863281 C 201.855469 146.503906 202.175781 147.175781 202.46875 147.863281 Z M 202.46875 147.863281 " fill-opacity="1" fill-rule="nonzero"/><path fill="#afd444" d="M 182.589844 138.652344 C 188.398438 140.351562 194.890625 142.289062 198.867188 147.121094 C 199.792969 148.242188 201.460938 146.609375 200.480469 145.507812 C 195.78125 140.203125 189.300781 139.207031 182.601562 138.566406 C 182.554688 138.558594 182.542969 138.636719 182.589844 138.652344 Z M 182.589844 138.652344 " fill-opacity="1" fill-rule="nonzero"/><path fill="#afd444" d="M 197.621094 165.921875 C 200.257812 160.550781 202.4375 153.550781 200.675781 147.582031 C 200.363281 146.515625 198.894531 146.789062 198.808594 147.835938 C 198.582031 150.644531 198.988281 153.503906 198.824219 156.335938 C 198.636719 159.527344 198.1875 162.726562 197.417969 165.835938 C 197.386719 165.953125 197.5625 166.039062 197.621094 165.921875 Z M 197.621094 165.921875 " fill-opacity="1" fill-rule="nonzero"/><path fill="#9bbe37" d="M 230.175781 155.167969 C 231.132812 154.574219 232.019531 153.863281 232.808594 153.023438 C 231.820312 152.785156 231.011719 152.128906 230.035156 151.878906 C 231.3125 151.027344 233.058594 148.945312 233.859375 148.269531 C 230.496094 147.238281 225.464844 145.585938 222.152344 146.324219 C 225.550781 143.472656 229.621094 139.832031 230.914062 135.308594 C 230.234375 135.351562 229.429688 135.292969 228.675781 135.371094 C 229.394531 133.335938 230.046875 130.765625 229.113281 128.636719 C 227.820312 129.234375 226.148438 128.765625 225.0625 129.121094 C 225.371094 127 225.390625 124.863281 225.007812 122.800781 C 218.78125 125.273438 216.695312 129.691406 212.433594 134.054688 C 210.523438 132.269531 208.054688 130.632812 205.722656 129.800781 C 205.863281 131.054688 205.304688 132.195312 205.617188 133.519531 C 205.066406 133.28125 203.191406 133.453125 202.367188 133.097656 C 202.5 134.640625 201.332031 136.164062 201.25 137.496094 C 200.386719 136.917969 199.320312 136.945312 198.441406 136.296875 C 198.769531 142.234375 200.898438 151.246094 207.519531 153.414062 C 207.8125 153.632812 208.105469 153.851562 208.414062 154.046875 C 208.917969 154.386719 209.445312 154.707031 209.988281 155.003906 C 216.058594 158.269531 224.421875 158.78125 230.175781 155.167969 Z M 230.175781 155.167969 " fill-opacity="1" fill-rule="nonzero"/><path fill="#8aad23" d="M 230.175781 155.167969 C 231.132812 154.574219 232.019531 153.863281 232.808594 153.023438 C 231.820312 152.785156 231.011719 152.128906 230.035156 151.878906 C 231.3125 151.027344 233.058594 148.945312 233.859375 148.269531 C 230.496094 147.238281 225.464844 145.585938 222.152344 146.324219 C 225.550781 143.472656 229.621094 139.832031 230.914062 135.308594 C 230.234375 135.351562 229.429688 135.292969 228.675781 135.371094 C 229.394531 133.335938 230.046875 130.765625 229.113281 128.636719 C 227.820312 129.234375 226.148438 128.765625 225.0625 129.121094 C 225.371094 127 225.390625 124.863281 225.007812 122.800781 C 218.78125 125.273438 216.695312 129.691406 212.433594 134.054688 C 210.523438 132.269531 208.054688 130.632812 205.722656 129.800781 C 205.722656 129.800781 209.3125 137.113281 209.242188 140.582031 C 209.167969 144.0625 218.90625 126.796875 221.558594 127.058594 C 224.207031 127.320312 222.625 132.523438 222.625 132.523438 C 222.625 132.523438 225.066406 129.546875 226.554688 130.769531 C 227.921875 131.894531 224.601562 136.671875 224.085938 137.398438 C 224.359375 137.070312 225.421875 135.964844 226.429688 137.457031 C 227.597656 139.179688 216.476562 148.804688 216.476562 148.804688 C 216.476562 148.804688 227.902344 146.976562 229.078125 148.695312 C 230.203125 150.355469 227.289062 152.613281 227.078125 152.78125 C 227.308594 152.710938 230.660156 151.632812 230.414062 154.191406 C 230.386719 154.5 230.296875 154.832031 230.175781 155.167969 Z M 230.175781 155.167969 " fill-opacity="1" fill-rule="nonzero"/><path fill="#afd444" d="M 209.988281 155.003906 C 210.132812 154.570312 210.289062 154.136719 210.449219 153.703125 C 210.652344 153.140625 210.863281 152.574219 211.085938 152.015625 C 213.875 144.851562 217.746094 137.984375 222.734375 132.152344 C 222.726562 132.144531 222.734375 132.136719 222.734375 132.136719 C 222.914062 131.921875 223.089844 131.722656 223.269531 131.515625 C 223.277344 131.503906 223.257812 131.476562 223.242188 131.488281 C 223.082031 131.640625 222.925781 131.789062 222.78125 131.941406 C 216.878906 137.683594 212.324219 144.066406 209.324219 151.59375 C 209.074219 152.199219 208.84375 152.8125 208.632812 153.4375 C 208.550781 153.644531 208.480469 153.839844 208.414062 154.046875 C 208.917969 154.386719 209.445312 154.707031 209.988281 155.003906 Z M 209.988281 155.003906 " fill-opacity="1" fill-rule="nonzero"/><path fill="#afd444" d="M 204.003906 137.847656 C 204.9375 142.78125 206.003906 148.292969 209.667969 151.96875 C 210.519531 152.824219 209.039062 154.066406 208.207031 153.167969 C 204.210938 148.859375 203.914062 143.425781 203.929688 137.847656 C 203.929688 137.808594 203.996094 137.808594 204.003906 137.847656 Z M 204.003906 137.847656 " fill-opacity="1" fill-rule="nonzero"/><path fill="#afd444" d="M 225.285156 152.46875 C 220.640625 154.207031 214.6875 155.441406 209.90625 153.503906 C 209.046875 153.15625 209.390625 151.964844 210.265625 151.980469 C 212.601562 152.015625 214.929688 152.585938 217.28125 152.679688 C 219.929688 152.785156 222.613281 152.671875 225.234375 152.292969 C 225.335938 152.28125 225.390625 152.429688 225.285156 152.46875 Z M 225.285156 152.46875 " fill-opacity="1" fill-rule="nonzero"/><path fill="#80a121" d="M 209.402344 158.292969 C 211.175781 150.054688 217.929688 144.792969 226.433594 145.191406 C 233.398438 145.515625 239.132812 149.871094 245.796875 151.34375 C 253.394531 153.023438 264.222656 151.097656 267.484375 142.957031 C 269.929688 136.847656 266.15625 128.796875 258.824219 129.960938 C 253.984375 130.726562 249.40625 139.136719 256.113281 140.539062 C 257.074219 140.742188 257.816406 139.339844 256.820312 138.859375 C 255.253906 134.324219 256.355469 132.019531 260.132812 131.9375 C 260.816406 132.015625 261.496094 132.09375 262.179688 132.171875 C 266.585938 133.632812 267.265625 138.742188 265.921875 142.40625 C 264.382812 146.613281 260.328125 149.078125 256.148438 150.15625 C 246.472656 152.652344 239.640625 147.148438 230.773438 145.054688 C 221.316406 142.816406 210.078125 147.609375 209.335938 158.277344 C 209.335938 158.320312 209.390625 158.328125 209.402344 158.292969 Z M 209.402344 158.292969 " fill-opacity="1" fill-rule="nonzero"/><path fill="#80a121" d="M 202.0625 151.003906 C 196.050781 142.25 183.847656 142.90625 175.363281 147.453125 C 165.089844 152.964844 158.3125 164.042969 156.511719 175.382812 C 154.566406 187.664062 158.214844 199.707031 167.738281 207.859375 C 173.703125 212.957031 183.582031 218.808594 181.75 228.179688 C 180.988281 232.070312 177.78125 235.140625 174.070312 236.316406 C 172.277344 236.882812 170.246094 237.042969 168.414062 236.507812 C 166.296875 235.878906 164.660156 234.582031 163.507812 232.621094 C 162.574219 227.164062 164.359375 225.113281 168.851562 226.472656 C 170.320312 227.355469 171.648438 225.074219 170.195312 224.175781 C 166.332031 221.808594 161.09375 224.085938 160.167969 228.621094 C 159.082031 233.945312 164.089844 238.597656 168.960938 239.382812 C 174.253906 240.238281 179.871094 237.285156 182.515625 232.6875 C 185.582031 227.347656 183.433594 221.414062 179.851562 216.929688 C 174.304688 209.980469 165.695312 206.46875 161.183594 198.535156 C 156.363281 190.078125 156.015625 179.421875 158.769531 170.242188 C 161.339844 161.695312 166.914062 153.699219 174.574219 148.984375 C 182.886719 143.871094 195.410156 142.492188 202.046875 151.019531 C 202.054688 151.023438 202.070312 151.011719 202.0625 151.003906 Z M 202.0625 151.003906 " fill-opacity="1" fill-rule="nonzero"/><path fill="#80a121" d="M 204.15625 154.355469 C 204.203125 148.042969 203.203125 141.871094 200.851562 135.992188 C 198.894531 131.105469 195.839844 124.191406 191.0625 121.507812 C 190.28125 121.066406 189.054688 121.8125 189.421875 122.769531 C 191.304688 127.667969 195.546875 131.726562 197.953125 136.507812 C 200.804688 142.179688 202.8125 148.152344 204.046875 154.371094 C 204.058594 154.433594 204.152344 154.414062 204.15625 154.355469 Z M 204.15625 154.355469 " fill-opacity="1" fill-rule="nonzero"/><path fill="#ba4783" d="M 237.613281 217.660156 C 236.105469 222.941406 230.125 226.253906 225.261719 219.578125 C 219.683594 223.984375 204.183594 225.152344 206.761719 213.371094 C 197.246094 216.753906 187.75 208.542969 191.472656 198.75 C 181.992188 200.128906 177.488281 183.597656 183.160156 177.5625 C 173.644531 168.675781 185.070312 162.175781 193 161.929688 C 190.960938 152.089844 204.144531 147.800781 212.019531 155.46875 C 214.5 147.601562 226.003906 148.878906 229.234375 154.683594 C 230.359375 156.695312 230.492188 159.246094 228.921875 162.148438 C 237.472656 158.011719 239.6875 170.136719 234.25 175.511719 C 243.570312 175.976562 242.222656 191.570312 235.117188 195.027344 C 238.5 198.785156 238.695312 204.859375 234.171875 207.691406 C 237.804688 210.539062 238.535156 214.460938 237.613281 217.660156 Z M 237.613281 217.660156 " fill-opacity="1" fill-rule="nonzero"/><path fill="#a62e6c" d="M 237.613281 217.660156 C 236.105469 222.941406 230.125 226.253906 225.261719 219.578125 C 219.683594 223.984375 204.183594 225.152344 206.761719 213.371094 C 197.246094 216.753906 187.75 208.542969 191.472656 198.75 C 181.992188 200.128906 177.488281 183.597656 183.160156 177.5625 C 173.644531 168.675781 185.070312 162.175781 193 161.929688 C 190.960938 152.089844 204.144531 147.800781 212.019531 155.46875 C 214.5 147.601562 226.003906 148.878906 229.234375 154.683594 C 224.265625 151.550781 210.921875 155.675781 219.683594 164.121094 C 211.988281 167.078125 221.300781 171.773438 224.511719 172.527344 C 219.375 177.648438 223.699219 186.628906 230.78125 185.910156 C 227.75 187.734375 227.425781 190.480469 227.984375 193.558594 C 218.738281 195.835938 215.289062 200.511719 222.800781 207.152344 C 218.964844 212.15625 222.046875 218.519531 228.835938 216.285156 C 227.8125 221.375 234.226562 221.195312 237.613281 217.660156 Z M 237.613281 217.660156 " fill-opacity="1" fill-rule="nonzero"/><path fill="#ffbc91" d="M 330.042969 204.277344 C 330.042969 204.289062 330.042969 204.304688 330.035156 204.316406 C 330.023438 204.335938 330.023438 204.355469 330.011719 204.375 C 329.832031 205 328.890625 208.300781 327.320312 213.460938 C 326.972656 214.609375 326.59375 215.855469 326.179688 217.183594 C 319.832031 237.78125 306.46875 278.445312 292.464844 305.03125 L 292.464844 305.039062 C 291.007812 307.789062 289.554688 310.375 288.101562 312.789062 C 287.164062 314.34375 286.164062 315.875 285.113281 317.386719 L 285.113281 317.398438 C 267.625 342.777344 236.886719 361.023438 219.640625 362.789062 C 219.632812 362.789062 219.632812 362.789062 219.632812 362.789062 C 215.050781 363.261719 211.425781 362.566406 209.253906 360.53125 C 198.402344 350.410156 191.167969 308.453125 191.894531 291.085938 C 192.609375 273.722656 196.226562 227.90625 195.265625 225.007812 C 194.300781 222.117188 173.5625 192.695312 173.078125 187.878906 C 172.597656 183.054688 184.175781 154.113281 187.066406 153.152344 C 189.953125 152.1875 189.472656 154.597656 190.433594 156.523438 C 191.410156 158.457031 185.136719 179.191406 187.066406 178.710938 C 188.992188 178.226562 201.53125 154.597656 203.941406 155.078125 C 206.359375 155.558594 206.839844 157.496094 207.324219 160.386719 C 207.804688 163.273438 196.226562 184.980469 198.152344 183.054688 C 200.089844 181.128906 209.730469 162.3125 211.65625 162.792969 C 213.582031 163.273438 215.039062 166.65625 215.039062 170.027344 C 215.039062 173.410156 204.421875 190.769531 206.359375 189.808594 C 208.285156 188.84375 217.445312 173.890625 218.410156 175.339844 C 219.375 176.785156 220.335938 179.671875 219.855469 182.089844 C 219.375 184.5 213.105469 195.597656 213.585938 198.007812 C 214.078125 200.414062 218.410156 206.6875 218.410156 211.03125 C 218.410156 215.367188 217.203125 228.144531 216.484375 231.046875 C 215.757812 233.9375 232.398438 300.496094 236.742188 296.148438 C 236.742188 296.148438 236.742188 296.140625 236.753906 296.128906 C 238.632812 294.242188 243.28125 286.65625 248.277344 277.929688 C 254.925781 266.300781 262.167969 252.636719 264.226562 247.675781 C 267.84375 238.996094 278.695312 225.253906 283.757812 221.636719 C 288.820312 218.019531 303.289062 218.019531 306.90625 216.574219 C 308.585938 215.90625 313.707031 213.203125 318.703125 210.5 C 324.300781 207.460938 329.75 204.4375 330.042969 204.277344 Z M 330.042969 204.277344 " fill-opacity="1" fill-rule="nonzero"/><path fill="#f5833b" d="M 248.28125 277.921875 C 248.007812 287.335938 246.316406 325.808594 245.429688 320.5 C 244.464844 314.710938 236.75 296.140625 236.75 296.140625 C 236.75 296.140625 236.75 296.128906 236.761719 296.121094 C 238.636719 294.234375 243.285156 286.648438 248.28125 277.921875 Z M 248.28125 277.921875 " fill-opacity="0.35" fill-rule="nonzero"/><path fill="#f5833b" d="M 292.464844 305.027344 L 292.464844 305.039062 C 291.007812 307.785156 289.554688 310.371094 288.101562 312.785156 C 271.339844 340.542969 237.914062 360.914062 219.640625 362.789062 C 222.75 360.851562 252.734375 342.128906 262.78125 332.082031 C 273.382812 321.464844 270.496094 280.953125 273.382812 275.164062 C 276.285156 269.375 287.851562 260.695312 287.851562 260.695312 Z M 292.464844 305.027344 " fill-opacity="0.35" fill-rule="nonzero"/><path fill="#781e0c" d="M 394.910156 170.984375 C 394.910156 171.230469 394.898438 171.464844 394.882812 171.699219 C 394.230469 178.746094 381.867188 180.453125 377.554688 174.847656 C 373.9375 170.144531 368.128906 175.996094 361.1875 181.683594 L 357.304688 179.179688 L 360.195312 144.945312 C 360.195312 144.945312 366.945312 132.882812 377.074219 133.847656 C 387.195312 134.820312 392.023438 153.144531 401.183594 137.710938 C 400.503906 145.386719 393.457031 148.988281 391.0625 154.589844 C 388.167969 161.339844 394.910156 163.269531 394.910156 170.984375 Z M 394.910156 170.984375 " fill-opacity="1" fill-rule="nonzero"/><path fill="#ffbc91" d="M 541.515625 511.96875 C 541.515625 513.90625 535.246094 513.90625 532.835938 511.003906 C 530.421875 508.117188 523.679688 500.398438 522.222656 498.46875 C 520.777344 496.535156 503.902344 489.300781 501.496094 490.273438 C 499.078125 491.234375 494.976562 503.605469 493.777344 506.90625 C 491.847656 512.210938 487.027344 512.457031 485.574219 511.964844 C 484.128906 511.484375 486.066406 491.234375 486.546875 488.8125 C 487.027344 486.40625 486.546875 462.292969 485.574219 459.882812 C 484.820312 457.976562 464.183594 423.046875 453.671875 404.742188 C 450.839844 399.796875 448.734375 396.066406 447.96875 394.523438 C 444.351562 387.289062 438.566406 363.421875 437.121094 357.632812 C 435.664062 351.84375 414.691406 298.308594 414.691406 298.308594 C 414.691406 298.308594 399.503906 336.65625 398.777344 342.445312 C 398.445312 345.070312 399.160156 355.476562 400.042969 366.046875 C 401.101562 378.722656 402.394531 391.632812 402.394531 391.632812 L 332.957031 414.054688 L 304.019531 392.359375 C 304.019531 392.359375 294.617188 329.417969 293.171875 327.246094 C 292.226562 325.828125 288.210938 321.332031 285.125 317.375 C 283.484375 315.261719 282.101562 313.304688 281.59375 312.046875 C 280.148438 308.4375 280.148438 279.5 280.875 270.816406 C 281.394531 264.519531 306.242188 234.660156 320.425781 217.054688 C 321.671875 215.5 322.84375 214.042969 323.910156 212.703125 C 327.355469 208.355469 329.671875 205.277344 330.039062 204.304688 C 330.050781 204.296875 330.050781 204.277344 330.050781 204.269531 L 330.0625 204.257812 C 331.515625 199.914062 331.515625 181.824219 331.515625 181.824219 L 362.066406 161.667969 L 366.957031 158.4375 C 366.957031 158.4375 367.921875 193.15625 367.921875 197.984375 C 367.921875 198.363281 368.089844 198.8125 368.410156 199.324219 C 370.695312 203.066406 380.632812 210.085938 388.789062 215.164062 C 393.9375 218.363281 398.375 220.792969 399.746094 221.132812 C 403.609375 222.097656 428.679688 227.886719 438.320312 234.640625 C 447.972656 241.390625 454.71875 275.148438 454.71875 279.011719 C 454.71875 282.863281 470.152344 333.027344 471.121094 338.816406 C 472.082031 344.597656 484.617188 362.929688 488.480469 371.609375 C 492.332031 380.289062 505.839844 444.921875 506.800781 447.8125 C 507.765625 450.703125 521.753906 466.621094 524.167969 469.519531 C 525.734375 471.398438 528.832031 474.203125 530.804688 475.925781 C 531.976562 476.953125 532.796875 478.316406 533.148438 479.832031 L 533.328125 480.605469 C 533.328125 480.605469 535.738281 482.050781 536.699219 484.953125 C 537.664062 487.839844 537.183594 489.777344 537.183594 489.777344 C 537.183594 489.777344 539.117188 492.667969 540.082031 495.074219 C 541.042969 497.492188 538.636719 500.863281 538.636719 500.863281 C 538.636719 500.863281 541.515625 510.042969 541.515625 511.96875 Z M 541.515625 511.96875 " fill-opacity="1" fill-rule="nonzero"/><path fill="#f78a43" d="M 362.058594 161.679688 C 362.03125 162.320312 361.960938 163.011719 361.886719 163.75 C 358.269531 196.304688 330.050781 204.269531 330.050781 204.269531 C 331.503906 199.921875 331.503906 181.835938 331.503906 181.835938 Z M 362.058594 161.679688 " fill-opacity="1" fill-rule="nonzero"/><path fill="#f57d31" d="M 399.738281 221.148438 C 399.738281 221.148438 374.179688 254.1875 361.886719 287.464844 C 349.589844 320.742188 331.503906 388.023438 331.503906 388.023438 L 313.421875 388.023438 C 313.421875 388.023438 332.230469 320.746094 333.675781 316.402344 C 335.125 312.0625 383.589844 231.761719 383.589844 231.761719 Z M 399.738281 221.148438 " fill-opacity="0.42" fill-rule="nonzero"/><path fill="#781e0c" d="M 314.363281 170.503906 C 310.132812 175.128906 304.65625 177.917969 300.878906 168.09375 C 298.472656 161.824219 307.148438 157.488281 303.285156 148.796875 C 302.496094 147.011719 301.246094 145.339844 299.804688 143.695312 C 299.878906 143.5625 299.914062 143.5 299.914062 143.5 C 299.914062 143.5 307.148438 150.734375 307.628906 155.070312 C 308.113281 159.414062 312.457031 160.378906 313.902344 157.488281 C 314.714844 155.863281 314.609375 163.484375 314.363281 170.503906 Z M 314.363281 170.503906 " fill-opacity="1" fill-rule="nonzero"/><path fill="#f4af14" d="M 446.671875 281.597656 C 413.882812 284.484375 358.910156 260.371094 358.910156 260.371094 L 358.910156 256.519531 C 358.910156 256.519531 366.183594 259.199219 376.371094 262.136719 C 394.191406 267.296875 420.898438 273.265625 433.175781 267.125 C 452.128906 257.644531 441.28125 237.910156 440.902344 237.242188 L 440.902344 237.230469 C 460.183594 246.875 479.460938 278.703125 446.671875 281.597656 Z M 446.671875 281.597656 " fill-opacity="1" fill-rule="nonzero"/><path fill="#c43e1f" d="M 332.226562 111.179688 C 332.226562 111.179688 332.707031 117.453125 337.53125 117.453125 C 342.351562 117.453125 341.871094 110.21875 345.730469 107.804688 C 349.589844 105.394531 359.234375 110.21875 360.675781 112.148438 C 362.125 114.078125 357.304688 111.183594 352.960938 113.59375 C 348.621094 116.007812 353.925781 130.957031 342.835938 129.992188 C 331.746094 129.027344 327.402344 119.382812 332.226562 111.179688 Z M 332.226562 111.179688 " fill-opacity="1" fill-rule="nonzero"/><path fill="#f57d31" d="M 388.78125 215.175781 C 385.355469 217.179688 381.179688 219.457031 379.972656 219.457031 C 377.800781 219.457031 348.136719 218.011719 350.308594 215.839844 C 352.480469 213.667969 370.566406 209.332031 370.566406 207.160156 C 370.566406 205.582031 369.171875 201.472656 368.40625 199.339844 C 370.6875 203.078125 380.625 210.09375 388.78125 215.175781 Z M 388.78125 215.175781 " fill-opacity="0.42" fill-rule="nonzero"/><path fill="#ffbc91" d="M 366.945312 158.449219 C 366.945312 158.449219 383.34375 155.554688 379.484375 143.980469 C 375.625 132.40625 360.195312 144.945312 360.195312 144.945312 C 360.195312 144.945312 356.335938 138.191406 356.335938 130.476562 C 356.335938 122.757812 345.726562 131.4375 338.976562 127.582031 C 332.226562 123.722656 333.191406 115.042969 332.226562 111.183594 C 331.261719 107.324219 328.367188 109.253906 321.617188 116.007812 C 314.863281 122.757812 312.011719 130.097656 312.453125 141.085938 C 312.933594 153.144531 310.042969 156.039062 309.078125 165.6875 C 308.117188 175.332031 312.9375 189.320312 322.582031 191.25 C 332.226562 193.179688 367.910156 190.277344 366.945312 158.449219 Z M 366.945312 158.449219 " fill-opacity="1" fill-rule="nonzero"/><path fill="#f5833b" d="M 453.667969 404.746094 C 450.835938 399.796875 448.730469 396.070312 447.964844 394.527344 C 444.351562 387.292969 438.5625 363.425781 437.117188 357.636719 C 435.660156 351.847656 414.6875 298.3125 414.6875 298.3125 C 414.6875 298.3125 399.5 336.660156 398.773438 342.449219 C 398.441406 345.074219 399.15625 355.480469 400.039062 366.050781 C 398.613281 364.691406 397.808594 363.902344 397.808594 363.902344 L 326.433594 391.882812 L 320.65625 381.265625 C 320.65625 381.265625 348.617188 378.375 366.949219 363.902344 C 385.273438 349.4375 390.097656 333.039062 390.097656 333.039062 C 390.097656 333.039062 343.804688 328.210938 340.902344 331.113281 C 338.015625 334 326.4375 354.261719 326.4375 354.261719 L 317.757812 336.894531 C 317.757812 336.894531 299.4375 329.179688 293.167969 327.253906 C 291.722656 325.078125 283.046875 315.671875 281.589844 312.054688 C 281.589844 312.054688 286.898438 318.574219 294.613281 321.460938 C 302.328125 324.363281 317.757812 322.425781 320.660156 320.5 C 323.546875 318.574219 330.300781 299.273438 332.226562 294.460938 C 334.152344 289.632812 336.089844 315.671875 339.941406 318.574219 C 343.804688 321.460938 385.269531 326.289062 392.988281 323.390625 C 400.703125 320.5 411.316406 277.089844 411.316406 277.089844 C 411.316406 277.089844 442.175781 336.898438 445.066406 338.835938 C 447.964844 340.761719 455.679688 342.6875 458.570312 344.613281 C 461.460938 346.550781 452.78125 355.230469 450.855469 360.042969 C 449.230469 364.105469 451.707031 390.660156 453.667969 404.746094 Z M 453.667969 404.746094 " fill-opacity="0.35" fill-rule="nonzero"/><path fill="#ffbb21" d="M 410.351562 223.074219 C 410.351562 223.074219 403.601562 217.285156 399.738281 221.148438 C 395.886719 225 371.765625 247.1875 351.519531 299.277344 C 334.355469 343.414062 320.65625 394.476562 316.285156 413.140625 C 315.503906 416.511719 315.015625 418.828125 314.867188 419.855469 C 313.902344 426.605469 296.539062 425.644531 298.472656 409.25 C 298.472656 409.25 298.867188 406.613281 299.691406 401.957031 C 302.605469 385.644531 310.917969 344.484375 326.652344 304.296875 C 326.652344 304.285156 326.652344 304.277344 326.664062 304.277344 C 328.710938 299.03125 330.882812 293.820312 333.1875 288.671875 C 358.273438 232.71875 382.382812 212.46875 385.273438 210.542969 C 388.167969 208.601562 404.5625 202.824219 410.351562 223.074219 Z M 410.351562 223.074219 " fill-opacity="1" fill-rule="nonzero"/><path fill="#f5ac07" d="M 410.351562 223.074219 C 410.351562 223.074219 403.601562 217.285156 399.738281 221.148438 C 395.886719 225 371.765625 247.1875 351.519531 299.277344 C 334.355469 343.414062 320.65625 394.476562 316.285156 413.140625 C 311.742188 410.136719 305.273438 405.820312 299.691406 401.957031 C 302.605469 385.644531 310.917969 344.484375 326.652344 304.296875 C 321.136719 323.535156 312.335938 356.773438 314.867188 364.878906 C 318.484375 376.457031 336.570312 304.109375 364.050781 259.253906 C 391.542969 214.402344 396.367188 220.03125 396.847656 215.042969 C 397.332031 210.058594 392.023438 206.6875 385.273438 210.550781 C 388.167969 208.601562 404.5625 202.824219 410.351562 223.074219 Z M 410.351562 223.074219 " fill-opacity="1" fill-rule="nonzero"/><path fill="#ffbc91" d="M 365.503906 762.773438 C 364.773438 767.835938 355.371094 785.921875 353.925781 794.601562 C 352.480469 803.28125 350.308594 821.371094 346.691406 823.542969 C 343.074219 825.703125 333.671875 826.429688 329.332031 827.160156 C 324.988281 827.875 317.039062 825.703125 317.039062 825.703125 L 317.011719 825.714844 C 316.472656 825.808594 309.003906 827.082031 306.90625 824.988281 C 304.746094 822.8125 306.191406 815.582031 309.078125 812.691406 C 311.976562 809.789062 318.484375 809.074219 319.199219 806.902344 C 319.929688 804.730469 328.371094 746.859375 327.40625 741.070312 C 326.433594 735.28125 280.144531 634.964844 273.386719 626.285156 C 266.644531 617.59375 257.957031 601.195312 256.992188 591.554688 C 256.367188 585.285156 258.597656 561.875 260.230469 546.273438 C 261.105469 537.878906 261.816406 531.746094 261.816406 531.746094 C 263.78125 526.808594 268.246094 523.75 273.953125 522.019531 L 273.960938 522.019531 C 292.773438 516.316406 324.984375 525.042969 324.984375 528.375 C 324.984375 529.246094 324.570312 532.183594 323.925781 536.367188 C 321.375 552.929688 315.175781 589.152344 316.296875 595.617188 C 316.308594 595.640625 316.308594 595.652344 316.308594 595.652344 C 317.753906 603.613281 335.449219 626.859375 338.011719 636.160156 C 345.972656 665.140625 351.496094 722.507812 353.472656 734.609375 C 353.480469 734.644531 353.492188 734.691406 353.5 734.730469 C 353.667969 735.757812 353.800781 736.441406 353.921875 736.722656 C 353.921875 736.722656 353.921875 736.722656 353.933594 736.730469 C 355.390625 740.371094 366.21875 757.699219 365.503906 762.773438 Z M 365.503906 762.773438 " fill-opacity="1" fill-rule="nonzero"/><path fill="#f5833b" d="M 316.300781 595.617188 C 315.78125 594.171875 299.171875 548.199219 260.234375 546.273438 C 261.109375 537.878906 261.820312 531.746094 261.820312 531.746094 C 263.785156 526.808594 268.25 523.75 273.953125 522.019531 L 273.964844 522.019531 L 323.929688 536.367188 C 321.382812 552.929688 315.179688 589.152344 316.300781 595.617188 Z M 316.300781 595.617188 " fill-opacity="0.35" fill-rule="nonzero"/><path fill="#fcf1dc" d="M 431.5625 416.960938 C 431.5625 416.960938 428.925781 419.511719 424.132812 423.023438 C 414.332031 430.203125 395.46875 441.402344 371.492188 443.066406 C 349.640625 444.597656 323.539062 438.203125 296.167969 413.632812 C 295.972656 413.453125 295.773438 413.277344 295.574219 413.09375 C 295.574219 413.09375 292.6875 410.207031 292.6875 404.417969 C 292.6875 398.625 290.761719 386.089844 303.292969 382.230469 C 303.292969 382.230469 335.429688 388.925781 367.378906 370.886719 C 378.300781 364.71875 389.191406 355.652344 398.777344 342.449219 C 398.777344 342.449219 406.492188 343.648438 411.320312 353.292969 C 416.132812 362.945312 415.171875 390.910156 415.171875 390.910156 C 415.171875 390.910156 433.496094 402.492188 431.5625 416.960938 Z M 431.5625 416.960938 " fill-opacity="1" fill-rule="nonzero"/><path fill="#ffbc91" d="M 421.796875 805.578125 C 420.964844 808.253906 420.476562 809.972656 420.476562 810.519531 C 420.476562 814.863281 430.597656 827.878906 429.878906 834.394531 C 429.152344 840.902344 422.648438 851.03125 421.191406 856.820312 C 419.746094 862.609375 420.476562 895.164062 416.132812 900.945312 C 411.796875 906.734375 387.195312 905.289062 383.578125 903.84375 C 379.972656 902.398438 381.417969 899.5 383.578125 895.882812 C 385.75 892.265625 392.265625 889.375 392.265625 889.375 C 392.265625 889.375 388.648438 858.992188 389.367188 847.414062 C 390.09375 835.839844 393.710938 811.964844 393.710938 811.964844 C 393.710938 811.964844 395.882812 788.089844 395.15625 770.730469 C 394.429688 753.367188 385.75 667.28125 383.578125 651.363281 C 382.679688 644.820312 380.699219 634.730469 378.667969 625.125 C 375.75 611.355469 372.734375 598.546875 372.734375 598.546875 L 417.019531 578.203125 L 426.261719 573.953125 C 426.261719 573.953125 426.753906 576.832031 427.613281 581.898438 C 430.398438 598.386719 437.046875 638.113281 443.136719 677.40625 C 445.652344 693.660156 444.308594 712.523438 441.296875 730.855469 C 435.984375 763.132812 425.492188 793.761719 421.796875 805.578125 Z M 421.796875 805.578125 " fill-opacity="1" fill-rule="nonzero"/><path fill="#f5833b" d="M 441.300781 730.847656 C 443.40625 711.472656 444.707031 693.511719 443.140625 688.011719 C 439.277344 674.507812 421.917969 670.644531 415.167969 658.109375 C 408.417969 645.566406 411.316406 631.097656 395.882812 629.167969 C 388.261719 628.214844 382.519531 626.554688 378.667969 625.117188 C 375.75 611.347656 372.734375 598.539062 372.734375 598.539062 L 417.019531 578.195312 C 420.203125 579.253906 423.828125 580.527344 427.617188 581.886719 C 430.402344 598.378906 437.050781 638.105469 443.140625 677.398438 C 445.652344 693.65625 444.3125 712.515625 441.300781 730.847656 Z M 441.300781 730.847656 " fill-opacity="0.35" fill-rule="nonzero"/><path fill="#fcf1dc" d="M 442.179688 678.363281 C 442.179688 678.363281 423.847656 653.285156 417.09375 629.171875 C 410.351562 605.058594 382.378906 627.246094 349.582031 584.800781 C 342.746094 575.953125 334.898438 568.433594 326.667969 562.265625 C 295.464844 538.832031 258.847656 534.609375 251.203125 549.109375 C 251.203125 549.109375 255.847656 491.484375 296.167969 413.636719 C 296.921875 412.183594 297.6875 410.722656 298.472656 409.246094 L 410.4375 414.582031 L 419.992188 415.035156 C 419.992188 415.035156 421.757812 418 424.128906 423.023438 C 429.410156 434.179688 437.71875 455.480469 436.386719 476.769531 C 436.386719 476.769531 438.386719 482.53125 440.910156 491.945312 C 445.378906 508.636719 451.46875 536.78125 450.855469 564.539062 C 450.855469 564.539062 452.648438 572.53125 453.726562 585.59375 C 455.511719 607.097656 455.378906 642.355469 442.179688 678.363281 Z M 442.179688 678.363281 " fill-opacity="1" fill-rule="nonzero"/><path fill="#f7914f" d="M 198.164062 183.042969 C 198.164062 183.042969 193.097656 189.074219 194.304688 190.519531 C 195.511719 191.96875 198.164062 183.042969 198.164062 183.042969 Z M 198.164062 183.042969 " fill-opacity="1" fill-rule="nonzero"/><path fill="#f7914f" d="M 206.363281 189.796875 C 206.363281 189.796875 202.503906 193.894531 203.472656 195.34375 C 204.433594 196.792969 206.363281 189.796875 206.363281 189.796875 Z M 206.363281 189.796875 " fill-opacity="1" fill-rule="nonzero"/><path fill="#e05e2b" d="M 373.082031 146.195312 C 371.078125 146.425781 369.207031 148.355469 367.925781 149.796875 C 366.226562 151.714844 364.9375 154 364.152344 156.433594 C 363.851562 157.375 365.285156 157.871094 365.609375 156.933594 C 366.375 154.714844 367.367188 152.683594 368.828125 150.84375 C 370.113281 149.21875 372.074219 148.042969 373.175781 146.339844 C 373.230469 146.273438 373.164062 146.191406 373.082031 146.195312 Z M 373.082031 146.195312 " fill-opacity="1" fill-rule="nonzero"/><path fill="#e05e2b" d="M 375.628906 151.078125 C 372.738281 149.304688 368.480469 150.871094 365.988281 152.65625 C 365.238281 153.1875 366.183594 154.300781 366.921875 153.742188 C 368.25 152.734375 369.730469 152.027344 371.371094 151.707031 C 372.765625 151.433594 374.175781 151.5625 375.574219 151.363281 C 375.703125 151.34375 375.742188 151.144531 375.628906 151.078125 Z M 375.628906 151.078125 " fill-opacity="1" fill-rule="nonzero"/><path fill="#4f1e20" d="M 313.421875 148.257812 C 313.277344 150.5625 314.175781 152.496094 315.425781 152.574219 C 316.679688 152.652344 317.8125 150.847656 317.957031 148.542969 C 318.101562 146.238281 317.203125 144.304688 315.953125 144.226562 C 314.699219 144.144531 313.570312 145.949219 313.421875 148.257812 Z M 313.421875 148.257812 " fill-opacity="1" fill-rule="nonzero"/><path fill="#4f1e20" d="M 317.511719 148.972656 C 318.863281 146.847656 317.421875 144.179688 316.003906 142.523438 C 315.84375 142.335938 315.542969 142.324219 315.324219 142.378906 C 315.273438 142.390625 315.21875 142.40625 315.167969 142.417969 C 315.035156 142.453125 314.910156 142.59375 314.890625 142.726562 C 314.820312 143.25 314.984375 143.390625 315.328125 143.746094 C 315.804688 144.238281 316.179688 144.785156 316.476562 145.402344 C 317.027344 146.539062 317.121094 147.75 317.410156 148.964844 C 317.425781 149.015625 317.488281 149.007812 317.511719 148.972656 Z M 317.511719 148.972656 " fill-opacity="1" fill-rule="nonzero"/><path fill="#e05e2b" d="M 321.910156 149.730469 C 322.214844 150.652344 321.632812 152.171875 321.292969 153.03125 C 320.679688 154.589844 319.691406 155.539062 318.496094 156.636719 C 317.5 157.558594 317.027344 158.488281 317.347656 159.851562 C 317.984375 162.589844 321.585938 164.425781 323.929688 162.507812 C 324.414062 162.109375 324.085938 161.382812 323.460938 161.527344 C 320.511719 162.207031 317.101562 160.835938 319.808594 157.183594 C 320.617188 156.09375 321.46875 155.414062 322.011719 154.125 C 322.46875 153.046875 323.402344 150.363281 321.984375 149.664062 C 321.941406 149.644531 321.894531 149.683594 321.910156 149.730469 Z M 321.910156 149.730469 " fill-opacity="1" fill-rule="nonzero"/><path fill="#cc4e90" d="M 227.097656 167.714844 C 227.746094 167.964844 228.390625 168.003906 229.078125 168 C 229.695312 167.992188 230.269531 168.019531 230.582031 168.089844 C 232.152344 168.453125 233.699219 167.5 233.917969 165.867188 C 234.148438 164.167969 232.894531 163 231.292969 162.835938 C 229.171875 162.621094 226.535156 163.34375 225.914062 165.636719 C 225.660156 166.585938 226.242188 167.386719 227.097656 167.714844 Z M 227.097656 167.714844 " fill-opacity="1" fill-rule="nonzero"/><path fill="#cc4e90" d="M 229.789062 181.546875 C 230.414062 181.84375 230.820312 181.835938 231.503906 181.761719 C 231.058594 181.808594 231.457031 181.785156 231.699219 181.75 C 231.816406 181.734375 232.199219 181.707031 232.328125 181.640625 C 232.199219 181.707031 231.871094 181.65625 232.1875 181.679688 C 231.289062 181.605469 232.253906 181.6875 232.339844 181.699219 C 233.261719 181.820312 234.214844 181.597656 234.851562 180.863281 C 235.707031 179.882812 235.964844 178.183594 234.851562 177.234375 C 233.824219 176.359375 232.550781 176.109375 231.351562 176.785156 C 230.894531 177.046875 230.445312 177.386719 230.0625 177.738281 C 229.597656 178.15625 229.25 178.726562 229.078125 179.324219 C 228.863281 180.042969 229.003906 181.179688 229.789062 181.546875 Z M 229.789062 181.546875 " fill-opacity="1" fill-rule="nonzero"/><path fill="#cc4e90" d="M 223.351562 201.429688 C 223.375 201.417969 223.398438 201.410156 223.421875 201.394531 C 223.261719 201.464844 223.105469 201.527344 222.945312 201.597656 C 223.03125 201.558594 223.121094 201.53125 223.214844 201.515625 C 223.023438 201.542969 222.832031 201.566406 222.636719 201.59375 C 222.996094 201.558594 223.351562 201.535156 223.710938 201.46875 C 223.496094 201.5 223.277344 201.527344 223.0625 201.554688 C 223.398438 201.511719 223.722656 201.472656 224.050781 201.402344 C 225.316406 201.121094 226.175781 199.582031 225.78125 198.351562 C 225.351562 197.019531 224.089844 196.324219 222.730469 196.621094 C 221.730469 196.839844 220.933594 197.617188 220.601562 198.5625 C 220.472656 198.933594 220.417969 199.359375 220.417969 199.75 C 220.417969 200.4375 220.785156 201.085938 221.378906 201.429688 C 222.023438 201.804688 222.703125 201.738281 223.351562 201.429688 Z M 223.351562 201.429688 " fill-opacity="1" fill-rule="nonzero"/><path fill="#cc4e90" d="M 230.632812 210.714844 C 230.507812 211.042969 230.535156 211.425781 230.523438 211.777344 C 230.644531 211.328125 230.765625 210.878906 230.886719 210.433594 C 230.65625 210.859375 230.464844 211.386719 230.484375 211.878906 C 230.496094 212.203125 230.574219 212.53125 230.625 212.847656 C 230.589844 212.59375 230.554688 212.339844 230.523438 212.085938 C 230.578125 212.503906 230.617188 212.917969 230.683594 213.335938 C 230.644531 213.066406 230.609375 212.796875 230.574219 212.527344 C 230.667969 213.320312 230.730469 213.84375 231.105469 214.566406 C 231.445312 215.210938 232.261719 215.835938 232.964844 215.996094 C 233.664062 216.15625 234.332031 216.121094 234.996094 215.839844 C 235.59375 215.585938 236.171875 215.15625 236.484375 214.566406 C 236.589844 214.316406 236.691406 214.070312 236.796875 213.820312 C 236.945312 213.269531 236.945312 212.71875 236.796875 212.164062 C 236.746094 211.792969 236.550781 211.394531 236.332031 211.085938 C 236.105469 210.769531 235.867188 210.417969 235.5625 210.167969 C 235.289062 209.941406 235.003906 209.703125 234.703125 209.511719 C 234.007812 209.082031 233.25 209.085938 232.476562 209.207031 C 232.945312 209.207031 233.417969 209.207031 233.890625 209.207031 C 233.449219 209.097656 233 209.03125 232.550781 209.09375 C 231.601562 209.222656 230.984375 209.820312 230.632812 210.714844 Z M 230.632812 210.714844 " fill-opacity="1" fill-rule="nonzero"/><path fill="#cc4e90" d="M 230.636719 198.589844 C 230.644531 198.625 230.652344 198.660156 230.65625 198.695312 C 230.628906 198.496094 230.601562 198.296875 230.578125 198.101562 C 230.578125 198.117188 230.578125 198.128906 230.578125 198.144531 C 230.605469 197.941406 230.632812 197.742188 230.660156 197.539062 C 230.484375 197.964844 230.503906 198.675781 230.640625 199.105469 C 230.773438 199.515625 230.984375 199.964844 231.308594 200.261719 C 231.496094 200.433594 231.714844 200.578125 231.921875 200.71875 C 232.566406 201.15625 233.445312 201.132812 234.128906 200.847656 C 234.777344 200.574219 235.4375 199.976562 235.566406 199.238281 C 235.652344 198.738281 235.714844 198.273438 235.578125 197.773438 C 235.367188 197.003906 234.785156 196.378906 234.0625 196.070312 C 233.601562 195.875 233.1875 195.792969 232.675781 195.863281 C 232.476562 195.890625 232.3125 195.921875 232.125 195.976562 C 231.632812 196.117188 231.101562 196.488281 230.855469 196.953125 C 230.574219 197.480469 230.523438 198.007812 230.636719 198.589844 Z M 230.636719 198.589844 " fill-opacity="1" fill-rule="nonzero"/><path fill="#e05e2b" d="M 340.328125 165.050781 C 338.226562 166.191406 336.371094 167.515625 334 168.082031 C 332.757812 168.382812 331.503906 168.492188 330.234375 168.417969 C 329.699219 168.386719 328.972656 168.132812 328.429688 168.300781 C 328.6875 168.535156 328.945312 168.761719 329.203125 168.996094 C 329.214844 168.960938 329.222656 168.929688 329.230469 168.898438 C 329.03125 169.027344 328.835938 169.152344 328.640625 169.28125 C 328.664062 169.289062 328.6875 169.296875 328.710938 169.304688 C 328.929688 169.359375 329.179688 169.191406 329.21875 168.976562 C 329.21875 168.953125 329.226562 168.925781 329.230469 168.898438 C 329.277344 168.640625 329.117188 168.355469 328.84375 168.308594 C 328.8125 168.300781 328.777344 168.296875 328.742188 168.292969 C 328.554688 168.257812 328.296875 168.304688 328.175781 168.476562 C 328.167969 168.488281 328.160156 168.496094 328.152344 168.507812 C 327.890625 168.875 327.859375 169.5 328.367188 169.714844 C 332.152344 171.289062 338.628906 168.75 340.539062 165.25 C 340.613281 165.105469 340.449219 164.984375 340.328125 165.050781 Z M 340.328125 165.050781 " fill-opacity="1" fill-rule="nonzero"/><path fill="#4f1e20" d="M 335.628906 152.355469 C 335.46875 154.882812 336.453125 156.996094 337.828125 157.085938 C 339.199219 157.171875 340.4375 155.195312 340.601562 152.667969 C 340.757812 150.140625 339.773438 148.027344 338.402344 147.9375 C 337.027344 147.851562 335.785156 149.828125 335.628906 152.355469 Z M 335.628906 152.355469 " fill-opacity="1" fill-rule="nonzero"/><path fill="#4f1e20" d="M 338.308594 145.964844 C 339.503906 146.699219 340.097656 148.097656 340.398438 149.421875 C 340.632812 150.457031 341.109375 152.339844 340.164062 153.105469 C 340 153.238281 339.742188 153.207031 339.589844 153.078125 C 338.824219 152.457031 339.105469 151.101562 338.992188 150.214844 C 338.816406 148.832031 338.136719 147.84375 337.613281 146.601562 C 337.449219 146.21875 337.925781 145.730469 338.308594 145.964844 Z M 338.308594 145.964844 " fill-opacity="1" fill-rule="nonzero"/><path fill="#802814" d="M 336.726562 133.046875 C 334.652344 133.636719 334.15625 136.90625 335.765625 138.191406 C 337.371094 139.480469 349.265625 143.65625 350.550781 141.082031 C 352.480469 137.226562 343.480469 131.117188 336.726562 133.046875 Z M 336.726562 133.046875 " fill-opacity="1" fill-rule="nonzero"/><path fill="#802814" d="M 310.765625 133.132812 C 309.339844 134.679688 309.152344 136.789062 310.230469 137.457031 C 311.300781 138.121094 318.078125 137.792969 319.355469 136.460938 C 321.617188 134.097656 320.652344 131.199219 318.546875 130.804688 C 317.519531 130.613281 312.914062 130.804688 310.765625 133.132812 Z M 310.765625 133.132812 " fill-opacity="1" fill-rule="nonzero"/><path fill="#c43e1f" d="M 304.742188 136.746094 C 302.324219 139.152344 302.804688 135.78125 301.359375 133.847656 C 300.386719 132.550781 297.667969 136.707031 293.785156 137.226562 C 289.859375 132.722656 286.777344 127.507812 288.816406 119.867188 C 290.335938 114.179688 293.566406 110.660156 296.921875 108.464844 C 295.304688 110.117188 293.972656 112.402344 293.640625 115.523438 C 292.679688 124.683594 301.839844 125.164062 306.183594 124.683594 C 310.523438 124.203125 307.148438 134.328125 304.742188 136.746094 Z M 304.742188 136.746094 " fill-opacity="1" fill-rule="nonzero"/><path fill="#c43e1f" d="M 372.746094 105.113281 C 369.089844 101.695312 361.839844 96.351562 349.582031 92.375 C 332.183594 86.726562 325.792969 97.144531 325.480469 97.664062 L 327.40625 90.449219 C 327.40625 90.449219 344.765625 81.277344 364.046875 96.710938 C 367.988281 99.863281 370.765625 102.660156 372.746094 105.113281 Z M 372.746094 105.113281 " fill-opacity="1" fill-rule="nonzero"/><path fill="#f59658" d="M 390.433594 314.59375 C 390.476562 314.828125 390.480469 315.066406 390.4375 315.3125 C 390.390625 315.558594 390.304688 315.808594 390.175781 316.054688 C 390.042969 316.304688 389.871094 316.550781 389.660156 316.792969 C 389.449219 317.035156 389.199219 317.269531 388.910156 317.5 C 388.625 317.726562 388.308594 317.941406 387.957031 318.144531 C 387.609375 318.34375 387.234375 318.53125 386.835938 318.703125 C 386.433594 318.871094 386.019531 319.023438 385.585938 319.15625 C 385.152344 319.289062 384.710938 319.398438 384.261719 319.484375 C 383.808594 319.574219 383.359375 319.636719 382.90625 319.679688 C 382.457031 319.71875 382.015625 319.734375 381.582031 319.726562 C 381.148438 319.71875 380.730469 319.6875 380.328125 319.628906 C 379.929688 319.574219 379.554688 319.496094 379.203125 319.390625 C 378.851562 319.289062 378.53125 319.164062 378.246094 319.019531 C 377.957031 318.875 377.707031 318.710938 377.492188 318.53125 C 377.277344 318.347656 377.101562 318.152344 376.96875 317.941406 C 376.835938 317.730469 376.75 317.507812 376.703125 317.273438 C 376.65625 317.039062 376.65625 316.800781 376.699219 316.554688 C 376.742188 316.308594 376.832031 316.0625 376.960938 315.8125 C 377.089844 315.566406 377.261719 315.320312 377.476562 315.074219 C 377.6875 314.832031 377.9375 314.597656 378.222656 314.371094 C 378.511719 314.144531 378.828125 313.929688 379.179688 313.726562 C 379.527344 313.523438 379.902344 313.335938 380.300781 313.167969 C 380.699219 312.996094 381.117188 312.847656 381.550781 312.714844 C 381.984375 312.582031 382.425781 312.472656 382.875 312.382812 C 383.324219 312.296875 383.777344 312.230469 384.226562 312.191406 C 384.679688 312.152344 385.121094 312.132812 385.554688 312.140625 C 385.988281 312.148438 386.40625 312.183594 386.804688 312.238281 C 387.207031 312.296875 387.582031 312.375 387.933594 312.476562 C 388.28125 312.582031 388.601562 312.703125 388.890625 312.847656 C 389.179688 312.992188 389.429688 313.15625 389.644531 313.339844 C 389.859375 313.519531 390.03125 313.71875 390.164062 313.929688 C 390.296875 314.140625 390.386719 314.363281 390.433594 314.59375 Z M 390.433594 314.59375 " fill-opacity="1" fill-rule="nonzero"/><path fill="#f57d31" d="M 373.214844 261.179688 C 373.214844 261.179688 411.792969 269.859375 428.191406 263.109375 C 444.585938 256.355469 440.902344 237.242188 440.902344 237.242188 L 451.820312 258.765625 L 433.976562 276.613281 Z M 373.214844 261.179688 " fill-opacity="0.42" fill-rule="nonzero"/><path fill="#f59658" d="M 282.269531 309.019531 C 281.78125 310.957031 284.214844 313.242188 287.695312 314.121094 C 291.183594 314.996094 294.402344 314.140625 294.890625 312.203125 C 295.378906 310.265625 292.949219 307.980469 289.464844 307.105469 C 285.984375 306.226562 282.757812 307.082031 282.269531 309.019531 Z M 282.269531 309.019531 " fill-opacity="1" fill-rule="nonzero"/><path fill="#f5833b" d="M 340.183594 216.566406 C 338.679688 217.171875 332.683594 217.269531 326.179688 217.183594 C 324.269531 217.15625 322.316406 217.117188 320.417969 217.070312 C 313.238281 216.882812 306.902344 216.566406 306.902344 216.566406 C 308.582031 215.898438 313.703125 213.195312 318.699219 210.496094 C 319.351562 211.355469 321.351562 212.082031 323.902344 212.714844 C 324.972656 212.976562 326.125 213.234375 327.320312 213.460938 C 334.246094 214.820312 342.375 215.695312 340.183594 216.566406 Z M 340.183594 216.566406 " fill-opacity="0.35" fill-rule="nonzero"/><path fill="#ffbd26" d="M 445.546875 274.679688 C 425.535156 282.851562 387.535156 267.140625 376.371094 262.136719 C 394.191406 267.296875 420.898438 273.265625 433.175781 267.125 C 452.128906 257.644531 441.28125 237.910156 440.902344 237.242188 C 441.503906 237.835938 468.910156 265.140625 445.546875 274.679688 Z M 445.546875 274.679688 " fill-opacity="1" fill-rule="nonzero"/><path fill="#f5833b" d="M 326.433594 638.816406 C 316.792969 626.28125 316.3125 595.652344 316.3125 595.652344 C 317.757812 603.613281 335.453125 626.859375 338.015625 636.160156 C 345.976562 665.140625 351.5 722.507812 353.472656 734.609375 C 350.648438 721.355469 335.179688 650.179688 326.433594 638.816406 Z M 326.433594 638.816406 " fill-opacity="0.35" fill-rule="nonzero"/><path fill="#f5833b" d="M 365.503906 762.773438 C 364.773438 767.835938 355.371094 785.921875 353.925781 794.601562 C 352.480469 803.28125 350.308594 821.371094 346.691406 823.542969 C 343.074219 825.703125 333.671875 826.429688 329.332031 827.160156 C 324.988281 827.875 317.039062 825.703125 317.039062 825.703125 C 317.039062 825.703125 318.71875 816.304688 321.617188 815.339844 C 324.507812 814.367188 319.691406 820.15625 326.433594 821.121094 C 333.1875 822.082031 340.898438 822.082031 343.800781 817.265625 C 346.6875 812.441406 348.613281 790.253906 350.550781 784.476562 C 352.480469 778.6875 362.121094 771.9375 365.503906 762.773438 Z M 365.503906 762.773438 " fill-opacity="0.35" fill-rule="nonzero"/><path fill="#f5833b" d="M 420.476562 810.519531 C 420.476562 814.863281 430.597656 827.878906 429.878906 834.394531 C 429.152344 840.902344 422.648438 851.03125 421.191406 856.820312 C 419.746094 862.609375 420.476562 895.164062 416.132812 900.945312 C 411.796875 906.734375 387.195312 905.289062 383.578125 903.84375 C 379.972656 902.398438 381.417969 899.5 383.578125 895.882812 C 385.75 892.265625 392.265625 889.375 392.265625 889.375 C 392.265625 889.375 399.734375 892.511719 402.632812 890.585938 C 405.523438 888.648438 406.488281 830.777344 409.375 824.027344 C 410.765625 820.785156 416.355469 812.917969 421.792969 805.578125 C 420.964844 808.25 420.476562 809.96875 420.476562 810.519531 Z M 420.476562 810.519531 " fill-opacity="0.35" fill-rule="nonzero"/><path fill="#ebd9b7" d="M 442.179688 678.363281 C 442.179688 678.363281 423.847656 653.285156 417.09375 629.171875 C 410.351562 605.058594 382.378906 627.246094 349.582031 584.800781 C 342.746094 575.953125 334.898438 568.433594 326.667969 562.265625 C 333.800781 565.15625 342.375 571.902344 357.304688 583.839844 C 376.589844 599.273438 421.917969 608.914062 428.671875 602.164062 C 435.421875 595.410156 430.597656 540.429688 422.882812 535.613281 C 415.167969 530.789062 349.582031 497.996094 357.304688 500.886719 C 365.019531 503.773438 418.066406 514.390625 422.882812 509.5625 C 427.707031 504.738281 424.808594 465.191406 409.378906 457.472656 C 403.777344 454.667969 388.128906 448.945312 371.492188 443.070312 C 342.292969 432.75 310.03125 421.960938 323.546875 425.644531 C 344.769531 431.433594 397.8125 425.644531 406.492188 422.753906 C 409.589844 421.726562 410.601562 418.351562 410.441406 414.585938 C 410.15625 407.785156 406.078125 399.660156 403.605469 401.53125 C 399.742188 404.417969 365.027344 409.246094 369.84375 406.347656 C 374.667969 403.457031 399.742188 386.09375 402.640625 376.453125 C 405.53125 366.800781 399.742188 357.15625 389.136719 361.984375 C 383.601562 364.5 374.671875 368.058594 367.378906 370.890625 C 378.304688 364.722656 389.195312 355.660156 398.78125 342.453125 C 398.78125 342.453125 406.496094 343.652344 411.324219 353.300781 C 416.136719 362.953125 415.175781 390.917969 415.175781 390.917969 C 415.175781 390.917969 433.507812 402.496094 431.570312 416.96875 C 431.570312 416.96875 428.933594 419.519531 424.140625 423.03125 C 429.417969 434.1875 437.726562 455.484375 436.394531 476.773438 C 436.394531 476.773438 438.398438 482.535156 440.921875 491.953125 C 445.386719 508.640625 451.480469 536.789062 450.867188 564.546875 C 450.867188 564.546875 452.660156 572.535156 453.738281 585.601562 C 455.511719 607.097656 455.378906 642.355469 442.179688 678.363281 Z M 442.179688 678.363281 " fill-opacity="0.61" fill-rule="nonzero"/><path fill="#f7914f" d="M 538.625 500.882812 C 538.625 500.882812 535.007812 494.609375 534.039062 492.921875 C 533.078125 491.234375 528.492188 488.101562 527.289062 486.414062 C 526.082031 484.726562 528.011719 484.726562 530.421875 486.65625 C 532.835938 488.582031 537.183594 494.851562 538.625 500.882812 Z M 538.625 500.882812 " fill-opacity="1" fill-rule="nonzero"/><path fill="#f7914f" d="M 537.171875 489.792969 C 537.171875 489.792969 532.351562 482.554688 528.976562 480.140625 C 525.601562 477.730469 532.828125 478.703125 537.171875 489.792969 Z M 537.171875 489.792969 " fill-opacity="1" fill-rule="nonzero"/></svg>