<svg xmlns="http://www.w3.org/2000/svg" xmlns:xlink="http://www.w3.org/1999/xlink" width="1080" zoomAndPan="magnify" viewBox="0 0 810 1012.49997" height="1350" preserveAspectRatio="xMidYMid meet" version="1.0"><defs><clipPath id="c32d6d87be"><path d="M 332 144.339844 L 438 144.339844 L 438 219 L 332 219 Z M 332 144.339844 " clip-rule="nonzero"/></clipPath></defs><path fill="#9c3119" d="M 295.757812 912.246094 C 295.757812 912.246094 290.992188 914.03125 290.394531 916.410156 C 289.796875 918.789062 290.992188 923.550781 290.992188 923.550781 L 374.425781 923.550781 C 374.425781 923.550781 380.382812 915.816406 372.039062 909.269531 C 363.695312 902.726562 295.757812 912.246094 295.757812 912.246094 Z M 295.757812 912.246094 " fill-opacity="1" fill-rule="nonzero"/><path fill="#ffbc91" d="M 343.433594 872.375 C 343.433594 872.375 325.554688 892.605469 321.980469 894.394531 C 318.40625 896.179688 304.101562 897.964844 300.527344 900.34375 C 296.953125 902.722656 295.164062 910.457031 295.761719 912.246094 C 296.359375 914.03125 314.828125 915.8125 327.347656 912.839844 C 339.859375 909.863281 368.464844 911.652344 372.042969 909.269531 C 375.617188 906.890625 368.46875 878.921875 367.871094 874.164062 C 367.273438 869.402344 369.0625 828.34375 369.0625 828.34375 L 344.03125 853.929688 Z M 343.433594 872.375 " fill-opacity="1" fill-rule="nonzero"/><path fill="#ffbc91" d="M 443.550781 870.890625 C 443.550781 870.890625 443.550781 885.769531 442.953125 888.148438 C 442.355469 890.527344 440.273438 906 440.867188 910.761719 C 441.464844 915.519531 439.675781 918.199219 443.847656 918.792969 C 448.019531 919.390625 487.054688 916.117188 489.4375 913.734375 C 491.820312 911.355469 491.226562 908.972656 490.628906 906.59375 C 490.03125 904.214844 485.863281 902.429688 484.671875 900.644531 C 483.480469 898.859375 475.730469 882.199219 475.132812 878.628906 C 474.539062 875.058594 474.539062 841.140625 474.539062 841.140625 C 474.539062 841.140625 458.445312 835.785156 456.660156 835.785156 C 454.878906 835.78125 440.574219 851.847656 443.550781 870.890625 Z M 443.550781 870.890625 " fill-opacity="1" fill-rule="nonzero"/><path fill="#80a31b" d="M 501.953125 551.941406 C 501.953125 551.941406 499.570312 572.171875 486.460938 581.695312 C 473.347656 591.214844 449.511719 566.222656 449.511719 566.222656 L 459.046875 530.523438 Z M 501.953125 551.941406 " fill-opacity="1" fill-rule="nonzero"/><path fill="#9c3119" d="M 444.148438 914.328125 C 444.148438 914.328125 442.359375 914.921875 440.574219 916.707031 C 438.785156 918.492188 439.976562 923.253906 441.765625 925.632812 C 443.554688 928.011719 490.632812 925.632812 492.421875 925.632812 C 494.210938 925.632812 497.1875 917.898438 489.441406 913.730469 C 481.695312 909.566406 444.148438 914.328125 444.148438 914.328125 Z M 444.148438 914.328125 " fill-opacity="1" fill-rule="nonzero"/><path fill="#9c3119" d="M 348.207031 912.847656 C 348.207031 912.847656 330.324219 930.6875 327.933594 915.820312 C 327.105469 910.625 325.472656 906.625 323.695312 903.632812 C 320.40625 898.027344 316.613281 895.882812 316.613281 895.882812 C 316.613281 895.882812 317.804688 871.785156 332.109375 881.898438 C 332.179688 881.957031 332.261719 882.003906 332.332031 882.0625 C 346.433594 892.230469 348.207031 912.847656 348.207031 912.847656 Z M 348.207031 912.847656 " fill-opacity="1" fill-rule="nonzero"/><path fill="#9c3119" d="M 484.671875 900.644531 C 484.671875 900.644531 474.539062 891.71875 459.648438 895.285156 C 444.746094 898.863281 440.566406 918.699219 440.566406 918.699219 C 440.566406 918.699219 437.953125 899.144531 442.0625 889.847656 C 442.332031 889.230469 442.632812 888.65625 442.960938 888.144531 C 448.316406 879.8125 467.128906 874.335938 473.945312 879.019531 C 474.960938 879.722656 475.871094 880.535156 476.710938 881.433594 C 483.269531 888.46875 484.671875 900.644531 484.671875 900.644531 Z M 484.671875 900.644531 " fill-opacity="1" fill-rule="nonzero"/><path fill="#9c3119" d="M 372.632812 221.097656 L 371.941406 223.160156 L 369.058594 231.804688 C 369.058594 231.804688 364.695312 244.15625 355.660156 249.832031 C 355.660156 249.832031 355.660156 249.832031 355.660156 249.847656 C 353.140625 251.429688 350.257812 252.503906 347.003906 252.628906 C 333.128906 253.191406 325.972656 242.375 328.4375 232.714844 C 328.625 232.003906 328.859375 231.304688 329.140625 230.621094 C 333.304688 220.503906 345.222656 224.070312 347.007812 222.882812 C 348.804688 221.691406 351.78125 219.316406 351.78125 219.316406 L 371.921875 221.039062 Z M 372.632812 221.097656 " fill-opacity="1" fill-rule="nonzero"/><path fill="#9bbe37" d="M 538.90625 863.75 C 534.132812 866.128906 497.195312 883.980469 485.265625 878.027344 C 473.347656 872.082031 479.3125 861.375 478.113281 854.230469 C 477.261719 849.101562 468.433594 846.433594 460.441406 849.289062 C 457.292969 850.40625 454.257812 852.386719 451.898438 855.417969 C 445.492188 863.644531 455.261719 876.089844 442.820312 884.652344 C 439.074219 887.242188 433.320312 889.464844 424.484375 891.121094 C 397.316406 896.203125 388.902344 889.210938 387.605469 880.039062 C 387.175781 877.0625 387.488281 873.859375 388.167969 870.761719 C 388.34375 869.992188 388.53125 869.246094 388.730469 868.5 C 390.109375 863.46875 390.25 859.65625 388.796875 857.164062 C 387.140625 854.261719 383.371094 853.109375 376.953125 853.804688 C 375.449219 853.96875 373.789062 854.234375 371.980469 854.609375 C 370.863281 854.84375 369.695312 855.113281 368.46875 855.417969 C 364.230469 856.476562 361.828125 858.398438 360.488281 860.789062 C 355.808594 869.15625 364.371094 883.054688 354.160156 883.976562 C 341.050781 885.167969 300.519531 863.75 300.519531 863.75 C 303.03125 834.488281 305.175781 800.714844 307.019531 764.917969 C 311.148438 684.835938 313.734375 594.609375 315.296875 522.089844 C 316.242188 478.230469 316.816406 440.847656 317.152344 416.105469 C 317.417969 395.910156 317.511719 384.128906 317.511719 384.128906 C 317.511719 384.128906 382.765625 323.441406 436.402344 421.023438 C 448.246094 442.582031 460.082031 476.0625 471.296875 515.21875 C 474.929688 527.882812 478.5 541.144531 481.964844 554.789062 C 493.726562 600.914062 504.488281 651.347656 513.417969 697.855469 C 530.664062 787.578125 541.121094 862.644531 538.90625 863.75 Z M 538.90625 863.75 " fill-opacity="1" fill-rule="nonzero"/><path fill="#80a31b" d="M 481.964844 554.792969 C 466.511719 550.53125 434.371094 538.152344 400.644531 518.914062 C 356.84375 493.929688 335.390625 455.542969 330.023438 461.789062 C 326.546875 465.84375 319.695312 499.160156 315.296875 522.089844 C 316.242188 478.230469 316.816406 440.847656 317.152344 416.105469 L 353.273438 422.515625 C 353.273438 422.515625 432.710938 484.324219 471.296875 515.214844 C 474.925781 527.886719 478.496094 541.148438 481.964844 554.792969 Z M 481.964844 554.792969 " fill-opacity="1" fill-rule="nonzero"/><path fill="#add437" d="M 538.90625 863.75 C 534.132812 866.128906 497.195312 883.980469 485.265625 878.027344 C 473.347656 872.082031 479.3125 861.375 478.113281 854.230469 C 476.921875 847.085938 460.246094 844.707031 451.898438 855.417969 C 443.554688 866.132812 462.625 883.980469 424.484375 891.125 C 397.316406 896.207031 388.902344 889.214844 387.605469 880.039062 C 387.175781 877.066406 387.488281 873.863281 388.167969 870.761719 C 388.34375 869.992188 388.53125 869.246094 388.730469 868.503906 C 390.109375 863.472656 390.25 859.660156 388.796875 857.167969 C 386.753906 853.578125 381.484375 852.667969 371.980469 854.613281 C 370.863281 854.847656 369.695312 855.117188 368.46875 855.417969 C 349.398438 860.175781 367.277344 882.792969 354.160156 883.980469 C 341.050781 885.171875 300.519531 863.75 300.519531 863.75 C 303.03125 834.492188 305.175781 800.71875 307.019531 764.921875 C 308.875 796.617188 314.410156 825.414062 327.933594 830.421875 C 360.121094 842.320312 375.621094 665 375.621094 665 C 375.621094 665 394.691406 803.050781 406.609375 835.1875 C 418.523438 867.316406 442.367188 739.972656 432.832031 660.242188 L 439.972656 668.574219 C 439.972656 668.574219 465.007812 804.238281 493.613281 824.480469 C 516.601562 840.746094 514.957031 738.550781 513.417969 697.859375 C 530.664062 787.578125 541.121094 862.644531 538.90625 863.75 Z M 538.90625 863.75 " fill-opacity="0.71" fill-rule="nonzero"/><path fill="#bae045" d="M 376.949219 853.8125 C 375.445312 853.976562 373.789062 854.242188 371.980469 854.617188 C 370.859375 854.851562 369.691406 855.121094 368.464844 855.421875 C 364.226562 856.480469 361.824219 858.40625 360.484375 860.792969 L 360.414062 860.773438 C 360.414062 860.773438 369.796875 699.332031 365.878906 597.078125 C 369.613281 658.3125 376.976562 779.714844 378.296875 808.113281 C 379.238281 828.535156 378.175781 843.90625 376.949219 853.8125 Z M 376.949219 853.8125 " fill-opacity="0.57" fill-rule="nonzero"/><path fill="#88ad1d" d="M 388.796875 857.167969 C 386.75 853.578125 381.480469 852.667969 371.980469 854.613281 C 371.476562 820.539062 368.105469 597.722656 363.691406 561.457031 C 358.957031 522.398438 393.125 742.410156 388.796875 857.167969 Z M 388.796875 857.167969 " fill-opacity="1" fill-rule="nonzero"/><path fill="#afd63e" d="M 501.953125 551.9375 C 417.328125 542.417969 338.667969 440.070312 338.667969 440.070312 C 338.667969 440.070312 339.683594 439.335938 341.367188 438.160156 C 348.777344 432.890625 369.128906 418.652344 372.039062 418.652344 C 375.617188 418.652344 441.175781 421.027344 441.175781 421.027344 C 441.175781 421.027344 442.109375 422.226562 443.566406 424.175781 C 446.488281 428.054688 451.503906 434.917969 455.472656 441.257812 C 461.4375 450.78125 461.4375 467.441406 461.4375 467.441406 C 461.4375 467.441406 480.503906 480.539062 480.503906 487.671875 C 480.503906 494.8125 475.730469 496.003906 476.921875 504.335938 C 478.117188 512.667969 492.421875 510.292969 494.804688 517.433594 C 495.984375 520.917969 497.710938 529.203125 499.167969 536.800781 C 499.566406 538.851562 499.941406 540.855469 500.289062 542.683594 C 501.265625 547.988281 501.953125 551.9375 501.953125 551.9375 Z M 501.953125 551.9375 " fill-opacity="1" fill-rule="nonzero"/><path fill="#f4af14" d="M 334.585938 427.425781 C 333.710938 427.824219 332.507812 428.265625 330.921875 428.765625 C 313.929688 434.125 255.832031 471.613281 256.722656 462.6875 C 257.609375 453.902344 274.078125 445.980469 274.589844 445.734375 C 274.574219 445.734375 274.574219 445.734375 274.566406 445.734375 C 274.542969 445.734375 274.507812 445.734375 274.460938 445.746094 C 274.238281 445.769531 274.007812 445.792969 273.773438 445.828125 C 270.097656 446.226562 255.835938 447.402344 262.089844 440.375 C 266.980469 434.875 292.75 429.386719 308.566406 426.460938 C 315.894531 425.109375 321.089844 424.308594 321.089844 424.308594 C 321.089844 424.308594 324.890625 424.179688 328.722656 424.308594 C 334.117188 424.488281 339.578125 425.179688 334.585938 427.425781 Z M 334.585938 427.425781 " fill-opacity="1" fill-rule="nonzero"/><path fill="#e09e09" d="M 334.585938 427.425781 C 333.710938 427.824219 332.507812 428.265625 330.921875 428.765625 C 313.929688 434.125 255.832031 471.613281 256.722656 462.6875 C 257.609375 453.902344 274.078125 445.980469 274.589844 445.734375 C 274.574219 445.734375 274.574219 445.734375 274.566406 445.734375 C 274.578125 445.722656 274.589844 445.722656 274.601562 445.722656 C 274.601562 445.722656 310.058594 436.503906 313.640625 433.332031 C 316.019531 431.210938 311.714844 428.230469 308.566406 426.460938 C 315.894531 425.105469 321.089844 424.304688 321.089844 424.304688 C 321.089844 424.304688 324.890625 424.175781 328.722656 424.304688 Z M 334.585938 427.425781 " fill-opacity="1" fill-rule="nonzero"/><path fill="#a4c934" d="M 500.285156 542.6875 L 477.519531 539.445312 C 477.519531 539.445312 401.5625 508.21875 386.355469 485.015625 C 387.386719 485.585938 454.382812 523.367188 468.574219 521.59375 C 482.886719 519.808594 473.941406 506.421875 469.472656 503.738281 C 465.003906 501.058594 410.480469 474.28125 405.109375 468.929688 C 399.753906 463.570312 458.75 493.03125 464.101562 489.464844 C 469.46875 485.886719 459.644531 474.28125 456.960938 470.714844 C 454.277344 467.148438 394.382812 443.050781 391.699219 439.472656 C 389.015625 435.90625 423.886719 449.296875 415.835938 432.328125 C 411.351562 422.878906 427.972656 422.578125 443.566406 424.175781 C 446.484375 428.054688 451.5 434.917969 455.46875 441.257812 C 461.433594 450.78125 461.433594 467.441406 461.433594 467.441406 C 461.433594 467.441406 480.5 480.539062 480.5 487.671875 C 480.5 494.8125 475.730469 496.003906 476.921875 504.335938 C 478.113281 512.667969 492.417969 510.292969 494.800781 517.433594 C 495.980469 520.917969 497.707031 529.203125 499.167969 536.800781 C 499.5625 538.855469 499.9375 540.859375 500.285156 542.6875 Z M 500.285156 542.6875 " fill-opacity="1" fill-rule="nonzero"/><path fill="#c0e84d" d="M 501.953125 551.9375 C 417.328125 542.417969 338.667969 440.070312 338.667969 440.070312 C 338.667969 440.070312 339.683594 439.335938 341.367188 438.160156 C 343.117188 440.164062 344.996094 442.390625 347.003906 444.835938 C 409.441406 520.941406 482.1875 530.953125 499.167969 536.800781 C 500.90625 537.40625 502.050781 537.964844 502.550781 538.546875 C 507.917969 544.808594 501.953125 551.9375 501.953125 551.9375 Z M 501.953125 551.9375 " fill-opacity="1" fill-rule="nonzero"/><path fill="#82220d" d="M 371.941406 223.160156 L 369.058594 231.804688 C 369.058594 231.804688 364.695312 244.15625 355.660156 249.832031 C 360.257812 235.453125 342.300781 224.71875 335.984375 226.445312 C 332.183594 227.480469 329.777344 230.429688 328.433594 232.710938 C 328.621094 232.003906 328.855469 231.300781 329.136719 230.617188 C 333.300781 220.5 345.21875 224.066406 347.003906 222.878906 C 348.800781 221.6875 351.777344 219.3125 351.777344 219.3125 L 371.921875 221.035156 C 371.933594 221.644531 371.941406 222.355469 371.941406 223.160156 Z M 371.941406 223.160156 " fill-opacity="1" fill-rule="nonzero"/><path fill="#bae045" d="M 460.445312 849.289062 C 457.292969 850.410156 454.257812 852.390625 451.898438 855.417969 C 445.492188 863.648438 455.261719 876.09375 442.820312 884.65625 C 441.722656 857.179688 434.007812 673.65625 419.710938 569.792969 C 419.710938 569.792969 448.023438 735.8125 448.023438 740.277344 C 448.023438 743.726562 456.554688 816.382812 460.445312 849.289062 Z M 460.445312 849.289062 " fill-opacity="0.57" fill-rule="nonzero"/><path fill="#ffbc91" d="M 377.207031 444.046875 C 374.8125 443.648438 367.667969 440.46875 367.667969 440.46875 C 367.667969 440.46875 368.066406 444.046875 366.476562 446.027344 C 364.878906 448.007812 361.304688 448.402344 361.304688 448.402344 C 361.304688 448.402344 360.113281 451.1875 357.339844 451.585938 C 354.550781 451.984375 350.582031 449.59375 350.582031 449.59375 C 350.582031 449.59375 341.046875 448.402344 338.664062 445.433594 C 336.273438 442.460938 328.523438 430.554688 326.738281 429.363281 C 324.953125 428.171875 286.21875 418.65625 283.242188 413.292969 C 280.257812 407.941406 277.875 396.046875 280.257812 383.542969 C 282.648438 371.050781 294.566406 337.722656 295.753906 322.257812 C 296.945312 306.785156 301.121094 293.105469 309.457031 282.976562 C 317.800781 272.859375 331.511719 271.078125 331.511719 271.078125 L 320.191406 366.550781 L 319.992188 368.273438 C 319.992188 368.273438 317.597656 393.65625 319.183594 395.648438 C 320.726562 397.558594 336.691406 407.242188 339.234375 408.257812 C 339.328125 408.300781 339.398438 408.324219 339.457031 408.335938 C 340.425781 408.582031 346.574219 409.558594 351.488281 410.644531 C 352.003906 410.761719 352.492188 410.867188 352.972656 410.984375 C 355.433594 411.578125 357.351562 412.183594 357.730469 412.699219 C 357.976562 413.039062 358.40625 413.851562 358.933594 414.972656 C 360.929688 419.167969 364.417969 427.484375 365.667969 429.363281 C 366.648438 430.820312 370.453125 433.019531 373.53125 434.957031 C 374.5625 435.621094 375.503906 436.238281 376.238281 436.800781 C 376.890625 437.300781 377.371094 437.730469 377.59375 438.09375 C 378.796875 440.070312 379.589844 444.441406 377.207031 444.046875 Z M 377.207031 444.046875 " fill-opacity="1" fill-rule="nonzero"/><path fill="#88ad1d" d="M 478.113281 854.230469 C 476.921875 847.085938 460.246094 844.707031 451.898438 855.417969 C 451.898438 855.417969 430.4375 629.304688 419.710938 569.792969 C 408.988281 510.292969 480.503906 835.1875 478.113281 854.230469 Z M 478.113281 854.230469 " fill-opacity="1" fill-rule="nonzero"/><path fill="#f4af14" d="M 368.464844 224.664062 C 367.8125 224.886719 367.019531 225.003906 366.144531 225.035156 C 362.304688 225.1875 356.761719 223.695312 352.699219 221.65625 C 350.167969 220.398438 348.207031 218.929688 347.609375 217.519531 C 345.8125 213.359375 352.375 212.167969 352.375 212.167969 L 354.242188 212.308594 L 360.824219 212.820312 L 367.871094 213.355469 C 367.871094 213.359375 373.824219 222.882812 368.464844 224.664062 Z M 368.464844 224.664062 " fill-opacity="1" fill-rule="nonzero"/><g clip-path="url(#c32d6d87be)"><path fill="#9c3119" d="M 436.996094 189.554688 C 435.664062 192.222656 423.679688 201.207031 417.714844 205.574219 C 415.683594 207.042969 414.355469 207.996094 414.355469 207.996094 L 376.214844 218.121094 C 376.214844 218.121094 370.671875 219.277344 364.183594 217.996094 C 360.25 217.210938 355.964844 215.535156 352.371094 212.167969 C 352.371094 212.167969 335.683594 200.269531 332.707031 191.347656 C 331.25 186.988281 335.066406 183.339844 340.234375 179.15625 C 343.714844 176.335938 347.832031 173.261719 351.359375 169.566406 C 353.332031 167.515625 355.128906 165.28125 356.539062 162.785156 C 361.882812 153.347656 370.636719 148.441406 377.304688 147.675781 C 377.316406 147.675781 377.328125 147.675781 377.328125 147.660156 C 380.3125 147.3125 382.894531 147.800781 384.550781 149.09375 C 384.550781 149.09375 388.132812 144.34375 393.488281 144.34375 C 398.859375 144.34375 411.371094 150.878906 423.296875 163.382812 C 431 171.457031 435.214844 178.53125 436.742188 183.496094 L 436.742188 183.507812 C 437.589844 186.222656 437.625 188.292969 436.996094 189.554688 Z M 436.996094 189.554688 " fill-opacity="1" fill-rule="nonzero"/></g><path fill="#e09d06" d="M 366.972656 216.332031 L 366.140625 225.035156 C 362.300781 225.1875 356.757812 223.695312 352.699219 221.65625 C 355.148438 221.339844 358.171875 219.910156 355.054688 214.253906 C 354.609375 213.441406 354.34375 212.8125 354.238281 212.308594 L 360.820312 212.820312 C 363.9375 214.375 366.972656 216.332031 366.972656 216.332031 Z M 366.972656 216.332031 " fill-opacity="1" fill-rule="nonzero"/><path fill="#82240e" d="M 403.625 172.300781 C 403.625 172.300781 394.683594 158.914062 390.214844 154.152344 C 385.746094 149.390625 402.730469 162.183594 407.5 171.109375 C 412.265625 180.039062 403.625 172.300781 403.625 172.300781 Z M 403.625 172.300781 " fill-opacity="1" fill-rule="nonzero"/><path fill="#ffbc91" d="M 480.015625 402.640625 C 479.023438 407.175781 477.578125 411.566406 476.117188 415.285156 C 474.214844 420.144531 472.289062 423.839844 471.261719 425.199219 C 468.578125 428.765625 439.972656 432.941406 424.484375 433.53125 C 408.988281 434.125 390.511719 429.957031 386.941406 430.550781 C 384.933594 430.890625 378.996094 433.089844 373.542969 434.953125 C 369.257812 436.421875 365.257812 437.691406 363.691406 437.691406 C 360.121094 437.691406 342.242188 415.480469 340.652344 412.300781 C 339.066406 409.132812 346.210938 409.925781 347.808594 410.320312 C 349.394531 410.71875 354.949219 417.460938 356.535156 418.253906 C 357.351562 418.660156 355.277344 414.933594 352.976562 410.980469 C 350.785156 407.171875 348.390625 403.152344 348.207031 402.382812 C 347.808594 400.796875 352.171875 398.816406 354.949219 400.796875 C 357.738281 402.78125 362.101562 409.921875 365.28125 411.113281 C 368.464844 412.300781 362.105469 400.796875 361.707031 399.214844 C 361.308594 397.628906 364.089844 397.628906 366.878906 398.816406 C 369.65625 400.003906 374.816406 408.730469 376.8125 409.523438 C 378.796875 410.316406 376.414062 403.964844 376.8125 401.984375 C 377.210938 400.003906 380.777344 399.210938 382.367188 400.792969 C 383.953125 402.378906 388.332031 408.335938 390.3125 409.917969 C 391.246094 410.664062 397.65625 410.535156 404.996094 409.734375 C 413.328125 408.847656 422.851562 407.089844 426.867188 404.769531 C 427.507812 404.398438 428.21875 403.789062 428.976562 403 C 435.105469 396.597656 444.558594 377.898438 448.921875 368.878906 C 450.40625 365.835938 451.300781 363.902344 451.300781 363.902344 L 426.675781 348.941406 L 412.15625 340.105469 L 411.363281 286.546875 L 434.019531 265.726562 C 434.019531 265.726562 448.910156 268.101562 456.964844 276.128906 C 465.003906 284.171875 465.902344 317.195312 470.371094 330.585938 C 470.523438 331.050781 470.6875 331.53125 470.839844 332.042969 C 472.566406 337.621094 474.269531 345.441406 475.820312 353.695312 C 478.132812 366.066406 480.058594 379.4375 481.097656 387.710938 C 481.683594 392.363281 481.121094 397.59375 480.015625 402.640625 Z M 480.015625 402.640625 " fill-opacity="1" fill-rule="nonzero"/><path fill="#f5833b" d="M 319.996094 368.273438 C 319.996094 368.273438 317.605469 393.65625 319.191406 395.648438 C 303.902344 388.699219 289.792969 398.421875 291.589844 394.84375 C 293.378906 391.277344 298.734375 385.925781 299.328125 383.539062 C 299.921875 381.160156 301.722656 345.457031 301.722656 345.457031 L 320.195312 366.546875 Z M 319.996094 368.273438 " fill-opacity="0.61" fill-rule="nonzero"/><path fill="#f5833b" d="M 480.015625 402.640625 C 479.023438 407.175781 477.578125 411.566406 476.117188 415.285156 C 458.730469 410.726562 413.433594 409.867188 404.996094 409.734375 C 413.328125 408.847656 422.851562 407.09375 426.867188 404.773438 C 427.507812 404.398438 428.21875 403.792969 428.976562 403 C 446.578125 401.359375 468.167969 402.046875 480.015625 402.640625 Z M 480.015625 402.640625 " fill-opacity="0.61" fill-rule="nonzero"/><path fill="#eda80b" d="M 588.367188 365.394531 C 587.171875 379.972656 566.015625 377.886719 566.015625 377.886719 C 566.015625 377.886719 583.894531 385.03125 576.753906 397.523438 C 570.90625 407.746094 540.609375 401.859375 529.707031 399.367188 C 529.695312 399.367188 529.695312 399.367188 529.695312 399.367188 C 527.257812 398.804688 525.796875 398.421875 525.796875 398.421875 C 525.796875 398.421875 536.617188 408.046875 529.367188 414.492188 C 524 419.25 494.507812 407.351562 458.75 407.351562 C 439.925781 407.351562 416.558594 409.273438 398.65625 411.101562 C 382.535156 412.730469 370.84375 414.292969 370.84375 414.292969 L 372.933594 408.234375 L 395.28125 388.601562 L 471.257812 357.359375 C 471.257812 357.359375 532.941406 330.589844 549.03125 327.011719 C 565.128906 323.445312 576.257812 325.3125 582.105469 335.054688 C 588.363281 345.460938 576.75 350.226562 576.75 350.226562 C 576.75 350.226562 589.167969 355.574219 588.367188 365.394531 Z M 588.367188 365.394531 " fill-opacity="1" fill-rule="nonzero"/><path fill="#ffcb2e" d="M 586.101562 360.957031 C 576.738281 358.046875 565.875 358.183594 556.164062 358.441406 C 546.320312 358.707031 535.621094 359.023438 526.257812 362.332031 C 525.519531 362.59375 525.589844 363.773438 526.449219 363.753906 C 536.375 363.542969 546.214844 361.535156 556.164062 361.203125 C 566.101562 360.875 576.132812 362.136719 586.019531 361.546875 C 586.355469 361.527344 586.433594 361.0625 586.101562 360.957031 Z M 586.101562 360.957031 " fill-opacity="1" fill-rule="nonzero"/><path fill="#ffcb2e" d="M 571.171875 396.148438 C 562.042969 394.394531 552.839844 393.136719 543.589844 392.238281 C 533.816406 391.285156 523.671875 390.148438 513.878906 391.1875 C 513.34375 391.242188 513.355469 391.945312 513.878906 392.007812 C 523.363281 393.171875 533.0625 392.902344 542.601562 393.539062 C 552.144531 394.171875 561.652344 395.183594 571.152344 396.285156 C 571.230469 396.292969 571.246094 396.164062 571.171875 396.148438 Z M 571.171875 396.148438 " fill-opacity="1" fill-rule="nonzero"/><path fill="#f5833b" d="M 448.921875 368.882812 C 450.40625 365.839844 451.300781 363.90625 451.300781 363.90625 L 426.675781 348.945312 C 419.242188 327.945312 413.945312 297.332031 430.433594 269.890625 C 430.433594 269.890625 426.269531 315.710938 439.371094 331.78125 C 449.1875 343.796875 464 336.5 470.839844 332.046875 C 472.566406 337.628906 474.269531 345.449219 475.820312 353.699219 Z M 448.921875 368.882812 " fill-opacity="0.61" fill-rule="nonzero"/><path fill="#82220d" d="M 370.542969 206.21875 L 364.183594 217.996094 C 360.25 217.214844 355.964844 215.539062 352.371094 212.171875 C 352.371094 212.171875 335.683594 200.273438 332.707031 191.347656 C 331.25 186.992188 335.066406 183.34375 340.234375 179.160156 C 339.207031 180.945312 338.578125 183.066406 338.960938 185.398438 C 340.15625 192.539062 353.5625 188.671875 353.5625 188.671875 Z M 370.542969 206.21875 " fill-opacity="1" fill-rule="nonzero"/><path fill="#fcf1dc" d="M 317.804688 385.929688 C 317.804688 385.929688 314.230469 389.496094 316.617188 392.46875 C 319 395.445312 392.300781 411.507812 447.128906 382.945312 C 501.953125 354.386719 317.804688 385.929688 317.804688 385.929688 Z M 317.804688 385.929688 " fill-opacity="1" fill-rule="nonzero"/><path fill="#9bbe37" d="M 451.304688 363.90625 L 449.648438 364.675781 L 401.238281 387.121094 C 401.238281 387.121094 354.753906 397.234375 317.804688 385.929688 C 317.804688 385.929688 305.886719 369.859375 304.699219 363.90625 C 303.558594 358.207031 304.605469 355.234375 304.6875 354.992188 C 304.6875 354.976562 304.699219 354.976562 304.699219 354.976562 C 304.699219 354.976562 298.140625 345.457031 299.332031 339.511719 C 300.523438 333.558594 304.699219 328.199219 304.699219 328.199219 C 304.699219 328.199219 310.019531 294.40625 325.894531 276.390625 C 327.621094 274.410156 329.488281 272.625 331.484375 271.101562 C 331.507812 271.085938 331.519531 271.078125 331.519531 271.078125 C 351.78125 255.613281 372.636719 269.886719 372.636719 269.886719 L 399.453125 260.960938 C 399.453125 260.960938 403.027344 257.394531 408.992188 256.800781 C 414.957031 256.210938 417.335938 260.960938 417.335938 260.960938 C 417.335938 260.960938 424.488281 256.800781 429.253906 260.367188 C 434.023438 263.933594 434.023438 265.726562 434.023438 265.726562 C 434.023438 265.726562 425.085938 278.8125 426.871094 307.972656 C 427.804688 323.28125 434.503906 337.933594 440.632812 348.398438 C 441.554688 349.945312 442.453125 351.414062 443.328125 352.777344 C 445.757812 356.566406 447.925781 359.558594 449.386719 361.472656 C 450.582031 363.042969 451.304688 363.90625 451.304688 363.90625 Z M 451.304688 363.90625 " fill-opacity="1" fill-rule="nonzero"/><path fill="#8aad21" d="M 449.648438 364.675781 L 401.238281 387.121094 C 401.238281 387.121094 354.753906 397.234375 317.804688 385.929688 C 317.804688 385.929688 305.886719 369.859375 304.699219 363.90625 C 303.558594 358.207031 304.605469 355.234375 304.6875 354.992188 C 304.6875 354.976562 304.699219 354.976562 304.699219 354.976562 C 304.699219 354.976562 324.667969 373.425781 358.628906 377 C 385.953125 379.867188 426.003906 357.332031 440.625 348.394531 C 444.101562 354.289062 447.394531 358.871094 449.378906 361.46875 C 449.507812 362.625 449.609375 363.707031 449.648438 364.675781 Z M 449.648438 364.675781 " fill-opacity="1" fill-rule="nonzero"/><path fill="#ffc515" d="M 347.804688 410.324219 C 347.804688 410.324219 462.324219 335.941406 507.019531 320.769531 C 551.71875 305.597656 566.023438 311.84375 567.808594 317.199219 C 569.597656 322.554688 548.140625 333.269531 548.140625 333.269531 C 548.140625 333.269531 558.867188 332.375 557.972656 340.40625 C 557.078125 348.4375 537.414062 354.6875 537.414062 354.6875 C 537.414062 354.6875 547.246094 351.117188 549.925781 360.9375 C 552.605469 370.753906 539.199219 377.003906 530.257812 379.679688 C 521.320312 382.355469 439.972656 383.25 384.550781 410.03125 L 353.265625 422.523438 Z M 347.804688 410.324219 " fill-opacity="1" fill-rule="nonzero"/><path fill="#8aad21" d="M 342.839844 269.292969 C 342.839844 269.292969 337.175781 295.773438 355.949219 303.804688 C 374.722656 311.839844 408.289062 272.394531 412.511719 265.785156 C 412.511719 265.785156 367.269531 282.980469 342.839844 269.292969 Z M 342.839844 269.292969 " fill-opacity="1" fill-rule="nonzero"/><path fill="#8aad21" d="M 343.433594 349.328125 C 323.769531 336.835938 316.613281 331.476562 313.039062 328.796875 C 309.460938 326.125 306.785156 341.300781 318.398438 355.574219 C 330.019531 369.863281 340.75 373.429688 338.0625 377.003906 C 335.386719 380.570312 315.105469 367.800781 304.683594 354.992188 C 304.683594 354.976562 304.695312 354.976562 304.695312 354.976562 C 304.695312 354.976562 298.136719 345.457031 299.328125 339.511719 C 300.519531 333.558594 304.695312 328.199219 304.695312 328.199219 C 304.695312 328.199219 310.019531 294.40625 325.890625 276.390625 C 322.332031 280.890625 318.398438 288.511719 318.398438 300.234375 C 318.398438 321.664062 355.941406 352.890625 368.464844 355.574219 C 380.976562 358.253906 363.097656 361.820312 343.433594 349.328125 Z M 343.433594 349.328125 " fill-opacity="1" fill-rule="nonzero"/><path fill="#82220d" d="M 436.996094 189.554688 C 435.664062 192.222656 423.679688 201.207031 417.714844 205.574219 L 408.984375 194.015625 L 416.136719 169.03125 C 416.136719 169.03125 421.496094 170.816406 424.179688 176.769531 C 426.863281 182.714844 428.359375 189.554688 432.828125 189.261719 C 435.347656 189.085938 436.339844 186.09375 436.738281 183.507812 C 437.589844 186.222656 437.625 188.292969 436.996094 189.554688 Z M 436.996094 189.554688 " fill-opacity="1" fill-rule="nonzero"/><path fill="#ffbc91" d="M 412.554688 265.726562 C 412.554688 265.726562 412.554688 265.726562 412.542969 265.742188 C 412.542969 265.753906 412.53125 265.765625 412.507812 265.785156 C 411.46875 267.089844 394.558594 287.859375 372.035156 291.308594 C 348.800781 294.882812 342.835938 269.292969 342.835938 269.292969 C 344.421875 269.292969 346.476562 268.734375 348.660156 267.882812 C 355.484375 265.238281 363.691406 259.773438 363.691406 259.773438 C 360.117188 240.730469 362.5 209.195312 362.5 209.195312 L 368.003906 214.207031 L 395.875 239.542969 C 395.875 239.542969 396.285156 251.265625 398.09375 257.707031 C 398.480469 259.085938 398.921875 260.226562 399.449219 260.957031 C 402.429688 265.132812 412.554688 265.726562 412.554688 265.726562 Z M 412.554688 265.726562 " fill-opacity="1" fill-rule="nonzero"/><path fill="#f5833b" d="M 398.097656 257.710938 C 391.164062 255.265625 369.726562 245.488281 368.066406 217.917969 C 367.984375 216.519531 367.964844 215.28125 368.007812 214.210938 L 395.878906 239.546875 C 395.878906 239.546875 396.289062 251.265625 398.097656 257.710938 Z M 398.097656 257.710938 " fill-opacity="1" fill-rule="nonzero"/><path fill="#ffbc91" d="M 362.503906 209.195312 C 362.503906 209.195312 345.222656 203.246094 349.992188 191.9375 C 354.757812 180.632812 371.445312 199.675781 371.445312 199.675781 C 371.445312 199.675781 374.425781 185.394531 381.574219 175.871094 C 391.941406 162.066406 403.625 172.300781 403.625 172.300781 C 403.625 172.300781 407 170.121094 412.960938 169.523438 C 418.917969 168.929688 423.289062 177.0625 421.5 187.175781 C 418.980469 201.433594 421.300781 208.582031 420.902344 215.140625 C 420.109375 228.234375 406.601562 244.300781 398.257812 247.273438 C 389.917969 250.253906 359.523438 236.566406 362.503906 209.195312 Z M 362.503906 209.195312 " fill-opacity="1" fill-rule="nonzero"/><path fill="#9c3119" d="M 423.886719 203.738281 C 423.886719 203.738281 425.675781 213.558594 434.613281 214.453125 C 443.550781 215.34375 442.65625 231.410156 435.507812 235.871094 C 428.355469 240.335938 423.886719 236.765625 423.886719 236.765625 C 423.886719 236.765625 433.71875 234.976562 431.035156 227.839844 C 428.355469 220.699219 420.308594 210.882812 423.886719 203.738281 Z M 423.886719 203.738281 " fill-opacity="1" fill-rule="nonzero"/><path fill="#e86e3e" d="M 354.152344 190.734375 C 358.089844 194.257812 360.511719 197.746094 362.144531 202.761719 C 362.398438 203.535156 363.703125 203.191406 363.535156 202.390625 C 362.523438 197.511719 358.863281 192.574219 354.289062 190.496094 C 354.140625 190.425781 354.042969 190.632812 354.152344 190.734375 Z M 354.152344 190.734375 " fill-opacity="1" fill-rule="nonzero"/><path fill="#e86e3e" d="M 352.011719 199.773438 C 354.921875 199.175781 358.191406 199.15625 361.03125 200.078125 C 361.898438 200.359375 362.257812 199.078125 361.355469 198.863281 C 358.054688 198.082031 355.058594 198.226562 351.996094 199.71875 C 351.96875 199.734375 351.976562 199.777344 352.011719 199.773438 Z M 352.011719 199.773438 " fill-opacity="1" fill-rule="nonzero"/><path fill="#e86e3e" d="M 407.503906 209.476562 C 406.171875 211.300781 406.351562 213.8125 407.316406 215.769531 C 407.835938 216.820312 408.789062 217.40625 409.386719 218.320312 C 409.941406 219.171875 409.054688 219.988281 408.160156 220.347656 C 406.863281 220.875 405.472656 220.382812 404.351562 219.6875 C 403.496094 219.15625 402.535156 220.398438 403.402344 220.949219 C 406.144531 222.703125 411.179688 222.582031 411.308594 218.324219 C 411.320312 217.957031 411.171875 217.710938 410.855469 217.539062 C 407.824219 215.878906 407.242188 212.679688 407.617188 209.527344 C 407.625 209.460938 407.542969 209.425781 407.503906 209.476562 Z M 407.503906 209.476562 " fill-opacity="1" fill-rule="nonzero"/><path fill="#4f1e20" d="M 387.546875 208.625 C 387.367188 211.484375 388.480469 213.882812 390.035156 213.980469 C 391.59375 214.078125 393 211.84375 393.183594 208.984375 C 393.367188 206.125 392.25 203.730469 390.695312 203.628906 C 389.136719 203.527344 387.726562 205.765625 387.546875 208.625 Z M 387.546875 208.625 " fill-opacity="1" fill-rule="nonzero"/><path fill="#4f1e20" d="M 388.15625 208.8125 C 388.4375 207.28125 389.039062 205.683594 389.875 204.367188 C 390.71875 203.046875 391.820312 202.238281 393.019531 201.289062 C 393.570312 200.851562 393.050781 199.910156 392.382812 200.207031 C 389.207031 201.617188 387.46875 205.523438 388.101562 208.8125 C 388.101562 208.839844 388.148438 208.84375 388.15625 208.8125 Z M 388.15625 208.8125 " fill-opacity="1" fill-rule="nonzero"/><path fill="#ffe15c" d="M 424.472656 382.910156 C 417.226562 384.734375 410.214844 387.523438 403.34375 390.433594 C 395.957031 393.558594 388.0625 396.617188 381.445312 401.1875 C 381.101562 401.421875 381.300781 402.074219 381.75 401.910156 C 388.738281 399.339844 395.304688 395.53125 402.117188 392.511719 C 409.53125 389.222656 417.148438 386.390625 424.503906 382.984375 C 424.546875 382.964844 424.515625 382.902344 424.472656 382.910156 Z M 424.472656 382.910156 " fill-opacity="1" fill-rule="nonzero"/><path fill="#4f1e20" d="M 412.363281 208.304688 C 412.199219 210.886719 413.207031 213.058594 414.617188 213.148438 C 416.023438 213.234375 417.300781 211.210938 417.464844 208.625 C 417.625 206.042969 416.621094 203.871094 415.210938 203.78125 C 413.804688 203.691406 412.53125 205.714844 412.363281 208.304688 Z M 412.363281 208.304688 " fill-opacity="1" fill-rule="nonzero"/><path fill="#4f1e20" d="M 412.992188 208.605469 C 413.257812 206.082031 414.761719 204.121094 416.761719 202.707031 C 417.644531 202.082031 416.621094 200.828125 415.734375 201.402344 C 413.347656 202.949219 412.402344 205.941406 412.933594 208.609375 C 412.941406 208.640625 412.988281 208.640625 412.992188 208.605469 Z M 412.992188 208.605469 " fill-opacity="1" fill-rule="nonzero"/><path fill="#4f1e20" d="M 384.707031 196.328125 C 386.414062 196.0625 388.035156 195.195312 389.667969 194.664062 C 391.441406 194.085938 393.191406 193.917969 395.023438 193.679688 C 396.980469 193.425781 396.730469 190.316406 394.785156 190.242188 C 391.042969 190.097656 385.574219 191.722656 383.914062 195.421875 C 383.6875 195.933594 384.230469 196.398438 384.707031 196.328125 Z M 384.707031 196.328125 " fill-opacity="1" fill-rule="nonzero"/><path fill="#4f1e20" d="M 420.476562 196.855469 C 421.003906 193.757812 416.597656 190.371094 413.738281 191.140625 C 412.539062 191.464844 412.609375 193.128906 413.410156 193.777344 C 414.363281 194.554688 415.738281 194.65625 416.789062 195.367188 C 417.753906 196.023438 418.519531 196.855469 419.566406 197.382812 C 419.964844 197.582031 420.40625 197.25 420.476562 196.855469 Z M 420.476562 196.855469 " fill-opacity="1" fill-rule="nonzero"/><path fill="#e8612c" d="M 389.273438 223.820312 C 391.367188 228.074219 398.765625 231.308594 403.3125 229.527344 C 403.90625 229.292969 403.777344 228.371094 403.148438 228.292969 C 400.609375 227.984375 398.351562 228.308594 395.855469 227.398438 C 393.484375 226.53125 391.570312 225.03125 389.496094 223.652344 C 389.378906 223.574219 389.203125 223.683594 389.273438 223.820312 Z M 389.273438 223.820312 " fill-opacity="1" fill-rule="nonzero"/><path fill="#c23c1f" d="M 371.742188 180.335938 C 369.65625 182.710938 373.226562 177.65625 371.742188 174.089844 C 370.25 170.507812 363.992188 176.769531 359.523438 177.0625 C 355.824219 177.304688 351.925781 175.3125 351.355469 169.566406 C 353.328125 167.515625 355.125 165.28125 356.535156 162.785156 C 361.882812 153.347656 370.632812 148.441406 377.300781 147.675781 C 375.574219 148.234375 373.273438 149.503906 370.847656 152.371094 C 365.78125 158.328125 366.074219 163.675781 368.464844 164.269531 C 370.847656 164.863281 372.339844 162.488281 376.8125 163.675781 C 381.28125 164.859375 373.824219 177.957031 371.742188 180.335938 Z M 371.742188 180.335938 " fill-opacity="1" fill-rule="nonzero"/><path fill="#f5833b" d="M 376.25 436.796875 C 372.980469 438.101562 365.140625 441.074219 362.804688 440.371094 C 359.816406 439.476562 335.984375 412.695312 336.875 410.320312 C 337.257812 409.304688 338.238281 408.664062 339.242188 408.257812 C 339.339844 408.300781 339.40625 408.324219 339.464844 408.335938 C 340.433594 408.582031 346.585938 409.558594 351.5 410.644531 C 353.914062 411.859375 356.449219 413.359375 358.945312 414.96875 C 360.941406 419.164062 364.429688 427.484375 365.679688 429.359375 C 366.660156 430.816406 370.46875 433.019531 373.546875 434.953125 C 374.570312 435.617188 375.515625 436.234375 376.25 436.796875 Z M 376.25 436.796875 " fill-opacity="0.61" fill-rule="nonzero"/><path fill="#f5833b" d="M 412.546875 265.742188 C 412.546875 265.753906 412.535156 265.765625 412.511719 265.785156 C 411.472656 267.089844 394.5625 287.859375 372.039062 291.308594 C 348.800781 294.882812 342.839844 269.292969 342.839844 269.292969 C 344.425781 269.292969 346.476562 268.734375 348.664062 267.882812 C 350.609375 274.058594 355.921875 284.347656 369.65625 284.769531 C 389.015625 285.351562 411.84375 266.324219 412.546875 265.742188 Z M 412.546875 265.742188 " fill-opacity="0.61" fill-rule="nonzero"/><path fill="#add437" d="M 443.324219 352.777344 C 440.757812 351.578125 417.390625 340.109375 413.167969 319.871094 C 408.699219 298.453125 423.601562 270.496094 434.023438 265.730469 C 434.023438 265.730469 425.082031 278.816406 426.867188 307.976562 C 427.800781 323.285156 434.5 337.9375 440.628906 348.398438 C 441.546875 349.945312 442.445312 351.414062 443.324219 352.777344 Z M 443.324219 352.777344 " fill-opacity="1" fill-rule="nonzero"/><path fill="#c93f20" d="M 333.5 905.003906 C 330.453125 906.742188 326.941406 905.679688 323.695312 903.628906 C 320.40625 898.023438 316.613281 895.878906 316.613281 895.878906 C 316.613281 895.878906 317.804688 871.78125 332.109375 881.894531 C 332.179688 881.953125 332.261719 882 332.332031 882.058594 C 336.5 889.714844 339.675781 901.484375 333.5 905.003906 Z M 333.5 905.003906 " fill-opacity="1" fill-rule="nonzero"/><path fill="#f5833b" d="M 367.671875 440.464844 C 367.671875 440.464844 358.332031 435.015625 358.929688 433.230469 C 359.523438 431.445312 367.671875 440.464844 367.671875 440.464844 Z M 367.671875 440.464844 " fill-opacity="1" fill-rule="nonzero"/><path fill="#c93f20" d="M 476.710938 881.429688 C 468.25 888.339844 446.496094 899.839844 442.761719 895.085938 C 441.640625 893.675781 441.558594 891.824219 442.058594 889.84375 C 442.328125 889.226562 442.632812 888.652344 442.957031 888.140625 C 448.316406 879.808594 467.125 874.332031 473.941406 879.015625 C 474.960938 879.714844 475.871094 880.53125 476.710938 881.429688 Z M 476.710938 881.429688 " fill-opacity="1" fill-rule="nonzero"/><path fill="#ffbc91" d="M 391.503906 418.253906 C 391.601562 416.835938 393.777344 414.519531 393.886719 413.097656 C 388.324219 411.113281 383.652344 402.085938 382.363281 400.796875 C 380.777344 399.214844 377.207031 400.003906 376.808594 401.988281 C 376.410156 403.96875 378.792969 410.320312 376.808594 409.527344 C 374.8125 408.734375 369.449219 398.816406 366.671875 397.625 C 363.886719 396.4375 361.308594 397.628906 361.707031 399.214844 C 362.105469 400.796875 368.464844 412.296875 365.28125 411.113281 C 362.105469 409.921875 357.742188 402.78125 354.949219 400.796875 C 352.171875 398.816406 347.808594 400.796875 348.207031 402.382812 C 348.390625 403.152344 350.785156 407.171875 352.976562 410.980469 C 355.277344 414.933594 357.355469 418.660156 356.535156 418.253906 C 354.949219 417.460938 349.394531 410.714844 347.808594 410.320312 C 346.207031 409.921875 339.0625 409.128906 340.652344 412.300781 C 342.242188 415.484375 360.121094 437.691406 363.691406 437.691406 C 365.257812 437.691406 369.257812 436.421875 373.542969 434.953125 C 378.992188 433.089844 384.933594 430.886719 386.941406 430.550781 C 387.136719 430.515625 387.386719 430.5 387.671875 430.496094 C 387.875 424.605469 391.105469 424.089844 391.503906 418.253906 Z M 391.503906 418.253906 " fill-opacity="1" fill-rule="nonzero"/><path fill="#f4af14" d="M 529.695312 399.367188 C 527.257812 398.804688 525.796875 398.421875 525.796875 398.421875 C 527.199219 398.421875 528.492188 398.773438 529.695312 399.367188 Z M 529.695312 399.367188 " fill-opacity="1" fill-rule="nonzero"/><path fill="#d99a0f" d="M 529.367188 414.492188 C 524 419.25 494.507812 407.351562 458.75 407.351562 C 439.925781 407.351562 416.558594 409.273438 398.65625 411.101562 C 446.449219 392.691406 519.980469 410.285156 524.59375 409.132812 C 529.363281 407.941406 525.792969 398.425781 525.792969 398.425781 C 525.792969 398.425781 536.617188 408.046875 529.367188 414.492188 Z M 529.367188 414.492188 " fill-opacity="1" fill-rule="nonzero"/><path fill="#ffe15c" d="M 491.230469 328.207031 C 491.230469 328.207031 491.230469 321.660156 495.402344 318.089844 C 499.574219 314.519531 511.492188 311.542969 511.492188 311.542969 C 511.492188 311.542969 508.824219 320.757812 504.9375 324.636719 C 498.378906 331.179688 491.230469 328.207031 491.230469 328.207031 Z M 491.230469 328.207031 " fill-opacity="1" fill-rule="nonzero"/><path fill="#ffe15c" d="M 494.804688 382.949219 C 494.804688 382.949219 501.957031 377 509.109375 376.40625 C 516.261719 375.808594 528.175781 381.164062 528.175781 381.164062 C 528.175781 381.164062 518.046875 387.710938 510.894531 388.304688 C 503.742188 388.898438 494.804688 382.949219 494.804688 382.949219 Z M 494.804688 382.949219 " fill-opacity="1" fill-rule="nonzero"/><path fill="#ffc619" d="M 552.609375 393.066406 C 552.609375 393.066406 559.164062 387.710938 566.316406 388.898438 C 573.46875 390.089844 585.382812 397.824219 585.382812 397.824219 C 585.382812 397.824219 574.0625 402.585938 566.316406 401.992188 C 558.570312 401.394531 552.609375 393.066406 552.609375 393.066406 Z M 552.609375 393.066406 " fill-opacity="1" fill-rule="nonzero"/><path fill="#ffe15c" d="M 563.25 314.703125 C 535.355469 318.691406 508.09375 327.316406 482.144531 338.152344 C 456.761719 348.75 431.816406 361.617188 409.933594 378.375 C 409.515625 378.695312 409.882812 379.402344 410.363281 379.105469 C 434.117188 364.546875 458.03125 350.566406 483.78125 339.757812 C 509.511719 328.957031 536.222656 321.46875 563.316406 314.941406 C 563.476562 314.902344 563.402344 314.679688 563.25 314.703125 Z M 563.25 314.703125 " fill-opacity="1" fill-rule="nonzero"/><path fill="#ffe15c" d="M 520.441406 352.542969 C 502.128906 353.535156 483.40625 358.699219 465.761719 363.421875 C 456.621094 365.867188 447.542969 368.550781 438.554688 371.503906 C 430.003906 374.316406 420.738281 376.808594 412.894531 381.277344 C 412.410156 381.550781 412.742188 382.269531 413.261719 382.152344 C 422.386719 380.105469 431.234375 376.003906 440.121094 373.078125 C 448.765625 370.230469 457.476562 367.597656 466.253906 365.199219 C 484.160156 360.308594 502.605469 357.636719 520.480469 352.808594 C 520.625 352.769531 520.597656 352.535156 520.441406 352.542969 Z M 520.441406 352.542969 " fill-opacity="1" fill-rule="nonzero"/><path fill="#ffe15c" d="M 517.457031 382.828125 C 498.1875 381.957031 479.105469 381.507812 459.851562 383.316406 C 442.425781 384.949219 423.933594 387.691406 408.15625 395.648438 C 407.722656 395.867188 408.023438 396.542969 408.480469 396.417969 C 426.621094 391.585938 444.246094 387.195312 463.03125 385.5625 C 481.089844 383.992188 499.347656 383.703125 517.460938 383.125 C 517.65625 383.125 517.65625 382.835938 517.457031 382.828125 Z M 517.457031 382.828125 " fill-opacity="1" fill-rule="nonzero"/><path fill="#ffe15c" d="M 500.167969 355.578125 C 500.167969 355.578125 502.550781 350.222656 509.109375 347.84375 C 515.664062 345.460938 529.964844 351.410156 529.964844 351.410156 C 529.964844 351.410156 521.621094 358.554688 516.261719 360.335938 C 510.894531 362.125 500.167969 355.578125 500.167969 355.578125 Z M 500.167969 355.578125 " fill-opacity="1" fill-rule="nonzero"/><path fill="#ffe15c" d="M 438.785156 371.640625 C 438.785156 371.640625 442.957031 363.90625 447.722656 361.527344 C 452.492188 359.148438 465.601562 360.335938 465.601562 360.335938 C 465.601562 360.335938 460.238281 369.859375 454.875 372.238281 C 449.511719 374.617188 438.785156 371.640625 438.785156 371.640625 Z M 438.785156 371.640625 " fill-opacity="1" fill-rule="nonzero"/><path fill="#ffe15c" d="M 544.863281 318.089844 C 544.863281 318.089844 550.226562 311.542969 555.589844 310.355469 C 560.953125 309.164062 577.042969 312.734375 577.042969 312.734375 C 577.042969 312.734375 567.507812 319.875 562.144531 321.660156 C 556.78125 323.445312 544.863281 318.089844 544.863281 318.089844 Z M 544.863281 318.089844 " fill-opacity="1" fill-rule="nonzero"/><path fill="#ffc619" d="M 568.105469 359.148438 C 568.105469 359.148438 576.449219 352.601562 583.003906 354.386719 C 589.558594 356.175781 597.90625 360.933594 597.90625 360.933594 C 597.90625 360.933594 590.15625 365.101562 583.601562 366.882812 C 577.046875 368.667969 568.105469 359.148438 568.105469 359.148438 Z M 568.105469 359.148438 " fill-opacity="1" fill-rule="nonzero"/><path fill="#bae045" d="M 363.703125 561.609375 C 364.671875 572.191406 365.382812 584.160156 365.875 597.070312 C 364.636719 576.84375 363.796875 563.183594 363.703125 561.609375 Z M 363.703125 561.609375 " fill-opacity="0.57" fill-rule="nonzero"/><path fill="#ffd147" d="M 374.792969 166.050781 C 374.792969 166.050781 374.355469 161.742188 377.523438 159.28125 C 380.6875 156.828125 385.96875 157.773438 385.96875 157.773438 C 385.96875 157.773438 385.628906 161.339844 383.453125 163.367188 C 381.265625 165.394531 374.792969 166.050781 374.792969 166.050781 Z M 374.792969 166.050781 " fill-opacity="1" fill-rule="nonzero"/><path fill="#ffd147" d="M 367.867188 172.824219 C 367.867188 172.824219 365.042969 169.800781 364.96875 166.765625 C 364.894531 163.734375 367.882812 159.398438 367.882812 159.398438 C 367.882812 159.398438 371.125 162.933594 371.5625 166.191406 C 371.996094 169.445312 367.867188 172.824219 367.867188 172.824219 Z M 367.867188 172.824219 " fill-opacity="1" fill-rule="nonzero"/><path fill="#ffd147" d="M 365.78125 179.742188 C 365.78125 179.742188 366.6875 174.390625 369.660156 174.386719 C 372.636719 174.386719 377.703125 175.277344 377.703125 175.277344 C 377.703125 175.277344 375.617188 179.445312 372.636719 180.335938 C 369.65625 181.226562 365.78125 179.742188 365.78125 179.742188 Z M 365.78125 179.742188 " fill-opacity="1" fill-rule="nonzero"/><path fill="#ffd147" d="M 363.671875 181.730469 C 363.671875 181.730469 359.316406 179.125 358.832031 176.773438 C 358.34375 174.425781 359.257812 169.714844 359.257812 169.714844 C 359.257812 169.714844 362.851562 171.945312 363.902344 174.105469 C 364.949219 176.265625 363.671875 181.730469 363.671875 181.730469 Z M 363.671875 181.730469 " fill-opacity="1" fill-rule="nonzero"/><path fill="#ffd147" d="M 381.183594 161.101562 C 375.480469 163.949219 369.773438 168.269531 366.242188 173.636719 C 363.550781 177.734375 361.105469 183.996094 363.574219 188.644531 C 364.085938 189.601562 365.378906 189.058594 365.460938 188.136719 C 365.996094 182.257812 365.757812 177.898438 369.398438 172.796875 C 372.675781 168.210938 377.285156 165.089844 381.246094 161.191406 C 381.296875 161.140625 381.238281 161.070312 381.183594 161.101562 Z M 381.183594 161.101562 " fill-opacity="1" fill-rule="nonzero"/><path fill="#f5833b" d="M 350.585938 449.589844 C 350.585938 449.589844 344.027344 445.429688 344.328125 443.644531 C 344.625 441.859375 350.585938 449.589844 350.585938 449.589844 Z M 350.585938 449.589844 " fill-opacity="1" fill-rule="nonzero"/><path fill="#f5833b" d="M 361.3125 448.402344 C 361.3125 448.402344 351.480469 442.15625 352.375 440.070312 C 353.265625 437.992188 361.3125 448.402344 361.3125 448.402344 Z M 361.3125 448.402344 " fill-opacity="1" fill-rule="nonzero"/><path fill="#f5833b" d="M 356.539062 418.257812 C 356.539062 418.257812 364.589844 425.199219 364.292969 426.984375 C 363.992188 428.765625 356.539062 418.257812 356.539062 418.257812 Z M 356.539062 418.257812 " fill-opacity="1" fill-rule="nonzero"/><path fill="#f5833b" d="M 365.28125 411.113281 C 365.28125 411.113281 372.636719 419.839844 371.742188 421.03125 C 370.847656 422.222656 358.332031 404.667969 358.332031 404.667969 Z M 365.28125 411.113281 " fill-opacity="1" fill-rule="nonzero"/><path fill="#f5833b" d="M 371.445312 402.585938 C 371.445312 402.585938 378.894531 416.867188 380.085938 416.570312 C 381.277344 416.273438 376.507812 407.644531 371.445312 402.585938 Z M 371.445312 402.585938 " fill-opacity="1" fill-rule="nonzero"/></svg>